<svg width="16" height="16" viewBox="0 0 16 16" fill="none" xmlns="http://www.w3.org/2000/svg">
<path fill-rule="evenodd" clip-rule="evenodd" d="M14.2079 15.2685C14.5008 15.5614 14.9756 15.5614 15.2685 15.2685C15.5614 14.9756 15.5614 14.5008 15.2685 14.2079L8.80476 7.7441L15.2685 1.28033C15.5614 0.987437 15.5614 0.512563 15.2685 0.21967C14.9756 -0.0732231 14.5008 -0.0732231 14.2079 0.21967L7.7441 6.68344L1.28033 0.21967C0.987438 -0.0732231 0.512564 -0.0732234 0.219671 0.21967C-0.0732222 0.512563 -0.073222 0.987437 0.219671 1.28033L6.68344 7.7441L0.21967 14.2079C-0.0732231 14.5008 -0.0732234 14.9756 0.21967 15.2685C0.512563 15.5614 0.987437 15.5614 1.28033 15.2685L7.7441 8.80476L14.2079 15.2685Z" fill="#707274"/>
</svg>
