<svg width="52" height="65" viewBox="0 0 52 65" fill="none" xmlns="http://www.w3.org/2000/svg">
<g filter="url(#filter0_dd)">
<path d="M25.9922 15.733C20.2021 15.733 15.4922 20.464 15.4922 26.2799C15.4922 28.2446 16.0339 30.162 17.0585 31.8255L25.3941 45.3172C25.7397 45.8779 26.5546 45.8693 26.8895 45.3052L35.0123 31.683C35.9795 30.0548 36.4922 28.1862 36.4922 26.2799C36.4922 20.464 31.7822 15.733 25.9922 15.733ZM25.9922 31.5651C23.0554 31.5651 20.7305 29.1639 20.7305 26.2799C20.7305 23.372 23.0972 20.9948 25.9922 20.9948C28.8872 20.9948 31.2539 23.372 31.2539 26.2799C31.2539 29.1385 28.9602 31.5651 25.9922 31.5651Z" fill="#333333"/>
<path d="M26 19C22.1394 19 19 22.1394 19 26C19 29.8791 22.1338 33 26 33C29.9355 33 33 29.8202 33 26C33 22.1394 29.8606 19 26 19Z" fill="white"/>
</g>
<defs>
<filter id="filter0_dd" x="0.492188" y="0.733032" width="51" height="64" filterUnits="userSpaceOnUse" color-interpolation-filters="sRGB">
<feFlood flood-opacity="0" result="BackgroundImageFix"/>
<feColorMatrix in="SourceAlpha" type="matrix" values="0 0 0 0 0 0 0 0 0 0 0 0 0 0 0 0 0 0 127 0" result="hardAlpha"/>
<feOffset dy="4"/>
<feGaussianBlur stdDeviation="7.5"/>
<feColorMatrix type="matrix" values="0 0 0 0 0 0 0 0 0 0 0 0 0 0 0 0 0 0 0.15 0"/>
<feBlend mode="normal" in2="BackgroundImageFix" result="effect1_dropShadow"/>
<feColorMatrix in="SourceAlpha" type="matrix" values="0 0 0 0 0 0 0 0 0 0 0 0 0 0 0 0 0 0 127 0" result="hardAlpha"/>
<feOffset/>
<feGaussianBlur stdDeviation="7.5"/>
<feColorMatrix type="matrix" values="0 0 0 0 1 0 0 0 0 1 0 0 0 0 1 0 0 0 1 0"/>
<feBlend mode="normal" in2="effect1_dropShadow" result="effect2_dropShadow"/>
<feBlend mode="normal" in="SourceGraphic" in2="effect2_dropShadow" result="shape"/>
</filter>
</defs>
</svg>
