<svg width="52" height="65" viewBox="0 0 52 65" fill="none" xmlns="http://www.w3.org/2000/svg">
<g filter="url(#filter0_dd_7_2083)">
<path d="M25.9922 15.733C20.2021 15.733 15.4922 20.464 15.4922 26.2799C15.4922 28.2446 16.0339 30.162 17.0585 31.8255L25.3941 45.3172C25.7397 45.8779 26.5546 45.8693 26.8895 45.3052L35.0123 31.683C35.9795 30.0548 36.4922 28.1862 36.4922 26.2799C36.4922 20.464 31.7822 15.733 25.9922 15.733ZM25.9922 31.5651C23.0554 31.5651 20.7305 29.1639 20.7305 26.2799C20.7305 23.372 23.0972 20.9948 25.9922 20.9948C28.8872 20.9948 31.2539 23.372 31.2539 26.2799C31.2539 29.1385 28.9602 31.5651 25.9922 31.5651Z" fill="#FF4A4A"/>
<path d="M26 19C22.1394 19 19 22.1394 19 26C19 29.8791 22.1338 33 26 33C29.9355 33 33 29.8202 33 26C33 22.1394 29.8606 19 26 19Z" fill="white"/>
<path fill-rule="evenodd" clip-rule="evenodd" d="M26.86 21H24.46V21.68H22.86V24.1292L22.02 24.36L23.22 26.26V27.8527C23.1584 27.798 23.0783 27.7351 22.9736 27.6847C22.8329 27.6169 22.667 27.58 22.46 27.58C21.8098 27.58 21.282 27.9538 21.0879 28.1479C20.9707 28.265 20.9707 28.455 21.0879 28.5721C21.205 28.6893 21.395 28.6893 21.5121 28.5721C21.638 28.4462 22.0222 28.18 22.46 28.18C22.593 28.18 22.6671 28.2031 22.7133 28.2253C22.7623 28.2489 22.8009 28.281 22.8619 28.3385L22.8779 28.3537C22.9337 28.4066 23.0176 28.4864 23.127 28.5472C23.2573 28.6196 23.4097 28.66 23.6 28.66C23.7799 28.66 23.9255 28.6301 24.052 28.5781C24.1724 28.5285 24.2637 28.463 24.3288 28.4163L24.3323 28.4138C24.4018 28.364 24.4417 28.3363 24.4905 28.3156C24.5342 28.2971 24.5964 28.28 24.7 28.28C24.8033 28.28 24.8536 28.297 24.8835 28.311C24.9163 28.3264 24.9386 28.3431 24.9877 28.3802L24.9877 28.3802L25.0283 28.4106C25.1031 28.4663 25.2023 28.5342 25.3476 28.5843C25.4901 28.6334 25.6609 28.66 25.88 28.66C26.0971 28.66 26.2646 28.6339 26.4017 28.5794C26.5458 28.5222 26.6327 28.4425 26.6919 28.3849L26.6925 28.3843L26.6925 28.3843L26.6925 28.3843L26.6925 28.3842L26.6925 28.3842C26.7511 28.3272 26.7598 28.3186 26.7806 28.3084C26.7982 28.2997 26.8486 28.28 26.98 28.28C27.1099 28.28 27.1724 28.2992 27.2049 28.3136C27.24 28.3292 27.2631 28.3479 27.3239 28.3992C27.3837 28.4497 27.4723 28.524 27.6069 28.5786C27.7401 28.6327 27.8982 28.66 28.1 28.66C28.3156 28.66 28.4868 28.6179 28.6299 28.5362C28.762 28.4608 28.8502 28.3615 28.9076 28.2968L28.9142 28.2893C28.977 28.2187 29.0072 28.1879 29.0474 28.165C29.0818 28.1454 29.1456 28.12 29.28 28.12C29.4907 28.12 29.5873 28.1851 29.6322 28.2314C29.6848 28.2856 29.6993 28.3479 29.7002 28.3711C29.7063 28.5367 29.8455 28.6659 30.0111 28.6598C30.1767 28.6537 30.3059 28.5145 30.2998 28.3489C30.294 28.1921 30.2285 27.9844 30.0628 27.8136C29.8894 27.6349 29.6293 27.52 29.28 27.52C29.0644 27.52 28.8932 27.5621 28.7501 27.6438C28.618 27.7192 28.5298 27.8185 28.4724 27.8832L28.4658 27.8907C28.403 27.9613 28.3728 27.9921 28.3326 28.015C28.2982 28.0346 28.2344 28.06 28.1 28.06H28.1V26.26L29.3 24.36L28.46 24.1292V21.68H26.86V21ZM27.5 22.64H23.82V23.8655L25.66 23.36L27.5 23.8655V22.64ZM28.6499 29.8762C28.5068 29.9579 28.3355 30 28.12 30C27.9182 30 27.7601 29.9727 27.6269 29.9186C27.4923 29.864 27.4037 29.7897 27.3439 29.7392C27.2831 29.6879 27.26 29.6692 27.2249 29.6536C27.1924 29.6392 27.1299 29.62 27 29.62C26.8686 29.62 26.8182 29.6397 26.8006 29.6484C26.7798 29.6586 26.7711 29.6672 26.7125 29.7243L26.7119 29.7249C26.6527 29.7825 26.5658 29.8622 26.4217 29.9194C26.2846 29.9739 26.1171 30 25.9 30C25.6809 30 25.5101 29.9734 25.3676 29.9243C25.2223 29.8742 25.1231 29.8063 25.0482 29.7506L25.0077 29.7202L25.0077 29.7202C24.9586 29.6831 24.9363 29.6664 24.9035 29.651C24.8736 29.637 24.8233 29.62 24.72 29.62C24.6164 29.62 24.5542 29.6371 24.5105 29.6556C24.4617 29.6763 24.4218 29.704 24.3523 29.7538L24.3488 29.7563C24.2837 29.803 24.1924 29.8685 24.072 29.9181C23.9455 29.9701 23.7999 30 23.62 30C23.4296 30 23.2773 29.9596 23.147 29.8872C23.0376 29.8264 22.9537 29.7466 22.8979 29.6937L22.8819 29.6785C22.8209 29.621 22.7823 29.5889 22.7333 29.5653C22.6871 29.5431 22.613 29.52 22.48 29.52C22.0422 29.52 21.658 29.7862 21.5321 29.9121C21.415 30.0293 21.225 30.0293 21.1079 29.9121C20.9907 29.795 20.9907 29.605 21.1079 29.4879C21.302 29.2938 21.8298 28.92 22.48 28.92C22.687 28.92 22.8529 28.957 22.9936 29.0247C23.1315 29.0911 23.2266 29.179 23.2931 29.2415L23.2969 29.2451C23.3666 29.3108 23.3979 29.3402 23.4386 29.3628C23.4702 29.3804 23.5203 29.4 23.62 29.4C23.7301 29.4 23.797 29.3824 23.8436 29.3632C23.8942 29.3424 23.9354 29.3144 24.0027 29.2662L24.0115 29.2599C24.074 29.215 24.1625 29.1514 24.2764 29.1032C24.4008 29.0504 24.5436 29.02 24.72 29.02C24.8967 29.02 25.0364 29.0505 25.1583 29.1078C25.2535 29.1524 25.3327 29.2129 25.3835 29.2518L25.4067 29.2694C25.4594 29.3087 25.5015 29.3358 25.563 29.357C25.6274 29.3791 25.7291 29.4 25.9 29.4C26.0729 29.4 26.1579 29.3786 26.2002 29.3618C26.2354 29.3478 26.2548 29.3325 26.2931 29.2951L26.3059 29.2825C26.348 29.2407 26.4239 29.1652 26.535 29.1104C26.6617 29.0478 26.8114 29.02 27 29.02C27.1901 29.02 27.3401 29.0483 27.4682 29.1051C27.5855 29.1572 27.6679 29.2272 27.7204 29.2718L27.731 29.2808C27.7838 29.3253 27.8115 29.346 27.8525 29.3626C27.8949 29.3798 27.9718 29.4 28.12 29.4C28.2544 29.4 28.3182 29.3747 28.3526 29.355C28.3928 29.3321 28.423 29.3013 28.4858 29.2307L28.4924 29.2232C28.5498 29.1585 28.638 29.0592 28.7701 28.9838C28.9132 28.9022 29.0844 28.86 29.3 28.86C29.6493 28.86 29.9094 28.9749 30.0828 29.1536C30.2485 29.3244 30.314 29.5321 30.3198 29.6889C30.3259 29.8545 30.1967 29.9937 30.0311 29.9998C29.8655 30.0059 29.7263 29.8767 29.7202 29.7111C29.7193 29.6879 29.7048 29.6256 29.6522 29.5714C29.6073 29.5251 29.5107 29.46 29.3 29.46C29.1655 29.46 29.1018 29.4854 29.0674 29.505C29.0272 29.5279 28.997 29.5587 28.9342 29.6293L28.9276 29.6368C28.8701 29.7015 28.782 29.8008 28.6499 29.8762Z" fill="#FF4A4A"/>
</g>
<defs>
<filter id="filter0_dd_7_2083" x="0.492188" y="0.733032" width="51" height="64" filterUnits="userSpaceOnUse" color-interpolation-filters="sRGB">
<feFlood flood-opacity="0" result="BackgroundImageFix"/>
<feColorMatrix in="SourceAlpha" type="matrix" values="0 0 0 0 0 0 0 0 0 0 0 0 0 0 0 0 0 0 127 0" result="hardAlpha"/>
<feOffset dy="4"/>
<feGaussianBlur stdDeviation="7.5"/>
<feColorMatrix type="matrix" values="0 0 0 0 0 0 0 0 0 0 0 0 0 0 0 0 0 0 0.15 0"/>
<feBlend mode="normal" in2="BackgroundImageFix" result="effect1_dropShadow_7_2083"/>
<feColorMatrix in="SourceAlpha" type="matrix" values="0 0 0 0 0 0 0 0 0 0 0 0 0 0 0 0 0 0 127 0" result="hardAlpha"/>
<feOffset/>
<feGaussianBlur stdDeviation="7.5"/>
<feColorMatrix type="matrix" values="0 0 0 0 1 0 0 0 0 1 0 0 0 0 1 0 0 0 1 0"/>
<feBlend mode="normal" in2="effect1_dropShadow_7_2083" result="effect2_dropShadow_7_2083"/>
<feBlend mode="normal" in="SourceGraphic" in2="effect2_dropShadow_7_2083" result="shape"/>
</filter>
</defs>
</svg>
