<svg width="1246" height="708" viewBox="0 0 1246 708" fill="none" xmlns="http://www.w3.org/2000/svg">
<path opacity="0.5" d="M104.492 505.233C115.492 505.566 140.792 504.033 153.992 495.233C170.492 484.233 200.992 469.233 207.492 470.233M207.492 470.233C223.492 470.233 287.492 505.233 313.492 520.233C339.492 535.233 373.492 541.733 394.492 544.733C411.292 547.133 425.159 538.733 429.992 534.233M207.492 470.233C193.992 458.566 166.292 430.433 163.492 411.233M169.992 314.733C174.159 331.233 185.892 365.733 199.492 371.733C205.322 374.305 211.27 378.994 216.992 384.61M244.992 418.733C272.659 444.9 332.492 498.033 350.492 501.233C372.992 505.233 376.492 512.233 388.992 516.233C401.492 520.233 419.492 531.233 429.992 534.233M244.992 418.733C238.093 409.534 227.956 395.371 216.992 384.61M244.992 418.733C227.992 421.066 187.892 422.833 163.492 411.233M429.992 534.233C440.492 537.233 470.492 550.733 487.992 562.233C505.492 573.733 511.492 579.733 518.492 579.733M518.492 579.733C525.492 579.733 541.492 572.733 547.992 574.733C554.492 576.733 566.992 581.733 570.492 581.733C573.992 581.733 593.492 574.733 605.492 581.733C617.492 588.733 624.492 599.233 631.992 598.233M518.492 579.733L510.992 621.244M631.992 598.233C631.992 599.066 634.692 602.533 645.492 609.733C656.292 616.933 710.326 623.4 735.992 625.733C759.992 629.233 763.992 610.233 778.492 603.233M631.992 598.233C627.659 603.4 614.392 613.333 595.992 611.733C572.992 609.733 565.992 602.733 550.492 614.233C539.148 622.65 525.393 617.407 510.992 621.244M1093.49 622.233C1090.15 619.778 1084.95 614.835 1081.49 608.733M987.492 549.733C1010.99 561.233 1013.99 560.233 1027.49 552.733C1038.29 546.733 1058.33 530.233 1066.99 522.733C1085.49 529.733 1079.49 579.733 1077.99 594.733C1077.5 599.662 1079.07 604.479 1081.49 608.733M987.492 549.733C964.169 538.32 945.771 519.026 919.59 522.647C919.391 522.674 919.192 522.703 918.992 522.733C892.492 526.733 881.492 545.233 879.992 558.233C878.492 571.233 848.992 606.733 829.992 610.233M987.492 549.733C985.492 551.066 980.992 554.633 978.992 558.233M829.992 610.233C810.992 613.733 792.992 596.233 778.492 603.233M829.992 610.233C846.826 608.233 882.292 605.033 889.492 608.233M778.492 603.233C774.659 611.9 767.192 630.533 767.992 635.733M494.992 630.233C500.354 625.273 505.717 622.649 510.992 621.244M163.492 411.233C160.692 392.033 197.992 385.485 216.992 384.61M163.492 411.233C151.826 403.4 126.792 382.633 119.992 362.233M216.992 384.61C211.326 351.151 208.992 278.233 244.992 254.233C280.992 230.233 294.326 226.566 296.492 227.733M1081.49 608.733C1079.49 612.233 1076.29 620.433 1079.49 625.233" stroke="#FFDF07" stroke-width="3" stroke-linecap="round"/>
<path opacity="0.5" d="M1086.49 493.453C1079.9 487.453 1056.58 486.953 1045.93 483.453C1038.6 481.045 1040.88 493.315 1033.76 494.524C1030.53 495.072 1025.38 493.347 1016.52 486.953C988.125 466.453 945.026 472.953 929.307 465.453C924.825 463.315 917.787 466.136 909.533 471.309C888.84 484.277 860.506 512.024 845.645 513.453C824.856 515.453 807.109 530.953 757.418 530.953C707.728 530.953 703.164 530.453 676.798 541.453C660.572 551.213 628.831 576.333 631.671 598.733" stroke="#FFDF07" stroke-width="3" stroke-linecap="round"/>
</svg>
