<svg width="20" height="20" viewBox="0 0 20 20" fill="none" xmlns="http://www.w3.org/2000/svg">
<path fill-rule="evenodd" clip-rule="evenodd" d="M9.99928 4.54543C11.2545 4.54543 12.272 3.5279 12.272 2.27271C12.272 1.01753 11.2545 0 9.99928 0C8.74409 0 7.72656 1.01753 7.72656 2.27271C7.72656 3.5279 8.74409 4.54543 9.99928 4.54543ZM6.8821 9.09092H13.1161C13.6532 9.09092 14.09 8.61948 14.09 8.03977V7.74859C14.09 6.98908 13.7141 6.29529 13.1081 5.93793C12.3824 5.51 11.254 5 9.99912 5C8.74423 5 7.61586 5.51004 6.89011 5.93793C6.28418 6.29524 5.9082 6.98908 5.9082 7.74859V8.03977C5.9082 8.61953 6.34499 9.09092 6.8821 9.09092ZM6.36184 13.1818C6.36184 14.437 5.34431 15.4545 4.08912 15.4545C2.83394 15.4545 1.81641 14.437 1.81641 13.1818C1.81641 11.9266 2.83394 10.9091 4.08912 10.9091C5.34431 10.9091 6.36184 11.9266 6.36184 13.1818ZM7.19992 16.8471C6.47417 16.4192 5.3458 15.9092 4.09091 15.9092C2.83602 15.9092 1.70766 16.4192 0.981904 16.8471C0.37598 17.2044 0 17.8982 0 18.6577V18.9489C0 19.5286 0.43679 20 0.973893 20H7.20793C7.74503 20 8.18182 19.5286 8.18182 18.9489V18.6577C8.18182 17.8982 7.80584 17.2044 7.19992 16.8471ZM18.1821 13.1818C18.1821 14.437 17.1646 15.4545 15.9094 15.4545C14.6542 15.4545 13.6367 14.437 13.6367 13.1818C13.6367 11.9266 14.6542 10.9091 15.9094 10.9091C17.1646 10.9091 18.1821 11.9266 18.1821 13.1818ZM19.0183 16.8471C18.2925 16.4192 17.1642 15.9092 15.9093 15.9092C14.6544 15.9092 13.526 16.4192 12.8003 16.8471C12.1943 17.2044 11.8184 17.8983 11.8184 18.6578V18.949C11.8184 19.5287 12.2551 20.0001 12.7923 20.0001H19.0263C19.5634 20.0001 20.0002 19.5287 20.0002 18.949V18.6578C20.0002 17.8982 19.6242 17.2044 19.0183 16.8471ZM12.6286 15.2842C12.5385 15.396 12.4066 15.4546 12.273 15.4546C12.1736 15.4546 12.0733 15.4222 11.9894 15.3552L10.0008 13.7643L8.01211 15.3552C7.92824 15.4222 7.82789 15.4546 7.72847 15.4546C7.59483 15.4546 7.46303 15.396 7.3729 15.2841C7.21621 15.0879 7.24817 14.8021 7.44394 14.6449L9.5462 12.9635V10.4546C9.5462 10.2033 9.74951 10.0001 10.0008 10.0001C10.252 10.0001 10.4553 10.2034 10.4553 10.4546V12.9632L12.5576 14.6449C12.7533 14.8021 12.7853 15.088 12.6286 15.2842Z" fill="#FFFFFF"/>
</svg>
