<svg width="20" height="16" viewBox="0 0 20 16" fill="none" xmlns="http://www.w3.org/2000/svg">
<path fill-rule="evenodd" clip-rule="evenodd" d="M15.2734 5.65625V3.32453C17.4047 4.92828 18.7891 7.47105 18.7891 10.3438V12.1016H1.21094V10.3438C1.21094 7.47105 2.59531 4.92828 4.72656 3.32453V5.65625C4.72656 5.98012 4.98863 6.24219 5.3125 6.24219C5.63637 6.24219 5.89844 5.98012 5.89844 5.65625V2.57316C6.27309 2.37496 6.66605 2.20859 7.07031 2.06547V6.82812C7.07031 7.15199 7.33238 7.41406 7.65625 7.41406C7.98012 7.41406 8.24219 7.15199 8.24219 6.82812V0.96875C8.24219 0.645469 8.50484 0.382812 8.82812 0.382812H11.1719C11.4952 0.382812 11.7578 0.645469 11.7578 0.96875V6.82812C11.7578 7.15199 12.0199 7.41406 12.3438 7.41406C12.6676 7.41406 12.9297 7.15199 12.9297 6.82812V2.06543C13.3339 2.20855 13.7269 2.37492 14.1016 2.57312V5.65625C14.1016 5.98012 14.3636 6.24219 14.6875 6.24219C15.0114 6.24219 15.2734 5.98012 15.2734 5.65625ZM1.17188 13.2734H18.8281C19.4754 13.2734 20 13.7981 20 14.4453C20 15.0925 19.4754 15.6172 18.8281 15.6172H1.17188C0.524648 15.6172 0 15.0925 0 14.4453C0 13.7981 0.524648 13.2734 1.17188 13.2734Z" fill="white"/>
</svg>
