<svg width="20" height="20" viewBox="0 0 20 20" fill="none" xmlns="http://www.w3.org/2000/svg">
<path fill-rule="evenodd" clip-rule="evenodd" d="M14.2375 4.27094L12.6209 6.99136C12.3801 6.80796 12.1188 6.65136 11.8418 6.52583L13.4533 3.81306C13.1307 3.48668 12.9312 3.03945 12.9312 2.54455C12.9312 1.54753 13.738 0.740723 14.735 0.740723C15.7337 0.740723 16.5409 1.54796 16.5409 2.54455C16.5409 3.54157 15.7337 4.34923 14.735 4.34923C14.5618 4.34923 14.3967 4.31647 14.2375 4.27094ZM6.25933 5.98529L7.47593 7.13507C7.24444 7.33124 7.0372 7.5538 6.85337 7.79678L5.63848 6.64827C5.36103 6.82188 5.03593 6.92656 4.68444 6.92656C3.68742 6.92656 2.87891 6.11891 2.87891 5.12188C2.87891 4.12486 3.68742 3.31805 4.68444 3.31805C5.68146 3.31805 6.48869 4.12529 6.48869 5.12188C6.48869 5.43635 6.40103 5.72784 6.25933 5.98529ZM18.1964 9.2688C17.4202 9.2688 16.7628 9.76199 16.5079 10.4496L14.2619 10.2279C14.2619 10.2365 14.2626 10.2449 14.2632 10.2532C14.2638 10.2613 14.2645 10.2695 14.2645 10.2777C14.2645 10.5705 14.2321 10.8565 14.1738 11.1326L16.4189 11.3543C16.5547 12.2156 17.2964 12.876 18.1964 12.876C19.193 12.876 19.9998 12.0692 19.9998 11.0726C19.9998 10.0765 19.193 9.2688 18.1964 9.2688ZM11.4961 14.1693L11.9982 16.3633C12.9693 16.3922 13.7489 17.1841 13.7476 18.1624C13.7476 19.1586 12.9408 19.9654 11.9442 19.9654C10.9455 19.9654 10.1387 19.159 10.1387 18.1624C10.1387 17.4663 10.5365 16.8701 11.1131 16.5684L10.6102 14.3739C10.9178 14.3386 11.2127 14.268 11.4961 14.1693ZM6.10936 11.1489L3.31362 12.0855C2.99106 11.5927 2.43574 11.2659 1.80383 11.2659C0.806808 11.2659 0 12.0731 0 13.0697C0 14.0676 0.806808 14.8748 1.80383 14.8748C2.8 14.8748 3.60894 14.0676 3.60894 13.0697C3.60894 13.0441 3.60555 13.0197 3.60216 12.9952C3.60004 12.9799 3.59791 12.9646 3.5966 12.9489L6.40128 12.0097C6.27489 11.7369 6.17447 11.4497 6.10936 11.1489ZM13.235 10.2776C13.235 11.9864 11.8497 13.3717 10.1409 13.3717C8.43213 13.3717 7.04688 11.9864 7.04688 10.2776C7.04688 8.56884 8.43213 7.18359 10.1409 7.18359C11.8497 7.18359 13.235 8.56884 13.235 10.2776Z" fill="#007bc4"/>
</svg>
