<svg width="20" height="16" viewBox="0 0 20 16" fill="none" xmlns="http://www.w3.org/2000/svg">
<path d="M17.9167 0.083252H3.75C2.60168 0.083252 1.66668 1.01825 1.66668 2.16657V2.62575C0.71668 2.81911 0 3.66075 0 4.66661V13.8333C0 14.9816 0.935 15.9166 2.08332 15.9166H3.75H17.9167C19.065 15.9166 20 14.9816 20 13.8333V2.16661C20 1.01825 19.065 0.083252 17.9167 0.083252ZM1.66668 15.0066C1.1825 14.8341 0.833359 14.3758 0.833359 13.8333V4.66661C0.833359 4.12411 1.18254 3.66579 1.66668 3.49329V15.0066ZM10.8333 12.9999C10.8333 13.2299 10.6466 13.4166 10.4166 13.4166H3.75C3.52 13.4166 3.33332 13.2299 3.33332 12.9999V7.99993C3.33332 7.76993 3.52 7.58325 3.75 7.58325H10.4167C10.6467 7.58325 10.8334 7.76993 10.8334 7.99993V12.9999H10.8333ZM17.9167 13.4166H12.0833C11.8533 13.4166 11.6666 13.2299 11.6666 12.9999C11.6666 12.7699 11.8533 12.5833 12.0833 12.5833H17.9166C18.1466 12.5833 18.3333 12.7699 18.3333 12.9999C18.3333 13.2299 18.1467 13.4166 17.9167 13.4166ZM17.9167 10.9166H12.0833C11.8533 10.9166 11.6666 10.7299 11.6666 10.4999C11.6666 10.2699 11.8533 10.0833 12.0833 10.0833H17.9166C18.1466 10.0833 18.3333 10.2699 18.3333 10.4999C18.3333 10.7299 18.1467 10.9166 17.9167 10.9166ZM17.9167 8.41661H12.0833C11.8533 8.41661 11.6666 8.22993 11.6666 7.99993C11.6666 7.76993 11.8533 7.58325 12.0833 7.58325H17.9166C18.1466 7.58325 18.3333 7.76993 18.3333 7.99993C18.3333 8.22993 18.1467 8.41661 17.9167 8.41661ZM17.9167 5.91661H3.75C3.52 5.91661 3.33332 5.72993 3.33332 5.49993C3.33332 5.26993 3.52 5.08325 3.75 5.08325H17.9167C18.1467 5.08325 18.3334 5.26993 18.3334 5.49993C18.3334 5.72993 18.1467 5.91661 17.9167 5.91661ZM17.9167 3.41661H3.75C3.52 3.41661 3.33332 3.22993 3.33332 2.99993C3.33332 2.76993 3.52 2.58325 3.75 2.58325H17.9167C18.1467 2.58325 18.3334 2.76993 18.3334 2.99993C18.3334 3.22993 18.1467 3.41661 17.9167 3.41661Z" fill="white"/>
</svg>
