<svg width="20" height="20" viewBox="0 0 20 20" fill="none" xmlns="http://www.w3.org/2000/svg">
<g clip-path="url(#clip0)">
<path d="M19.4141 3.59375H11.1719C10.8481 3.59375 10.5859 3.8559 10.5859 4.17969V10.0391C10.5859 10.3628 10.8481 10.625 11.1719 10.625H12.9297V12.3828C12.9297 12.6196 13.0722 12.8337 13.2913 12.924C13.5072 13.0142 13.7607 12.9661 13.9299 12.7971L16.102 10.625H19.4141C19.7379 10.625 20 10.3628 20 10.0391V4.17969C20 3.8559 19.7379 3.59375 19.4141 3.59375ZM12.9286 7.69531C12.605 7.69531 12.3427 7.43301 12.3427 7.10937C12.3427 6.78573 12.605 6.52343 12.9286 6.52343C13.2523 6.52343 13.5146 6.78573 13.5146 7.10937C13.5146 7.43301 13.2523 7.69531 12.9286 7.69531ZM15.2724 7.69531C14.9487 7.69531 14.6864 7.43301 14.6864 7.10937C14.6864 6.78573 14.9487 6.52343 15.2724 6.52343C15.596 6.52343 15.8583 6.78573 15.8583 7.10937C15.8583 7.43301 15.596 7.69531 15.2724 7.69531ZM17.6161 7.69531C17.2925 7.69531 17.0302 7.43301 17.0302 7.10937C17.0302 6.78573 17.2925 6.52343 17.6161 6.52343C17.9398 6.52343 18.2021 6.78573 18.2021 7.10937C18.2021 7.43301 17.9398 7.69531 17.6161 7.69531Z" fill="white"/>
<path d="M7.65625 8.28125H9.41406V4.17969C9.41406 3.21045 10.2026 2.42188 11.1719 2.42188H17.6172V0.585938C17.6172 0.262146 17.355 0 17.0312 0H7.65625C7.33246 0 7.07031 0.262146 7.07031 0.585938V7.69531C7.07031 8.0191 7.33246 8.28125 7.65625 8.28125Z" fill="white"/>
<path d="M11.7578 20C12.4039 20 12.9297 19.4742 12.9297 18.8281V16.9067C12.9297 16.6544 12.7682 16.4305 12.5291 16.351L9.68582 15.4034C9.51477 15.3462 9.32587 15.3714 9.17542 15.4715L7.65625 16.4844C5.79437 15.7399 4.2601 14.2447 3.51562 12.3828L4.5285 10.8636C4.6286 10.713 4.65378 10.5249 4.59656 10.3532L3.64899 7.50992C3.56949 7.27081 3.34564 7.10938 3.09326 7.10938H1.17188C0.525818 7.10938 0 7.63519 0 8.28125C0 14.7432 5.29587 20 11.7578 20Z" fill="white"/>
</g>
<defs>
<clipPath id="clip0">
<rect width="20" height="20" fill="white"/>
</clipPath>
</defs>
</svg>
