<svg width="16" height="15" viewBox="0 0 16 15" fill="none" xmlns="http://www.w3.org/2000/svg">
<path fill-rule="evenodd" clip-rule="evenodd" d="M9.9313 2.16043H5.53472V2.31429C5.53472 2.48353 5.53449 2.65277 5.53425 2.82203V2.82206V2.82209V2.82213V2.82216V2.8222C5.53364 3.25963 5.53302 3.69713 5.5365 4.13491C5.53778 4.29723 5.4798 4.408 5.34428 4.49596C5.17725 4.60439 5.01272 4.71668 4.84816 4.829L4.84814 4.82901L4.84807 4.82906L4.84801 4.8291L4.84794 4.82914L4.84788 4.82918L4.84766 4.82933C4.7248 4.91319 4.60192 4.99705 4.47798 5.07932C4.43958 5.10497 4.3689 5.13215 4.34398 5.11445C4.30838 5.08881 4.28473 5.02342 4.28473 4.97496C4.28168 3.83421 4.28168 2.69345 4.28473 1.5527C4.28626 1.13498 4.54485 0.893943 4.97635 0.893686H9.76781C9.93537 0.893686 9.93563 0.893686 9.93563 0.730087C9.93563 0.680804 9.935 0.631481 9.93438 0.582157L9.93437 0.58193C9.93278 0.456044 9.93118 0.330155 9.93995 0.204927C9.94452 0.136718 9.97783 0.04184 10.0282 0.0133768C10.0785 -0.0150865 10.1792 0.00542757 10.2334 0.0415836C10.8826 0.475627 11.5294 0.913346 12.1737 1.35474C12.3263 1.45936 12.3263 1.58219 12.1696 1.68809L12.1143 1.72585L12.1143 1.72586L12.1143 1.72587C11.4907 2.15127 10.8667 2.57691 10.239 2.99433C10.1812 3.03279 10.0778 3.0533 10.0211 3.02664C9.97224 3.00356 9.93842 2.90278 9.93512 2.83457C9.92763 2.67609 9.92893 2.51721 9.93025 2.35443C9.93078 2.29044 9.9313 2.22584 9.9313 2.16043ZM9.81323 14.437H10.9951V14.4296C11.1263 14.4296 11.2575 14.4298 11.3888 14.43H11.3888H11.3889H11.389H11.389C11.6518 14.4303 11.9146 14.4306 12.1772 14.4296C12.402 14.4288 12.4726 14.357 12.4795 14.1301C12.4828 14.0233 12.486 13.9164 12.4891 13.8096C12.4972 13.5318 12.5053 13.254 12.5169 12.9762C12.519 12.9181 12.5385 12.8621 12.5728 12.8154C13.3787 11.8248 14.1908 10.8382 15.0092 9.85574C15.35 9.44674 15.5529 8.98594 15.607 8.45617C15.6432 8.10086 15.6797 7.74556 15.7162 7.39024L15.7163 7.38892L15.7164 7.38781L15.7165 7.38669L15.7166 7.38578L15.7167 7.38466L15.7169 7.38334C15.8062 6.51315 15.8955 5.64288 15.9811 4.77235C16.0001 4.57952 16.0118 4.37925 15.9811 4.18975C15.9447 3.96692 15.711 3.80178 15.4906 3.7946C15.2701 3.78742 15.1015 3.90999 15.0159 4.14642C14.9781 4.24631 14.9487 4.34925 14.9281 4.45413C14.7964 5.1911 14.6904 5.92935 14.6672 6.67837C14.6566 6.99076 14.5785 7.29705 14.4384 7.57586C14.0252 8.41668 13.5167 9.19827 12.9891 9.96754C12.9759 9.98672 12.9629 10.006 12.9498 10.0253L12.9497 10.0255C12.9055 10.0908 12.8612 10.1563 12.8123 10.2178C12.7549 10.2904 12.6781 10.3094 12.5988 10.2542C12.5243 10.2029 12.5179 10.1281 12.5525 10.0491C12.5676 10.0186 12.5846 9.98917 12.6033 9.96088C13.0536 9.22254 13.5022 8.48318 13.9492 7.74279C14.1292 7.44508 14.0593 7.09942 13.789 6.91582C13.5096 6.72709 13.1818 6.7835 12.969 7.06044C12.8451 7.22153 12.7215 7.3829 12.598 7.54425C12.3797 7.82928 12.1615 8.11427 11.9415 8.3977C11.8909 8.46273 11.8411 8.52846 11.7913 8.59419C11.5484 8.91464 11.3056 9.2351 10.9722 9.47469C10.6151 9.72972 10.3034 10.0439 10.0505 10.404C9.64261 10.9866 9.39063 11.6248 9.42979 12.3528C9.45088 12.7453 9.47454 13.1377 9.49819 13.5301L9.4982 13.5302L9.4982 13.5302L9.4982 13.5303L9.49821 13.5303L9.49821 13.5304L9.49821 13.5304C9.51105 13.7435 9.5239 13.9565 9.53633 14.1696C9.54777 14.366 9.61871 14.437 9.81323 14.437ZM3.84326 14.4293H5.0129L5.01138 14.4367H6.18102C6.40198 14.4367 6.46962 14.3746 6.48233 14.1546C6.49353 13.9697 6.50327 13.7846 6.51302 13.5995L6.51303 13.5994L6.51303 13.5994L6.51303 13.5994L6.51304 13.5993L6.51304 13.5993L6.51304 13.5993L6.51304 13.5993C6.53273 13.2255 6.55241 12.8518 6.58404 12.4791C6.61527 12.0955 6.5689 11.7095 6.44775 11.3444C6.20416 10.5849 5.71418 10.0113 5.1108 9.51664C4.88196 9.32945 4.65667 9.12918 4.47156 8.89814C4.13239 8.47848 3.80408 8.04989 3.47577 7.6213L3.47574 7.62126C3.3224 7.42107 3.16905 7.22089 3.0146 7.02161C2.93561 6.92245 2.82624 6.85251 2.70361 6.82277C2.58098 6.79302 2.45203 6.80515 2.33697 6.85724C1.9754 7.02084 1.8653 7.41471 2.08117 7.77012C2.53411 8.51769 2.98748 9.26466 3.44126 10.011C3.49593 10.1008 3.51348 10.1877 3.41812 10.26C3.34108 10.319 3.25209 10.2934 3.1814 10.1908C2.58259 9.33022 1.99777 8.46068 1.55102 7.50728C1.46117 7.31489 1.40179 7.10948 1.37507 6.89853C1.3387 6.60089 1.31094 6.30215 1.28317 6.00338C1.25406 5.69006 1.22494 5.37671 1.18589 5.06457C1.14754 4.74708 1.08117 4.43368 0.98756 4.1281C0.887377 3.80449 0.56598 3.71012 0.27713 3.88449C0.0485414 4.02245 -0.0188401 4.23759 0.00429845 4.48786C0.031159 4.77785 0.0619839 5.06807 0.0928253 5.35844C0.107529 5.49688 0.122236 5.63535 0.136519 5.77384L0.207834 6.46793L0.207835 6.46795L0.207841 6.468C0.27495 7.12019 0.342056 7.77234 0.406807 8.42478C0.457661 8.93532 0.628276 9.39509 0.955013 9.79178C1.78207 10.7927 2.607 11.7954 3.42982 12.7999C3.47061 12.852 3.49481 12.9153 3.49924 12.9815C3.5121 13.2683 3.52004 13.5555 3.52797 13.8426L3.52798 13.8427C3.53055 13.9356 3.53311 14.0286 3.53585 14.1215C3.54272 14.3572 3.61188 14.4293 3.84326 14.4293ZM10.4841 5.97696H6.08524L6.08448 5.83541C6.08398 5.76433 6.08431 5.69325 6.08465 5.62217V5.62204C6.08516 5.51367 6.08567 5.40529 6.08321 5.29691C6.07863 5.09536 5.95302 5.02254 5.78953 5.13254C5.13775 5.57137 4.48758 6.01234 3.83902 6.45545C3.69282 6.55545 3.69485 6.68213 3.84258 6.78316C4.4869 7.22558 5.13402 7.66356 5.78393 8.09709C5.8386 8.1335 5.93878 8.15427 5.98964 8.12683C6.04049 8.0994 6.07533 8.00452 6.08016 7.93657C6.08892 7.81152 6.08733 7.68554 6.08573 7.5596V7.55959V7.55958V7.55957V7.55956C6.08511 7.51015 6.08448 7.46075 6.08448 7.4114C6.08448 7.2455 6.08473 7.2455 6.25001 7.2455C7.84767 7.24652 9.44525 7.24652 11.0427 7.2455C11.4806 7.24498 11.7349 7.00215 11.7349 6.57392C11.7377 5.44154 11.7377 4.30899 11.7349 3.17627C11.7349 3.12626 11.7143 3.04446 11.684 3.03395C11.641 3.01882 11.5721 3.04395 11.5279 3.07293C11.4148 3.14726 11.3029 3.22391 11.1911 3.30055C11.0295 3.41134 10.8679 3.5221 10.7025 3.62578C10.5378 3.72835 10.479 3.85964 10.4813 4.04991C10.4868 4.47489 10.4858 4.89987 10.4849 5.32485L10.4849 5.3261C10.4845 5.49048 10.4841 5.65487 10.4841 5.81925V5.97696ZM14.1865 6.49968C14.1602 6.48538 14.1327 6.47097 14.1046 6.45622L14.1046 6.45621C14.0318 6.41807 13.9547 6.37759 13.8813 6.33044C13.8655 6.31676 13.8531 6.2995 13.8452 6.28007C13.8372 6.26064 13.8339 6.23959 13.8356 6.21864L13.8367 6.21275L13.8367 6.21259L13.8367 6.21255C13.9322 5.69993 14.0277 5.18707 14.1354 4.67701C14.1829 4.45238 14.3052 4.33006 14.4674 4.28134C14.3742 5.01609 14.2805 5.75553 14.1865 6.49968ZM1.54906 4.27329L1.83562 6.50112C1.85955 6.48731 1.88412 6.47213 1.90938 6.45651L1.90938 6.45651L1.90939 6.45651L1.90939 6.4565C1.97137 6.41819 2.03754 6.37729 2.10871 6.34778C2.18499 6.31573 2.1977 6.2729 2.18499 6.20085C2.17133 6.12466 2.15889 6.04821 2.14644 5.97173L2.14643 5.97171C2.12876 5.86312 2.11108 5.75448 2.08989 5.64645C2.02734 5.329 1.96403 5.01154 1.89182 4.69614C1.8463 4.49766 1.74434 4.33766 1.54906 4.27329ZM13.0477 6.31266C13.0618 6.25777 13.0749 6.205 13.0877 6.15372L13.0877 6.15371C13.114 6.04832 13.1388 5.94924 13.1665 5.8511L13.1691 5.84183C13.2318 5.61976 13.2946 5.39725 13.3666 5.17823C13.3903 5.09777 13.434 5.02473 13.4934 4.966C13.5529 4.90727 13.6263 4.86479 13.7065 4.84257C13.6857 4.92658 13.6649 5.00913 13.6443 5.09076L13.6443 5.09084L13.6443 5.09092C13.5969 5.27858 13.5508 5.4614 13.509 5.64595C13.4717 5.80767 13.4428 5.97123 13.4225 6.13598C13.4118 6.22573 13.3818 6.2624 13.291 6.2642C13.2459 6.26637 13.2 6.27739 13.1449 6.29063C13.1156 6.29768 13.0836 6.30536 13.0477 6.31266ZM2.62552 5.11746C2.58204 4.98309 2.47372 4.88821 2.32777 4.84923C2.3264 4.85456 2.32487 4.85907 2.32354 4.86299C2.32116 4.87 2.31942 4.87514 2.32039 4.87975C2.34909 5.00993 2.3776 5.14006 2.4061 5.27018C2.47232 5.57244 2.53852 5.8746 2.60696 6.17701C2.61128 6.19383 2.61928 6.20947 2.63036 6.22278C2.64145 6.23609 2.65534 6.24674 2.67103 6.25393C2.73542 6.27012 2.80132 6.28 2.88004 6.29181C2.91353 6.29683 2.94935 6.3022 2.98836 6.30855C2.95318 6.1918 2.91903 6.07669 2.88527 5.96288C2.79973 5.67452 2.71668 5.39454 2.62552 5.11746Z" fill="#2E7CC3"/>
</svg>
