<svg width="16" height="15" viewBox="0 0 16 15" fill="none" xmlns="http://www.w3.org/2000/svg">
<path d="M15.5933 3.95422L8.27834 0.692138C8.10125 0.612549 7.89884 0.612549 7.72081 0.692138L0.406193 3.95422C0.167428 4.06053 0.00975305 4.29453 0.000898395 4.55608C-0.00764557 4.81711 0.132113 5.061 0.363007 5.18383L7.67752 9.08469C7.77839 9.13881 7.88895 9.16527 7.99981 9.16527C8.11125 9.16527 8.22164 9.13881 8.32267 9.08469L15.6375 5.18383C15.8682 5.061 16.0081 4.81711 15.9998 4.55608C15.9898 4.29453 15.8325 4.06053 15.5933 3.95422Z" fill="#2E7CC3"/>
<path d="M14.9922 6.87303L7.99933 10.6034L1.00762 6.87303C0.672903 6.69443 0.258443 6.82114 0.0810392 7.15524C-0.0976074 7.48918 0.0291022 7.90353 0.362886 8.08166L7.6774 11.9836C7.77827 12.0374 7.88883 12.0641 7.99969 12.0641C8.11112 12.0641 8.22152 12.0377 8.32255 11.9836L15.6374 8.08166C15.9704 7.90353 16.097 7.48918 15.9194 7.15524C15.7406 6.82109 15.3259 6.69438 14.9922 6.87303Z" fill="#2E7CC3"/>
<path d="M14.9922 9.54856L7.99933 13.2777L1.00762 9.54856C0.672903 9.36981 0.258443 9.49668 0.0810392 9.83031C-0.0976074 10.1642 0.0291022 10.579 0.362886 10.7569L7.6774 14.6576C7.77827 14.7117 7.88883 14.7385 7.99969 14.7385C8.11112 14.7385 8.22152 14.7121 8.32255 14.6576L15.6374 10.7569C15.9704 10.579 16.097 10.1643 15.9194 9.83031C15.7406 9.49668 15.3264 9.36976 14.9922 9.54856Z" fill="#2E7CC3"/>
</svg>
