<svg width="20" height="20" viewBox="0 0 20 20" fill="none" xmlns="http://www.w3.org/2000/svg">
<path d="M10 0.707275C9.67613 0.707275 9.41406 0.969346 9.41406 1.29321V3.05103C9.41406 3.37489 9.67613 3.63696 10 3.63696C10.3239 3.63696 10.5859 3.37489 10.5859 3.05103V1.29321C10.5859 0.969346 10.3239 0.707275 10 0.707275Z" fill="#007bc4"/>
<path d="M6.89913 4.39504L5.72726 3.22316C5.49835 2.9943 5.12757 2.9943 4.8987 3.22316C4.66983 3.45203 4.66983 3.82285 4.8987 4.05172L6.07058 5.22359C6.29944 5.45246 6.67026 5.45246 6.89913 5.22359C7.128 4.99472 7.128 4.6239 6.89913 4.39504Z" fill="#007bc4"/>
<path d="M15.1022 3.22316C14.8734 2.9943 14.5026 2.9943 14.2737 3.22316L13.1018 4.39504C12.873 4.6239 12.873 4.99472 13.1018 5.22359C13.3307 5.45246 13.7015 5.45246 13.9304 5.22359L15.1022 4.05172C15.3311 3.82285 15.3311 3.45203 15.1022 3.22316Z" fill="#007bc4"/>
<path d="M19.4141 8.9104H17.6172V17.1135H19.4141C19.7379 17.1135 20 16.8515 20 16.5276V9.49634C20 9.17247 19.7379 8.9104 19.4141 8.9104Z" fill="#007bc4"/>
<path d="M0.585938 8.9104C0.26207 8.9104 0 9.17247 0 9.49634V16.5276C0 16.8515 0.26207 17.1135 0.585938 17.1135H2.38281V8.9104H0.585938Z" fill="#007bc4"/>
<path d="M9.55205 9.49634C9.10513 9.49634 8.70345 9.74466 8.50377 10.1441L6.72021 13.7123C7.01889 13.8433 7.33475 13.9097 7.65748 13.9097C8.54955 13.9097 9.35236 13.4125 9.75232 12.6114L10.138 11.8401H11.2721C11.5805 11.8401 11.8826 11.9654 12.1006 12.1834L16.4448 16.5276V9.49634H9.55205Z" fill="#007bc4"/>
<path d="M11.2726 13.012H10.8629L10.8291 13.0797C10.2756 14.1866 9.19621 14.9681 7.96273 15.0689C7.05516 15.1432 6.42621 14.8821 5.68043 14.5429C5.37715 14.405 5.2452 14.0426 5.39418 13.7446L7.4557 9.62052C7.85273 8.82622 8.66457 8.32446 9.55254 8.32446H12.0812C12.2435 7.96497 12.3438 7.57251 12.3438 7.15259C12.3438 6.82872 12.0817 6.56665 11.7578 6.56665H7.20879C6.54281 6.56665 5.93406 6.94286 5.63621 7.53853L5.1123 8.58638C5.01301 8.78493 4.81012 8.9104 4.58809 8.9104H3.55469V17.1135H6.24176L7.90172 18.7735C8.38289 19.2547 9.07594 19.4066 9.67383 19.2066L14.6778 17.6336C14.9768 17.5495 15.2289 17.3849 15.4346 17.174L11.2726 13.012Z" fill="#007bc4"/>
</svg>
