<svg width="16" height="11" viewBox="0 0 16 11" fill="none" xmlns="http://www.w3.org/2000/svg">
<path d="M12.7009 8.83566V5.00212L8.50758 6.23632C8.3419 6.28482 8.17126 6.30906 8.00061 6.30906C7.82996 6.30906 7.66097 6.28482 7.49363 6.23632L3.30029 5.00212V8.83566C3.30029 9.82738 5.40441 10.6324 8.00059 10.6324C10.5968 10.6324 12.7009 9.82981 12.7009 8.83566Z" fill="#2E7CC3"/>
<path d="M15.6682 2.19925L8.40985 0.0606188C8.27563 0.0218228 8.13814 0 8.00062 0C7.86311 0 7.72726 0.019398 7.5914 0.0606188L0.333026 2.19925C-0.111009 2.33019 -0.111009 3.25644 0.333026 3.38738L7.5914 5.52359C7.72562 5.56238 7.86311 5.58421 8.00062 5.58421C8.13814 5.58421 8.27399 5.56481 8.40985 5.52359L14.0363 3.86748V8.41145C13.8789 8.61272 13.7795 8.91097 13.7795 9.24071C13.7795 9.84935 14.1175 10.344 14.5333 10.344C14.9492 10.344 15.2872 9.84935 15.2872 9.24071C15.2872 8.90852 15.1878 8.61272 15.0304 8.41145V3.57406L15.6682 3.38738C16.1106 3.25647 16.1106 2.33019 15.6682 2.19925Z" fill="#2E7CC3"/>
</svg>
