<svg width="16" height="16" viewBox="0 0 16 16" fill="none" xmlns="http://www.w3.org/2000/svg">
<path d="M10.6801 9.16448C10.6134 9.23094 8.36881 11.4337 8.21115 11.5958C8.69897 11.9287 9.25899 12.1415 9.84526 12.2167C10.4315 12.292 11.0273 12.2275 11.5838 12.0286C11.717 11.98 11.9527 11.92 12.0909 11.8535L12.2307 11.7044C12.8901 10.9931 13.34 10.1143 13.5309 9.16448C12.5817 8.7625 11.3383 8.6231 10.6801 9.16448Z" fill="#2E7CC3"/>
<path d="M10.6802 6.34577C11.3076 6.97305 12.7655 7.02654 13.4433 6.49975C13.2808 5.79629 12.6306 4.55469 11.9268 3.96144L11.7318 3.78314C11.2448 3.35693 10.6871 3.01852 10.0837 2.78305L9.72447 2.65663L9.15397 2.50912C8.76565 2.43487 8.37099 2.3985 7.97559 2.40053C7.59334 2.40053 7.21209 2.43963 6.83784 2.51723L6.24134 2.67932L5.90164 2.80088C5.40564 3.0112 4.94298 3.2924 4.52821 3.63564C5.12427 3.45378 5.75475 3.4136 6.36918 3.5183C6.9836 3.62301 7.56492 3.86969 8.06661 4.23861C8.06661 4.23861 10.6103 6.27607 10.6802 6.34577Z" fill="#2E7CC3"/>
<path d="M4.10245 12.0043C4.61973 12.5103 5.2316 12.9101 5.90334 13.1811L6.24304 13.3026L6.84117 13.4647C7.5917 13.6152 8.36426 13.6201 9.11667 13.4793L9.7278 13.3253L10.1309 13.1811C10.644 12.9719 11.1245 12.6909 11.558 12.3463C10.941 12.5201 10.2932 12.5564 9.6606 12.4524C9.028 12.3485 8.4261 12.107 7.89765 11.7449L4.36088 8.22114C3.93527 8.84169 3.70856 9.57647 3.71074 10.3283C3.71125 10.7324 3.77543 11.1338 3.9009 11.518C3.9545 11.6754 4.0169 11.8296 4.08782 11.98L4.10245 12.0043Z" fill="#2E7CC3"/>
<path d="M3.95629 4.12193C3.44949 4.63857 3.04915 5.24927 2.77791 5.91949L2.65438 6.25826L2.49184 6.85474C2.33605 7.60318 2.33605 8.37555 2.49184 9.12399L2.65438 9.71885L2.77791 10.0592C2.98705 10.5548 3.26918 11.0164 3.61496 11.4289C3.49836 11.0501 3.43705 10.6565 3.43293 10.2602C3.43093 9.41298 3.70407 8.58787 4.21147 7.90832L7.74662 4.38613C7.25847 4.05337 6.69842 3.84029 6.11207 3.76424C5.52571 3.68819 4.92964 3.75132 4.37238 3.94849C4.24073 3.99712 4.1042 4.05223 3.96767 4.11868L3.95629 4.12193Z" fill="#2E7CC3"/>
<path d="M12.6209 3.97118C13.5973 5.08301 14.1355 6.51063 14.1355 7.98855C14.1355 9.46647 13.5973 10.8941 12.6209 12.0059C12.4294 12.2288 12.2207 12.4363 11.9967 12.6267L11.7026 12.8699C11.6343 12.9201 11.5644 12.9703 11.4896 13.0206C11.1179 13.2793 10.719 13.4967 10.2999 13.669C8.80956 14.2647 7.14516 14.2583 5.65949 13.6511C5.25185 13.4754 4.86349 13.2581 4.50061 13.0028L4.29419 12.8536C4.18854 12.7726 4.08939 12.6916 3.98862 12.604C3.7634 12.411 3.55314 12.2013 3.35961 11.9767C2.40228 10.8667 1.87583 9.45107 1.87583 7.98693C1.87583 6.52279 2.40228 5.10718 3.35961 3.99711C3.55356 3.7729 3.7638 3.56324 3.98862 3.36983C4.08939 3.2823 4.18854 3.20774 4.29419 3.12021C4.36245 3.06834 4.43234 3.01971 4.50061 2.97109C4.86488 2.7234 5.25311 2.51271 5.65949 2.34218C7.14335 1.72649 8.81088 1.7195 10.2999 2.32273C10.7196 2.49033 11.1188 2.70514 11.4896 2.96298C11.5644 3.00837 11.6343 3.06348 11.7026 3.11373C11.8017 3.18829 11.9025 3.26771 12.0016 3.35038L12.6209 3.97118ZM14.5551 7.54686V7.50958C14.846 6.88229 15.3954 6.86122 16 7.4415C16 6.48355 15.7952 5.72498 15.332 5.29544C14.6818 4.71678 13.9959 5.09445 13.4368 4.30832C13.3718 3.62106 13.8448 3.33579 14.6591 3.52381C14.1715 2.70202 13.6124 2.1493 13.0012 2.00666C12.8768 1.97693 12.7482 1.96816 12.6209 1.98073C12.408 2.00088 12.1983 2.04715 11.9967 2.1185C11.8986 2.15077 11.7987 2.17782 11.6977 2.19955C11.6275 2.21361 11.5563 2.22174 11.4848 2.22386C11.2701 2.23453 11.0562 2.18987 10.8639 2.09419C10.4722 1.5366 10.7273 1.06654 11.4848 0.820169C11.5004 0.817106 11.5153 0.811052 11.5286 0.80234C11.515 0.79429 11.5002 0.788283 11.4848 0.78451C11.1142 0.565278 10.7133 0.401445 10.295 0.298243C9.97517 0.215892 9.63962 0.215892 9.31979 0.298243C8.65989 0.521926 8.50711 1.06979 7.98537 1.32427C7.85201 1.38819 7.70842 1.42824 7.56115 1.44259H7.52377C6.89476 1.14921 6.87363 0.60297 7.45551 0C6.71922 0 6.09508 0.124808 5.64649 0.385771C5.52104 0.467311 5.40637 0.564242 5.30516 0.674289C4.7818 1.2724 5.04998 1.8932 4.49248 2.42161C4.4374 2.4737 4.37875 2.52191 4.31694 2.56587H4.27956C4.17736 2.5726 4.07471 2.56661 3.97399 2.54804C3.5319 2.44106 3.37099 2.00666 3.5319 1.34696L3.34498 1.4588C2.6217 1.91265 2.12922 2.43133 1.99756 2.9873C1.82365 3.84799 2.50305 4.25159 2.08046 5.13984C1.51158 5.54344 1.0256 5.28247 0.788297 4.48176C0.312068 5.31489 0.110524 6.07833 0.292564 6.67644C0.572125 7.48688 1.33442 7.50958 1.44657 8.4351V8.474C1.15888 9.10129 0.604632 9.12236 0 8.54856C0 9.50003 0.211296 10.2651 0.672897 10.693C1.32304 11.2652 2.01056 10.8891 2.56969 11.6769C2.6347 12.3609 2.1601 12.6494 1.34579 12.4598C1.8334 13.2864 2.39415 13.8456 3.00528 13.9834C3.1182 14.0057 3.23315 14.016 3.34823 14.0142C3.56294 13.9962 3.77438 13.9504 3.97724 13.878C4.07802 13.8456 4.17716 13.8148 4.28281 13.7905C4.35108 13.7792 4.42097 13.7646 4.48923 13.7597C4.71383 13.7472 4.93784 13.793 5.13937 13.8926C5.52946 14.4551 5.27265 14.9316 4.48923 15.1731C4.48497 15.1742 4.48049 15.1742 4.47623 15.1731C4.47623 15.1731 4.48923 15.1731 4.48923 15.1845C4.85202 15.3975 5.24178 15.561 5.64811 15.6707C5.98498 15.7618 6.34009 15.7618 6.67696 15.6707C7.3271 15.4519 7.47663 14.9122 7.987 14.6561C8.12824 14.5882 8.27987 14.5444 8.4356 14.5264H8.47298C9.10362 14.8182 9.12312 15.366 8.54287 15.969C9.24665 15.969 9.84315 15.8571 10.2885 15.6156C10.4407 15.5327 10.5793 15.4273 10.6997 15.3028C11.2166 14.7128 10.9614 14.105 11.4783 13.5814C11.5474 13.5158 11.6225 13.4566 11.7026 13.4047C11.6984 13.4062 11.6938 13.4062 11.6896 13.4047C11.6896 13.4047 11.6896 13.4047 11.7026 13.3934C11.7156 13.3821 11.7026 13.3934 11.7139 13.3934C11.7106 13.3976 11.7067 13.4014 11.7026 13.4047C11.8024 13.3999 11.9025 13.4042 12.0016 13.4177C12.4681 13.5052 12.6518 13.9461 12.4892 14.6253C12.5397 14.5994 12.5881 14.5696 12.6339 14.5361C13.3816 14.0758 13.887 13.5474 14.0187 12.9768C14.1926 12.1113 13.5116 11.7142 13.9309 10.8243C13.9309 10.8243 13.9309 10.8373 13.9309 10.8421C14.4982 10.445 14.9842 10.706 15.2215 11.5018C15.7091 10.6752 15.9025 9.91011 15.7204 9.31362C15.4262 8.49832 14.6591 8.474 14.5551 7.54686Z" fill="#2E7CC3"/>
</svg>
