<svg width="16" height="18" viewBox="0 0 16 18" fill="none" xmlns="http://www.w3.org/2000/svg">
<path d="M14.25 0.5H13V2.375C13 3.40875 12.1587 4.25 11.125 4.25H4.875C3.84125 4.25 3 3.40875 3 2.375V0.5H1.75C1.06125 0.5 0.5 1.06125 0.5 1.75V16.75C0.5 17.4513 1.04875 18 1.75 18H14.25C14.9513 18 15.5 17.4513 15.5 16.75V1.75C15.5 1.04875 14.9513 0.5 14.25 0.5ZM7.8175 11.5675L5.3175 14.0675C5.195 14.1888 5.035 14.25 4.875 14.25C4.715 14.25 4.555 14.1888 4.4325 14.0675L3.1825 12.8175C2.93875 12.5738 2.93875 12.1775 3.1825 11.9338C3.42625 11.69 3.8225 11.69 4.06625 11.9338L4.875 12.7413L6.9325 10.6838C7.17625 10.44 7.5725 10.44 7.81625 10.6838C8.06 10.9275 8.06125 11.3225 7.8175 11.5675ZM7.8175 6.5675L5.3175 9.0675C5.195 9.18875 5.035 9.25 4.875 9.25C4.715 9.25 4.555 9.18875 4.4325 9.0675L3.1825 7.8175C2.93875 7.57375 2.93875 7.1775 3.1825 6.93375C3.42625 6.69 3.8225 6.69 4.06625 6.93375L4.875 7.74125L6.9325 5.68375C7.17625 5.44 7.5725 5.44 7.81625 5.68375C8.06 5.9275 8.06125 6.3225 7.8175 6.5675ZM12.375 13H9.875C9.53 13 9.25 12.72 9.25 12.375C9.25 12.03 9.53 11.75 9.875 11.75H12.375C12.72 11.75 13 12.03 13 12.375C13 12.72 12.72 13 12.375 13ZM12.375 8H9.875C9.53 8 9.25 7.72 9.25 7.375C9.25 7.03 9.53 6.75 9.875 6.75H12.375C12.72 6.75 13 7.03 13 7.375C13 7.72 12.72 8 12.375 8Z" fill="white"/>
</svg>
