<svg width="18" height="19" viewBox="0 0 18 19" fill="none" xmlns="http://www.w3.org/2000/svg">
<path d="M9.35245 18.8966H7.88688C7.15956 18.8966 6.56787 18.3049 6.56787 17.5775V8.49101C6.56787 7.76368 7.15956 7.172 7.88688 7.172H9.35245C10.0798 7.172 10.6715 7.76368 10.6715 8.49101V17.5775C10.6715 18.3049 10.0797 18.8966 9.35245 18.8966Z" fill="black"/>
<path d="M3.78312 18.8966H2.31755C1.59022 18.8966 0.998535 18.3049 0.998535 17.5776V11.4222C0.998535 10.6948 1.59022 10.1031 2.31755 10.1031H3.78312C4.51045 10.1031 5.10213 10.6948 5.10213 11.4222V17.5776C5.10213 18.3049 4.51041 18.8966 3.78312 18.8966Z" fill="black"/>
<path d="M14.9216 18.8966H13.456C12.7287 18.8966 12.137 18.3049 12.137 17.5776V5.41338H11.3317C10.9552 5.41338 10.6235 5.20088 10.4662 4.85881C10.3089 4.51675 10.3634 4.12669 10.6084 3.84079C10.6112 3.83753 10.614 3.83427 10.6169 3.83108L13.7522 0.332323C13.8634 0.208226 14.0222 0.137329 14.1888 0.137329C14.3555 0.137329 14.5142 0.208226 14.6254 0.332323L17.7608 3.83108C17.7637 3.83427 17.7665 3.83753 17.7693 3.84079C18.0143 4.12665 18.0688 4.51675 17.9115 4.85881C17.7541 5.20088 17.4225 5.41338 17.046 5.41338H16.2406V17.5776C16.2406 18.3049 15.6489 18.8966 14.9216 18.8966Z" fill="black"/>
</svg>
