<svg width="14" height="16" viewBox="0 0 14 16" fill="none" xmlns="http://www.w3.org/2000/svg">
<path d="M12.214 1.81119H11.7462V13.3049C11.7462 14.0685 11.1246 14.69 10.3611 14.69H1.85145V15.1161C1.85145 15.604 2.24744 16 2.73532 16H12.2124C12.7002 16 13.0962 15.604 13.0962 15.1161V2.69507C13.0962 2.20718 12.7019 1.81119 12.214 1.81119Z" fill="#2E7CC3"/>
<path d="M10.3592 14.1888C10.8471 14.1888 11.2431 13.7928 11.2431 13.3049V0.883876C11.2431 0.39599 10.8471 0 10.3592 0H4.04512V0.292398C4.04844 0.322473 4.05013 0.354219 4.05013 0.385965V2.80702C4.05013 3.49373 3.49207 4.0518 2.80535 4.0518H0.384295C0.359232 4.0518 0.332498 4.05013 0.307436 4.04845H0V13.3049C0 13.7928 0.39599 14.1888 0.883878 14.1888H10.3592ZM5.79951 11.1846H2.71011C2.47954 11.1846 2.2924 10.9975 2.2924 10.7669C2.2924 10.5363 2.47954 10.3492 2.71011 10.3492H5.80118C6.03175 10.3492 6.21889 10.5363 6.21889 10.7669C6.21889 10.9975 6.03008 11.1846 5.79951 11.1846ZM8.89057 9.05265H2.71011C2.47954 9.05265 2.2924 8.8655 2.2924 8.63494C2.2924 8.40434 2.47954 8.21723 2.71011 8.21723H8.89057C9.12115 8.21723 9.30828 8.40434 9.30828 8.63494C9.30828 8.8655 9.12115 9.05265 8.89057 9.05265ZM2.71011 5.95322H8.89057C9.12115 5.95322 9.30828 6.14035 9.30828 6.37093C9.30828 6.6015 9.12115 6.78864 8.89057 6.78864H2.71011C2.47954 6.78864 2.2924 6.6015 2.2924 6.37093C2.2924 6.14035 2.47954 5.95322 2.71011 5.95322Z" fill="#2E7CC3"/>
<path d="M0.384409 3.55054H2.81215C3.21649 3.5472 3.54398 3.21971 3.54732 2.81537V0.385962C3.54732 0.162069 3.36352 0.0133642 3.17306 0.0133642C3.08117 0.0133642 2.98927 0.0467811 2.91241 0.12364L0.120415 2.91562C-0.113503 3.14954 0.0519108 3.55054 0.384409 3.55054Z" fill="#2E7CC3"/>
</svg>
