<svg width="16" height="14" viewBox="0 0 16 14" fill="none" xmlns="http://www.w3.org/2000/svg">
<path d="M15.9858 10.4758C15.607 8.71465 15.1147 6.99133 14.5276 5.32482C13.9216 3.65831 13.202 1.9918 12.3876 0.40104C12.293 0.211664 12.1225 0.0791008 11.9142 0.0222879C11.7059 -0.0345249 11.4976 0.0222879 11.3271 0.135914L1.0819 7.42689C0.9304 7.3322 0.741025 7.31326 0.551649 7.35114C0.153959 7.44583 -0.0732922 7.84352 0.0213958 8.24121C0.191834 8.9419 0.400148 9.60471 0.646337 10.2675C0.892525 10.9303 1.15765 11.5742 1.46065 12.237C1.63109 12.5969 2.06666 12.7673 2.42647 12.5969C2.59691 12.5211 2.72947 12.3696 2.80522 12.1992L6.30868 11.9719L8.97888 11.7825L15.3419 11.3659C15.5502 11.347 15.7396 11.2523 15.8722 11.0818C15.9858 10.8925 16.0237 10.6842 15.9858 10.4758ZM3.20291 10.7031C3.07035 10.2675 2.95672 9.86984 2.82416 9.49109C2.6916 9.11234 2.5401 8.73358 2.35072 8.31696L3.99829 7.14283C4.49067 8.26014 4.88836 9.3964 5.22924 10.5705L3.20291 10.7031Z" fill="#2E7CC3"/>
<path d="M8.88407 12.3507V12.5211C8.88407 12.6347 8.8462 12.7294 8.77045 12.8052C8.6947 12.8809 8.60001 12.9188 8.48638 12.9188H5.74043C5.6268 12.9188 5.53211 12.8809 5.45636 12.8052C5.39955 12.7484 5.36168 12.6726 5.34274 12.5969L4.32011 12.6537C4.35798 12.9945 4.50948 13.2975 4.73674 13.5248C5.00186 13.7899 5.36168 13.9414 5.74043 13.9414H8.50532C8.90301 13.9414 9.26283 13.7899 9.50901 13.5248C9.77414 13.2597 9.92564 12.8999 9.92564 12.5211V12.2749L8.88407 12.3507Z" fill="#2E7CC3"/>
</svg>
