<svg width="18" height="20" viewBox="0 0 18 20" fill="none" xmlns="http://www.w3.org/2000/svg">
<path fill-rule="evenodd" clip-rule="evenodd" d="M7.77505 10.1372C10.6489 10.137 11.6829 7.31722 11.9536 5.00095C12.2871 2.14755 10.9101 0 7.77505 0C4.64038 0 3.26273 2.14739 3.59645 5.00095C3.8674 7.31722 4.90113 10.1374 7.77505 10.1372ZM14.0591 11.311C14.1516 11.311 14.2435 11.3137 14.3347 11.3186C14.198 11.1275 14.0397 10.9588 13.8544 10.8233C13.4669 10.5398 12.9991 10.3901 12.5361 10.2418L12.536 10.2418C12.3393 10.1788 12.1433 10.116 11.9548 10.0434C11.647 9.92494 11.3714 9.80727 11.1127 9.67328C10.2395 10.6117 9.10083 11.1026 7.77483 11.1027C6.44927 11.1027 5.3107 10.6118 4.43761 9.67328C4.17889 9.8073 3.90323 9.92494 3.59553 10.0434C3.40692 10.116 3.21094 10.1788 3.0141 10.2418C2.5511 10.3901 2.08339 10.5399 1.69588 10.8233C0.779805 11.4933 0.515353 12.9665 0.324158 14.0315L0.30012 14.1651C0.140082 15.0499 0.0325671 15.9529 0.00118634 16.8517C-0.0222641 17.5232 0.303274 17.6378 0.859781 17.8337L0.921965 17.8556C1.66613 18.1186 2.43451 18.3139 3.20806 18.474C4.70196 18.7831 6.24185 19.0207 7.7751 19.0313C8.51803 19.0261 9.26247 18.9674 10.0025 18.8733C9.45455 18.0953 9.13318 17.1529 9.13318 16.1382C9.13321 13.4764 11.343 11.311 14.0591 11.311ZM10.1184 16.1382C10.1184 14.0055 11.8828 12.2764 14.0592 12.2764C16.2355 12.2764 18 14.0055 18 16.1382C18 18.271 16.2356 20 14.0592 20C11.8828 20 10.1184 18.271 10.1184 16.1382ZM14.7353 16.8008H15.7833C16.1567 16.8008 16.4594 16.5042 16.4594 16.1382C16.4594 15.7722 16.1567 15.4756 15.7833 15.4756H14.7353V14.4486C14.7353 14.0827 14.4326 13.786 14.0592 13.786C13.6858 13.786 13.383 14.0827 13.383 14.4486V15.4756H12.3351C11.9616 15.4756 11.6589 15.7722 11.6589 16.1382C11.6589 16.5041 11.9617 16.8008 12.3351 16.8008H13.383V17.8277C13.383 18.1937 13.6858 18.4903 14.0592 18.4903C14.4326 18.4903 14.7353 18.1937 14.7353 17.8277V16.8008Z" fill="#007bc4"/>
</svg>
