<svg width="16" height="16" viewBox="0 0 16 16" fill="none" xmlns="http://www.w3.org/2000/svg">
<path d="M15.414 2.08067L13.9187 0.585333C13.544 0.210667 13.0353 0 12.5047 0H12V4H2.66667V0H1.33333C0.596667 0 0 0.596667 0 1.33333V14.6667C0 15.4033 0.596667 16 1.33333 16H14.6667C15.4033 16 16 15.4033 16 14.6667V3.49533C16 2.96467 15.7893 2.456 15.414 2.08067ZM13.3333 13.3333H2.66667V6.62267H13.3333V13.3333Z" fill="#2E7CC3"/>
<path d="M10.6667 0.000128255H8.66667V2.6668H10.6667V0.000128255Z" fill="#2E7CC3"/>
<path d="M12 8.00013H4V9.33346H12V8.00013Z" fill="#2E7CC3"/>
<path d="M12 10.6668H4V12.0001H12V10.6668Z" fill="#2E7CC3"/>
</svg>
