<svg width="16" height="17" viewBox="0 0 16 17" fill="none" xmlns="http://www.w3.org/2000/svg">
<path d="M0 2.71918V15.1636C0 16.1414 0.8 16.9414 1.77778 16.9414H14.2222C15.2 16.9414 16 16.1414 16 15.1636V2.71918C16 1.74141 15.2 0.941406 14.2222 0.941406H1.77778C0.8 0.941406 0 1.74141 0 2.71918ZM10.6667 6.27474C10.6667 7.78585 9.51111 8.94141 8 8.94141C6.48889 8.94141 5.33333 7.78585 5.33333 6.27474C5.33333 4.76363 6.48889 3.60807 8 3.60807C9.51111 3.60807 10.6667 4.76363 10.6667 6.27474ZM2.66667 13.3858C2.66667 11.6081 6.22222 10.6303 8 10.6303C9.77778 10.6303 13.3333 11.6081 13.3333 13.3858V14.2747H2.66667V13.3858Z" fill="#2E7CC3"/>
</svg>
