<svg width="16" height="13" viewBox="0 0 16 13" fill="none" xmlns="http://www.w3.org/2000/svg">
<path d="M2.44752 5.38826e-05H2.44617C2.29484 5.38826e-05 2.15251 0.059044 2.04504 0.16625C1.93638 0.274641 1.87652 0.418965 1.87652 0.572608V9.15796C1.87652 9.47279 2.13366 9.72955 2.44978 9.73036C3.78247 9.73353 6.01526 10.0113 7.55558 11.6232V2.63839C7.55558 2.53167 7.52832 2.43142 7.47687 2.34845C6.21265 0.312513 3.78323 0.00317847 2.44752 5.38826e-05Z" fill="#2E7CC3"/>
<path d="M14.1236 9.15796V0.572554C14.1236 0.41891 14.0637 0.274587 13.955 0.166196C13.8476 0.0589901 13.7051 0 13.554 0H13.5526C12.2169 0.00317846 9.78748 0.312513 8.52321 2.34845C8.47176 2.43142 8.44456 2.53167 8.44456 2.63839V11.6232C9.98487 10.0112 12.2177 9.73347 13.5504 9.7303C13.8664 9.72949 14.1236 9.47273 14.1236 9.15796Z" fill="#2E7CC3"/>
<path d="M15.4276 1.97996H15.0125V9.15796C15.0125 9.96179 14.3575 10.6173 13.5525 10.6193C12.4221 10.6219 10.5582 10.843 9.23818 12.0923C11.5212 11.5334 13.9279 11.8967 15.2994 12.2093C15.4707 12.2483 15.6477 12.208 15.7849 12.0986C15.9216 11.9895 16.0001 11.8265 16.0001 11.6514V2.55241C16.0001 2.23677 15.7432 1.97996 15.4276 1.97996Z" fill="#2E7CC3"/>
<path d="M0.987586 9.15796V1.97996H0.572446C0.256863 1.97996 0 2.23677 0 2.55241V11.6513C0 11.8264 0.078438 11.9894 0.215166 12.0985C0.352271 12.2078 0.529079 12.2482 0.700608 12.2091C2.0722 11.8965 4.47894 11.5332 6.76183 12.0922C5.44185 10.8429 3.57798 10.6219 2.44758 10.6192C1.64256 10.6173 0.987586 9.96179 0.987586 9.15796Z" fill="#2E7CC3"/>
</svg>
