<svg width="16" height="14" viewBox="0 0 16 14" fill="none" xmlns="http://www.w3.org/2000/svg">
<path d="M15.5 0H0.5C0.224 0 0 0.223 0 0.5V1.5C0 1.776 0.224 2 0.5 2H1V10C1 10.552 1.449 11 2 11H7.5V12.232L6.223 13.084C5.993 13.237 5.931 13.548 6.084 13.777C6.236 14.006 6.545 14.068 6.777 13.916L8 13.101L9.223 13.916C9.308 13.973 9.404 14 9.5 14C9.661 14 9.819 13.922 9.916 13.777C10.069 13.548 10.007 13.237 9.777 13.084L8.5 12.232V11H14C14.552 11 15 10.552 15 10V2H15.5C15.776 2 16 1.776 16 1.5V0.5C16 0.223 15.776 0 15.5 0ZM12.825 3.879L9.325 6.879C9.191 6.994 9.009 7.03 8.842 6.974L6.1 6.061L3.812 7.891C3.72 7.964 3.61 8 3.5 8C3.354 8 3.208 7.936 3.109 7.813C2.937 7.597 2.972 7.283 3.187 7.11L5.687 5.11C5.82 5.005 5.997 4.972 6.158 5.027L8.889 5.937L12.174 3.122C12.382 2.943 12.698 2.966 12.879 3.176C13.06 3.384 13.035 3.7 12.825 3.879Z" fill="#2E7CC3"/>
</svg>
