<svg width="40" height="40" viewBox="0 0 40 40" fill="none" xmlns="http://www.w3.org/2000/svg">
<circle cx="20" cy="20" r="20" fill="#F6C358"/>
<g clip-path="url(#clip0)">
<path d="M30.2925 14.083H27.4818C27.9297 13.4379 28.0593 12.6549 27.8363 11.9104C27.8244 11.8706 27.7693 11.7137 27.7534 11.6741C27.4416 10.9026 26.7819 10.33 25.9435 10.1033C25.0869 9.87167 24.1894 10.0342 23.4814 10.5492L20.4667 12.7421L17.452 10.5492C16.744 10.0342 15.8466 9.87163 14.9898 10.1033C14.1513 10.3301 13.4917 10.9026 13.1801 11.674C13.1646 11.7122 13.109 11.8705 13.0972 11.9101C12.8741 12.6548 13.0037 13.4379 13.4515 14.083H10.6408C10.2869 14.083 10 14.3571 10 14.6952V19.5928C10 19.9309 10.2869 20.205 10.6408 20.205H11.2816V29.3879C11.2816 29.726 11.5685 30.0001 11.9224 30.0001H29.0109C29.3648 30.0001 29.6517 29.726 29.6517 29.3879V20.205H30.2925C30.6464 20.205 30.9333 19.9309 30.9333 19.5928V14.6952C30.9333 14.3571 30.6464 14.083 30.2925 14.083ZM21.1075 13.8149L24.2578 11.5233C24.642 11.2438 25.1292 11.1556 25.5945 11.2815C26.0414 11.4023 26.3925 11.7061 26.5574 12.1144C26.5662 12.1361 26.5974 12.2248 26.604 12.2471C26.7311 12.671 26.6421 13.12 26.36 13.4789C26.0686 13.8498 25.6257 14.0636 25.1452 14.0654C25.0933 14.0656 24.7387 14.083 24.7387 14.083H21.1074V13.8149H21.1075ZM21.1075 16.624L22.8487 18.9806H21.1075V16.624ZM14.3293 12.2471C14.3359 12.2249 14.3669 12.1366 14.3757 12.115C14.5408 11.7061 14.8919 11.4023 15.3388 11.2815C15.804 11.1556 16.2912 11.2438 16.6755 11.5233L19.8258 13.8149V14.083H16.1946C16.1946 14.083 15.8401 14.0656 15.7881 14.0654C15.3076 14.0636 14.8648 13.8498 14.5733 13.4789C14.2912 13.12 14.2023 12.671 14.3293 12.2471ZM11.2816 18.9806V15.3074H19.8258V18.9806H11.2816ZM28.3701 28.7757H12.5633V20.205H19.8258V24.4904C19.8258 24.8285 20.1128 25.1026 20.4667 25.1026C20.8206 25.1026 21.1075 24.8285 21.1075 24.4904V20.205H23.7534L25.0697 21.9865C25.2739 22.2627 25.6738 22.3285 25.9628 22.1336C26.2519 21.9386 26.3209 21.5566 26.1167 21.2804L25.3221 20.205H28.3701V28.7757ZM29.6517 18.9806H24.4175L21.7034 15.3074H29.6517V18.9806Z" fill="white"/>
</g>
<defs>
<clipPath id="clip0">
<rect x="10" y="10" width="20.9333" height="20" fill="white"/>
</clipPath>
</defs>
</svg>
