<svg width="56" height="51" viewBox="0 0 56 51" fill="none" xmlns="http://www.w3.org/2000/svg">
<path fill-rule="evenodd" clip-rule="evenodd" d="M24.7603 5.53473C22.7601 5.53473 20.8921 6.53441 19.7826 8.19874L19.6989 8.32424C17.7047 11.3155 14.3475 13.1123 10.7524 13.1123C7.60398 13.1123 5.0517 15.6646 5.0517 18.813V38.3708C5.0517 42.5557 8.44428 45.9483 12.6292 45.9483H42.9394C47.1244 45.9483 50.517 42.5557 50.517 38.3708V18.813C50.517 15.6646 47.9647 13.1123 44.8163 13.1123C41.2212 13.1123 37.864 11.3155 35.8698 8.32424L35.7861 8.19874C34.6765 6.53441 32.8086 5.53473 30.8083 5.53473H24.7603ZM15.5793 5.39656C17.6258 2.32686 21.071 0.483032 24.7603 0.483032H30.8083C34.4977 0.483032 37.9429 2.32686 39.9894 5.39657L40.073 5.52206C41.1303 7.10799 42.9102 8.06058 44.8163 8.06058C50.7547 8.06058 55.5687 12.8746 55.5687 18.813V38.3708C55.5687 45.3457 49.9144 51 42.9394 51H12.6292C5.6543 51 0 45.3457 0 38.3708V18.813C0 12.8746 4.81401 8.06058 10.7524 8.06058C12.6584 8.06058 14.4384 7.10799 15.4956 5.52206L15.5793 5.39656Z" fill="white"/>
<path fill-rule="evenodd" clip-rule="evenodd" d="M27.7844 20.6898C23.5994 20.6898 20.2068 24.0823 20.2068 28.2673C20.2068 32.4523 23.5994 35.8449 27.7844 35.8449C31.9694 35.8449 35.3619 32.4523 35.3619 28.2673C35.3619 24.0823 31.9694 20.6898 27.7844 20.6898ZM15.1552 28.2673C15.1552 21.2924 20.8095 15.6381 27.7844 15.6381C34.7593 15.6381 40.4136 21.2924 40.4136 28.2673C40.4136 35.2422 34.7593 40.8965 27.7844 40.8965C20.8095 40.8965 15.1552 35.2422 15.1552 28.2673Z" fill="white"/>
</svg>
