<svg width="24" height="30" viewBox="0 0 24 30" fill="none" xmlns="http://www.w3.org/2000/svg">
<path d="M20.2178 27.8009H4.06368C3.68276 27.8009 3.31722 27.6519 3.04604 27.386C2.77486 27.1201 2.61987 26.7588 2.61472 26.3803V3.3205C2.61472 2.93858 2.76737 2.57226 3.03911 2.3022C3.31084 2.03214 3.67939 1.88044 4.06368 1.88044H14.4024V6.76486C14.4024 7.28097 14.6087 7.77591 14.9759 8.14085C15.3432 8.50579 15.8412 8.71084 16.3605 8.71084H21.6081V26.3219C21.6187 26.7006 21.4787 27.0682 21.2185 27.3451C20.9583 27.6219 20.5987 27.7857 20.2178 27.8009ZM20.727 7.05675H16.4192C16.3413 7.05675 16.2667 7.02603 16.2116 6.97129C16.1565 6.91655 16.1255 6.84228 16.1255 6.76486V2.73667L20.727 7.05675ZM22.4109 6.25889L16.8304 1.0242C16.242 0.474182 15.4647 0.167946 14.657 0.167969H4.06368C3.22398 0.173073 2.4202 0.50685 1.82642 1.09695C1.23265 1.68705 0.896738 2.48599 0.891602 3.3205V26.3803C0.896738 27.2148 1.23265 28.0137 1.82642 28.6038C2.4202 29.1939 3.22398 29.5277 4.06368 29.5328H20.2178C21.0591 29.5328 21.866 29.2007 22.4608 28.6095C23.0557 28.0183 23.3899 27.2164 23.3899 26.3803V8.55519C23.3865 8.13017 23.2982 7.71007 23.1301 7.31923C22.962 6.9284 22.7176 6.57458 22.4109 6.27837V6.25889Z" fill="#007BC4"/>
<path d="M18.3186 11.6298H5.63019C5.50481 11.6111 5.37686 11.6195 5.25504 11.6544C5.13322 11.6893 5.02044 11.75 4.92435 11.8322C4.82827 11.9144 4.75121 12.0162 4.69836 12.1308C4.6455 12.2453 4.61816 12.3698 4.61816 12.4958C4.61816 12.6218 4.6455 12.7463 4.69836 12.8609C4.75121 12.9754 4.82827 13.0773 4.92435 13.1595C5.02044 13.2417 5.13322 13.3023 5.25504 13.3372C5.37686 13.3721 5.50481 13.3805 5.63019 13.3618H18.3186C18.5273 13.3306 18.7177 13.226 18.8554 13.0671C18.993 12.9082 19.0688 12.7055 19.0688 12.4958C19.0688 12.2861 18.993 12.0834 18.8554 11.9245C18.7177 11.7655 18.5273 11.661 18.3186 11.6298Z" fill="#007BC4"/>
<path d="M18.3186 16.2226H5.63019C5.50481 16.2039 5.37686 16.2123 5.25504 16.2472C5.13322 16.2821 5.02044 16.3427 4.92435 16.4249C4.82827 16.5072 4.75121 16.609 4.69836 16.7235C4.6455 16.8381 4.61816 16.9626 4.61816 17.0886C4.61816 17.2146 4.6455 17.3391 4.69836 17.4536C4.75121 17.5682 4.82827 17.67 4.92435 17.7522C5.02044 17.8344 5.13322 17.8951 5.25504 17.93C5.37686 17.9649 5.50481 17.9733 5.63019 17.9546H18.3186C18.5273 17.9234 18.7177 17.8189 18.8554 17.6599C18.993 17.501 19.0688 17.2983 19.0688 17.0886C19.0688 16.8789 18.993 16.6762 18.8554 16.5173C18.7177 16.3584 18.5273 16.2538 18.3186 16.2226Z" fill="#007BC4"/>
<path d="M9.82039 20.8154H5.63006C5.39973 20.8154 5.17856 20.9049 5.01386 21.065C4.84917 21.225 4.75414 21.4428 4.74902 21.6717C4.74899 21.7858 4.77191 21.8987 4.81643 22.0039C4.86094 22.109 4.92616 22.2044 5.00824 22.2841C5.09033 22.3639 5.18756 22.4265 5.29436 22.4684C5.40115 22.5103 5.51529 22.5305 5.63006 22.5279H9.82039C10.0489 22.5279 10.2681 22.4377 10.4297 22.2771C10.5912 22.1165 10.6819 21.8988 10.6819 21.6717C10.6819 21.4446 10.5912 21.2268 10.4297 21.0662C10.2681 20.9056 10.0489 20.8154 9.82039 20.8154Z" fill="#007BC4"/>
</svg>
