<svg width="126" height="120" viewBox="0 0 126 120" fill="none" xmlns="http://www.w3.org/2000/svg">
<g clip-path="url(#clip0_119_1171)">
<path d="M30.5892 10.9838C28.4715 12.5748 25.6177 15.0317 23.6085 17.0331C21.4316 19.22 20.3975 20.5188 21.6955 19.4244C24.2629 17.281 30.5024 12.8292 33.2486 11.1658C36.9989 8.89413 39.9232 7.57103 44.2116 6.23399C51.939 3.82234 57.9938 3.32026 67.3466 4.37812C71.1329 4.8019 81.2515 7.21668 84.9103 8.5861C93.1126 11.6294 100.316 16.5384 106.339 23.1986C108.333 25.3804 111.485 29.3819 112.391 30.8779C112.958 31.7672 113.016 31.8163 113.03 31.3313C113.018 30.3863 109.25 24.489 106.702 21.4384C98.2477 11.3202 87.2392 4.43019 75.2249 1.70697C63.4863 -0.931124 52.2858 0.278798 40.2925 5.49847C38.3811 6.32011 32.0188 9.92178 30.5892 10.9838Z" fill="black"/>
<path d="M30.5892 10.9838C28.4715 12.5748 25.6177 15.0317 23.6085 17.0331C21.4316 19.22 20.3975 20.5188 21.6955 19.4244C24.2629 17.281 30.5024 12.8292 33.2486 11.1658C36.9989 8.89413 39.9232 7.57103 44.2116 6.23399C51.939 3.82234 57.9938 3.32026 67.3466 4.37812C71.1329 4.8019 81.2515 7.21668 84.9103 8.5861C93.1126 11.6294 100.316 16.5384 106.339 23.1986C108.333 25.3804 111.485 29.3819 112.391 30.8779C112.958 31.7672 113.016 31.8163 113.03 31.3313C113.018 30.3863 109.25 24.489 106.702 21.4384C98.2477 11.3202 87.2392 4.43019 75.2249 1.70697C63.4863 -0.931124 52.2858 0.278798 40.2925 5.49847C38.3811 6.32011 32.0188 9.92178 30.5892 10.9838Z" fill="url(#paint0_linear_119_1171)"/>
<path d="M33.469 16.6629C30.778 18.7411 26.7547 22.5507 24.4075 25.2891C22.22 27.8747 18.3504 33.0479 18.6136 33.1125C18.6794 33.1287 19.9197 31.9853 21.3314 30.5699C32.1059 19.8696 35.7687 17.3148 44.935 14.0876C57.1006 9.79999 70.9667 9.24455 81.6358 12.6144C89.4043 15.0802 96.123 19.0502 101.825 24.5325C105.988 28.5379 107.229 29.6627 107.373 29.5758C107.455 29.5261 106.963 28.7598 106.297 27.8462C97.6015 15.9416 80.5227 6.84577 65.7187 6.17651C59.6114 5.89808 52.245 7.19463 45.8656 9.65814C42.7601 10.8669 36.2009 14.5599 33.469 16.6629Z" fill="black"/>
<path d="M33.469 16.6629C30.778 18.7411 26.7547 22.5507 24.4075 25.2891C22.22 27.8747 18.3504 33.0479 18.6136 33.1125C18.6794 33.1287 19.9197 31.9853 21.3314 30.5699C32.1059 19.8696 35.7687 17.3148 44.935 14.0876C57.1006 9.79999 70.9667 9.24455 81.6358 12.6144C89.4043 15.0802 96.123 19.0502 101.825 24.5325C105.988 28.5379 107.229 29.6627 107.373 29.5758C107.455 29.5261 106.963 28.7598 106.297 27.8462C97.6015 15.9416 80.5227 6.84577 65.7187 6.17651C59.6114 5.89808 52.245 7.19463 45.8656 9.65814C42.7601 10.8669 36.2009 14.5599 33.469 16.6629Z" fill="url(#paint1_linear_119_1171)"/>
<path d="M87.8335 12.7529C87.8799 12.8433 89.1764 13.6636 90.7392 14.5948C92.2793 15.5186 94.5294 16.9732 95.7053 17.8553C98.2705 19.7386 102.657 24.0962 105.059 27.1101C118.992 44.7364 121.437 69.0344 111.151 87.9233C109.017 91.8929 105.534 96.6111 102.474 99.7036C100.982 101.212 101.347 101.405 102.878 99.9343C109.872 93.3011 112.394 90.1611 115.664 83.9144C117.277 80.8594 120.06 72.2157 120.474 68.976C121.796 58.8545 120.515 49.934 116.257 39.627C114.711 35.9072 111.346 30.6451 108.065 26.8445C104.622 22.841 98.9531 18.3223 93.9615 15.5318C91.3098 14.0737 87.6634 12.4212 87.8335 12.7529Z" fill="black"/>
<path d="M87.8335 12.7529C87.8799 12.8433 89.1764 13.6636 90.7392 14.5948C92.2793 15.5186 94.5294 16.9732 95.7053 17.8553C98.2705 19.7386 102.657 24.0962 105.059 27.1101C118.992 44.7364 121.437 69.0344 111.151 87.9233C109.017 91.8929 105.534 96.6111 102.474 99.7036C100.982 101.212 101.347 101.405 102.878 99.9343C109.872 93.3011 112.394 90.1611 115.664 83.9144C117.277 80.8594 120.06 72.2157 120.474 68.976C121.796 58.8545 120.515 49.934 116.257 39.627C114.711 35.9072 111.346 30.6451 108.065 26.8445C104.622 22.841 98.9531 18.3223 93.9615 15.5318C91.3098 14.0737 87.6634 12.4212 87.8335 12.7529Z" fill="url(#paint2_linear_119_1171)"/>
<path d="M24.6257 14.8183C17.7491 19.6582 12.1904 26.5347 7.27861 36.2146C4.21172 42.2765 1.93552 48.6259 0.809397 54.3763C-0.795925 62.4987 -0.00524382 71.4838 3.10956 80.4448C6.58377 90.532 15.2333 102.871 22.613 108.238C24.6736 109.748 24.434 109.269 21.7025 106.417C8.64433 92.8082 3.18144 80.2292 3.18144 63.6967C3.15748 58.8089 3.27728 57.4432 3.97212 53.1064C6.20041 39.0658 12.4779 27.1577 23.0443 16.8549C24.7694 15.1777 26.1591 13.812 26.1112 13.812C26.0872 13.812 25.4164 14.2672 24.6257 14.8183Z" fill="#6AAB30"/>
<path d="M24.6257 14.8183C17.7491 19.6582 12.1904 26.5347 7.27861 36.2146C4.21172 42.2765 1.93552 48.6259 0.809397 54.3763C-0.795925 62.4987 -0.00524382 71.4838 3.10956 80.4448C6.58377 90.532 15.2333 102.871 22.613 108.238C24.6736 109.748 24.434 109.269 21.7025 106.417C8.64433 92.8082 3.18144 80.2292 3.18144 63.6967C3.15748 58.8089 3.27728 57.4432 3.97212 53.1064C6.20041 39.0658 12.4779 27.1577 23.0443 16.8549C24.7694 15.1777 26.1591 13.812 26.1112 13.812C26.0872 13.812 25.4164 14.2672 24.6257 14.8183Z" fill="url(#paint3_linear_119_1171)"/>
<path d="M27.4052 15.8724C26.8062 16.3516 25.3686 17.5975 24.1946 18.6757C16.0242 26.1513 10.9686 35.6395 9.02786 47.2361C8.42886 50.926 8.42886 59.5755 9.02786 63.1695C10.4894 71.6035 13.173 78.456 17.7733 85.5003C19.6182 88.3276 20.4568 89.3099 23.7154 92.5685C27.6209 96.45 29.9689 98.3908 32.0774 99.469C32.7483 99.8044 33.0119 99.9003 32.6764 99.6607C21.7746 91.7778 13.3646 76.3236 11.8072 61.2767C11.4239 57.467 11.6635 49.728 12.2864 46.0381C13.2448 40.4075 14.6106 36.0947 17.1024 30.9433C19.2828 26.4148 21.2714 23.5876 26.4229 17.6455C29.0824 14.5786 29.1064 14.5546 27.4052 15.8724Z" fill="#6AAB30"/>
<path d="M27.4052 15.8724C26.8062 16.3516 25.3686 17.5975 24.1946 18.6757C16.0242 26.1513 10.9686 35.6395 9.02786 47.2361C8.42886 50.926 8.42886 59.5755 9.02786 63.1695C10.4894 71.6035 13.173 78.456 17.7733 85.5003C19.6182 88.3276 20.4568 89.3099 23.7154 92.5685C27.6209 96.45 29.9689 98.3908 32.0774 99.469C32.7483 99.8044 33.0119 99.9003 32.6764 99.6607C21.7746 91.7778 13.3646 76.3236 11.8072 61.2767C11.4239 57.467 11.6635 49.728 12.2864 46.0381C13.2448 40.4075 14.6106 36.0947 17.1024 30.9433C19.2828 26.4148 21.2714 23.5876 26.4229 17.6455C29.0824 14.5786 29.1064 14.5546 27.4052 15.8724Z" fill="url(#paint4_linear_119_1171)"/>
<path d="M111.959 25.5715C112.187 26.0518 113.453 28.4397 114.755 30.8659C119.551 39.823 120.91 44.3943 121.619 54.1783C122.558 66.6552 120.366 78.1449 115.229 87.6573C109.842 97.6515 102.567 104.879 89.6495 113.026C87.0523 114.66 87.4 114.725 90.7155 113.214C98.1016 109.8 106.544 103.156 111.642 96.75C121.569 84.2752 126.361 66.1959 123.789 50.9704C123.254 47.7962 120.98 40.6747 119.352 37.0698C117.369 32.6724 113.813 26.8909 112.069 25.2092C111.53 24.7022 111.53 24.7022 111.959 25.5715Z" fill="black"/>
<path d="M111.959 25.5715C112.187 26.0518 113.453 28.4397 114.755 30.8659C119.551 39.823 120.91 44.3943 121.619 54.1783C122.558 66.6552 120.366 78.1449 115.229 87.6573C109.842 97.6515 102.567 104.879 89.6495 113.026C87.0523 114.66 87.4 114.725 90.7155 113.214C98.1016 109.8 106.544 103.156 111.642 96.75C121.569 84.2752 126.361 66.1959 123.789 50.9704C123.254 47.7962 120.98 40.6747 119.352 37.0698C117.369 32.6724 113.813 26.8909 112.069 25.2092C111.53 24.7022 111.53 24.7022 111.959 25.5715Z" fill="url(#paint5_linear_119_1171)"/>
<path d="M7.71865 78.9237C8.60624 82.6829 11.7883 89.2212 14.7485 93.3215C19.9421 100.539 27.681 107.89 33.0709 110.761C42.5083 115.757 48.2359 117.947 54.7927 119.079C68.7266 121.509 82.0762 117.677 98.8349 106.52C103.177 103.624 102.584 103.811 97.6004 106.896C92.4054 110.107 89.2185 111.647 84.7354 113.133C79.0664 115.017 74.2713 115.746 66.985 115.788C59.508 115.859 54.5711 115.155 47.4065 113.011C37.0719 109.938 28.5275 105.13 21.2596 98.2669C16.4634 93.722 13.3009 89.2926 9.6145 81.9793C8.6153 79.9737 7.72187 78.2763 7.64773 78.2068C7.57358 78.1372 7.60828 78.4717 7.71865 78.9237Z" fill="black"/>
<path d="M7.71865 78.9237C8.60624 82.6829 11.7883 89.2212 14.7485 93.3215C19.9421 100.539 27.681 107.89 33.0709 110.761C42.5083 115.757 48.2359 117.947 54.7927 119.079C68.7266 121.509 82.0762 117.677 98.8349 106.52C103.177 103.624 102.584 103.811 97.6004 106.896C92.4054 110.107 89.2185 111.647 84.7354 113.133C79.0664 115.017 74.2713 115.746 66.985 115.788C59.508 115.859 54.5711 115.155 47.4065 113.011C37.0719 109.938 28.5275 105.13 21.2596 98.2669C16.4634 93.722 13.3009 89.2926 9.6145 81.9793C8.6153 79.9737 7.72187 78.2763 7.64773 78.2068C7.57358 78.1372 7.60828 78.4717 7.71865 78.9237Z" fill="url(#paint6_linear_119_1171)"/>
<path d="M15.4968 84.5659C17.9647 90.4122 27.2612 101.05 33.8741 105.555C46.1656 113.917 62.9377 115.978 78.0325 110.994C84.7892 108.766 91.0013 106.967 97.183 101.408C99.4113 99.3958 102.314 96.1509 103.944 93.8029C105.165 92.0298 105.806 91.4939 103.098 94.2254C95.4073 101.964 81.9619 107.304 69.2152 109.221C66.0045 109.7 57.4508 109.628 54.0245 109.101C42.0445 107.232 32.3886 102.464 23.8349 94.1978C22.4692 92.88 20.9597 91.2028 20.4565 90.484C19.9534 89.7413 19.3783 88.9985 19.1387 88.8068C18.9231 88.6391 18.1084 87.537 17.3178 86.3869C16.5271 85.2368 15.7124 84.1586 15.4968 83.9909C15.1853 83.7033 15.1853 83.7752 15.4968 84.5659Z" fill="black"/>
<path d="M15.4968 84.5659C17.9647 90.4122 27.2612 101.05 33.8741 105.555C46.1656 113.917 62.9377 115.978 78.0325 110.994C84.7892 108.766 91.0013 106.967 97.183 101.408C99.4113 99.3958 102.314 96.1509 103.944 93.8029C105.165 92.0298 105.806 91.4939 103.098 94.2254C95.4073 101.964 81.9619 107.304 69.2152 109.221C66.0045 109.7 57.4508 109.628 54.0245 109.101C42.0445 107.232 32.3886 102.464 23.8349 94.1978C22.4692 92.88 20.9597 91.2028 20.4565 90.484C19.9534 89.7413 19.3783 88.9985 19.1387 88.8068C18.9231 88.6391 18.1084 87.537 17.3178 86.3869C16.5271 85.2368 15.7124 84.1586 15.4968 83.9909C15.1853 83.7033 15.1853 83.7752 15.4968 84.5659Z" fill="url(#paint7_linear_119_1171)"/>
</g>
<path d="M52.1655 74.4825V61.0343H42.0781V74.4825L47.1218 71.4939L52.1655 74.4825Z" fill="#F8D999"/>
<path d="M59.7315 61.0344C59.7318 61.2382 59.6928 61.4401 59.6169 61.6285C59.5409 61.8169 59.4295 61.9881 59.2889 62.1322C59.1484 62.2763 58.9814 62.3906 58.7977 62.4685C58.6141 62.5464 58.4172 62.5863 58.2184 62.5861H54.1835V69.3102H81.9035C82.068 69.3102 82.23 69.2687 82.3751 69.1894C82.5203 69.1101 82.6442 68.9953 82.7359 68.8553C82.8276 68.7152 82.8843 68.5542 82.901 68.3864C82.9177 68.2185 82.8938 68.0491 82.8315 67.8929C82.1905 66.1827 81.7634 64.3961 81.5605 62.5757C81.5202 62.5757 81.4697 62.5861 81.4193 62.5861H67.297C66.8957 62.5861 66.5108 62.4226 66.2271 62.1316C65.9433 61.8406 65.7839 61.4459 65.7839 61.0344C65.7839 60.6228 65.9433 60.2281 66.2271 59.9371C66.5108 59.6461 66.8957 59.4826 67.297 59.4826H81.4395C81.4887 56.9562 81.963 54.4574 82.8416 52.0965C82.9017 51.94 82.9235 51.7709 82.9052 51.6038C82.8868 51.4367 82.8288 51.2767 82.7363 51.1379C82.6437 50.9991 82.5194 50.8857 82.3742 50.8075C82.229 50.7294 82.0674 50.6889 81.9034 50.6896H61.2445V51.7241C61.2451 52.0874 61.1521 52.4445 60.9751 52.7592C60.7981 53.074 60.5433 53.3353 60.2363 53.5168C59.9294 53.6983 59.5812 53.7936 59.2269 53.793C58.8726 53.7925 58.5247 53.6961 58.2183 53.5137L54.1834 51.1241L50.1485 53.5137C49.8419 53.6952 49.4942 53.7908 49.1403 53.7909C48.7863 53.791 48.4385 53.6956 48.1319 53.5142C47.8253 53.3329 47.5705 53.072 47.3933 52.7578C47.2161 52.4436 47.1226 52.0871 47.1223 51.7241V50.6896H35.663C35.4689 50.6897 35.279 50.7474 35.1162 50.8557C34.9533 50.964 34.8244 51.1183 34.7451 51.2999C33.5938 54.0484 33 57.0085 33 59.9999C33 62.9913 33.5938 65.9513 34.7451 68.6998C34.8244 68.8815 34.9533 69.0358 35.1162 69.144C35.279 69.2523 35.4689 69.31 35.663 69.3102H40.0611V62.1826C39.9018 62.0394 39.7744 61.8628 39.6873 61.6647C39.6003 61.4666 39.5558 61.2516 39.5568 61.0344C39.5611 60.6242 39.7219 60.2321 40.0047 59.9421C40.2876 59.652 40.6699 59.4871 41.0699 59.4826H58.2183C58.4171 59.4824 58.614 59.5223 58.7977 59.6002C58.9814 59.6781 59.1483 59.7924 59.2889 59.9365C59.4295 60.0806 59.5409 60.2518 59.6169 60.4402C59.6928 60.6286 59.7318 60.8305 59.7315 61.0344Z" fill="#F6C358"/>
<path d="M54.1833 48.7354L59.227 51.724V40.3448H49.1396V51.724L54.1833 48.7354Z" fill="#F8D999"/>
<path d="M42.7258 48.6206H47.1223V41.4931C46.963 41.3498 46.8355 41.1732 46.7485 40.9751C46.6615 40.777 46.617 40.562 46.6179 40.3448C46.6223 39.9346 46.7831 39.5425 47.0659 39.2525C47.3487 38.9625 47.7311 38.7975 48.131 38.7931H65.2795C65.6808 38.7931 66.0657 38.9566 66.3494 39.2476C66.6332 39.5386 66.7926 39.9332 66.7926 40.3448C66.7926 40.7563 66.6332 41.151 66.3494 41.442C66.0657 41.733 65.6808 41.8965 65.2795 41.8965H61.2446V48.6206H88.9617C89.1264 48.6198 89.2884 48.5777 89.4336 48.4979C89.5788 48.4181 89.7027 48.3032 89.7946 48.163C89.8864 48.0228 89.9435 47.8617 89.9607 47.6937C89.9779 47.5258 89.9548 47.356 89.8933 47.1993C89.2524 45.4904 88.8251 43.7052 88.6216 41.8862C88.5813 41.8862 88.5308 41.8965 88.4804 41.8965H74.3581C73.9568 41.8965 73.572 41.733 73.2882 41.442C73.0044 41.151 72.845 40.7563 72.845 40.3448C72.845 39.9332 73.0044 39.5386 73.2882 39.2476C73.572 38.9566 73.9568 38.7931 74.3581 38.7931H88.5006C88.5527 36.2666 89.0276 33.7681 89.9047 31.4066C89.9643 31.25 89.9856 31.0809 89.9668 30.9139C89.9481 30.7469 89.8899 30.5872 89.7972 30.4486C89.7046 30.3099 89.5803 30.1966 89.4353 30.1184C89.2902 30.0402 89.1287 29.9996 88.9648 30H42.7286C42.5339 29.9992 42.3432 30.0561 42.1793 30.1639C42.0154 30.2718 41.8854 30.4259 41.805 30.6077C40.6512 33.3563 40.0578 36.3179 40.0611 39.3103C40.0519 42.3033 40.6459 45.266 41.806 48.0125C41.885 48.1947 42.0141 48.3493 42.1774 48.4573C42.3408 48.5653 42.5314 48.6221 42.7258 48.6206Z" fill="#F6C358"/>
<path d="M45.7522 89.9997H91.9881C92.1528 89.9989 92.3148 89.9568 92.46 89.877C92.6051 89.7972 92.7291 89.6822 92.8209 89.5421C92.9128 89.4019 92.9698 89.2408 92.9871 89.0728C93.0043 88.9049 92.9811 88.7351 92.9197 88.5784C92.2788 86.8695 91.8515 85.0843 91.648 83.2652C91.6076 83.2652 91.5572 83.2756 91.5068 83.2756H70.3234C69.9221 83.2756 69.5372 83.1121 69.2534 82.8211C68.9697 82.5301 68.8102 82.1354 68.8102 81.7239C68.8102 81.3123 68.9697 80.9176 69.2534 80.6266C69.5372 80.3356 69.9221 80.1722 70.3234 80.1722H91.5269C91.579 77.6457 92.054 75.1472 92.9311 72.7857C92.9906 72.6291 93.0119 72.4599 92.9932 72.293C92.9745 72.126 92.9162 71.9663 92.8236 71.8276C92.731 71.689 92.6067 71.5757 92.4616 71.4975C92.3166 71.4193 92.1551 71.3787 91.9912 71.3791H54.1836V74.4825C54.1841 74.8459 54.0911 75.2029 53.9141 75.5177C53.7371 75.8324 53.4823 76.0937 53.1754 76.2752C52.8685 76.4567 52.5203 76.552 52.166 76.5515C51.8117 76.551 51.4638 76.4546 51.1574 76.2722L47.1224 73.8825L43.5818 75.9825C43.2561 77.5293 43.0904 79.107 43.0875 80.6894C43.0783 83.6824 43.6723 86.6451 44.8324 89.3916C44.9113 89.5738 45.0404 89.7283 45.2038 89.8364C45.3672 89.9444 45.5578 90.0011 45.7522 89.9997ZM62.2535 80.1722C62.5527 80.1722 62.8453 80.2632 63.0941 80.4337C63.3429 80.6042 63.5369 80.8465 63.6514 81.1301C63.7659 81.4136 63.7959 81.7256 63.7375 82.0266C63.6791 82.3276 63.535 82.6041 63.3234 82.8211C63.1118 83.0381 62.8422 83.1859 62.5487 83.2458C62.2551 83.3056 61.9509 83.2749 61.6744 83.1575C61.3979 83.04 61.1616 82.8411 60.9954 82.586C60.8291 82.3308 60.7404 82.0308 60.7404 81.7239C60.7401 81.52 60.7791 81.3181 60.855 81.1297C60.9309 80.9413 61.0424 80.7702 61.1829 80.626C61.3235 80.4819 61.4904 80.3676 61.6741 80.2897C61.8578 80.2118 62.0547 80.1719 62.2535 80.1722Z" fill="#F6C358"/>
<defs>
<linearGradient id="paint0_linear_119_1171" x1="35.3723" y1="43.3294" x2="97.7407" y2="5.55121" gradientUnits="userSpaceOnUse">
<stop stop-color="#FEE927"/>
<stop offset="0.3" stop-color="#FEE927"/>
<stop offset="0.571564" stop-color="#FEE927"/>
<stop offset="1" stop-color="#F89C0E"/>
</linearGradient>
<linearGradient id="paint1_linear_119_1171" x1="28.04" y1="48.682" x2="94.5978" y2="8.36628" gradientUnits="userSpaceOnUse">
<stop stop-color="#FEE927"/>
<stop offset="0.3" stop-color="#FEE927"/>
<stop offset="0.571564" stop-color="#FEE927"/>
<stop offset="1" stop-color="#F89C0E"/>
</linearGradient>
<linearGradient id="paint2_linear_119_1171" x1="111.678" y1="18.2121" x2="87.2125" y2="94.1846" gradientUnits="userSpaceOnUse">
<stop stop-color="#1082CE"/>
<stop offset="0.3" stop-color="#1082CE"/>
<stop offset="0.573113" stop-color="#1082CE"/>
<stop offset="1" stop-color="#2744A0"/>
</linearGradient>
<linearGradient id="paint3_linear_119_1171" x1="13.0564" y1="112.659" x2="13.0564" y2="17.3921" gradientUnits="userSpaceOnUse">
<stop stop-color="#80C428"/>
<stop offset="0.3" stop-color="#80C428"/>
<stop offset="0.573113" stop-color="#80C428"/>
<stop offset="1" stop-color="#43803C"/>
</linearGradient>
<linearGradient id="paint4_linear_119_1171" x1="20.7004" y1="102.98" x2="20.7004" y2="18.2287" gradientUnits="userSpaceOnUse">
<stop stop-color="#80C428"/>
<stop offset="0.3" stop-color="#80C428"/>
<stop offset="0.573113" stop-color="#80C428"/>
<stop offset="1" stop-color="#43803C"/>
</linearGradient>
<linearGradient id="paint5_linear_119_1171" x1="89.2219" y1="29.9391" x2="112.951" y2="104.272" gradientUnits="userSpaceOnUse">
<stop stop-color="#1082CE"/>
<stop offset="0.3" stop-color="#1082CE"/>
<stop offset="0.573113" stop-color="#1082CE"/>
<stop offset="1" stop-color="#2744A0"/>
</linearGradient>
<linearGradient id="paint6_linear_119_1171" x1="8.29965" y1="99.8606" x2="101.505" y2="96.8736" gradientUnits="userSpaceOnUse">
<stop stop-color="#1C63B7"/>
<stop offset="0.428436" stop-color="#68BCEB"/>
<stop offset="0.7" stop-color="#68BCEB"/>
<stop offset="1" stop-color="#68BCEB"/>
</linearGradient>
<linearGradient id="paint7_linear_119_1171" x1="15.263" y1="98.7538" x2="102.809" y2="98.7538" gradientUnits="userSpaceOnUse">
<stop stop-color="#1C63B7"/>
<stop offset="0.428436" stop-color="#68BCEB"/>
<stop offset="0.7" stop-color="#68BCEB"/>
<stop offset="1" stop-color="#68BCEB"/>
</linearGradient>
<clipPath id="clip0_119_1171">
<rect width="125.07" height="120" fill="white"/>
</clipPath>
</defs>
</svg>
