<svg width="10" height="14" viewBox="0 0 10 14" fill="none" xmlns="http://www.w3.org/2000/svg">
<path d="M1.31209 7.88435L8.52857 7.88496C8.85948 7.88501 9.17815 8.00066 9.42074 8.20872C9.66332 8.41679 9.81191 8.70191 9.83673 9.00696L9.84066 9.09793V10.6135C9.84001 13.1608 7.0282 13.9492 4.92033 13.9492C2.85445 13.9492 0.112184 13.1923 0.0032803 10.764L0 10.6135V9.09733C0 8.45809 0.535332 7.93408 1.21368 7.88799L1.31209 7.88435ZM4.92033 1.3798e-08C5.39422 3.98299e-05 5.86345 0.0863672 6.30125 0.254053C6.73904 0.421739 7.13682 0.6675 7.47188 0.977303C7.80694 1.28711 8.07271 1.65489 8.25401 2.05964C8.43532 2.4644 8.52862 2.8982 8.52857 3.33629C8.52853 3.77438 8.43515 4.20817 8.25376 4.6129C8.07238 5.01762 7.80653 5.38536 7.47142 5.6951C7.1363 6.00485 6.73847 6.25055 6.30064 6.41816C5.86281 6.58577 5.39356 6.67202 4.91967 6.67198C3.96262 6.6719 3.0448 6.32035 2.36813 5.69468C1.69145 5.069 1.31135 4.22045 1.31143 3.33569C1.31152 2.45093 1.69179 1.60244 2.36859 0.976874C3.04539 0.351312 3.96328 -8.03984e-05 4.92033 1.3798e-08Z" fill="url(#paint0_linear_115_936)"/>
<defs>
<linearGradient id="paint0_linear_115_936" x1="0" y1="6.97462" x2="9.45222" y2="6.97462" gradientUnits="userSpaceOnUse">
<stop stop-color="#8DBE3E"/>
<stop offset="0.244792" stop-color="#8DBE3E"/>
<stop offset="0.541667" stop-color="#82B240"/>
<stop offset="0.822917" stop-color="#6E9E42"/>
<stop offset="1" stop-color="#538843"/>
<stop offset="1" stop-color="#538843"/>
</linearGradient>
</defs>
</svg>
