<svg width="126" height="120" viewBox="0 0 126 120" fill="none" xmlns="http://www.w3.org/2000/svg">
<g clip-path="url(#clip0_1_312)">
<path d="M30.5897 10.9838C28.4719 12.5748 25.6182 15.0317 23.609 17.0331C21.4321 19.22 20.398 20.5188 21.696 19.4244C24.2634 17.281 30.5029 12.8292 33.2491 11.1658C36.9994 8.89413 39.9237 7.57103 44.2121 6.23399C51.9395 3.82234 57.9943 3.32026 67.347 4.37812C71.1334 4.8019 81.252 7.21668 84.9108 8.5861C93.1131 11.6294 100.316 16.5384 106.34 23.1986C108.334 25.3804 111.486 29.3819 112.392 30.8779C112.959 31.7672 113.016 31.8163 113.031 31.3313C113.018 30.3863 109.25 24.489 106.702 21.4384C98.2482 11.3202 87.2397 4.43019 75.2254 1.70697C63.4868 -0.931124 52.2862 0.278798 40.293 5.49847C38.3816 6.32011 32.0193 9.92178 30.5897 10.9838Z" fill="black"/>
<path d="M30.5897 10.9838C28.4719 12.5748 25.6182 15.0317 23.609 17.0331C21.4321 19.22 20.398 20.5188 21.696 19.4244C24.2634 17.281 30.5029 12.8292 33.2491 11.1658C36.9994 8.89413 39.9237 7.57103 44.2121 6.23399C51.9395 3.82234 57.9943 3.32026 67.347 4.37812C71.1334 4.8019 81.252 7.21668 84.9108 8.5861C93.1131 11.6294 100.316 16.5384 106.34 23.1986C108.334 25.3804 111.486 29.3819 112.392 30.8779C112.959 31.7672 113.016 31.8163 113.031 31.3313C113.018 30.3863 109.25 24.489 106.702 21.4384C98.2482 11.3202 87.2397 4.43019 75.2254 1.70697C63.4868 -0.931124 52.2862 0.278798 40.293 5.49847C38.3816 6.32011 32.0193 9.92178 30.5897 10.9838Z" fill="url(#paint0_linear_1_312)"/>
<path d="M33.469 16.6629C30.7781 18.7411 26.7548 22.5507 24.4076 25.2891C22.2201 27.8747 18.3504 33.0479 18.6137 33.1125C18.6795 33.1287 19.9198 31.9853 21.3315 30.5699C32.1059 19.8696 35.7688 17.3148 44.9351 14.0876C57.1007 9.79999 70.9667 9.24455 81.6359 12.6144C89.4043 15.0802 96.123 19.0502 101.825 24.5325C105.988 28.5379 107.229 29.6627 107.373 29.5758C107.455 29.5261 106.963 28.7598 106.297 27.8462C97.6016 15.9416 80.5228 6.84577 65.7188 6.17651C59.6114 5.89808 52.2451 7.19463 45.8657 9.65814C42.7601 10.8669 36.201 14.5599 33.469 16.6629Z" fill="black"/>
<path d="M33.469 16.6629C30.7781 18.7411 26.7548 22.5507 24.4076 25.2891C22.2201 27.8747 18.3504 33.0479 18.6137 33.1125C18.6795 33.1287 19.9198 31.9853 21.3315 30.5699C32.1059 19.8696 35.7688 17.3148 44.9351 14.0876C57.1007 9.79999 70.9667 9.24455 81.6359 12.6144C89.4043 15.0802 96.123 19.0502 101.825 24.5325C105.988 28.5379 107.229 29.6627 107.373 29.5758C107.455 29.5261 106.963 28.7598 106.297 27.8462C97.6016 15.9416 80.5228 6.84577 65.7188 6.17651C59.6114 5.89808 52.2451 7.19463 45.8657 9.65814C42.7601 10.8669 36.201 14.5599 33.469 16.6629Z" fill="url(#paint1_linear_1_312)"/>
<path d="M87.834 12.7529C87.8804 12.8433 89.1769 13.6636 90.7397 14.5948C92.2798 15.5186 94.5299 16.9732 95.7058 17.8553C98.271 19.7386 102.657 24.0962 105.06 27.1101C118.992 44.7364 121.438 69.0344 111.151 87.9233C109.017 91.8929 105.534 96.6111 102.474 99.7036C100.982 101.212 101.348 101.405 102.878 99.9343C109.873 93.3011 112.394 90.1611 115.664 83.9144C117.277 80.8594 120.061 72.2157 120.475 68.976C121.796 58.8545 120.515 49.934 116.258 39.627C114.712 35.9072 111.347 30.6451 108.065 26.8445C104.622 22.841 98.9536 18.3223 93.962 15.5318C91.3103 14.0737 87.6639 12.4212 87.834 12.7529Z" fill="black"/>
<path d="M87.834 12.7529C87.8804 12.8433 89.1769 13.6636 90.7397 14.5948C92.2798 15.5186 94.5299 16.9732 95.7058 17.8553C98.271 19.7386 102.657 24.0962 105.06 27.1101C118.992 44.7364 121.438 69.0344 111.151 87.9233C109.017 91.8929 105.534 96.6111 102.474 99.7036C100.982 101.212 101.348 101.405 102.878 99.9343C109.873 93.3011 112.394 90.1611 115.664 83.9144C117.277 80.8594 120.061 72.2157 120.475 68.976C121.796 58.8545 120.515 49.934 116.258 39.627C114.712 35.9072 111.347 30.6451 108.065 26.8445C104.622 22.841 98.9536 18.3223 93.962 15.5318C91.3103 14.0737 87.6639 12.4212 87.834 12.7529Z" fill="url(#paint2_linear_1_312)"/>
<path d="M24.6257 14.8182C17.7491 19.6582 12.1904 26.5347 7.27861 36.2146C4.21172 42.2764 1.93552 48.6259 0.809397 54.3763C-0.795925 62.4987 -0.00524382 71.4837 3.10956 80.4448C6.58377 90.532 15.2333 102.871 22.613 108.238C24.6736 109.748 24.434 109.269 21.7025 106.417C8.64433 92.8082 3.18144 80.2291 3.18144 63.6967C3.15748 58.8089 3.27728 57.4431 3.97212 53.1064C6.20041 39.0658 12.4779 27.1577 23.0443 16.8548C24.7694 15.1776 26.1591 13.8119 26.1112 13.8119C26.0872 13.8119 25.4164 14.2672 24.6257 14.8182Z" fill="#6AAB30"/>
<path d="M24.6257 14.8182C17.7491 19.6582 12.1904 26.5347 7.27861 36.2146C4.21172 42.2764 1.93552 48.6259 0.809397 54.3763C-0.795925 62.4987 -0.00524382 71.4837 3.10956 80.4448C6.58377 90.532 15.2333 102.871 22.613 108.238C24.6736 109.748 24.434 109.269 21.7025 106.417C8.64433 92.8082 3.18144 80.2291 3.18144 63.6967C3.15748 58.8089 3.27728 57.4431 3.97212 53.1064C6.20041 39.0658 12.4779 27.1577 23.0443 16.8548C24.7694 15.1776 26.1591 13.8119 26.1112 13.8119C26.0872 13.8119 25.4164 14.2672 24.6257 14.8182Z" fill="url(#paint3_linear_1_312)"/>
<path d="M27.4047 15.8725C26.8057 16.3517 25.3681 17.5976 24.1941 18.6758C16.0237 26.1513 10.9681 35.6395 9.02738 47.2362C8.42837 50.926 8.42837 59.5756 9.02738 63.1696C10.4889 71.6035 13.1725 78.4561 17.7728 85.5003C19.6177 88.3276 20.4563 89.31 23.7149 92.5686C27.6204 96.4501 29.9685 98.3908 32.0769 99.469C32.7478 99.8045 33.0114 99.9003 32.6759 99.6607C21.7741 91.7779 13.3641 76.3237 11.8067 61.2767C11.4234 57.4671 11.663 49.728 12.2859 46.0382C13.2443 40.4076 14.6101 36.0948 17.1019 30.9433C19.2823 26.4149 21.271 23.5876 26.4224 17.6455C29.0819 14.5786 29.1059 14.5547 27.4047 15.8725Z" fill="#6AAB30"/>
<path d="M27.4047 15.8725C26.8057 16.3517 25.3681 17.5976 24.1941 18.6758C16.0237 26.1513 10.9681 35.6395 9.02738 47.2362C8.42837 50.926 8.42837 59.5756 9.02738 63.1696C10.4889 71.6035 13.1725 78.4561 17.7728 85.5003C19.6177 88.3276 20.4563 89.31 23.7149 92.5686C27.6204 96.4501 29.9685 98.3908 32.0769 99.469C32.7478 99.8045 33.0114 99.9003 32.6759 99.6607C21.7741 91.7779 13.3641 76.3237 11.8067 61.2767C11.4234 57.4671 11.663 49.728 12.2859 46.0382C13.2443 40.4076 14.6101 36.0948 17.1019 30.9433C19.2823 26.4149 21.271 23.5876 26.4224 17.6455C29.0819 14.5786 29.1059 14.5547 27.4047 15.8725Z" fill="url(#paint4_linear_1_312)"/>
<path d="M111.96 25.5716C112.188 26.0519 113.454 28.4397 114.756 30.866C119.552 39.823 120.911 44.3944 121.62 54.1783C122.559 66.6552 120.367 78.145 115.23 87.6574C109.843 97.6515 102.568 104.879 89.6504 113.026C87.0533 114.66 87.401 114.725 90.7165 113.214C98.1025 109.8 106.545 103.156 111.643 96.75C121.569 84.2753 126.362 66.196 123.79 50.9704C123.255 47.7962 120.981 40.6748 119.353 37.0699C117.37 32.6724 113.814 26.891 112.07 25.2093C111.531 24.7023 111.531 24.7023 111.96 25.5716Z" fill="black"/>
<path d="M111.96 25.5716C112.188 26.0519 113.454 28.4397 114.756 30.866C119.552 39.823 120.911 44.3944 121.62 54.1783C122.559 66.6552 120.367 78.145 115.23 87.6574C109.843 97.6515 102.568 104.879 89.6504 113.026C87.0533 114.66 87.401 114.725 90.7165 113.214C98.1025 109.8 106.545 103.156 111.643 96.75C121.569 84.2753 126.362 66.196 123.79 50.9704C123.255 47.7962 120.981 40.6748 119.353 37.0699C117.37 32.6724 113.814 26.891 112.07 25.2093C111.531 24.7023 111.531 24.7023 111.96 25.5716Z" fill="url(#paint5_linear_1_312)"/>
<path d="M7.71865 78.9237C8.60624 82.6829 11.7883 89.2212 14.7485 93.3215C19.9421 100.539 27.681 107.89 33.0709 110.761C42.5083 115.757 48.2359 117.947 54.7927 119.079C68.7266 121.509 82.0762 117.677 98.8349 106.52C103.177 103.624 102.584 103.811 97.6004 106.896C92.4054 110.107 89.2185 111.647 84.7354 113.133C79.0664 115.017 74.2713 115.746 66.985 115.788C59.508 115.859 54.5711 115.155 47.4065 113.011C37.0719 109.938 28.5275 105.13 21.2596 98.2669C16.4634 93.722 13.3009 89.2926 9.6145 81.9793C8.6153 79.9737 7.72187 78.2763 7.64773 78.2068C7.57358 78.1372 7.60828 78.4717 7.71865 78.9237Z" fill="black"/>
<path d="M7.71865 78.9237C8.60624 82.6829 11.7883 89.2212 14.7485 93.3215C19.9421 100.539 27.681 107.89 33.0709 110.761C42.5083 115.757 48.2359 117.947 54.7927 119.079C68.7266 121.509 82.0762 117.677 98.8349 106.52C103.177 103.624 102.584 103.811 97.6004 106.896C92.4054 110.107 89.2185 111.647 84.7354 113.133C79.0664 115.017 74.2713 115.746 66.985 115.788C59.508 115.859 54.5711 115.155 47.4065 113.011C37.0719 109.938 28.5275 105.13 21.2596 98.2669C16.4634 93.722 13.3009 89.2926 9.6145 81.9793C8.6153 79.9737 7.72187 78.2763 7.64773 78.2068C7.57358 78.1372 7.60828 78.4717 7.71865 78.9237Z" fill="url(#paint6_linear_1_312)"/>
<path d="M15.4973 84.5658C17.9652 90.4121 27.2617 101.05 33.8746 105.555C46.1661 113.917 62.9382 115.977 78.033 110.994C84.7897 108.765 91.0018 106.967 97.1835 101.408C99.4117 99.3958 102.315 96.1509 103.944 93.8028C105.166 92.0297 105.806 91.4939 103.099 94.2253C95.4078 101.964 81.9624 107.304 69.2157 109.221C66.005 109.7 57.4513 109.628 54.025 109.101C42.045 107.232 32.3891 102.464 23.8354 94.1978C22.4697 92.88 20.9602 91.2028 20.457 90.484C19.9538 89.7412 19.3788 88.9985 19.1392 88.8068C18.9236 88.6391 18.1089 87.5369 17.3182 86.3868C16.5276 85.2367 15.7129 84.1585 15.4973 83.9908C15.1858 83.7033 15.1858 83.7752 15.4973 84.5658Z" fill="black"/>
<path d="M15.4973 84.5658C17.9652 90.4121 27.2617 101.05 33.8746 105.555C46.1661 113.917 62.9382 115.977 78.033 110.994C84.7897 108.765 91.0018 106.967 97.1835 101.408C99.4117 99.3958 102.315 96.1509 103.944 93.8028C105.166 92.0297 105.806 91.4939 103.099 94.2253C95.4078 101.964 81.9624 107.304 69.2157 109.221C66.005 109.7 57.4513 109.628 54.025 109.101C42.045 107.232 32.3891 102.464 23.8354 94.1978C22.4697 92.88 20.9602 91.2028 20.457 90.484C19.9538 89.7412 19.3788 88.9985 19.1392 88.8068C18.9236 88.6391 18.1089 87.5369 17.3182 86.3868C16.5276 85.2367 15.7129 84.1585 15.4973 83.9908C15.1858 83.7033 15.1858 83.7752 15.4973 84.5658Z" fill="url(#paint7_linear_1_312)"/>
</g>
<path d="M53.2149 35.6337C53.1797 41.3305 53.1797 41.4243 52.9101 42.069C52.5585 42.9598 51.9372 43.7217 51.1636 44.2375C49.9445 45.0463 50.05 45.0346 43.7085 45.0815L38 45.1166L38.0234 62.7814L38.0586 80.4462L38.3399 81.0557C38.4923 81.3956 38.8557 81.8997 39.1605 82.181C40.2037 83.1656 38.5509 83.0953 59.3337 83.0601L77.7955 83.025L78.3699 82.7319C78.6864 82.5678 79.1435 82.2161 79.3897 81.9348C80.2688 80.9268 80.1985 83.0718 80.1985 56.4751C80.1985 29.9838 80.2571 32.0351 79.4131 31.0505C79.1904 30.7809 78.7333 30.4175 78.3933 30.2417L77.7955 29.9252L65.5228 29.89L53.2501 29.8666L53.2149 35.6337ZM72.4855 52.7241C72.8606 53.1226 72.931 53.2867 72.931 53.697C72.931 53.9783 72.8372 54.3534 72.6965 54.5644C72.2277 55.3498 73.013 55.3029 59.7791 55.3029C48.2331 55.3029 47.776 55.2912 47.4478 55.0802C46.4749 54.4355 46.4163 53.193 47.3423 52.5014C47.6705 52.2669 47.7174 52.2669 59.8494 52.2552H72.0284L72.4855 52.7241ZM72.1925 60.9411C73.2475 61.5975 73.1654 63.0862 72.0518 63.6254C71.583 63.8598 71.2899 63.8598 59.7908 63.8598C48.8192 63.8598 47.9987 63.8481 47.6119 63.6488C46.7562 63.2268 46.4397 62.2188 46.9086 61.4568C47.4009 60.6598 46.6272 60.6949 59.8494 60.6949C71.7705 60.6949 71.794 60.6949 72.1925 60.9411ZM60.4707 68.865C61.6077 69.4042 61.6077 71.0922 60.4707 71.6314C60.1073 71.8072 59.4157 71.8306 54.0003 71.8306C47.2837 71.8306 47.3892 71.8424 46.9086 71.0687C46.4514 70.3302 46.7093 69.3691 47.4712 68.9236C47.9049 68.6775 47.9753 68.6657 53.9768 68.6657C59.4157 68.6657 60.1073 68.6892 60.4707 68.865Z" fill="#F6C358"/>
<path d="M43.8848 35.3993C40.8957 38.3884 38.3756 40.9789 38.2701 41.1664C37.8246 42.0104 38.4107 43.0185 39.4305 43.1709C39.7118 43.206 42.021 43.2295 44.5647 43.206C48.7259 43.1709 49.2417 43.1474 49.6637 42.9599C50.2615 42.6903 50.7303 42.2448 51.0468 41.647C51.293 41.1899 51.3047 41.0492 51.3399 36.1495C51.3633 32.4923 51.3399 31.0153 51.2344 30.7809C51.0234 30.2651 50.5428 29.9838 49.8864 29.9838H49.3237L43.8848 35.3993Z" fill="#F6C358"/>
<path d="M82.0741 58.6202C82.0741 82.5913 82.121 81.0557 81.4177 82.3217C80.9957 83.0601 80.0814 83.9627 79.3781 84.3144C78.0535 84.9825 78.8506 84.9591 61.2445 84.9591H45.0332V86.0492C45.0332 86.7408 45.1035 87.3503 45.2208 87.6902C45.4552 88.3935 46.1468 89.1672 46.8618 89.5306L47.4362 89.8236L65.8394 89.8588C81.9452 89.8822 84.3012 89.8588 84.8405 89.7064C85.6375 89.472 86.5284 88.6866 86.8918 87.8661L87.1731 87.2448V63.3323C87.1731 40.0411 87.1614 39.4081 86.9504 38.8338C86.8214 38.5173 86.4932 38.0015 86.2002 37.6967C85.4734 36.9114 84.7467 36.6652 83.2463 36.6652H82.0741V58.6202Z" fill="#FADB9B"/>
<defs>
<linearGradient id="paint0_linear_1_312" x1="35.3728" y1="43.3294" x2="97.7412" y2="5.55121" gradientUnits="userSpaceOnUse">
<stop stop-color="#FEE927"/>
<stop offset="0.3" stop-color="#FEE927"/>
<stop offset="0.571564" stop-color="#FEE927"/>
<stop offset="1" stop-color="#F89C0E"/>
</linearGradient>
<linearGradient id="paint1_linear_1_312" x1="28.0401" y1="48.682" x2="94.5979" y2="8.36628" gradientUnits="userSpaceOnUse">
<stop stop-color="#FEE927"/>
<stop offset="0.3" stop-color="#FEE927"/>
<stop offset="0.571564" stop-color="#FEE927"/>
<stop offset="1" stop-color="#F89C0E"/>
</linearGradient>
<linearGradient id="paint2_linear_1_312" x1="111.678" y1="18.2121" x2="87.213" y2="94.1846" gradientUnits="userSpaceOnUse">
<stop stop-color="#1082CE"/>
<stop offset="0.3" stop-color="#1082CE"/>
<stop offset="0.573113" stop-color="#1082CE"/>
<stop offset="1" stop-color="#2744A0"/>
</linearGradient>
<linearGradient id="paint3_linear_1_312" x1="13.0564" y1="112.659" x2="13.0564" y2="17.3921" gradientUnits="userSpaceOnUse">
<stop stop-color="#80C428"/>
<stop offset="0.3" stop-color="#80C428"/>
<stop offset="0.573113" stop-color="#80C428"/>
<stop offset="1" stop-color="#43803C"/>
</linearGradient>
<linearGradient id="paint4_linear_1_312" x1="20.6999" y1="102.98" x2="20.6999" y2="18.2287" gradientUnits="userSpaceOnUse">
<stop stop-color="#80C428"/>
<stop offset="0.3" stop-color="#80C428"/>
<stop offset="0.573113" stop-color="#80C428"/>
<stop offset="1" stop-color="#43803C"/>
</linearGradient>
<linearGradient id="paint5_linear_1_312" x1="89.2229" y1="29.9392" x2="112.952" y2="104.273" gradientUnits="userSpaceOnUse">
<stop stop-color="#1082CE"/>
<stop offset="0.3" stop-color="#1082CE"/>
<stop offset="0.573113" stop-color="#1082CE"/>
<stop offset="1" stop-color="#2744A0"/>
</linearGradient>
<linearGradient id="paint6_linear_1_312" x1="8.29965" y1="99.8606" x2="101.505" y2="96.8736" gradientUnits="userSpaceOnUse">
<stop stop-color="#1C63B7"/>
<stop offset="0.428436" stop-color="#68BCEB"/>
<stop offset="0.7" stop-color="#68BCEB"/>
<stop offset="1" stop-color="#68BCEB"/>
</linearGradient>
<linearGradient id="paint7_linear_1_312" x1="15.2635" y1="98.7538" x2="102.809" y2="98.7538" gradientUnits="userSpaceOnUse">
<stop stop-color="#1C63B7"/>
<stop offset="0.428436" stop-color="#68BCEB"/>
<stop offset="0.7" stop-color="#68BCEB"/>
<stop offset="1" stop-color="#68BCEB"/>
</linearGradient>
<clipPath id="clip0_1_312">
<rect width="125.07" height="120" fill="white"/>
</clipPath>
</defs>
</svg>
