<svg width="33" height="43" viewBox="0 0 33 43" fill="none" xmlns="http://www.w3.org/2000/svg">
<path d="M15.899 3.99687C16.0504 3.8528 16.2532 3.77217 16.4643 3.77196C16.6293 3.772 16.7905 3.82016 16.9274 3.91032C17.0643 4.00047 17.1706 4.1285 17.2329 4.27812C17.2952 4.42773 17.3106 4.59216 17.2771 4.75037C17.2436 4.90859 17.1628 5.05342 17.0449 5.16644C16.927 5.27946 16.7774 5.3555 16.6152 5.3849C16.453 5.4143 16.2855 5.39573 16.1341 5.33151C15.9827 5.2673 15.8543 5.16039 15.7653 5.02439C15.6762 4.88839 15.6305 4.72947 15.634 4.56792C15.648 4.35222 15.7422 4.149 15.899 3.99687ZM16.4996 6.45403C16.7668 6.47918 17.0364 6.44933 17.2911 6.36643C17.5458 6.28352 17.78 6.14937 17.9787 5.97259C18.1773 5.79581 18.3361 5.58032 18.4447 5.33991C18.5533 5.0995 18.6094 4.83949 18.6094 4.57658C18.6094 4.31368 18.5533 4.05367 18.4447 3.81326C18.3361 3.57284 18.1773 3.35731 17.9787 3.18052C17.78 3.00374 17.5458 2.8696 17.2911 2.78669C17.0364 2.70378 16.7668 2.67393 16.4996 2.69908C16.2514 2.70134 16.006 2.75148 15.7776 2.84662C15.5491 2.94177 15.342 3.08007 15.1682 3.25361C14.9943 3.42714 14.857 3.63253 14.7641 3.85804C14.6713 4.08355 14.6247 4.32478 14.627 4.56792C14.6268 5.05929 14.8224 5.5313 15.1722 5.88356C15.5219 6.23582 15.9982 6.44051 16.4996 6.45403Z" fill="#007BC4"/>
<path d="M12.896 14.362L12.1187 13.6006L8.10853 17.5112L6.3066 15.7463L5.5293 16.5076L8.10853 19.034L12.896 14.362Z" fill="#007BC4"/>
<path d="M27.5057 15.5908H15.9521V16.6637H27.5057V15.5908Z" fill="#007BC4"/>
<path d="M12.896 20.8161L12.1187 20.0547L8.10853 23.9654L6.3066 22.2004L5.5293 22.9617L8.10853 25.4881L12.896 20.8161Z" fill="#007BC4"/>
<path d="M27.5057 22.0449H15.9521V23.1178H27.5057V22.0449Z" fill="#007BC4"/>
<path d="M12.896 27.2536L12.1187 26.4922L8.10853 30.4029L6.3066 28.6379L5.5293 29.3992L8.10853 31.9256L12.896 27.2536Z" fill="#007BC4"/>
<path d="M27.5057 28.4824H15.9521V29.5553H27.5057V28.4824Z" fill="#007BC4"/>
<path d="M12.896 33.7077L12.1187 32.9463L8.10853 36.8569L6.3066 35.092L5.5293 35.8533L8.10853 38.3797L12.896 33.7077Z" fill="#007BC4"/>
<path d="M27.5057 34.9365H15.9521V36.0094H27.5057V34.9365Z" fill="#007BC4"/>
<path d="M30.8095 41.9791H2.19065C1.90016 41.9791 1.62157 41.8661 1.41616 41.6649C1.21076 41.4637 1.09537 41.1908 1.09537 40.9063V5.90067C1.09537 5.61613 1.21076 5.34329 1.41616 5.14209C1.62157 4.9409 1.90016 4.82784 2.19065 4.82784H8.21474V10.2094H24.7147V4.82784H30.7742C31.0647 4.82784 31.3432 4.9409 31.5486 5.14209C31.7541 5.34329 31.8695 5.61613 31.8695 5.90067V40.8371C31.879 40.9808 31.8589 41.125 31.8104 41.2609C31.7618 41.3969 31.6858 41.5219 31.5869 41.6285C31.488 41.735 31.3682 41.821 31.2346 41.8812C31.1011 41.9415 30.9565 41.9748 30.8095 41.9791ZM9.34536 4.82784H11.5536V2.68218C11.5536 2.25538 11.7267 1.84603 12.0348 1.54424C12.3429 1.24245 12.7608 1.07289 13.1965 1.07289H19.8036C20.2393 1.07289 20.6572 1.24245 20.9653 1.54424C21.2734 1.84603 21.4465 2.25538 21.4465 2.68218V4.82784H23.6548V9.10188H9.34536V4.82784ZM33.0001 5.90067C32.9955 5.333 32.7632 4.78985 32.3534 4.38843C31.9435 3.98701 31.389 3.75953 30.8095 3.75501H22.5418V2.68218C22.5442 2.32932 22.475 1.97952 22.3382 1.65308C22.2014 1.32663 21.9998 1.03001 21.7451 0.780492C21.4903 0.530978 21.1875 0.333535 20.8543 0.199562C20.521 0.065588 20.1639 -0.0022423 19.8036 5.65342e-05H13.1965C12.8355 -0.00222526 12.4775 0.065479 12.1432 0.199245C11.809 0.333011 11.505 0.530206 11.2489 0.779489C10.9928 1.02877 10.7895 1.32522 10.6508 1.65176C10.5121 1.9783 10.4406 2.3285 10.4406 2.68218V3.75501H2.19065C1.60967 3.75501 1.05249 3.98107 0.64168 4.38347C0.230867 4.78586 7.12337e-05 5.3316 7.12337e-05 5.90067V40.8371C-0.00226073 41.1203 0.0526847 41.4012 0.161727 41.6635C0.270769 41.9258 0.431753 42.1645 0.6354 42.3655C0.839046 42.5666 1.08132 42.7262 1.34825 42.8351C1.61519 42.944 1.90149 43.0001 2.19065 43.0001H30.8095C31.3828 42.9821 31.9265 42.7463 32.3255 42.3426C32.7244 41.9389 32.9474 41.399 32.9471 40.8371L33.0001 5.90067Z" fill="#007BC4"/>
</svg>
