<svg width="24" height="24" viewBox="0 0 24 24" fill="none" xmlns="http://www.w3.org/2000/svg">
<path d="M17.6925 13.7694H16.0235C15.8787 13.7694 15.7437 13.8423 15.6643 13.9633C15.5849 14.0843 15.5717 14.2372 15.6293 14.3699C15.7117 14.5603 15.7474 14.7636 15.7352 14.9741C15.697 15.6349 15.1706 16.1677 14.5107 16.2133C14.1389 16.2388 13.7849 16.1141 13.5142 15.8614C13.2432 15.6085 13.094 15.2652 13.094 14.8948C13.094 14.7123 13.1304 14.5357 13.2023 14.3699C13.2598 14.2371 13.2466 14.0842 13.1672 13.9632C13.0878 13.8422 12.9527 13.7694 12.808 13.7694H10.2303V12.1789C10.36 12.1946 10.4918 12.1987 10.6252 12.191C11.7167 12.1279 12.5967 11.2581 12.6721 10.1679C12.7145 9.55575 12.5082 8.97254 12.0913 8.52575C11.6801 8.08514 11.0988 7.83245 10.4964 7.83245C10.4068 7.83245 10.318 7.83777 10.2302 7.84843V5.82812C10.2302 5.59081 10.0379 5.39844 9.80056 5.39844H2.33839C1.60045 5.39844 1.00004 5.9988 1.00004 6.73679V13.2903C1.00004 13.6407 1.13544 13.9601 1.35664 14.199C1.13539 14.4379 1 14.7572 1 15.1077V21.6612C1 22.3992 1.6004 22.9996 2.33835 22.9996H17.6925C18.4304 22.9996 19.0308 22.3992 19.0308 21.6612V15.1077C19.0308 14.3715 18.4319 13.7711 17.6925 13.7694ZM1.85942 6.73687C1.85942 6.47279 2.07426 6.2579 2.33839 6.2579H9.37091V8.40591C9.37091 8.55067 9.44379 8.68568 9.56479 8.76513C9.68583 8.84457 9.83867 8.85772 9.97149 8.80014C10.1372 8.7283 10.3138 8.69191 10.4964 8.69191C10.8668 8.69191 11.2101 8.84114 11.463 9.11214C11.7156 9.38284 11.8406 9.73673 11.8148 10.1086C11.7691 10.7685 11.2364 11.2949 10.5756 11.3331C10.365 11.3452 10.1618 11.3096 9.97149 11.2271C9.83867 11.1696 9.68583 11.1828 9.56479 11.2622C9.44379 11.3416 9.37091 11.4766 9.37091 11.6214V13.7694H7.22291C7.07814 13.7694 6.94314 13.8423 6.86369 13.9633C6.78424 14.0843 6.77109 14.2372 6.82867 14.3699C6.90051 14.5357 6.93695 14.7123 6.93695 14.8948C6.93695 15.2653 6.78772 15.6085 6.51672 15.8615C6.24601 16.1141 5.89182 16.2389 5.52027 16.2133C4.8604 16.1677 4.33399 15.6349 4.29579 14.9742C4.28363 14.7636 4.31925 14.5603 4.40175 14.37C4.45933 14.2372 4.44614 14.0843 4.36669 13.9633C4.28724 13.8423 4.15223 13.7694 4.00751 13.7694H2.33998C2.33942 13.7694 2.33891 13.7694 2.33835 13.7694C2.338 13.7694 2.33762 13.7694 2.33727 13.7694C2.07366 13.7688 1.85942 13.5542 1.85942 13.2905V6.73687ZM9.37087 22.1402H2.33835C2.07422 22.1402 1.85938 21.9254 1.85938 21.6612V15.1077C1.85938 14.844 2.07366 14.6293 2.33727 14.6287H2.33839H3.44982C3.43409 14.7584 3.43005 14.8902 3.43775 15.0237C3.50091 16.1152 4.37064 16.9951 5.46084 17.0706C5.51335 17.0743 5.5656 17.076 5.61759 17.076C6.17198 17.076 6.69452 16.8709 7.10298 16.4897C7.54358 16.0785 7.79628 15.4972 7.79628 14.8948C7.79628 14.8052 7.79095 14.7164 7.7803 14.6287H9.37087V16.7766C9.37087 16.9214 9.44375 17.0564 9.56475 17.1358C9.68575 17.2153 9.83863 17.2285 9.9714 17.1709C10.1618 17.0884 10.3649 17.0529 10.5756 17.065C11.2364 17.1032 11.7691 17.6296 11.8148 18.2894C11.8405 18.6613 11.7156 19.0152 11.463 19.2859C11.2101 19.5569 10.8668 19.7061 10.4964 19.7061C10.3138 19.7061 10.1372 19.6697 9.9714 19.5979C9.83867 19.5404 9.68579 19.5535 9.56475 19.633C9.44375 19.7124 9.37087 19.8474 9.37087 19.9921V22.1402ZM18.1715 21.6612C18.1715 21.9254 17.9566 22.1402 17.6925 22.1402H10.2302V20.5496C10.318 20.5603 10.4068 20.5656 10.4964 20.5656C11.0988 20.5656 11.6801 20.3129 12.0913 19.8723C12.5082 19.4255 12.7145 18.8423 12.6722 18.2302C12.5967 17.14 11.7167 16.2702 10.6253 16.2071C10.4918 16.1993 10.36 16.2034 10.2303 16.2191V14.6287H12.2507C12.24 14.7164 12.2347 14.8052 12.2347 14.8948C12.2347 15.4972 12.4874 16.0785 12.928 16.4897C13.3748 16.9066 13.9579 17.1131 14.5701 17.0706C15.6603 16.9951 16.5301 16.1151 16.5932 15.0237C16.601 14.8901 16.5969 14.7584 16.5812 14.6287H17.6938C17.9572 14.6293 18.1716 14.8442 18.1716 15.1077V21.6612H18.1715Z" fill="#007BC4" stroke="#007BC4" stroke-width="0.5"/>
<path d="M21.6614 1H14.1992C13.9619 1 13.7695 1.19237 13.7695 1.42969V4.00734C13.7695 4.1521 13.8424 4.28711 13.9634 4.36652C14.0844 4.44592 14.2372 4.45911 14.3701 4.40158C14.5358 4.32978 14.7124 4.29334 14.895 4.29334C15.2654 4.29334 15.6087 4.44257 15.8616 4.71357C16.1142 4.98428 16.2392 5.33821 16.2134 5.71006C16.1677 6.36989 15.635 6.8963 14.9742 6.93454C14.7636 6.94679 14.5605 6.91108 14.3701 6.82862C14.2373 6.77118 14.0844 6.78432 13.9634 6.86373C13.8424 6.94318 13.7695 7.07819 13.7695 7.22291V9.80056C13.7695 10.0379 13.9619 10.2302 14.1992 10.2302H16.2195C16.2089 10.318 16.2035 10.4068 16.2035 10.4964C16.2035 11.0988 16.4562 11.6801 16.8968 12.0913C17.3053 12.4725 17.8278 12.6776 18.3822 12.6776C18.4342 12.6776 18.4865 12.6758 18.539 12.6722C19.6292 12.5967 20.4989 11.7167 20.562 10.6253C20.5698 10.4918 20.5657 10.36 20.55 10.2303H21.6614C22.3994 10.2303 22.9998 9.62989 22.9998 8.89194V7.66815C22.9998 7.43083 22.8074 7.23846 22.5701 7.23846C22.3328 7.23846 22.1404 7.43083 22.1404 7.66815V8.89194C22.1404 9.15607 21.9256 9.37091 21.6614 9.37091H19.9924C19.8476 9.37091 19.7126 9.44379 19.6332 9.56479C19.5538 9.68579 19.5406 9.83867 19.5982 9.97145C19.6806 10.1618 19.7163 10.3651 19.7041 10.5756C19.6659 11.2364 19.1395 11.7692 18.4796 11.8148C18.1079 11.8403 17.7539 11.7156 17.4831 11.463C17.2121 11.2101 17.0629 10.8668 17.0629 10.4964C17.0629 10.3138 17.0994 10.1372 17.1712 9.97145C17.2287 9.83863 17.2155 9.68579 17.1361 9.56479C17.0566 9.44379 16.9216 9.37091 16.7769 9.37091H14.6289V7.78047C14.7585 7.7962 14.8904 7.80019 15.0238 7.7925C16.1153 7.72938 16.9953 6.85965 17.0707 5.76945C17.1131 5.15727 16.9068 4.5741 16.4898 4.12731C16.0787 3.68671 15.4973 3.43401 14.8949 3.43401C14.8053 3.43401 14.7166 3.43938 14.6289 3.44999V1.85938H21.6614C21.9256 1.85938 22.1404 2.07426 22.1404 2.33835V3.78322C22.1404 4.02053 22.3328 4.2129 22.5701 4.2129C22.8074 4.2129 22.9998 4.02053 22.9998 3.78322V2.33835C22.9998 1.6004 22.3994 1 21.6614 1V1Z" fill="#007BC4" stroke="#007BC4" stroke-width="0.5"/>
<path d="M22.9273 5.49504C22.8263 5.34091 22.6287 5.2704 22.4523 5.3208C22.2817 5.36953 22.1573 5.52189 22.1421 5.69845C22.1268 5.87673 22.2302 6.05122 22.3929 6.12496C22.5543 6.19809 22.7487 6.16234 22.874 6.0373C23.0174 5.89426 23.0394 5.66322 22.9273 5.49504Z" fill="#007BC4" stroke="#007BC4" stroke-width="0.5"/>
</svg>
