<svg width="33" height="33" viewBox="0 0 33 33" fill="none" xmlns="http://www.w3.org/2000/svg">
<path d="M20.1167 19.083H19.5484C19.3346 19.0834 19.1434 18.9501 19.07 18.7493C19.0069 18.5839 18.9393 18.4222 18.8664 18.262C18.7759 18.0673 18.8172 17.8366 18.9697 17.6854L19.3748 17.2799C19.9761 16.6732 19.975 15.6949 19.3722 15.0897L17.9121 13.6296C17.3061 13.0272 16.3274 13.0272 15.7214 13.6296L15.3164 14.0342C15.1649 14.1861 14.9346 14.2274 14.7398 14.1375C14.5796 14.0646 14.4179 13.997 14.252 13.9308C14.0502 13.8579 13.9159 13.666 13.9167 13.4513V12.883C13.9167 12.027 13.2228 11.333 12.3667 11.333H10.3C9.44398 11.333 8.75003 12.027 8.75003 12.883V13.4513C8.75042 13.6651 8.61705 13.8564 8.41626 13.9298C8.25093 13.9928 8.08921 14.0605 7.92904 14.1334C7.7342 14.2234 7.50389 14.1822 7.35244 14.03L6.94686 13.6249C6.34093 13.0229 5.36262 13.0229 4.7567 13.6249L3.29659 15.0897C2.69416 15.6957 2.69416 16.6744 3.29659 17.2804L3.70114 17.6854C3.85369 17.8366 3.89502 18.0673 3.80448 18.262C3.73163 18.4222 3.66394 18.5839 3.60039 18.7498C3.52645 18.9517 3.3334 19.0852 3.11834 19.083H2.55001C1.69395 19.083 1 19.777 1 20.633V22.6997C1 23.5558 1.69395 24.2497 2.55001 24.2497H3.11834C3.33211 24.2493 3.52335 24.3827 3.59678 24.5835C3.65981 24.7488 3.72749 24.9105 3.80034 25.0707C3.89089 25.2655 3.84956 25.4961 3.69701 25.6473L3.29194 26.0529C2.68989 26.6588 2.68989 27.6371 3.29194 28.243L4.75205 29.7032C5.35804 30.3056 6.33674 30.3056 6.94272 29.7032L7.34779 29.2986C7.4993 29.1466 7.72955 29.1054 7.92439 29.1953C8.08456 29.2681 8.24628 29.3358 8.41213 29.4019C8.61499 29.474 8.75042 29.6661 8.75003 29.8814V30.4497C8.75003 31.3058 9.44398 31.9997 10.3 31.9997H12.3667C13.2228 31.9997 13.9167 31.3058 13.9167 30.4497V29.8814C13.9163 29.6676 14.0497 29.4764 14.2505 29.403C14.4158 29.3399 14.5775 29.2723 14.7377 29.1994C14.9326 29.1093 15.1629 29.1506 15.3143 29.3027L15.7199 29.7078C16.3267 30.3089 17.3047 30.3077 17.91 29.7052L19.3702 28.2451C19.9726 27.6391 19.9726 26.6604 19.3702 26.0544L18.9656 25.6494C18.8131 25.4982 18.7717 25.2676 18.8623 25.0728C18.9351 24.9126 19.0028 24.7509 19.0689 24.585C19.1419 24.3832 19.3338 24.2489 19.5484 24.2497H20.1167C20.9728 24.2497 21.6667 23.5558 21.6667 22.6997V20.633C21.6667 19.777 20.9728 19.083 20.1167 19.083ZM20.6334 22.6997C20.6334 22.985 20.4021 23.2164 20.1167 23.2164H19.5484C18.9061 23.2188 18.3313 23.6158 18.1017 24.2156C18.047 24.3603 17.9877 24.5027 17.924 24.6429C17.6584 25.2293 17.7816 25.9188 18.234 26.3768L18.638 26.7814C18.8399 26.983 18.8401 27.3102 18.6384 27.5121C18.6383 27.5122 18.6382 27.5124 18.638 27.5125L17.1779 28.9726C16.9762 29.1743 16.6491 29.1743 16.4474 28.9726L16.0423 28.568C15.5845 28.1152 14.8947 27.9919 14.3084 28.258C14.1683 28.3216 14.0257 28.381 13.8821 28.4358C13.2827 28.6653 12.886 29.2396 12.8834 29.8814V30.4497C12.8834 30.7351 12.652 30.9664 12.3667 30.9664H10.3C10.0147 30.9664 9.78337 30.7351 9.78337 30.4497V29.8814C9.78098 29.2391 9.38398 28.6643 8.78413 28.4347C8.63946 28.38 8.49706 28.3207 8.35685 28.257C7.77043 27.9915 7.081 28.1148 6.62291 28.567L6.21835 28.971C6.01672 29.1729 5.68954 29.1731 5.48766 28.9714C5.48753 28.9713 5.4874 28.9712 5.48727 28.971L4.02716 27.5125C3.82547 27.3107 3.82547 26.9837 4.02716 26.7819L4.43171 26.3768C4.88412 25.9188 5.00735 25.2293 4.74171 24.6429C4.67816 24.5029 4.61875 24.3603 4.56398 24.2167C4.33497 23.6166 3.76056 23.2192 3.11834 23.2164H2.55001C2.26468 23.2164 2.03334 22.985 2.03334 22.6997V20.633C2.03334 20.3477 2.26468 20.1164 2.55001 20.1164H3.11834C3.76063 20.114 4.33542 19.717 4.56501 19.1171C4.61978 18.9725 4.679 18.8301 4.74275 18.6898C5.00838 18.1034 4.88509 17.4139 4.43275 16.9559L4.02664 16.5514C3.82476 16.3497 3.82456 16.0225 4.02626 15.8207C4.02639 15.8205 4.02652 15.8204 4.02664 15.8203L5.48675 14.3602C5.68851 14.1585 6.01556 14.1585 6.21732 14.3602L6.62239 14.7647C7.08022 15.2175 7.76997 15.3408 8.35633 15.0747C8.49635 15.0112 8.63895 14.9518 8.78258 14.897C9.38282 14.6682 9.78046 14.0937 9.78337 13.4513V12.883C9.78337 12.5977 10.0147 12.3663 10.3 12.3663H12.3667C12.652 12.3663 12.8834 12.5977 12.8834 12.883V13.4513C12.8858 14.0936 13.2828 14.6684 13.8826 14.898C14.0273 14.9528 14.1697 15.012 14.3099 15.0758C14.8963 15.3418 15.586 15.2185 16.0438 14.7658L16.4484 14.3617C16.6509 14.1614 16.9769 14.1614 17.1795 14.3617L18.6396 15.8218C18.8413 16.0236 18.8413 16.3506 18.6396 16.5524L18.235 16.9575C17.7827 17.4155 17.6594 18.105 17.925 18.6914C17.9886 18.8314 18.048 18.974 18.1028 19.1177C18.3323 19.7171 18.9066 20.1138 19.5484 20.1164H20.1167C20.4021 20.1164 20.6334 20.3477 20.6334 20.633V22.6997Z" fill="#007BC4" stroke="#007BC4" stroke-width="0.8"/>
<path d="M15.973 21.46C15.9679 21.336 15.9591 21.2125 15.9441 21.0895C15.9276 20.9572 15.9079 20.826 15.8806 20.6974C15.8625 20.6131 15.8387 20.53 15.816 20.4462C15.787 20.3398 15.7545 20.2349 15.7183 20.1316C15.693 20.0598 15.6667 19.9885 15.6398 19.9177C15.5733 19.7522 15.4972 19.5907 15.4119 19.4341C15.4052 19.4222 15.4011 19.4093 15.3944 19.3974C15.26 19.1582 15.1043 18.9314 14.9294 18.7201C14.9144 18.7015 14.8973 18.6839 14.8818 18.6658C14.8105 18.5816 14.7372 18.5 14.6602 18.4219C14.6199 18.3801 14.5775 18.3408 14.5352 18.3005C14.4835 18.2525 14.4318 18.2049 14.3802 18.1595C14.3174 18.105 14.2536 18.0523 14.1885 18.0014L14.1037 17.9383C13.3043 17.3395 12.3322 17.0161 11.3334 17.0166C11.2817 17.0166 11.23 17.0244 11.1784 17.0264C11.0683 17.0295 10.9577 17.0357 10.8467 17.0471C10.7883 17.0533 10.7294 17.06 10.671 17.0683C10.5026 17.0904 10.3354 17.1217 10.1703 17.1618C7.68252 17.8047 6.18689 20.3427 6.82975 22.8305C7.25342 24.4699 8.53424 25.7497 10.174 26.172C10.1822 26.172 10.191 26.1746 10.1998 26.1766C10.3782 26.2211 10.559 26.2557 10.7413 26.28C10.8616 26.2949 10.982 26.298 11.1029 26.3037C11.1835 26.3079 11.2579 26.3197 11.3421 26.3197C11.4894 26.3197 11.6423 26.3099 11.7984 26.2944C11.8149 26.2944 11.8314 26.2898 11.85 26.2877C11.9756 26.2738 12.1027 26.2552 12.2324 26.2293C12.284 26.2195 12.3321 26.2066 12.3817 26.1952C12.4726 26.174 12.563 26.1518 12.656 26.1244C12.7284 26.1027 12.7986 26.0774 12.8694 26.0526C12.9402 26.0278 13.0136 26.001 13.0869 25.9731C13.1603 25.9452 13.2218 25.9131 13.2884 25.8821C13.3752 25.8423 13.4615 25.8031 13.5468 25.7566H13.5499C14.0321 25.4984 14.4774 25.1768 14.8741 24.8002C14.9812 24.7002 15.0744 24.5862 15.151 24.4613C15.5543 23.8148 15.8192 23.0918 15.9291 22.3378C15.9436 22.2381 15.9565 22.1383 15.9643 22.0366C15.9715 21.943 15.9767 21.85 15.9787 21.757C15.9787 21.7276 15.9829 21.6997 15.9829 21.6702C15.9834 21.5974 15.9761 21.5302 15.973 21.46ZM14.9433 21.7984C14.9433 21.8413 14.9397 21.8841 14.9371 21.9265C14.9278 22.0515 14.9118 22.1766 14.8906 22.3021C14.6975 23.3763 14.0306 24.3063 13.0751 24.8338C13.011 24.8674 12.948 24.8989 12.8849 24.9278L12.842 24.9485C12.5418 25.0848 12.225 25.1807 11.8996 25.2337C11.8769 25.2373 11.8536 25.2415 11.8304 25.2446C11.7658 25.2539 11.7023 25.2616 11.6392 25.2673C11.556 25.2745 11.4723 25.2787 11.3871 25.2802C11.3509 25.2802 11.3153 25.2802 11.2791 25.2802C11.1569 25.2788 11.0348 25.2712 10.9133 25.2575L10.8513 25.2502C10.7092 25.2316 10.5683 25.2051 10.4292 25.1707C8.49414 24.6754 7.32698 22.7052 7.82221 20.7701C8.14946 19.4915 9.14727 18.4927 10.4256 18.1641V18.1636C10.7224 18.0888 11.0272 18.0505 11.3334 18.0499C11.4811 18.0508 11.6286 18.0608 11.7751 18.0799C11.8144 18.0846 11.8531 18.0918 11.8919 18.0975C12.0035 18.115 12.114 18.1373 12.2231 18.1652C12.2587 18.1745 12.2944 18.1827 12.3295 18.1925C12.6042 18.2718 12.8687 18.3832 13.1174 18.5242C13.1572 18.5475 13.196 18.5718 13.2352 18.5961C13.3169 18.6477 13.3959 18.6994 13.4739 18.7583C13.5158 18.7888 13.5581 18.8187 13.5984 18.8513C13.6998 18.9323 13.7969 19.0185 13.8893 19.1096C13.926 19.1468 13.9596 19.1876 13.9952 19.2264C14.0547 19.291 14.1125 19.3571 14.1678 19.4269C14.206 19.4749 14.2427 19.5245 14.2789 19.5746C14.3306 19.649 14.3822 19.7265 14.4287 19.8051C14.4546 19.8479 14.4804 19.8898 14.5067 19.9337C14.5734 20.0564 14.6327 20.1828 14.6845 20.3124C14.7051 20.3641 14.7227 20.4158 14.7413 20.4674C14.7749 20.5625 14.8038 20.6586 14.8291 20.7557C14.8421 20.8074 14.8565 20.8534 14.8674 20.9035C14.8975 21.0431 14.9194 21.1844 14.933 21.3267C14.9361 21.3644 14.9361 21.4026 14.9387 21.4403C14.9459 21.5592 14.948 21.6785 14.9433 21.7984Z" fill="#007BC4" stroke="#007BC4" stroke-width="0.8"/>
<path d="M30.4497 11.85H28.8248C28.6081 11.8522 28.4143 11.7158 28.3433 11.5111C28.183 11.0312 27.9892 10.5631 27.763 10.1104C27.6671 9.91492 27.7071 9.6799 27.8622 9.5271L29.0144 8.37338C29.6192 7.76817 29.6192 6.7874 29.0144 6.18219L26.8175 3.98893C26.2123 3.38417 25.2316 3.38417 24.6264 3.98893L23.4747 5.14007C23.3221 5.2952 23.0874 5.33537 22.8919 5.23978C22.4392 5.01251 21.9709 4.8176 21.4907 4.65646C21.2852 4.58613 21.1478 4.39212 21.1497 4.17493V2.55001C21.1497 1.69395 20.4557 1 19.5997 1H16.4997C15.6436 1 14.9497 1.69395 14.9497 2.55001V4.17493C14.9519 4.39161 14.8155 4.58542 14.6107 4.65646C14.1307 4.81754 13.6626 5.01232 13.21 5.23927C13.0145 5.33556 12.7794 5.29558 12.6267 5.14007L11.473 3.9879C10.8671 3.38488 9.88773 3.38488 9.28181 3.9879L7.08907 6.18064C6.48398 6.78591 6.48398 7.76707 7.08907 8.37235L8.78322 10.0696C8.98815 10.2681 9.31526 10.263 9.51379 10.058C9.70748 9.85803 9.70793 9.54053 9.51483 9.34007L7.81964 7.64333C7.61794 7.44157 7.61794 7.11452 7.81964 6.91276L10.0124 4.72001C10.2141 4.51832 10.5412 4.51832 10.7429 4.72001L11.8972 5.87219C12.3642 6.34197 13.0798 6.45938 13.6725 6.16359C14.0817 5.95866 14.5049 5.78274 14.9388 5.6371C15.5651 5.42507 15.9857 4.8362 15.983 4.17493V2.55001C15.983 2.26468 16.2143 2.03334 16.4997 2.03334H19.5997C19.885 2.03334 20.1164 2.26468 20.1164 2.55001V4.17493C20.1137 4.83607 20.5343 5.42475 21.1605 5.63658C21.5947 5.78229 22.018 5.95834 22.4274 6.16359C23.0202 6.45783 23.7348 6.34029 24.2022 5.87167L25.3564 4.72001C25.5582 4.51832 25.8852 4.51832 26.087 4.72001L28.2797 6.91327C28.4811 7.11497 28.4811 7.44163 28.2797 7.64333L27.1275 8.79756C26.6582 9.26483 26.5409 9.98009 26.8361 10.5728C27.0411 10.9821 27.217 11.4053 27.3626 11.8392C27.5745 12.4657 28.1635 12.8862 28.8248 12.8834H30.4497C30.7351 12.8834 30.9664 13.1147 30.9664 13.4V16.5001C30.9664 16.7854 30.7351 17.0167 30.4497 17.0167H28.8248C28.1637 17.0141 27.575 17.4346 27.3631 18.0609C27.2175 18.495 27.0414 18.9184 26.8361 19.3278C26.5414 19.9205 26.659 20.6354 27.1281 21.1025L28.2802 22.2568C28.4819 22.4585 28.4819 22.7856 28.2802 22.9874L26.0865 25.1801C25.8848 25.3815 25.5581 25.3815 25.3564 25.1801L23.6586 23.4859C23.4601 23.2809 23.133 23.2758 22.9281 23.4743C22.7231 23.6728 22.7179 24 22.9164 24.2049C22.9206 24.2091 22.9248 24.2134 22.9291 24.2175L24.6264 25.9117C25.2316 26.5165 26.2123 26.5165 26.8175 25.9117L29.0103 23.7195C29.6154 23.1142 29.6154 22.133 29.0103 21.5278L27.8597 20.3751C27.7047 20.2224 27.6646 19.9878 27.7599 19.7923C27.9872 19.3395 28.1821 18.8713 28.3433 18.3911C28.4136 18.1856 28.6076 18.0481 28.8248 18.0501H30.4497C31.3058 18.0501 31.9997 17.3561 31.9997 16.5001V13.4C31.9997 12.544 31.3058 11.85 30.4497 11.85Z" fill="#007BC4" stroke="#007BC4" stroke-width="0.8"/>
<path d="M22.7992 10.2006C20.1747 7.58156 15.9253 7.58156 13.3008 10.2006C13.1026 10.4059 13.1083 10.733 13.3135 10.9312C13.5137 11.1246 13.8311 11.1246 14.0313 10.9312C16.2359 8.69686 19.8343 8.67277 22.0686 10.8773C24.303 13.0819 24.3271 16.6803 22.1225 18.9146C22.1047 18.9327 22.0867 18.9507 22.0686 18.9685C21.8634 19.1668 21.8577 19.4938 22.056 19.6991C22.2543 19.9043 22.5813 19.91 22.7866 19.7117C22.7908 19.7076 22.7951 19.7033 22.7992 19.6991C25.4183 17.0745 25.4183 12.8252 22.7992 10.2006Z" fill="#007BC4" stroke="#007BC4" stroke-width="0.8"/>
</svg>
