<svg width="29" height="28" viewBox="0 0 29 28" fill="none" xmlns="http://www.w3.org/2000/svg">
<path d="M27.194 20.0797C27.194 20.2964 27.1074 20.5043 26.9532 20.6576C26.799 20.8109 26.5898 20.897 26.3716 20.897H3.36418C3.14607 20.897 2.93687 20.8109 2.78264 20.6576C2.62841 20.5043 2.54182 20.2964 2.54182 20.0797V2.56586C2.54182 2.34909 2.62841 2.14124 2.78264 1.98797C2.93687 1.83469 3.14607 1.74858 3.36418 1.74858H26.3716C26.5898 1.74858 26.799 1.83469 26.9532 1.98797C27.1074 2.14124 27.194 2.34909 27.194 2.56586V20.0797ZM17.4036 24.7111C17.5218 25.3081 17.769 25.8724 18.1281 26.3652H11.686C12.043 25.8689 12.2961 25.3064 12.4301 24.7111L12.8608 22.5316H16.9729L17.4036 24.7111ZM26.4108 0.0361108H3.36418C2.71325 0.0412452 2.09068 0.30183 1.63222 0.761101C1.17376 1.22037 0.916562 1.84107 0.916582 2.488V20.0018C0.913998 20.3229 0.975438 20.6413 1.09728 20.9387C1.21913 21.236 1.39894 21.5065 1.62648 21.7345C1.85402 21.9624 2.12479 22.1433 2.42303 22.2667C2.72127 22.3902 3.04111 22.4538 3.36418 22.4537H11.1965L10.8441 24.3025C10.7242 24.8502 10.4205 25.3411 9.98287 25.6947C9.54523 26.0483 8.99967 26.2436 8.43567 26.2484H6.20343C5.98531 26.2484 5.77611 26.3345 5.62188 26.4878C5.46765 26.6411 5.38095 26.8489 5.38095 27.0657C5.38095 27.2825 5.46765 27.4904 5.62188 27.6437C5.77611 27.7969 5.98531 27.883 6.20343 27.883H23.6499C23.868 27.883 24.0772 27.7969 24.2314 27.6437C24.3857 27.4904 24.4722 27.2825 24.4722 27.0657C24.4722 26.8489 24.3857 26.6411 24.2314 26.4878C24.0772 26.3345 23.868 26.2484 23.6499 26.2484H21.4176C20.8551 26.2463 20.3104 26.0516 19.8753 25.6972C19.4403 25.3428 19.1413 24.8502 19.0288 24.3025L18.6568 22.4537H26.4891C26.8122 22.4538 27.132 22.3902 27.4303 22.2667C27.7285 22.1433 27.9993 21.9624 28.2268 21.7345C28.4544 21.5065 28.6342 21.236 28.756 20.9387C28.8779 20.6413 28.9393 20.3229 28.9367 20.0018V2.488C28.937 2.15766 28.8701 1.83072 28.74 1.52671C28.6099 1.22271 28.4194 0.947939 28.1799 0.718937C27.9403 0.489935 27.6566 0.311417 27.3459 0.194079C27.0352 0.0767407 26.7038 0.0230017 26.3716 0.0361108H26.4108Z" fill="#007BC4"/>
<path d="M14.8778 9.31874C15.6254 9.32532 16.3439 9.60771 16.8939 10.1111C17.4439 10.6146 17.7861 11.3031 17.8541 12.0431H11.8818C11.9501 11.2998 12.2951 10.6085 12.8492 10.1047C13.4033 9.60077 14.1267 9.3205 14.8778 9.31874ZM13.5071 6.32192C13.5071 6.0525 13.5875 5.78916 13.7381 5.56515C13.8887 5.34114 14.1028 5.16656 14.3532 5.06346C14.6037 4.96036 14.8792 4.9334 15.1451 4.98596C15.411 5.03852 15.6553 5.16822 15.847 5.35873C16.0387 5.54923 16.1691 5.79192 16.222 6.05616C16.2749 6.3204 16.2478 6.59431 16.1441 6.84321C16.0404 7.09212 15.8647 7.30486 15.6393 7.45454C15.4139 7.60422 15.1488 7.68413 14.8778 7.68413C14.5142 7.68413 14.1656 7.54063 13.9085 7.28517C13.6515 7.02971 13.5071 6.68319 13.5071 6.32192ZM11.0595 13.6972H18.6568C18.7665 13.6972 18.8751 13.6755 18.9762 13.6332C19.0772 13.5909 19.1688 13.5289 19.2454 13.451C19.322 13.373 19.3821 13.2806 19.4223 13.1792C19.4625 13.0777 19.4818 12.9694 19.4792 12.8604V12.3156C19.4777 11.4933 19.258 10.686 18.8419 9.97532C18.4259 9.26459 17.8285 8.67559 17.11 8.26789C17.5902 7.73216 17.8551 7.03941 17.8541 6.32192C17.8617 5.83452 17.7496 5.35263 17.5274 4.91802C17.3053 4.48341 16.9799 4.10921 16.5794 3.82786C16.1788 3.54652 15.7153 3.36651 15.2289 3.30348C14.7425 3.24045 14.2479 3.29628 13.7882 3.46614C13.3284 3.63599 12.9174 3.91478 12.5905 4.27825C12.2637 4.64172 12.031 5.07892 11.9127 5.55197C11.7943 6.02503 11.7938 6.51965 11.9112 6.99293C12.0287 7.4662 12.2607 7.90382 12.5868 8.26789C11.8684 8.67559 11.2709 9.26459 10.8549 9.97532C10.4389 10.686 10.219 11.4933 10.2175 12.3156V12.8604C10.2148 12.971 10.2347 13.0811 10.2761 13.1838C10.3174 13.2865 10.3794 13.3798 10.4581 13.458C10.5368 13.5363 10.6308 13.5978 10.7342 13.6389C10.8375 13.68 10.9482 13.6999 11.0595 13.6972Z" fill="#007BC4"/>
<path d="M24.6878 16.5379H9.68877V16.246C9.68877 16.0292 9.60218 15.8214 9.44795 15.6681C9.29373 15.5148 9.08452 15.4287 8.86641 15.4287C8.75931 15.4287 8.6533 15.4499 8.5546 15.4912C8.4559 15.5326 8.36649 15.5931 8.29168 15.6692C8.21687 15.7454 8.15816 15.8356 8.11898 15.9347C8.07981 16.0337 8.06104 16.1396 8.06365 16.246V16.5379H5.06772C4.95899 16.5352 4.85081 16.5545 4.74982 16.5946C4.64883 16.6348 4.55711 16.6949 4.4802 16.7713C4.40329 16.8478 4.34287 16.939 4.30249 17.0393C4.26211 17.1397 4.24268 17.2471 4.24536 17.3552C4.24536 17.572 4.33195 17.7799 4.48618 17.9332C4.64041 18.0864 4.84961 18.1725 5.06772 18.1725H8.06365V18.4449C8.06104 18.5513 8.07981 18.6572 8.11898 18.7563C8.15816 18.8553 8.21687 18.9455 8.29168 19.0217C8.36649 19.0979 8.4559 19.1584 8.5546 19.1997C8.6533 19.2411 8.75931 19.2623 8.86641 19.2623C8.97441 19.2623 9.08131 19.2411 9.18108 19.2C9.28086 19.159 9.37159 19.0988 9.44795 19.0229C9.52432 18.947 9.58482 18.8569 9.62615 18.7577C9.66748 18.6586 9.68877 18.5523 9.68877 18.4449V18.1725H24.6878C24.7948 18.1726 24.9009 18.1513 24.9996 18.1099C25.0983 18.0686 25.1877 18.0081 25.2625 17.932C25.3373 17.8558 25.396 17.7656 25.4352 17.6665C25.4744 17.5675 25.4931 17.4616 25.4905 17.3552C25.4931 17.2488 25.4744 17.143 25.4352 17.0439C25.396 16.9448 25.3373 16.8546 25.2625 16.7784C25.1877 16.7023 25.0983 16.6417 24.9996 16.6004C24.9009 16.5591 24.7948 16.5378 24.6878 16.5379Z" fill="#007BC4"/>
</svg>
