<svg width="149" height="293" viewBox="0 0 149 293" fill="none" xmlns="http://www.w3.org/2000/svg">
<g clip-path="url(#clip0_2438_43741)">
<path fill-rule="evenodd" clip-rule="evenodd" d="M78.4082 273.845L78.3816 283.091H65.4597L64.3696 274.323L78.4082 273.845Z" fill="white"/>
<path fill-rule="evenodd" clip-rule="evenodd" d="M65.8857 282.771H78.1429V274.216L64.8488 274.668L65.8857 282.771ZM78.781 283.435H65.3007L64.1309 274.057L78.8076 273.552L78.781 283.435Z" fill="black"/>
<path fill-rule="evenodd" clip-rule="evenodd" d="M79.2593 281.841C79.2593 281.841 97.8711 287.792 98.589 292.681H65.0879V281.841H79.2593Z" fill="black"/>
<path fill-rule="evenodd" clip-rule="evenodd" d="M34.0591 274.031L33.6868 283.409H20.632L20.0205 273.845L34.0591 274.031Z" fill="white"/>
<path fill-rule="evenodd" clip-rule="evenodd" d="M21.0575 283.09H33.421L33.7666 274.402L20.4726 274.216L21.0575 283.09ZM34.0857 283.754H20.446L19.7812 273.552L34.4579 273.764L34.0857 283.754Z" fill="black"/>
<path fill-rule="evenodd" clip-rule="evenodd" d="M34.5915 282.16C34.5915 282.16 53.2031 288.085 53.921 293H20.4199V282.16H34.5915Z" fill="black"/>
<path fill-rule="evenodd" clip-rule="evenodd" d="M43.8177 275.756H17.6549L15.8735 110.286L75.4044 120.568L89.5759 275.756H61.3925L50.385 166.134L51.2624 150.033L43.8177 275.756Z" fill="white"/>
<path fill-rule="evenodd" clip-rule="evenodd" d="M61.9238 275.439H89.5488L75.3774 120.968L16.2985 110.872L18.0533 275.598H43.7109L51.129 150.194H51.7937L50.9162 166.268L61.9238 275.439ZM90.2933 276.103H61.3122V275.811L50.677 169.961L44.3756 276.103H17.4152V275.784L15.6338 109.995L75.9889 120.384V120.623L90.2933 276.103Z" fill="black"/>
<path fill-rule="evenodd" clip-rule="evenodd" d="M24.5678 137.281H24.7539L37.2504 128.566C37.3027 128.508 37.3316 128.432 37.3316 128.354C37.3316 128.275 37.3027 128.199 37.2504 128.141C37.1962 128.091 37.1249 128.062 37.0509 128.062C36.9769 128.062 36.9057 128.091 36.8515 128.141L24.2753 136.988C24.2249 137.043 24.1968 137.114 24.1968 137.188C24.1968 137.262 24.2249 137.333 24.2753 137.387C24.3013 137.4 24.3298 137.408 24.3589 137.41C24.388 137.412 24.4172 137.407 24.4447 137.397C24.4721 137.387 24.4972 137.372 24.5184 137.352C24.5396 137.332 24.5563 137.308 24.5678 137.281Z" fill="#F6C358"/>
<path fill-rule="evenodd" clip-rule="evenodd" d="M54.426 29.3323C54.426 29.3323 53.0168 44.1576 54.2133 45.7783C56.649 47.6891 59.3321 49.2621 62.1897 50.4544L50.8631 84.1436L26.5084 81.7789L24.9131 56.6981C24.9131 56.6981 36.0801 47.585 36.7448 45.7252C37.6754 43.0683 37.6754 29.3057 37.6754 29.3057L54.426 29.3323Z" fill="white"/>
<path fill-rule="evenodd" clip-rule="evenodd" d="M50.863 84.4884L25.8435 82.0972L24.2217 56.5912H24.3546C27.4388 54.0937 35.6014 47.2124 36.1331 45.7511C36.8101 40.3407 37.1122 34.89 37.0371 29.438C37.0371 29.3534 37.0707 29.2723 37.1306 29.2125C37.1904 29.1527 37.2716 29.1191 37.3562 29.1191C37.397 29.119 37.4373 29.1273 37.4746 29.1436C37.512 29.1599 37.5455 29.1839 37.573 29.2139C37.6006 29.2439 37.6215 29.2794 37.6345 29.318C37.6476 29.3565 37.6524 29.3974 37.6487 29.438C37.6487 29.9959 37.6487 43.36 36.6915 45.9637C36.0268 47.8767 26.455 55.6613 24.8332 56.9631L26.4018 81.6455L50.3312 83.957L61.6578 50.7195C58.7874 49.5644 56.1004 47.9982 53.6813 46.07C52.5646 44.5822 53.6813 30.9258 53.8408 29.4114C53.8528 29.3336 53.8909 29.2623 53.9489 29.2091C54.0069 29.156 54.0813 29.1243 54.1599 29.1191C54.2372 29.1374 54.3058 29.1818 54.3542 29.2447C54.4026 29.3076 54.4279 29.3852 54.4258 29.4645C53.8674 35.3894 53.3091 44.5821 54.1599 45.7246C56.5835 47.6185 59.2706 49.149 62.1363 50.2678H62.3756L50.863 84.4884Z" fill="black"/>
<path fill-rule="evenodd" clip-rule="evenodd" d="M121.641 58.3177C117.839 60.4432 103.029 76.1985 103.029 76.1985L113.665 81.2997C113.665 81.2997 122.279 65.0928 123.795 64.8802C126.666 64.5082 135.36 64.7473 138.179 62.861C142.433 60.0181 144.613 56.3782 144.081 55.2092C143.816 54.5981 136.477 59.0351 134.882 59.0351C130.362 59.221 124.3 56.8033 121.641 58.3177Z" fill="white"/>
<path fill-rule="evenodd" clip-rule="evenodd" d="M103.454 76.1728L113.478 80.9551C114.01 79.9986 115.898 76.5447 117.865 73.1174C122.651 64.8545 123.449 64.7482 123.768 64.7217C124.924 64.5804 126.086 64.5006 127.251 64.4825C131.08 64.2966 136.078 64.0575 138.046 62.7556C142.14 60.0987 144.108 56.7245 143.922 55.6617C142.62 56.1376 141.35 56.6967 140.119 57.3356C138.459 58.3154 136.669 59.0576 134.802 59.5407C132.772 59.5313 130.749 59.3087 128.766 58.8765C126.446 58.1398 123.961 58.0937 121.614 58.7437C118.344 60.4972 105.528 73.8613 103.454 76.1728ZM113.744 81.7522L102.417 76.4385L102.71 76.1462C103.321 75.5085 117.679 60.3909 121.322 58.292C123.777 57.5679 126.39 57.5679 128.846 58.292C130.797 58.698 132.782 58.9203 134.775 58.9562C136.538 58.4388 138.233 57.7165 139.827 56.8041C142.486 55.4491 143.656 54.9178 144.108 55.0772C144.204 55.1266 144.287 55.1998 144.347 55.2898C144.959 56.6714 142.433 60.4707 138.285 63.2604C136.184 64.6685 130.973 64.9076 127.198 65.1733C126.051 65.1691 124.905 65.2401 123.768 65.3859C122.97 65.5187 118.025 73.7816 113.771 81.5928L113.744 81.7522Z" fill="black"/>
<path fill-rule="evenodd" clip-rule="evenodd" d="M65.8856 49.2051C73.2771 51.862 71.5755 91.3166 71.5755 91.3166C72.772 95.913 75.6169 120.755 75.6169 120.755L23.9295 131.037L17.8408 100.084C17.8408 100.084 14.0388 47.9564 34.2724 44.9807C36.1867 44.6885 42.2487 47.4516 48.497 46.8937C51.1558 46.628 52.6713 49.8959 54.0273 45.0869C53.9476 44.9541 64.2903 48.6206 65.8856 49.2051Z" fill="white"/>
<path fill-rule="evenodd" clip-rule="evenodd" d="M44.269 51.3039L48.2573 46.5215L51.6871 50.9319L50.4641 53.3496L55.4361 78.8291L54.1067 97.5335L46.529 77.7663L47.1672 53.7216L44.269 51.3039Z" fill="#F6C358"/>
<path fill-rule="evenodd" clip-rule="evenodd" d="M46.8744 77.6863L54.0266 96.2845L55.2763 78.7491L50.3308 53.2963L51.5007 50.9316L48.3367 46.9463L44.6942 51.3036L47.486 53.6682L46.8744 77.6863ZM54.3457 98.5162L46.3692 77.766L46.9808 53.8542L44.0029 51.3301L48.3367 46.1758L52.1389 50.9316L50.8626 53.4025L55.808 78.7491L54.3457 98.5162Z" fill="black"/>
<path fill-rule="evenodd" clip-rule="evenodd" d="M54.3993 97.427L58.9724 45.6445C62.3491 45.6445 76.8397 54.7576 76.8397 54.7576C82.6454 64.4215 87.8918 74.41 92.5533 84.674C92.9255 85.6305 110.447 66.4213 110.341 67.5371C110.341 67.5371 120.684 70.6988 120.604 72.5055C120.524 74.3122 104.651 105.052 92.766 110.579C90.5858 111.615 78.1691 103.671 77.531 91.9804L81.0672 139.937H54.2397L54.3993 97.427Z" fill="black"/>
<path fill-rule="evenodd" clip-rule="evenodd" d="M54.7181 97.6675L54.532 139.938H80.7478L77.2914 92.7523V92.1147H77.903V92.7523C78.4111 96.1692 79.6715 99.431 81.5933 102.302C83.5152 105.174 86.0506 107.584 89.0168 109.358C90.9312 110.5 92.234 110.766 92.686 110.58C98.8544 107.657 105.98 97.9067 110.872 90.2283C114.592 84.715 117.779 78.8613 120.391 72.746C120.391 71.763 115.233 69.5843 110.367 68.0965C109.596 68.6279 105.98 72.321 102.736 75.6155C94.946 83.5861 93.1379 85.3397 92.553 85.26C92.4416 85.21 92.3486 85.1263 92.2871 85.0208C87.6525 74.8376 82.4691 64.913 76.7596 55.2904C76.6267 55.2904 63.0136 46.7087 59.2913 46.257L54.7181 97.6675ZM53.9204 140.603L54.1065 97.6409L58.6797 45.5928H58.9721C62.3223 45.5928 75.6695 53.9088 76.9458 54.7059C77.1319 54.7059 77.4243 55.0513 79.3387 58.3989C80.6149 60.6573 82.2368 63.7127 83.9118 66.7681C85.8262 70.4611 90.6653 79.5211 92.7657 84.5691C93.8824 83.8518 98.7215 78.8568 102.284 75.1638C109.702 67.5651 110.075 67.1932 110.473 67.5652C111.005 67.7246 113.292 68.4419 115.552 69.3187C120.364 71.2317 120.869 72.2147 120.869 72.7726C118.299 79.0087 115.11 84.9721 111.351 90.5737C106.405 98.3052 99.2 108.162 92.8987 111.138C91.8351 111.669 89.6018 110.447 88.6978 109.916C83.8277 106.946 80.0858 102.44 78.0625 97.1096L81.253 140.576L53.9204 140.603Z" fill="black"/>
<path fill-rule="evenodd" clip-rule="evenodd" d="M35.4423 43.6797L54.373 97.4283C54.373 101.706 55.5163 118.949 54.373 137.281L54.2135 140.31H17.3357L16.219 137.653C16.219 137.653 4.14795 129.337 4.14795 105.771C4.14795 79.335 5.61028 70.3813 9.11992 57.1235C9.6251 55.2105 28.5293 43.6797 35.4423 43.6797Z" fill="black"/>
<path fill-rule="evenodd" clip-rule="evenodd" d="M17.5213 139.937H53.8674L54.0535 137.28C54.9575 122.668 54.4257 108.905 54.0535 101.519C54.0535 99.8186 54.0534 98.4636 53.9205 97.6931L35.1227 43.9711C30.8951 44.1039 23.1048 48.1955 19.9142 49.9491C16.011 51.7954 12.4221 54.243 9.27897 57.2023C5.90228 69.9021 4.307 78.8293 4.307 105.823C4.0386 114.439 6.1056 122.967 10.2893 130.505C11.8021 133.214 13.8245 135.605 16.2451 137.546L17.5213 139.937ZM54.4788 140.522H17.1225L15.9526 137.865C13.5052 135.887 11.457 133.461 9.91714 130.718C5.65612 123.1 3.55125 114.466 3.82843 105.743C3.82843 78.6699 5.42371 69.7161 8.80041 56.9632C9.38534 54.8377 28.5288 43.2803 35.3886 43.2803H35.6013V43.4929L54.6916 97.4274C54.6916 98.251 54.6915 99.6326 54.8245 101.36C55.0904 108.772 55.5956 122.615 54.6916 137.201L54.4788 140.522Z" fill="black"/>
<path fill-rule="evenodd" clip-rule="evenodd" d="M45.9709 0.63726C49.0817 0.63726 56.6061 0.318442 57.324 5.7916C57.9615 11.9692 58.1925 18.1819 58.0153 24.3897C57.9961 25.2183 57.6793 26.0123 57.1228 26.6268C56.5664 27.2414 55.8073 27.6355 54.9842 27.7373L36.1332 30.1551C35.2733 30.2829 34.3969 30.0798 33.6812 29.5865C32.9655 29.0933 32.464 28.3469 32.278 27.4982C30.8954 21.7328 28.0239 9.69718 28.4493 7.75766C30.0446 1.3546 41.0521 0.770104 45.9709 0.63726Z" fill="black"/>
<path fill-rule="evenodd" clip-rule="evenodd" d="M38.1806 33.9807C37.0373 33.0774 36.0802 28.9592 35.3623 24.2565C35.3565 24.1898 35.3339 24.1256 35.2967 24.0699C35.2596 24.0142 35.209 23.9687 35.1495 23.9377C34.2356 23.6065 33.4264 23.0382 32.8049 22.2911C32.1835 21.5441 31.7722 20.6451 31.6134 19.6867C31.4007 17.6675 32.9162 17.8801 34.2722 18.4115C34.3123 18.4238 34.3545 18.428 34.3963 18.424C34.4381 18.4199 34.4787 18.4076 34.5158 18.3879C34.5528 18.3681 34.5856 18.3413 34.6122 18.3089C34.6389 18.2765 34.6588 18.239 34.671 18.1989V18.0661C34.0329 12.3538 33.7138 7.30568 33.7138 7.30568L55.8617 4.46289C55.8617 4.46289 56.4732 9.56405 56.9784 15.3029C56.9784 15.542 57.8027 29.2515 57.457 30.4736C57.1985 31.2353 56.7168 31.9018 56.0744 32.3866C56.0744 32.3866 54.7982 33.7416 46.742 34.7512L38.1806 33.9807Z" fill="white"/>
<path fill-rule="evenodd" clip-rule="evenodd" d="M46.7154 35.0711C46.6783 35.0748 46.6408 35.0707 46.6054 35.059C46.57 35.0473 46.5375 35.0284 46.5099 35.0033C46.4824 34.9783 46.4603 34.9477 46.4453 34.9136C46.4304 34.8795 46.4227 34.8426 46.4229 34.8054C46.415 34.7319 46.4353 34.6581 46.4798 34.599C46.5242 34.5398 46.5894 34.4996 46.6622 34.4866C54.3994 33.477 55.8085 32.2017 55.8351 32.2017C56.4326 31.764 56.8788 31.1511 57.1114 30.4482C57.457 29.2526 56.686 15.915 56.6328 15.304C56.1808 10.4684 55.6756 6.03146 55.5427 4.83587L34.0329 7.62563C34.0329 8.76809 34.4317 13.1785 34.99 18.0405C34.9995 18.15 34.9828 18.26 34.9412 18.3617C34.8995 18.4634 34.8342 18.5536 34.7507 18.625C34.6569 18.6762 34.5518 18.703 34.445 18.703C34.3381 18.703 34.2329 18.6762 34.1392 18.625C33.2618 18.2797 32.5971 18.1999 32.2514 18.439C31.9058 18.6782 31.9058 18.9971 31.959 19.5816C32.1267 20.4849 32.5259 21.3293 33.1178 22.0325C33.7096 22.7356 34.4738 23.2734 35.3357 23.5934C35.4415 23.6413 35.5335 23.7152 35.6032 23.8081C35.6729 23.901 35.718 24.0099 35.7345 24.1248C36.798 31.0592 37.7818 33.1316 38.3933 33.6099C38.4437 33.664 38.4718 33.7351 38.4718 33.8091C38.4718 33.883 38.4437 33.9543 38.3933 34.0084C38.3683 34.0366 38.3377 34.0593 38.3033 34.0748C38.2689 34.0903 38.2316 34.0983 38.1938 34.0983C38.1561 34.0983 38.1188 34.0903 38.0845 34.0748C38.0501 34.0593 38.0194 34.0366 37.9945 34.0084C36.931 33.1582 35.9738 29.9434 35.0964 24.1514C34.122 23.8055 33.2569 23.2078 32.589 22.419C31.9211 21.6303 31.4743 20.6787 31.2943 19.6613C31.2228 19.3543 31.2318 19.0341 31.3203 18.7316C31.4087 18.4291 31.5737 18.1544 31.7994 17.9342C32.3046 17.5623 33.1288 17.6155 34.2455 18.0671C33.634 12.3814 33.2884 7.43963 33.2884 7.43963V7.09423L56.0479 4.19824V4.43735C56.0479 4.43735 56.6593 9.59168 57.1645 15.2243C57.1645 15.3571 58.0154 29.1728 57.6165 30.5544C57.3577 31.3664 56.8451 32.0741 56.1541 32.5736C55.9414 32.7596 54.2399 34.0615 46.6622 35.018L46.7154 35.0711Z" fill="black"/>
<path fill-rule="evenodd" clip-rule="evenodd" d="M29.9116 46.3091L35.9471 41.7393L48.417 46.6545L44.4288 51.304L29.9116 46.3091Z" fill="white"/>
<path fill-rule="evenodd" clip-rule="evenodd" d="M62.1365 46.7874L57.9356 42.377L48.417 46.6279L52.0064 50.9852L62.1365 46.7874Z" fill="white"/>
<path fill-rule="evenodd" clip-rule="evenodd" d="M57.7763 42.8808L61.5783 46.7333L52.0863 50.5857L48.8958 46.813L57.7763 42.8808ZM44.296 50.8514L30.6032 46.1488L35.9208 42.0041L47.7525 46.7067L44.296 50.8514ZM62.5356 46.8661L57.9358 42.0838L48.3374 46.255L35.9208 41.3398L29.3535 46.3347L44.5353 51.6484L48.3374 47.1583L51.8471 51.3031L62.5356 46.8661Z" fill="black"/>
<path fill-rule="evenodd" clip-rule="evenodd" d="M11.5127 120.808L44.2693 135.181L33.1023 157.791L0.877441 143.311L11.5127 120.808Z" fill="white"/>
<path fill-rule="evenodd" clip-rule="evenodd" d="M1.30322 143.366L33.209 157.819L44.1368 135.395L11.8322 121.048L1.30322 143.366ZM33.209 158.457H33.0229L0.532227 143.711V143.499L11.1675 120.517L44.3761 135.262V135.475L33.209 158.457Z" fill="#1D1D1B"/>
<path fill-rule="evenodd" clip-rule="evenodd" d="M19.9405 131.143C20.9707 136.753 23.0547 142.117 26.0824 146.952C28.1686 149.877 30.0095 152.969 31.5862 156.198C31.8521 157.154 27.1459 154.843 26.9066 154.79L26.6408 156.543C26.6408 156.543 25.7102 157.446 24.8594 157.101C24.0086 156.756 23.8224 155.666 23.1577 155.533C22.5207 155.587 21.8804 155.587 21.2433 155.533C20.6584 155.401 20.2331 154.232 19.8076 153.86C19.3822 153.488 18.3985 154.046 17.8933 153.727C17.3881 153.408 17.3881 152.106 16.8298 151.814C16.2714 151.522 15.5269 152.212 14.6229 151.548C13.7189 150.884 17.2817 145.73 17.2817 144.561C17.0424 140.442 0.398259 117.567 8.64059 101.838C12.4427 94.7708 18.1857 116.026 19.9405 131.143Z" fill="white"/>
<path fill-rule="evenodd" clip-rule="evenodd" d="M23.2643 155.242C23.7016 155.416 24.0734 155.723 24.3279 156.119C24.511 156.408 24.7563 156.653 25.0458 156.836C25.4978 157.022 26.1093 156.65 26.4017 156.411L26.7209 154.498H26.9335L27.5185 154.764C28.6801 155.352 29.9011 155.815 31.161 156.145C29.6156 153.015 27.8381 150.004 25.8434 147.138C22.8 142.263 20.7155 136.853 19.7015 131.197C18.1594 117.913 13.7458 101.307 10.5818 100.696C10.0766 100.696 9.57143 101.015 9.11943 101.918C6.46061 106.94 6.16821 113.343 8.18891 120.968C9.91264 126.906 12.2285 132.656 15.1018 138.132C16.2642 140.122 17.1582 142.257 17.7606 144.482C17.5192 145.609 17.0683 146.682 16.4312 147.643C15.8196 148.812 14.7296 150.911 14.9689 151.23C15.1303 151.351 15.3185 151.431 15.5176 151.463C15.7167 151.496 15.9207 151.48 16.1121 151.416C16.4452 151.284 16.816 151.284 17.1491 151.416C17.4429 151.688 17.6311 152.055 17.6808 152.452C17.711 152.821 17.8825 153.163 18.1595 153.409C18.4645 153.489 18.7849 153.489 19.09 153.409C19.4326 153.372 19.779 153.417 20.1003 153.541C20.3383 153.752 20.5364 154.004 20.6853 154.285C20.898 154.604 21.1905 155.082 21.4298 155.136C21.898 155.189 22.3707 155.189 22.8389 155.136L23.2643 155.242ZM25.418 157.5C25.243 157.54 25.0613 157.54 24.8863 157.5C24.4867 157.288 24.1481 156.977 23.9024 156.597C23.7427 156.319 23.5015 156.096 23.2112 155.959H23.0251C22.4769 156.012 21.9248 156.012 21.3766 155.959C20.9246 155.826 20.6055 155.348 20.2599 154.843C20.1426 154.624 19.9998 154.419 19.8344 154.232H19.2495C18.8275 154.378 18.3687 154.378 17.9467 154.232C17.7326 154.073 17.5554 153.869 17.4269 153.636C17.2985 153.402 17.2219 153.143 17.2022 152.877C17.1727 152.632 17.071 152.401 16.9098 152.213C16.8174 152.174 16.7178 152.153 16.6173 152.153C16.5168 152.153 16.4173 152.174 16.3249 152.213C16.0459 152.292 15.7525 152.307 15.467 152.257C15.1814 152.206 14.9111 152.091 14.6764 151.921C14.0383 151.416 14.6764 150.008 15.9792 147.59C16.5333 146.696 16.9626 145.731 17.2554 144.721C16.6311 142.58 15.7377 140.526 14.5966 138.61C11.7219 133.129 9.38889 127.38 7.6305 121.446C5.58321 113.635 5.90225 107.073 8.61425 101.892C9.22577 100.723 9.91709 100.192 10.7147 100.351C12.9481 100.776 15.0486 106.568 16.4312 111.377C18.2141 117.928 19.4853 124.608 20.2333 131.357C21.2507 136.908 23.3074 142.217 26.2954 147.006C28.383 149.963 30.2322 153.081 31.8257 156.331C31.8383 156.416 31.833 156.502 31.8101 156.584C31.7872 156.667 31.7472 156.743 31.6928 156.809C31.3472 157.102 30.5495 156.969 27.2792 155.508H27.1197L26.8804 156.995C26.4538 157.305 25.9447 157.481 25.418 157.5Z" fill="black"/>
<path fill-rule="evenodd" clip-rule="evenodd" d="M15.3944 143.152C11.3177 140.105 7.90953 136.256 5.38056 131.842C2.85159 127.427 1.25558 122.541 0.691202 117.486C-1.40926 100.004 6.16835 70.7783 6.16835 70.7783L21.3768 85.7896C21.3768 85.7896 17.9469 109.516 19.0902 115.015C20.2334 120.515 28.396 143.231 28.396 143.231L15.3944 143.152Z" fill="black"/>
<path fill-rule="evenodd" clip-rule="evenodd" d="M27.4388 140.602C27.4011 140.619 27.3603 140.628 27.3191 140.628C27.2778 140.628 27.2371 140.619 27.1995 140.602C27.1471 140.544 27.1182 140.468 27.1182 140.39C27.1182 140.311 27.1471 140.236 27.1995 140.177L41.2912 129.311C41.3497 129.258 41.4254 129.229 41.5039 129.229C41.5824 129.229 41.6581 129.258 41.7166 129.311C41.7662 129.376 41.793 129.455 41.793 129.536C41.793 129.618 41.7662 129.698 41.7166 129.762L27.6249 140.602C27.6249 140.602 27.5185 140.576 27.4388 140.602Z" fill="white"/>
<path fill-rule="evenodd" clip-rule="evenodd" d="M77.5842 138.052H77.4513L62.1099 130.082C62.0385 130.047 61.9825 129.987 61.953 129.913C61.9235 129.84 61.9226 129.758 61.9504 129.683C61.9895 129.616 62.0514 129.566 62.1248 129.542C62.1981 129.517 62.2779 129.52 62.3492 129.55L77.6905 137.521C77.7259 137.538 77.7575 137.562 77.7834 137.591C77.8094 137.62 77.8291 137.655 77.8415 137.692C77.8539 137.729 77.8588 137.769 77.8557 137.808C77.8526 137.847 77.8417 137.885 77.8235 137.919C77.7975 137.959 77.762 137.992 77.7203 138.016C77.6786 138.039 77.6319 138.051 77.5842 138.052Z" fill="white"/>
<path fill-rule="evenodd" clip-rule="evenodd" d="M51.0491 115.734C51.0492 116.067 50.9183 116.388 50.6847 116.626C50.4511 116.865 50.1333 117.002 49.7995 117.009C49.4585 117.009 49.1311 116.875 48.8875 116.637C48.6439 116.399 48.5035 116.074 48.4966 115.734C48.4966 115.395 48.6311 115.071 48.8704 114.832C49.1097 114.593 49.4344 114.458 49.7728 114.458C49.9414 114.455 50.109 114.485 50.2655 114.548C50.422 114.611 50.5641 114.705 50.6833 114.824C50.8026 114.943 50.8965 115.085 50.9594 115.241C51.0222 115.398 51.0527 115.565 51.0491 115.734Z" fill="white"/>
<path fill-rule="evenodd" clip-rule="evenodd" d="M28.7151 143.471H15.2083C12.711 141.742 10.4806 139.656 8.58788 137.281C4.06233 131.688 1.22206 124.925 0.398684 117.78C-1.70178 100.51 5.39727 71.1248 5.47703 70.8326C5.50129 70.7555 5.55183 70.6894 5.61984 70.6457C5.68785 70.602 5.76907 70.5835 5.8493 70.5934C5.8895 70.6056 5.92687 70.6255 5.95933 70.6521C5.99179 70.6788 6.01868 70.7116 6.03844 70.7486C6.0582 70.7857 6.07043 70.8262 6.07447 70.868C6.07851 70.9098 6.07427 70.9518 6.06197 70.992C6.06197 71.2576 -1.09025 100.536 0.983626 117.7C1.77972 124.718 4.54485 131.367 8.96007 136.882C10.8056 139.219 12.9614 141.292 15.3678 143.046H27.8377C26.7476 139.964 19.7283 120.197 18.6913 115.282C17.5215 109.968 20.8184 87.0661 20.9514 86.0565C20.9544 86.0155 20.9661 85.9755 20.9856 85.9393C21.0051 85.9031 21.0321 85.8715 21.0647 85.8464C21.0973 85.8213 21.1349 85.8033 21.1749 85.7938C21.2149 85.7842 21.2566 85.7832 21.297 85.7908C21.3398 85.7888 21.3824 85.7972 21.4212 85.8152C21.4601 85.8332 21.494 85.8603 21.5201 85.8942C21.5462 85.9281 21.5637 85.9678 21.5712 86.0099C21.5786 86.0521 21.5758 86.0954 21.5629 86.1362C21.5629 86.3487 18.1596 109.782 19.2763 115.096C20.393 120.41 28.4758 142.993 28.5555 143.206L28.7151 143.471Z" fill="white"/>
<path fill-rule="evenodd" clip-rule="evenodd" d="M39.9358 16.8172C40.1464 18.3613 40.6326 19.8552 41.3715 21.2276C43.1447 21.7037 45.0295 21.5342 46.6891 20.7494C47.0087 19.2485 47.116 17.7102 47.0082 16.1795L39.9358 16.8172ZM43.2327 22.2903C42.4285 22.3666 41.6188 22.2195 40.8929 21.8652C39.9889 21.2276 39.2179 17.6408 39.0317 16.5515V16.1264L47.8856 15.3027V15.7544C48.0734 17.5969 47.9385 19.4579 47.4868 21.2541C46.2309 22.0797 44.7279 22.4458 43.2327 22.2903Z" fill="black"/>
<path fill-rule="evenodd" clip-rule="evenodd" d="M50.9958 15.701C51.1534 17.1582 51.4745 18.5931 51.953 19.9786C52.4627 20.2327 53.0405 20.3165 53.6015 20.2177C54.4039 20.2169 55.1923 20.0062 55.8881 19.6066C56.2325 18.1723 56.3668 16.6957 56.2869 15.2228L50.9958 15.701ZM53.2026 21.0148C52.5345 21.0635 51.8694 20.8856 51.3149 20.51C50.6707 18.8658 50.259 17.14 50.0918 15.3822V15.0634L57.0845 14.4258V14.8774C57.1992 16.6691 57.0012 18.4672 56.4996 20.1912C55.6806 20.8076 54.6798 21.1347 53.6546 21.1211L53.2026 21.0148Z" fill="black"/>
<path fill-rule="evenodd" clip-rule="evenodd" d="M47.2734 17.2155C47.1984 17.2151 47.1253 17.192 47.0636 17.1493C47.0019 17.1067 46.9546 17.0464 46.9278 16.9764C46.9045 16.8833 46.9099 16.7854 46.9431 16.6954C46.9763 16.6053 47.0358 16.5274 47.1139 16.4716C48.272 15.9101 49.5945 15.7873 50.8362 16.1262C50.9235 16.1668 50.9931 16.2377 51.0322 16.3256C51.0713 16.4135 51.0773 16.5125 51.049 16.6044C51.0242 16.6924 50.9655 16.7671 50.8857 16.8119C50.806 16.8567 50.7117 16.8681 50.6236 16.8436C49.5445 16.568 48.4022 16.6906 47.4064 17.1889L47.2734 17.2155Z" fill="black"/>
<path fill-rule="evenodd" clip-rule="evenodd" d="M34.0325 9.11288C34.0325 9.11288 50.8628 11.5572 57.43 4.99467C63.9973 -1.5678 52.2985 -0.319082 45.4122 1.24847C38.5259 2.81603 28.7946 5.68551 34.0325 9.11288Z" fill="black"/>
<path fill-rule="evenodd" clip-rule="evenodd" d="M139.295 51.0114L128.341 44.7412H128.208L116.802 50.2409C116.771 50.2626 116.734 50.2743 116.695 50.2743C116.657 50.2743 116.62 50.2626 116.589 50.2409L119.248 37.8599L110.447 28.3483V28.1623L122.97 26.7807L128.926 15.6484C128.926 15.6484 128.926 15.6484 129.086 15.6484L134.403 27.0996L146.793 29.3579C146.819 29.3871 146.834 29.425 146.834 29.4642C146.834 29.5034 146.819 29.5412 146.793 29.5704L137.461 38.0725L139.162 50.5863C139.189 50.6155 139.203 50.6534 139.203 50.6926C139.203 50.7318 139.189 50.7697 139.162 50.7989L139.295 51.0114Z" fill="#F6C358"/>
<path fill-rule="evenodd" clip-rule="evenodd" d="M129.033 44.2909H129.219L140.013 50.4016L138.338 38.1535C138.313 38.1043 138.299 38.0496 138.299 37.9941C138.299 37.9386 138.313 37.8839 138.338 37.8347L147.538 29.4921L135.307 27.3134C135.191 27.271 135.096 27.1853 135.042 27.0743L129.91 15.8092L124.061 26.7024C123.989 26.8037 123.887 26.8784 123.768 26.9149L111.431 28.2433L120.019 37.1705C120.046 37.2289 120.059 37.2923 120.059 37.3565C120.059 37.4206 120.046 37.4839 120.019 37.5424L117.493 49.6312L128.687 44.3174L129.033 44.2909ZM140.2 51.0127H140.013L129.086 44.8223L117.759 50.2688C117.696 50.2959 117.628 50.3098 117.56 50.3098C117.491 50.3098 117.423 50.2959 117.36 50.2688C117.308 50.2181 117.268 50.1553 117.245 50.0859C117.222 50.0165 117.216 49.9425 117.227 49.8703L119.886 37.6221L111.192 28.5887C111.165 28.5258 111.151 28.458 111.151 28.3895C111.151 28.321 111.165 28.2532 111.192 28.1902C111.222 28.1273 111.266 28.0727 111.322 28.031C111.377 27.9893 111.442 27.9619 111.511 27.9511L124.007 26.5695L129.937 15.5435C129.979 15.4849 130.035 15.4375 130.1 15.4051C130.165 15.3728 130.236 15.3564 130.309 15.3575C130.379 15.363 130.447 15.3884 130.503 15.4308C130.56 15.4731 130.603 15.5307 130.628 15.5967L135.786 26.9946L148.176 29.2264C148.245 29.2387 148.309 29.2703 148.36 29.3172C148.412 29.3642 148.45 29.4248 148.468 29.4921C148.487 29.5602 148.484 29.6324 148.461 29.6989C148.437 29.7654 148.393 29.8231 148.336 29.8641L139.056 38.2863L140.758 50.6673C140.766 50.7444 140.753 50.8223 140.72 50.8925C140.688 50.9627 140.636 51.0227 140.572 51.0658C140.507 51.0914 140.435 51.0948 140.368 51.0756C140.3 51.0564 140.241 51.0157 140.2 50.9596V51.0127Z" fill="#1D1D1B"/>
<path fill-rule="evenodd" clip-rule="evenodd" d="M139.668 22.6363H139.508C139.485 22.614 139.466 22.5872 139.454 22.5575C139.441 22.5278 139.435 22.4959 139.435 22.4636C139.435 22.4313 139.441 22.3994 139.454 22.3697C139.466 22.34 139.485 22.3132 139.508 22.2909L147.963 13.4701C148.007 13.4309 148.064 13.4092 148.123 13.4092C148.182 13.4092 148.239 13.4309 148.282 13.4701C148.324 13.5182 148.346 13.5794 148.346 13.6428C148.346 13.7061 148.324 13.7674 148.282 13.8155L139.801 22.6363H139.668Z" fill="#1D1D1B"/>
<path fill-rule="evenodd" clip-rule="evenodd" d="M142.54 24.5491C142.495 24.5524 142.45 24.5412 142.412 24.5173C142.373 24.4935 142.344 24.458 142.327 24.4162C142.289 24.3768 142.269 24.3245 142.269 24.2701C142.269 24.2158 142.289 24.1635 142.327 24.124L148.548 21.4671C148.592 21.4279 148.649 21.4062 148.708 21.4062C148.767 21.4062 148.824 21.4279 148.867 21.4671C148.902 21.5131 148.921 21.5691 148.921 21.6265C148.921 21.684 148.902 21.74 148.867 21.786L142.672 24.4428L142.54 24.5491Z" fill="#1D1D1B"/>
<path fill-rule="evenodd" clip-rule="evenodd" d="M119.753 22.6363H119.567L111.112 13.8155C111.089 13.7931 111.07 13.7663 111.057 13.7366C111.045 13.707 111.038 13.675 111.038 13.6427C111.038 13.6105 111.045 13.5785 111.057 13.5489C111.07 13.5192 111.089 13.4924 111.112 13.47C111.128 13.4425 111.152 13.4198 111.18 13.404C111.208 13.3882 111.239 13.3799 111.271 13.3799C111.303 13.3799 111.335 13.3882 111.363 13.404C111.391 13.4198 111.414 13.4425 111.431 13.47L119.913 22.2909C119.954 22.339 119.976 22.4003 119.976 22.4636C119.976 22.5269 119.954 22.5882 119.913 22.6363H119.753Z" fill="#1D1D1B"/>
<path fill-rule="evenodd" clip-rule="evenodd" d="M116.881 24.5484L110.66 21.8915C110.63 21.8799 110.602 21.8622 110.579 21.8397C110.556 21.8172 110.538 21.7902 110.525 21.7604C110.513 21.7306 110.507 21.6986 110.507 21.6664C110.507 21.6341 110.514 21.6023 110.527 21.5727C110.573 21.5382 110.629 21.5195 110.686 21.5195C110.744 21.5195 110.8 21.5382 110.846 21.5727L117.068 24.2296C117.105 24.2691 117.126 24.3213 117.126 24.3757C117.126 24.4301 117.105 24.4823 117.068 24.5218C117.042 24.5423 117.011 24.5557 116.978 24.5603C116.945 24.565 116.912 24.5609 116.881 24.5484Z" fill="#1D1D1B"/>
</g>
<defs>
<clipPath id="clip0_2438_43741">
<rect width="149" height="293" fill="white"/>
</clipPath>
</defs>
</svg>
