<svg xmlns="http://www.w3.org/2000/svg" width="25" height="25" viewBox="0 0 25 25" fill="none"><g opacity="0.7"><path d="M2.44565 11.6848H0.815234C0.36499 11.6848 0 12.0499 0 12.5C0 12.9502 0.36499 13.3153 0.815234 13.3153H2.44565C2.89585 13.3153 3.26089 12.9503 3.26089 12.5C3.26089 12.0498 2.89585 11.6848 2.44565 11.6848Z" fill="white"/><path d="M24.1849 11.6848H22.5545C22.1043 11.6848 21.7393 12.0498 21.7393 12.5C21.7393 12.9503 22.1042 13.3153 22.5545 13.3153H24.1849C24.6351 13.3153 25.0002 12.9503 25.0002 12.5C25.0002 12.0498 24.6352 11.6848 24.1849 11.6848Z" fill="white"/><path d="M12.4998 21.739C12.0496 21.739 11.6846 22.104 11.6846 22.5543V24.1847C11.6846 24.6349 12.0496 24.9999 12.4998 24.9999C12.95 24.9999 13.315 24.6349 13.315 24.1847V22.5543C13.315 22.1041 12.95 21.739 12.4998 21.739Z" fill="white"/><path d="M12.4998 0C12.0496 0 11.6846 0.36499 11.6846 0.815234V2.44565C11.6846 2.89585 12.0496 3.26089 12.4998 3.26089C12.95 3.26089 13.315 2.8959 13.315 2.44565V0.815234C13.315 0.36499 12.95 0 12.4998 0Z" fill="white"/><path d="M19.0484 22.2118L18.2332 20.7998C18.0081 20.4099 17.5095 20.2763 17.1196 20.5015C16.7298 20.7266 16.5962 21.2251 16.8213 21.615L17.6365 23.027C17.8617 23.4171 18.3604 23.5504 18.7501 23.3254C19.14 23.1003 19.2735 22.6017 19.0484 22.2118Z" fill="white"/><path d="M8.17882 3.38515L7.36359 1.97318C7.13849 1.58329 6.63991 1.44965 6.25002 1.67479C5.86012 1.89989 5.72653 2.39848 5.95163 2.78837L6.76686 4.20033C6.99206 4.59042 7.49079 4.72377 7.88043 4.49872C8.27033 4.27362 8.40392 3.77504 8.17882 3.38515Z" fill="white"/><path d="M23.027 17.6365L21.615 16.8213C21.2251 16.5961 20.7265 16.7298 20.5014 17.1197C20.2763 17.5096 20.4099 18.0082 20.7998 18.2333L22.2118 19.0485C22.6015 19.2736 23.1002 19.1402 23.3254 18.7501C23.5505 18.3602 23.4169 17.8616 23.027 17.6365Z" fill="white"/><path d="M4.20031 6.76691L2.78835 5.95167C2.3984 5.72648 1.89982 5.86017 1.67477 6.25006C1.44967 6.63995 1.58327 7.13854 1.97316 7.36363L3.38512 8.17887C3.77482 8.40392 4.2735 8.27057 4.4987 7.88048C4.72375 7.49059 4.5902 6.992 4.20031 6.76691Z" fill="white"/><path d="M23.3254 6.25004C23.1003 5.86015 22.6017 5.7265 22.2118 5.95165L20.7998 6.76688C20.4099 6.99198 20.2763 7.49056 20.5014 7.88045C20.7266 8.27054 21.2254 8.40384 21.615 8.17884L23.027 7.36361C23.4169 7.13851 23.5505 6.63993 23.3254 6.25004Z" fill="white"/><path d="M4.4987 17.1196C4.27365 16.7298 3.77502 16.5962 3.38512 16.8213L1.97316 17.6365C1.58327 17.8616 1.44967 18.3602 1.67477 18.7501C1.89997 19.1402 2.3987 19.2735 2.78835 19.0485L4.20031 18.2332C4.59025 18.0081 4.72379 17.5095 4.4987 17.1196Z" fill="white"/><path d="M18.7501 1.67482C18.3601 1.44962 17.8616 1.58331 17.6365 1.9732L16.8213 3.38517C16.5962 3.77506 16.7298 4.27364 17.1196 4.49874C17.5093 4.72379 18.008 4.59049 18.2332 4.20035L19.0484 2.78839C19.2735 2.39855 19.14 1.89996 18.7501 1.67482Z" fill="white"/><path d="M7.88043 20.5015C7.49054 20.2763 6.99191 20.4099 6.76686 20.7999L5.95163 22.2118C5.72653 22.6017 5.86012 23.1003 6.25002 23.3254C6.63971 23.5505 7.13839 23.4171 7.36359 23.027L8.17882 21.6151C8.40392 21.2252 8.27033 20.7266 7.88043 20.5015Z" fill="white"/><path d="M12.4998 4.89136C8.30439 4.89136 4.89111 8.30464 4.89111 12.5C4.89111 16.6955 8.30439 20.1087 12.4998 20.1087C16.6952 20.1087 20.1085 16.6955 20.1085 12.5C20.1085 8.30464 16.6953 4.89136 12.4998 4.89136ZM12.4998 18.4783C9.20342 18.4783 6.52153 15.7965 6.52153 12.5C6.52153 9.20361 9.20342 6.52178 12.4998 6.52178C15.7962 6.52178 18.4781 9.20366 18.4781 12.5C18.4781 15.7964 15.7962 18.4783 12.4998 18.4783Z" fill="white"/><path d="M12.5001 8.1521C10.1027 8.1521 8.15234 10.1025 8.15234 12.4999C8.15234 12.9501 8.51733 13.3151 8.96758 13.3151C9.41777 13.3151 9.78281 12.9501 9.78281 12.4999C9.78281 11.0015 11.0019 9.78252 12.5002 9.78252C12.9504 9.78252 13.3154 9.41753 13.3154 8.96728C13.3154 8.51709 12.9503 8.1521 12.5001 8.1521Z" fill="white"/></g></svg>