<svg width="161" height="162" viewBox="0 0 161 162" fill="none" xmlns="http://www.w3.org/2000/svg">
<path opacity="0.8" fill-rule="evenodd" clip-rule="evenodd" d="M80.4707 0C91.046 0 101.518 2.08971 111.288 6.14983C121.058 10.2099 129.936 16.161 137.414 23.6631C144.891 31.1652 150.823 40.0715 154.87 49.8735C158.917 59.6755 161 70.1812 161 80.7908C161 91.4004 158.917 101.906 154.87 111.708C150.823 121.51 144.891 130.416 137.414 137.919C129.936 145.421 121.058 151.372 111.288 155.432C101.518 159.492 91.046 161.582 80.4707 161.582V144.422C88.7999 144.422 97.0475 142.777 104.743 139.579C112.438 136.381 119.43 131.694 125.319 125.785C131.209 119.876 135.881 112.862 139.068 105.142C142.256 97.4214 143.896 89.147 143.896 80.7908C143.896 72.4346 142.256 64.1601 139.068 56.44C135.881 48.7199 131.209 41.7052 125.319 35.7964C119.43 29.8877 112.438 25.2006 104.743 22.0028C97.0475 18.805 88.7999 17.1591 80.4707 17.1591V0Z" fill="#FFDF07"/>
<path opacity="0.8" fill-rule="evenodd" clip-rule="evenodd" d="M59.6127 2.75582C66.4346 0.926498 73.4668 0 80.5294 0V17.1774C74.9668 17.1774 69.4282 17.9072 64.0552 19.348L59.6127 2.75582Z" fill="#FF4A4A"/>
<path opacity="0.8" fill-rule="evenodd" clip-rule="evenodd" d="M64.1136 19.2034C49.2503 23.2024 36.3418 32.4907 27.7929 45.3378C19.244 58.1848 15.6379 73.7144 17.6464 89.0332C19.6548 104.352 27.1409 118.415 38.7099 128.603C50.2789 138.79 65.1418 144.407 80.5293 144.407V161.582C60.9923 161.582 42.1215 154.45 27.4328 141.515C12.7441 128.58 3.23923 110.725 0.689133 91.2749C-1.86096 71.8252 2.71761 52.1078 13.5718 35.7964C24.426 19.485 40.8155 7.69196 59.6869 2.61456L64.1136 19.2034Z" fill="#F6C358"/>
</svg>
