<svg width="105" height="100" viewBox="0 0 105 100" fill="none" xmlns="http://www.w3.org/2000/svg">
<g clip-path="url(#clip0_7_3208)">
<path d="M25.491 9.15311C23.7262 10.4789 21.3481 12.5263 19.6738 14.1941C17.8597 16.0166 16.9979 17.0989 18.0796 16.1869C20.2191 14.4007 25.4187 10.6909 27.7072 9.30475C30.8324 7.41169 33.2693 6.30911 36.843 5.1949C43.2825 3.1852 48.3282 2.76679 56.1221 3.64835C59.2774 4.0015 67.7096 6.01381 70.7586 7.155C77.5938 9.69109 83.5967 13.7819 88.616 19.3321C90.2776 21.1503 92.9043 24.4848 93.6595 25.7315C94.1317 26.4726 94.1798 26.5135 94.1918 26.1093C94.1817 25.3218 91.0415 20.4074 88.9181 17.8653C81.8731 9.43342 72.6993 3.69174 62.6874 1.42238C52.9053 -0.776023 43.5715 0.232243 33.5771 4.58197C31.9843 5.26667 26.6824 8.26807 25.491 9.15311Z" fill="url(#paint0_linear_7_3208)"/>
<path d="M27.891 13.8857C25.6485 15.6175 22.2957 18.7922 20.3398 21.0742C18.5168 23.2288 15.2921 27.5399 15.5115 27.5937C15.5664 27.6072 16.5999 26.6543 17.7763 25.4749C26.7551 16.558 29.8074 14.4289 37.446 11.7396C47.584 8.1666 59.1391 7.70374 68.03 10.512C74.5037 12.5668 80.1026 15.8751 84.8542 20.4437C88.3233 23.7815 89.358 24.7188 89.4775 24.6464C89.5458 24.605 89.1356 23.9664 88.5811 23.2051C81.3348 13.2846 67.1024 5.70476 54.7658 5.14704C49.6763 4.91501 43.5377 5.99547 38.2215 8.0484C35.6336 9.05574 30.1676 12.1332 27.891 13.8857Z" fill="url(#paint1_linear_7_3208)"/>
<path d="M73.1945 10.6273C73.2332 10.7027 74.3136 11.3862 75.616 12.1622C76.8993 12.9321 78.7744 14.1443 79.7543 14.8794C81.892 16.4487 85.5472 20.0801 87.5492 22.5917C99.1598 37.2803 101.198 57.5285 92.6257 73.2694C90.8472 76.5773 87.9449 80.5092 85.3949 83.0862C84.1512 84.3429 84.4559 84.5039 85.7316 83.2785C91.5601 77.7508 93.6613 75.1341 96.3865 69.9285C97.7307 67.3828 100.05 60.1797 100.395 57.4799C101.496 49.0453 100.429 41.6116 96.881 33.0224C95.5928 29.9226 92.7887 25.5375 90.0538 22.3704C87.1846 19.0341 82.4609 15.2685 78.3012 12.9431C76.0914 11.728 73.0528 10.3509 73.1945 10.6273Z" fill="url(#paint2_linear_7_3208)"/>
<path d="M20.5214 12.3485C14.791 16.3818 10.1587 22.1122 6.06551 30.1788C3.50977 35.2304 1.61293 40.5215 0.674498 45.3135C-0.663271 52.0822 -0.00436985 59.5698 2.5913 67.0373C5.48647 75.4433 12.6944 85.7261 18.8442 90.1987C20.5613 91.4566 20.3617 91.0572 18.0855 88.6812C7.20361 77.3401 2.6512 66.8576 2.6512 53.0806C2.63123 49.0074 2.73107 47.8693 3.3101 44.2553C5.167 32.5548 10.3983 22.6314 19.2036 14.0457C20.6412 12.648 21.7993 11.5099 21.7593 11.5099C21.7394 11.5099 21.1803 11.8893 20.5214 12.3485Z" fill="url(#paint3_linear_7_3208)"/>
<path d="M22.8375 13.2271C22.3383 13.6264 21.1403 14.6646 20.162 15.5632C13.3533 21.7928 9.14036 29.6996 7.52306 39.3635C7.02389 42.4383 7.02389 49.6463 7.52306 52.6413C8.74103 59.6696 10.9773 65.3801 14.8109 71.2503C16.3483 73.6063 17.0472 74.425 19.7626 77.1404C23.0172 80.375 24.974 81.9924 26.731 82.8909C27.2901 83.1704 27.5097 83.2503 27.2302 83.0506C18.1453 76.4815 11.137 63.603 9.83919 51.0639C9.51973 47.8892 9.71939 41.44 10.2385 38.3651C11.0372 33.6729 12.1753 30.0789 14.2518 25.7861C16.0688 22.0124 17.726 19.6563 22.0189 14.7046C24.2352 12.1488 24.2552 12.1289 22.8375 13.2271Z" fill="url(#paint4_linear_7_3208)"/>
<path d="M93.2989 21.3096C93.4896 21.7098 94.544 23.6997 95.6295 25.7216C99.6262 33.1858 100.758 36.9953 101.349 45.1485C102.132 55.5459 100.305 65.1207 96.0239 73.0477C91.5354 81.3762 85.4724 87.3988 74.708 94.1886C72.5437 95.5502 72.8334 95.6044 75.5963 94.3451C81.7514 91.5 88.7869 85.9634 93.0352 80.625C101.307 70.2294 105.301 55.1633 103.158 42.4753C102.711 39.8301 100.817 33.8956 99.4597 30.8915C97.8078 27.2269 94.8446 22.4091 93.3912 21.0076C92.9419 20.5852 92.9419 20.5852 93.2989 21.3096Z" fill="url(#paint5_linear_7_3208)"/>
<path d="M6.43221 65.7697C7.17187 68.9023 9.82362 74.351 12.2904 77.7679C16.6184 83.7821 23.0675 89.9081 27.5591 92.3012C35.4236 96.4641 40.1966 98.2888 45.6606 99.2324C57.2722 101.258 68.3969 98.0643 82.3625 88.7669C85.9808 86.3536 85.4864 86.5093 81.3337 89.0796C77.0045 91.7554 74.3488 93.0391 70.6128 94.2775C65.8886 95.8473 61.8927 96.4548 55.8209 96.4896C49.59 96.5494 45.4759 95.9621 39.5055 94.1757C30.8932 91.615 23.7729 87.6081 17.7164 81.889C13.7195 78.1016 11.0841 74.4105 8.01208 68.3161C7.17942 66.6447 6.4349 65.2302 6.37311 65.1723C6.31132 65.1143 6.34023 65.3931 6.43221 65.7697Z" fill="url(#paint6_linear_7_3208)"/>
<path d="M12.9142 70.4716C14.9707 75.3434 22.7178 84.2086 28.2286 87.9624C38.4715 94.9308 52.4482 96.6479 65.0272 92.4948C70.6578 90.6379 75.8346 89.1393 80.986 84.507C82.8429 82.8298 85.262 80.1257 86.6198 78.169C87.6381 76.6915 88.1718 76.2449 85.9155 78.5211C79.5062 84.9704 68.3018 89.4199 57.6795 91.0173C55.0039 91.4166 47.8758 91.3567 45.0206 90.9175C35.0373 89.36 26.9907 85.3867 19.8626 78.4982C18.7245 77.4 17.4666 76.0023 17.0473 75.4033C16.628 74.7844 16.1488 74.1654 15.9491 74.0057C15.7694 73.8659 15.0905 72.9474 14.4316 71.989C13.7727 71.0306 13.0939 70.1321 12.9142 69.9924C12.6546 69.7528 12.6546 69.8127 12.9142 70.4716Z" fill="url(#paint7_linear_7_3208)"/>
<path d="M61.9459 27.3504C61.5686 27.7008 61.5686 27.7098 61.5686 28.3387C61.5686 28.9496 61.5775 28.9855 61.892 29.3C62.1705 29.5785 62.3592 29.6594 63.2936 29.9019C63.8865 30.0637 64.3717 30.2254 64.3717 30.2793C64.3717 30.3242 61.901 31.8066 58.8822 33.5676L53.3928 36.775L53.3479 34.1066C53.3029 31.1957 53.3029 31.1957 52.7369 30.8543C52.4494 30.6656 51.8475 30.6027 51.5061 30.7195C51.4072 30.7465 47.6248 33.2531 43.1057 36.2898C37.4186 40.0992 34.8221 41.8871 34.6873 42.0937C34.3998 42.507 34.3998 43.2168 34.6873 43.6211C34.9748 44.0523 35.424 44.268 35.9361 44.223C36.3135 44.1871 36.9244 43.8008 42.4498 40.1082C45.801 37.8711 49.0084 35.7238 49.5744 35.3285L50.6076 34.6277L50.6525 37.2152C50.6885 39.4523 50.7154 39.8297 50.8502 40.0184C51.1197 40.3957 51.4701 40.5664 51.9912 40.5664C52.4764 40.5664 52.5752 40.5125 59.1697 36.6582C62.8533 34.5109 65.8721 32.759 65.89 32.768C65.899 32.7859 65.7912 33.2172 65.6564 33.7383C65.5127 34.2594 65.3959 34.8613 65.3869 35.0859C65.3779 36.3617 66.9143 36.9098 67.8037 35.9484C67.9744 35.7687 68.19 35.0949 68.765 32.9566C69.2232 31.2586 69.5197 30.0187 69.5197 29.7402C69.5197 29.2102 69.2951 28.7789 68.9088 28.5812C68.4057 28.3207 63.2936 27 62.7994 27C62.3682 27 62.2873 27.0359 61.9459 27.3504Z" fill="#F6C358"/>
<path d="M62.925 41.6355C62.7902 41.7254 62.5926 41.923 62.5027 42.0578C62.341 42.3094 62.332 42.6688 62.332 52.2191V62.1289H67.2734H72.2148V52.2191C72.2148 42.6688 72.2059 42.3094 72.0441 42.0578C71.9543 41.923 71.7566 41.7254 71.6219 41.6355C71.3793 41.4738 71.1277 41.4648 67.2734 41.4648C63.4191 41.4648 63.1676 41.4738 62.925 41.6355Z" fill="#F6C358"/>
<path d="M47.6516 47.0262C47.5168 47.116 47.3191 47.3137 47.2293 47.4484C47.0676 47.7 47.0586 48.0055 47.0586 54.9145V62.1289H52H56.9414V54.9145C56.9414 48.0055 56.9324 47.7 56.7707 47.4484C56.6809 47.3137 56.4832 47.116 56.3484 47.0262C56.1059 46.8645 55.8543 46.8555 52 46.8555C48.1457 46.8555 47.8941 46.8645 47.6516 47.0262Z" fill="#F6C358"/>
<path d="M32.3781 52.4168C32.2434 52.5066 32.0457 52.7043 31.9559 52.8391C31.7941 53.0816 31.7852 53.3422 31.7852 57.6098V62.1289H36.7266H41.668V57.6098C41.668 53.3422 41.659 53.0816 41.4973 52.8391C41.4074 52.7043 41.2098 52.5066 41.075 52.4168C40.8324 52.2551 40.5809 52.2461 36.7266 52.2461C32.8723 52.2461 32.6207 52.2551 32.3781 52.4168Z" fill="#F6C358"/>
<path d="M29.593 64.9949C29.4582 65.0848 29.2605 65.2824 29.1707 65.4172C29.009 65.6598 29 65.8934 29 68.9121C29 71.9309 29.009 72.1645 29.1707 72.407C29.2605 72.5418 29.4582 72.7395 29.593 72.8293C29.8445 72.991 30.4555 73 52 73C73.5445 73 74.1555 72.991 74.407 72.8293C74.5418 72.7395 74.7395 72.5418 74.8293 72.407C74.991 72.1645 75 71.9309 75 68.9121C75 65.8934 74.991 65.6598 74.8293 65.4172C74.7395 65.2824 74.5418 65.0848 74.407 64.9949C74.1555 64.8332 73.5445 64.8242 52 64.8242C30.4555 64.8242 29.8445 64.8332 29.593 64.9949Z" fill="#F6C358"/>
</g>
<defs>
<linearGradient id="paint0_linear_7_3208" x1="29.4769" y1="36.1077" x2="81.4506" y2="4.62592" gradientUnits="userSpaceOnUse">
<stop stop-color="#FEE927"/>
<stop offset="0.3" stop-color="#FEE927"/>
<stop offset="0.571564" stop-color="#FEE927"/>
<stop offset="1" stop-color="#F89C0E"/>
</linearGradient>
<linearGradient id="paint1_linear_7_3208" x1="23.3669" y1="40.5683" x2="78.8317" y2="6.97185" gradientUnits="userSpaceOnUse">
<stop stop-color="#FEE927"/>
<stop offset="0.3" stop-color="#FEE927"/>
<stop offset="0.571564" stop-color="#FEE927"/>
<stop offset="1" stop-color="#F89C0E"/>
</linearGradient>
<linearGradient id="paint2_linear_7_3208" x1="93.0647" y1="15.1767" x2="72.677" y2="78.4871" gradientUnits="userSpaceOnUse">
<stop stop-color="#1082CE"/>
<stop offset="0.3" stop-color="#1082CE"/>
<stop offset="0.573113" stop-color="#1082CE"/>
<stop offset="1" stop-color="#2744A0"/>
</linearGradient>
<linearGradient id="paint3_linear_7_3208" x1="10.8803" y1="93.8826" x2="10.8803" y2="14.4934" gradientUnits="userSpaceOnUse">
<stop stop-color="#80C428"/>
<stop offset="0.3" stop-color="#80C428"/>
<stop offset="0.573113" stop-color="#80C428"/>
<stop offset="1" stop-color="#43803C"/>
</linearGradient>
<linearGradient id="paint4_linear_7_3208" x1="17.2502" y1="85.8164" x2="17.2502" y2="15.1906" gradientUnits="userSpaceOnUse">
<stop stop-color="#80C428"/>
<stop offset="0.3" stop-color="#80C428"/>
<stop offset="0.573113" stop-color="#80C428"/>
<stop offset="1" stop-color="#43803C"/>
</linearGradient>
<linearGradient id="paint5_linear_7_3208" x1="74.3517" y1="24.9493" x2="94.126" y2="86.8937" gradientUnits="userSpaceOnUse">
<stop stop-color="#1082CE"/>
<stop offset="0.3" stop-color="#1082CE"/>
<stop offset="0.573113" stop-color="#1082CE"/>
<stop offset="1" stop-color="#2744A0"/>
</linearGradient>
<linearGradient id="paint6_linear_7_3208" x1="6.91638" y1="83.2171" x2="84.5872" y2="80.7279" gradientUnits="userSpaceOnUse">
<stop stop-color="#1C63B7"/>
<stop offset="0.428436" stop-color="#68BCEB"/>
<stop offset="0.7" stop-color="#68BCEB"/>
<stop offset="1" stop-color="#68BCEB"/>
</linearGradient>
<linearGradient id="paint7_linear_7_3208" x1="12.7193" y1="82.2948" x2="85.6742" y2="82.2948" gradientUnits="userSpaceOnUse">
<stop stop-color="#1C63B7"/>
<stop offset="0.428436" stop-color="#68BCEB"/>
<stop offset="0.7" stop-color="#68BCEB"/>
<stop offset="1" stop-color="#68BCEB"/>
</linearGradient>
<clipPath id="clip0_7_3208">
<rect width="104.225" height="100" fill="white"/>
</clipPath>
</defs>
</svg>
