<svg width="105" height="100" viewBox="0 0 105 100" fill="none" xmlns="http://www.w3.org/2000/svg">
<g clip-path="url(#clip0_7_3188)">
<path d="M25.4911 9.15311C23.7263 10.4789 21.3482 12.5263 19.6739 14.1941C17.8598 16.0166 16.998 17.0989 18.0797 16.1869C20.2192 14.4007 25.4188 10.6909 27.7073 9.30475C30.8326 7.41169 33.2694 6.30911 36.8431 5.1949C43.2826 3.1852 48.3283 2.76679 56.1223 3.64835C59.2775 4.0015 67.7097 6.01381 70.7587 7.155C77.594 9.69109 83.5968 13.7819 88.6161 19.3321C90.2777 21.1503 92.9045 24.4848 93.6596 25.7315C94.1318 26.4726 94.18 26.5135 94.192 26.1093C94.1818 25.3218 91.0416 20.4074 88.9182 17.8653C81.8732 9.43342 72.6994 3.69174 62.6875 1.42238C52.9054 -0.776023 43.5716 0.232243 33.5772 4.58197C31.9844 5.26667 26.6825 8.26807 25.4911 9.15311Z" fill="url(#paint0_linear_7_3188)"/>
<path d="M27.8908 13.8857C25.6484 15.6175 22.2956 18.7922 20.3397 21.0742C18.5167 23.2288 15.292 27.5399 15.5114 27.5937C15.5662 27.6072 16.5998 26.6543 17.7762 25.4749C26.7549 16.558 29.8073 14.4289 37.4459 11.7396C47.5839 8.1666 59.1389 7.70374 68.0299 10.512C74.5036 12.5668 80.1025 15.8751 84.8541 20.4437C88.3232 23.7815 89.3578 24.7188 89.4774 24.6464C89.5457 24.605 89.1355 23.9664 88.581 23.2051C81.3346 13.2846 67.1023 5.70476 54.7657 5.14704C49.6762 4.91501 43.5375 5.99547 38.2214 8.0484C35.6334 9.05574 30.1675 12.1332 27.8908 13.8857Z" fill="url(#paint1_linear_7_3188)"/>
<path d="M73.1945 10.6273C73.2332 10.7027 74.3136 11.3862 75.616 12.1622C76.8993 12.9321 78.7744 14.1443 79.7543 14.8794C81.892 16.4487 85.5472 20.0801 87.5492 22.5917C99.1598 37.2803 101.198 57.5285 92.6257 73.2694C90.8472 76.5773 87.9449 80.5092 85.3949 83.0862C84.1512 84.3429 84.4559 84.5039 85.7316 83.2785C91.5601 77.7508 93.6613 75.1341 96.3865 69.9285C97.7307 67.3828 100.05 60.1797 100.395 57.4799C101.496 49.0453 100.429 41.6116 96.881 33.0224C95.5928 29.9226 92.7887 25.5375 90.0538 22.3704C87.1846 19.0341 82.4609 15.2685 78.3012 12.9431C76.0914 11.728 73.0528 10.3509 73.1945 10.6273Z" fill="url(#paint2_linear_7_3188)"/>
<path d="M20.5214 12.3485C14.791 16.3818 10.1587 22.1122 6.06551 30.1788C3.50977 35.2304 1.61293 40.5215 0.674498 45.3135C-0.663271 52.0822 -0.00436985 59.5698 2.5913 67.0373C5.48647 75.4433 12.6944 85.7261 18.8442 90.1987C20.5613 91.4566 20.3617 91.0572 18.0855 88.6812C7.20361 77.3401 2.6512 66.8576 2.6512 53.0806C2.63123 49.0074 2.73107 47.8693 3.3101 44.2553C5.167 32.5548 10.3983 22.6314 19.2036 14.0457C20.6412 12.648 21.7993 11.5099 21.7593 11.5099C21.7394 11.5099 21.1803 11.8893 20.5214 12.3485Z" fill="url(#paint3_linear_7_3188)"/>
<path d="M22.8375 13.2271C22.3383 13.6264 21.1403 14.6646 20.162 15.5632C13.3533 21.7928 9.14036 29.6996 7.52306 39.3635C7.02389 42.4383 7.02389 49.6463 7.52306 52.6413C8.74103 59.6696 10.9773 65.3801 14.8109 71.2503C16.3483 73.6063 17.0472 74.425 19.7626 77.1404C23.0172 80.375 24.974 81.9924 26.731 82.8909C27.2901 83.1704 27.5097 83.2503 27.2302 83.0506C18.1453 76.4815 11.137 63.603 9.83919 51.0639C9.51973 47.8892 9.71939 41.44 10.2385 38.3651C11.0372 33.6729 12.1753 30.0789 14.2518 25.7861C16.0688 22.0124 17.726 19.6563 22.0189 14.7046C24.2352 12.1488 24.2552 12.1289 22.8375 13.2271Z" fill="url(#paint4_linear_7_3188)"/>
<path d="M93.2989 21.3096C93.4896 21.7098 94.544 23.6997 95.6295 25.7216C99.6262 33.1858 100.758 36.9953 101.349 45.1485C102.132 55.5459 100.305 65.1207 96.0239 73.0477C91.5354 81.3762 85.4724 87.3988 74.708 94.1886C72.5437 95.5502 72.8334 95.6044 75.5963 94.3451C81.7514 91.5 88.7869 85.9634 93.0352 80.625C101.307 70.2294 105.301 55.1633 103.158 42.4753C102.711 39.8301 100.817 33.8956 99.4597 30.8915C97.8078 27.2269 94.8446 22.4091 93.3912 21.0076C92.9419 20.5852 92.9419 20.5852 93.2989 21.3096Z" fill="url(#paint5_linear_7_3188)"/>
<path d="M6.43221 65.7697C7.17187 68.9023 9.82362 74.351 12.2904 77.7679C16.6184 83.7821 23.0675 89.9081 27.5591 92.3012C35.4236 96.4641 40.1966 98.2888 45.6606 99.2324C57.2722 101.258 68.3969 98.0643 82.3625 88.7669C85.9808 86.3536 85.4864 86.5093 81.3337 89.0796C77.0045 91.7554 74.3488 93.0391 70.6128 94.2775C65.8886 95.8473 61.8927 96.4548 55.8209 96.4896C49.59 96.5494 45.4759 95.9621 39.5055 94.1757C30.8932 91.615 23.7729 87.6081 17.7164 81.889C13.7195 78.1016 11.0841 74.4105 8.01208 68.3161C7.17942 66.6447 6.4349 65.2302 6.37311 65.1723C6.31132 65.1143 6.34023 65.3931 6.43221 65.7697Z" fill="url(#paint6_linear_7_3188)"/>
<path d="M12.9142 70.4716C14.9707 75.3434 22.7178 84.2086 28.2286 87.9624C38.4715 94.9308 52.4482 96.6479 65.0272 92.4948C70.6578 90.6379 75.8346 89.1393 80.986 84.507C82.8429 82.8298 85.262 80.1257 86.6198 78.169C87.6381 76.6915 88.1718 76.2449 85.9155 78.5211C79.5062 84.9704 68.3018 89.4199 57.6795 91.0173C55.0039 91.4166 47.8758 91.3567 45.0206 90.9175C35.0373 89.36 26.9907 85.3867 19.8626 78.4982C18.7245 77.4 17.4666 76.0023 17.0473 75.4033C16.628 74.7844 16.1488 74.1654 15.9491 74.0057C15.7694 73.8659 15.0905 72.9474 14.4316 71.989C13.7727 71.0306 13.0939 70.1321 12.9142 69.9924C12.6546 69.7528 12.6546 69.8127 12.9142 70.4716Z" fill="url(#paint7_linear_7_3188)"/>
<path d="M49.8498 22.6651C49.5666 22.74 49.2833 22.943 49.1124 23.1835C48.92 23.4453 48.8452 23.7926 48.8452 24.3804V24.9201L48.1398 25.0964C47.178 25.3316 46.5635 25.5293 45.6017 25.914L44.7841 26.24V31.2148V36.1896L44.6559 36.4941C44.4956 36.8789 44.2605 37.1781 43.9452 37.3865C43.6139 37.6056 43.3467 37.6804 42.8605 37.6804C42.2566 37.6857 41.9467 37.5575 41.5192 37.13C40.9314 36.5369 40.9689 36.8628 40.9368 32.3796L40.9101 28.5163L40.349 28.9651C37.1803 31.4926 34.8025 34.998 33.6376 38.8613C33.2368 40.2025 32.8948 42.1422 32.8628 43.2911C32.8521 43.5476 32.8254 43.6865 32.7666 43.7453C32.7185 43.7934 32.2055 44.2262 31.6284 44.7071C30.4154 45.7117 30.3032 45.8613 30.3032 46.4598C30.3032 47.7743 32.1788 49.5216 34.8292 50.6758C38.0192 52.0651 42.4971 52.8827 48.4444 53.1552C49.962 53.2246 54.5681 53.2246 56.0856 53.1552C60.9055 52.9307 64.5978 52.3964 67.7345 51.4666C69.92 50.8147 71.9451 49.8048 73.1741 48.7468C73.6604 48.3353 74.2161 47.6567 74.4406 47.2025C74.7024 46.6842 74.649 46.0857 74.307 45.685C74.2108 45.5781 73.607 45.0811 72.9604 44.5789L71.7848 43.6705L71.7474 43.056C71.678 41.8857 71.4963 40.785 71.1543 39.4437C70.449 36.6758 69.1345 34.1163 67.2322 31.7812C66.6551 31.0705 65.2871 29.6972 64.5551 29.0934L63.994 28.6285L63.9673 32.4384C63.9406 36.4995 63.9459 36.3712 63.6681 36.8041C63.139 37.6376 62.0062 37.9422 61.1192 37.488C60.8146 37.3331 60.4513 36.9483 60.291 36.601L60.1467 36.2964L60.1307 31.2949L60.12 26.2934L59.7566 26.1277C58.9604 25.7751 57.3734 25.2514 56.2887 24.9896L56.0589 24.9361V24.3858C56.0589 23.488 55.8559 23.0606 55.2894 22.7613L55.0169 22.6171L52.5589 22.6064C50.6994 22.5957 50.0421 22.6117 49.8498 22.6651Z" fill="#F6C358"/>
<path d="M30.6078 49.9919C30.4636 50.1629 30.4048 50.3285 30.2712 50.9537C29.9078 52.7171 29.9078 54.6087 30.2819 56.2598C30.4368 56.9491 30.6666 57.2858 31.1475 57.5209L31.4521 57.6705L32.8949 57.6972L34.3376 57.7239L34.5887 57.8735C34.904 58.0552 35.0483 58.301 35.2727 59.0331C35.5025 59.7919 35.9032 60.7697 36.3788 61.7262C36.8063 62.5919 36.8544 62.8377 36.6887 63.2384C36.6407 63.356 36.2185 63.8262 35.6254 64.4247C34.7277 65.3331 34.6368 65.4453 34.5567 65.7125C34.3697 66.343 34.4498 66.6583 35.0323 67.5293C35.9353 68.8918 37.0307 70.0086 38.404 70.9651C39.0132 71.3926 39.2857 71.5048 39.7078 71.5048C40.2903 71.5048 40.4987 71.3712 41.5994 70.3025C42.1231 69.7896 42.6147 69.3354 42.6948 69.2926C42.7697 69.2499 42.9727 69.2178 43.1544 69.2178C43.4429 69.2178 43.5391 69.2499 44.1696 69.5705C45.1048 70.046 45.8796 70.372 46.8414 70.6926C47.2796 70.8369 47.707 71.0079 47.7872 71.0667C47.8727 71.1201 48.0009 71.2804 48.0811 71.4193L48.2307 71.6705L48.2574 73.1399C48.2841 74.5239 48.2895 74.6201 48.4017 74.8285C48.6582 75.304 49.0002 75.5392 49.7109 75.7048C51.3246 76.0789 53.3498 76.1002 55.0383 75.7529C55.6582 75.6247 55.9574 75.4804 56.2246 75.1811C56.5612 74.7964 56.5933 74.6254 56.5933 73.1934C56.5933 71.6865 56.6307 71.5048 56.9887 71.1735C57.1811 70.9972 57.3307 70.9224 57.7742 70.7888C58.6238 70.527 59.5803 70.1422 60.5368 69.6667C61.3063 69.2926 61.4452 69.2392 61.7017 69.2392C61.8673 69.2392 62.0704 69.2766 62.1666 69.3247C62.2627 69.3728 62.7597 69.827 63.2727 70.3346C64.3734 71.4193 64.507 71.5048 65.1162 71.5048C65.6024 71.5048 65.7253 71.4567 66.4788 70.9491C67.8307 70.0407 69.0169 68.8544 69.8933 67.5399C70.3368 66.8773 70.3956 66.7224 70.4009 66.2735C70.4009 65.6697 70.3101 65.5254 69.1879 64.3873C68.2742 63.4575 68.1994 63.3667 68.1406 63.1102C68.1032 62.9552 68.0872 62.7575 68.1085 62.656C68.1299 62.5598 68.333 62.1056 68.5627 61.6514C69.0223 60.7377 69.3589 59.9094 69.6582 58.9796C69.8719 58.3117 70.0001 58.0926 70.3101 57.9003C70.5078 57.7827 70.5559 57.7774 72.0093 57.7506L73.5055 57.7239L73.7459 57.5797C74.2749 57.2697 74.4727 56.9331 74.649 56.0674C74.9856 54.3896 74.9963 52.6903 74.6757 51.0713C74.5475 50.43 74.3551 49.9652 74.1948 49.9117C74.1681 49.901 73.9864 50.0186 73.794 50.1736C72.4582 51.2529 70.2459 52.327 68.0551 52.9575C67.4887 53.1232 66.0353 53.4652 65.1856 53.6361L64.8864 53.6949L64.8543 54.1064C64.7154 55.859 64.3734 57.2804 63.7536 58.659C62.0116 62.5331 58.3299 65.2636 54.0551 65.8514C53.3017 65.9529 51.7735 65.9636 51.0628 65.8781C47.7712 65.4613 44.8322 63.8476 42.8231 61.3575C41.2628 59.4232 40.2422 56.8636 40.0979 54.5445C40.0552 53.759 40.0658 53.7804 39.5742 53.6949C38.9116 53.5881 37.1109 53.1232 36.3307 52.8667C35.2887 52.5194 34.5513 52.2201 33.6162 51.7606C32.633 51.2797 31.9704 50.8789 31.2277 50.3178C30.7307 49.9384 30.6826 49.9117 30.6078 49.9919Z" fill="#F6C358"/>
</g>
<defs>
<linearGradient id="paint0_linear_7_3188" x1="29.477" y1="36.1077" x2="81.4507" y2="4.62592" gradientUnits="userSpaceOnUse">
<stop stop-color="#FEE927"/>
<stop offset="0.3" stop-color="#FEE927"/>
<stop offset="0.571564" stop-color="#FEE927"/>
<stop offset="1" stop-color="#F89C0E"/>
</linearGradient>
<linearGradient id="paint1_linear_7_3188" x1="23.3667" y1="40.5683" x2="78.8316" y2="6.97185" gradientUnits="userSpaceOnUse">
<stop stop-color="#FEE927"/>
<stop offset="0.3" stop-color="#FEE927"/>
<stop offset="0.571564" stop-color="#FEE927"/>
<stop offset="1" stop-color="#F89C0E"/>
</linearGradient>
<linearGradient id="paint2_linear_7_3188" x1="93.0647" y1="15.1767" x2="72.677" y2="78.4871" gradientUnits="userSpaceOnUse">
<stop stop-color="#1082CE"/>
<stop offset="0.3" stop-color="#1082CE"/>
<stop offset="0.573113" stop-color="#1082CE"/>
<stop offset="1" stop-color="#2744A0"/>
</linearGradient>
<linearGradient id="paint3_linear_7_3188" x1="10.8803" y1="93.8826" x2="10.8803" y2="14.4934" gradientUnits="userSpaceOnUse">
<stop stop-color="#80C428"/>
<stop offset="0.3" stop-color="#80C428"/>
<stop offset="0.573113" stop-color="#80C428"/>
<stop offset="1" stop-color="#43803C"/>
</linearGradient>
<linearGradient id="paint4_linear_7_3188" x1="17.2502" y1="85.8164" x2="17.2502" y2="15.1906" gradientUnits="userSpaceOnUse">
<stop stop-color="#80C428"/>
<stop offset="0.3" stop-color="#80C428"/>
<stop offset="0.573113" stop-color="#80C428"/>
<stop offset="1" stop-color="#43803C"/>
</linearGradient>
<linearGradient id="paint5_linear_7_3188" x1="74.3517" y1="24.9493" x2="94.126" y2="86.8937" gradientUnits="userSpaceOnUse">
<stop stop-color="#1082CE"/>
<stop offset="0.3" stop-color="#1082CE"/>
<stop offset="0.573113" stop-color="#1082CE"/>
<stop offset="1" stop-color="#2744A0"/>
</linearGradient>
<linearGradient id="paint6_linear_7_3188" x1="6.91638" y1="83.2171" x2="84.5872" y2="80.7279" gradientUnits="userSpaceOnUse">
<stop stop-color="#1C63B7"/>
<stop offset="0.428436" stop-color="#68BCEB"/>
<stop offset="0.7" stop-color="#68BCEB"/>
<stop offset="1" stop-color="#68BCEB"/>
</linearGradient>
<linearGradient id="paint7_linear_7_3188" x1="12.7193" y1="82.2948" x2="85.6742" y2="82.2948" gradientUnits="userSpaceOnUse">
<stop stop-color="#1C63B7"/>
<stop offset="0.428436" stop-color="#68BCEB"/>
<stop offset="0.7" stop-color="#68BCEB"/>
<stop offset="1" stop-color="#68BCEB"/>
</linearGradient>
<clipPath id="clip0_7_3188">
<rect width="104.225" height="100" fill="white"/>
</clipPath>
</defs>
</svg>
