<svg width="105" height="100" viewBox="0 0 105 100" fill="none" xmlns="http://www.w3.org/2000/svg">
<g clip-path="url(#clip0_7_3198)">
<path d="M25.4911 9.15311C23.7263 10.4789 21.3482 12.5263 19.6739 14.1941C17.8598 16.0166 16.998 17.0989 18.0797 16.1869C20.2192 14.4007 25.4188 10.6909 27.7073 9.30475C30.8326 7.41169 33.2694 6.30911 36.8431 5.1949C43.2826 3.1852 48.3283 2.76679 56.1223 3.64835C59.2775 4.0015 67.7097 6.01381 70.7587 7.155C77.594 9.69109 83.5968 13.7819 88.6161 19.3321C90.2777 21.1503 92.9045 24.4848 93.6596 25.7315C94.1318 26.4726 94.18 26.5135 94.192 26.1093C94.1818 25.3218 91.0416 20.4074 88.9182 17.8653C81.8732 9.43342 72.6994 3.69174 62.6875 1.42238C52.9054 -0.776023 43.5716 0.232243 33.5772 4.58197C31.9844 5.26667 26.6825 8.26807 25.4911 9.15311Z" fill="url(#paint0_linear_7_3198)"/>
<path d="M27.8908 13.8857C25.6484 15.6175 22.2956 18.7922 20.3397 21.0742C18.5167 23.2288 15.292 27.5399 15.5114 27.5937C15.5662 27.6072 16.5998 26.6543 17.7762 25.4749C26.7549 16.558 29.8073 14.4289 37.4459 11.7396C47.5839 8.1666 59.1389 7.70374 68.0299 10.512C74.5036 12.5668 80.1025 15.8751 84.8541 20.4437C88.3232 23.7815 89.3578 24.7188 89.4774 24.6464C89.5457 24.605 89.1355 23.9664 88.581 23.2051C81.3346 13.2846 67.1023 5.70476 54.7657 5.14704C49.6762 4.91501 43.5375 5.99547 38.2214 8.0484C35.6334 9.05574 30.1675 12.1332 27.8908 13.8857Z" fill="url(#paint1_linear_7_3198)"/>
<path d="M73.1945 10.6273C73.2332 10.7027 74.3136 11.3862 75.616 12.1622C76.8993 12.9321 78.7744 14.1443 79.7543 14.8794C81.892 16.4487 85.5472 20.0801 87.5492 22.5917C99.1598 37.2803 101.198 57.5285 92.6257 73.2694C90.8472 76.5773 87.9449 80.5092 85.3949 83.0862C84.1512 84.3429 84.4559 84.5039 85.7316 83.2785C91.5601 77.7508 93.6613 75.1341 96.3865 69.9285C97.7307 67.3828 100.05 60.1797 100.395 57.4799C101.496 49.0453 100.429 41.6116 96.881 33.0224C95.5928 29.9226 92.7887 25.5375 90.0538 22.3704C87.1846 19.0341 82.4609 15.2685 78.3012 12.9431C76.0914 11.728 73.0528 10.3509 73.1945 10.6273Z" fill="url(#paint2_linear_7_3198)"/>
<path d="M20.5214 12.3485C14.791 16.3818 10.1587 22.1122 6.06551 30.1788C3.50977 35.2304 1.61293 40.5215 0.674498 45.3135C-0.663271 52.0822 -0.00436985 59.5698 2.5913 67.0373C5.48647 75.4433 12.6944 85.7261 18.8442 90.1987C20.5613 91.4566 20.3617 91.0572 18.0855 88.6812C7.20361 77.3401 2.6512 66.8576 2.6512 53.0806C2.63123 49.0074 2.73107 47.8693 3.3101 44.2553C5.167 32.5548 10.3983 22.6314 19.2036 14.0457C20.6412 12.648 21.7993 11.5099 21.7593 11.5099C21.7394 11.5099 21.1803 11.8893 20.5214 12.3485Z" fill="url(#paint3_linear_7_3198)"/>
<path d="M22.8375 13.2271C22.3383 13.6264 21.1403 14.6646 20.162 15.5632C13.3533 21.7928 9.14036 29.6996 7.52306 39.3635C7.02389 42.4383 7.02389 49.6463 7.52306 52.6413C8.74103 59.6696 10.9773 65.3801 14.8109 71.2503C16.3483 73.6063 17.0472 74.425 19.7626 77.1404C23.0172 80.375 24.974 81.9924 26.731 82.8909C27.2901 83.1704 27.5097 83.2503 27.2302 83.0506C18.1453 76.4815 11.137 63.603 9.83919 51.0639C9.51973 47.8892 9.71939 41.44 10.2385 38.3651C11.0372 33.6729 12.1753 30.0789 14.2518 25.7861C16.0688 22.0124 17.726 19.6563 22.0189 14.7046C24.2352 12.1488 24.2552 12.1289 22.8375 13.2271Z" fill="url(#paint4_linear_7_3198)"/>
<path d="M93.2989 21.3096C93.4896 21.7098 94.544 23.6997 95.6295 25.7216C99.6262 33.1858 100.758 36.9953 101.349 45.1485C102.132 55.5459 100.305 65.1207 96.0239 73.0477C91.5354 81.3762 85.4724 87.3988 74.708 94.1886C72.5437 95.5502 72.8334 95.6044 75.5963 94.3451C81.7514 91.5 88.7869 85.9634 93.0352 80.625C101.307 70.2294 105.301 55.1633 103.158 42.4753C102.711 39.8301 100.817 33.8956 99.4597 30.8915C97.8078 27.2269 94.8446 22.4091 93.3912 21.0076C92.9419 20.5852 92.9419 20.5852 93.2989 21.3096Z" fill="url(#paint5_linear_7_3198)"/>
<path d="M6.43221 65.7697C7.17187 68.9023 9.82362 74.351 12.2904 77.7679C16.6184 83.7821 23.0675 89.9081 27.5591 92.3012C35.4236 96.4641 40.1966 98.2888 45.6606 99.2324C57.2722 101.258 68.3969 98.0643 82.3625 88.7669C85.9808 86.3536 85.4864 86.5093 81.3337 89.0796C77.0045 91.7554 74.3488 93.0391 70.6128 94.2775C65.8886 95.8473 61.8927 96.4548 55.8209 96.4896C49.59 96.5494 45.4759 95.9621 39.5055 94.1757C30.8932 91.615 23.7729 87.6081 17.7164 81.889C13.7195 78.1016 11.0841 74.4105 8.01208 68.3161C7.17942 66.6447 6.4349 65.2302 6.37311 65.1723C6.31132 65.1143 6.34023 65.3931 6.43221 65.7697Z" fill="url(#paint6_linear_7_3198)"/>
<path d="M12.9142 70.4716C14.9707 75.3434 22.7178 84.2086 28.2286 87.9624C38.4715 94.9308 52.4482 96.6479 65.0272 92.4948C70.6578 90.6379 75.8346 89.1393 80.986 84.507C82.8429 82.8298 85.262 80.1257 86.6198 78.169C87.6381 76.6915 88.1718 76.2449 85.9155 78.5211C79.5062 84.9704 68.3018 89.4199 57.6795 91.0173C55.0039 91.4166 47.8758 91.3567 45.0206 90.9175C35.0373 89.36 26.9907 85.3867 19.8626 78.4982C18.7245 77.4 17.4666 76.0023 17.0473 75.4033C16.628 74.7844 16.1488 74.1654 15.9491 74.0057C15.7694 73.8659 15.0905 72.9474 14.4316 71.989C13.7727 71.0306 13.0939 70.1321 12.9142 69.9924C12.6546 69.7528 12.6546 69.8127 12.9142 70.4716Z" fill="url(#paint7_linear_7_3198)"/>
<path d="M58.8254 22.0409C58.7285 22.0694 58.5405 22.189 58.4095 22.2972C58.0962 22.5707 58.0221 22.827 57.6576 24.8835C57.5037 25.7722 57.367 26.5071 57.3613 26.5128C57.3499 26.5185 57.0366 26.6324 56.6606 26.7691C55.96 27.0198 55.151 27.3559 54.1598 27.8116C53.7554 27.9996 53.5674 28.0566 53.499 28.0224C53.4477 27.9939 52.8952 27.6065 52.2685 27.1622C50.2519 25.7209 50.138 25.6697 49.6196 25.8975C48.9645 26.1881 46.6915 28.3927 46.3383 29.0706C46.0364 29.663 46.1048 29.8339 47.4207 31.7651C47.865 32.4145 48.2752 33.0183 48.3264 33.0981C48.4176 33.2405 48.4119 33.2633 48.2239 33.6962C47.5916 35.1204 47.358 35.7015 47.1415 36.3395L46.9023 37.0516L45.5294 37.2851C43.1026 37.701 42.7722 37.8035 42.5614 38.2194C42.3678 38.6067 42.3222 39.1479 42.345 41.0278C42.3621 42.7938 42.3621 42.8052 42.5045 43.0843C42.6982 43.466 42.8463 43.5628 43.5071 43.7223C43.9172 43.8249 46.8054 44.3717 46.9251 44.3717C46.9308 44.3717 47.0333 44.6623 47.1529 45.0098C47.4036 45.7731 47.7853 46.6732 48.2125 47.5334L48.5258 48.16L47.5973 49.4418C46.5263 50.9229 46.2643 51.3786 46.2643 51.7717C46.2643 52.2844 46.458 52.5464 47.7967 53.8908C49.4829 55.5827 49.7905 55.765 50.4342 55.4688C50.6051 55.3891 51.152 55.0473 51.6476 54.7055C53.1743 53.6687 53.6357 53.3724 53.7155 53.3724C53.761 53.3724 54.1541 53.5433 54.5928 53.7484C55.5726 54.2042 55.7834 54.2896 56.6891 54.5972L57.4012 54.8365L57.5778 55.9416C57.931 58.1348 58.1019 58.807 58.3582 59.0577C58.7114 59.3995 59.0134 59.4337 61.3034 59.4223L63.32 59.4109L63.5422 59.2001C63.9808 58.7729 63.9922 58.7216 64.5904 55.4574L64.6929 54.8991L65.5189 54.5972C66.3108 54.3124 66.9032 54.0731 67.883 53.6345C68.1337 53.5206 68.4071 53.4294 68.4869 53.4294C68.5951 53.4294 69.0451 53.7142 69.9338 54.3466C71.546 55.4859 71.6371 55.5372 72.1099 55.5372C72.3264 55.5372 72.56 55.503 72.6682 55.446C72.879 55.3492 74.0582 54.2839 74.964 53.3724C75.7045 52.6319 75.8868 52.3357 75.8868 51.8571C75.8868 51.4071 75.8185 51.2761 74.6791 49.6184C74.1835 48.9006 73.7791 48.2569 73.7791 48.1942C73.7791 48.1315 73.8816 47.841 74.0126 47.5505C74.645 46.1035 74.8045 45.7162 75.0038 45.1123C75.1235 44.7534 75.2317 44.4401 75.2545 44.4173C75.2716 44.3945 75.9894 44.2578 76.8439 44.1154C78.9744 43.7565 79.4244 43.6084 79.6124 43.2039C79.7947 42.8223 79.8859 40.179 79.7605 38.9599C79.6979 38.3732 79.6295 38.2251 79.3105 38.0086C79.0371 37.8263 78.6497 37.7238 76.8951 37.3934C76.0235 37.2282 75.2887 37.0743 75.2602 37.0459C75.2374 37.0174 75.1349 36.7382 75.0323 36.4249C74.7703 35.6274 74.4513 34.8299 74.0639 34.0209L73.7335 33.3259L74.1721 32.6822C74.4171 32.329 74.85 31.7024 75.1406 31.2979C75.8925 30.2498 75.9438 30.1301 75.9438 29.5206V29.0193L74.6506 27.7318C73.2721 26.359 72.879 26.0229 72.5486 25.9146C72.0701 25.7551 71.7169 25.9374 69.6661 27.3843L68.6008 28.1363L67.8147 27.7432C67.1311 27.4071 66.0886 26.9856 65.0062 26.6153L64.6929 26.5128L64.4537 25.1228C64.0093 22.5422 63.9694 22.4112 63.4283 22.1491C63.1605 22.0124 63.132 22.0124 61.0755 22.001C59.9305 21.9953 58.9165 22.0124 58.8254 22.0409ZM62.7845 29.0193C65.3138 29.4351 67.4159 30.4776 69.2047 32.2037C69.968 32.9386 70.5092 33.5823 71.0048 34.3456C73.2208 37.7693 73.4657 42.2127 71.6371 45.9041C71.0105 47.1688 70.2984 48.1429 69.2445 49.1569C67.1197 51.202 64.5163 52.3072 61.5028 52.4439C59.6058 52.5236 57.7088 52.1306 55.9543 51.2875C54.6155 50.6438 53.6585 49.9488 52.5818 48.8265C51.3571 47.5562 50.4741 46.1035 49.9101 44.4287C49.4943 43.1754 49.3405 42.1842 49.3405 40.6404C49.3405 39.3416 49.4031 38.7776 49.6538 37.7864C50.3886 34.921 52.1774 32.4487 54.7523 30.7568C56.2049 29.8054 58.1418 29.1218 59.9476 28.9338C60.5913 28.8655 62.1237 28.911 62.7845 29.0193Z" fill="#F6C358"/>
<path d="M60.445 32.3722L54.9952 34.7926C54.4346 35.0416 54.0687 35.602 54.0687 36.2168V39.8747C54.0687 44.1941 57.0583 48.2333 61.0756 49.2139C65.0929 48.2333 68.0825 44.1941 68.0825 39.8747V36.2168C68.0825 35.602 67.7166 35.0416 67.156 34.7926L61.7062 32.3722C61.3092 32.1932 60.842 32.1932 60.445 32.3722ZM61.0756 40.6452H66.5254C66.1128 43.8516 63.9718 46.7079 61.0756 47.6029V40.653H55.6258V36.2168L61.0756 33.7964V40.6452Z" fill="#F6C358"/>
<path d="M35.6229 42.6627C35.5204 42.7254 35.3894 42.8564 35.3267 42.9589C35.2071 43.1526 35.1786 43.2324 34.7571 44.4059L34.5121 45.0895L33.8342 45.2205C33.4582 45.2946 32.917 45.4256 32.6322 45.511L32.1138 45.6762L31.4074 44.9926C31.0201 44.6167 30.6042 44.2464 30.4789 44.1609C30.063 43.8875 29.7041 43.99 28.7528 44.6679C28.1205 45.1123 27.6419 45.5452 27.5736 45.7275C27.4938 45.9326 27.5964 46.2288 28.0977 47.2941L28.5534 48.2511L28.2116 48.7069C28.0179 48.9575 27.7103 49.4417 27.5166 49.7778L27.1748 50.3988L26.0241 50.4215C25.369 50.4386 24.805 50.4785 24.7139 50.5184C24.617 50.5583 24.5202 50.6608 24.4689 50.7918C24.3265 51.1222 24.11 52.1419 24.036 52.8141C23.9277 53.7712 23.9904 53.8452 25.2835 54.2896C26.0526 54.5573 26.4741 54.7567 26.5425 54.8934C26.571 54.9504 26.6109 55.1213 26.6336 55.2808C26.6507 55.4346 26.759 55.9416 26.8786 56.403L27.0894 57.2404L26.2918 58.055C25.8532 58.5051 25.4601 58.9494 25.4203 59.0463C25.3576 59.2115 25.3633 59.257 25.5228 59.5704C25.7734 60.066 26.4798 61.1027 26.7818 61.4161C27.0153 61.6553 27.0723 61.6895 27.2831 61.6895C27.5793 61.6895 28.0464 61.5129 28.9351 61.0686L29.6358 60.7154L30.6213 61.3534C31.7663 62.0826 31.6809 61.9515 31.6809 63.0567C31.6809 64.2644 31.7834 64.572 32.2562 64.8113C32.5525 64.9594 33.7715 65.21 34.4153 65.2556C35.1046 65.3069 35.247 65.1474 35.7312 63.7859C36.1243 62.6921 36.0331 62.8003 36.6768 62.6579C36.9844 62.5896 37.4971 62.4699 37.8162 62.3959C38.1409 62.3104 38.4485 62.2649 38.5168 62.2877C38.5852 62.3104 38.927 62.5953 39.2745 62.9314C40.2828 63.8827 40.5448 63.9966 41.0917 63.7232C41.707 63.4099 42.8349 62.5041 43.0001 62.1851C43.1368 61.9117 43.0685 61.6154 42.6355 60.6584C42.4133 60.1742 42.2197 59.7356 42.2026 59.6786C42.1798 59.6159 42.2311 59.4849 42.3564 59.3083C42.4646 59.1602 42.7551 58.7045 43.0115 58.2886L43.4729 57.5423L44.5724 57.5196C45.6092 57.5025 45.6775 57.4968 45.9054 57.3658C46.2985 57.1436 46.4067 56.836 46.6061 55.4232C46.7485 54.4491 46.7485 54.4377 46.5776 54.2383C46.4124 54.0389 46.0991 53.8851 45.1136 53.5148C44.7205 53.3667 44.3445 53.2015 44.2818 53.1388C44.2135 53.0819 44.1394 52.8939 44.0996 52.7059C44.0654 52.5236 43.9457 52.0052 43.8375 51.5552L43.6438 50.7349L44.3502 50.0114C45.2731 49.0657 45.4098 48.798 45.2161 48.3309C45.0908 48.0403 44.3559 46.9751 44.0255 46.6162C43.678 46.2345 43.4672 46.1149 43.2223 46.1604C43.1254 46.1832 42.6013 46.4111 42.0602 46.6731L41.0746 47.1403L40.3683 46.6788C39.9866 46.4225 39.5024 46.1377 39.2973 46.0522L38.927 45.8927L38.8985 44.8046C38.8814 44.2065 38.8415 43.6254 38.8074 43.5115C38.7162 43.2267 38.551 43.0273 38.363 42.9874C37.161 42.7311 36.1983 42.5488 36.0274 42.5488C35.9078 42.5488 35.7255 42.6 35.6229 42.6627ZM36.2781 49.3904C37.6396 49.5784 39.0466 50.7519 39.6505 52.1989C40.5562 54.3807 39.5764 57.0069 37.463 58.0493C35.9989 58.7671 34.1475 58.6931 32.8886 57.85C32.41 57.531 31.5441 56.648 31.2707 56.1922C30.8492 55.4916 30.7979 55.258 30.7979 53.9136V52.7173L30.9745 52.2843C31.5271 50.9228 32.8487 49.7379 34.1817 49.4132C34.5748 49.3221 35.6742 49.305 36.2781 49.3904Z" fill="#F6C358"/>
<path d="M51.5565 59.5078C51.4426 59.5363 51.1805 59.9749 50.8273 60.7326L50.5368 61.3421L50.2121 61.3763C50.0298 61.3934 49.6025 61.4503 49.2607 61.4959C48.9133 61.5415 48.5771 61.57 48.5088 61.5529C48.4347 61.5301 48.1613 61.2681 47.8992 60.9604C47.1701 60.123 47.1074 60.0718 46.8568 60.1116C46.3839 60.1914 45.011 60.9604 44.8174 61.2624C44.6863 61.4617 44.6977 61.5415 44.9826 62.4302C45.125 62.8688 45.2389 63.279 45.2389 63.3416C45.2389 63.4043 45.1307 63.5923 44.994 63.7575C44.8572 63.9227 44.6009 64.2702 44.4129 64.5265C44.0255 65.0677 44.1395 65.0392 42.9773 64.8968C42.0032 64.7829 41.9349 64.8 41.7355 65.2386C41.5646 65.6146 41.3253 66.4349 41.2513 66.9191C41.1658 67.4432 41.2171 67.4945 42.2026 67.9844C42.6469 68.2066 43.0229 68.4002 43.04 68.4173C43.0571 68.4287 43.1255 68.856 43.1938 69.363C43.2964 70.1263 43.3078 70.3143 43.2451 70.4567C43.2052 70.5536 42.9261 70.8327 42.59 71.1119C41.9121 71.6758 41.7754 71.8866 41.8836 72.217C42.0488 72.7297 42.6925 73.8462 42.9546 74.0798C43.1426 74.245 43.4217 74.2051 44.3616 73.8861L45.199 73.5956L45.5522 73.926C45.7459 74.1083 46.0877 74.3931 46.3156 74.564L46.7314 74.8716L46.6802 75.5552C46.5947 76.8541 46.6289 77.025 47.0504 77.2357C47.3866 77.4066 48.3094 77.6516 48.731 77.6858C49.1069 77.7143 49.1126 77.7086 49.3006 77.5149C49.4032 77.4066 49.6253 77.0136 49.7962 76.6376C49.9614 76.2673 50.1209 75.9369 50.1437 75.9141C50.1836 75.8629 51.6932 75.6464 51.9951 75.6464C52.1831 75.6464 52.354 75.8059 52.9579 76.5408C53.3054 76.9623 53.5332 77.1275 53.7668 77.1275C54.0117 77.1275 55.2365 76.5066 55.5669 76.216C55.8176 75.9939 55.8347 75.9654 55.8347 75.6863C55.8347 75.4926 55.7492 75.1451 55.5783 74.6381L55.322 73.8804L55.9543 73.0829C56.6835 72.1657 56.5297 72.2341 57.6804 72.3537C58.5634 72.4449 58.7058 72.4107 58.8824 72.0632C59.0818 71.6701 59.4293 70.4852 59.4407 70.1662C59.4577 69.7959 59.3324 69.682 58.3868 69.2035C57.9538 68.987 57.6006 68.799 57.6006 68.7933C57.6006 68.7477 57.3728 67.1071 57.3443 66.9533C57.3158 66.7824 57.3386 66.7482 57.6975 66.4691C57.9139 66.3039 58.2557 65.9963 58.4722 65.7912C58.8083 65.4608 58.8539 65.3924 58.8539 65.2044C58.8539 64.9709 58.6659 64.555 58.2159 63.8088C57.7374 63.0112 57.5323 62.9657 56.2847 63.3758L55.4872 63.6322L55.1682 63.3416C54.9916 63.1821 54.6441 62.8859 54.3877 62.6808L53.9206 62.3105L53.9947 61.7864C54.0288 61.5016 54.063 61.0459 54.063 60.7895C54.0687 60.3281 54.063 60.3053 53.8978 60.1515C53.5845 59.861 51.9382 59.4052 51.5565 59.5078ZM51.3001 64.9937C51.978 65.1646 52.3768 65.4038 52.9636 65.9906C53.3851 66.4064 53.5275 66.5944 53.7212 66.9875C54.9061 69.3915 53.2199 72.2227 50.5083 72.3822C49.8418 72.4221 49.2892 72.3025 48.6569 71.9948C47.979 71.6587 47.3011 70.9808 46.9593 70.2858C46.4067 69.1693 46.4124 68.0869 46.9821 66.9305C47.4606 65.9678 48.355 65.2443 49.3975 64.9709C49.8646 64.8455 50.7704 64.8569 51.3001 64.9937Z" fill="#F6C358"/>
</g>
<defs>
<linearGradient id="paint0_linear_7_3198" x1="29.477" y1="36.1077" x2="81.4507" y2="4.62592" gradientUnits="userSpaceOnUse">
<stop stop-color="#FEE927"/>
<stop offset="0.3" stop-color="#FEE927"/>
<stop offset="0.571564" stop-color="#FEE927"/>
<stop offset="1" stop-color="#F89C0E"/>
</linearGradient>
<linearGradient id="paint1_linear_7_3198" x1="23.3667" y1="40.5683" x2="78.8316" y2="6.97185" gradientUnits="userSpaceOnUse">
<stop stop-color="#FEE927"/>
<stop offset="0.3" stop-color="#FEE927"/>
<stop offset="0.571564" stop-color="#FEE927"/>
<stop offset="1" stop-color="#F89C0E"/>
</linearGradient>
<linearGradient id="paint2_linear_7_3198" x1="93.0647" y1="15.1767" x2="72.677" y2="78.4871" gradientUnits="userSpaceOnUse">
<stop stop-color="#1082CE"/>
<stop offset="0.3" stop-color="#1082CE"/>
<stop offset="0.573113" stop-color="#1082CE"/>
<stop offset="1" stop-color="#2744A0"/>
</linearGradient>
<linearGradient id="paint3_linear_7_3198" x1="10.8803" y1="93.8826" x2="10.8803" y2="14.4934" gradientUnits="userSpaceOnUse">
<stop stop-color="#80C428"/>
<stop offset="0.3" stop-color="#80C428"/>
<stop offset="0.573113" stop-color="#80C428"/>
<stop offset="1" stop-color="#43803C"/>
</linearGradient>
<linearGradient id="paint4_linear_7_3198" x1="17.2502" y1="85.8164" x2="17.2502" y2="15.1906" gradientUnits="userSpaceOnUse">
<stop stop-color="#80C428"/>
<stop offset="0.3" stop-color="#80C428"/>
<stop offset="0.573113" stop-color="#80C428"/>
<stop offset="1" stop-color="#43803C"/>
</linearGradient>
<linearGradient id="paint5_linear_7_3198" x1="74.3517" y1="24.9493" x2="94.126" y2="86.8937" gradientUnits="userSpaceOnUse">
<stop stop-color="#1082CE"/>
<stop offset="0.3" stop-color="#1082CE"/>
<stop offset="0.573113" stop-color="#1082CE"/>
<stop offset="1" stop-color="#2744A0"/>
</linearGradient>
<linearGradient id="paint6_linear_7_3198" x1="6.91638" y1="83.2171" x2="84.5872" y2="80.7279" gradientUnits="userSpaceOnUse">
<stop stop-color="#1C63B7"/>
<stop offset="0.428436" stop-color="#68BCEB"/>
<stop offset="0.7" stop-color="#68BCEB"/>
<stop offset="1" stop-color="#68BCEB"/>
</linearGradient>
<linearGradient id="paint7_linear_7_3198" x1="12.7193" y1="82.2948" x2="85.6742" y2="82.2948" gradientUnits="userSpaceOnUse">
<stop stop-color="#1C63B7"/>
<stop offset="0.428436" stop-color="#68BCEB"/>
<stop offset="0.7" stop-color="#68BCEB"/>
<stop offset="1" stop-color="#68BCEB"/>
</linearGradient>
<clipPath id="clip0_7_3198">
<rect width="104.225" height="100" fill="white"/>
</clipPath>
</defs>
</svg>
