<svg width="16" height="18" viewBox="0 0 16 18" fill="none" xmlns="http://www.w3.org/2000/svg">
<path d="M7.15856 0.107693C6.78933 0.23077 5.7401 0.735384 5.25702 1.02154C5.07241 1.12923 4.59856 1.42154 4.20779 1.66769C3.29087 2.24615 2.92164 2.45846 2.39548 2.71077C1.74318 3.02154 1.37702 3.13231 0.792408 3.19692C0.417023 3.23692 0.217023 3.36 0.0631769 3.64615C0.00471536 3.75385 -0.00451541 3.81231 0.00163844 4.14154C0.00471536 4.55385 0.0447154 5.06154 0.137023 5.89231C0.475485 8.97538 1.34625 11.6062 2.71241 13.6923C3.74933 15.2708 5.19548 16.6585 6.87548 17.68C7.29395 17.9354 7.44779 18 7.62625 18C7.81702 18 7.97087 17.9292 8.49087 17.6062C10.0878 16.6123 11.457 15.3015 12.4663 13.7938C13.0786 12.88 13.6078 11.8308 14.0078 10.7385C14.0816 10.5446 14.1586 10.3323 14.1832 10.2708C14.2447 10.1046 14.5493 9.04308 14.6232 8.73538C14.9124 7.53231 15.1247 6.08 15.2263 4.62154C15.2816 3.82462 15.2663 3.69538 15.0693 3.47692C14.8909 3.28 14.7863 3.23077 14.4663 3.19692C13.4416 3.08615 12.8016 2.78154 10.4724 1.31077C9.9401 0.975384 8.78318 0.36923 8.28779 0.172308C8.0201 0.0615387 7.76779 0 7.60779 0C7.53395 0 7.33087 0.0492306 7.15856 0.107693ZM11.0478 5.31385C11.4386 5.57846 11.5124 5.64 11.5739 5.76C11.7032 6.01538 11.8047 5.83385 10.1524 8.27692C9.9401 8.59077 9.47856 9.27077 9.12779 9.79077C8.77702 10.3108 8.33702 10.9631 8.14933 11.2369C7.96471 11.5108 7.75856 11.7877 7.69702 11.8492C7.49395 12.0462 7.21087 12.0769 6.92471 11.9354C6.7801 11.8646 4.06933 9.18462 3.99241 9.03692C3.93702 8.93538 3.93087 8.75692 3.97395 8.64615C4.01087 8.55385 4.69395 7.86154 4.82625 7.77846C4.92472 7.72 5.1001 7.70462 5.21702 7.75077C5.25702 7.76615 5.68779 8.17538 6.17395 8.66154C6.69702 9.18769 7.07241 9.53538 7.08779 9.52C7.11856 9.48923 8.00779 8.18154 8.53395 7.4C8.71241 7.13231 9.02933 6.66154 9.24164 6.35385C9.45395 6.04308 9.73394 5.63077 9.86625 5.43692C10.137 5.03692 10.217 4.97538 10.4478 4.99385C10.5709 5.00308 10.6601 5.05231 11.0478 5.31385Z" fill="white"/>
</svg>
