<svg width="19" height="16" viewBox="0 0 19 16" fill="none" xmlns="http://www.w3.org/2000/svg">
<path fill-rule="evenodd" clip-rule="evenodd" d="M4.90659 1.40169C2.97126 1.40169 1.40237 2.97058 1.40237 4.9059V7.70928C1.40237 7.85023 1.41066 7.98895 1.42671 8.12503L1.44381 8.27004L1.40158 8.40982L1.40169 8.41012V14.5956L1.85779 15.1277L1.40169 14.5956L4.75696 11.7197C5.13803 11.393 5.62337 11.2135 6.12527 11.2135H13.3167C15.252 11.2135 16.8209 9.6446 16.8209 7.70928V4.9059C16.8209 2.97058 15.252 1.40169 13.3167 1.40169H4.90659ZM0.000684417 4.9059C0.000684417 2.19645 2.19713 0 4.90659 0H13.3167C16.0262 0 18.2226 2.19645 18.2226 4.9059V7.70928C18.2226 10.4187 16.0262 12.6152 13.3167 12.6152H6.12527C5.95797 12.6152 5.79619 12.675 5.66916 12.7839L2.31389 15.6598L1.86218 15.1329L2.31389 15.6598C1.40466 16.4392 0 15.7931 0 14.5956V8.41012C0 8.32672 0.00736129 8.24459 0.0215698 8.16449C0.00773884 8.01444 0.000684417 7.86259 0.000684417 7.70928V4.9059Z" fill="white"/>
<path fill-rule="evenodd" clip-rule="evenodd" d="M5.61133 5.05725C5.61133 4.78111 6.18696 4.55725 6.89704 4.55725H13.3256C14.0357 4.55725 14.6113 4.78111 14.6113 5.05725C14.6113 5.33339 14.0357 5.55725 13.3256 5.55725H6.89704C6.18696 5.55725 5.61133 5.33339 5.61133 5.05725Z" fill="white"/>
<path fill-rule="evenodd" clip-rule="evenodd" d="M5.61133 8.05725C5.61133 7.78111 6.18696 7.55725 6.89704 7.55725H13.3256C14.0357 7.55725 14.6113 7.78111 14.6113 8.05725C14.6113 8.33339 14.0357 8.55725 13.3256 8.55725H6.89704C6.18696 8.55725 5.61133 8.33339 5.61133 8.05725Z" fill="white"/>
</svg>
