<svg width="18" height="18" viewBox="0 0 18 18" fill="none" xmlns="http://www.w3.org/2000/svg">
<path fill-rule="evenodd" clip-rule="evenodd" d="M0 4.69574C0 2.96685 1.40154 1.56531 3.13044 1.56531H14.087C15.8159 1.56531 17.2174 2.96685 17.2174 4.69574V14.8697C17.2174 16.5986 15.8159 18.0001 14.087 18.0001H3.13044C1.40154 18.0001 0 16.5986 0 14.8697V4.69574ZM3.13044 3.13053C2.26599 3.13053 1.56522 3.8313 1.56522 4.69574V14.8697C1.56522 15.7341 2.26599 16.4349 3.13044 16.4349H14.087C14.9514 16.4349 15.6522 15.7341 15.6522 14.8697V4.69574C15.6522 3.8313 14.9514 3.13053 14.087 3.13053H3.13044Z" fill="white"/>
<path fill-rule="evenodd" clip-rule="evenodd" d="M4.69569 0C5.12792 0 5.4783 0.350386 5.4783 0.782609V2.34783C5.4783 2.78005 5.12792 3.13044 4.69569 3.13044C4.26347 3.13044 3.91309 2.78005 3.91309 2.34783V0.782609C3.91309 0.350386 4.26347 0 4.69569 0Z" fill="white"/>
<path fill-rule="evenodd" clip-rule="evenodd" d="M12.5214 0C12.9536 0 13.304 0.350386 13.304 0.782609V2.34783C13.304 2.78005 12.9536 3.13044 12.5214 3.13044C12.0892 3.13044 11.7388 2.78005 11.7388 2.34783V0.782609C11.7388 0.350386 12.0892 0 12.5214 0Z" fill="white"/>
<path fill-rule="evenodd" clip-rule="evenodd" d="M0 6.26088C0 5.82866 0.350386 5.47827 0.782609 5.47827H16.4348C16.867 5.47827 17.2174 5.82866 17.2174 6.26088C17.2174 6.6931 16.867 7.04349 16.4348 7.04349H0.782609C0.350386 7.04349 0 6.6931 0 6.26088Z" fill="white"/>
<path fill-rule="evenodd" clip-rule="evenodd" d="M3.52148 10.174C3.52148 9.74174 3.87187 9.39136 4.30409 9.39136H5.0867C5.51893 9.39136 5.86931 9.74174 5.86931 10.174C5.86931 10.6062 5.51893 10.9566 5.0867 10.9566H4.30409C3.87187 10.9566 3.52148 10.6062 3.52148 10.174Z" fill="white"/>
<path fill-rule="evenodd" clip-rule="evenodd" d="M7.43457 10.174C7.43457 9.74174 7.78496 9.39136 8.21718 9.39136H8.99979C9.43201 9.39136 9.7824 9.74174 9.7824 10.174C9.7824 10.6062 9.43201 10.9566 8.99979 10.9566H8.21718C7.78496 10.9566 7.43457 10.6062 7.43457 10.174Z" fill="white"/>
<path fill-rule="evenodd" clip-rule="evenodd" d="M11.3477 10.174C11.3477 9.74174 11.698 9.39136 12.1303 9.39136H12.9129C13.3451 9.39136 13.6955 9.74174 13.6955 10.174C13.6955 10.6062 13.3451 10.9566 12.9129 10.9566H12.1303C11.698 10.9566 11.3477 10.6062 11.3477 10.174Z" fill="white"/>
<path fill-rule="evenodd" clip-rule="evenodd" d="M3.52148 13.3042C3.52148 12.872 3.87187 12.5216 4.30409 12.5216H5.0867C5.51893 12.5216 5.86931 12.872 5.86931 13.3042C5.86931 13.7364 5.51893 14.0868 5.0867 14.0868H4.30409C3.87187 14.0868 3.52148 13.7364 3.52148 13.3042Z" fill="white"/>
<path fill-rule="evenodd" clip-rule="evenodd" d="M7.43457 13.3042C7.43457 12.872 7.78496 12.5216 8.21718 12.5216H8.99979C9.43201 12.5216 9.7824 12.872 9.7824 13.3042C9.7824 13.7364 9.43201 14.0868 8.99979 14.0868H8.21718C7.78496 14.0868 7.43457 13.7364 7.43457 13.3042Z" fill="white"/>
<path fill-rule="evenodd" clip-rule="evenodd" d="M11.3477 13.3042C11.3477 12.872 11.698 12.5216 12.1303 12.5216H12.9129C13.3451 12.5216 13.6955 12.872 13.6955 13.3042C13.6955 13.7364 13.3451 14.0868 12.9129 14.0868H12.1303C11.698 14.0868 11.3477 13.7364 11.3477 13.3042Z" fill="white"/>
</svg>
