<svg width="19" height="20" viewBox="0 0 19 20" fill="none" xmlns="http://www.w3.org/2000/svg">
<path d="M9.43383 0.111774C9.15551 0.404752 8.31564 1.29345 8.03243 1.59619C7.68574 1.97218 6.68961 3.03666 6.24527 3.51519C6.07436 3.69586 5.92787 3.86677 5.91811 3.89118C5.89858 3.94001 6.25991 3.95954 7.13885 3.94489L7.75898 3.93513L7.77363 6.12269L7.78828 8.31025L8.65256 9.16477L9.52173 10.0193L10.093 9.45286C10.4104 9.14036 10.8011 8.77413 10.9622 8.63253L11.2552 8.3835V6.29359C11.2552 5.1461 11.2601 4.14509 11.2698 4.07185L11.2796 3.93513L12.2464 3.92536L13.2084 3.91071L12.7445 3.42242C12.2904 2.94389 10.8694 1.38134 10.0686 0.482879C9.84889 0.233849 9.6438 0.0189981 9.61939 0.00434971C9.59009 -0.0151825 9.50708 0.0336466 9.43383 0.111774Z" fill="white"/>
<path d="M4.63881 6.3034C4.38489 6.4157 3.31064 6.82099 1.30375 7.57296C0.234382 7.96848 0 8.07103 0 8.12474C0 8.17845 0.122074 8.44213 0.99124 10.3074C1.34281 11.0594 1.75298 11.9579 1.89947 12.3045C2.05084 12.6464 2.19245 12.9296 2.22174 12.9296C2.26569 12.9296 2.44636 12.5292 2.61726 12.0653C2.78817 11.5916 2.95419 11.2596 3.02255 11.2596C3.18857 11.2596 4.01379 11.787 4.61439 12.2801C5.53239 13.0321 6.33807 14.0771 6.69453 14.9804C6.83125 15.3369 6.87032 15.3564 6.93379 15.1122C7.26095 13.9013 7.86644 12.4462 8.37915 11.6405C8.5354 11.3963 8.54517 11.3524 8.49146 11.2498C8.40356 11.0838 7.40256 10.073 7.00704 9.74588C6.46991 9.30641 5.5275 8.66675 4.93178 8.32982C4.63392 8.1638 4.37513 7.9929 4.36048 7.95872C4.33118 7.88547 4.46302 7.5339 4.80483 6.77216C4.9269 6.5036 5.02944 6.25457 5.02944 6.23015C5.02944 6.15691 4.93667 6.17644 4.63881 6.3034Z" fill="white"/>
<path d="M14.0629 6.29355C14.0629 6.32773 14.2045 6.70372 14.3803 7.12853C14.556 7.55335 14.6976 7.92934 14.6976 7.96352C14.6976 7.9977 14.4388 8.17348 14.1263 8.35415C12.0511 9.5456 10.7913 10.698 9.76586 12.3338C8.74532 13.9549 8.07148 16.3671 7.85174 19.1357C7.80291 19.8047 7.80291 19.917 7.86639 19.9561C7.90546 19.9805 8.6672 20 9.56078 20H11.1819L11.2259 19.8877C11.2454 19.8291 11.2796 19.5361 11.2942 19.2334C11.3528 18.1689 11.5823 16.9482 11.9192 15.9325C12.388 14.492 13.2425 13.2225 14.3217 12.3582C14.9076 11.8894 15.9672 11.2449 16.0405 11.3181C16.0649 11.3425 16.4702 12.3045 16.6508 12.7635C16.6948 12.8807 16.7534 12.9734 16.7729 12.9783C16.7973 12.9783 16.9877 12.6072 17.1928 12.1531C17.3979 11.7039 17.8764 10.6638 18.2573 9.84834C18.6382 9.03289 18.9458 8.31509 18.936 8.26138C18.9214 8.17348 18.6382 8.04653 17.1635 7.46057C16.1967 7.0797 15.1225 6.64512 14.7709 6.49863C14.4242 6.35214 14.1215 6.23007 14.1019 6.23007C14.0775 6.23007 14.0629 6.25937 14.0629 6.29355Z" fill="white"/>
</svg>
