<svg width="15" height="18" viewBox="0 0 15 18" fill="none" xmlns="http://www.w3.org/2000/svg">
<path d="M5.14691 1.95091C5.13501 3.87802 5.13501 3.90974 5.04381 4.12783C4.92485 4.42919 4.71469 4.68693 4.45299 4.86141C4.0406 5.13501 4.07629 5.13104 1.93108 5.1469L0 5.1588L0.00793052 11.1344L0.0198263 17.1101L0.114992 17.3163C0.166541 17.4313 0.289464 17.6018 0.392561 17.6969C0.745469 18.03 0.186367 18.0062 7.21677 17.9943L13.4621 17.9824L13.6564 17.8833C13.7634 17.8278 13.9181 17.7088 14.0013 17.6137C14.2987 17.2727 14.2749 17.9983 14.2749 9.00114C14.2749 0.0396519 14.2948 0.733572 14.0093 0.40049C13.9339 0.30929 13.7793 0.186367 13.6643 0.126886L13.4621 0.019825L9.31043 0.00792885L5.1588 -1.90735e-06L5.14691 1.95091ZM11.6658 7.73225C11.7927 7.86707 11.8165 7.92259 11.8165 8.06137C11.8165 8.15654 11.7847 8.28342 11.7372 8.3548C11.5786 8.62047 11.8442 8.60461 7.36745 8.60461C3.46167 8.60461 3.30703 8.60065 3.196 8.52927C2.86688 8.31118 2.84706 7.89086 3.16031 7.65691C3.27134 7.57761 3.2872 7.57761 7.39124 7.57364H11.5111L11.6658 7.73225ZM11.5667 10.5119C11.9235 10.734 11.8958 11.2375 11.5191 11.4199C11.3605 11.4992 11.2613 11.4992 7.37142 11.4992C3.65993 11.4992 3.38237 11.4953 3.25151 11.4279C2.96205 11.2851 2.85499 10.9441 3.0136 10.6864C3.18014 10.4167 2.91843 10.4286 7.39124 10.4286C11.4239 10.4286 11.4318 10.4286 11.5667 10.5119ZM7.6014 13.1924C7.98603 13.3748 7.98603 13.9458 7.6014 14.1282C7.47848 14.1877 7.24453 14.1956 5.41258 14.1956C3.14048 14.1956 3.17617 14.1996 3.0136 13.9379C2.85895 13.6881 2.94619 13.3629 3.20393 13.2122C3.35064 13.129 3.37443 13.125 5.40465 13.125C7.24453 13.125 7.47848 13.1329 7.6014 13.1924Z" fill="white"/>
<path d="M1.9907 1.87169C0.979555 2.88283 0.127025 3.75916 0.0913374 3.8226C-0.0593424 4.1081 0.138921 4.44911 0.483898 4.50066C0.579064 4.51255 1.36022 4.52049 2.22068 4.51255C3.62835 4.50066 3.80282 4.49273 3.94557 4.42928C4.1478 4.33808 4.30641 4.1874 4.41347 3.98518C4.49674 3.83053 4.50071 3.78295 4.5126 2.12547C4.52053 0.888309 4.5126 0.388686 4.47691 0.309381C4.40554 0.134909 4.24296 0.0397429 4.02091 0.0397429H3.83058L1.9907 1.87169Z" fill="white"/>
</svg>
