<svg width="20" height="20" viewBox="0 0 20 20" fill="none" xmlns="http://www.w3.org/2000/svg">
<path d="M10.8185 0.0263367C10.7511 0.0426674 10.255 0.224352 9.71611 0.432574C9.17718 0.640797 8.034 1.08174 7.17457 1.41245C6.31514 1.74315 4.54729 2.42498 3.24488 2.92716C1.94247 3.42935 0.813576 3.87233 0.733962 3.91316C0.562484 4.00298 0.299144 4.25815 0.197074 4.43167C-0.015231 4.79096 -0.0581003 5.22986 0.0786733 5.62589C0.11746 5.73408 3.13669 13.5853 3.20405 13.7466C3.2163 13.7751 3.30408 13.4506 3.5123 12.6136C3.67357 11.9685 3.80626 11.4235 3.80626 11.4051C3.80626 11.3867 3.30204 10.0578 2.6835 8.45322C1.43824 5.22169 1.50561 5.42379 1.61176 5.20944C1.67913 5.07675 1.76283 5.01959 2.0527 4.90732C2.18131 4.86036 2.75495 4.63785 3.32654 4.41738C3.90017 4.19691 4.86371 3.82333 5.47 3.59062C6.0763 3.3579 7.50119 2.80672 8.63621 2.36986C9.77123 1.93096 10.7348 1.56555 10.7736 1.55943C10.9409 1.52676 11.1696 1.64312 11.2512 1.80235C11.2696 1.83706 11.4942 2.41273 11.7493 3.08027C12.0045 3.7478 12.225 4.30102 12.2413 4.30919C12.2556 4.31939 12.6333 4.41738 13.0803 4.52762C13.7438 4.69297 13.8928 4.72359 13.8846 4.69705C13.8459 4.55824 12.4026 0.836771 12.3434 0.724494C12.2515 0.544851 12.0168 0.306007 11.829 0.195772C11.5391 0.0283775 11.1186 -0.0430708 10.8185 0.0263367Z" fill="white"/>
<path d="M7.67056 4.59093C7.21941 4.67258 6.81726 4.989 6.62536 5.41157C6.58658 5.49731 6.14155 7.23862 5.28621 10.6641C4.09403 15.4348 4.00421 15.8023 3.99604 16.0044C3.98788 16.1677 3.994 16.2616 4.02054 16.38C4.06749 16.5903 4.20631 16.8618 4.34716 17.0169C4.47986 17.1639 4.71257 17.3272 4.87997 17.3884C4.94325 17.4129 7.29698 18.007 10.1121 18.7092C14.1785 19.7238 15.2646 19.9892 15.4034 19.9974C15.975 20.0341 16.5466 19.685 16.7813 19.1543C16.8405 19.0216 19.3718 8.89215 19.4045 8.65943C19.4413 8.38793 19.3678 8.03681 19.2147 7.77959C19.1779 7.71427 19.0738 7.58974 18.9819 7.49788C18.8533 7.36927 18.7798 7.31415 18.6451 7.24679C18.4471 7.1488 18.9166 7.26924 12.5434 5.67899C8.60756 4.69912 8.14416 4.58685 7.97064 4.58072C7.86449 4.57664 7.72976 4.58072 7.67056 4.59093ZM12.9578 7.2427C17.0181 8.25524 17.6203 8.41038 17.6938 8.46142C17.8061 8.53899 17.8918 8.70434 17.8918 8.84112C17.8918 8.93298 16.0893 16.2106 16.0301 16.3575C15.9729 16.5004 15.8137 16.6209 15.6524 16.6474C15.5891 16.6576 14.6664 16.4331 10.9388 15.5042C8.39117 14.8694 6.27424 14.3345 6.23137 14.3161C6.07214 14.2447 5.96395 14.0732 5.96599 13.8895C5.96599 13.7609 7.78896 6.45472 7.8502 6.33224C7.91961 6.19547 8.09721 6.08727 8.25644 6.08319C8.28502 6.08115 10.3999 6.60375 12.9578 7.2427Z" fill="white"/>
<path d="M9.69581 7.38765C9.36307 7.4591 9.0344 7.69182 8.85884 7.97761C8.8221 8.0409 8.76494 8.16542 8.73432 8.25524C8.68736 8.39406 8.6792 8.45122 8.6792 8.64311C8.6792 8.82888 8.68941 8.89624 8.73432 9.03506C8.87109 9.45559 9.23242 9.79037 9.66111 9.8904C9.86729 9.9394 10.1817 9.92102 10.3797 9.85162C10.9166 9.65972 11.2677 9.12896 11.2289 8.56554C11.1942 8.03681 10.8594 7.60812 10.345 7.42644C10.2123 7.37948 9.83667 7.35703 9.69581 7.38765Z" fill="white"/>
<path d="M13.5071 10.3027C13.4724 10.3232 13.0131 10.7519 12.4905 11.2561C11.9679 11.7623 11.5045 12.1951 11.4617 12.2217C11.3677 12.2788 11.2106 12.2849 11.1207 12.238C11.0289 12.191 10.9533 12.0951 10.7717 11.795C10.6818 11.6439 10.5859 11.501 10.5594 11.4766C10.4287 11.3541 10.1817 11.3132 10.0225 11.3867C9.84895 11.4684 6.95629 13.2036 6.88484 13.2709C6.79298 13.3567 6.78889 13.3934 6.86443 13.469C6.9175 13.522 7.22575 13.6037 11.0738 14.5611C14.1175 15.3205 15.2464 15.594 15.2974 15.5859C15.4077 15.5696 15.473 15.4899 15.473 15.3736C15.473 15.3042 15.2648 14.6428 14.6891 12.8892C14.2584 11.5745 13.8889 10.4661 13.8685 10.4252C13.797 10.2864 13.6378 10.2313 13.5071 10.3027Z" fill="white"/>
</svg>
