<svg width="18" height="18" viewBox="0 0 18 18" fill="none" xmlns="http://www.w3.org/2000/svg">
<path fill-rule="evenodd" clip-rule="evenodd" d="M13.2322 1.63636H13.2166H13.1922H13.1678H13.1433H13.1188H13.0941H13.0694H13.0446H13.0197H12.9947H12.9697H12.9446H12.9194H12.8941H12.8688H12.8434H12.8179H12.7923H12.7667H12.741H12.7152H12.6894H12.6635H12.6375H12.6115H12.5854H12.5592H12.533H12.5067H12.4804H12.4539H12.4275H12.4009H12.3743H12.3477H12.321H12.2942H12.2674H12.2405H12.2135H12.1865H12.1595H12.1324H12.1052H12.078H12.0508H12.0235H11.9961H11.9687H11.9412H11.9137H11.8862H11.8586H11.831H11.8033H11.7755H11.7478H11.72H11.6921H11.6642H11.6363H11.6083H11.5803H11.5523H11.5242H11.496H11.4679H11.4397H11.4115H11.3832H11.3549H11.3266H11.2982H11.2699H11.2414H11.213H11.1845H11.156H11.1275H11.0989H11.0704H11.0418H11.0131H10.9845H10.9558H10.9271H10.8984H10.8697H10.8409H10.8121H10.7833H10.7545H10.7257H10.6969H10.668H10.6391H10.6103H10.5814H10.5525H10.5235H10.4946H10.4657H10.4367H10.4078H10.3788H10.3498H10.3208H10.2918H10.2629H10.2339H10.2049H10.1759H10.1469H10.1179H10.0889H10.0598H10.0308H10.0018H9.97285H9.94385H9.91486H9.88587H9.85689H9.82792H9.79895H9.76999H9.74104H9.7121H9.68316H9.65424H9.62533H9.59643H9.56754H9.53867H9.50981H9.48097H9.45214H9.42332H9.39453H9.36575H9.33699H9.30826H9.27954H9.25084H9.22216H9.19351H9.16487H9.13627H9.10768H9.07912H9.05059H9.02209H8.99361H8.96516H8.93674H8.90834H8.87998H8.85165H8.82335H8.79509H8.76685H8.73865H8.71049H8.68236H8.65427H8.62621H8.59819H8.57021H8.54227H8.51437H8.48651H8.45869H8.43091H8.40317H8.37548H8.34784H8.32023H8.29268H8.26517H8.2377H8.21029H8.18292H8.1556H8.12833H8.10112H8.07395H8.04684H8.01978H7.99277H7.96582H7.93893H7.91208H7.8853H7.85857H7.8319H7.80529H7.77874H7.75225H7.72582H7.69946H7.67315H7.64691H7.62073H7.59462H7.56857H7.54259H7.51667H7.49083H7.46505H7.43934H7.4137H7.38813H7.36263H7.3372H7.31185H7.28657H7.26136H7.23623H7.21118H7.1862H7.1613H7.13647H7.11173H7.08706H7.06247H7.03797H7.01354H6.9892H6.96494H6.94077H6.91668H6.89267H6.86875H6.84492H6.82117H6.79752H6.77395H6.75047H6.72708H6.70378H6.68057H6.65746H6.63444H6.61151H6.58868H6.56594H6.5433H6.52076H6.49831H6.47597H6.45372H6.43157H6.40952H6.38757H6.36573H6.34398H6.32234H6.30081H6.27938H6.25806H6.23684H6.21573H6.19472H6.17383H6.15304H6.13237H6.1118H6.09135H6.07101H6.05078H6.03067H6.01067H5.99078H5.97101H5.95136H5.93183H5.91241H5.89311H5.87393H5.85487H5.83594H5.81712H5.79843H5.77986H5.76141H5.74309H5.7249H5.70683H5.68888H5.67107H5.65338H5.63582H5.61839H5.6011H5.58393H5.5669H5.54999H5.53323H5.51659H5.50009H5.48373H5.4675H5.45141H5.43546H5.41964H5.40397H5.38843H5.37304H5.35779H5.34268H5.32771H5.31289H5.29821H5.28367H5.26928H5.25504H5.24095H5.227H5.2132H5.19956H5.18606H5.17271H5.15952H5.14647H5.13358H5.12085H5.10827H5.09584H5.08357H5.07146H5.05951H5.04771H5.03607H5.02459H5.01328H5.00212H4.99113H4.98029H4.96963H4.95912H4.94878H4.93861H4.9286H4.91876H4.90909C4.64317 1.63636 4.49812 1.70049 4.41691 1.75463C4.33058 1.81219 4.26282 1.89478 4.20908 2.00227C4.15373 2.11295 4.12198 2.23355 4.10534 2.33337C4.09735 2.38135 4.09367 2.41953 4.09203 2.44253C4.09134 2.45206 4.09104 2.45867 4.09091 2.46193V12.2727H10.6364C11.0882 12.2727 11.4545 12.639 11.4545 13.0909V15.5381C11.4547 15.5413 11.455 15.5479 11.4557 15.5575C11.4573 15.5805 11.461 15.6187 11.469 15.6666C11.4856 15.7665 11.5174 15.887 11.5727 15.9977C11.6265 16.1052 11.6942 16.1878 11.7806 16.2454C11.8618 16.2995 12.0068 16.3636 12.2727 16.3636C12.5386 16.3636 12.6837 16.2995 12.7649 16.2454C12.8512 16.1878 12.919 16.1052 12.9727 15.9977C13.0281 15.887 13.0598 15.7665 13.0765 15.6666C13.0845 15.6187 13.0882 15.5805 13.0898 15.5575C13.0905 15.5479 13.0908 15.5413 13.0909 15.5381V4.90909V2.45455H13.9091C13.0909 2.45455 13.0909 2.45414 13.0909 2.45373L13.0909 2.45287L13.0909 2.45103L13.0909 2.44687L13.0911 2.43666C13.0912 2.42902 13.0914 2.41974 13.0918 2.40891C13.0925 2.38728 13.0938 2.35933 13.0962 2.32594C13.1009 2.25944 13.11 2.16979 13.1276 2.06436C13.1476 1.94441 13.1797 1.79711 13.2322 1.63636ZM2.45455 12.2727V2.45455H3.27273C2.45455 2.45455 2.45455 2.45414 2.45455 2.45373L2.45455 2.45287L2.45455 2.45103L2.45458 2.44687L2.4547 2.43666C2.45482 2.42902 2.45504 2.41974 2.4554 2.40891C2.45612 2.38728 2.45744 2.35933 2.45982 2.32594C2.46457 2.25944 2.47367 2.16979 2.49125 2.06436C2.52574 1.85736 2.59627 1.56886 2.74547 1.27046C2.89627 0.968855 3.13533 0.64236 3.50922 0.393095C3.88824 0.140416 4.35683 0 4.90909 0H4.91876H4.9286H4.93861H4.94878H4.95912H4.96963H4.98029H4.99113H5.00212H5.01328H5.02459H5.03607H5.04771H5.05951H5.07146H5.08357H5.09584H5.10827H5.12085H5.13358H5.14647H5.15952H5.17271H5.18606H5.19956H5.2132H5.227H5.24095H5.25504H5.26928H5.28367H5.29821H5.31289H5.32771H5.34268H5.35779H5.37304H5.38843H5.40397H5.41964H5.43546H5.45141H5.4675H5.48373H5.50009H5.51659H5.53323H5.54999H5.5669H5.58393H5.6011H5.61839H5.63582H5.65338H5.67107H5.68888H5.70683H5.7249H5.74309H5.76141H5.77986H5.79843H5.81712H5.83594H5.85487H5.87393H5.89311H5.91241H5.93183H5.95136H5.97101H5.99078H6.01067H6.03067H6.05078H6.07101H6.09135H6.1118H6.13237H6.15304H6.17383H6.19472H6.21573H6.23684H6.25806H6.27938H6.30081H6.32234H6.34398H6.36573H6.38757H6.40952H6.43157H6.45372H6.47597H6.49831H6.52076H6.5433H6.56594H6.58868H6.61151H6.63444H6.65746H6.68057H6.70378H6.72708H6.75047H6.77395H6.79752H6.82117H6.84492H6.86875H6.89267H6.91668H6.94077H6.96494H6.9892H7.01354H7.03797H7.06247H7.08706H7.11173H7.13647H7.1613H7.1862H7.21118H7.23623H7.26136H7.28657H7.31185H7.3372H7.36263H7.38813H7.4137H7.43934H7.46505H7.49083H7.51667H7.54259H7.56857H7.59462H7.62073H7.64691H7.67315H7.69946H7.72582H7.75225H7.77874H7.80529H7.8319H7.85857H7.8853H7.91208H7.93893H7.96582H7.99277H8.01978H8.04684H8.07395H8.10112H8.12833H8.1556H8.18292H8.21029H8.2377H8.26517H8.29268H8.32023H8.34784H8.37548H8.40317H8.43091H8.45869H8.48651H8.51437H8.54227H8.57021H8.59819H8.62621H8.65427H8.68236H8.71049H8.73865H8.76685H8.79509H8.82335H8.85165H8.87998H8.90834H8.93674H8.96516H8.99361H9.02209H9.05059H9.07912H9.10768H9.13627H9.16487H9.19351H9.22216H9.25084H9.27954H9.30826H9.33699H9.36575H9.39453H9.42332H9.45214H9.48097H9.50981H9.53867H9.56754H9.59643H9.62533H9.65424H9.68316H9.7121H9.74104H9.76999H9.79895H9.82792H9.85689H9.88587H9.91486H9.94385H9.97285H10.0018H10.0308H10.0598H10.0889H10.1179H10.1469H10.1759H10.2049H10.2339H10.2629H10.2918H10.3208H10.3498H10.3788H10.4078H10.4367H10.4657H10.4946H10.5235H10.5525H10.5814H10.6103H10.6391H10.668H10.6969H10.7257H10.7545H10.7833H10.8121H10.8409H10.8697H10.8984H10.9271H10.9558H10.9845H11.0131H11.0418H11.0704H11.0989H11.1275H11.156H11.1845H11.213H11.2414H11.2699H11.2982H11.3266H11.3549H11.3832H11.4115H11.4397H11.4679H11.496H11.5242H11.5523H11.5803H11.6083H11.6363H11.6642H11.6921H11.72H11.7478H11.7755H11.8033H11.831H11.8586H11.8862H11.9137H11.9412H11.9687H11.9961H12.0235H12.0508H12.078H12.1052H12.1324H12.1595H12.1865H12.2135H12.2405H12.2674H12.2942H12.321H12.3477H12.3743H12.4009H12.4275H12.4539H12.4804H12.5067H12.533H12.5592H12.5854H12.6115H12.6375H12.6635H12.6894H12.7152H12.741H12.7667H12.7923H12.8179H12.8434H12.8688H12.8941H12.9194H12.9446H12.9697H12.9947H13.0197H13.0446H13.0694H13.0941H13.1188H13.1433H13.1678H13.1922H13.2166H13.2408H13.265H13.289H13.313H13.3369H13.3607H13.3845H13.4081H13.4317H13.4551H13.4785H13.5018H13.525H13.5481H13.5711H13.594H13.6168H13.6395H13.6621H13.6846H13.7071H13.7294H13.7516H13.7738H13.7958H13.8177H13.8395H13.8613H13.8829H13.9044H13.9258H13.9471H13.9683H13.9894H14.0104H14.0312H14.052H14.0727H14.0932H14.1136H14.134H14.1542H14.1743H14.1942H14.2141H14.2338H14.2535H14.273H14.2924H14.3116H14.3308H14.3498H14.3687H14.3875H14.4062H14.4247H14.4432H14.4615H14.4796H14.4977H14.5156H14.5334H14.5511H14.5686H14.586H14.6033H14.6204H14.6374H14.6543H14.671H14.6876H14.7041H14.7204H14.7366H14.7527H14.7686H14.7844H14.8001H14.8156H14.8309H14.8462H14.8612H14.8762H14.891H14.9056H14.9201H14.9345H14.9487H14.9628H14.9767H14.9904H15.0041H15.0175H15.0308H15.044H15.057H15.0699H15.0826H15.0951H15.1075H15.1198H15.1319H15.1438H15.1555H15.1671H15.1786H15.1899H15.201H15.212H15.2228H15.2334H15.2439H15.2542H15.2643H15.2743H15.2841H15.2937H15.3032H15.3125H15.3216H15.3306H15.3394H15.348H15.3564H15.3647H15.3728H15.3807H15.3885H15.396H15.4034H15.4106H15.4177H15.4245H15.4312H15.4377H15.444H15.4501H15.456H15.4618H15.4674H15.4728H15.478H15.483H15.4878H15.4925H15.4969H15.5012H15.5052H15.5091H15.5128H15.5163H15.5196H15.5227H15.5256H15.5283H15.5308H15.5332H15.5353H15.5372H15.5389H15.5405H15.5418H15.5429H15.5438H15.5445H15.545H15.5454C15.5454 0 15.5454 0 15.5455 0C16.0977 0 16.5663 0.140416 16.9453 0.393095C17.3192 0.64236 17.5583 0.968855 17.7091 1.27046C17.8583 1.56886 17.9288 1.85736 17.9633 2.06436C17.9809 2.16979 17.99 2.25944 17.9947 2.32594C17.9971 2.35933 17.9984 2.38728 17.9991 2.40891L17.9996 2.42386L17.9998 2.43666L18 2.44687L18 2.45103L18 2.45287L18 2.45373C18 2.45414 18 2.45455 17.1818 2.45455H18V4.90909C18 5.36096 17.6337 5.72727 17.1818 5.72727H14.7273V15.5455H13.9091C14.7273 15.5455 14.7273 15.5459 14.7273 15.5463L14.7273 15.5471L14.7273 15.549L14.7272 15.5531L14.7271 15.5633C14.727 15.571 14.7268 15.5803 14.7264 15.5911C14.7257 15.6127 14.7244 15.6407 14.722 15.6741C14.7172 15.7406 14.7081 15.8302 14.6906 15.9356C14.6561 16.1426 14.5856 16.4311 14.4363 16.7295C14.2855 17.0311 14.0465 17.3576 13.6726 17.6069C13.2936 17.8596 12.825 18 12.2727 18H12.2631H12.2533H12.2435H12.2335H12.2234H12.2132H12.2029H12.1925H12.1819H12.1713H12.1606H12.1497H12.1387H12.1277H12.1165H12.1052H12.0939H12.0824H12.0708H12.0591H12.0473H12.0354H12.0234H12.0113H11.9991H11.9867H11.9743H11.9618H11.9492H11.9365H11.9237H11.9108H11.8978H11.8847H11.8715H11.8582H11.8448H11.8313H11.8177H11.804H11.7902H11.7763H11.7624H11.7483H11.7342H11.7199H11.7056H11.6912H11.6766H11.662H11.6473H11.6325H11.6176H11.6027H11.5876H11.5725H11.5572H11.5419H11.5265H11.511H11.4954H11.4797H11.464H11.4482H11.4322H11.4162H11.4001H11.384H11.3677H11.3514H11.335H11.3185H11.3019H11.2852H11.2685H11.2516H11.2347H11.2178H11.2007H11.1836H11.1664H11.1491H11.1317H11.1143H11.0968H11.0792H11.0615H11.0438H11.026H11.0081H10.9901H10.9721H10.954H10.9358H10.9176H10.8992H10.8808H10.8624H10.8439H10.8253H10.8066H10.7879H10.7691H10.7502H10.7313H10.7123H10.6932H10.6741H10.6549H10.6356H10.6163H10.5969H10.5775H10.5579H10.5384H10.5187H10.499H10.4793H10.4595H10.4396H10.4196H10.3996H10.3796H10.3595H10.3393H10.319H10.2988H10.2784H10.258H10.2375H10.217H10.1965H10.1758H10.1552H10.1344H10.1137H10.0928H10.0719H10.051H10.03H10.009H9.98786H9.96672H9.94552H9.92428H9.90299H9.88165H9.86027H9.83883H9.81735H9.79582H9.77425H9.75263H9.73097H9.70926H9.6875H9.6657H9.64386H9.62198H9.60005H9.57808H9.55607H9.53402H9.51193H9.4898H9.46762H9.44541H9.42316H9.40087H9.37854H9.35618H9.33377H9.31133H9.28886H9.26634H9.2438H9.22121H9.1986H9.17594H9.15326H9.13054H9.10779H9.085H9.06219H9.03934H9.01646H8.99355H8.97061H8.94764H8.92464H8.90161H8.87855H8.85547H8.83235H8.80921H8.78605H8.76285H8.73963H8.71639H8.69312H8.66982H8.64651H8.62317H8.5998H8.57641H8.553H8.52957H8.50611H8.48264H8.45914H8.43563H8.41209H8.38854H8.36496H8.34137H8.31776H8.29413H8.27049H8.24683H8.22315H8.19946H8.17575H8.15202H8.12828H8.10453H8.08077H8.05699H8.0332H8.00939H7.98557H7.96175H7.93791H7.91406H7.8902H7.86633H7.84245H7.81857H7.79467H7.77077H7.74686H7.72294H7.69902H7.67509H7.65115H7.62721H7.60326H7.57931H7.55536H7.5314H7.50744H7.48348H7.45951H7.43554H7.41158H7.38761H7.36364H7.33967H7.3157H7.29173H7.26776H7.24379H7.21983H7.19587H7.17191H7.14796H7.12401H7.10006H7.07612H7.05219H7.02825H7.00433H6.98041H6.9565H6.9326H6.9087H6.88482H6.86094H6.83707H6.81321H6.78936H6.76553H6.7417H6.71788H6.69408H6.67029H6.64651H6.62274H6.59899H6.57525H6.55153H6.52782H6.50412H6.48045H6.45678H6.43314H6.40951H6.3859H6.36231H6.33874H6.31518H6.29164H6.26813H6.24463H6.22116H6.1977H6.17427H6.15086H6.12747H6.10411H6.08077H6.05745H6.03415H6.01088H5.98764H5.96442H5.94123H5.91806H5.89492H5.87181H5.84872H5.82566H5.80264H5.77964H5.75667H5.73373H5.71081H5.68794H5.66509H5.64227H5.61949H5.59673H5.57402H5.55133H5.52868H5.50606H5.48348H5.46093H5.43842H5.41594H5.3935H5.3711H5.34873H5.3264H5.30411H5.28186H5.25965H5.23748H5.21534H5.19325H5.1712H5.14919H5.12722H5.10529H5.08341H5.06157H5.03977H5.01802H4.99631H4.97464H4.95302H4.93145H4.90992H4.88844H4.86701H4.84562H4.82428H4.80299H4.78175H4.76056H4.73941H4.71832H4.69728H4.67629H4.65535H4.63446H4.61362H4.59284H4.57211H4.55143H4.53081H4.51024H4.48972H4.46927H4.44886H4.42852H4.40823H4.38799H4.36782H4.3477H4.32764H4.30764H4.2877H4.26782H4.248H4.22824H4.20854H4.1889H4.16932H4.14981H4.13036H4.11097H4.09165H4.07239H4.05319H4.03406H4.015H3.996H3.97706H3.9582H3.9394H3.92067H3.902H3.88341H3.86488H3.84642H3.82804H3.80972H3.79147H3.7733H3.75519H3.73716H3.7192H3.70132H3.6835H3.66576H3.6481H3.63051H3.61299H3.59555H3.57819H3.5609H3.54369H3.52656H3.5095H3.49252H3.47562H3.4588H3.44206H3.4254H3.40882H3.39232H3.3759H3.35956H3.34331H3.32714H3.31105H3.29504H3.27912H3.26328H3.24753H3.23186H3.21628H3.20078H3.18537H3.17005H3.15481H3.13966H3.1246H3.10963H3.09475H3.07996H3.06526H3.05064H3.03612H3.02169H3.00735H2.99311H2.97895H2.96489H2.95093H2.93705H2.92327H2.90959H2.896H2.88251H2.86911H2.85581H2.84261H2.8295H2.81649H2.80359H2.79077H2.77806H2.76545H2.75294H2.74053H2.72822H2.71601H2.7039H2.6919H2.67999H2.66819H2.6565H2.64491H2.63342H2.62204H2.61076H2.59959H2.58852H2.57757H2.56671H2.55597H2.54534H2.53481H2.52439H2.51408H2.50388H2.49379H2.48381H2.47395H2.46419H2.45455C1.90229 18 1.4337 17.8596 1.05468 17.6069C0.68078 17.3576 0.441726 17.0311 0.290923 16.7295C0.141722 16.4311 0.0711994 16.1426 0.0367004 15.9356C0.0191279 15.8302 0.010025 15.7406 0.00527527 15.6741C0.00289049 15.6407 0.0015748 15.6127 0.000853674 15.5911C0.000492697 15.5803 0.000279437 15.571 0.000156348 15.5633L3.19914e-05 15.5531L7.12005e-06 15.549L1.65809e-06 15.5471L0 15.5463C0 15.5459 0 15.5455 0.818182 15.5455H0V13.0909C0 12.639 0.366312 12.2727 0.818182 12.2727H2.45455ZM16.3636 4.09091H14.7273V2.46193C14.7274 2.45867 14.7277 2.45206 14.7284 2.44253C14.73 2.41953 14.7337 2.38135 14.7417 2.33337C14.7583 2.23355 14.7901 2.11295 14.8454 2.00227C14.8992 1.89478 14.9669 1.81219 15.0533 1.75463C15.1345 1.70049 15.2795 1.63636 15.5455 1.63636C15.8114 1.63636 15.9564 1.70049 16.0376 1.75463C16.124 1.81219 16.1917 1.89478 16.2455 2.00227C16.3008 2.11295 16.3326 2.23355 16.3492 2.33337C16.3572 2.38135 16.3609 2.41953 16.3625 2.44253C16.3632 2.45206 16.3635 2.45867 16.3636 2.46193V4.09091ZM9.85488 15.9356C9.87487 16.0556 9.90696 16.2029 9.95944 16.3636H9.94552H9.92428H9.90299H9.88165H9.86027H9.83883H9.81735H9.79582H9.77425H9.75263H9.73097H9.70926H9.6875H9.6657H9.64386H9.62198H9.60005H9.57808H9.55607H9.53402H9.51193H9.4898H9.46762H9.44541H9.42316H9.40087H9.37854H9.35618H9.33377H9.31133H9.28886H9.26634H9.2438H9.22121H9.1986H9.17594H9.15326H9.13054H9.10779H9.085H9.06219H9.03934H9.01646H8.99355H8.97061H8.94764H8.92464H8.90161H8.87855H8.85547H8.83235H8.80921H8.78605H8.76285H8.73963H8.71639H8.69312H8.66982H8.64651H8.62317H8.5998H8.57641H8.553H8.52957H8.50611H8.48264H8.45914H8.43563H8.41209H8.38854H8.36496H8.34137H8.31776H8.29413H8.27049H8.24683H8.22315H8.19946H8.17575H8.15202H8.12828H8.10453H8.08077H8.05699H8.0332H8.00939H7.98557H7.96175H7.93791H7.91406H7.8902H7.86633H7.84245H7.81857H7.79467H7.77077H7.74686H7.72294H7.69902H7.67509H7.65115H7.62721H7.60326H7.57931H7.55536H7.5314H7.50744H7.48348H7.45951H7.43554H7.41158H7.38761H7.36364H7.33967H7.3157H7.29173H7.26776H7.24379H7.21983H7.19587H7.17191H7.14796H7.12401H7.10006H7.07612H7.05219H7.02825H7.00433H6.98041H6.9565H6.9326H6.9087H6.88482H6.86094H6.83707H6.81321H6.78936H6.76553H6.7417H6.71788H6.69408H6.67029H6.64651H6.62274H6.59899H6.57525H6.55153H6.52782H6.50412H6.48045H6.45678H6.43314H6.40951H6.3859H6.36231H6.33874H6.31518H6.29164H6.26813H6.24463H6.22116H6.1977H6.17427H6.15086H6.12747H6.10411H6.08077H6.05745H6.03415H6.01088H5.98764H5.96442H5.94123H5.91806H5.89492H5.87181H5.84872H5.82566H5.80264H5.77964H5.75667H5.73373H5.71081H5.68794H5.66509H5.64227H5.61949H5.59673H5.57402H5.55133H5.52868H5.50606H5.48348H5.46093H5.43842H5.41594H5.3935H5.3711H5.34873H5.3264H5.30411H5.28186H5.25965H5.23748H5.21534H5.19325H5.1712H5.14919H5.12722H5.10529H5.08341H5.06157H5.03977H5.01802H4.99631H4.97464H4.95302H4.93145H4.90992H4.88844H4.86701H4.84562H4.82428H4.80299H4.78175H4.76056H4.73941H4.71832H4.69728H4.67629H4.65535H4.63446H4.61362H4.59284H4.57211H4.55143H4.53081H4.51024H4.48972H4.46927H4.44886H4.42852H4.40823H4.38799H4.36782H4.3477H4.32764H4.30764H4.2877H4.26782H4.248H4.22824H4.20854H4.1889H4.16932H4.14981H4.13036H4.11097H4.09165H4.07239H4.05319H4.03406H4.015H3.996H3.97706H3.9582H3.9394H3.92067H3.902H3.88341H3.86488H3.84642H3.82804H3.80972H3.79147H3.7733H3.75519H3.73716H3.7192H3.70132H3.6835H3.66576H3.6481H3.63051H3.61299H3.59555H3.57819H3.5609H3.54369H3.52656H3.5095H3.49252H3.47562H3.4588H3.44206H3.4254H3.40882H3.39232H3.3759H3.35956H3.34331H3.32714H3.31105H3.29504H3.27912H3.26328H3.24753H3.23186H3.21628H3.20078H3.18537H3.17005H3.15481H3.13966H3.1246H3.10963H3.09475H3.07996H3.06526H3.05064H3.03612H3.02169H3.00735H2.99311H2.97895H2.96489H2.95093H2.93705H2.92327H2.90959H2.896H2.88251H2.86911H2.85581H2.84261H2.8295H2.81649H2.80359H2.79077H2.77806H2.76545H2.75294H2.74053H2.72822H2.71601H2.7039H2.6919H2.67999H2.66819H2.6565H2.64491H2.63342H2.62204H2.61076H2.59959H2.58852H2.57757H2.56671H2.55597H2.54534H2.53481H2.52439H2.51408H2.50388H2.49379H2.48381H2.47395H2.46419H2.45455C2.18862 16.3636 2.04358 16.2995 1.96237 16.2454C1.87604 16.1878 1.80827 16.1052 1.75453 15.9977C1.69919 15.887 1.66744 15.7665 1.6508 15.6666C1.6428 15.6187 1.63912 15.5805 1.63748 15.5575C1.6368 15.5479 1.63649 15.5413 1.63636 15.5381V13.9091H3.27273H9.81818V15.5455H10.6364C9.81818 15.5455 9.81818 15.5459 9.81818 15.5463L9.81818 15.5471L9.81819 15.549L9.81821 15.5531L9.81834 15.5633C9.81841 15.5682 9.81853 15.5737 9.81869 15.5798C9.81879 15.5834 9.8189 15.5871 9.81903 15.5911C9.81976 15.6127 9.82107 15.6407 9.82346 15.6741C9.82821 15.7406 9.83731 15.8302 9.85488 15.9356Z" fill="white"/>
<path fill-rule="evenodd" clip-rule="evenodd" d="M5.72754 5.72724C5.72754 5.27537 6.09385 4.90906 6.54572 4.90906H10.6366C11.0885 4.90906 11.4548 5.27537 11.4548 5.72724C11.4548 6.17911 11.0885 6.54542 10.6366 6.54542H6.54572C6.09385 6.54542 5.72754 6.17911 5.72754 5.72724Z" fill="white"/>
<path fill-rule="evenodd" clip-rule="evenodd" d="M5.72754 8.99994C5.72754 8.54808 6.09385 8.18176 6.54572 8.18176H10.6366C11.0885 8.18176 11.4548 8.54808 11.4548 8.99994C11.4548 9.45181 11.0885 9.81813 10.6366 9.81813H6.54572C6.09385 9.81813 5.72754 9.45181 5.72754 8.99994Z" fill="white"/>
</svg>
