<svg width="18" height="18" viewBox="0 0 18 18" fill="none" xmlns="http://www.w3.org/2000/svg">
<path d="M2.75345 2.12427C2.75297 2.12427 2.75242 2.12427 2.75194 2.12427C2.58169 2.12427 2.42157 2.19063 2.30066 2.31124C2.17842 2.43318 2.11108 2.59554 2.11108 2.76839V12.4269C2.11108 12.7811 2.40036 13.0699 2.756 13.0708C4.25527 13.0744 6.76716 13.3869 8.50002 15.2003V5.0924C8.50002 4.97234 8.46935 4.85955 8.41147 4.76622C6.98922 2.47578 4.25612 2.12778 2.75345 2.12427Z" fill="white"/>
<path d="M15.8892 12.4268V2.76827C15.8892 2.59542 15.8219 2.43306 15.6997 2.31112C15.5787 2.19051 15.4185 2.12415 15.2484 2.12415C15.2479 2.12415 15.2474 2.12415 15.2469 2.12415C13.7443 2.12772 11.0112 2.47572 9.58885 4.76615C9.53097 4.85949 9.50037 4.97228 9.50037 5.09234V15.2002C11.2332 13.3868 13.7451 13.0743 15.2444 13.0707C15.6 13.0698 15.8892 12.781 15.8892 12.4268Z" fill="white"/>
<path d="M17.3559 4.35156H16.8889V12.4268C16.8889 13.3311 16.1521 14.0685 15.2464 14.0707C13.9747 14.0738 11.8779 14.3224 10.3928 15.728C12.9612 15.0991 15.6687 15.5079 17.2118 15.8595C17.4044 15.9034 17.6035 15.8581 17.7579 15.7351C17.9117 15.6123 17.9999 15.4289 17.9999 15.232V4.99556C18 4.64047 17.711 4.35156 17.3559 4.35156Z" fill="white"/>
<path d="M1.11103 12.4268V4.35156H0.644002C0.288971 4.35156 0 4.64047 0 4.99556V15.2318C0 15.4288 0.0882427 15.6121 0.242061 15.7349C0.396304 15.8578 0.595214 15.9034 0.788184 15.8594C2.33122 15.5077 5.0388 15.0989 7.60706 15.7278C6.12208 14.3223 4.02523 14.0737 2.75352 14.0707C1.84788 14.0685 1.11103 13.3311 1.11103 12.4268Z" fill="white"/>
</svg>
