<svg xmlns="http://www.w3.org/2000/svg">
    <symbol id="sf_icon1" viewBox="0 0 19 20">
        <path d="M9.43383 0.111774C9.15551 0.404752 8.31564 1.29345 8.03243 1.59619C7.68574 1.97218 6.68961 3.03666 6.24527 3.51519C6.07436 3.69586 5.92787 3.86677 5.91811 3.89118C5.89858 3.94001 6.25991 3.95954 7.13885 3.94489L7.75898 3.93513L7.77363 6.12269L7.78828 8.31025L8.65256 9.16477L9.52173 10.0193L10.093 9.45286C10.4104 9.14036 10.8011 8.77413 10.9622 8.63253L11.2552 8.3835V6.29359C11.2552 5.1461 11.2601 4.14509 11.2698 4.07185L11.2796 3.93513L12.2464 3.92536L13.2084 3.91071L12.7445 3.42242C12.2904 2.94389 10.8694 1.38134 10.0686 0.482879C9.84889 0.233849 9.6438 0.0189981 9.61939 0.00434971C9.59009 -0.0151825 9.50708 0.0336466 9.43383 0.111774Z"/>
        <path d="M4.63881 6.3034C4.38489 6.4157 3.31064 6.82099 1.30375 7.57296C0.234382 7.96848 0 8.07103 0 8.12474C0 8.17845 0.122074 8.44213 0.99124 10.3074C1.34281 11.0594 1.75298 11.9579 1.89947 12.3045C2.05084 12.6464 2.19245 12.9296 2.22174 12.9296C2.26569 12.9296 2.44636 12.5292 2.61726 12.0653C2.78817 11.5916 2.95419 11.2596 3.02255 11.2596C3.18857 11.2596 4.01379 11.787 4.61439 12.2801C5.53239 13.0321 6.33807 14.0771 6.69453 14.9804C6.83125 15.3369 6.87032 15.3564 6.93379 15.1122C7.26095 13.9013 7.86644 12.4462 8.37915 11.6405C8.5354 11.3963 8.54517 11.3524 8.49146 11.2498C8.40356 11.0838 7.40256 10.073 7.00704 9.74588C6.46991 9.30641 5.5275 8.66675 4.93178 8.32982C4.63392 8.1638 4.37513 7.9929 4.36048 7.95872C4.33118 7.88547 4.46302 7.5339 4.80483 6.77216C4.9269 6.5036 5.02944 6.25457 5.02944 6.23015C5.02944 6.15691 4.93667 6.17644 4.63881 6.3034Z"/>
        <path d="M14.0629 6.29355C14.0629 6.32773 14.2045 6.70372 14.3803 7.12853C14.556 7.55335 14.6976 7.92934 14.6976 7.96352C14.6976 7.9977 14.4388 8.17348 14.1263 8.35415C12.0511 9.5456 10.7913 10.698 9.76586 12.3338C8.74532 13.9549 8.07148 16.3671 7.85174 19.1357C7.80291 19.8047 7.80291 19.917 7.86639 19.9561C7.90546 19.9805 8.6672 20 9.56078 20H11.1819L11.2259 19.8877C11.2454 19.8291 11.2796 19.5361 11.2942 19.2334C11.3528 18.1689 11.5823 16.9482 11.9192 15.9325C12.388 14.492 13.2425 13.2225 14.3217 12.3582C14.9076 11.8894 15.9672 11.2449 16.0405 11.3181C16.0649 11.3425 16.4702 12.3045 16.6508 12.7635C16.6948 12.8807 16.7534 12.9734 16.7729 12.9783C16.7973 12.9783 16.9877 12.6072 17.1928 12.1531C17.3979 11.7039 17.8764 10.6638 18.2573 9.84834C18.6382 9.03289 18.9458 8.31509 18.936 8.26138C18.9214 8.17348 18.6382 8.04653 17.1635 7.46057C16.1967 7.0797 15.1225 6.64512 14.7709 6.49863C14.4242 6.35214 14.1215 6.23007 14.1019 6.23007C14.0775 6.23007 14.0629 6.25937 14.0629 6.29355Z"/>
    </symbol>
    <symbol id="sf_icon2" viewBox="0 0 20 20">
        <path d="M10.8185 0.0263367C10.7511 0.0426674 10.255 0.224352 9.71611 0.432574C9.17718 0.640797 8.034 1.08174 7.17457 1.41245C6.31514 1.74315 4.54729 2.42498 3.24488 2.92716C1.94247 3.42935 0.813576 3.87233 0.733962 3.91316C0.562484 4.00298 0.299144 4.25815 0.197074 4.43167C-0.015231 4.79096 -0.0581003 5.22986 0.0786733 5.62589C0.11746 5.73408 3.13669 13.5853 3.20405 13.7466C3.2163 13.7751 3.30408 13.4506 3.5123 12.6136C3.67357 11.9685 3.80626 11.4235 3.80626 11.4051C3.80626 11.3867 3.30204 10.0578 2.6835 8.45322C1.43824 5.22169 1.50561 5.42379 1.61176 5.20944C1.67913 5.07675 1.76283 5.01959 2.0527 4.90732C2.18131 4.86036 2.75495 4.63785 3.32654 4.41738C3.90017 4.19691 4.86371 3.82333 5.47 3.59062C6.0763 3.3579 7.50119 2.80672 8.63621 2.36986C9.77123 1.93096 10.7348 1.56555 10.7736 1.55943C10.9409 1.52676 11.1696 1.64312 11.2512 1.80235C11.2696 1.83706 11.4942 2.41273 11.7493 3.08027C12.0045 3.7478 12.225 4.30102 12.2413 4.30919C12.2556 4.31939 12.6333 4.41738 13.0803 4.52762C13.7438 4.69297 13.8928 4.72359 13.8846 4.69705C13.8459 4.55824 12.4026 0.836771 12.3434 0.724494C12.2515 0.544851 12.0168 0.306007 11.829 0.195772C11.5391 0.0283775 11.1186 -0.0430708 10.8185 0.0263367Z"/>
        <path d="M7.67056 4.59093C7.21941 4.67258 6.81726 4.989 6.62536 5.41157C6.58658 5.49731 6.14155 7.23862 5.28621 10.6641C4.09403 15.4348 4.00421 15.8023 3.99604 16.0044C3.98788 16.1677 3.994 16.2616 4.02054 16.38C4.06749 16.5903 4.20631 16.8618 4.34716 17.0169C4.47986 17.1639 4.71257 17.3272 4.87997 17.3884C4.94325 17.4129 7.29698 18.007 10.1121 18.7092C14.1785 19.7238 15.2646 19.9892 15.4034 19.9974C15.975 20.0341 16.5466 19.685 16.7813 19.1543C16.8405 19.0216 19.3718 8.89215 19.4045 8.65943C19.4413 8.38793 19.3678 8.03681 19.2147 7.77959C19.1779 7.71427 19.0738 7.58974 18.9819 7.49788C18.8533 7.36927 18.7798 7.31415 18.6451 7.24679C18.4471 7.1488 18.9166 7.26924 12.5434 5.67899C8.60756 4.69912 8.14416 4.58685 7.97064 4.58072C7.86449 4.57664 7.72976 4.58072 7.67056 4.59093ZM12.9578 7.2427C17.0181 8.25524 17.6203 8.41038 17.6938 8.46142C17.8061 8.53899 17.8918 8.70434 17.8918 8.84112C17.8918 8.93298 16.0893 16.2106 16.0301 16.3575C15.9729 16.5004 15.8137 16.6209 15.6524 16.6474C15.5891 16.6576 14.6664 16.4331 10.9388 15.5042C8.39117 14.8694 6.27424 14.3345 6.23137 14.3161C6.07214 14.2447 5.96395 14.0732 5.96599 13.8895C5.96599 13.7609 7.78896 6.45472 7.8502 6.33224C7.91961 6.19547 8.09721 6.08727 8.25644 6.08319C8.28502 6.08115 10.3999 6.60375 12.9578 7.2427Z"/>
        <path d="M9.69581 7.38765C9.36307 7.4591 9.0344 7.69182 8.85884 7.97761C8.8221 8.0409 8.76494 8.16542 8.73432 8.25524C8.68736 8.39406 8.6792 8.45122 8.6792 8.64311C8.6792 8.82888 8.68941 8.89624 8.73432 9.03506C8.87109 9.45559 9.23242 9.79037 9.66111 9.8904C9.86729 9.9394 10.1817 9.92102 10.3797 9.85162C10.9166 9.65972 11.2677 9.12896 11.2289 8.56554C11.1942 8.03681 10.8594 7.60812 10.345 7.42644C10.2123 7.37948 9.83667 7.35703 9.69581 7.38765Z"/>
        <path d="M13.5071 10.3027C13.4724 10.3232 13.0131 10.7519 12.4905 11.2561C11.9679 11.7623 11.5045 12.1951 11.4617 12.2217C11.3677 12.2788 11.2106 12.2849 11.1207 12.238C11.0289 12.191 10.9533 12.0951 10.7717 11.795C10.6818 11.6439 10.5859 11.501 10.5594 11.4766C10.4287 11.3541 10.1817 11.3132 10.0225 11.3867C9.84895 11.4684 6.95629 13.2036 6.88484 13.2709C6.79298 13.3567 6.78889 13.3934 6.86443 13.469C6.9175 13.522 7.22575 13.6037 11.0738 14.5611C14.1175 15.3205 15.2464 15.594 15.2974 15.5859C15.4077 15.5696 15.473 15.4899 15.473 15.3736C15.473 15.3042 15.2648 14.6428 14.6891 12.8892C14.2584 11.5745 13.8889 10.4661 13.8685 10.4252C13.797 10.2864 13.6378 10.2313 13.5071 10.3027Z"/>
    </symbol>
    <symbol id="sf_icon3" viewBox="0 0 16 18">
        <path d="M7.15856 0.107693C6.78933 0.23077 5.7401 0.735384 5.25702 1.02154C5.07241 1.12923 4.59856 1.42154 4.20779 1.66769C3.29087 2.24615 2.92164 2.45846 2.39548 2.71077C1.74318 3.02154 1.37702 3.13231 0.792408 3.19692C0.417023 3.23692 0.217023 3.36 0.0631769 3.64615C0.00471536 3.75385 -0.00451541 3.81231 0.00163844 4.14154C0.00471536 4.55385 0.0447154 5.06154 0.137023 5.89231C0.475485 8.97538 1.34625 11.6062 2.71241 13.6923C3.74933 15.2708 5.19548 16.6585 6.87548 17.68C7.29395 17.9354 7.44779 18 7.62625 18C7.81702 18 7.97087 17.9292 8.49087 17.6062C10.0878 16.6123 11.457 15.3015 12.4663 13.7938C13.0786 12.88 13.6078 11.8308 14.0078 10.7385C14.0816 10.5446 14.1586 10.3323 14.1832 10.2708C14.2447 10.1046 14.5493 9.04308 14.6232 8.73538C14.9124 7.53231 15.1247 6.08 15.2263 4.62154C15.2816 3.82462 15.2663 3.69538 15.0693 3.47692C14.8909 3.28 14.7863 3.23077 14.4663 3.19692C13.4416 3.08615 12.8016 2.78154 10.4724 1.31077C9.9401 0.975384 8.78318 0.36923 8.28779 0.172308C8.0201 0.0615387 7.76779 0 7.60779 0C7.53395 0 7.33087 0.0492306 7.15856 0.107693ZM11.0478 5.31385C11.4386 5.57846 11.5124 5.64 11.5739 5.76C11.7032 6.01538 11.8047 5.83385 10.1524 8.27692C9.9401 8.59077 9.47856 9.27077 9.12779 9.79077C8.77702 10.3108 8.33702 10.9631 8.14933 11.2369C7.96471 11.5108 7.75856 11.7877 7.69702 11.8492C7.49395 12.0462 7.21087 12.0769 6.92471 11.9354C6.7801 11.8646 4.06933 9.18462 3.99241 9.03692C3.93702 8.93538 3.93087 8.75692 3.97395 8.64615C4.01087 8.55385 4.69395 7.86154 4.82625 7.77846C4.92472 7.72 5.1001 7.70462 5.21702 7.75077C5.25702 7.76615 5.68779 8.17538 6.17395 8.66154C6.69702 9.18769 7.07241 9.53538 7.08779 9.52C7.11856 9.48923 8.00779 8.18154 8.53395 7.4C8.71241 7.13231 9.02933 6.66154 9.24164 6.35385C9.45395 6.04308 9.73394 5.63077 9.86625 5.43692C10.137 5.03692 10.217 4.97538 10.4478 4.99385C10.5709 5.00308 10.6601 5.05231 11.0478 5.31385Z"/>
    </symbol>
    <symbol id="sf_icon4" viewBox="0 0 18 18">
        <path fill-rule="evenodd" clip-rule="evenodd" d="M0 4.69574C0 2.96685 1.40154 1.56531 3.13044 1.56531H14.087C15.8159 1.56531 17.2174 2.96685 17.2174 4.69574V14.8697C17.2174 16.5986 15.8159 18.0001 14.087 18.0001H3.13044C1.40154 18.0001 0 16.5986 0 14.8697V4.69574ZM3.13044 3.13053C2.26599 3.13053 1.56522 3.8313 1.56522 4.69574V14.8697C1.56522 15.7341 2.26599 16.4349 3.13044 16.4349H14.087C14.9514 16.4349 15.6522 15.7341 15.6522 14.8697V4.69574C15.6522 3.8313 14.9514 3.13053 14.087 3.13053H3.13044Z"/>
        <path fill-rule="evenodd" clip-rule="evenodd" d="M4.69569 0C5.12792 0 5.4783 0.350386 5.4783 0.782609V2.34783C5.4783 2.78005 5.12792 3.13044 4.69569 3.13044C4.26347 3.13044 3.91309 2.78005 3.91309 2.34783V0.782609C3.91309 0.350386 4.26347 0 4.69569 0Z"/>
        <path fill-rule="evenodd" clip-rule="evenodd" d="M12.5214 0C12.9536 0 13.304 0.350386 13.304 0.782609V2.34783C13.304 2.78005 12.9536 3.13044 12.5214 3.13044C12.0892 3.13044 11.7388 2.78005 11.7388 2.34783V0.782609C11.7388 0.350386 12.0892 0 12.5214 0Z"/>
        <path fill-rule="evenodd" clip-rule="evenodd" d="M0 6.26088C0 5.82866 0.350386 5.47827 0.782609 5.47827H16.4348C16.867 5.47827 17.2174 5.82866 17.2174 6.26088C17.2174 6.6931 16.867 7.04349 16.4348 7.04349H0.782609C0.350386 7.04349 0 6.6931 0 6.26088Z"/>
        <path fill-rule="evenodd" clip-rule="evenodd" d="M3.52148 10.174C3.52148 9.74174 3.87187 9.39136 4.30409 9.39136H5.0867C5.51893 9.39136 5.86931 9.74174 5.86931 10.174C5.86931 10.6062 5.51893 10.9566 5.0867 10.9566H4.30409C3.87187 10.9566 3.52148 10.6062 3.52148 10.174Z"/>
        <path fill-rule="evenodd" clip-rule="evenodd" d="M7.43457 10.174C7.43457 9.74174 7.78496 9.39136 8.21718 9.39136H8.99979C9.43201 9.39136 9.7824 9.74174 9.7824 10.174C9.7824 10.6062 9.43201 10.9566 8.99979 10.9566H8.21718C7.78496 10.9566 7.43457 10.6062 7.43457 10.174Z"/>
        <path fill-rule="evenodd" clip-rule="evenodd" d="M11.3477 10.174C11.3477 9.74174 11.698 9.39136 12.1303 9.39136H12.9129C13.3451 9.39136 13.6955 9.74174 13.6955 10.174C13.6955 10.6062 13.3451 10.9566 12.9129 10.9566H12.1303C11.698 10.9566 11.3477 10.6062 11.3477 10.174Z"/>
        <path fill-rule="evenodd" clip-rule="evenodd" d="M3.52148 13.3042C3.52148 12.872 3.87187 12.5216 4.30409 12.5216H5.0867C5.51893 12.5216 5.86931 12.872 5.86931 13.3042C5.86931 13.7364 5.51893 14.0868 5.0867 14.0868H4.30409C3.87187 14.0868 3.52148 13.7364 3.52148 13.3042Z"/>
        <path fill-rule="evenodd" clip-rule="evenodd" d="M7.43457 13.3042C7.43457 12.872 7.78496 12.5216 8.21718 12.5216H8.99979C9.43201 12.5216 9.7824 12.872 9.7824 13.3042C9.7824 13.7364 9.43201 14.0868 8.99979 14.0868H8.21718C7.78496 14.0868 7.43457 13.7364 7.43457 13.3042Z"/>
        <path fill-rule="evenodd" clip-rule="evenodd" d="M11.3477 13.3042C11.3477 12.872 11.698 12.5216 12.1303 12.5216H12.9129C13.3451 12.5216 13.6955 12.872 13.6955 13.3042C13.6955 13.7364 13.3451 14.0868 12.9129 14.0868H12.1303C11.698 14.0868 11.3477 13.7364 11.3477 13.3042Z"/>
    </symbol>
    <symbol id="sf_icon5" viewBox="0 0 18 18">
        <path d="M2.75345 2.12427C2.75297 2.12427 2.75242 2.12427 2.75194 2.12427C2.58169 2.12427 2.42157 2.19063 2.30066 2.31124C2.17842 2.43318 2.11108 2.59554 2.11108 2.76839V12.4269C2.11108 12.7811 2.40036 13.0699 2.756 13.0708C4.25527 13.0744 6.76716 13.3869 8.50002 15.2003V5.0924C8.50002 4.97234 8.46935 4.85955 8.41147 4.76622C6.98922 2.47578 4.25612 2.12778 2.75345 2.12427Z"/>
        <path d="M15.8892 12.4268V2.76827C15.8892 2.59542 15.8219 2.43306 15.6997 2.31112C15.5787 2.19051 15.4185 2.12415 15.2484 2.12415C15.2479 2.12415 15.2474 2.12415 15.2469 2.12415C13.7443 2.12772 11.0112 2.47572 9.58885 4.76615C9.53097 4.85949 9.50037 4.97228 9.50037 5.09234V15.2002C11.2332 13.3868 13.7451 13.0743 15.2444 13.0707C15.6 13.0698 15.8892 12.781 15.8892 12.4268Z"/>
        <path d="M17.3559 4.35156H16.8889V12.4268C16.8889 13.3311 16.1521 14.0685 15.2464 14.0707C13.9747 14.0738 11.8779 14.3224 10.3928 15.728C12.9612 15.0991 15.6687 15.5079 17.2118 15.8595C17.4044 15.9034 17.6035 15.8581 17.7579 15.7351C17.9117 15.6123 17.9999 15.4289 17.9999 15.232V4.99556C18 4.64047 17.711 4.35156 17.3559 4.35156Z"/>
        <path d="M1.11103 12.4268V4.35156H0.644002C0.288971 4.35156 0 4.64047 0 4.99556V15.2318C0 15.4288 0.0882427 15.6121 0.242061 15.7349C0.396304 15.8578 0.595214 15.9034 0.788184 15.8594C2.33122 15.5077 5.0388 15.0989 7.60706 15.7278C6.12208 14.3223 4.02523 14.0737 2.75352 14.0707C1.84788 14.0685 1.11103 13.3311 1.11103 12.4268Z"/>
    </symbol>
    <symbol id="sf_icon6" viewBox="0 0 19 20">
       <path fill-rule="evenodd" clip-rule="evenodd" d="M13.2322 1.63636H13.2166H13.1922H13.1678H13.1433H13.1188H13.0941H13.0694H13.0446H13.0197H12.9947H12.9697H12.9446H12.9194H12.8941H12.8688H12.8434H12.8179H12.7923H12.7667H12.741H12.7152H12.6894H12.6635H12.6375H12.6115H12.5854H12.5592H12.533H12.5067H12.4804H12.4539H12.4275H12.4009H12.3743H12.3477H12.321H12.2942H12.2674H12.2405H12.2135H12.1865H12.1595H12.1324H12.1052H12.078H12.0508H12.0235H11.9961H11.9687H11.9412H11.9137H11.8862H11.8586H11.831H11.8033H11.7755H11.7478H11.72H11.6921H11.6642H11.6363H11.6083H11.5803H11.5523H11.5242H11.496H11.4679H11.4397H11.4115H11.3832H11.3549H11.3266H11.2982H11.2699H11.2414H11.213H11.1845H11.156H11.1275H11.0989H11.0704H11.0418H11.0131H10.9845H10.9558H10.9271H10.8984H10.8697H10.8409H10.8121H10.7833H10.7545H10.7257H10.6969H10.668H10.6391H10.6103H10.5814H10.5525H10.5235H10.4946H10.4657H10.4367H10.4078H10.3788H10.3498H10.3208H10.2918H10.2629H10.2339H10.2049H10.1759H10.1469H10.1179H10.0889H10.0598H10.0308H10.0018H9.97285H9.94385H9.91486H9.88587H9.85689H9.82792H9.79895H9.76999H9.74104H9.7121H9.68316H9.65424H9.62533H9.59643H9.56754H9.53867H9.50981H9.48097H9.45214H9.42332H9.39453H9.36575H9.33699H9.30826H9.27954H9.25084H9.22216H9.19351H9.16487H9.13627H9.10768H9.07912H9.05059H9.02209H8.99361H8.96516H8.93674H8.90834H8.87998H8.85165H8.82335H8.79509H8.76685H8.73865H8.71049H8.68236H8.65427H8.62621H8.59819H8.57021H8.54227H8.51437H8.48651H8.45869H8.43091H8.40317H8.37548H8.34784H8.32023H8.29268H8.26517H8.2377H8.21029H8.18292H8.1556H8.12833H8.10112H8.07395H8.04684H8.01978H7.99277H7.96582H7.93893H7.91208H7.8853H7.85857H7.8319H7.80529H7.77874H7.75225H7.72582H7.69946H7.67315H7.64691H7.62073H7.59462H7.56857H7.54259H7.51667H7.49083H7.46505H7.43934H7.4137H7.38813H7.36263H7.3372H7.31185H7.28657H7.26136H7.23623H7.21118H7.1862H7.1613H7.13647H7.11173H7.08706H7.06247H7.03797H7.01354H6.9892H6.96494H6.94077H6.91668H6.89267H6.86875H6.84492H6.82117H6.79752H6.77395H6.75047H6.72708H6.70378H6.68057H6.65746H6.63444H6.61151H6.58868H6.56594H6.5433H6.52076H6.49831H6.47597H6.45372H6.43157H6.40952H6.38757H6.36573H6.34398H6.32234H6.30081H6.27938H6.25806H6.23684H6.21573H6.19472H6.17383H6.15304H6.13237H6.1118H6.09135H6.07101H6.05078H6.03067H6.01067H5.99078H5.97101H5.95136H5.93183H5.91241H5.89311H5.87393H5.85487H5.83594H5.81712H5.79843H5.77986H5.76141H5.74309H5.7249H5.70683H5.68888H5.67107H5.65338H5.63582H5.61839H5.6011H5.58393H5.5669H5.54999H5.53323H5.51659H5.50009H5.48373H5.4675H5.45141H5.43546H5.41964H5.40397H5.38843H5.37304H5.35779H5.34268H5.32771H5.31289H5.29821H5.28367H5.26928H5.25504H5.24095H5.227H5.2132H5.19956H5.18606H5.17271H5.15952H5.14647H5.13358H5.12085H5.10827H5.09584H5.08357H5.07146H5.05951H5.04771H5.03607H5.02459H5.01328H5.00212H4.99113H4.98029H4.96963H4.95912H4.94878H4.93861H4.9286H4.91876H4.90909C4.64317 1.63636 4.49812 1.70049 4.41691 1.75463C4.33058 1.81219 4.26282 1.89478 4.20908 2.00227C4.15373 2.11295 4.12198 2.23355 4.10534 2.33337C4.09735 2.38135 4.09367 2.41953 4.09203 2.44253C4.09134 2.45206 4.09104 2.45867 4.09091 2.46193V12.2727H10.6364C11.0882 12.2727 11.4545 12.639 11.4545 13.0909V15.5381C11.4547 15.5413 11.455 15.5479 11.4557 15.5575C11.4573 15.5805 11.461 15.6187 11.469 15.6666C11.4856 15.7665 11.5174 15.887 11.5727 15.9977C11.6265 16.1052 11.6942 16.1878 11.7806 16.2454C11.8618 16.2995 12.0068 16.3636 12.2727 16.3636C12.5386 16.3636 12.6837 16.2995 12.7649 16.2454C12.8512 16.1878 12.919 16.1052 12.9727 15.9977C13.0281 15.887 13.0598 15.7665 13.0765 15.6666C13.0845 15.6187 13.0882 15.5805 13.0898 15.5575C13.0905 15.5479 13.0908 15.5413 13.0909 15.5381V4.90909V2.45455H13.9091C13.0909 2.45455 13.0909 2.45414 13.0909 2.45373L13.0909 2.45287L13.0909 2.45103L13.0909 2.44687L13.0911 2.43666C13.0912 2.42902 13.0914 2.41974 13.0918 2.40891C13.0925 2.38728 13.0938 2.35933 13.0962 2.32594C13.1009 2.25944 13.11 2.16979 13.1276 2.06436C13.1476 1.94441 13.1797 1.79711 13.2322 1.63636ZM2.45455 12.2727V2.45455H3.27273C2.45455 2.45455 2.45455 2.45414 2.45455 2.45373L2.45455 2.45287L2.45455 2.45103L2.45458 2.44687L2.4547 2.43666C2.45482 2.42902 2.45504 2.41974 2.4554 2.40891C2.45612 2.38728 2.45744 2.35933 2.45982 2.32594C2.46457 2.25944 2.47367 2.16979 2.49125 2.06436C2.52574 1.85736 2.59627 1.56886 2.74547 1.27046C2.89627 0.968855 3.13533 0.64236 3.50922 0.393095C3.88824 0.140416 4.35683 0 4.90909 0H4.91876H4.9286H4.93861H4.94878H4.95912H4.96963H4.98029H4.99113H5.00212H5.01328H5.02459H5.03607H5.04771H5.05951H5.07146H5.08357H5.09584H5.10827H5.12085H5.13358H5.14647H5.15952H5.17271H5.18606H5.19956H5.2132H5.227H5.24095H5.25504H5.26928H5.28367H5.29821H5.31289H5.32771H5.34268H5.35779H5.37304H5.38843H5.40397H5.41964H5.43546H5.45141H5.4675H5.48373H5.50009H5.51659H5.53323H5.54999H5.5669H5.58393H5.6011H5.61839H5.63582H5.65338H5.67107H5.68888H5.70683H5.7249H5.74309H5.76141H5.77986H5.79843H5.81712H5.83594H5.85487H5.87393H5.89311H5.91241H5.93183H5.95136H5.97101H5.99078H6.01067H6.03067H6.05078H6.07101H6.09135H6.1118H6.13237H6.15304H6.17383H6.19472H6.21573H6.23684H6.25806H6.27938H6.30081H6.32234H6.34398H6.36573H6.38757H6.40952H6.43157H6.45372H6.47597H6.49831H6.52076H6.5433H6.56594H6.58868H6.61151H6.63444H6.65746H6.68057H6.70378H6.72708H6.75047H6.77395H6.79752H6.82117H6.84492H6.86875H6.89267H6.91668H6.94077H6.96494H6.9892H7.01354H7.03797H7.06247H7.08706H7.11173H7.13647H7.1613H7.1862H7.21118H7.23623H7.26136H7.28657H7.31185H7.3372H7.36263H7.38813H7.4137H7.43934H7.46505H7.49083H7.51667H7.54259H7.56857H7.59462H7.62073H7.64691H7.67315H7.69946H7.72582H7.75225H7.77874H7.80529H7.8319H7.85857H7.8853H7.91208H7.93893H7.96582H7.99277H8.01978H8.04684H8.07395H8.10112H8.12833H8.1556H8.18292H8.21029H8.2377H8.26517H8.29268H8.32023H8.34784H8.37548H8.40317H8.43091H8.45869H8.48651H8.51437H8.54227H8.57021H8.59819H8.62621H8.65427H8.68236H8.71049H8.73865H8.76685H8.79509H8.82335H8.85165H8.87998H8.90834H8.93674H8.96516H8.99361H9.02209H9.05059H9.07912H9.10768H9.13627H9.16487H9.19351H9.22216H9.25084H9.27954H9.30826H9.33699H9.36575H9.39453H9.42332H9.45214H9.48097H9.50981H9.53867H9.56754H9.59643H9.62533H9.65424H9.68316H9.7121H9.74104H9.76999H9.79895H9.82792H9.85689H9.88587H9.91486H9.94385H9.97285H10.0018H10.0308H10.0598H10.0889H10.1179H10.1469H10.1759H10.2049H10.2339H10.2629H10.2918H10.3208H10.3498H10.3788H10.4078H10.4367H10.4657H10.4946H10.5235H10.5525H10.5814H10.6103H10.6391H10.668H10.6969H10.7257H10.7545H10.7833H10.8121H10.8409H10.8697H10.8984H10.9271H10.9558H10.9845H11.0131H11.0418H11.0704H11.0989H11.1275H11.156H11.1845H11.213H11.2414H11.2699H11.2982H11.3266H11.3549H11.3832H11.4115H11.4397H11.4679H11.496H11.5242H11.5523H11.5803H11.6083H11.6363H11.6642H11.6921H11.72H11.7478H11.7755H11.8033H11.831H11.8586H11.8862H11.9137H11.9412H11.9687H11.9961H12.0235H12.0508H12.078H12.1052H12.1324H12.1595H12.1865H12.2135H12.2405H12.2674H12.2942H12.321H12.3477H12.3743H12.4009H12.4275H12.4539H12.4804H12.5067H12.533H12.5592H12.5854H12.6115H12.6375H12.6635H12.6894H12.7152H12.741H12.7667H12.7923H12.8179H12.8434H12.8688H12.8941H12.9194H12.9446H12.9697H12.9947H13.0197H13.0446H13.0694H13.0941H13.1188H13.1433H13.1678H13.1922H13.2166H13.2408H13.265H13.289H13.313H13.3369H13.3607H13.3845H13.4081H13.4317H13.4551H13.4785H13.5018H13.525H13.5481H13.5711H13.594H13.6168H13.6395H13.6621H13.6846H13.7071H13.7294H13.7516H13.7738H13.7958H13.8177H13.8395H13.8613H13.8829H13.9044H13.9258H13.9471H13.9683H13.9894H14.0104H14.0312H14.052H14.0727H14.0932H14.1136H14.134H14.1542H14.1743H14.1942H14.2141H14.2338H14.2535H14.273H14.2924H14.3116H14.3308H14.3498H14.3687H14.3875H14.4062H14.4247H14.4432H14.4615H14.4796H14.4977H14.5156H14.5334H14.5511H14.5686H14.586H14.6033H14.6204H14.6374H14.6543H14.671H14.6876H14.7041H14.7204H14.7366H14.7527H14.7686H14.7844H14.8001H14.8156H14.8309H14.8462H14.8612H14.8762H14.891H14.9056H14.9201H14.9345H14.9487H14.9628H14.9767H14.9904H15.0041H15.0175H15.0308H15.044H15.057H15.0699H15.0826H15.0951H15.1075H15.1198H15.1319H15.1438H15.1555H15.1671H15.1786H15.1899H15.201H15.212H15.2228H15.2334H15.2439H15.2542H15.2643H15.2743H15.2841H15.2937H15.3032H15.3125H15.3216H15.3306H15.3394H15.348H15.3564H15.3647H15.3728H15.3807H15.3885H15.396H15.4034H15.4106H15.4177H15.4245H15.4312H15.4377H15.444H15.4501H15.456H15.4618H15.4674H15.4728H15.478H15.483H15.4878H15.4925H15.4969H15.5012H15.5052H15.5091H15.5128H15.5163H15.5196H15.5227H15.5256H15.5283H15.5308H15.5332H15.5353H15.5372H15.5389H15.5405H15.5418H15.5429H15.5438H15.5445H15.545H15.5454C15.5454 0 15.5454 0 15.5455 0C16.0977 0 16.5663 0.140416 16.9453 0.393095C17.3192 0.64236 17.5583 0.968855 17.7091 1.27046C17.8583 1.56886 17.9288 1.85736 17.9633 2.06436C17.9809 2.16979 17.99 2.25944 17.9947 2.32594C17.9971 2.35933 17.9984 2.38728 17.9991 2.40891L17.9996 2.42386L17.9998 2.43666L18 2.44687L18 2.45103L18 2.45287L18 2.45373C18 2.45414 18 2.45455 17.1818 2.45455H18V4.90909C18 5.36096 17.6337 5.72727 17.1818 5.72727H14.7273V15.5455H13.9091C14.7273 15.5455 14.7273 15.5459 14.7273 15.5463L14.7273 15.5471L14.7273 15.549L14.7272 15.5531L14.7271 15.5633C14.727 15.571 14.7268 15.5803 14.7264 15.5911C14.7257 15.6127 14.7244 15.6407 14.722 15.6741C14.7172 15.7406 14.7081 15.8302 14.6906 15.9356C14.6561 16.1426 14.5856 16.4311 14.4363 16.7295C14.2855 17.0311 14.0465 17.3576 13.6726 17.6069C13.2936 17.8596 12.825 18 12.2727 18H12.2631H12.2533H12.2435H12.2335H12.2234H12.2132H12.2029H12.1925H12.1819H12.1713H12.1606H12.1497H12.1387H12.1277H12.1165H12.1052H12.0939H12.0824H12.0708H12.0591H12.0473H12.0354H12.0234H12.0113H11.9991H11.9867H11.9743H11.9618H11.9492H11.9365H11.9237H11.9108H11.8978H11.8847H11.8715H11.8582H11.8448H11.8313H11.8177H11.804H11.7902H11.7763H11.7624H11.7483H11.7342H11.7199H11.7056H11.6912H11.6766H11.662H11.6473H11.6325H11.6176H11.6027H11.5876H11.5725H11.5572H11.5419H11.5265H11.511H11.4954H11.4797H11.464H11.4482H11.4322H11.4162H11.4001H11.384H11.3677H11.3514H11.335H11.3185H11.3019H11.2852H11.2685H11.2516H11.2347H11.2178H11.2007H11.1836H11.1664H11.1491H11.1317H11.1143H11.0968H11.0792H11.0615H11.0438H11.026H11.0081H10.9901H10.9721H10.954H10.9358H10.9176H10.8992H10.8808H10.8624H10.8439H10.8253H10.8066H10.7879H10.7691H10.7502H10.7313H10.7123H10.6932H10.6741H10.6549H10.6356H10.6163H10.5969H10.5775H10.5579H10.5384H10.5187H10.499H10.4793H10.4595H10.4396H10.4196H10.3996H10.3796H10.3595H10.3393H10.319H10.2988H10.2784H10.258H10.2375H10.217H10.1965H10.1758H10.1552H10.1344H10.1137H10.0928H10.0719H10.051H10.03H10.009H9.98786H9.96672H9.94552H9.92428H9.90299H9.88165H9.86027H9.83883H9.81735H9.79582H9.77425H9.75263H9.73097H9.70926H9.6875H9.6657H9.64386H9.62198H9.60005H9.57808H9.55607H9.53402H9.51193H9.4898H9.46762H9.44541H9.42316H9.40087H9.37854H9.35618H9.33377H9.31133H9.28886H9.26634H9.2438H9.22121H9.1986H9.17594H9.15326H9.13054H9.10779H9.085H9.06219H9.03934H9.01646H8.99355H8.97061H8.94764H8.92464H8.90161H8.87855H8.85547H8.83235H8.80921H8.78605H8.76285H8.73963H8.71639H8.69312H8.66982H8.64651H8.62317H8.5998H8.57641H8.553H8.52957H8.50611H8.48264H8.45914H8.43563H8.41209H8.38854H8.36496H8.34137H8.31776H8.29413H8.27049H8.24683H8.22315H8.19946H8.17575H8.15202H8.12828H8.10453H8.08077H8.05699H8.0332H8.00939H7.98557H7.96175H7.93791H7.91406H7.8902H7.86633H7.84245H7.81857H7.79467H7.77077H7.74686H7.72294H7.69902H7.67509H7.65115H7.62721H7.60326H7.57931H7.55536H7.5314H7.50744H7.48348H7.45951H7.43554H7.41158H7.38761H7.36364H7.33967H7.3157H7.29173H7.26776H7.24379H7.21983H7.19587H7.17191H7.14796H7.12401H7.10006H7.07612H7.05219H7.02825H7.00433H6.98041H6.9565H6.9326H6.9087H6.88482H6.86094H6.83707H6.81321H6.78936H6.76553H6.7417H6.71788H6.69408H6.67029H6.64651H6.62274H6.59899H6.57525H6.55153H6.52782H6.50412H6.48045H6.45678H6.43314H6.40951H6.3859H6.36231H6.33874H6.31518H6.29164H6.26813H6.24463H6.22116H6.1977H6.17427H6.15086H6.12747H6.10411H6.08077H6.05745H6.03415H6.01088H5.98764H5.96442H5.94123H5.91806H5.89492H5.87181H5.84872H5.82566H5.80264H5.77964H5.75667H5.73373H5.71081H5.68794H5.66509H5.64227H5.61949H5.59673H5.57402H5.55133H5.52868H5.50606H5.48348H5.46093H5.43842H5.41594H5.3935H5.3711H5.34873H5.3264H5.30411H5.28186H5.25965H5.23748H5.21534H5.19325H5.1712H5.14919H5.12722H5.10529H5.08341H5.06157H5.03977H5.01802H4.99631H4.97464H4.95302H4.93145H4.90992H4.88844H4.86701H4.84562H4.82428H4.80299H4.78175H4.76056H4.73941H4.71832H4.69728H4.67629H4.65535H4.63446H4.61362H4.59284H4.57211H4.55143H4.53081H4.51024H4.48972H4.46927H4.44886H4.42852H4.40823H4.38799H4.36782H4.3477H4.32764H4.30764H4.2877H4.26782H4.248H4.22824H4.20854H4.1889H4.16932H4.14981H4.13036H4.11097H4.09165H4.07239H4.05319H4.03406H4.015H3.996H3.97706H3.9582H3.9394H3.92067H3.902H3.88341H3.86488H3.84642H3.82804H3.80972H3.79147H3.7733H3.75519H3.73716H3.7192H3.70132H3.6835H3.66576H3.6481H3.63051H3.61299H3.59555H3.57819H3.5609H3.54369H3.52656H3.5095H3.49252H3.47562H3.4588H3.44206H3.4254H3.40882H3.39232H3.3759H3.35956H3.34331H3.32714H3.31105H3.29504H3.27912H3.26328H3.24753H3.23186H3.21628H3.20078H3.18537H3.17005H3.15481H3.13966H3.1246H3.10963H3.09475H3.07996H3.06526H3.05064H3.03612H3.02169H3.00735H2.99311H2.97895H2.96489H2.95093H2.93705H2.92327H2.90959H2.896H2.88251H2.86911H2.85581H2.84261H2.8295H2.81649H2.80359H2.79077H2.77806H2.76545H2.75294H2.74053H2.72822H2.71601H2.7039H2.6919H2.67999H2.66819H2.6565H2.64491H2.63342H2.62204H2.61076H2.59959H2.58852H2.57757H2.56671H2.55597H2.54534H2.53481H2.52439H2.51408H2.50388H2.49379H2.48381H2.47395H2.46419H2.45455C1.90229 18 1.4337 17.8596 1.05468 17.6069C0.68078 17.3576 0.441726 17.0311 0.290923 16.7295C0.141722 16.4311 0.0711994 16.1426 0.0367004 15.9356C0.0191279 15.8302 0.010025 15.7406 0.00527527 15.6741C0.00289049 15.6407 0.0015748 15.6127 0.000853674 15.5911C0.000492697 15.5803 0.000279437 15.571 0.000156348 15.5633L3.19914e-05 15.5531L7.12005e-06 15.549L1.65809e-06 15.5471L0 15.5463C0 15.5459 0 15.5455 0.818182 15.5455H0V13.0909C0 12.639 0.366312 12.2727 0.818182 12.2727H2.45455ZM16.3636 4.09091H14.7273V2.46193C14.7274 2.45867 14.7277 2.45206 14.7284 2.44253C14.73 2.41953 14.7337 2.38135 14.7417 2.33337C14.7583 2.23355 14.7901 2.11295 14.8454 2.00227C14.8992 1.89478 14.9669 1.81219 15.0533 1.75463C15.1345 1.70049 15.2795 1.63636 15.5455 1.63636C15.8114 1.63636 15.9564 1.70049 16.0376 1.75463C16.124 1.81219 16.1917 1.89478 16.2455 2.00227C16.3008 2.11295 16.3326 2.23355 16.3492 2.33337C16.3572 2.38135 16.3609 2.41953 16.3625 2.44253C16.3632 2.45206 16.3635 2.45867 16.3636 2.46193V4.09091ZM9.85488 15.9356C9.87487 16.0556 9.90696 16.2029 9.95944 16.3636H9.94552H9.92428H9.90299H9.88165H9.86027H9.83883H9.81735H9.79582H9.77425H9.75263H9.73097H9.70926H9.6875H9.6657H9.64386H9.62198H9.60005H9.57808H9.55607H9.53402H9.51193H9.4898H9.46762H9.44541H9.42316H9.40087H9.37854H9.35618H9.33377H9.31133H9.28886H9.26634H9.2438H9.22121H9.1986H9.17594H9.15326H9.13054H9.10779H9.085H9.06219H9.03934H9.01646H8.99355H8.97061H8.94764H8.92464H8.90161H8.87855H8.85547H8.83235H8.80921H8.78605H8.76285H8.73963H8.71639H8.69312H8.66982H8.64651H8.62317H8.5998H8.57641H8.553H8.52957H8.50611H8.48264H8.45914H8.43563H8.41209H8.38854H8.36496H8.34137H8.31776H8.29413H8.27049H8.24683H8.22315H8.19946H8.17575H8.15202H8.12828H8.10453H8.08077H8.05699H8.0332H8.00939H7.98557H7.96175H7.93791H7.91406H7.8902H7.86633H7.84245H7.81857H7.79467H7.77077H7.74686H7.72294H7.69902H7.67509H7.65115H7.62721H7.60326H7.57931H7.55536H7.5314H7.50744H7.48348H7.45951H7.43554H7.41158H7.38761H7.36364H7.33967H7.3157H7.29173H7.26776H7.24379H7.21983H7.19587H7.17191H7.14796H7.12401H7.10006H7.07612H7.05219H7.02825H7.00433H6.98041H6.9565H6.9326H6.9087H6.88482H6.86094H6.83707H6.81321H6.78936H6.76553H6.7417H6.71788H6.69408H6.67029H6.64651H6.62274H6.59899H6.57525H6.55153H6.52782H6.50412H6.48045H6.45678H6.43314H6.40951H6.3859H6.36231H6.33874H6.31518H6.29164H6.26813H6.24463H6.22116H6.1977H6.17427H6.15086H6.12747H6.10411H6.08077H6.05745H6.03415H6.01088H5.98764H5.96442H5.94123H5.91806H5.89492H5.87181H5.84872H5.82566H5.80264H5.77964H5.75667H5.73373H5.71081H5.68794H5.66509H5.64227H5.61949H5.59673H5.57402H5.55133H5.52868H5.50606H5.48348H5.46093H5.43842H5.41594H5.3935H5.3711H5.34873H5.3264H5.30411H5.28186H5.25965H5.23748H5.21534H5.19325H5.1712H5.14919H5.12722H5.10529H5.08341H5.06157H5.03977H5.01802H4.99631H4.97464H4.95302H4.93145H4.90992H4.88844H4.86701H4.84562H4.82428H4.80299H4.78175H4.76056H4.73941H4.71832H4.69728H4.67629H4.65535H4.63446H4.61362H4.59284H4.57211H4.55143H4.53081H4.51024H4.48972H4.46927H4.44886H4.42852H4.40823H4.38799H4.36782H4.3477H4.32764H4.30764H4.2877H4.26782H4.248H4.22824H4.20854H4.1889H4.16932H4.14981H4.13036H4.11097H4.09165H4.07239H4.05319H4.03406H4.015H3.996H3.97706H3.9582H3.9394H3.92067H3.902H3.88341H3.86488H3.84642H3.82804H3.80972H3.79147H3.7733H3.75519H3.73716H3.7192H3.70132H3.6835H3.66576H3.6481H3.63051H3.61299H3.59555H3.57819H3.5609H3.54369H3.52656H3.5095H3.49252H3.47562H3.4588H3.44206H3.4254H3.40882H3.39232H3.3759H3.35956H3.34331H3.32714H3.31105H3.29504H3.27912H3.26328H3.24753H3.23186H3.21628H3.20078H3.18537H3.17005H3.15481H3.13966H3.1246H3.10963H3.09475H3.07996H3.06526H3.05064H3.03612H3.02169H3.00735H2.99311H2.97895H2.96489H2.95093H2.93705H2.92327H2.90959H2.896H2.88251H2.86911H2.85581H2.84261H2.8295H2.81649H2.80359H2.79077H2.77806H2.76545H2.75294H2.74053H2.72822H2.71601H2.7039H2.6919H2.67999H2.66819H2.6565H2.64491H2.63342H2.62204H2.61076H2.59959H2.58852H2.57757H2.56671H2.55597H2.54534H2.53481H2.52439H2.51408H2.50388H2.49379H2.48381H2.47395H2.46419H2.45455C2.18862 16.3636 2.04358 16.2995 1.96237 16.2454C1.87604 16.1878 1.80827 16.1052 1.75453 15.9977C1.69919 15.887 1.66744 15.7665 1.6508 15.6666C1.6428 15.6187 1.63912 15.5805 1.63748 15.5575C1.6368 15.5479 1.63649 15.5413 1.63636 15.5381V13.9091H3.27273H9.81818V15.5455H10.6364C9.81818 15.5455 9.81818 15.5459 9.81818 15.5463L9.81818 15.5471L9.81819 15.549L9.81821 15.5531L9.81834 15.5633C9.81841 15.5682 9.81853 15.5737 9.81869 15.5798C9.81879 15.5834 9.8189 15.5871 9.81903 15.5911C9.81976 15.6127 9.82107 15.6407 9.82346 15.6741C9.82821 15.7406 9.83731 15.8302 9.85488 15.9356Z"/>
        <path fill-rule="evenodd" clip-rule="evenodd" d="M5.72754 5.72724C5.72754 5.27537 6.09385 4.90906 6.54572 4.90906H10.6366C11.0885 4.90906 11.4548 5.27537 11.4548 5.72724C11.4548 6.17911 11.0885 6.54542 10.6366 6.54542H6.54572C6.09385 6.54542 5.72754 6.17911 5.72754 5.72724Z"/>
        <path fill-rule="evenodd" clip-rule="evenodd" d="M5.72754 8.99994C5.72754 8.54808 6.09385 8.18176 6.54572 8.18176H10.6366C11.0885 8.18176 11.4548 8.54808 11.4548 8.99994C11.4548 9.45181 11.0885 9.81813 10.6366 9.81813H6.54572C6.09385 9.81813 5.72754 9.45181 5.72754 8.99994Z"/>
    </symbol>
    <symbol id="sf_icon7" viewBox="0 0 15 18">
        <path d="M5.14691 1.95091C5.13501 3.87802 5.13501 3.90974 5.04381 4.12783C4.92485 4.42919 4.71469 4.68693 4.45299 4.86141C4.0406 5.13501 4.07629 5.13104 1.93108 5.1469L0 5.1588L0.00793052 11.1344L0.0198263 17.1101L0.114992 17.3163C0.166541 17.4313 0.289464 17.6018 0.392561 17.6969C0.745469 18.03 0.186367 18.0062 7.21677 17.9943L13.4621 17.9824L13.6564 17.8833C13.7634 17.8278 13.9181 17.7088 14.0013 17.6137C14.2987 17.2727 14.2749 17.9983 14.2749 9.00114C14.2749 0.0396519 14.2948 0.733572 14.0093 0.40049C13.9339 0.30929 13.7793 0.186367 13.6643 0.126886L13.4621 0.019825L9.31043 0.00792885L5.1588 -1.90735e-06L5.14691 1.95091ZM11.6658 7.73225C11.7927 7.86707 11.8165 7.92259 11.8165 8.06137C11.8165 8.15654 11.7847 8.28342 11.7372 8.3548C11.5786 8.62047 11.8442 8.60461 7.36745 8.60461C3.46167 8.60461 3.30703 8.60065 3.196 8.52927C2.86688 8.31118 2.84706 7.89086 3.16031 7.65691C3.27134 7.57761 3.2872 7.57761 7.39124 7.57364H11.5111L11.6658 7.73225ZM11.5667 10.5119C11.9235 10.734 11.8958 11.2375 11.5191 11.4199C11.3605 11.4992 11.2613 11.4992 7.37142 11.4992C3.65993 11.4992 3.38237 11.4953 3.25151 11.4279C2.96205 11.2851 2.85499 10.9441 3.0136 10.6864C3.18014 10.4167 2.91843 10.4286 7.39124 10.4286C11.4239 10.4286 11.4318 10.4286 11.5667 10.5119ZM7.6014 13.1924C7.98603 13.3748 7.98603 13.9458 7.6014 14.1282C7.47848 14.1877 7.24453 14.1956 5.41258 14.1956C3.14048 14.1956 3.17617 14.1996 3.0136 13.9379C2.85895 13.6881 2.94619 13.3629 3.20393 13.2122C3.35064 13.129 3.37443 13.125 5.40465 13.125C7.24453 13.125 7.47848 13.1329 7.6014 13.1924Z"/>
        <path d="M1.9907 1.87169C0.979555 2.88283 0.127025 3.75916 0.0913374 3.8226C-0.0593424 4.1081 0.138921 4.44911 0.483898 4.50066C0.579064 4.51255 1.36022 4.52049 2.22068 4.51255C3.62835 4.50066 3.80282 4.49273 3.94557 4.42928C4.1478 4.33808 4.30641 4.1874 4.41347 3.98518C4.49674 3.83053 4.50071 3.78295 4.5126 2.12547C4.52053 0.888309 4.5126 0.388686 4.47691 0.309381C4.40554 0.134909 4.24296 0.0397429 4.02091 0.0397429H3.83058L1.9907 1.87169Z"/>
    </symbol>
    <symbol id="sf_icon8" viewBox="0 0 19 16">
        <path fill-rule="evenodd" clip-rule="evenodd" d="M4.90659 1.40169C2.97126 1.40169 1.40237 2.97058 1.40237 4.9059V7.70928C1.40237 7.85023 1.41066 7.98895 1.42671 8.12503L1.44381 8.27004L1.40158 8.40982L1.40169 8.41012V14.5956L1.85779 15.1277L1.40169 14.5956L4.75696 11.7197C5.13803 11.393 5.62337 11.2135 6.12527 11.2135H13.3167C15.252 11.2135 16.8209 9.6446 16.8209 7.70928V4.9059C16.8209 2.97058 15.252 1.40169 13.3167 1.40169H4.90659ZM0.000684417 4.9059C0.000684417 2.19645 2.19713 0 4.90659 0H13.3167C16.0262 0 18.2226 2.19645 18.2226 4.9059V7.70928C18.2226 10.4187 16.0262 12.6152 13.3167 12.6152H6.12527C5.95797 12.6152 5.79619 12.675 5.66916 12.7839L2.31389 15.6598L1.86218 15.1329L2.31389 15.6598C1.40466 16.4392 0 15.7931 0 14.5956V8.41012C0 8.32672 0.00736129 8.24459 0.0215698 8.16449C0.00773884 8.01444 0.000684417 7.86259 0.000684417 7.70928V4.9059Z"/>
        <path fill-rule="evenodd" clip-rule="evenodd" d="M5.61133 5.05725C5.61133 4.78111 6.18696 4.55725 6.89704 4.55725H13.3256C14.0357 4.55725 14.6113 4.78111 14.6113 5.05725C14.6113 5.33339 14.0357 5.55725 13.3256 5.55725H6.89704C6.18696 5.55725 5.61133 5.33339 5.61133 5.05725Z"/>
        <path fill-rule="evenodd" clip-rule="evenodd" d="M5.61133 8.05725C5.61133 7.78111 6.18696 7.55725 6.89704 7.55725H13.3256C14.0357 7.55725 14.6113 7.78111 14.6113 8.05725C14.6113 8.33339 14.0357 8.55725 13.3256 8.55725H6.89704C6.18696 8.55725 5.61133 8.33339 5.61133 8.05725Z"/>

    </symbol>
</svg>