<svg width="25" height="25" viewBox="0 0 25 25" fill="none" xmlns="http://www.w3.org/2000/svg">
<path d="M18.1658 14.863C18.02 15.009 13.1105 19.8493 12.7656 20.2055C13.8326 20.937 15.0575 21.4046 16.3398 21.5699C17.6221 21.7352 18.9253 21.5935 20.1424 21.1564C20.4339 21.0496 20.9494 20.9178 21.2515 20.7718L21.5573 20.4441C22.9996 18.8812 23.9837 16.95 24.4013 14.863C22.3252 13.9797 19.6056 13.6734 18.1658 14.863Z" fill="#0575C0"/>
<path d="M18.1658 8.66927C19.538 10.0476 22.7269 10.1652 24.2094 9.00762C23.8538 7.46186 22.4318 4.73363 20.8925 3.43006L20.4659 3.03828C19.4007 2.10174 18.1809 1.35812 16.8611 0.840729L16.0754 0.562919L14.8276 0.238807C13.9782 0.0756503 13.115 -0.00427058 12.2502 0.000175771C11.4141 0.000181338 10.5802 0.0861111 9.76167 0.256616L8.45697 0.612782L7.71397 0.879907C6.6291 1.34205 5.61715 1.95995 4.70996 2.71416C6.01369 2.31456 7.39269 2.22626 8.73659 2.45633C10.0805 2.6864 11.352 3.22845 12.4493 4.0391C12.4493 4.0391 18.0129 8.51612 18.1658 8.66927Z" fill="#FEE927"/>
<path d="M3.77867 21.103C4.9101 22.2149 6.2484 23.0934 7.71765 23.6888L8.46066 23.9559L9.76891 24.3121C11.4105 24.6427 13.1003 24.6536 14.746 24.3441L16.0827 24.0058L16.9643 23.6888C18.0866 23.2293 19.1376 22.6116 20.0856 21.8545C18.7362 22.2365 17.3193 22.3161 15.9357 22.0878C14.552 21.8594 13.2355 21.3286 12.0797 20.5331L4.34392 12.7901C3.41301 14.1537 2.91715 15.7682 2.92191 17.4202C2.92304 18.3081 3.0634 19.1903 3.33785 20.0345C3.45508 20.3802 3.59157 20.7191 3.74668 21.0496L3.77867 21.103Z" fill="#68BCEB"/>
<path d="M3.45866 3.78266C2.35016 4.91792 1.47452 6.25984 0.881253 7.73255L0.61107 8.47694L0.255566 9.78763C-0.0851888 11.4322 -0.0851888 13.1294 0.255566 14.774L0.61107 16.0811L0.881253 16.829C1.33871 17.9179 1.95578 18.9323 2.7121 19.8386C2.45705 19.0062 2.32295 18.1414 2.31393 17.2707C2.30957 15.409 2.90698 13.5959 4.0168 12.1027L11.749 4.36321C10.6813 3.63202 9.45635 3.1638 8.17385 2.99669C6.89136 2.82958 5.5876 2.96831 4.36875 3.40157C4.08079 3.50841 3.78217 3.62951 3.48354 3.77554L3.45866 3.78266Z" fill="#80C428"/>
</svg>
