<svg width="16" height="14" viewBox="0 0 16 14" fill="none" xmlns="http://www.w3.org/2000/svg">
    <path fill-rule="evenodd" clip-rule="evenodd" d="M3.35235 0.197454C3.61563 -0.0658181 4.04248 -0.0658181 4.30575 0.197454L15.0922 10.9839C15.3554 11.2471 15.3554 11.674 15.0922 11.9373C14.8289 12.2005 14.402 12.2005 14.1388 11.9373L3.35235 1.15085C3.08908 0.887576 3.08908 0.460727 3.35235 0.197454Z" fill="#333333"/>
    <path fill-rule="evenodd" clip-rule="evenodd" d="M9.47495 1.88118C9.59634 1.5292 9.98007 1.34227 10.3321 1.46365C12.4366 2.18944 14.2134 3.81089 15.4325 5.93423C15.7528 6.49197 15.829 7.14703 15.6616 7.75105C15.5621 8.10985 15.1906 8.32007 14.8318 8.22059C14.473 8.12112 14.2628 7.74963 14.3623 7.39084C14.4347 7.12964 14.4016 6.84657 14.2633 6.60557C13.1725 4.70582 11.63 3.3375 9.89248 2.73829C9.5405 2.6169 9.35357 2.23316 9.47495 1.88118ZM5.89902 1.98283C6.03914 2.32779 5.87309 2.72101 5.52814 2.86113C3.92469 3.51244 2.50607 4.8265 1.48461 6.60563C1.30286 6.92219 1.30287 7.31119 1.48462 7.62775C2.98289 10.2373 5.32134 11.8357 7.87392 11.8357C9.68555 11.8357 11.3798 11.0352 12.7513 9.63974C13.0123 9.37421 13.4391 9.37052 13.7047 9.63152C13.9702 9.89251 13.9739 10.3193 13.7129 10.5849C12.1318 12.1935 10.1053 13.184 7.87392 13.184C4.71512 13.184 1.98556 11.2082 0.315331 8.29909C-0.105108 7.5668 -0.105111 6.66659 0.315324 5.9343C1.45766 3.94464 3.0887 2.39672 5.02073 1.61195C5.36568 1.47183 5.75891 1.63788 5.89902 1.98283Z" fill="#333333"/>
    <path fill-rule="evenodd" clip-rule="evenodd" d="M8.15216 5.79736C7.86566 5.73695 7.56729 5.77144 7.30213 5.89561C7.03697 6.01979 6.81944 6.22691 6.68241 6.48566C6.54539 6.74442 6.49632 7.04074 6.54261 7.32986C6.58891 7.61897 6.72807 7.88515 6.93904 8.08818C7.15002 8.2912 7.42135 8.42003 7.71203 8.45519C8.0027 8.49036 8.29693 8.42995 8.55023 8.28309C8.80353 8.13623 9.00214 7.9109 9.11605 7.64117C9.22995 7.37144 9.25296 7.07196 9.18159 6.788L10.4892 6.45934C10.632 7.02727 10.586 7.62623 10.3581 8.16569C10.1303 8.70516 9.73311 9.1558 9.2265 9.44952C8.7199 9.74324 8.13145 9.86407 7.5501 9.79374C6.96874 9.72341 6.42608 9.46575 6.00413 9.0597C5.58218 8.65365 5.30387 8.12129 5.21128 7.54306C5.11868 6.96484 5.21682 6.37218 5.49087 5.85467C5.76492 5.33717 6.19998 4.92293 6.7303 4.67458C7.26062 4.42622 7.85737 4.35725 8.43036 4.47807L8.15216 5.79736Z" fill="#333333"/>
</svg>
