<svg width="60" height="60" viewBox="0 0 60 60" fill="none" xmlns="http://www.w3.org/2000/svg">
<circle cx="30" cy="30" r="30" fill="#707274"/>
<path d="M41.0006 20.7784H24.8917C23.7246 20.7784 22.7784 21.7246 22.7784 22.8917V43.3867C22.7784 44.5538 23.7246 45.5 24.8917 45.5H41.0006C42.1677 45.5 43.1139 44.5538 43.1139 43.3867V22.8917C43.1139 21.7246 42.1677 20.7784 41.0006 20.7784Z" fill="white"/>
<path d="M41.0006 20.7784H24.8917C23.7246 20.7784 22.7784 21.7246 22.7784 22.8917V43.3867C22.7784 44.5538 23.7246 45.5 24.8917 45.5H41.0006C42.1677 45.5 43.1139 44.5538 43.1139 43.3867V22.8917C43.1139 21.7246 42.1677 20.7784 41.0006 20.7784Z" fill="white"/>
<path d="M20.7848 20.8981C20.7848 20.3376 21.0075 19.8001 21.4038 19.4038C21.8001 19.0075 22.3376 18.7848 22.8981 18.7848H36.3354V16.1133C36.3354 15.5528 36.1128 15.0153 35.7165 14.619C35.3202 14.2226 34.7826 14 34.2222 14H18.1133C17.5528 14 17.0153 14.2226 16.619 14.619C16.2226 15.0153 16 15.5528 16 16.1133V36.6082C16 37.1687 16.2226 37.7062 16.619 38.1025C17.0153 38.4989 17.5528 38.7215 18.1133 38.7215H20.7848V20.8981Z" fill="white"/>
</svg>
