<svg width="16" height="16" viewBox="0 0 16 16" fill="none" xmlns="http://www.w3.org/2000/svg">
<g opacity="0.5">
<path fill-rule="evenodd" clip-rule="evenodd" d="M0 11.7895C0 11.3244 0.377024 10.9474 0.842107 10.9474H9.26318C9.72826 10.9474 10.1053 11.3244 10.1053 11.7895C10.1053 12.2546 9.72826 12.6316 9.26318 12.6316H0.842107C0.377024 12.6316 0 12.2546 0 11.7895Z" fill="#F6C358"/>
<path fill-rule="evenodd" clip-rule="evenodd" d="M5.89478 3.36841C5.89478 2.90333 6.2718 2.52631 6.73688 2.52631H15.158C15.623 2.52631 16.0001 2.90333 16.0001 3.36841C16.0001 3.8335 15.623 4.21052 15.158 4.21052H6.73688C6.2718 4.21052 5.89478 3.8335 5.89478 3.36841Z" fill="#F6C358"/>
<path fill-rule="evenodd" clip-rule="evenodd" d="M12.6316 13.4737C13.5618 13.4737 14.3158 12.7197 14.3158 11.7895C14.3158 10.8593 13.5618 10.1053 12.6316 10.1053C11.7014 10.1053 10.9474 10.8593 10.9474 11.7895C10.9474 12.7197 11.7014 13.4737 12.6316 13.4737ZM12.6316 15.1579C14.4919 15.1579 16 13.6498 16 11.7895C16 9.92918 14.4919 8.42108 12.6316 8.42108C10.7713 8.42108 9.26318 9.92918 9.26318 11.7895C9.26318 13.6498 10.7713 15.1579 12.6316 15.1579Z" fill="#F6C358"/>
<path fill-rule="evenodd" clip-rule="evenodd" d="M3.36843 5.05264C4.29859 5.05264 5.05264 4.29859 5.05264 3.36843C5.05264 2.43826 4.29859 1.68421 3.36843 1.68421C2.43826 1.68421 1.68421 2.43826 1.68421 3.36843C1.68421 4.29859 2.43826 5.05264 3.36843 5.05264ZM3.36843 6.73685C5.22876 6.73685 6.73685 5.22876 6.73685 3.36843C6.73685 1.5081 5.22876 0 3.36843 0C1.5081 0 0 1.5081 0 3.36843C0 5.22876 1.5081 6.73685 3.36843 6.73685Z" fill="#F6C358"/>
</g>
</svg>
