<svg width="120" height="120" viewBox="0 0 120 120" fill="none" xmlns="http://www.w3.org/2000/svg">
<path d="M94.6566 29.8416C101.979 38.1966 106.016 48.9245 106.016 60.0304C106.016 71.1363 101.979 81.8643 94.6566 90.2192C93.2204 91.8938 91.6553 93.4536 89.9756 94.8843L87.7692 96.7113C87.2572 97.0889 86.733 97.4665 86.1723 97.8441C83.3844 99.7881 80.3923 101.422 77.2491 102.716C66.0717 107.193 53.5887 107.145 42.4462 102.582C39.3888 101.261 36.4762 99.6287 33.7546 97.7101L32.2064 96.5895C31.4141 95.9805 30.6705 95.3715 29.9147 94.7137C28.2255 93.2635 26.6485 91.6877 25.1971 90C18.0171 81.6583 14.0687 71.0206 14.0687 60.0182C14.0687 49.0159 18.0171 38.3782 25.1971 30.0365C26.6517 28.3517 28.2285 26.7762 29.9147 25.3227C30.6705 24.665 31.4141 24.1047 32.2064 23.447C32.7184 23.0572 33.2426 22.6918 33.7546 22.3264C36.4866 20.4651 39.3983 18.8819 42.4462 17.6005C53.5751 12.9738 66.0816 12.9212 77.2491 17.4543C80.3969 18.7137 83.3907 20.3279 86.1723 22.2655C86.733 22.6065 87.2572 23.0207 87.7692 23.3983C88.5128 23.9586 89.2686 24.5554 90.0122 25.1766L94.6566 29.8416ZM109.163 56.7113V56.4312C111.345 51.7174 115.465 51.559 120 55.9196C120 48.721 118.464 43.0207 114.99 39.7929C110.114 35.4446 104.97 38.2826 100.776 32.3751C100.288 27.2107 103.836 25.067 109.943 26.4799C106.286 20.3045 102.093 16.151 97.5091 15.0791C96.5758 14.8557 95.6117 14.7898 94.6566 14.8843C93.0596 15.0357 91.4874 15.3834 89.9756 15.9196C89.2393 16.162 88.4905 16.3653 87.7326 16.5286C87.2064 16.6343 86.6722 16.6954 86.1357 16.7113C84.5255 16.7915 82.9218 16.4559 81.4791 15.7369C78.5412 11.5469 80.4551 8.01459 86.1357 6.16319C86.2531 6.14017 86.3648 6.09467 86.4649 6.0292C86.3623 5.96872 86.2514 5.92357 86.1357 5.89522C83.3561 4.24779 80.3497 3.01666 77.2125 2.24114C74.8138 1.6223 72.2971 1.6223 69.8984 2.24114C64.9492 3.92202 63.8033 8.03895 59.8903 9.95125C58.8901 10.4316 57.8131 10.7325 56.7087 10.8404H56.4283C51.7107 8.63578 51.5522 4.53103 55.9163 -3.05176e-05C50.3941 -3.05176e-05 45.7131 0.93785 42.3486 2.89887C41.4078 3.51161 40.5478 4.24001 39.7887 5.06696C35.8635 9.56148 37.8748 14.2265 33.6936 18.1973C33.2805 18.5888 32.8406 18.951 32.3771 19.2813H32.0967C31.3302 19.3319 30.5603 19.2869 29.805 19.1474C26.4892 18.3435 25.2824 15.0791 26.4892 10.1218L25.0874 10.9622C19.6627 14.3727 15.9691 18.2704 14.9817 22.4482C13.6774 28.9159 18.7729 31.9488 15.6034 38.6236C11.3369 41.6565 7.692 39.6955 5.91223 33.6784C2.34051 39.9391 0.828931 45.676 2.19423 50.1705C4.29094 56.2606 10.0081 56.4312 10.8492 63.3861V63.6784C8.69159 68.3922 4.53474 68.5505 0 64.2387C0 71.3885 1.58472 77.1376 5.04673 80.3532C9.9228 84.6528 15.0792 81.827 19.2727 87.7466C19.7603 92.8867 16.2007 95.0548 10.0935 93.6297C13.7505 99.8416 17.9561 104.044 22.5396 105.079C23.3865 105.246 24.2486 105.324 25.1117 105.311C26.722 105.175 28.3078 104.831 29.8293 104.287C30.5851 104.044 31.3287 103.812 32.1211 103.63C32.6331 103.544 33.1573 103.435 33.6692 103.398C35.3537 103.304 37.0338 103.648 38.5453 104.397C41.4709 108.624 39.5449 112.205 33.6692 114.019C33.6373 114.028 33.6037 114.028 33.5717 114.019C33.5717 114.019 33.6692 114.019 33.6692 114.105C36.3901 115.705 39.3133 116.934 42.3608 117.759C44.8874 118.443 47.5507 118.443 50.0772 117.759C54.9533 116.114 56.0748 112.058 59.9025 110.134C60.9618 109.624 62.099 109.295 63.267 109.16H63.5473C68.2771 111.352 68.4234 115.469 64.0715 120C69.3499 120 73.8236 119.16 77.1638 117.345C78.305 116.722 79.3449 115.929 80.2479 114.994C84.1243 110.56 82.2105 105.993 86.087 102.058C86.6056 101.565 87.1687 101.121 87.7692 100.731C87.7376 100.742 87.7032 100.742 87.6717 100.731C87.6717 100.731 87.6717 100.731 87.7692 100.646C87.8667 100.56 87.7692 100.646 87.8545 100.646C87.8292 100.677 87.8006 100.706 87.7692 100.731C88.5183 100.694 89.2691 100.727 90.0122 100.828C93.5108 101.486 94.8883 104.799 93.6692 109.903C94.048 109.708 94.4107 109.484 94.7542 109.233C100.362 105.773 104.153 101.803 105.14 97.5152C106.445 91.0109 101.337 88.0268 104.482 81.3398C104.482 81.3398 104.482 81.4372 104.482 81.4738C108.736 78.4896 112.381 80.4506 114.161 86.4312C117.818 80.2192 119.269 74.4701 117.903 69.9878C115.697 63.8611 109.943 63.6784 109.163 56.7113Z" fill="#BAB9B9"/>
</svg>
