<svg width="40" height="35" viewBox="0 0 40 35" fill="none" xmlns="http://www.w3.org/2000/svg">
<path d="M20.723 28.9088C19.5599 28.8909 18.4385 28.4728 17.5477 27.7248L11.6815 22.5583C10.7584 21.6958 9.34689 21.6275 8.3448 22.3969L0.00309731 28.532V32.5145C-0.0568549 33.5828 0.760741 34.4975 1.82907 34.5574C1.88407 34.5605 1.93929 34.5612 1.9944 34.5596H31.5403C32.7244 34.5596 33.9084 33.6985 33.9084 32.5145V22.074L23.3062 28.2092C22.5268 28.6777 21.6324 28.92 20.723 28.9088Z" fill="#F6C358"/>
<path d="M20.2923 18.4682C21.6001 18.4682 22.6603 17.408 22.6603 16.1002C22.6603 14.7924 21.6001 13.7322 20.2923 13.7322C18.9845 13.7322 17.9243 14.7924 17.9243 16.1002C17.9243 17.408 18.9845 18.4682 20.2923 18.4682Z" fill="white"/>
<path opacity="0.6" d="M39.5054 4.20644C39.1619 3.73836 38.6312 3.44354 38.0523 3.39914L8.72157 0.00864691C8.14976 -0.0392531 7.57908 0.112894 7.10708 0.439232C6.68906 0.802242 6.40486 1.29494 6.29979 1.83853L5.81543 6.03632H31.5404C33.993 6.09195 35.9762 8.05142 36.0611 10.5032V29.5008C36.0611 29.3932 36.5455 29.2855 36.7608 29.0702C37.2064 28.7203 37.4648 28.1837 37.4604 27.6172L39.9898 5.76715C40.0457 5.20276 39.871 4.6398 39.5054 4.20644Z" fill="#F6C358"/>
<path d="M31.5402 8.1889H1.99423C0.810225 8.1889 0.00292969 9.31903 0.00292969 10.503V25.8411L7.10686 20.6746C8.91016 19.3369 11.4049 19.4493 13.0807 20.9437L19.0006 26.1102C19.8933 26.8681 21.1683 26.9761 22.1758 26.3793L33.9081 19.5444V10.503C33.8267 9.23961 32.8052 8.24134 31.5402 8.1889ZM20.2922 20.6208C17.7956 20.6208 15.7715 18.5968 15.7715 16.1C15.7715 13.6034 17.7955 11.5793 20.2922 11.5793C22.7889 11.5793 24.813 13.6033 24.813 16.1C24.813 18.5968 22.789 20.6208 20.2922 20.6208Z" fill="#F6C358"/>
</svg>
