<svg width="16" height="16" viewBox="0 0 16 16" fill="none" xmlns="http://www.w3.org/2000/svg">
<path fill-rule="evenodd" clip-rule="evenodd" d="M11.134 0.71341C11.134 0.71341 12.8014 -0.046003 14.2542 1.40679C15.707 2.85958 14.9476 4.52699 14.9476 4.52699L5.24029 14.2343L0.906687 14.7543L1.42672 10.4207L11.134 0.71341ZM2.70986 11.0443L2.44984 13.2111L4.61665 12.9511L13.7628 3.80498C13.7808 3.71908 13.7959 3.61231 13.7975 3.49309C13.8016 3.19339 13.727 2.78641 13.3008 2.36018C12.8746 1.93395 12.4676 1.85934 12.1679 1.86348C12.0487 1.86512 11.9419 1.88018 11.856 1.89819L2.70986 11.0443Z" fill="#333333"/>
<path fill-rule="evenodd" clip-rule="evenodd" d="M12.4479 6.66371L8.81589 3.03173L9.76929 2.07834L13.4013 5.71031L12.4479 6.66371Z" fill="#333333"/>
</svg>
