<svg width="12" height="14" viewBox="0 0 12 14" fill="none" xmlns="http://www.w3.org/2000/svg">
<path d="M1.27476 14L10.5848 14C10.952 14 11.2498 13.7062 11.2498 13.3438L11.2498 12.9062C11.2498 12.5438 10.952 12.25 10.5848 12.25C10.5848 9.76268 9.17119 7.66352 7.23643 7C9.17119 6.33648 10.5848 4.23732 10.5848 1.75C10.952 1.75 11.2498 1.45619 11.2498 1.09375L11.2498 0.65625C11.2498 0.293809 10.952 -2.6028e-08 10.5848 -5.81361e-08L1.27476 -8.72042e-07C0.907482 -9.0415e-07 0.609757 0.293808 0.609757 0.656249L0.609757 1.09375C0.609757 1.45619 0.907482 1.75 1.27476 1.75C1.27476 4.23732 2.68832 6.33648 4.62309 7C2.68832 7.66352 1.27476 9.76267 1.27476 12.25C0.907481 12.25 0.609756 12.5438 0.609756 12.9062L0.609756 13.3437C0.609756 13.7062 0.907481 14 1.27476 14ZM3.04809 1.75L8.81142 1.75C8.81142 3.86799 7.53119 5.6875 5.92976 5.6875C4.3286 5.6875 3.04809 3.86868 3.04809 1.75Z" fill="#B8B9BA"/>
</svg>
