<svg width="14" height="20" viewBox="0 0 14 20" fill="none" xmlns="http://www.w3.org/2000/svg">
<path d="M7 0C3.13997 0 0 3.15398 0 7.03125C0 8.34102 0.361161 9.61934 1.04421 10.7283L6.60127 19.7228C6.83169 20.0966 7.37497 20.0909 7.59819 19.7148L13.0134 10.6333C13.6582 9.54781 14 8.30211 14 7.03125C14 3.15398 10.86 0 7 0ZM7 10.5547C5.04214 10.5547 3.49222 8.95395 3.49222 7.03125C3.49222 5.09262 5.06998 3.50781 7 3.50781C8.93002 3.50781 10.5078 5.09262 10.5078 7.03125C10.5078 8.93699 8.97871 10.5547 7 10.5547Z" fill="#B8B9BA"/>
</svg>
