<svg width="20" height="20" viewBox="0 0 20 20" fill="none" xmlns="http://www.w3.org/2000/svg">
<g clip-path="url(#clip0_7:4187)">
<path d="M7.84622 17.3333L7.84622 15.558C8.95467 15.2693 9.76929 14.3867 9.76929 13.3333C9.76929 12.28 8.95467 11.398 7.84622 11.1087L7.84622 2.66666C7.84622 2.29866 7.50158 2 7.07697 2C6.65235 2 6.30775 2.29866 6.30775 2.66666L6.30775 11.1087C5.1993 11.3973 4.38468 12.28 4.38468 13.3333C4.38468 14.3866 5.1993 15.2687 6.30775 15.558L6.30775 17.3333C6.30775 17.702 6.65235 18 7.07697 18C7.50158 18 7.84622 17.702 7.84622 17.3333ZM5.92312 13.3333C5.92312 12.782 6.4408 12.3333 7.07697 12.3333C7.71313 12.3333 8.23081 12.782 8.23081 13.3333C8.23081 13.8847 7.71313 14.3333 7.07697 14.3333C6.4408 14.3333 5.92312 13.8847 5.92312 13.3333Z" fill="#B8B9BA"/>
<path d="M14 17.3333L14 8.89134C15.1085 8.602 15.9231 7.72 15.9231 6.66669C15.9231 5.61337 15.1085 4.73134 14 4.44203L14 2.66666C14 2.29866 13.6554 2 13.2308 2C12.8062 2 12.4616 2.29866 12.4616 2.66666L12.4616 4.442C11.3531 4.73134 10.5385 5.61334 10.5385 6.66666C10.5385 7.71997 11.3531 8.602 12.4616 8.89131L12.4616 17.3333C12.4616 17.702 12.8062 18 13.2308 18C13.6554 18 14 17.702 14 17.3333ZM12.077 6.66666C12.077 6.11531 12.5946 5.66666 13.2308 5.66666C13.867 5.66666 14.3847 6.11531 14.3847 6.66666C14.3847 7.218 13.867 7.66666 13.2308 7.66666C12.5946 7.66666 12.077 7.218 12.077 6.66666Z" fill="#B8B9BA"/>
</g>
<defs>
<clipPath id="clip0_7:4187">
<rect width="16" height="12" fill="white" transform="translate(16 2) rotate(90)"/>
</clipPath>
</defs>
</svg>
