<svg width="18" height="17" viewBox="0 0 18 17" fill="none" xmlns="http://www.w3.org/2000/svg">
<path fill-rule="evenodd" clip-rule="evenodd" d="M3.69678 11.4606C3.69678 11.0883 3.99861 10.7865 4.37093 10.7865H13.809C14.1814 10.7865 14.4832 11.0883 14.4832 11.4606V15.5055C14.4832 15.8779 14.1814 16.1797 13.809 16.1797H4.37093C3.99861 16.1797 3.69678 15.8779 3.69678 15.5055V11.4606ZM5.04508 12.1348V14.8314H13.1349V12.1348H5.04508Z" fill="#333333"/>
<path fill-rule="evenodd" clip-rule="evenodd" d="M3.69678 0.674151C3.69678 0.301828 3.99861 0 4.37093 0H13.809C14.1814 0 14.4832 0.301828 14.4832 0.674151V4.04491C14.4832 4.41723 14.1814 4.71906 13.809 4.71906H4.37093C3.99861 4.71906 3.69678 4.41723 3.69678 4.04491V0.674151ZM5.04508 1.3483V3.37076H13.1349V1.3483H5.04508Z" fill="#333333"/>
<path fill-rule="evenodd" clip-rule="evenodd" d="M1 6.06733C1 4.57804 2.20731 3.37073 3.6966 3.37073H14.483C15.9723 3.37073 17.1796 4.57804 17.1796 6.06733V11.4605C17.1796 11.8329 16.8778 12.1347 16.5055 12.1347H1.67415C1.30183 12.1347 1 11.8329 1 11.4605V6.06733ZM3.6966 4.71903C2.95196 4.71903 2.3483 5.32269 2.3483 6.06733V10.7864H15.8313V6.06733C15.8313 5.32269 15.2277 4.71903 14.483 4.71903H3.6966Z" fill="#333333"/>
<path fill-rule="evenodd" clip-rule="evenodd" d="M11.7861 8.08979C11.7861 7.34514 12.3898 6.74149 13.1344 6.74149C13.8791 6.74149 14.4827 7.34514 14.4827 8.08979C14.4827 8.83443 13.8791 9.43809 13.1344 9.43809C12.3898 9.43809 11.7861 8.83443 11.7861 8.08979Z" fill="#333333"/>
</svg>
