<svg width="20" height="20" viewBox="0 0 20 20" fill="none" xmlns="http://www.w3.org/2000/svg">
<path fill-rule="evenodd" clip-rule="evenodd" d="M5 0C4.30964 0 3.75 0.559644 3.75 1.25V2.5H1C0.447715 2.5 0 2.94772 0 3.5V19C0 19.5523 0.447715 20 1 20H19C19.5523 20 20 19.5523 20 19V3.5C20 2.94772 19.5523 2.5 19 2.5H16.25V1.25C16.25 0.559644 15.6904 0 15 0C14.3096 0 13.75 0.559644 13.75 1.25V2.5H6.25V1.25C6.25 0.559644 5.69036 0 5 0ZM2.25 6.25C1.69772 6.25 1.25 6.69772 1.25 7.25V17.75C1.25 18.3023 1.69772 18.75 2.25 18.75H17.75C18.3023 18.75 18.75 18.3023 18.75 17.75V7.25C18.75 6.69772 18.3023 6.25 17.75 6.25H2.25Z" fill="#B8B9BA"/>
<path d="M12.5 13.5C12.5 12.9477 12.9477 12.5 13.5 12.5H16.5C17.0523 12.5 17.5 12.9477 17.5 13.5V16.5C17.5 17.0523 17.0523 17.5 16.5 17.5H13.5C12.9477 17.5 12.5 17.0523 12.5 16.5V13.5Z" fill="#B8B9BA"/>
</svg>
