<svg width="40" height="40" viewBox="0 0 40 40" fill="none" xmlns="http://www.w3.org/2000/svg">
<g clip-path="url(#clip0_8:1022)">
<path d="M6.11889 4.72046C6.11781 4.72046 6.1166 4.72046 6.11552 4.72046C5.7372 4.72046 5.38138 4.86793 5.11269 5.13595C4.84104 5.40693 4.69141 5.76774 4.69141 6.15184V27.6152C4.69141 28.4023 5.33424 29.0442 6.12454 29.0462C9.45627 29.0541 15.0382 29.7486 18.889 33.7783V11.3163C18.889 11.0495 18.8209 10.7989 18.6923 10.5915C15.5317 5.50161 9.45816 4.72827 6.11889 4.72046Z" fill="#F6C358"/>
<path d="M35.3088 27.6152V6.15172C35.3088 5.76761 35.1592 5.4068 34.8875 5.13583C34.6188 4.86781 34.2628 4.72034 33.8848 4.72034C33.8836 4.72034 33.8824 4.72034 33.8813 4.72034C30.5422 4.72828 24.4686 5.50162 21.308 10.5915C21.1793 10.7989 21.1113 11.0495 21.1113 11.3163V33.7782C24.9621 29.7484 30.5441 29.054 33.8758 29.0461C34.666 29.0441 35.3088 28.4022 35.3088 27.6152Z" fill="#F6C358"/>
<path opacity="0.6" d="M38.5688 9.67023H37.531V27.6152C37.531 29.6248 35.8936 31.2634 33.881 31.2684C31.055 31.2752 26.3953 31.8277 23.0952 34.9511C28.8027 33.5537 34.8194 34.4621 38.2484 35.2435C38.6765 35.341 39.119 35.2403 39.462 34.9669C39.8038 34.6942 39.9999 34.2865 39.9999 33.8489V11.1013C40.0001 10.3122 39.3579 9.67023 38.5688 9.67023Z" fill="#F6C358"/>
<path opacity="0.6" d="M2.46896 27.6152V9.67023H1.43112C0.642157 9.67023 0 10.3122 0 11.1013V33.8485C0 34.2862 0.196095 34.6937 0.537914 34.9665C0.880676 35.2397 1.3227 35.3409 1.75152 35.2431C5.18049 34.4616 11.1973 33.5533 16.9046 34.9507C13.6046 31.8275 8.94495 31.275 6.11894 31.2683C4.10641 31.2634 2.46896 29.6248 2.46896 27.6152Z" fill="#F6C358"/>
</g>
<defs>
<clipPath id="clip0_8:1022">
<rect width="40" height="40" fill="white"/>
</clipPath>
</defs>
</svg>
