<svg width="16" height="13" viewBox="0 0 16 13" fill="none" xmlns="http://www.w3.org/2000/svg">
    <path fill-rule="evenodd" clip-rule="evenodd" d="M7.87395 1.3483C5.32135 1.3483 2.98289 2.94672 1.48461 5.55634C1.30286 5.8729 1.30287 6.26191 1.48462 6.57847C2.98289 9.18805 5.32134 10.7864 7.87392 10.7864C10.4265 10.7864 12.765 9.18803 14.2633 6.57841C14.445 6.26185 14.445 5.87284 14.2633 5.55628C12.765 2.9467 10.4265 1.3483 7.87395 1.3483ZM0.315324 4.88501C1.98555 1.9759 4.71512 0 7.87395 0C11.0327 0 13.7623 1.97587 15.4325 4.88495C15.853 5.61724 15.853 6.51745 15.4325 7.24974C13.7623 10.1589 11.0327 12.1348 7.87392 12.1348C4.71512 12.1348 1.98556 10.1589 0.315331 7.2498C-0.105108 6.51751 -0.105111 5.6173 0.315324 4.88501Z" fill="#333333"/>
    <path fill-rule="evenodd" clip-rule="evenodd" d="M7.87395 4.71903C7.1293 4.71903 6.52565 5.32269 6.52565 6.06733C6.52565 6.81198 7.1293 7.41564 7.87395 7.41564C8.6186 7.41564 9.22225 6.81198 9.22225 6.06733C9.22225 5.32269 8.6186 4.71903 7.87395 4.71903ZM5.17735 6.06733C5.17735 4.57804 6.38466 3.37073 7.87395 3.37073C9.36324 3.37073 10.5706 4.57804 10.5706 6.06733C10.5706 7.55663 9.36324 8.76394 7.87395 8.76394C6.38466 8.76394 5.17735 7.55663 5.17735 6.06733Z" fill="#333333"/>
</svg>
