<svg width="40" height="40" viewBox="0 0 40 40" fill="none" xmlns="http://www.w3.org/2000/svg">
<path d="M38.8281 37.1823H37.5781V7.40884C37.5781 6.63031 37.0538 6 36.4062 6H31.7188C31.0712 6 30.5469 6.63031 30.5469 7.40884V37.1823H28.2031V15.8619C28.2031 15.0833 27.6788 14.453 27.0312 14.453H22.3438C21.6962 14.453 21.1719 15.0833 21.1719 15.8619V37.1823H18.8281V27.1326C18.8281 26.3541 18.3038 25.7238 17.6562 25.7238H12.9688C12.3212 25.7238 11.7969 26.3541 11.7969 27.1326V37.1823H9.45312V21.4972C9.45312 20.7187 8.92883 20.0884 8.28125 20.0884H3.59375C2.94617 20.0884 2.42188 20.7187 2.42188 21.4972V37.1823H1.17188C0.524292 37.1823 0 37.8126 0 38.5912C0 39.3697 0.524292 40 1.17188 40H38.8281C39.4757 40 40 39.3697 40 38.5912C40 37.8126 39.4757 37.1823 38.8281 37.1823Z" fill="#F6C358"/>
</svg>
