<svg width="14" height="14" viewBox="0 0 14 14" fill="none" xmlns="http://www.w3.org/2000/svg">
<path opacity="0.7" d="M13.5834 8.47757C14.5962 3.92686 10.609 -0.207243 5.92661 0.586364C3.38463 -0.990944 0 0.791467 0 3.81557C0 4.51886 0.194057 5.17728 0.531471 5.74481C-0.409676 10.306 3.61016 14.3807 8.28851 13.5329C11.5956 15.2815 15.2501 11.7942 13.5834 8.47757ZM9.13233 11.222C7.90389 11.7272 5.88232 11.7301 4.65912 11.0897C2.91493 10.1598 2.60491 8.0662 4.10958 8.0662C5.24362 8.0662 4.88464 9.3883 6.02975 9.92727C6.5554 10.1702 7.68536 10.1953 8.34212 9.75247C8.99073 9.31837 8.93128 8.63548 8.57872 8.30918C7.64456 7.44681 4.97147 7.78943 3.74944 6.27971C3.21855 5.62478 3.11832 4.46933 3.771 3.63144C4.90854 2.16775 8.24655 2.0786 9.68187 3.18394C11.0071 4.20946 10.6492 5.57059 9.57989 5.57059C8.29375 5.57059 8.96975 3.88782 6.8934 3.88782C5.38814 3.88782 4.79606 4.9582 5.85609 5.47911C7.29316 6.19289 10.9552 5.95458 10.9552 8.74385C10.9523 9.90455 10.2407 10.7698 9.13233 11.222Z" fill="#00AFF0"/>
</svg>
