<svg width="80" height="80" viewBox="0 0 80 80" fill="none" xmlns="http://www.w3.org/2000/svg">
<rect opacity="0.3" x="10" y="10" width="70" height="70" rx="35" fill="url(#paint0_linear)"/>
<path fill-rule="evenodd" clip-rule="evenodd" d="M56.3138 22.2929L62.6778 28.6569C63.0683 29.0474 63.0683 29.6805 62.6778 30.0711L56.3138 36.435C55.9233 36.8256 55.2901 36.8256 54.8996 36.435C54.5091 36.0445 54.5091 35.4113 54.8996 35.0208L59.5564 30.364H58.0498L43.8051 30.364C40.3875 30.364 37.617 33.1345 37.617 36.5521C37.617 36.8793 37.5978 37.202 37.5604 37.5192C38.0247 40.4775 40.5848 42.7403 43.6735 42.7403H61.9706C62.5229 42.7403 62.9706 43.188 62.9706 43.7403C62.9706 44.2926 62.5229 44.7403 61.9706 44.7403H43.6735C40.6215 44.7403 37.9594 43.0705 36.5511 40.5946C35.1429 43.0705 32.4808 44.7403 29.4288 44.7403H14.9208H13.4142L18.0711 49.3972C18.4616 49.7877 18.4616 50.4208 18.0711 50.8114C17.6805 51.2019 17.0474 51.2019 16.6569 50.8114L10.2929 44.4474C9.90237 44.0569 9.90237 43.4237 10.2929 43.0332L16.6569 36.6692C17.0474 36.2787 17.6805 36.2787 18.0711 36.6692C18.4616 37.0598 18.4616 37.6929 18.0711 38.0834L13.4142 42.7403H14.9208H29.4288C32.5174 42.7403 35.0776 40.4775 35.5418 37.5192C35.5045 37.202 35.4853 36.8793 35.4853 36.5521C35.4853 33.1345 32.7148 30.364 29.2972 30.364H11C10.4477 30.364 10 29.9162 10 29.364C10 28.8117 10.4477 28.364 11 28.364H29.2972C32.4471 28.364 35.1816 30.1426 36.5511 32.7504C37.9207 30.1426 40.6552 28.364 43.8051 28.364L59.5564 28.364L54.8996 23.7071C54.5091 23.3166 54.5091 22.6834 54.8996 22.2929C55.2901 21.9024 55.9233 21.9024 56.3138 22.2929Z" fill="url(#paint1_linear)"/>
<circle cx="36" cy="36" r="35" stroke="url(#paint2_linear)" stroke-width="2"/>
<defs>
<linearGradient id="paint0_linear" x1="45" y1="10" x2="45" y2="80" gradientUnits="userSpaceOnUse">
<stop stop-color="#FCDAA0"/>
<stop offset="1" stop-color="#B5A78F"/>
</linearGradient>
<linearGradient id="paint1_linear" x1="36.4853" y1="22" x2="36.4853" y2="51.1043" gradientUnits="userSpaceOnUse">
<stop stop-color="#D3AE7B"/>
<stop offset="1" stop-color="#493304"/>
</linearGradient>
<linearGradient id="paint2_linear" x1="36" y1="0" x2="36" y2="72" gradientUnits="userSpaceOnUse">
<stop stop-color="#D3AE7B"/>
<stop offset="1" stop-color="#493304"/>
</linearGradient>
</defs>
</svg>
