<svg width="80" height="80" viewBox="0 0 80 80" fill="none" xmlns="http://www.w3.org/2000/svg">
<path opacity="0.3" d="M24 34H80V76C80 77.1046 79.1046 78 78 78H26C24.8954 78 24 77.1046 24 76V34Z" fill="url(#paint0_linear)"/>
<path fill-rule="evenodd" clip-rule="evenodd" d="M20.624 2.09732C21.9344 1.95748 23.6469 2.16463 25.7814 2.73432C32.6295 4.56205 36.6085 7.67836 38.7481 10.9464C39.274 11.7496 39.6854 12.5572 39.9998 13.3504C40.3141 12.5572 40.7255 11.7496 41.2514 10.9464C43.391 7.67836 47.3701 4.56205 54.2181 2.73432C56.3526 2.16463 58.0651 1.95748 59.3755 2.09732C60.6893 2.23753 61.778 2.7566 62.3078 3.80459C62.8122 4.80228 62.6446 5.96997 62.2291 7.03511C61.8031 8.12711 61.0468 9.30023 60.0718 10.4657C58.1169 12.8022 55.1572 15.2568 51.7234 17.1445C50.4386 17.8507 49.0782 18.4827 47.6699 19.0001H68C69.1046 19.0001 70 19.8955 70 21.0001V33.0001C70 34.1047 69.1046 35.0001 68 35.0001H65V71C65 72.1046 64.1046 73 63 73H17C15.8954 73 15 72.1046 15 71V35.0001H12C10.8954 35.0001 10 34.1047 10 33.0001V21.0001C10 19.8955 10.8954 19.0001 12 19.0001H32.3296C30.9214 18.4827 29.5609 17.8507 28.2762 17.1445C24.8423 15.2568 21.8826 12.8022 19.9277 10.4657C18.9527 9.30023 18.1964 8.12711 17.7704 7.03511C17.3549 5.96997 17.1873 4.80228 17.6917 3.80459C18.2215 2.7566 19.3102 2.23753 20.624 2.09732ZM38.8274 18.412C35.5435 18.1935 32.2194 17.0288 29.2431 15.3927C26.0049 13.6126 23.2447 11.3106 21.464 9.18216C20.5712 8.11512 19.9557 7.12864 19.635 6.30646C19.3037 5.45745 19.3496 4.95642 19.4775 4.70338C19.58 4.50065 19.8777 4.18699 20.8332 4.08502C21.7922 3.98268 23.232 4.12389 25.2619 4.66566C31.7399 6.39463 35.2566 9.26822 37.073 12.0426C38.6222 14.409 38.9745 16.7605 38.8274 18.412ZM41.1721 18.412C44.456 18.1935 47.7801 17.0288 50.7564 15.3927C53.9947 13.6126 56.7548 11.3106 58.5356 9.18216C59.4283 8.11512 60.0438 7.12864 60.3646 6.30646C60.6958 5.45745 60.6499 4.95642 60.522 4.70338C60.4195 4.50065 60.1218 4.18699 59.1663 4.08502C58.2073 3.98268 56.7675 4.12389 54.7376 4.66566C48.2596 6.39463 44.7429 9.26822 42.9265 12.0426C41.3773 14.409 41.025 16.7605 41.1721 18.412ZM12 21.0001H39V33H17H15V33.0001H12L12 21.0001ZM41 33V21.0001H68V33.0001H65V33H63H41ZM17 35.0001H39V71H17V35.0001ZM41 35.0001V71H63V35.0001H41Z" fill="url(#paint1_linear)"/>
<defs>
<linearGradient id="paint0_linear" x1="52" y1="34" x2="52" y2="78" gradientUnits="userSpaceOnUse">
<stop stop-color="#FCDAA0"/>
<stop offset="1" stop-color="#B5A78F"/>
</linearGradient>
<linearGradient id="paint1_linear" x1="40" y1="2.05518" x2="40" y2="73" gradientUnits="userSpaceOnUse">
<stop stop-color="#D3AE7B"/>
<stop offset="1" stop-color="#493304"/>
</linearGradient>
</defs>
</svg>
