<svg width="80" height="80" viewBox="0 0 80 80" fill="none" xmlns="http://www.w3.org/2000/svg">
<circle opacity="0.3" cx="30" cy="50" r="30" fill="url(#paint0_linear)"/>
<path fill-rule="evenodd" clip-rule="evenodd" d="M9.84072 40.883C9.41505 40.4853 8.74764 40.5078 8.34967 40.9334C7.95184 41.3591 7.97434 42.0267 8.39973 42.4245L13.416 47.1125C13.8239 47.4936 14.4794 47.4849 14.8771 47.0927L17.1446 44.8553L19.5689 47.3883L18.8461 47.8324C16.7647 49.1112 16.1119 51.8448 17.3907 53.9262C18.2262 55.2859 19.6829 56.036 21.1727 56.036C21.5141 56.036 21.8571 55.994 22.1949 55.9135C22.1385 56.8163 22.359 57.7131 22.8423 58.4998C23.6439 59.8045 25.0932 60.6124 26.6252 60.6124C26.97 60.6124 27.3121 60.5693 27.6462 60.4892C27.5903 61.3913 27.8109 62.2875 28.2938 63.0736C29.0955 64.3783 30.5447 65.1862 32.0766 65.1862C32.4226 65.1862 32.7654 65.1429 33.1004 65.0623C33.0464 65.9404 33.251 66.8423 33.7454 67.6471C33.9942 68.052 34.3069 68.4169 34.6706 68.7229C36.1133 69.9367 38.2345 70.0885 39.8396 69.1023L40.432 68.7384L41.1516 69.9045C41.4011 70.3089 41.7145 70.6733 42.0787 70.9786C43.5237 72.1896 45.6454 72.3374 47.2484 71.3484C48.3513 70.6679 49.1032 69.526 49.3007 68.2464C50.5332 68.6442 51.8908 68.484 52.9936 67.8035C54.0968 67.1227 54.8489 65.9805 55.046 64.7002C56.2747 65.0979 57.6393 64.937 58.7387 64.2586C59.8419 63.578 60.5943 62.4356 60.7913 61.1553C62.0198 61.553 63.3845 61.3921 64.4839 60.7138C66.563 59.431 67.2105 56.6961 65.9279 54.6173L65.4752 53.8835L69.5796 51.5834L71.1461 55.5864C71.3507 56.1096 71.9506 56.3842 72.4805 56.1965L79.2313 53.8056C79.7804 53.6111 80.068 53.0082 79.8735 52.4591C79.679 51.9098 79.0763 51.6225 78.527 51.8168L72.7386 53.867L63.3657 29.9145L79.2708 23.5523C79.8118 23.3361 80.0749 22.7221 79.8585 22.1812C79.6422 21.6403 79.0285 21.3769 78.4874 21.5936L61.6101 28.3444C61.0721 28.5594 60.8084 29.1683 61.0195 29.7081L61.4464 30.7994L56.1665 31.7312C56.1388 31.7362 56.1121 31.7429 56.0854 31.7498L46.9064 27.5693C46.7433 27.4939 46.5575 27.4631 46.3788 27.4783L34.7939 28.4759L34.2407 27.9874L35.9739 26.2775C36.394 25.8629 36.385 25.1604 35.9544 24.7569L9.8417 0.285078C9.41673 -0.113172 8.74905 -0.0915159 8.3508 0.333453C7.95255 0.758422 7.9742 1.42597 8.39917 1.82436L33.7114 25.5461L14.117 44.8795L9.84072 40.883ZM63.3762 58.9184C62.2872 59.59 60.8547 59.2508 60.1827 58.162L54.3144 48.6514C53.6432 47.5634 53.9517 46.0307 55.0697 45.3697C56.1501 44.7314 57.5651 45.0809 58.2244 46.1497L64.1327 55.725C64.8044 56.814 64.4652 58.2465 63.3762 58.9184ZM57.631 62.4633C56.5422 63.135 55.1095 62.7957 54.4377 61.7069L49.7511 54.1113C49.0797 53.0233 49.3883 51.4906 50.5062 50.8297C51.5867 50.1914 53.0016 50.541 53.661 51.6096L58.3874 59.2698C59.0523 60.3473 58.7068 61.7994 57.631 62.4633ZM50.1323 66.2914C49.5293 66.1485 49.0177 65.7792 48.692 65.2517L45.1871 59.5712C44.5159 58.4832 44.8244 56.9505 45.9424 56.2896C47.0227 55.6513 48.4378 56.0007 49.0972 57.0695L52.6421 62.8147C53.3069 63.892 52.9614 65.3443 51.8858 66.0082C51.3583 66.3336 50.7357 66.4344 50.1323 66.2914ZM42.9469 68.7968L40.6235 65.0314C39.9523 63.9434 40.2609 62.4105 41.3788 61.7497C42.4591 61.111 43.8742 61.461 44.5336 62.5295L46.8968 66.3596C47.5616 67.4369 47.2162 68.8893 46.1405 69.553C45.0629 70.2178 43.6108 69.8725 42.9469 68.7968ZM26.6367 43.0454L21.408 46.2582L18.6471 43.3732L32.7357 29.4725L33.7367 30.3563C33.9303 30.5271 34.1788 30.6203 34.4348 30.6203C34.4649 30.6203 34.4951 30.619 34.5253 30.6164L46.2841 29.6037L56.1692 34.1058C57.3337 34.6363 57.8495 36.0151 57.3192 37.1796C56.7888 38.3441 55.4097 38.8601 54.2455 38.3296L48.0679 35.5162C47.5448 35.2777 46.9091 35.5159 46.6708 36.0389C46.4325 36.562 46.6704 37.1977 47.1935 37.436L53.3709 40.2496C53.9645 40.5199 54.5873 40.6478 55.2006 40.6478C56.8844 40.648 58.4968 39.6837 59.2391 38.0541C59.9562 36.479 59.6701 34.6991 58.6522 33.4349L62.2309 32.8034L68.8034 49.5999L64.3655 52.0859L60.0188 45.0411C58.7602 43.0015 56.0581 42.3337 53.9953 43.553C52.3337 44.5354 51.5329 46.5459 51.9679 48.4146C51.1067 48.3566 50.2223 48.5459 49.4317 49.0131C47.7701 49.9955 46.9694 52.006 47.4043 53.8746C46.5431 53.8165 45.6588 54.0058 44.8682 54.4731C43.855 55.072 43.1386 56.0426 42.8515 57.2062C42.6782 57.908 42.6791 58.6401 42.8408 59.3348C41.9796 59.2767 41.0952 59.466 40.3046 59.9332C39.2914 60.5321 38.5751 61.5027 38.2879 62.6662C37.9968 63.8452 38.1935 65.1108 38.8276 66.1385L39.3236 66.9425L38.7347 67.3044C37.6561 67.9671 36.2044 67.6192 35.5426 66.5421C34.8728 65.4518 35.2147 64.02 36.3048 63.3501L37.77 62.4498C38.2662 62.1449 38.4213 61.4952 38.1165 60.999C37.8307 60.5338 37.2418 60.3683 36.7601 60.6008C36.7279 60.6163 33.2832 62.7309 33.2832 62.7309C32.2046 63.3937 30.7529 63.0455 30.0911 61.9686C29.4284 60.8898 29.7766 59.4384 30.8535 58.7765L34.7704 56.3697C35.2667 56.0648 35.4218 55.4152 35.1169 54.9189C34.8121 54.4226 34.1625 54.2674 33.6661 54.5724L27.8319 58.1573C26.7533 58.82 25.3016 58.4721 24.6398 57.395C23.9771 56.3164 24.3251 54.8647 25.4021 54.203L31.84 50.2472C32.3362 49.9423 32.4913 49.2926 32.1865 48.7964C31.8816 48.3001 31.2319 48.1447 30.7356 48.4499L22.3807 53.5838C21.2904 54.2536 19.8584 53.9116 19.1885 52.8215C18.5187 51.7312 18.8607 50.2994 19.9508 49.6294L27.741 44.8427C28.2259 44.5448 28.3855 43.8767 28.0875 43.3919C27.7897 42.907 27.1216 42.7474 26.6367 43.0454ZM40.3994 34.5889L30.6241 40.5953C30.1222 40.904 29.9715 41.6023 30.3053 42.0883C30.6165 42.5412 31.2596 42.6811 31.7285 42.3929L41.3327 36.4916L44.2207 35.982C44.7869 35.8821 45.176 35.3261 45.0762 34.7599C44.9763 34.1938 44.4203 33.8043 43.8541 33.9044L40.7937 34.4444C40.6555 34.466 40.5185 34.5157 40.3994 34.5889Z" fill="url(#paint1_linear)"/>
<defs>
<linearGradient id="paint0_linear" x1="30" y1="20" x2="30" y2="80" gradientUnits="userSpaceOnUse">
<stop stop-color="#FCDAA0"/>
<stop offset="1" stop-color="#B5A78F"/>
</linearGradient>
<linearGradient id="paint1_linear" x1="43.9999" y1="0" x2="43.9999" y2="71.9999" gradientUnits="userSpaceOnUse">
<stop stop-color="#D3AE7B"/>
<stop offset="1" stop-color="#493304"/>
</linearGradient>
</defs>
</svg>
