<svg width="80" height="80" viewBox="0 0 80 80" fill="none" xmlns="http://www.w3.org/2000/svg">
<path opacity="0.3" d="M79.4823 39.9321C79.7681 38.8652 79.135 37.7685 78.068 37.4826L21.8709 22.4246C20.8039 22.1387 19.7072 22.7719 19.4214 23.8388L9.17045 62.0957C8.88457 63.1627 9.51773 64.2593 10.5847 64.5452L66.7819 79.6032C67.8488 79.8891 68.9455 79.2559 69.2313 78.189L79.4823 39.9321Z" fill="url(#paint0_linear)"/>
<path fill-rule="evenodd" clip-rule="evenodd" d="M23 27C25.2091 27 27 25.2091 27 23C27 20.7909 25.2091 19 23 19C20.7909 19 19 20.7909 19 23C19 25.2091 20.7909 27 23 27ZM23 29C26.3137 29 29 26.3137 29 23C29 19.6863 26.3137 17 23 17C19.6863 17 17 19.6863 17 23C17 26.3137 19.6863 29 23 29ZM27 34H16L16 39.0354C17.6961 39.2781 19 40.7368 19 42.5V52.5C19 54.2632 17.6961 55.7219 16 55.9646V61H30V55.9646C28.3039 55.7219 27 54.2632 27 52.5V34ZM16 32C14.8954 32 14 32.8954 14 34V39.5C14 40.3284 14.6716 41 15.5 41C16.3284 41 17 41.6716 17 42.5V52.5C17 53.3284 16.3284 54 15.5 54C14.6716 54 14 54.6716 14 55.5V61C14 62.1046 14.8954 63 16 63H30C31.1046 63 32 62.1046 32 61V55.5C32 54.6716 31.3284 54 30.5 54C29.6716 54 29 53.3284 29 52.5V34C29 32.8954 28.1046 32 27 32H16ZM38 24C38 23.4477 38.4477 23 39 23H72C72.5523 23 73 23.4477 73 24C73 24.5523 72.5523 25 72 25H39C38.4477 25 38 24.5523 38 24ZM38 44C38 43.4477 38.4477 43 39 43H72C72.5523 43 73 43.4477 73 44C73 44.5523 72.5523 45 72 45H39C38.4477 45 38 44.5523 38 44ZM39 49C38.4477 49 38 49.4477 38 50C38 50.5523 38.4477 51 39 51H64C64.5523 51 65 50.5523 65 50C65 49.4477 64.5523 49 64 49H39ZM38 30C38 29.4477 38.4477 29 39 29H64C64.5523 29 65 29.4477 65 30C65 30.5523 64.5523 31 64 31H39C38.4477 31 38 30.5523 38 30ZM39 56C38.4477 56 38 56.4477 38 57C38 57.5523 38.4477 58 39 58H54C54.5523 58 55 57.5523 55 57C55 56.4477 54.5523 56 54 56H39ZM38 37C38 36.4477 38.4477 36 39 36H54C54.5523 36 55 36.4477 55 37C55 37.5523 54.5523 38 54 38H39C38.4477 38 38 37.5523 38 37Z" fill="url(#paint1_linear)"/>
<defs>
<linearGradient id="paint0_linear" x1="44.3264" y1="22.356" x2="44.3264" y2="79.6719" gradientUnits="userSpaceOnUse">
<stop stop-color="#FCDAA0"/>
<stop offset="1" stop-color="#B5A78F"/>
</linearGradient>
<linearGradient id="paint1_linear" x1="43.5" y1="17" x2="43.5" y2="63" gradientUnits="userSpaceOnUse">
<stop stop-color="#D3AE7B"/>
<stop offset="1" stop-color="#493304"/>
</linearGradient>
</defs>
</svg>
