<svg width="80" height="80" viewBox="0 0 80 80" fill="none" xmlns="http://www.w3.org/2000/svg">
<path opacity="0.3" d="M16 12.4232C16 11.1665 17.1454 10.2212 18.3792 10.4595L64.3792 19.3434C65.3202 19.5251 66 20.3488 66 21.3071V75.5768C66 76.8335 64.8546 77.7788 63.6208 77.5405L17.6207 68.6566C16.6798 68.4749 16 67.6512 16 66.6929V12.4232Z" fill="url(#paint0_linear)"/>
<path fill-rule="evenodd" clip-rule="evenodd" d="M16 62.2071C16 64.1983 17.1764 65.9688 18.9442 66.7653L18.9435 66.765C19.204 66.8825 19.4774 66.9787 19.7618 67.0514L44.7618 73.4417C47.1333 74.0479 49.4565 72.8557 50.4699 70.8449C50.8077 70.1746 51 69.4134 51 68.5974V68.5973V61.8547V59.8235V24.8653V24.8652C51 24.7225 50.9939 24.5809 50.9821 24.4407C50.9558 24.1307 50.9011 23.8277 50.8202 23.5346C50.3519 21.8381 49.0076 20.4732 47.2382 20.021L22.2382 13.6307C19.0762 12.8224 16 15.2112 16 18.4749V18.7472V60.0705V62.2071ZM53 61.4997V68.5974C53 73.1667 48.6934 76.5109 44.2665 75.3794L19.2665 68.9891C16.1678 68.1971 14 65.4055 14 62.2072V60.0705V18.7472V18.4751C14 14.2564 17.6712 11.0819 21.7187 11.5102L57.7766 5.10968C62.065 4.34845 66 7.64648 66 12.0019V53.3253C66 56.7193 63.5652 59.6243 60.2234 60.2175L53 61.4997ZM26.5852 12.6776L58.1261 7.07889C61.1893 6.53516 64 8.8909 64 12.0019V53.3253C64 55.7496 62.2609 57.8246 59.8739 58.2483L53 59.4685V24.8653C53 21.667 50.8322 18.8754 47.7335 18.0834L26.5852 12.6776ZM20.2564 51.0701C19.7226 50.9284 19.1751 51.2464 19.0334 51.7802C18.8918 52.314 19.2097 52.8616 19.7436 53.0032L44.2436 59.5032C44.7774 59.6448 45.3249 59.3269 45.4666 58.7931C45.6082 58.2592 45.2903 57.7117 44.7564 57.5701L20.2564 51.0701ZM21.5365 57.269C21.6843 56.7368 22.2355 56.4253 22.7676 56.5731L40.7676 61.5731C41.2998 61.7209 41.6113 62.2721 41.4635 62.8043C41.3157 63.3364 40.7645 63.648 40.2324 63.5001L22.2324 58.5001C21.7002 58.3523 21.3887 57.8011 21.5365 57.269ZM42 40.0366C42 44.4549 38.4183 48.0366 34 48.0366C29.5817 48.0366 26 44.4549 26 40.0366C26 35.6183 29.5817 32.0366 34 32.0366C38.4183 32.0366 42 35.6183 42 40.0366ZM44 40.0366C44 45.5595 39.5228 50.0366 34 50.0366C28.4772 50.0366 24 45.5595 24 40.0366C24 34.5138 28.4772 30.0366 34 30.0366C39.5228 30.0366 44 34.5138 44 40.0366Z" fill="url(#paint1_linear)"/>
<defs>
<linearGradient id="paint0_linear" x1="41" y1="10" x2="41" y2="78" gradientUnits="userSpaceOnUse">
<stop stop-color="#FCDAA0"/>
<stop offset="1" stop-color="#B5A78F"/>
</linearGradient>
<linearGradient id="paint1_linear" x1="40" y1="5" x2="40" y2="75.601" gradientUnits="userSpaceOnUse">
<stop stop-color="#D3AE7B"/>
<stop offset="1" stop-color="#493304"/>
</linearGradient>
</defs>
</svg>
