<svg width="80" height="80" viewBox="0 0 80 80" fill="none" xmlns="http://www.w3.org/2000/svg">
<path opacity="0.3" d="M5 13.4632C5 7.40085 10.351 2.73292 16.3572 3.55569L69.3572 10.816C74.3093 11.4943 78 15.7251 78 20.7234V41.5367C78 47.599 72.649 52.2669 66.6428 51.4441L13.6428 44.1839C8.69069 43.5055 5 39.2748 5 34.2764V13.4632Z" fill="url(#paint0_linear)"/>
<path fill-rule="evenodd" clip-rule="evenodd" d="M9.88557 19.6646C4.72238 21.3859 1 26.2582 1 32V33C1 38.5229 5.47715 43 11 43H17.3107C17.8172 42.2845 18.3847 41.6153 19.0058 41H11C6.58172 41 3 37.4183 3 33V32C3 26.4503 7.10974 21.8606 12.4518 21.1081C11.5339 20.7319 10.673 20.2452 9.88557 19.6646ZM27.5372 21.9764C27.819 21.3659 28.1443 20.7797 28.5091 20.2216C27.3539 19.6804 26.1061 19.3041 24.7959 19.123C23.9024 19.8873 22.8953 20.5225 21.8034 21H23C24.6177 21 26.1539 21.3492 27.5372 21.9764ZM31.7177 38.6562H29.5625C22.3828 38.6562 16.5625 44.4765 16.5625 51.6562V55.2188C16.5625 60.7416 21.0397 65.2188 26.5625 65.2188H53.4375C58.9603 65.2188 63.4375 60.7416 63.4375 55.2188V51.6562C63.4375 44.4765 57.6172 38.6562 50.4375 38.6562H48.2823C47.1673 39.5018 45.9191 40.1809 44.5747 40.6562H50.4375C56.5126 40.6562 61.4375 45.5811 61.4375 51.6562V55.2188C61.4375 59.637 57.8558 63.2188 53.4375 63.2188H26.5625C22.1442 63.2188 18.5625 59.637 18.5625 55.2188V51.6562C18.5625 45.5811 23.4874 40.6562 29.5625 40.6562H35.4253C34.0809 40.1809 32.8327 39.5018 31.7177 38.6562ZM44.2159 38.6562C48.605 36.9633 51.7188 32.7047 51.7188 27.7188C51.7188 21.2467 46.4721 16 40 16C33.5279 16 28.2812 21.2467 28.2812 27.7188C28.2812 32.7047 31.395 36.9633 35.7841 38.6562C37.0923 39.1609 38.5138 39.4375 40 39.4375C41.4862 39.4375 42.9077 39.1609 44.2159 38.6562ZM52.645 22.3892C53.8014 21.7435 55.0864 21.3004 56.4518 21.1081C55.5339 20.7319 54.673 20.2452 53.8856 19.6646C53.1356 19.9146 52.416 20.2311 51.7339 20.6071C52.079 21.1754 52.3841 21.7707 52.645 22.3892ZM62.6893 43H70C75.5228 43 80 38.5229 80 33V32C80 25.4296 75.1257 19.9977 68.7959 19.123C67.9024 19.8873 66.8953 20.5225 65.8034 21H67C73.0751 21 78 25.9249 78 32V33C78 37.4183 74.4183 41 70 41H60.9942C61.6153 41.6153 62.1828 42.2845 62.6893 43ZM21.3641 19C24.7003 17.3793 27 13.9582 27 10C27 4.47715 22.5228 0 17 0C11.4772 0 7 4.47715 7 10C7 13.797 9.11615 17.0997 12.2334 18.7931C12.4054 18.8865 12.5805 18.9751 12.7585 19.0585C14.0461 19.6625 15.4837 20 17 20C18.5646 20 20.0454 19.6407 21.3641 19ZM17 18C21.4183 18 25 14.4183 25 10C25 5.58172 21.4183 2 17 2C12.5817 2 9 5.58172 9 10C9 14.4183 12.5817 18 17 18ZM65.3641 19C68.7003 17.3793 71 13.9582 71 10C71 4.47715 66.5228 0 61 0C55.4771 0 51 4.47715 51 10C51 13.797 53.1162 17.0997 56.2334 18.7931C56.4054 18.8865 56.5805 18.9751 56.7585 19.0585C58.0461 19.6625 59.4837 20 61 20C62.5646 20 64.0454 19.6407 65.3641 19ZM61 18C65.4183 18 69 14.4183 69 10C69 5.58172 65.4183 2 61 2C56.5817 2 53 5.58172 53 10C53 14.4183 56.5817 18 61 18ZM49.7188 27.7188C49.7188 33.0863 45.3675 37.4375 40 37.4375C34.6325 37.4375 30.2812 33.0863 30.2812 27.7188C30.2812 22.3512 34.6325 18 40 18C45.3675 18 49.7188 22.3512 49.7188 27.7188Z" fill="url(#paint1_linear)"/>
<defs>
<linearGradient id="paint0_linear" x1="41.5" y1="3.46143" x2="41.5" y2="51.5384" gradientUnits="userSpaceOnUse">
<stop stop-color="#FCDAA0"/>
<stop offset="1" stop-color="#B5A78F"/>
</linearGradient>
<linearGradient id="paint1_linear" x1="40.5" y1="0" x2="40.5" y2="65.2188" gradientUnits="userSpaceOnUse">
<stop stop-color="#D3AE7B"/>
<stop offset="1" stop-color="#493304"/>
</linearGradient>
</defs>
</svg>
