<svg width="80" height="80" viewBox="0 0 80 80" fill="none" xmlns="http://www.w3.org/2000/svg">
<path opacity="0.3" d="M0 27C0 24.2386 2.23858 22 5 22H75C77.7614 22 80 24.2386 80 27V75C80 77.7614 77.7614 80 75 80H5C2.23858 80 0 77.7614 0 75V27Z" fill="url(#paint0_linear)"/>
<path fill-rule="evenodd" clip-rule="evenodd" d="M2 5C2 3.34315 3.34315 2 5 2H30.6954L62 44.0655V75C62 76.6569 60.6569 78 59 78H5C3.34315 78 2 76.6569 2 75V5ZM62 40.7155V33.2286L38.6962 2H33.1885L62 40.7155ZM41.1917 2L62 29.8845V23.0854L45.7067 2H41.1917ZM48.2342 2L62 19.8145V5C62 3.34315 60.6569 2 59 2H48.2342ZM0 5C0 2.23858 2.23858 0 5 0H59C61.7614 0 64 2.23858 64 5V75C64 77.7614 61.7614 80 59 80H5C2.23858 80 0 77.7614 0 75V5ZM7.19775 46C6.64547 46 6.19775 46.4477 6.19775 47C6.19775 47.5523 6.64547 48 7.19775 48L29.1978 48C29.75 48 30.1978 47.5523 30.1978 47C30.1978 46.4477 29.75 46 29.1978 46L7.19775 46ZM7.19775 52C6.64547 52 6.19775 52.4477 6.19775 53C6.19775 53.5523 6.64547 54 7.19775 54H19.1978C19.75 54 20.1978 53.5523 20.1978 53C20.1978 52.4477 19.75 52 19.1978 52H7.19775ZM6.19775 59C6.19775 58.4477 6.64547 58 7.19775 58L29.1978 58C29.75 58 30.1978 58.4477 30.1978 59C30.1978 59.5523 29.75 60 29.1978 60L7.19775 60C6.64547 60 6.19775 59.5523 6.19775 59ZM7.19775 64C6.64547 64 6.19775 64.4477 6.19775 65C6.19775 65.5523 6.64547 66 7.19775 66H40.1978C40.75 66 41.1978 65.5523 41.1978 65C41.1978 64.4477 40.75 64 40.1978 64H7.19775Z" fill="url(#paint1_linear)"/>
<defs>
<linearGradient id="paint0_linear" x1="40" y1="22" x2="40" y2="80" gradientUnits="userSpaceOnUse">
<stop stop-color="#FCDAA0"/>
<stop offset="1" stop-color="#B5A78F"/>
</linearGradient>
<linearGradient id="paint1_linear" x1="32" y1="0" x2="32" y2="80" gradientUnits="userSpaceOnUse">
<stop stop-color="#D3AE7B"/>
<stop offset="1" stop-color="#493304"/>
</linearGradient>
</defs>
</svg>
