<svg width="80" height="80" viewBox="0 0 80 80" fill="none" xmlns="http://www.w3.org/2000/svg">
<path opacity="0.3" d="M40 22C20.1178 22 4 38.0897 4 57.9374H75.9999V58C76 57.9791 75.9999 57.9583 75.9999 57.9374C75.9999 38.0897 59.8823 22 40 22Z" fill="url(#paint0_linear)"/>
<path fill-rule="evenodd" clip-rule="evenodd" d="M36 12C55.2111 12 70.9077 27.048 71.9454 46C71.9805 46.6414 71.9988 47.2874 71.9999 47.9373V48H69.9999H62V46H69.9422C69.4945 38.2819 66.4722 31.2545 61.7215 25.764L55.7311 32.1823L54.2689 30.8177L60.365 24.2861C54.2964 18.0519 45.8554 14.1385 36.5 14.0036V23.253H34.5V14.0325C25.6741 14.4157 17.7211 18.1635 11.8916 24.0254L18.2311 30.8177L16.7689 32.1823L10.5204 25.4874C5.63047 31.0176 2.51311 38.1517 2.05785 46H10V48H2H0C0 47.3289 0.018364 46.6621 0.0546168 46C1.09238 27.048 16.7889 12 36 12ZM36 30L38.3605 46.3539C41.6266 47.3611 44 50.4034 44 54C44 58.4183 40.4183 62 36 62C31.5817 62 28 58.4183 28 54C28 50.4034 30.3734 47.3611 33.6395 46.3539L36 30ZM30 54C30 50.6863 32.6863 48 36 48C39.3137 48 42 50.6863 42 54C42 57.3137 39.3137 60 36 60C32.6863 60 30 57.3137 30 54Z" fill="url(#paint1_linear)"/>
<defs>
<linearGradient id="paint0_linear" x1="40" y1="22" x2="40" y2="58" gradientUnits="userSpaceOnUse">
<stop stop-color="#FCDAA0"/>
<stop offset="1" stop-color="#B5A78F"/>
</linearGradient>
<linearGradient id="paint1_linear" x1="36" y1="12" x2="36" y2="62" gradientUnits="userSpaceOnUse">
<stop stop-color="#D3AE7B"/>
<stop offset="1" stop-color="#493304"/>
</linearGradient>
</defs>
</svg>
