<svg width="80" height="80" viewBox="0 0 80 80" fill="none" xmlns="http://www.w3.org/2000/svg">
<g clip-path="url(#clip0)">
<circle opacity="0.3" cx="48.5" cy="48.5" r="31.5" fill="url(#paint0_linear)"/>
<path fill-rule="evenodd" clip-rule="evenodd" d="M67.2233 44.0288C67.2233 61.9794 52.6715 76.5312 34.7209 76.5312C16.7704 76.5312 2.21859 61.9794 2.21859 44.0288C2.21859 26.0783 16.7704 11.5265 34.7209 11.5265C41.1919 11.5265 47.2212 13.4175 52.2864 16.6771L52.1164 16.8472L52.4217 17.9669L53.9378 23.5258L50.3295 27.1341C46.2288 23.3438 40.7453 21.0277 34.7208 21.0277C22.0174 21.0277 11.7193 31.3259 11.7193 44.0293C11.7193 56.7327 22.0174 67.0308 34.7208 67.0308C47.4243 67.0308 57.7224 56.7327 57.7224 44.0293C57.7224 38.0698 55.456 32.6397 51.7382 28.5538L55.3521 24.94L60.9108 26.456L62.0306 26.7614L62.1725 26.6195C65.3708 31.6522 67.2233 37.6242 67.2233 44.0288ZM34.7209 9.52645C41.746 9.52645 48.2807 11.626 53.7317 15.2318L60.0229 8.94066L62.4598 6.50372L63.3666 9.82864L64.5843 14.2935L69.0491 15.5111L72.374 16.4179L69.9371 18.8549L63.6195 25.1725C67.1631 30.5923 69.2233 37.07 69.2233 44.0288C69.2233 63.0839 53.7761 78.5312 34.7209 78.5312C15.6658 78.5312 0.21859 63.0839 0.218591 44.0288C0.21859 24.9737 15.6658 9.52645 34.7209 9.52645ZM55.8697 23.0081L54.5861 18.3018L54.3513 17.4407L55.391 16.4009L59.8082 11.9837L61.4371 10.3549L62.0432 12.5772L62.9554 15.9223L66.3005 16.8346L68.5229 17.4407L66.894 19.0695L62.4582 23.5054L61.4371 24.5265L60.5386 24.2814L55.8697 23.0081ZM55.7224 44.0293C55.7224 55.6281 46.3197 65.0308 34.7208 65.0308C23.122 65.0308 13.7193 55.6281 13.7193 44.0293C13.7193 32.4304 23.122 23.0277 34.7208 23.0277C40.193 23.0277 45.1763 25.1206 48.9141 28.5495L42.1846 35.2791C40.1758 33.5639 37.5692 32.5284 34.7207 32.5284C28.369 32.5284 23.2199 37.6775 23.2199 44.0292C23.2199 50.3809 28.369 55.53 34.7207 55.53C41.0724 55.53 46.2215 50.3809 46.2215 44.0292C46.2215 41.246 45.2329 38.6937 43.5877 36.7044L50.3222 29.9698C53.679 33.6923 55.7224 38.6221 55.7224 44.0293ZM42.1657 38.1263C43.4528 39.7474 44.2215 41.7985 44.2215 44.0292C44.2215 49.2763 39.9679 53.53 34.7207 53.53C29.4736 53.53 25.2199 49.2763 25.2199 44.0292C25.2199 38.782 29.4736 34.5284 34.7207 34.5284C37.0168 34.5284 39.1226 35.3428 40.765 36.6986L33.9654 43.4982C33.5749 43.8887 33.5749 44.5219 33.9654 44.9124C34.3559 45.303 34.9891 45.303 35.3796 44.9124L42.1657 38.1263Z" fill="url(#paint1_linear)"/>
</g>
<defs>
<linearGradient id="paint0_linear" x1="48.5" y1="17" x2="48.5" y2="80" gradientUnits="userSpaceOnUse">
<stop stop-color="#FCDAA0"/>
<stop offset="1" stop-color="#B5A78F"/>
</linearGradient>
<linearGradient id="paint1_linear" x1="14.4417" y1="15.5144" x2="63.2354" y2="64.3081" gradientUnits="userSpaceOnUse">
<stop stop-color="#D3AE7B"/>
<stop offset="1" stop-color="#493304"/>
</linearGradient>
<clipPath id="clip0">
<rect width="80" height="80" fill="white"/>
</clipPath>
</defs>
</svg>
