<svg width="80" height="80" viewBox="0 0 80 80" fill="none" xmlns="http://www.w3.org/2000/svg">
<g clip-path="url(#clip0_185_756)">
<rect opacity="0.3" x="11" y="20" width="75" height="66" rx="5" fill="url(#paint0_linear_185_756)"/>
<path fill-rule="evenodd" clip-rule="evenodd" d="M66 51C67.1046 51 68 50.1046 68 49C68 47.8954 67.1046 47 66 47C64.8954 47 64 47.8954 64 49C64 50.1046 64.8954 51 66 51ZM66 53C68.2091 53 70 51.2091 70 49C70 46.7909 68.2091 45 66 45C63.7909 45 62 46.7909 62 49C62 51.2091 63.7909 53 66 53Z" fill="url(#paint1_linear_185_756)"/>
<path fill-rule="evenodd" clip-rule="evenodd" d="M67 18.0001C67 18.5523 66.5523 19.0001 66 19.0001H13C12.4477 19.0001 12 18.5523 12 18.0001C12 17.4478 12.4477 17.0001 13 17.0001H15.6452L17.2581 12.0001H10.5C6.91015 12.0001 4 14.9103 4 18.5001C4 22.09 6.91015 25.0001 10.5 25.0001H67.9891C70.6744 25.0001 73.2028 26.1199 75 28.0336V18.5001C75 14.9103 72.0899 12.0001 68.5 12.0001H45.2258L60.0645 17.0001H66C66.5523 17.0001 67 17.4478 67 18.0001ZM39.2903 10.0001H68.5C73.0266 10.0001 76.7267 13.5384 76.9855 18.0001H77.0001V70.0001C77.0001 73.3138 74.3139 76.0001 71.0001 76.0001H8C4.68629 76.0001 2 73.3138 2 70.0001V18.5001V18.0001H2.01446C2.27327 13.5384 5.97343 10.0001 10.5 10.0001H17.9032L19.378 5.42831C19.7202 4.36743 20.8637 3.79108 21.92 4.14702L39.2903 10.0001ZM53.8011 17.0001H17.7466L21.2814 6.04232L53.8011 17.0001ZM75.0001 31.6387V70.0001C75.0001 72.2093 73.2093 74.0001 71.0001 74.0001H8C5.79086 74.0001 4 72.2093 4 70.0001V23.9776C5.55922 25.826 7.89249 27.0001 10.5 27.0001H67.9891C70.6705 27.0001 73.1544 28.4098 74.5293 30.7119C74.7072 31.0099 74.8645 31.3195 75 31.6383L75.0001 31.6387Z" fill="url(#paint2_linear_185_756)"/>
</g>
<defs>
<linearGradient id="paint0_linear_185_756" x1="48.5" y1="20" x2="48.5" y2="86" gradientUnits="userSpaceOnUse">
<stop stop-color="#FCDAA0"/>
<stop offset="1" stop-color="#B5A78F"/>
</linearGradient>
<linearGradient id="paint1_linear_185_756" x1="66" y1="45" x2="66" y2="53" gradientUnits="userSpaceOnUse">
<stop stop-color="#D3AE7B"/>
<stop offset="1" stop-color="#493304"/>
</linearGradient>
<linearGradient id="paint2_linear_185_756" x1="39.5001" y1="4.04175" x2="39.5001" y2="76.0001" gradientUnits="userSpaceOnUse">
<stop stop-color="#D3AE7B"/>
<stop offset="1" stop-color="#493304"/>
</linearGradient>
<clipPath id="clip0_185_756">
<rect width="80" height="80" fill="white"/>
</clipPath>
</defs>
</svg>
