<svg width="80" height="80" viewBox="0 0 80 80" fill="none" xmlns="http://www.w3.org/2000/svg">
<g clip-path="url(#clip0_185_647)">
<path opacity="0.3" fill-rule="evenodd" clip-rule="evenodd" d="M65.2061 26V24.7333C65.2061 14.3253 61.1228 12.831 55.1401 10.6417L55.14 10.6417C54.4166 10.3769 53.6654 10.1021 52.8903 9.8C51.9674 9.44036 51.2705 8.9206 50.6077 8.42628C49.6132 7.68448 48.6954 7 47.2061 7C45.5964 7 44.6174 7.71787 43.5225 8.52074L43.5225 8.52076C42.9292 8.95577 42.3019 9.41574 41.5218 9.8C40.5926 10.2578 39.6379 10.6532 38.6911 11.0453C33.8465 13.0519 29.2061 14.974 29.2061 24.7333V26C29.2061 26.2367 29.2225 26.4696 29.2543 26.6975C29.4785 28.3034 31.2061 27.6844 31.2061 26.0629C31.2061 25.3362 31.6046 24.6644 32.2574 24.3454C36.6525 22.198 41.547 21 46.7061 21C52.3233 21 57.6269 22.4203 62.3137 24.9399C62.8705 25.2392 63.2061 25.8266 63.2061 26.4587C63.2061 27.9172 64.7719 28.5109 65.0876 27.087C65.1651 26.737 65.2061 26.3733 65.2061 26ZM37.665 53.4314C38.4388 53.2147 39.2058 53.7964 39.2058 54.6001C39.2058 57.3615 41.4444 59.6001 44.2058 59.6001C46.9672 59.6001 49.2058 57.3615 49.2058 54.6001C49.2058 53.7965 49.9728 53.2148 50.7466 53.4315L62.9604 56.8513C66.7594 57.915 69.578 61.1129 70.1561 65.0155L72.3564 79.8673C72.8038 82.8875 70.4636 85.6 67.4104 85.6H21.001C17.9478 85.6 15.6075 82.8875 16.055 79.8673L18.2552 65.0155C18.8334 61.1129 21.652 57.915 25.451 56.8513L37.665 53.4314Z" fill="url(#paint0_linear_185_647)"/>
<path fill-rule="evenodd" clip-rule="evenodd" d="M36.5345 1.14713C37.452 0.530287 38.5062 0 40.0106 0C41.5461 0 42.5902 0.604772 43.4752 1.23368C43.6701 1.37219 43.8528 1.50732 44.0294 1.63795L44.0294 1.63798C44.6731 2.11411 45.236 2.5305 46.0161 2.83284C46.7374 3.11236 47.472 3.38009 48.1914 3.64226C49.1653 3.99717 50.1112 4.34189 50.9579 4.69187C52.4798 5.32085 53.9014 6.04759 55.1038 7.10317C57.5739 9.2716 58.8792 12.6056 58.8792 18.5021V23.8478C59.7934 24.6616 60.3688 25.8442 60.3688 27.1605C60.3688 29.6151 58.368 31.605 55.8999 31.6049C55.8999 37.853 52.2539 43.2542 46.9623 45.8187V47.3533L58.5856 50.5901C62.3883 51.649 65.2123 54.8458 65.7938 58.7502L67.9554 73.261C68.4055 76.2825 66.0648 78.9977 63.01 78.9977H56.9617C56.9392 78.9993 56.9164 79 56.8935 79C56.8705 79 56.8478 78.9993 56.8252 78.9977H23.1971C23.1745 78.9993 23.1518 79 23.1288 79C23.1059 79 23.0831 78.9993 23.0606 78.9977H17.0113C13.9565 78.9977 11.6158 76.2825 12.0658 73.261L14.2274 58.7502C14.809 54.8458 17.6329 51.649 21.4356 50.5901L33.0592 47.3533V45.8188C27.7675 43.2543 24.1214 37.8531 24.1214 31.6049V31.5778C21.887 31.3321 20.1491 29.4482 20.1491 27.1605C20.1491 26.1021 20.5211 25.1301 21.1421 24.3668V18.5021C21.1421 12.5267 22.8652 9.21286 25.5073 7.07719C26.7891 6.04107 28.2402 5.32156 29.6763 4.69861C30.2014 4.47083 30.7138 4.25994 31.2183 4.05227L31.2184 4.05222L31.2184 4.05219C32.1372 3.67398 33.0301 3.30647 33.9269 2.86709C34.6218 2.52666 35.1344 2.15215 35.6898 1.74637L35.6899 1.74631L35.6899 1.74625C35.9537 1.55351 36.2272 1.3537 36.5345 1.14713ZM44.9761 48.4203C44.9741 48.5716 44.9653 48.7213 44.9501 48.8691C44.6921 51.3691 42.5793 53.3188 40.0111 53.3188C37.4428 53.3188 35.33 51.3689 35.0721 48.8688C35.0547 48.6994 35.0457 48.5274 35.0457 48.3534V46.8001L35.0453 46.8002V46.7117C36.5264 47.1368 38.0852 47.3764 39.6935 47.4043C39.799 47.4064 39.9047 47.4074 40.0106 47.4074C40.1161 47.4074 40.2213 47.4064 40.3263 47.4043C41.9352 47.3766 43.4945 47.137 44.9761 46.7117V48.395C44.9761 48.4034 44.9761 48.4119 44.9761 48.4203ZM56.893 18.5021V22.8262C56.5736 22.7541 56.2412 22.7161 55.8999 22.7161L55.8999 18.2095C51.0324 15.4152 45.4495 13.8271 39.5141 13.8271C33.9784 13.8271 28.7494 15.2085 24.1214 17.6615V22.7432C23.777 22.781 23.4445 22.8578 23.1283 22.969V18.5021C23.1283 12.9548 24.698 10.2768 26.76 8.61005C27.8302 7.74494 29.084 7.11054 30.4703 6.5092C30.9229 6.31287 31.4006 6.11599 31.8899 5.91431L31.8899 5.91429C32.8501 5.51848 33.8553 5.10415 34.8046 4.63908C35.6625 4.21878 36.4053 3.67751 37.0163 3.23228L37.0164 3.23218C37.2453 3.06538 37.4557 2.91205 37.6468 2.78363C38.3844 2.28775 39.0504 1.97531 40.0106 1.97531C40.9399 1.97531 41.5723 2.30913 42.3205 2.84088C42.4565 2.93747 42.6001 3.04434 42.7522 3.15756L42.7522 3.15757C43.415 3.65072 44.2395 4.2643 45.2949 4.67334C46.1139 4.99074 46.8698 5.26543 47.5858 5.52567L47.586 5.52573L47.5861 5.52575C48.505 5.85971 49.3584 6.16987 50.1957 6.51594C51.6361 7.11125 52.8261 7.73842 53.7894 8.58407C55.6508 10.2181 56.893 12.8758 56.893 18.5021ZM55.8999 29.6296C57.2711 29.6296 58.3826 28.5242 58.3826 27.1605C58.3826 25.7968 57.2711 24.6914 55.8999 24.6914V29.6296ZM22.1353 27.1605C22.1353 25.966 22.9882 24.9696 24.1214 24.7408V29.5802C22.9882 29.3514 22.1353 28.355 22.1353 27.1605ZM40.2866 45.4294C40.1948 45.431 40.1029 45.4317 40.0107 45.4317C39.9181 45.4317 39.8257 45.431 39.7334 45.4294C32.1829 45.2825 26.1075 39.1493 26.1075 31.6049V18.8721C30.1916 16.9001 34.7304 15.8025 39.5141 15.8025C44.6884 15.8025 49.5771 17.0867 53.9138 19.3735V31.6049C53.9138 39.1498 47.8377 45.2832 40.2866 45.4294ZM33.1255 49.4109L21.9722 52.5168C18.93 53.3639 16.6709 55.9214 16.2056 59.0448L14.044 73.5557C13.774 75.3686 15.1784 76.9977 17.0113 76.9977H22.1357V66.1605C22.1357 65.6151 22.5804 65.1729 23.1288 65.1729C23.6773 65.1729 24.1219 65.6151 24.1219 66.1605V76.9977H55.9004V66.1605C55.9004 65.6151 56.345 65.1729 56.8935 65.1729C57.4419 65.1729 57.8866 65.6151 57.8866 66.1605V76.9977H63.01C64.8429 76.9977 66.2473 75.3686 65.9772 73.5557L63.8157 59.0448C63.3504 55.9214 61.0913 53.3639 58.0491 52.5168L46.8967 49.4112C46.3871 52.7561 43.4984 55.3188 40.0111 55.3188C36.5237 55.3188 33.635 52.7559 33.1255 49.4109Z" fill="url(#paint1_linear_185_647)"/>
</g>
<defs>
<linearGradient id="paint0_linear_185_647" x1="44.2057" y1="7" x2="44.2057" y2="85.6" gradientUnits="userSpaceOnUse">
<stop stop-color="#FCDAA0"/>
<stop offset="1" stop-color="#B5A78F"/>
</linearGradient>
<linearGradient id="paint1_linear_185_647" x1="40.0106" y1="0" x2="40.0106" y2="79" gradientUnits="userSpaceOnUse">
<stop stop-color="#D3AE7B"/>
<stop offset="1" stop-color="#493304"/>
</linearGradient>
<clipPath id="clip0_185_647">
<rect width="80" height="80" fill="white"/>
</clipPath>
</defs>
</svg>
