<svg width="80" height="80" viewBox="0 0 80 80" fill="none" xmlns="http://www.w3.org/2000/svg">
<g clip-path="url(#clip0_185_375)">
<circle opacity="0.3" cx="47" cy="64" r="24" fill="url(#paint0_linear_185_375)"/>
<g clip-path="url(#clip1_185_375)">
<path fill-rule="evenodd" clip-rule="evenodd" d="M58.5623 62C64.9135 62 70.0623 56.8513 70.0623 50.5C70.0623 44.1487 64.9135 39 58.5623 39C52.211 39 47.0623 44.1487 47.0623 50.5C47.0623 56.8513 52.211 62 58.5623 62ZM58.5623 64C66.0181 64 72.0623 57.9558 72.0623 50.5C72.0623 43.0442 66.0181 37 58.5623 37C51.1064 37 45.0623 43.0442 45.0623 50.5C45.0623 57.9558 51.1064 64 58.5623 64Z" fill="url(#paint1_linear_185_375)"/>
<path fill-rule="evenodd" clip-rule="evenodd" d="M72.0623 73C72.0623 73.5523 71.6145 74 71.0623 74H47.0623C46.51 74 46.0623 73.5523 46.0623 73C46.0623 72.4477 46.51 72 47.0623 72H71.0623C71.6145 72 72.0623 72.4477 72.0623 73Z" fill="url(#paint2_linear_185_375)"/>
<path fill-rule="evenodd" clip-rule="evenodd" d="M66.0623 79C66.0623 79.5523 65.6145 80 65.0623 80H53.0623C52.51 80 52.0623 79.5523 52.0623 79C52.0623 78.4477 52.51 78 53.0623 78H65.0623C65.6145 78 66.0623 78.4477 66.0623 79Z" fill="url(#paint3_linear_185_375)"/>
<path fill-rule="evenodd" clip-rule="evenodd" d="M17.0623 74C17.6145 74 18.0623 73.5523 18.0623 73C18.0623 72.4477 17.6145 72 17.0623 72C16.51 72 16.0623 72.4477 16.0623 73C16.0623 73.5523 16.51 74 17.0623 74Z" fill="url(#paint4_linear_185_375)"/>
<path fill-rule="evenodd" clip-rule="evenodd" d="M9.06226 77C9.61454 77 10.0623 76.5523 10.0623 76C10.0623 75.4477 9.61454 75 9.06226 75C8.50997 75 8.06226 75.4477 8.06226 76C8.06226 76.5523 8.50997 77 9.06226 77Z" fill="url(#paint5_linear_185_375)"/>
<path fill-rule="evenodd" clip-rule="evenodd" d="M25.2939 9.01245C24.6408 7.55866 23.7172 6.19678 22.5233 5.00289C19.0777 1.55729 14.233 0.36358 9.81795 1.42177C8.47567 1.74348 8.18042 3.38788 9.15643 4.36389L16.235 11.4425C15.1365 11.1538 13.9832 11 12.794 11C7.92114 11 3.6513 13.5817 1.27764 17.4518C0.555995 18.6285 1.50999 20 2.89028 20H14.7073C13.7996 20.5509 12.9429 21.2185 12.1586 22.0028C8.71305 25.4484 7.51934 30.2931 8.57753 34.7082C8.89924 36.0504 10.5436 36.3457 11.5197 35.3697L20.586 26.3033C20.3429 27.6888 20.0128 29.4689 19.6041 31.4408C18.6548 36.0207 17.2947 41.5697 15.6369 45.6211C13.9783 49.6743 11.2693 54.2365 8.95218 57.812C7.90968 59.4206 6.95272 60.8201 6.21679 61.8709C4.51548 61.5054 2.80308 61.2476 1.08915 61.0952C0.539033 61.0462 0.0534125 61.4525 0.00448246 62.0027C-0.0444473 62.5528 0.361842 63.0384 0.911955 63.0873C2.25863 63.2071 3.60438 63.3951 4.94416 63.6528L4.84331 63.7902L4.78068 63.8751L4.76511 63.8961L4.76055 63.9022C4.43064 64.3451 4.52208 64.9718 4.965 65.3017C5.40791 65.6317 6.03441 65.5401 6.36433 65.0972L6.37069 65.0886L6.38793 65.0654L6.45403 64.9758C6.51177 64.8974 6.5964 64.7819 6.70504 64.6324C6.92229 64.3333 7.23561 63.898 7.62183 63.3501C8.39406 62.2546 9.45886 60.7077 10.6305 58.8997C12.9661 55.2959 15.7571 50.6082 17.4879 46.3785C19.2194 42.147 20.6092 36.4461 21.5625 31.8467C22.041 29.5382 22.4128 27.4906 22.6651 26.0198C22.7912 25.2842 22.8876 24.6924 22.9525 24.2839C22.9795 24.1142 23.001 23.976 23.017 23.8723L25.2939 21.5954L27.4947 23.7961C27.4826 23.8639 27.4692 23.9387 27.4545 24.0201C27.3738 24.468 27.2547 25.1188 27.1016 25.9288C26.7953 27.5491 26.3531 29.805 25.8092 32.3463C24.7186 37.4423 23.2296 43.638 21.6202 48.1648C20.0159 52.6769 17.2988 57.9935 14.963 62.2094C13.7986 64.3112 12.7354 66.128 11.9636 67.4188C11.5778 68.0641 11.265 68.5777 11.049 68.9293C10.941 69.1051 10.8572 69.2404 10.8007 69.3314L10.7366 69.4343L10.7155 69.4679C10.4218 69.9356 10.5628 70.5529 11.0305 70.8466C11.4982 71.1404 12.116 70.9985 12.4097 70.5308L12.4327 70.494L12.4994 70.387C12.5577 70.2932 12.6433 70.155 12.7532 69.9761C12.9729 69.6183 13.2899 69.098 13.6802 68.4452C13.9624 67.9731 14.2832 67.4316 14.6333 66.8321C15.6148 67.2984 16.5854 67.8077 17.5429 68.3605C22.4656 71.2026 26.564 74.9206 29.7567 79.2032C30.0868 79.646 30.7134 79.7373 31.1561 79.4072C31.5989 79.0771 31.6903 78.4506 31.3602 78.0078C28.8355 74.6214 25.7721 71.5721 22.2082 68.9998H79.0627C79.615 68.9998 80.0627 68.552 80.0627 67.9998C80.0627 67.4475 79.615 66.9998 79.0627 66.9998H20.0627C19.8459 66.9998 19.6451 67.0688 19.4813 67.1861C19.1717 66.9968 18.859 66.8109 18.5429 66.6284C17.5858 66.0759 16.6161 65.5647 15.6358 65.0945C15.9805 64.4896 16.3414 63.8485 16.7125 63.1787C19.0604 58.9408 21.8433 53.5073 23.5046 48.8348C25.1607 44.1769 26.6718 37.8727 27.7649 32.7649C28.3129 30.2044 28.7583 27.9324 29.0668 26.3003C29.12 26.0191 29.1691 25.7569 29.2139 25.5154L39.0682 35.3697C40.0442 36.3457 41.6886 36.0504 42.0103 34.7082C43.0685 30.2931 41.8748 25.4484 38.4292 22.0028C37.645 21.2185 36.7882 20.5509 35.8806 20H47.6976C49.0779 20 50.0319 18.6285 49.3103 17.4518C46.9366 13.5817 42.6668 11 37.794 11C36.6047 11 35.4514 11.1538 34.3528 11.4425L41.4314 4.36389C42.4075 3.38788 42.1122 1.74348 40.7699 1.42177C36.3549 0.36358 31.5101 1.55729 28.0645 5.00289C26.8706 6.19678 25.9471 7.55866 25.2939 9.01245ZM12.4097 70.5308C12.4096 70.531 12.4092 70.5316 11.5624 69.9998L12.4097 70.5308ZM26.3133 16.6536C26.5336 15.25 26.5321 13.8183 26.3087 12.4151C26.7217 10.2167 27.7789 8.11694 29.4787 6.4171C32.2623 3.63352 36.1184 2.57308 39.7236 3.24332L26.3133 16.6536ZM24.2792 12.4151C24.0558 13.8183 24.0542 15.25 24.2746 16.6536L10.8643 3.24332C14.4695 2.57308 18.3256 3.63352 21.1091 6.4171C22.809 8.11694 23.8662 10.2167 24.2792 12.4151ZM40.1888 33.6618L26.7702 20.2432C30.3754 19.573 34.2314 20.6334 37.015 23.417C39.7986 26.2006 40.859 30.0566 40.1888 33.6618ZM12.794 13C8.85737 13 5.38091 14.9768 3.30554 18H22.2824C20.207 14.9768 16.7305 13 12.794 13ZM37.794 13C41.7305 13 45.207 14.9768 47.2824 18H28.3056C30.3809 14.9768 33.8574 13 37.794 13ZM23.8177 20.2432L10.3991 33.6618C9.72884 30.0566 10.7893 26.2006 13.5729 23.417C16.3564 20.6334 20.2125 19.573 23.8177 20.2432Z" fill="url(#paint6_linear_185_375)"/>
</g>
</g>
<defs>
<linearGradient id="paint0_linear_185_375" x1="47" y1="40" x2="47" y2="88" gradientUnits="userSpaceOnUse">
<stop stop-color="#FBCB79"/>
<stop offset="1" stop-color="#978362"/>
</linearGradient>
<linearGradient id="paint1_linear_185_375" x1="58.5623" y1="37" x2="58.5623" y2="64" gradientUnits="userSpaceOnUse">
<stop stop-color="#D3AE7B"/>
<stop offset="1" stop-color="#493304"/>
</linearGradient>
<linearGradient id="paint2_linear_185_375" x1="59.0623" y1="74" x2="59.0623" y2="72" gradientUnits="userSpaceOnUse">
<stop stop-color="#D3AE7B"/>
<stop offset="1" stop-color="#493304"/>
</linearGradient>
<linearGradient id="paint3_linear_185_375" x1="59.0623" y1="80" x2="59.0623" y2="78" gradientUnits="userSpaceOnUse">
<stop stop-color="#D3AE7B"/>
<stop offset="1" stop-color="#493304"/>
</linearGradient>
<linearGradient id="paint4_linear_185_375" x1="17.0623" y1="72" x2="17.0623" y2="74" gradientUnits="userSpaceOnUse">
<stop stop-color="#D3AE7B"/>
<stop offset="1" stop-color="#493304"/>
</linearGradient>
<linearGradient id="paint5_linear_185_375" x1="9.06226" y1="75" x2="9.06226" y2="77" gradientUnits="userSpaceOnUse">
<stop stop-color="#D3AE7B"/>
<stop offset="1" stop-color="#493304"/>
</linearGradient>
<linearGradient id="paint6_linear_185_375" x1="40.0316" y1="1.04883" x2="40.0316" y2="79.6055" gradientUnits="userSpaceOnUse">
<stop stop-color="#D3AE7B"/>
<stop offset="1" stop-color="#493304"/>
</linearGradient>
<clipPath id="clip0_185_375">
<rect width="80" height="80" fill="white"/>
</clipPath>
<clipPath id="clip1_185_375">
<rect width="80" height="80" fill="white"/>
</clipPath>
</defs>
</svg>
