<svg width="80" height="80" viewBox="0 0 80 80" fill="none" xmlns="http://www.w3.org/2000/svg">
<rect opacity="0.3" x="18" y="8" width="58" height="72" rx="5" fill="url(#paint0_linear_166_1192)"/>
<path fill-rule="evenodd" clip-rule="evenodd" d="M65 2H14C12.3431 2 11 3.34315 11 5V75C11 76.6569 12.3431 78 14 78H65C66.6569 78 68 76.6569 68 75V5C68 3.34315 66.6569 2 65 2ZM14 0C11.2386 0 9 2.23858 9 5V75C9 77.7614 11.2386 80 14 80H65C67.7614 80 70 77.7614 70 75V5C70 2.23858 67.7614 0 65 0H14Z" fill="url(#paint1_linear_166_1192)"/>
<path fill-rule="evenodd" clip-rule="evenodd" d="M28 66C27.4477 66 27 64.9926 27 63.75V32.25C27 31.0074 27.4477 30 28 30C28.5523 30 29 31.0074 29 32.25V63.75C29 64.9926 28.5523 66 28 66Z" fill="url(#paint2_linear_166_1192)"/>
<path fill-rule="evenodd" clip-rule="evenodd" d="M40 66C39.4477 66 39 64.9926 39 63.75V32.25C39 31.0074 39.4477 30 40 30C40.5523 30 41 31.0074 41 32.25V63.75C41 64.9926 40.5523 66 40 66Z" fill="url(#paint3_linear_166_1192)"/>
<path fill-rule="evenodd" clip-rule="evenodd" d="M52 66C51.4477 66 51 64.9926 51 63.75V32.25C51 31.0074 51.4477 30 52 30C52.5523 30 53 31.0074 53 32.25V63.75C53 64.9926 52.5523 66 52 66Z" fill="url(#paint4_linear_166_1192)"/>
<path fill-rule="evenodd" clip-rule="evenodd" d="M55 11C55 11.5523 54.3098 12 53.4583 12L19.5417 12C18.6902 12 18 11.5523 18 11C18 10.4477 18.6902 10 19.5417 10L53.4583 10C54.3098 10 55 10.4477 55 11Z" fill="url(#paint5_linear_166_1192)"/>
<path fill-rule="evenodd" clip-rule="evenodd" d="M37 16C37 16.5523 36.6456 17 36.2083 17L18.7917 17C18.3544 17 18 16.5523 18 16C18 15.4477 18.3544 15 18.7917 15L36.2083 15C36.6456 15 37 15.4477 37 16Z" fill="url(#paint6_linear_166_1192)"/>
<path fill-rule="evenodd" clip-rule="evenodd" d="M28 34.9091C25.7407 34.9091 23.9091 36.7407 23.9091 39C23.9091 41.2593 25.7407 43.0909 28 43.0909C30.2593 43.0909 32.0909 41.2593 32.0909 39C32.0909 36.7407 30.2593 34.9091 28 34.9091ZM23 39C23 36.2386 25.2386 34 28 34C30.7614 34 33 36.2386 33 39C33 41.7614 30.7614 44 28 44C25.2386 44 23 41.7614 23 39Z" fill="white"/>
<path d="M23.9091 39C23.9091 36.7407 25.7407 34.9091 28 34.9091C30.2593 34.9091 32.0909 36.7407 32.0909 39C32.0909 41.2593 30.2593 43.0909 28 43.0909C25.7407 43.0909 23.9091 41.2593 23.9091 39Z" fill="white"/>
<path fill-rule="evenodd" clip-rule="evenodd" d="M28 34.9091C25.7407 34.9091 23.9091 36.7407 23.9091 39C23.9091 41.2593 25.7407 43.0909 28 43.0909C30.2593 43.0909 32.0909 41.2593 32.0909 39C32.0909 36.7407 30.2593 34.9091 28 34.9091ZM23 39C23 36.2386 25.2386 34 28 34C30.7614 34 33 36.2386 33 39C33 41.7614 30.7614 44 28 44C25.2386 44 23 41.7614 23 39Z" stroke="url(#paint7_linear_166_1192)"/>
<path d="M23.9091 39C23.9091 36.7407 25.7407 34.9091 28 34.9091C30.2593 34.9091 32.0909 36.7407 32.0909 39C32.0909 41.2593 30.2593 43.0909 28 43.0909C25.7407 43.0909 23.9091 41.2593 23.9091 39Z" stroke="url(#paint8_linear_166_1192)"/>
<path fill-rule="evenodd" clip-rule="evenodd" d="M40 51.9091C37.7407 51.9091 35.9091 53.7407 35.9091 56C35.9091 58.2593 37.7407 60.0909 40 60.0909C42.2593 60.0909 44.0909 58.2593 44.0909 56C44.0909 53.7407 42.2593 51.9091 40 51.9091ZM35 56C35 53.2386 37.2386 51 40 51C42.7614 51 45 53.2386 45 56C45 58.7614 42.7614 61 40 61C37.2386 61 35 58.7614 35 56Z" fill="white"/>
<path d="M35.9091 56C35.9091 53.7407 37.7407 51.9091 40 51.9091C42.2593 51.9091 44.0909 53.7407 44.0909 56C44.0909 58.2593 42.2593 60.0909 40 60.0909C37.7407 60.0909 35.9091 58.2593 35.9091 56Z" fill="white"/>
<path fill-rule="evenodd" clip-rule="evenodd" d="M40 51.9091C37.7407 51.9091 35.9091 53.7407 35.9091 56C35.9091 58.2593 37.7407 60.0909 40 60.0909C42.2593 60.0909 44.0909 58.2593 44.0909 56C44.0909 53.7407 42.2593 51.9091 40 51.9091ZM35 56C35 53.2386 37.2386 51 40 51C42.7614 51 45 53.2386 45 56C45 58.7614 42.7614 61 40 61C37.2386 61 35 58.7614 35 56Z" stroke="url(#paint9_linear_166_1192)"/>
<path d="M35.9091 56C35.9091 53.7407 37.7407 51.9091 40 51.9091C42.2593 51.9091 44.0909 53.7407 44.0909 56C44.0909 58.2593 42.2593 60.0909 40 60.0909C37.7407 60.0909 35.9091 58.2593 35.9091 56Z" stroke="url(#paint10_linear_166_1192)"/>
<path fill-rule="evenodd" clip-rule="evenodd" d="M52 34.9091C49.7407 34.9091 47.9091 36.7407 47.9091 39C47.9091 41.2593 49.7407 43.0909 52 43.0909C54.2593 43.0909 56.0909 41.2593 56.0909 39C56.0909 36.7407 54.2593 34.9091 52 34.9091ZM47 39C47 36.2386 49.2386 34 52 34C54.7614 34 57 36.2386 57 39C57 41.7614 54.7614 44 52 44C49.2386 44 47 41.7614 47 39Z" fill="white"/>
<path d="M47.9091 39C47.9091 36.7407 49.7407 34.9091 52 34.9091C54.2593 34.9091 56.0909 36.7407 56.0909 39C56.0909 41.2593 54.2593 43.0909 52 43.0909C49.7407 43.0909 47.9091 41.2593 47.9091 39Z" fill="white"/>
<path fill-rule="evenodd" clip-rule="evenodd" d="M52 34.9091C49.7407 34.9091 47.9091 36.7407 47.9091 39C47.9091 41.2593 49.7407 43.0909 52 43.0909C54.2593 43.0909 56.0909 41.2593 56.0909 39C56.0909 36.7407 54.2593 34.9091 52 34.9091ZM47 39C47 36.2386 49.2386 34 52 34C54.7614 34 57 36.2386 57 39C57 41.7614 54.7614 44 52 44C49.2386 44 47 41.7614 47 39Z" stroke="url(#paint11_linear_166_1192)"/>
<path d="M47.9091 39C47.9091 36.7407 49.7407 34.9091 52 34.9091C54.2593 34.9091 56.0909 36.7407 56.0909 39C56.0909 41.2593 54.2593 43.0909 52 43.0909C49.7407 43.0909 47.9091 41.2593 47.9091 39Z" stroke="url(#paint12_linear_166_1192)"/>
<defs>
<linearGradient id="paint0_linear_166_1192" x1="47" y1="8" x2="47" y2="80" gradientUnits="userSpaceOnUse">
<stop stop-color="#FCDAA0"/>
<stop offset="1" stop-color="#B5A78F"/>
</linearGradient>
<linearGradient id="paint1_linear_166_1192" x1="39.5" y1="0" x2="39.5" y2="80" gradientUnits="userSpaceOnUse">
<stop stop-color="#D3AE7B"/>
<stop offset="1" stop-color="#493304"/>
</linearGradient>
<linearGradient id="paint2_linear_166_1192" x1="27" y1="48" x2="29" y2="48" gradientUnits="userSpaceOnUse">
<stop stop-color="#D3AE7B"/>
<stop offset="1" stop-color="#493304"/>
</linearGradient>
<linearGradient id="paint3_linear_166_1192" x1="39" y1="48" x2="41" y2="48" gradientUnits="userSpaceOnUse">
<stop stop-color="#D3AE7B"/>
<stop offset="1" stop-color="#493304"/>
</linearGradient>
<linearGradient id="paint4_linear_166_1192" x1="51" y1="48" x2="53" y2="48" gradientUnits="userSpaceOnUse">
<stop stop-color="#D3AE7B"/>
<stop offset="1" stop-color="#493304"/>
</linearGradient>
<linearGradient id="paint5_linear_166_1192" x1="36.5" y1="12" x2="36.5" y2="10" gradientUnits="userSpaceOnUse">
<stop stop-color="#D3AE7B"/>
<stop offset="1" stop-color="#493304"/>
</linearGradient>
<linearGradient id="paint6_linear_166_1192" x1="27.5" y1="17" x2="27.5" y2="15" gradientUnits="userSpaceOnUse">
<stop stop-color="#D3AE7B"/>
<stop offset="1" stop-color="#493304"/>
</linearGradient>
<linearGradient id="paint7_linear_166_1192" x1="28" y1="34" x2="28" y2="44" gradientUnits="userSpaceOnUse">
<stop stop-color="#D3AE7B"/>
<stop offset="1" stop-color="#493304"/>
</linearGradient>
<linearGradient id="paint8_linear_166_1192" x1="28" y1="34" x2="28" y2="44" gradientUnits="userSpaceOnUse">
<stop stop-color="#D3AE7B"/>
<stop offset="1" stop-color="#493304"/>
</linearGradient>
<linearGradient id="paint9_linear_166_1192" x1="40" y1="51" x2="40" y2="61" gradientUnits="userSpaceOnUse">
<stop stop-color="#D3AE7B"/>
<stop offset="1" stop-color="#493304"/>
</linearGradient>
<linearGradient id="paint10_linear_166_1192" x1="40" y1="51" x2="40" y2="61" gradientUnits="userSpaceOnUse">
<stop stop-color="#D3AE7B"/>
<stop offset="1" stop-color="#493304"/>
</linearGradient>
<linearGradient id="paint11_linear_166_1192" x1="52" y1="34" x2="52" y2="44" gradientUnits="userSpaceOnUse">
<stop stop-color="#D3AE7B"/>
<stop offset="1" stop-color="#493304"/>
</linearGradient>
<linearGradient id="paint12_linear_166_1192" x1="52" y1="34" x2="52" y2="44" gradientUnits="userSpaceOnUse">
<stop stop-color="#D3AE7B"/>
<stop offset="1" stop-color="#493304"/>
</linearGradient>
</defs>
</svg>
