<svg width="80" height="80" viewBox="0 0 80 80" fill="none" xmlns="http://www.w3.org/2000/svg">
<g clip-path="url(#clip0_185_706)">
<circle opacity="0.3" cx="50" cy="49" r="39" fill="url(#paint0_linear_185_706)"/>
<path fill-rule="evenodd" clip-rule="evenodd" d="M40 78C60.9868 78 78 60.9868 78 40C78 19.0132 60.9868 2 40 2C19.0132 2 2 19.0132 2 40C2 46.6824 3.72317 52.9564 6.74788 58.408C7.24735 59.3082 7.40478 60.3875 7.12694 61.4244L3.0208 76.7487L18.2234 72.6752C19.2736 72.3938 20.367 72.559 21.2738 73.0736C26.799 76.209 33.1873 78 40 78ZM80 40C80 62.0914 62.0914 80 40 80C32.8323 80 26.1049 78.1147 20.2867 74.813C19.8171 74.5465 19.2625 74.4673 18.741 74.6071L3.53844 78.6806C2.0513 79.079 0.690475 77.7182 1.08895 76.2311L5.19509 60.9068C5.33306 60.3919 5.25766 59.8444 4.99903 59.3783C1.81382 53.6375 0 47.0305 0 40C0 17.9086 17.9086 0 40 0C62.0914 0 80 17.9086 80 40Z" fill="url(#paint1_linear_185_706)"/>
<path fill-rule="evenodd" clip-rule="evenodd" d="M40 27C42.2091 27 44 25.2091 44 23C44 20.7909 42.2091 19 40 19C37.7909 19 36 20.7909 36 23C36 25.2091 37.7909 27 40 27ZM40 29C43.3137 29 46 26.3137 46 23C46 19.6863 43.3137 17 40 17C36.6863 17 34 19.6863 34 23C34 26.3137 36.6863 29 40 29Z" fill="url(#paint2_linear_185_706)"/>
<path fill-rule="evenodd" clip-rule="evenodd" d="M44 34H33L33 39.0354C34.6961 39.2781 36 40.7368 36 42.5V52.5C36 54.2632 34.6961 55.7219 33 55.9646V61H47V55.9646C45.3039 55.7219 44 54.2632 44 52.5V34ZM33 32C31.8954 32 31 32.8954 31 34V39.5C31 40.3284 31.6716 41 32.5 41C33.3284 41 34 41.6716 34 42.5V52.5C34 53.3284 33.3284 54 32.5 54C31.6716 54 31 54.6716 31 55.5V61C31 62.1046 31.8954 63 33 63H47C48.1046 63 49 62.1046 49 61V55.5C49 54.6716 48.3284 54 47.5 54C46.6716 54 46 53.3284 46 52.5V34C46 32.8954 45.1046 32 44 32H33Z" fill="url(#paint3_linear_185_706)"/>
</g>
<defs>
<linearGradient id="paint0_linear_185_706" x1="50" y1="10" x2="50" y2="88" gradientUnits="userSpaceOnUse">
<stop stop-color="#FCDAA0"/>
<stop offset="1" stop-color="#B5A78F"/>
</linearGradient>
<linearGradient id="paint1_linear_185_706" x1="40" y1="0" x2="40" y2="80" gradientUnits="userSpaceOnUse">
<stop stop-color="#D3AE7B"/>
<stop offset="1" stop-color="#493304"/>
</linearGradient>
<linearGradient id="paint2_linear_185_706" x1="40" y1="17" x2="40" y2="29" gradientUnits="userSpaceOnUse">
<stop stop-color="#D3AE7B"/>
<stop offset="1" stop-color="#493304"/>
</linearGradient>
<linearGradient id="paint3_linear_185_706" x1="40" y1="32" x2="40" y2="63" gradientUnits="userSpaceOnUse">
<stop stop-color="#D3AE7B"/>
<stop offset="1" stop-color="#493304"/>
</linearGradient>
<clipPath id="clip0_185_706">
<rect width="80" height="80" fill="white"/>
</clipPath>
</defs>
</svg>
