<svg width="80" height="80" viewBox="0 0 80 80" fill="none" xmlns="http://www.w3.org/2000/svg">
<rect opacity="0.3" x="18" y="8" width="58" height="72" rx="5" fill="url(#paint0_linear_185_4)"/>
<path fill-rule="evenodd" clip-rule="evenodd" d="M65 2H14C12.3431 2 11 3.34315 11 5V75C11 76.6569 12.3431 78 14 78H65C66.6569 78 68 76.6569 68 75V5C68 3.34315 66.6569 2 65 2ZM14 0C11.2386 0 9 2.23858 9 5V75C9 77.7614 11.2386 80 14 80H65C67.7614 80 70 77.7614 70 75V5C70 2.23858 67.7614 0 65 0H14Z" fill="url(#paint1_linear_185_4)"/>
<path fill-rule="evenodd" clip-rule="evenodd" d="M62 27C62 27.5523 61.5523 28 61 28L47 28C46.4477 28 46 27.5523 46 27C46 26.4477 46.4477 26 47 26H61C61.5523 26 62 26.4477 62 27Z" fill="url(#paint2_linear_185_4)"/>
<path fill-rule="evenodd" clip-rule="evenodd" d="M62 52C62 52.5523 61.5523 53 61 53H47C46.4477 53 46 52.5523 46 52C46 51.4477 46.4477 51 47 51H61C61.5523 51 62 51.4477 62 52Z" fill="url(#paint3_linear_185_4)"/>
<path fill-rule="evenodd" clip-rule="evenodd" d="M58 32C58 32.5523 57.5523 33 57 33H47C46.4477 33 46 32.5523 46 32C46 31.4477 46.4477 31 47 31H57C57.5523 31 58 31.4477 58 32Z" fill="url(#paint4_linear_185_4)"/>
<path fill-rule="evenodd" clip-rule="evenodd" d="M58 57C58 57.5523 57.5523 58 57 58H47C46.4477 58 46 57.5523 46 57C46 56.4477 46.4477 56 47 56H57C57.5523 56 58 56.4477 58 57Z" fill="url(#paint5_linear_185_4)"/>
<path fill-rule="evenodd" clip-rule="evenodd" d="M55 11C55 11.5523 54.3098 12 53.4583 12L19.5417 12C18.6902 12 18 11.5523 18 11C18 10.4477 18.6902 10 19.5417 10L53.4583 10C54.3098 10 55 10.4477 55 11Z" fill="url(#paint6_linear_185_4)"/>
<path fill-rule="evenodd" clip-rule="evenodd" d="M37 16C37 16.5523 36.6456 17 36.2083 17L18.7917 17C18.3544 17 18 16.5523 18 16C18 15.4477 18.3544 15 18.7917 15L36.2083 15C36.6456 15 37 15.4477 37 16Z" fill="url(#paint7_linear_185_4)"/>
<mask id="path-9-inside-1_185_4" fill="white">
<rect x="18" y="26" width="20" height="20" rx="1"/>
</mask>
<rect x="18" y="26" width="20" height="20" rx="1" stroke="url(#paint8_linear_185_4)" stroke-width="4" mask="url(#path-9-inside-1_185_4)"/>
<mask id="path-10-inside-2_185_4" fill="white">
<rect x="18" y="51" width="20" height="20" rx="1"/>
</mask>
<rect x="18" y="51" width="20" height="20" rx="1" stroke="url(#paint9_linear_185_4)" stroke-width="4" mask="url(#path-10-inside-2_185_4)"/>
<path fill-rule="evenodd" clip-rule="evenodd" d="M22.4441 60.5505C22.6894 60.3052 23.0916 60.3097 23.3425 60.5605L26.5219 63.74L33.1841 57.0778C33.4294 56.8325 33.8316 56.837 34.0825 57.0879C34.3333 57.3387 34.3378 57.7409 34.0925 57.9862L26.5421 65.5367L22.4542 61.4488C22.2034 61.198 22.1989 60.7958 22.4441 60.5505Z" fill="url(#paint10_linear_185_4)" stroke="url(#paint11_linear_185_4)" stroke-linecap="round"/>
<defs>
<linearGradient id="paint0_linear_185_4" x1="47" y1="8" x2="47" y2="80" gradientUnits="userSpaceOnUse">
<stop stop-color="#FCDAA0"/>
<stop offset="1" stop-color="#B5A78F"/>
</linearGradient>
<linearGradient id="paint1_linear_185_4" x1="39.5" y1="0" x2="39.5" y2="80" gradientUnits="userSpaceOnUse">
<stop stop-color="#D3AE7B"/>
<stop offset="1" stop-color="#493304"/>
</linearGradient>
<linearGradient id="paint2_linear_185_4" x1="54" y1="28" x2="54" y2="26" gradientUnits="userSpaceOnUse">
<stop stop-color="#D3AE7B"/>
<stop offset="1" stop-color="#493304"/>
</linearGradient>
<linearGradient id="paint3_linear_185_4" x1="54" y1="53" x2="54" y2="51" gradientUnits="userSpaceOnUse">
<stop stop-color="#D3AE7B"/>
<stop offset="1" stop-color="#493304"/>
</linearGradient>
<linearGradient id="paint4_linear_185_4" x1="52" y1="33" x2="52" y2="31" gradientUnits="userSpaceOnUse">
<stop stop-color="#D3AE7B"/>
<stop offset="1" stop-color="#493304"/>
</linearGradient>
<linearGradient id="paint5_linear_185_4" x1="52" y1="58" x2="52" y2="56" gradientUnits="userSpaceOnUse">
<stop stop-color="#D3AE7B"/>
<stop offset="1" stop-color="#493304"/>
</linearGradient>
<linearGradient id="paint6_linear_185_4" x1="36.5" y1="12" x2="36.5" y2="10" gradientUnits="userSpaceOnUse">
<stop stop-color="#D3AE7B"/>
<stop offset="1" stop-color="#493304"/>
</linearGradient>
<linearGradient id="paint7_linear_185_4" x1="27.5" y1="17" x2="27.5" y2="15" gradientUnits="userSpaceOnUse">
<stop stop-color="#D3AE7B"/>
<stop offset="1" stop-color="#493304"/>
</linearGradient>
<linearGradient id="paint8_linear_185_4" x1="28" y1="26" x2="28" y2="46" gradientUnits="userSpaceOnUse">
<stop stop-color="#D3AE7B"/>
<stop offset="1" stop-color="#493304"/>
</linearGradient>
<linearGradient id="paint9_linear_185_4" x1="28" y1="51" x2="28" y2="71" gradientUnits="userSpaceOnUse">
<stop stop-color="#D3AE7B"/>
<stop offset="1" stop-color="#493304"/>
</linearGradient>
<linearGradient id="paint10_linear_185_4" x1="25.9973" y1="56.9973" x2="30.5394" y2="61.5394" gradientUnits="userSpaceOnUse">
<stop stop-color="#D3AE7B"/>
<stop offset="1" stop-color="#493304"/>
</linearGradient>
<linearGradient id="paint11_linear_185_4" x1="25.9973" y1="56.9973" x2="30.5394" y2="61.5394" gradientUnits="userSpaceOnUse">
<stop stop-color="#D3AE7B"/>
<stop offset="1" stop-color="#493304"/>
</linearGradient>
</defs>
</svg>
