<svg width="80" height="80" viewBox="0 0 80 80" fill="none" xmlns="http://www.w3.org/2000/svg">
<g clip-path="url(#clip0_185_602)">
<path opacity="0.3" d="M9 31C9 28.2386 11.2386 26 14 26H84C86.7614 26 89 28.2386 89 31V57.6331C89 60.1345 87.1515 62.251 84.6728 62.5876L49.1814 67.4075C48.7292 67.4689 48.2709 67.4681 47.819 67.4052L13.3104 62.6002C10.8393 62.2561 9 60.143 9 57.648V31Z" fill="url(#paint0_linear_185_602)"/>
<path fill-rule="evenodd" clip-rule="evenodd" d="M58 16V9C58 6.23858 55.7614 4 53 4H27C24.2386 4 22 6.23858 22 9V16H5C2.23858 16 0 18.2386 0 21V47.648C0 49.677 1.21649 51.4536 3 52.2314V71.0001C3 73.7615 5.23858 76.0001 8 76.0001H72C74.7614 76.0001 77 73.7615 77 71.0001V52.2165C78.7831 51.4389 80 49.6627 80 47.6331V21C80 18.2386 77.7614 16 75 16H58ZM27 6C25.3431 6 24 7.34315 24 9V16H27V12C27 10.3431 28.3431 9 30 9H50C51.6569 9 53 10.3431 53 12V16H56V9C56 7.34315 54.6569 6 53 6H27ZM51 16V12C51 11.4477 50.5523 11 50 11H30C29.4477 11 29 11.4477 29 12V16H51ZM75 18H5C3.34315 18 2 19.3431 2 21V47.648C2 49.145 3.10358 50.4128 4.58627 50.6193L15.0201 52.0721C15.2356 49.7875 17.159 48 19.5 48C21.9853 48 24 50.0147 24 52.5V53.3225L39.0948 55.4243C39.3659 55.462 39.641 55.4625 39.9122 55.4257L56 53.2409V52.5C56 50.0147 58.0147 48 60.5 48C62.8239 48 64.7363 49.7615 64.9749 52.0221L75.4037 50.6058C76.8909 50.4039 78 49.134 78 47.6331V21C78 19.3431 76.6569 18 75 18ZM40.4505 57.3893L56 55.2776V57.5C56 59.9853 58.0147 62 60.5 62C62.9853 62 65 59.9853 65 57.5V54.0554L75 52.6974V71.0001C75 72.6569 73.6569 74.0001 72 74.0001H8C6.34315 74.0001 5 72.6569 5 71.0001V52.7155L15 54.1079V57.5C15 59.9853 17.0147 62 19.5 62C21.9853 62 24 59.9853 24 57.5V55.3611L38.5431 57.3861C39.1758 57.4742 39.8175 57.4752 40.4505 57.3893ZM22 52.5V57.5C22 58.8807 20.8807 60 19.5 60C18.1193 60 17 58.8807 17 57.5V52.5C17 51.1193 18.1193 50 19.5 50C20.8807 50 22 51.1193 22 52.5ZM63 57.5V52.5C63 51.1193 61.8807 50 60.5 50C59.1193 50 58 51.1193 58 52.5V57.5C58 58.8807 59.1193 60 60.5 60C61.8807 60 63 58.8807 63 57.5Z" fill="url(#paint1_linear_185_602)"/>
</g>
<defs>
<linearGradient id="paint0_linear_185_602" x1="49" y1="26" x2="49" y2="67.5" gradientUnits="userSpaceOnUse">
<stop stop-color="#FCDAA0"/>
<stop offset="1" stop-color="#B5A78F"/>
</linearGradient>
<linearGradient id="paint1_linear_185_602" x1="40" y1="4" x2="40" y2="76.0001" gradientUnits="userSpaceOnUse">
<stop stop-color="#D3AE7B"/>
<stop offset="1" stop-color="#493304"/>
</linearGradient>
<clipPath id="clip0_185_602">
<rect width="80" height="80" fill="white"/>
</clipPath>
</defs>
</svg>
