<svg width="609" height="352" viewBox="0 0 609 352" fill="none" xmlns="http://www.w3.org/2000/svg">
<rect opacity="0.1" x="616" y="263" width="1.00003" height="616" transform="rotate(90 616 263)" fill="url(#paint0_linear)"/>
<rect opacity="0.1" x="616" y="293" width="1.00003" height="616" transform="rotate(90 616 293)" fill="url(#paint1_linear)"/>
<rect opacity="0.1" x="616" y="233" width="1.00003" height="616" transform="rotate(90 616 233)" fill="url(#paint2_linear)"/>
<rect opacity="0.1" x="616" y="203" width="1.00003" height="616" transform="rotate(90 616 203)" fill="url(#paint3_linear)"/>
<rect opacity="0.1" x="616" y="173" width="1.00003" height="616" transform="rotate(90 616 173)" fill="url(#paint4_linear)"/>
<rect opacity="0.1" x="616" y="143" width="1.00003" height="616" transform="rotate(90 616 143)" fill="url(#paint5_linear)"/>
<rect opacity="0.1" x="616" y="113" width="1.00003" height="616" transform="rotate(90 616 113)" fill="url(#paint6_linear)"/>
<rect opacity="0.1" x="616" y="83.0002" width="1.00003" height="616" transform="rotate(90 616 83.0002)" fill="url(#paint7_linear)"/>
<rect opacity="0.1" x="616" y="53.0002" width="1.00003" height="616" transform="rotate(90 616 53.0002)" fill="url(#paint8_linear)"/>
<rect opacity="0.1" x="616" y="23.0005" width="1.00003" height="616" transform="rotate(90 616 23.0005)" fill="url(#paint9_linear)"/>
<rect opacity="0.1" width="0.894144" height="351.314" transform="matrix(1 0 0 -1 187 352)" fill="url(#paint10_linear)"/>
<rect opacity="0.1" width="0.894144" height="351.314" transform="matrix(1 0 0 -1 281 352)" fill="url(#paint11_linear)"/>
<rect opacity="0.1" width="0.894144" height="351.314" transform="matrix(1 0 0 -1 375 352)" fill="url(#paint12_linear)"/>
<rect opacity="0.1" width="0.894144" height="351.314" transform="matrix(1 0 0 -1 469 363.314)" fill="url(#paint13_linear)"/>
<rect opacity="0.1" width="0.894144" height="351.314" transform="matrix(1 0 0 -1 563 363.314)" fill="url(#paint14_linear)"/>
<rect opacity="0.1" width="0.894144" height="351.314" transform="matrix(1 0 0 -1 93 352)" fill="url(#paint15_linear)"/>
<defs>
<linearGradient id="paint0_linear" x1="616.5" y1="263" x2="616.5" y2="879" gradientUnits="userSpaceOnUse">
<stop stop-color="#C4C4C4" stop-opacity="0"/>
<stop offset="0.513812" stop-color="#C4C4C4"/>
<stop offset="1" stop-color="#C4C4C4" stop-opacity="0"/>
</linearGradient>
<linearGradient id="paint1_linear" x1="616.5" y1="293" x2="616.5" y2="909" gradientUnits="userSpaceOnUse">
<stop stop-color="#C4C4C4" stop-opacity="0"/>
<stop offset="0.513812" stop-color="#C4C4C4"/>
<stop offset="1" stop-color="#C4C4C4" stop-opacity="0"/>
</linearGradient>
<linearGradient id="paint2_linear" x1="616.5" y1="233" x2="616.5" y2="849" gradientUnits="userSpaceOnUse">
<stop stop-color="#C4C4C4" stop-opacity="0"/>
<stop offset="0.513812" stop-color="#C4C4C4"/>
<stop offset="1" stop-color="#C4C4C4" stop-opacity="0"/>
</linearGradient>
<linearGradient id="paint3_linear" x1="616.5" y1="203" x2="616.5" y2="819" gradientUnits="userSpaceOnUse">
<stop stop-color="#C4C4C4" stop-opacity="0"/>
<stop offset="0.513812" stop-color="#C4C4C4"/>
<stop offset="1" stop-color="#C4C4C4" stop-opacity="0"/>
</linearGradient>
<linearGradient id="paint4_linear" x1="616.5" y1="173" x2="616.5" y2="789" gradientUnits="userSpaceOnUse">
<stop stop-color="#C4C4C4" stop-opacity="0"/>
<stop offset="0.513812" stop-color="#C4C4C4"/>
<stop offset="1" stop-color="#C4C4C4" stop-opacity="0"/>
</linearGradient>
<linearGradient id="paint5_linear" x1="616.5" y1="143" x2="616.5" y2="759" gradientUnits="userSpaceOnUse">
<stop stop-color="#C4C4C4" stop-opacity="0"/>
<stop offset="0.513812" stop-color="#C4C4C4"/>
<stop offset="1" stop-color="#C4C4C4" stop-opacity="0"/>
</linearGradient>
<linearGradient id="paint6_linear" x1="616.5" y1="113" x2="616.5" y2="729" gradientUnits="userSpaceOnUse">
<stop stop-color="#C4C4C4" stop-opacity="0"/>
<stop offset="0.513812" stop-color="#C4C4C4"/>
<stop offset="1" stop-color="#C4C4C4" stop-opacity="0"/>
</linearGradient>
<linearGradient id="paint7_linear" x1="616.5" y1="83.0002" x2="616.5" y2="699" gradientUnits="userSpaceOnUse">
<stop stop-color="#C4C4C4" stop-opacity="0"/>
<stop offset="0.513812" stop-color="#C4C4C4"/>
<stop offset="1" stop-color="#C4C4C4" stop-opacity="0"/>
</linearGradient>
<linearGradient id="paint8_linear" x1="616.5" y1="53.0002" x2="616.5" y2="669" gradientUnits="userSpaceOnUse">
<stop stop-color="#C4C4C4" stop-opacity="0"/>
<stop offset="0.513812" stop-color="#C4C4C4"/>
<stop offset="1" stop-color="#C4C4C4" stop-opacity="0"/>
</linearGradient>
<linearGradient id="paint9_linear" x1="616.5" y1="23.0005" x2="616.5" y2="639" gradientUnits="userSpaceOnUse">
<stop stop-color="#C4C4C4" stop-opacity="0"/>
<stop offset="0.513812" stop-color="#C4C4C4"/>
<stop offset="1" stop-color="#C4C4C4" stop-opacity="0"/>
</linearGradient>
<linearGradient id="paint10_linear" x1="0" y1="0" x2="0.886635" y2="351.312" gradientUnits="userSpaceOnUse">
<stop stop-color="#C4C4C4" stop-opacity="0"/>
<stop offset="0.486188" stop-color="#C4C4C4"/>
<stop offset="1" stop-color="#C4C4C4" stop-opacity="0"/>
</linearGradient>
<linearGradient id="paint11_linear" x1="0" y1="0" x2="0.886635" y2="351.312" gradientUnits="userSpaceOnUse">
<stop stop-color="#C4C4C4" stop-opacity="0"/>
<stop offset="0.486188" stop-color="#C4C4C4"/>
<stop offset="1" stop-color="#C4C4C4" stop-opacity="0"/>
</linearGradient>
<linearGradient id="paint12_linear" x1="0" y1="0" x2="0.886635" y2="351.312" gradientUnits="userSpaceOnUse">
<stop stop-color="#C4C4C4" stop-opacity="0"/>
<stop offset="0.486188" stop-color="#C4C4C4"/>
<stop offset="1" stop-color="#C4C4C4" stop-opacity="0"/>
</linearGradient>
<linearGradient id="paint13_linear" x1="0" y1="0" x2="0.886635" y2="351.312" gradientUnits="userSpaceOnUse">
<stop stop-color="#C4C4C4" stop-opacity="0"/>
<stop offset="0.486188" stop-color="#C4C4C4"/>
<stop offset="1" stop-color="#C4C4C4" stop-opacity="0"/>
</linearGradient>
<linearGradient id="paint14_linear" x1="0" y1="0" x2="0.886635" y2="351.312" gradientUnits="userSpaceOnUse">
<stop stop-color="#C4C4C4" stop-opacity="0"/>
<stop offset="0.486188" stop-color="#C4C4C4"/>
<stop offset="1" stop-color="#C4C4C4" stop-opacity="0"/>
</linearGradient>
<linearGradient id="paint15_linear" x1="0" y1="0" x2="0.886635" y2="351.312" gradientUnits="userSpaceOnUse">
<stop stop-color="#C4C4C4" stop-opacity="0"/>
<stop offset="0.486188" stop-color="#C4C4C4"/>
<stop offset="1" stop-color="#C4C4C4" stop-opacity="0"/>
</linearGradient>
</defs>
</svg>
