<svg width="227" height="26" viewBox="0 0 227 26" fill="none" xmlns="http://www.w3.org/2000/svg">
<g clip-path="url(#clip0_89:213)">
<path d="M60.757 19.2342C62.1521 13.5799 63.5471 7.92566 64.8941 2.22306C65.1346 1.11153 65.5675 0.82157 66.6259 0.869897C68.5982 0.966552 70.5224 0.918225 72.4947 0.869897C73.1682 0.869897 73.3606 1.11153 73.3606 1.73979C73.3606 9.32715 73.3606 16.8662 73.3606 24.4535C73.3606 25.2268 73.1201 25.3718 72.3985 25.3718C71.3883 25.3234 70.33 25.3234 69.3198 25.3718C68.4539 25.4201 68.2133 25.1301 68.2133 24.3086C68.2614 18.4127 68.2133 12.5167 68.2133 6.62083C68.2133 6.28254 68.3095 5.89592 68.0209 5.41265C67.155 8.94053 66.3372 12.3234 65.4713 15.7547C64.7498 18.6543 64.0763 21.5056 63.3547 24.4052C63.2104 25.0818 62.9217 25.4201 62.1521 25.3718C60.9975 25.2751 59.843 25.3234 58.6404 25.3718C57.9669 25.4201 57.6783 25.1785 57.5339 24.5019C56.2832 18.9926 54.9844 13.5316 53.6855 8.07064C53.4931 7.20075 53.2526 6.28254 52.8677 5.41265C52.8677 5.75094 52.8677 6.08923 52.8677 6.47585C52.8677 12.4201 52.8677 18.4127 52.8677 24.3569C52.8677 25.1301 52.6753 25.4684 51.8575 25.3718C50.8473 25.3234 49.789 25.2751 48.7788 25.3718C47.9129 25.4201 47.7686 25.0818 47.7686 24.3086C47.8167 18.8476 47.7686 13.3383 47.7686 7.87733C47.7686 5.79927 47.7686 3.76953 47.7686 1.69146C47.7686 1.06321 47.961 0.869897 48.5863 0.869897C50.5587 0.918225 52.5791 0.966552 54.5514 0.869897C55.6578 0.82157 55.9465 1.20819 56.187 2.22306C57.5339 7.92566 58.929 13.5799 60.3241 19.2342C60.5165 19.3792 60.6127 19.3792 60.757 19.2342Z" fill="#707274"/>
<path d="M97.6056 13.1933C97.6056 16.9145 97.5575 20.5874 97.6056 24.3086C97.6056 25.1784 97.3651 25.4201 96.4992 25.3718C95.3927 25.3234 94.2382 25.2751 93.0837 25.3718C92.1697 25.4201 92.0254 25.0818 92.0254 24.2602C92.0735 18.316 92.0254 12.3234 92.0735 6.3792C92.0735 5.36433 91.833 5.12269 90.8227 5.12269C88.177 5.17102 85.5312 5.17102 82.8854 5.12269C81.9714 5.12269 81.6827 5.316 81.6827 6.28254C81.7308 12.2751 81.6827 18.2677 81.7308 24.2602C81.7308 25.1301 81.5384 25.4201 80.6725 25.3234C79.4218 25.2268 78.2192 25.2751 76.9684 25.3234C76.3912 25.3234 76.1987 25.1784 76.1987 24.5502C76.1987 16.8662 76.1987 9.18217 76.1987 1.54648C76.1987 0.966558 76.4393 0.869904 76.9203 0.869904C83.5588 0.869904 90.2455 0.869904 96.884 0.869904C97.6537 0.869904 97.5575 1.30485 97.5575 1.78812C97.6056 5.60596 97.6056 9.42381 97.6056 13.1933Z" fill="#707274"/>
<path d="M100.059 20.7323C102.464 21.3606 103.33 20.829 103.859 18.461C104.437 16.0929 104.388 13.6283 104.437 11.2119C104.485 8.11896 104.485 4.97769 104.437 1.88476C104.437 1.11152 104.677 0.918213 105.447 0.918213C110.931 0.96654 116.415 0.96654 121.899 0.918213C122.668 0.918213 122.909 1.11152 122.909 1.88476C122.861 9.37546 122.861 16.8662 122.909 24.3569C122.909 25.1784 122.62 25.4201 121.851 25.3717C120.744 25.3234 119.638 25.3234 118.579 25.3717C117.665 25.4201 117.377 25.1784 117.377 24.2119C117.425 18.2677 117.377 12.2751 117.425 6.33085C117.425 5.41264 117.184 5.07435 116.27 5.12267C114.442 5.21933 112.566 5.171 110.738 5.12267C109.921 5.12267 109.68 5.31598 109.68 6.13754C109.728 10.052 109.776 14.0149 109.199 17.9294C108.958 19.6691 108.574 21.3606 107.756 22.9071C106.986 24.3569 105.738 25 104.244 25.5651C103.211 25.8633 102.375 25.7773 101.441 25.7109C100.976 25.6523 100.918 25.6602 100.558 25.5651C100.199 25.4699 99.6816 25.3615 99.6287 25.3281C99.5545 25.2812 99.6287 23.7971 99.6287 23.0078C99.6286 22.3438 99.6287 21.7508 99.6287 21.0742C99.6286 20.7773 99.5779 20.4907 100.059 20.7323Z" fill="#707274"/>
<path d="M174.719 13.0483C174.719 9.32713 174.719 5.60594 174.719 1.83642C174.719 1.06318 174.911 0.821549 175.681 0.869876C176.883 0.918203 178.086 0.918203 179.289 0.869876C180.107 0.821549 180.251 1.15984 180.251 1.88475C180.203 4.3011 180.251 6.66913 180.203 9.08549C180.203 9.85872 180.347 10.197 181.213 10.1487C184.003 10.1004 186.841 10.1004 189.631 10.1487C190.353 10.1487 190.594 9.95538 190.594 9.23047C190.545 6.76579 190.594 4.3011 190.545 1.83642C190.545 1.15984 190.69 0.869876 191.459 0.918203C192.71 0.96653 194.009 0.96653 195.26 0.918203C195.837 0.918203 196.029 1.06318 196.029 1.64311C196.029 9.2788 196.029 16.9145 196.029 24.5502C196.029 25.1784 195.789 25.3717 195.212 25.3717C193.961 25.3234 192.662 25.3234 191.411 25.3717C190.69 25.4201 190.545 25.0818 190.545 24.4535C190.545 21.4572 190.545 18.4126 190.594 15.4163C190.594 14.6431 190.401 14.4015 189.631 14.4015C186.793 14.4498 183.955 14.4498 181.117 14.4015C180.443 14.4015 180.251 14.6431 180.251 15.2714C180.299 18.2676 180.203 21.2156 180.299 24.2119C180.299 25.1301 180.01 25.4201 179.144 25.3234C178.038 25.2268 176.883 25.2751 175.729 25.3234C174.911 25.3717 174.767 25.0334 174.767 24.3085C174.719 20.5873 174.719 16.8178 174.719 13.0483Z" fill="#707274"/>
<path d="M152.302 13.0483C152.302 9.32715 152.302 5.65429 152.302 1.9331C152.302 1.15987 152.446 0.869904 153.312 0.869904C159.085 0.918231 164.905 0.918231 170.678 0.869904C171.448 0.869904 171.736 1.06321 171.688 1.83645C171.64 2.56135 171.64 3.33459 171.688 4.10782C171.784 5.02604 171.4 5.17102 170.582 5.17102C166.637 5.12269 162.692 5.17102 158.748 5.12269C157.834 5.12269 157.545 5.36433 157.593 6.28254C157.69 7.39407 157.641 8.55392 157.593 9.66544C157.593 10.3904 157.834 10.5837 158.555 10.5837C162.211 10.5353 165.819 10.5837 169.475 10.5353C170.245 10.5353 170.63 10.6803 170.534 11.5502C170.437 12.2268 170.486 12.9034 170.534 13.5799C170.63 14.4982 170.245 14.6431 169.427 14.6431C165.916 14.5948 162.356 14.6431 158.844 14.5948C157.93 14.5948 157.545 14.7881 157.641 15.7547C157.738 17.0595 157.69 18.3643 157.641 19.6692C157.593 20.5391 157.834 20.829 158.748 20.829C162.933 20.7807 167.118 20.829 171.303 20.7807C172.121 20.7807 172.41 20.974 172.314 21.7956C172.169 22.9071 172.795 24.3569 172.073 25.0335C171.4 25.7101 170.005 25.2268 168.898 25.2268C163.703 25.2268 158.555 25.2268 153.36 25.2751C152.542 25.2751 152.35 25.0335 152.35 24.2602C152.35 20.5391 152.302 16.7695 152.302 13.0483Z" fill="#707274"/>
<path d="M22.4171 0.869904C21.7436 1.9331 20.8777 2.60968 20.108 3.33459C17.8952 5.41265 15.5861 7.39407 13.4695 9.56879C12.0263 11.0186 12.0263 11.0186 13.1809 12.4684C16.4039 16.5279 19.627 20.5874 22.85 24.5985C22.9944 24.7435 23.1387 24.8885 23.0906 25.1301C22.9944 25.3718 22.7538 25.3234 22.5614 25.3234C20.6372 25.3234 18.713 25.3234 16.7888 25.3234C16.0191 25.3234 15.8267 24.5985 15.4899 24.1636C13.1328 21.119 10.8237 18.026 8.56275 14.9331C8.27412 14.4982 8.0817 14.5465 7.79307 14.8848C7.26391 15.4647 6.73475 15.9963 6.10938 16.4796C5.62833 16.8179 5.53212 17.3495 5.53212 17.9294C5.53212 20.1041 5.53212 22.3272 5.53212 24.5019C5.53212 25.1785 5.33969 25.4201 4.66622 25.3718C3.46359 25.3234 2.26095 25.3234 1.05832 25.3718C0.192421 25.4201 0 25.0818 0 24.3086C0.0481054 18.026 0 11.6952 0 5.41265C0 4.15615 0.0481054 2.94797 0 1.73979C0 1.15987 0.0962107 0.869904 0.769686 0.918231C2.06853 0.966558 3.36737 0.966558 4.66622 0.918231C5.33969 0.918231 5.48401 1.15987 5.48401 1.73979C5.4359 4.30113 5.48401 6.86247 5.48401 9.42381C5.48401 9.81042 5.3878 10.1487 5.67643 10.632C7.31201 9.03719 8.89949 7.49072 10.487 5.89593C12.0744 4.30113 13.6619 2.70633 15.2494 1.11154C15.4418 0.918231 15.7304 0.869904 16.0191 0.869904C18.0876 0.869904 20.108 0.869904 22.4171 0.869904Z" fill="#707274"/>
<path d="M60.7572 19.2342C60.7572 19.4275 60.8534 19.7175 60.5647 19.7175C60.2761 19.7175 60.3723 19.4275 60.3723 19.2342C60.5166 19.2342 60.6129 19.2342 60.7572 19.2342Z" fill="#707274"/>
<path fill-rule="evenodd" clip-rule="evenodd" d="M33.1873 26C40.2635 26 46 20.1797 46 13C46 5.8203 40.2635 0 33.1873 0C26.111 0 20.3745 5.8203 20.3745 13C20.3745 20.1797 26.111 26 33.1873 26ZM33.202 21.5676C37.1795 21.5676 40.404 17.7939 40.404 13.1387C40.404 8.48349 37.1795 4.70972 33.202 4.70972C29.2244 4.70972 26 8.48349 26 13.1387C26 17.7939 29.2244 21.5676 33.202 21.5676Z" fill="#707274"/>
<path d="M149.896 24.5502C147.01 17.0111 144.124 9.4721 141.286 1.93307C140.997 1.11151 140.564 0.821545 139.746 0.918199C139.073 0.966527 138.399 0.918199 137.678 0.918199C135.417 0.386601 134.31 1.20816 133.492 3.52787C130.991 10.632 128.153 17.5911 125.411 24.5985C125.17 25.2268 125.363 25.4201 125.988 25.3717C127.431 25.3717 128.874 25.3234 130.318 25.3717C130.847 25.3717 131.039 25.1784 131.183 24.6952C131.616 23.4386 132.097 22.1821 132.53 20.9256C132.723 20.4424 132.915 20.1524 133.541 20.1524C136.283 20.2007 139.025 20.2007 141.767 20.1524C142.392 20.1524 142.584 20.394 142.777 20.9256C143.162 22.1821 143.643 23.4386 144.028 24.6952C144.172 25.2267 144.412 25.3234 144.893 25.3234C146.385 25.3234 147.828 25.3234 149.319 25.3234C149.945 25.3717 150.185 25.2751 149.896 24.5502ZM140.323 16.1412C138.544 16.1412 136.764 16.1412 134.984 16.1412C134.503 16.1412 134.358 15.9479 134.503 15.513C135.513 12.565 136.571 9.61708 137.678 6.47582C138.928 9.56876 139.794 12.6134 140.853 15.513C140.949 15.8996 140.756 16.1412 140.323 16.1412Z" fill="#707274"/>
<path d="M219.166 15.863C219.02 16.009 214.11 20.8493 213.766 21.2055C214.833 21.937 216.058 22.4046 217.34 22.5699C218.622 22.7352 219.925 22.5935 221.142 22.1564C221.434 22.0496 221.949 21.9178 222.252 21.7718L222.557 21.4441C224 19.8812 224.984 17.95 225.401 15.863C223.325 14.9797 220.606 14.6734 219.166 15.863Z" fill="#0575C0"/>
<path d="M219.166 9.66927C220.538 11.0476 223.727 11.1652 225.209 10.0076C224.854 8.46186 223.432 5.73363 221.892 4.43006L221.466 4.03828C220.401 3.10174 219.181 2.35812 217.861 1.84073L217.075 1.56292L215.828 1.23881C214.978 1.07565 214.115 0.995729 213.25 1.00018C212.414 1.00018 211.58 1.08611 210.762 1.25662L209.457 1.61278L208.714 1.87991C207.629 2.34205 206.617 2.95995 205.71 3.71416C207.014 3.31456 208.393 3.22626 209.737 3.45633C211.08 3.6864 212.352 4.22845 213.449 5.0391C213.449 5.0391 219.013 9.51612 219.166 9.66927Z" fill="#FEE927"/>
<path d="M204.779 22.103C205.91 23.2149 207.248 24.0934 208.718 24.6888L209.461 24.9559L210.769 25.3121C212.41 25.6427 214.1 25.6536 215.746 25.3441L217.083 25.0058L217.964 24.6888C219.087 24.2293 220.138 23.6116 221.086 22.8545C219.736 23.2365 218.319 23.3161 216.936 23.0878C215.552 22.8594 214.236 22.3286 213.08 21.5331L205.344 13.7901C204.413 15.1537 203.917 16.7682 203.922 18.4202C203.923 19.3081 204.063 20.1903 204.338 21.0345C204.455 21.3802 204.592 21.7191 204.747 22.0496L204.779 22.103Z" fill="#68BCEB"/>
<path d="M204.459 4.78266C203.35 5.91792 202.475 7.25984 201.881 8.73255L201.611 9.47694L201.256 10.7876C200.915 12.4322 200.915 14.1294 201.256 15.774L201.611 17.0811L201.881 17.829C202.339 18.9179 202.956 19.9323 203.712 20.8386C203.457 20.0062 203.323 19.1414 203.314 18.2707C203.31 16.409 203.907 14.5959 205.017 13.1027L212.749 5.36321C211.681 4.63202 210.456 4.1638 209.174 3.99669C207.891 3.82958 206.588 3.96831 205.369 4.40157C205.081 4.50841 204.782 4.62951 204.484 4.77554L204.459 4.78266Z" fill="#80C428"/>
</g>
<defs>
<clipPath id="clip0_89:213">
<rect width="227" height="26" fill="white"/>
</clipPath>
</defs>
</svg>
