<svg width="126" height="120" viewBox="0 0 126 120" fill="none" xmlns="http://www.w3.org/2000/svg">
<g clip-path="url(#clip0_5_767)">
<path d="M30.5892 10.9838C28.4715 12.5748 25.6177 15.0317 23.6085 17.0331C21.4316 19.22 20.3975 20.5188 21.6955 19.4244C24.2629 17.281 30.5024 12.8292 33.2486 11.1658C36.9989 8.89413 39.9232 7.57103 44.2116 6.23399C51.939 3.82234 57.9938 3.32026 67.3466 4.37812C71.1329 4.8019 81.2515 7.21668 84.9103 8.5861C93.1126 11.6294 100.316 16.5384 106.339 23.1986C108.333 25.3804 111.485 29.3819 112.391 30.8779C112.958 31.7672 113.016 31.8163 113.03 31.3313C113.018 30.3863 109.25 24.489 106.702 21.4384C98.2477 11.3202 87.2392 4.43019 75.2249 1.70697C63.4863 -0.931124 52.2858 0.278798 40.2925 5.49847C38.3811 6.32011 32.0188 9.92178 30.5892 10.9838Z" fill="black"/>
<path d="M30.5892 10.9838C28.4715 12.5748 25.6177 15.0317 23.6085 17.0331C21.4316 19.22 20.3975 20.5188 21.6955 19.4244C24.2629 17.281 30.5024 12.8292 33.2486 11.1658C36.9989 8.89413 39.9232 7.57103 44.2116 6.23399C51.939 3.82234 57.9938 3.32026 67.3466 4.37812C71.1329 4.8019 81.2515 7.21668 84.9103 8.5861C93.1126 11.6294 100.316 16.5384 106.339 23.1986C108.333 25.3804 111.485 29.3819 112.391 30.8779C112.958 31.7672 113.016 31.8163 113.03 31.3313C113.018 30.3863 109.25 24.489 106.702 21.4384C98.2477 11.3202 87.2392 4.43019 75.2249 1.70697C63.4863 -0.931124 52.2858 0.278798 40.2925 5.49847C38.3811 6.32011 32.0188 9.92178 30.5892 10.9838Z" fill="url(#paint0_linear_5_767)"/>
<path d="M33.469 16.6629C30.778 18.7411 26.7547 22.5507 24.4075 25.2891C22.22 27.8747 18.3504 33.0479 18.6136 33.1125C18.6794 33.1287 19.9197 31.9853 21.3314 30.5699C32.1059 19.8696 35.7687 17.3148 44.935 14.0876C57.1006 9.79999 70.9667 9.24455 81.6358 12.6144C89.4043 15.0802 96.123 19.0502 101.825 24.5325C105.988 28.5379 107.229 29.6627 107.373 29.5758C107.455 29.5261 106.963 28.7598 106.297 27.8462C97.6015 15.9416 80.5227 6.84577 65.7187 6.17651C59.6114 5.89808 52.245 7.19463 45.8656 9.65814C42.7601 10.8669 36.2009 14.5599 33.469 16.6629Z" fill="black"/>
<path d="M33.469 16.6629C30.778 18.7411 26.7547 22.5507 24.4075 25.2891C22.22 27.8747 18.3504 33.0479 18.6136 33.1125C18.6794 33.1287 19.9197 31.9853 21.3314 30.5699C32.1059 19.8696 35.7687 17.3148 44.935 14.0876C57.1006 9.79999 70.9667 9.24455 81.6358 12.6144C89.4043 15.0802 96.123 19.0502 101.825 24.5325C105.988 28.5379 107.229 29.6627 107.373 29.5758C107.455 29.5261 106.963 28.7598 106.297 27.8462C97.6015 15.9416 80.5227 6.84577 65.7187 6.17651C59.6114 5.89808 52.245 7.19463 45.8656 9.65814C42.7601 10.8669 36.2009 14.5599 33.469 16.6629Z" fill="url(#paint1_linear_5_767)"/>
<path d="M87.8335 12.7529C87.8799 12.8433 89.1764 13.6636 90.7392 14.5948C92.2793 15.5186 94.5294 16.9732 95.7053 17.8553C98.2705 19.7386 102.657 24.0962 105.059 27.1101C118.992 44.7364 121.437 69.0344 111.151 87.9233C109.017 91.8929 105.534 96.6111 102.474 99.7036C100.982 101.212 101.347 101.405 102.878 99.9343C109.872 93.3011 112.394 90.1611 115.664 83.9144C117.277 80.8594 120.06 72.2157 120.474 68.976C121.796 58.8545 120.515 49.934 116.257 39.627C114.711 35.9072 111.346 30.6451 108.065 26.8445C104.622 22.841 98.9531 18.3223 93.9615 15.5318C91.3098 14.0737 87.6634 12.4212 87.8335 12.7529Z" fill="black"/>
<path d="M87.8335 12.7529C87.8799 12.8433 89.1764 13.6636 90.7392 14.5948C92.2793 15.5186 94.5294 16.9732 95.7053 17.8553C98.2705 19.7386 102.657 24.0962 105.059 27.1101C118.992 44.7364 121.437 69.0344 111.151 87.9233C109.017 91.8929 105.534 96.6111 102.474 99.7036C100.982 101.212 101.347 101.405 102.878 99.9343C109.872 93.3011 112.394 90.1611 115.664 83.9144C117.277 80.8594 120.06 72.2157 120.474 68.976C121.796 58.8545 120.515 49.934 116.257 39.627C114.711 35.9072 111.346 30.6451 108.065 26.8445C104.622 22.841 98.9531 18.3223 93.9615 15.5318C91.3098 14.0737 87.6634 12.4212 87.8335 12.7529Z" fill="url(#paint2_linear_5_767)"/>
<path d="M24.6257 14.8182C17.7491 19.6582 12.1904 26.5347 7.27861 36.2146C4.21172 42.2764 1.93552 48.6259 0.809397 54.3763C-0.795925 62.4987 -0.00524382 71.4837 3.10956 80.4448C6.58377 90.532 15.2333 102.871 22.613 108.238C24.6736 109.748 24.434 109.269 21.7025 106.417C8.64433 92.8082 3.18144 80.2291 3.18144 63.6967C3.15748 58.8089 3.27728 57.4431 3.97212 53.1064C6.20041 39.0658 12.4779 27.1577 23.0443 16.8548C24.7694 15.1776 26.1591 13.8119 26.1112 13.8119C26.0872 13.8119 25.4164 14.2672 24.6257 14.8182Z" fill="#6AAB30"/>
<path d="M24.6257 14.8182C17.7491 19.6582 12.1904 26.5347 7.27861 36.2146C4.21172 42.2764 1.93552 48.6259 0.809397 54.3763C-0.795925 62.4987 -0.00524382 71.4837 3.10956 80.4448C6.58377 90.532 15.2333 102.871 22.613 108.238C24.6736 109.748 24.434 109.269 21.7025 106.417C8.64433 92.8082 3.18144 80.2291 3.18144 63.6967C3.15748 58.8089 3.27728 57.4431 3.97212 53.1064C6.20041 39.0658 12.4779 27.1577 23.0443 16.8548C24.7694 15.1776 26.1591 13.8119 26.1112 13.8119C26.0872 13.8119 25.4164 14.2672 24.6257 14.8182Z" fill="url(#paint3_linear_5_767)"/>
<path d="M27.4052 15.8725C26.8062 16.3517 25.3686 17.5976 24.1946 18.6758C16.0242 26.1513 10.9686 35.6395 9.02786 47.2361C8.42886 50.926 8.42886 59.5756 9.02786 63.1696C10.4894 71.6035 13.173 78.4561 17.7733 85.5003C19.6182 88.3276 20.4568 89.31 23.7154 92.5685C27.6209 96.4501 29.9689 98.3908 32.0774 99.469C32.7483 99.8045 33.0119 99.9003 32.6764 99.6607C21.7746 91.7778 13.3646 76.3236 11.8072 61.2767C11.4239 57.4671 11.6635 49.728 12.2864 46.0381C13.2448 40.4075 14.6106 36.0947 17.1024 30.9433C19.2828 26.4149 21.2714 23.5876 26.4229 17.6455C29.0824 14.5786 29.1064 14.5546 27.4052 15.8725Z" fill="#6AAB30"/>
<path d="M27.4052 15.8725C26.8062 16.3517 25.3686 17.5976 24.1946 18.6758C16.0242 26.1513 10.9686 35.6395 9.02786 47.2361C8.42886 50.926 8.42886 59.5756 9.02786 63.1696C10.4894 71.6035 13.173 78.4561 17.7733 85.5003C19.6182 88.3276 20.4568 89.31 23.7154 92.5685C27.6209 96.4501 29.9689 98.3908 32.0774 99.469C32.7483 99.8045 33.0119 99.9003 32.6764 99.6607C21.7746 91.7778 13.3646 76.3236 11.8072 61.2767C11.4239 57.4671 11.6635 49.728 12.2864 46.0381C13.2448 40.4075 14.6106 36.0947 17.1024 30.9433C19.2828 26.4149 21.2714 23.5876 26.4229 17.6455C29.0824 14.5786 29.1064 14.5546 27.4052 15.8725Z" fill="url(#paint4_linear_5_767)"/>
<path d="M111.959 25.5715C112.187 26.0518 113.453 28.4397 114.755 30.8659C119.551 39.823 120.91 44.3943 121.619 54.1783C122.558 66.6552 120.366 78.1449 115.229 87.6573C109.842 97.6515 102.567 104.879 89.6495 113.026C87.0523 114.66 87.4 114.725 90.7155 113.214C98.1016 109.8 106.544 103.156 111.642 96.75C121.569 84.2752 126.361 66.1959 123.789 50.9704C123.254 47.7962 120.98 40.6747 119.352 37.0698C117.369 32.6724 113.813 26.8909 112.069 25.2092C111.53 24.7022 111.53 24.7022 111.959 25.5715Z" fill="black"/>
<path d="M111.959 25.5715C112.187 26.0518 113.453 28.4397 114.755 30.8659C119.551 39.823 120.91 44.3943 121.619 54.1783C122.558 66.6552 120.366 78.1449 115.229 87.6573C109.842 97.6515 102.567 104.879 89.6495 113.026C87.0523 114.66 87.4 114.725 90.7155 113.214C98.1016 109.8 106.544 103.156 111.642 96.75C121.569 84.2752 126.361 66.1959 123.789 50.9704C123.254 47.7962 120.98 40.6747 119.352 37.0698C117.369 32.6724 113.813 26.8909 112.069 25.2092C111.53 24.7022 111.53 24.7022 111.959 25.5715Z" fill="url(#paint5_linear_5_767)"/>
<path d="M7.71865 78.9237C8.60624 82.6829 11.7883 89.2212 14.7485 93.3215C19.9421 100.539 27.681 107.89 33.0709 110.761C42.5083 115.757 48.2359 117.947 54.7927 119.079C68.7266 121.509 82.0762 117.677 98.8349 106.52C103.177 103.624 102.584 103.811 97.6004 106.896C92.4054 110.107 89.2185 111.647 84.7354 113.133C79.0664 115.017 74.2713 115.746 66.985 115.788C59.508 115.859 54.5711 115.155 47.4065 113.011C37.0719 109.938 28.5275 105.13 21.2596 98.2669C16.4634 93.722 13.3009 89.2926 9.6145 81.9793C8.6153 79.9737 7.72187 78.2763 7.64773 78.2068C7.57358 78.1372 7.60828 78.4717 7.71865 78.9237Z" fill="black"/>
<path d="M7.71865 78.9237C8.60624 82.6829 11.7883 89.2212 14.7485 93.3215C19.9421 100.539 27.681 107.89 33.0709 110.761C42.5083 115.757 48.2359 117.947 54.7927 119.079C68.7266 121.509 82.0762 117.677 98.8349 106.52C103.177 103.624 102.584 103.811 97.6004 106.896C92.4054 110.107 89.2185 111.647 84.7354 113.133C79.0664 115.017 74.2713 115.746 66.985 115.788C59.508 115.859 54.5711 115.155 47.4065 113.011C37.0719 109.938 28.5275 105.13 21.2596 98.2669C16.4634 93.722 13.3009 89.2926 9.6145 81.9793C8.6153 79.9737 7.72187 78.2763 7.64773 78.2068C7.57358 78.1372 7.60828 78.4717 7.71865 78.9237Z" fill="url(#paint6_linear_5_767)"/>
<path d="M15.4968 84.5659C17.9647 90.4122 27.2612 101.05 33.8741 105.555C46.1656 113.917 62.9377 115.978 78.0325 110.994C84.7892 108.766 91.0013 106.967 97.183 101.408C99.4113 99.3958 102.314 96.1509 103.944 93.8029C105.165 92.0298 105.806 91.4939 103.098 94.2254C95.4073 101.964 81.9619 107.304 69.2152 109.221C66.0045 109.7 57.4508 109.628 54.0245 109.101C42.0445 107.232 32.3886 102.464 23.8349 94.1978C22.4692 92.88 20.9597 91.2028 20.4565 90.484C19.9534 89.7413 19.3783 88.9985 19.1387 88.8068C18.9231 88.6391 18.1084 87.537 17.3178 86.3869C16.5271 85.2368 15.7124 84.1586 15.4968 83.9909C15.1853 83.7033 15.1853 83.7752 15.4968 84.5659Z" fill="black"/>
<path d="M15.4968 84.5659C17.9647 90.4122 27.2612 101.05 33.8741 105.555C46.1656 113.917 62.9377 115.978 78.0325 110.994C84.7892 108.766 91.0013 106.967 97.183 101.408C99.4113 99.3958 102.314 96.1509 103.944 93.8029C105.165 92.0298 105.806 91.4939 103.098 94.2254C95.4073 101.964 81.9619 107.304 69.2152 109.221C66.0045 109.7 57.4508 109.628 54.0245 109.101C42.0445 107.232 32.3886 102.464 23.8349 94.1978C22.4692 92.88 20.9597 91.2028 20.4565 90.484C19.9534 89.7413 19.3783 88.9985 19.1387 88.8068C18.9231 88.6391 18.1084 87.537 17.3178 86.3869C16.5271 85.2368 15.7124 84.1586 15.4968 83.9909C15.1853 83.7033 15.1853 83.7752 15.4968 84.5659Z" fill="url(#paint7_linear_5_767)"/>
</g>
<path d="M51.3213 31.3339C51.8649 31.5047 52.5877 31.7316 53.1299 31.9024C53.233 35.5622 53.0402 38.1954 52.1494 45.323C51.8499 47.7114 51.9602 49.4936 52.5272 51.4751C53.4884 54.8283 56.9981 58.6482 60.3158 57.0025C61.5452 56.3537 62.7732 55.7062 64.0019 55.0588C60.1585 56.9442 56.3436 54.4668 54.8737 50.9835C53.7083 48.2151 53.9288 45.8032 54.074 44.2074C54.4845 39.7073 54.7485 36.2196 54.4155 32.3065C54.8708 32.4495 55.4791 32.6409 55.9352 32.7839C55.0224 30.1472 54.4162 28.651 52.6389 24.3195C52.4255 27.1099 52.1288 28.683 51.3213 31.3339Z" fill="url(#paint8_linear_5_767)"/>
<path d="M47.5757 38.3163L49.2633 38.5006C47.7287 50.6718 47.7287 50.6718 48.3049 53.1015C49.2249 56.9847 52.3404 61.0878 54.3895 60.1245C55.7441 59.4109 57.0981 58.6973 58.4527 57.9822C55.0561 59.6023 51.8125 56.1623 50.5916 53.2018C49.4497 50.4299 49.4497 50.4299 50.4799 38.6337L51.9349 38.793C51.7229 36.5711 51.5208 34.7625 50.8456 31.7174C50.4529 32.5612 50.4529 32.5612 47.5757 38.3163Z" fill="url(#paint9_linear_5_767)"/>
<path d="M42.542 47.3763L44.0489 47.2183C42.2368 58.1558 47.8204 63.5559 47.8859 63.5516L51.9754 61.3966C49.4775 62.5044 44.0553 56.6774 45.1531 47.1038L46.4921 46.9629C46.4565 44.2429 46.7938 41.54 46.9062 38.8257C43.3943 46.3112 43.3943 46.3112 42.542 47.3763Z" fill="url(#paint10_linear_5_767)"/>
<path d="M55.1069 39.1395L56.2254 39.2626C55.5523 49.0461 55.5523 49.0461 57.0969 51.6985C58.6238 54.3224 62.0324 56.0826 65.0911 54.4846C65.7357 54.1446 66.3803 53.8052 67.0256 53.4644C64.0125 55.0047 60.4231 54.1389 58.4907 51.4061C56.6935 48.8647 56.6935 48.8647 57.0443 39.3516L58.0339 39.4597C57.5373 37.3118 57.1482 35.9137 56.1542 33.3083C55.965 34.8287 55.8113 35.9237 55.1069 39.1395Z" fill="url(#paint11_linear_5_767)"/>
<path d="M57.5991 45.7982L58.2722 45.7271C58.5475 52.9642 64.2194 54.9143 67.8501 53.0297C68.1688 52.8625 68.5914 52.6398 68.9094 52.4719C64.5751 54.6909 59.2035 52.2051 58.7745 45.6751L59.3963 45.609C59.2661 45.3365 59.0491 44.9807 58.9943 44.6848C58.6998 43.1031 58.6258 41.4945 58.3348 39.9115C58.1156 41.8773 57.7884 43.8289 57.5991 45.7982Z" fill="url(#paint12_linear_5_767)"/>
<path d="M61.8216 56.0413C63.1258 55.3626 64.4285 54.6831 65.7333 54.0051C65.1343 54.3259 64.6006 54.7393 64.0016 55.0588C62.7729 55.7062 61.5449 56.3536 60.3154 57.0025C60.8384 56.7115 61.2894 56.3202 61.8216 56.0413Z" fill="url(#paint13_linear_5_767)"/>
<path d="M55.5458 59.3091C57.0563 58.5222 58.5674 57.7353 60.0793 56.9485C59.5094 57.2558 59.0235 57.6777 58.4529 57.9822C57.0982 58.6973 55.7443 59.4109 54.3896 60.1245C54.803 59.8883 55.1203 59.5304 55.5458 59.3091Z" fill="url(#paint14_linear_5_767)"/>
<path d="M48.4597 62.9974C49.9018 62.2461 52.0058 61.3599 53.4479 60.6093C52.9805 60.864 52.4432 61.144 51.9758 61.3966L47.8862 63.5516C47.914 63.5331 47.9552 63.504 47.9851 63.4221C48.0122 63.3517 48.0684 63.2037 48.4597 62.9974Z" fill="#915700"/>
<path d="M66.708 53.4978C67.3796 53.1477 68.0513 52.7984 68.7236 52.4483C68.1388 52.76 67.6102 53.1541 67.0253 53.4643C66.4803 53.7525 65.7539 54.136 65.2089 54.422C65.1726 54.4419 65.125 54.4668 65.0908 54.4846C65.6465 54.1808 66.1452 53.793 66.708 53.4978Z" fill="url(#paint15_linear_5_767)"/>
<path d="M69.4294 52.0813C69.7588 51.9091 70.1992 51.68 70.5286 51.5092C69.9722 51.8052 69.4656 52.1759 68.91 52.4719C68.5919 52.6398 68.1693 52.8625 67.8506 53.0297C68.3927 52.7358 68.8829 52.3666 69.4294 52.0813Z" fill="#009F3C"/>
<path d="M78.1127 65.5089C78.9138 63.5374 79.7163 61.5673 80.5182 59.5951C75.9128 49.7284 68.0367 52.8219 65.733 54.0051C64.4281 54.6831 63.1254 55.3626 61.8213 56.0413C66.6999 53.591 73.8929 54.6006 78.1127 65.5089Z" fill="url(#paint16_linear_5_767)"/>
<path d="M73.4793 76.8954C74.2513 74.9964 75.2829 72.4643 76.0563 70.5646C76.4697 69.5458 77.0225 68.189 77.4366 67.1702C72.7999 55.4451 65.1878 54.3366 60.0794 56.9484C58.5675 57.7353 57.0564 58.5222 55.5459 59.3091C62.7951 55.719 70.0557 65.4385 73.4793 76.8954Z" fill="url(#paint17_linear_5_767)"/>
<path d="M65.9212 95.6805C68.104 90.3167 70.2875 84.9536 72.4696 79.5905C68.0009 65.0031 60.1042 57.2387 53.2676 60.7079C51.8255 61.4585 49.9016 62.4596 48.4595 63.2109C52.564 61.408 63.9156 85.426 65.9212 95.6805Z" fill="url(#paint18_linear_5_767)"/>
<path d="M80.7954 58.9143C81.1441 58.0562 81.4934 57.1989 81.8434 56.3401C78.0157 48.7089 71.3926 51.0767 68.7231 52.4484C68.0508 52.7984 67.3792 53.1478 66.7075 53.4978C68.292 52.6967 76.4149 49.1948 80.7954 58.9143Z" fill="url(#paint19_linear_5_767)"/>
<path d="M81.9901 55.9816C82.1694 55.539 82.3494 55.0979 82.5287 54.6568C79.0894 48.0144 72.9913 50.2421 70.5289 51.5092C70.1995 51.68 69.7591 51.9091 69.4297 52.0812C71.4453 51.0589 78.3082 48.3211 81.9901 55.9816Z" fill="url(#paint20_linear_5_767)"/>
<defs>
<linearGradient id="paint0_linear_5_767" x1="35.3723" y1="43.3294" x2="97.7407" y2="5.55121" gradientUnits="userSpaceOnUse">
<stop stop-color="#FEE927"/>
<stop offset="0.3" stop-color="#FEE927"/>
<stop offset="0.571564" stop-color="#FEE927"/>
<stop offset="1" stop-color="#F89C0E"/>
</linearGradient>
<linearGradient id="paint1_linear_5_767" x1="28.04" y1="48.682" x2="94.5978" y2="8.36628" gradientUnits="userSpaceOnUse">
<stop stop-color="#FEE927"/>
<stop offset="0.3" stop-color="#FEE927"/>
<stop offset="0.571564" stop-color="#FEE927"/>
<stop offset="1" stop-color="#F89C0E"/>
</linearGradient>
<linearGradient id="paint2_linear_5_767" x1="111.678" y1="18.2121" x2="87.2125" y2="94.1846" gradientUnits="userSpaceOnUse">
<stop stop-color="#1082CE"/>
<stop offset="0.3" stop-color="#1082CE"/>
<stop offset="0.573113" stop-color="#1082CE"/>
<stop offset="1" stop-color="#2744A0"/>
</linearGradient>
<linearGradient id="paint3_linear_5_767" x1="13.0564" y1="112.659" x2="13.0564" y2="17.3921" gradientUnits="userSpaceOnUse">
<stop stop-color="#80C428"/>
<stop offset="0.3" stop-color="#80C428"/>
<stop offset="0.573113" stop-color="#80C428"/>
<stop offset="1" stop-color="#43803C"/>
</linearGradient>
<linearGradient id="paint4_linear_5_767" x1="20.7004" y1="102.98" x2="20.7004" y2="18.2287" gradientUnits="userSpaceOnUse">
<stop stop-color="#80C428"/>
<stop offset="0.3" stop-color="#80C428"/>
<stop offset="0.573113" stop-color="#80C428"/>
<stop offset="1" stop-color="#43803C"/>
</linearGradient>
<linearGradient id="paint5_linear_5_767" x1="89.2219" y1="29.9391" x2="112.951" y2="104.272" gradientUnits="userSpaceOnUse">
<stop stop-color="#1082CE"/>
<stop offset="0.3" stop-color="#1082CE"/>
<stop offset="0.573113" stop-color="#1082CE"/>
<stop offset="1" stop-color="#2744A0"/>
</linearGradient>
<linearGradient id="paint6_linear_5_767" x1="8.29965" y1="99.8606" x2="101.505" y2="96.8736" gradientUnits="userSpaceOnUse">
<stop stop-color="#1C63B7"/>
<stop offset="0.428436" stop-color="#68BCEB"/>
<stop offset="0.7" stop-color="#68BCEB"/>
<stop offset="1" stop-color="#68BCEB"/>
</linearGradient>
<linearGradient id="paint7_linear_5_767" x1="15.263" y1="98.7538" x2="102.809" y2="98.7538" gradientUnits="userSpaceOnUse">
<stop stop-color="#1C63B7"/>
<stop offset="0.428436" stop-color="#68BCEB"/>
<stop offset="0.7" stop-color="#68BCEB"/>
<stop offset="1" stop-color="#68BCEB"/>
</linearGradient>
<linearGradient id="paint8_linear_5_767" x1="64.2861" y1="56.1903" x2="64.2861" y2="24.3194" gradientUnits="userSpaceOnUse">
<stop stop-color="#FFEA28"/>
<stop offset="1" stop-color="#F9A010"/>
</linearGradient>
<linearGradient id="paint9_linear_5_767" x1="47.2908" y1="31.7172" x2="47.2908" y2="59.4692" gradientUnits="userSpaceOnUse">
<stop offset="0.458" stop-color="#FF4A4A"/>
<stop offset="0.777" stop-color="#F39FAC"/>
</linearGradient>
<linearGradient id="paint10_linear_5_767" x1="42.2664" y1="38.8257" x2="42.2664" y2="63.5475" gradientUnits="userSpaceOnUse">
<stop offset="0.325" stop-color="#256EBE"/>
<stop offset="0.608" stop-color="#67BBEB"/>
<stop offset="0.855" stop-color="#69BDEC"/>
</linearGradient>
<linearGradient id="paint11_linear_5_767" x1="54.8226" y1="33.3084" x2="54.8226" y2="54.1482" gradientUnits="userSpaceOnUse">
<stop offset="0.247" stop-color="#1F5BB1"/>
<stop offset="0.663" stop-color="#1183CF"/>
</linearGradient>
<linearGradient id="paint12_linear_5_767" x1="57.3148" y1="39.9117" x2="57.3148" y2="52.5915" gradientUnits="userSpaceOnUse">
<stop offset="0.458" stop-color="#4C893A"/>
<stop offset="0.777" stop-color="#81C529"/>
</linearGradient>
<linearGradient id="paint13_linear_5_767" x1="66.018" y1="57.0024" x2="66.018" y2="54.0053" gradientUnits="userSpaceOnUse">
<stop stop-color="#E678FF"/>
<stop offset="0.41" stop-color="#400075"/>
<stop offset="1" stop-color="#400075"/>
</linearGradient>
<linearGradient id="paint14_linear_5_767" x1="60.3638" y1="60.1247" x2="60.3638" y2="56.9484" gradientUnits="userSpaceOnUse">
<stop stop-color="#F03300"/>
<stop offset="0.337" stop-color="#940000"/>
</linearGradient>
<linearGradient id="paint15_linear_5_767" x1="68.7236" y1="52.1641" x2="65.0905" y2="52.1641" gradientUnits="userSpaceOnUse">
<stop offset="0.108" stop-color="#3366FF"/>
<stop offset="1" stop-color="#003399"/>
</linearGradient>
<linearGradient id="paint16_linear_5_767" x1="62.481" y1="57.8982" x2="70.5036" y2="69.3558" gradientUnits="userSpaceOnUse">
<stop stop-color="#FFEA28"/>
<stop offset="0.09" stop-color="#FFF7B1"/>
<stop offset="0.199" stop-color="#FDD220"/>
<stop offset="1" stop-color="#F9A712"/>
</linearGradient>
<linearGradient id="paint17_linear_5_767" x1="55.7665" y1="60.5879" x2="69.0225" y2="79.5194" gradientUnits="userSpaceOnUse">
<stop stop-color="#F86868"/>
<stop offset="0.09" stop-color="#FCE5E9"/>
<stop offset="0.199" stop-color="#FF4A4A"/>
<stop offset="1" stop-color="#FF4A4A"/>
</linearGradient>
<linearGradient id="paint18_linear_5_767" x1="44.6877" y1="66.8738" x2="65.6883" y2="96.8659" gradientUnits="userSpaceOnUse">
<stop stop-color="#58C2FE"/>
<stop offset="0.09" stop-color="#A4DEFF"/>
<stop offset="0.181" stop-color="#2A73C1"/>
<stop offset="1" stop-color="#2A73C1"/>
</linearGradient>
<linearGradient id="paint19_linear_5_767" x1="67.2783" y1="54.8371" x2="72.8505" y2="62.795" gradientUnits="userSpaceOnUse">
<stop stop-color="#1183CF"/>
<stop offset="0.09" stop-color="#C4D3FF"/>
<stop offset="0.199" stop-color="#1183CF"/>
<stop offset="1" stop-color="#2059B0"/>
</linearGradient>
<linearGradient id="paint20_linear_5_767" x1="69.9802" y1="53.2261" x2="74.3777" y2="59.5065" gradientUnits="userSpaceOnUse">
<stop stop-color="#81C529"/>
<stop offset="0.09" stop-color="#B6E785"/>
<stop offset="0.199" stop-color="#81C529"/>
<stop offset="1" stop-color="#4E8C39"/>
</linearGradient>
<clipPath id="clip0_5_767">
<rect width="125.07" height="120" fill="white"/>
</clipPath>
</defs>
</svg>
