<svg width="120" height="120" viewBox="0 0 120 120" fill="none" xmlns="http://www.w3.org/2000/svg">
<g clip-path="url(#clip0)">
<path d="M53.2007 65.202H66.8007V83.5185H53.2007V65.202Z" fill="#FFB294"/>
<path d="M73.6007 51.6002C74.8526 51.6002 75.8674 52.615 75.8674 53.8669V58.4007C75.8674 59.6526 74.8526 60.6674 73.6007 60.6674L46.4007 60.6673C45.1488 60.6673 44.134 59.6525 44.134 58.4006V53.8673C44.134 52.6154 45.1488 51.6006 46.4007 51.6006L73.6007 51.6002Z" fill="#FFB294"/>
<path d="M48.6675 44.3441L48.6676 60.6672C48.6676 66.9263 53.7416 72.0005 60.0009 72.0005C66.2602 72.0005 71.3342 66.9265 71.3342 60.6672V44.3441H48.6675Z" fill="#FFC2A3"/>
<path d="M68.1873 44.3441V60.6672C68.1873 66.3922 63.9416 71.1229 58.4275 71.8892C58.9421 71.9608 59.4668 72.0005 60.0009 72.0005C66.2601 72.0005 71.3342 66.9265 71.3342 60.6673V44.3442H68.1873V44.3441Z" fill="#FFB294"/>
<path d="M55.4663 56.0264C54.8996 56.0264 54.4402 55.5671 54.4402 55.0002V53.8668C54.4402 53.2999 54.8996 52.8406 55.4663 52.8406C56.0331 52.8406 56.4925 53.2999 56.4925 53.8668V55.0002C56.4925 55.5671 56.0331 56.0264 55.4663 56.0264Z" fill="#4A6F99"/>
<path d="M64.533 56.0264C63.9661 56.0264 63.5068 55.5671 63.5068 55.0002V53.8668C63.5068 53.2999 63.9661 52.8406 64.533 52.8406C65.0998 52.8406 65.5591 53.2999 65.5591 53.8668V55.0002C65.5591 55.5671 65.0998 56.0264 64.533 56.0264Z" fill="#4A6F99"/>
<path fill-rule="evenodd" clip-rule="evenodd" d="M59.2269 64.9745C58.1732 64.803 57.2534 64.3469 56.5574 63.8498C56.108 63.5287 56.1096 62.8905 56.5001 62.5C56.8906 62.1095 57.5245 62.1159 57.9951 62.4049C58.4338 62.6745 58.9685 62.9061 59.5483 63.0005C60.2815 63.1199 61.132 63.0301 62.0252 62.4313C62.4839 62.1238 63.1096 62.1095 63.5001 62.5C63.8906 62.8905 63.8952 63.5317 63.4556 63.866C62.0406 64.9417 60.5564 65.1909 59.2269 64.9745Z" fill="#FF8787"/>
<path d="M53.2012 44.8001V47.0668C53.2012 48.3188 52.1864 49.3336 50.9345 49.3336H48.6687L48.6688 43.6668C48.669 40.5371 51.206 38 54.3357 38H65.6688C68.7985 38 71.3355 40.5371 71.3355 43.6667L71.3358 49.3334H69.0679C67.816 49.3334 66.8012 48.3186 66.8012 47.0667V44.8001H53.2012Z" fill="#707274"/>
<path opacity="0.1" fill-rule="evenodd" clip-rule="evenodd" d="M65.6688 38C68.7984 38 71.3355 40.5371 71.3355 43.6667L71.3358 49.3334H69.0678C68.7556 49.3334 68.458 49.2701 68.1872 49.1558L68.1871 45.795C68.1064 45.8154 68.0219 45.8262 67.9348 45.8262H52.0681C51.5014 45.8262 51.042 45.3669 51.042 44.8001C51.042 44.2332 51.5014 43.7739 52.0681 43.7739H67.9348C68.0218 43.7739 68.1063 43.7847 68.187 43.8051L68.187 43.6667C68.187 40.5371 65.6499 38 62.5203 38H65.6688Z" fill="#333333"/>
<path d="M87.6672 105.995C90.622 105.862 92.5171 102.777 91.4185 100.03L84.6142 83.6669C83.6608 81.2836 81.9196 79.4469 79.6432 78.5573L40.3564 78.5576C38.0802 79.4473 36.3392 81.2839 35.386 83.667L28.5814 100.03C27.4828 102.777 29.3779 105.862 32.3327 105.995C32.4015 105.998 87.5984 105.998 87.6672 105.995Z" fill="#949300"/>
<path opacity="0.2" d="M91.4185 100.03L84.614 83.6669C83.6606 81.2836 81.9196 79.4469 79.643 78.5573H76.4458C78.7224 79.4469 80.4635 81.2836 81.4168 83.6669L88.2212 100.03C89.3197 102.777 87.4246 105.862 84.4698 105.995C84.4367 105.997 87.6313 105.997 87.667 105.995C90.6219 105.862 92.5169 102.777 91.4185 100.03Z" fill="#333333"/>
<path d="M91.4185 100.03L89.188 94.6667H80.6596H39.3402H30.8118L28.5813 100.03C27.4829 102.777 29.3779 105.862 32.3327 105.995C32.4015 105.998 87.5983 105.998 87.667 105.995C90.6219 105.862 92.5169 102.777 91.4185 100.03Z" fill="#FFC2A3"/>
<path d="M91.4186 100.03L89.1881 94.6667H85.9909L88.2213 100.03C89.3199 102.777 87.4248 105.862 84.47 105.995C84.4589 105.996 84.8134 105.996 85.2895 105.996C86.7948 105.996 87.6587 105.996 87.6672 105.995C90.622 105.862 92.517 102.777 91.4186 100.03Z" fill="#FFB294"/>
<path d="M80.3992 101.877V81.0665C80.3992 78.5628 78.3696 76.5332 75.8659 76.5332H44.1327C41.629 76.5332 39.5994 78.5628 39.5994 81.0665V101.877H80.3992Z" fill="#E9EFFF"/>
<path opacity="0.1" d="M75.8659 76.5332H72.719C75.2227 76.5332 77.2523 78.5628 77.2523 81.0665V101.877H80.3992V81.0665C80.3992 78.5628 78.3696 76.5332 75.8659 76.5332Z" fill="#333333"/>
<path d="M61.5926 91.734C62.4777 90.8489 62.4777 89.4139 61.5926 88.5288C60.7075 87.6438 59.2726 87.6438 58.3875 88.5288C57.5024 89.4139 57.5024 90.8489 58.3875 91.734C59.2726 92.619 60.7075 92.6191 61.5926 91.734Z" fill="#949300"/>
<path d="M36.1992 103.733C36.1992 104.985 37.214 106 38.4659 106H81.5326C82.7846 106 83.7994 104.985 83.7994 103.733V102.6C83.7994 101.974 83.2919 101.467 82.6661 101.467H37.3325C36.7066 101.467 36.1992 101.974 36.1992 102.6V103.733Z" fill="#D7DCEB"/>
<path d="M82.6661 101.467H79.5265C80.1524 101.467 80.6598 101.974 80.6598 102.6V103.733C80.6598 104.985 79.645 106 78.3931 106H81.5327C82.7845 106 83.7994 104.985 83.7994 103.733V102.6C83.7994 101.974 83.2919 101.467 82.6661 101.467Z" fill="#A2B6F4"/>
<path d="M76.0938 32.875H77.4062V40.75H76.0938V32.875Z" fill="#BCBB28"/>
<path d="M46.5625 34.1875V42.0625L59.6875 46L72.8125 42.0625V34.1875" fill="#BCBB28"/>
<path d="M40 32.2188L59.6875 39.4375L79.375 32.2188L59.6875 25L40 32.2188Z" fill="#949300"/>
<path d="M77.4062 40.75H76.0938C75.3686 40.75 74.7812 41.3373 74.7812 42.0625V44.6875C74.7812 45.4127 75.3686 46 76.0938 46H77.4062C78.1314 46 78.7188 45.4127 78.7188 44.6875V42.0625C78.7188 41.3373 78.1314 40.75 77.4062 40.75Z" fill="#949300"/>
<path d="M59.6875 33.5312C61.1372 33.5312 62.3125 32.9436 62.3125 32.2188C62.3125 31.4939 61.1372 30.9062 59.6875 30.9062C58.2378 30.9062 57.0625 31.4939 57.0625 32.2188C57.0625 32.9436 58.2378 33.5312 59.6875 33.5312Z" fill="#BCBB28"/>
</g>
<path d="M94.6566 29.8417C101.979 38.1966 106.016 48.9245 106.016 60.0305C106.016 71.1364 101.979 81.8643 94.6566 90.2193C93.2204 91.8938 91.6553 93.4536 89.9756 94.8843L87.7692 96.7113C87.2572 97.0889 86.733 97.4665 86.1723 97.8441C83.3844 99.7881 80.3923 101.422 77.2491 102.716C66.0717 107.193 53.5887 107.145 42.4462 102.582C39.3888 101.261 36.4762 99.6288 33.7546 97.7101L32.2064 96.5895C31.4141 95.9805 30.6705 95.3715 29.9147 94.7138C28.2255 93.2635 26.6485 91.6878 25.1971 90C18.0171 81.6583 14.0687 71.0206 14.0687 60.0183C14.0687 49.0159 18.0171 38.3782 25.1971 30.0365C26.6517 28.3517 28.2285 26.7762 29.9147 25.3228C30.6705 24.665 31.4141 24.1048 32.2064 23.447C32.7184 23.0572 33.2426 22.6918 33.7546 22.3264C36.4866 20.4652 39.3983 18.882 42.4462 17.6005C53.5751 12.9738 66.0816 12.9213 77.2491 17.4543C80.3969 18.7138 83.3907 20.3279 86.1723 22.2655C86.733 22.6066 87.2572 23.0207 87.7692 23.3983C88.5128 23.9586 89.2686 24.5554 90.0122 25.1766L94.6566 29.8417ZM109.163 56.7113V56.4312C111.345 51.7174 115.465 51.5591 120 55.9196C120 48.7211 118.464 43.0207 114.99 39.7929C110.114 35.4446 104.97 38.2826 100.776 32.3752C100.288 27.2107 103.836 25.067 109.943 26.4799C106.286 20.3045 102.093 16.151 97.5091 15.0792C96.5758 14.8557 95.6117 14.7899 94.6566 14.8843C93.0596 15.0357 91.4874 15.3835 89.9756 15.9196C89.2393 16.1621 88.4905 16.3654 87.7326 16.5286C87.2064 16.6343 86.6722 16.6954 86.1357 16.7113C84.5255 16.7915 82.9218 16.4559 81.4791 15.7369C78.5412 11.5469 80.4551 8.01462 86.1357 6.16322C86.2531 6.1402 86.3648 6.0947 86.4649 6.02923C86.3623 5.96875 86.2514 5.92361 86.1357 5.89525C83.3561 4.24782 80.3497 3.01669 77.2125 2.24117C74.8138 1.62233 72.2971 1.62233 69.8984 2.24117C64.9492 3.92205 63.8033 8.03898 59.8903 9.95128C58.8901 10.4316 57.8131 10.7326 56.7087 10.8404H56.4283C51.7107 8.63581 51.5522 4.53106 55.9163 0C50.3941 0 45.7131 0.937881 42.3486 2.8989C41.4078 3.51164 40.5478 4.24004 39.7887 5.06699C35.8635 9.56151 37.8748 14.2266 33.6936 18.1973C33.2805 18.5888 32.8406 18.951 32.3771 19.2814H32.0967C31.3302 19.3319 30.5603 19.2869 29.805 19.1474C26.4892 18.3435 25.2824 15.0792 26.4892 10.1218L25.0874 10.9622C19.6627 14.3727 15.9691 18.2704 14.9817 22.4482C13.6774 28.916 18.7729 31.9488 15.6034 38.6236C11.3369 41.6565 7.692 39.6955 5.91223 33.6784C2.34051 39.9391 0.828931 45.676 2.19423 50.1705C4.29094 56.2607 10.0081 56.4312 10.8492 63.3861V63.6784C8.69159 68.3922 4.53474 68.5506 0 64.2387C0 71.3886 1.58472 77.1376 5.04673 80.3532C9.9228 84.6529 15.0792 81.827 19.2727 87.7467C19.7603 92.8867 16.2007 95.0548 10.0935 93.6297C13.7505 99.8417 17.9561 104.044 22.5396 105.079C23.3865 105.246 24.2486 105.324 25.1117 105.311C26.722 105.175 28.3078 104.831 29.8293 104.287C30.5851 104.044 31.3287 103.812 32.1211 103.63C32.6331 103.544 33.1573 103.435 33.6692 103.398C35.3537 103.304 37.0338 103.648 38.5453 104.397C41.4709 108.624 39.5449 112.205 33.6692 114.019C33.6373 114.028 33.6037 114.028 33.5717 114.019C33.5717 114.019 33.6692 114.019 33.6692 114.105C36.3901 115.705 39.3133 116.934 42.3608 117.759C44.8874 118.443 47.5507 118.443 50.0772 117.759C54.9533 116.115 56.0748 112.058 59.9025 110.134C60.9618 109.624 62.099 109.295 63.267 109.16H63.5473C68.2771 111.352 68.4234 115.469 64.0715 120C69.3499 120 73.8236 119.16 77.1638 117.345C78.305 116.722 79.3449 115.929 80.2479 114.994C84.1243 110.56 82.2105 105.993 86.087 102.058C86.6056 101.565 87.1687 101.121 87.7692 100.731C87.7376 100.742 87.7032 100.742 87.6717 100.731C87.6717 100.731 87.6717 100.731 87.7692 100.646C87.8667 100.56 87.7692 100.646 87.8545 100.646C87.8292 100.677 87.8006 100.706 87.7692 100.731C88.5183 100.694 89.2691 100.727 90.0122 100.828C93.5108 101.486 94.8883 104.799 93.6692 109.903C94.048 109.708 94.4107 109.484 94.7542 109.233C100.362 105.773 104.153 101.803 105.14 97.5152C106.445 91.011 101.337 88.0268 104.482 81.3398C104.482 81.3398 104.482 81.4373 104.482 81.4738C108.736 78.4897 112.381 80.4507 114.161 86.4312C117.818 80.2192 119.269 74.4702 117.903 69.9878C115.697 63.8612 109.943 63.6784 109.163 56.7113Z" fill="#BAB9B9"/>
<defs>
<clipPath id="clip0">
<rect x="26" y="16" width="68" height="90" rx="20" fill="white"/>
</clipPath>
</defs>
</svg>
