<svg width="120" height="120" viewBox="0 0 120 120" fill="none" xmlns="http://www.w3.org/2000/svg">
<g clip-path="url(#clip0)">
<path d="M50.8591 71.43C50.8591 61.0828 59.3217 52.7121 69.7033 52.8614C79.7594 53.0061 87.9363 61.253 88 71.3099C88.0356 76.942 85.5632 81.9968 81.6347 85.4253C81.2201 85.7872 81.2798 86.4475 81.7534 86.7277L85.2527 88.7981C85.8184 89.1328 85.5809 90.0001 84.9236 89.9999L69.0782 89.996C58.9841 89.8085 50.8591 81.5687 50.8591 71.43Z" fill="#F6C358"/>
<path opacity="0.1" d="M85.2522 88.7982L81.753 86.7279C81.2794 86.4477 81.2198 85.7873 81.6343 85.4255C85.5627 81.9969 88.0352 76.9421 87.9997 71.3101C87.9361 61.2532 79.759 53.0062 69.7029 52.8615C69.0185 52.8517 68.3426 52.8799 67.6768 52.9422C77.0455 53.8258 84.4382 61.7497 84.4986 71.3101C84.5342 76.9422 82.0618 81.9969 78.1332 85.4255C77.7186 85.7873 77.7783 86.4476 78.2519 86.7279L81.7512 88.7982C82.3137 89.1311 82.0816 89.99 81.4324 89.9992L84.9232 90C85.5804 90.0001 85.8179 89.1328 85.2522 88.7982Z" fill="#333333"/>
<path opacity="0.1" d="M70.1399 52.8731C69.9947 52.8676 69.849 52.8634 69.703 52.8613C59.3214 52.7119 50.8589 61.0827 50.8589 71.43C50.8589 71.6672 50.8648 71.9029 50.8736 72.1378C61.0135 71.0675 69.0699 63.013 70.1399 52.8731Z" fill="#333333"/>
<path d="M67.1409 50.5702C67.1409 40.223 58.6783 31.8523 48.2968 32.0016C38.2408 32.1464 30.0638 40.3934 30.0001 50.4502C29.9646 56.0824 32.4369 61.1371 36.3654 64.5657C36.78 64.9275 36.7203 65.5878 36.2467 65.868L32.7474 67.9384C32.1817 68.2731 32.4193 69.1404 33.0765 69.1402L48.922 69.1363C59.0159 68.9487 67.1409 60.7089 67.1409 50.5702Z" fill="#949300"/>
<path opacity="0.1" d="M48.2972 32.0019C47.8007 32.009 47.3089 32.0367 46.8224 32.0826C56.2566 32.9658 63.6402 40.9054 63.6402 50.5705C63.6402 60.7092 55.5151 68.949 45.4213 69.1366L33.0667 69.1397C33.0702 69.1397 33.0733 69.1406 33.077 69.1406L48.9224 69.1367C59.0162 68.9492 67.1413 60.7093 67.1413 50.5706C67.1412 40.2233 58.6787 31.8526 48.2972 32.0019Z" fill="#333333"/>
<path d="M48.5706 65.0973C49.6476 65.0973 50.5207 64.2243 50.5207 63.1473C50.5207 62.0703 49.6476 61.1973 48.5706 61.1973C47.4937 61.1973 46.6206 62.0703 46.6206 63.1473C46.6206 64.2243 47.4937 65.0973 48.5706 65.0973Z" fill="white"/>
<path d="M48.5705 57.701C47.6037 57.701 46.8199 56.9172 46.8199 55.9505V49.7166C46.8199 48.7498 47.6037 47.9661 48.5705 47.9661C49.7359 47.9661 50.8204 47.4998 51.6242 46.6531C52.4275 45.8071 52.8363 44.6976 52.7757 43.5286C52.662 41.339 50.8534 39.5891 48.6584 39.545C46.521 39.5017 44.6942 41.0584 44.4003 43.1655C44.3732 43.3592 44.3595 43.5575 44.3595 43.7551C44.3595 44.7218 43.5757 45.5056 42.6089 45.5056C41.6422 45.5056 40.8584 44.7218 40.8584 43.7551C40.8584 43.3961 40.8834 43.0348 40.9328 42.6815C41.4645 38.8714 44.7335 36.0431 48.5712 36.0431C48.6237 36.0431 48.6762 36.0437 48.7287 36.0447C52.7502 36.1257 56.0635 39.3333 56.2719 43.3472C56.3829 45.4845 55.6339 47.5147 54.1631 49.0639C53.1213 50.1611 51.7762 50.922 50.321 51.2638V55.9506C50.321 56.9172 49.5373 57.701 48.5705 57.701Z" fill="white"/>
<path d="M69.4295 73.3798C70.5065 73.3798 71.3795 72.5067 71.3795 71.4298C71.3795 70.3528 70.5065 69.4797 69.4295 69.4797C68.3525 69.4797 67.4795 70.3528 67.4795 71.4298C67.4795 72.5067 68.3525 73.3798 69.4295 73.3798Z" fill="white"/>
<path d="M78.1817 73.3798C79.2587 73.3798 80.1317 72.5067 80.1317 71.4298C80.1317 70.3528 79.2587 69.4797 78.1817 69.4797C77.1047 69.4797 76.2317 70.3528 76.2317 71.4298C76.2317 72.5067 77.1047 73.3798 78.1817 73.3798Z" fill="white"/>
<path d="M60.6768 73.3798C61.7538 73.3798 62.6269 72.5067 62.6269 71.4298C62.6269 70.3528 61.7538 69.4797 60.6768 69.4797C59.5999 69.4797 58.7268 70.3528 58.7268 71.4298C58.7268 72.5067 59.5999 73.3798 60.6768 73.3798Z" fill="white"/>
</g>
<path d="M94.6566 29.8417C101.979 38.1966 106.016 48.9245 106.016 60.0305C106.016 71.1364 101.979 81.8643 94.6566 90.2193C93.2204 91.8938 91.6553 93.4536 89.9756 94.8843L87.7692 96.7113C87.2572 97.0889 86.733 97.4665 86.1723 97.8441C83.3844 99.7881 80.3923 101.422 77.2491 102.716C66.0717 107.193 53.5887 107.145 42.4462 102.582C39.3888 101.261 36.4762 99.6288 33.7546 97.7101L32.2064 96.5895C31.4141 95.9805 30.6705 95.3715 29.9147 94.7138C28.2255 93.2635 26.6485 91.6878 25.1971 90C18.0171 81.6583 14.0687 71.0206 14.0687 60.0183C14.0687 49.0159 18.0171 38.3782 25.1971 30.0365C26.6517 28.3517 28.2285 26.7762 29.9147 25.3228C30.6705 24.665 31.4141 24.1048 32.2064 23.447C32.7184 23.0572 33.2426 22.6918 33.7546 22.3264C36.4866 20.4652 39.3983 18.882 42.4462 17.6005C53.5751 12.9738 66.0816 12.9213 77.2491 17.4543C80.3969 18.7138 83.3907 20.3279 86.1723 22.2655C86.733 22.6066 87.2572 23.0207 87.7692 23.3983C88.5128 23.9586 89.2686 24.5554 90.0122 25.1766L94.6566 29.8417ZM109.163 56.7113V56.4312C111.345 51.7174 115.465 51.5591 120 55.9196C120 48.7211 118.464 43.0207 114.99 39.7929C110.114 35.4446 104.97 38.2826 100.776 32.3752C100.288 27.2107 103.836 25.067 109.943 26.4799C106.286 20.3045 102.093 16.151 97.5091 15.0792C96.5758 14.8557 95.6117 14.7899 94.6566 14.8843C93.0596 15.0357 91.4874 15.3835 89.9756 15.9196C89.2393 16.1621 88.4905 16.3654 87.7326 16.5286C87.2064 16.6343 86.6722 16.6954 86.1357 16.7113C84.5255 16.7915 82.9218 16.4559 81.4791 15.7369C78.5412 11.5469 80.4551 8.01462 86.1357 6.16322C86.2531 6.1402 86.3648 6.0947 86.4649 6.02923C86.3623 5.96875 86.2514 5.92361 86.1357 5.89525C83.3561 4.24782 80.3497 3.01669 77.2125 2.24117C74.8138 1.62233 72.2971 1.62233 69.8984 2.24117C64.9492 3.92205 63.8033 8.03898 59.8903 9.95128C58.8901 10.4316 57.8131 10.7326 56.7087 10.8404H56.4283C51.7107 8.63581 51.5522 4.53106 55.9163 0C50.3941 0 45.7131 0.937881 42.3486 2.8989C41.4078 3.51164 40.5478 4.24004 39.7887 5.06699C35.8635 9.56151 37.8748 14.2266 33.6936 18.1973C33.2805 18.5888 32.8406 18.951 32.3771 19.2814H32.0967C31.3302 19.3319 30.5603 19.2869 29.805 19.1474C26.4892 18.3435 25.2824 15.0792 26.4892 10.1218L25.0874 10.9622C19.6627 14.3727 15.9691 18.2704 14.9817 22.4482C13.6774 28.916 18.7729 31.9488 15.6034 38.6236C11.3369 41.6565 7.692 39.6955 5.91223 33.6784C2.34051 39.9391 0.828931 45.676 2.19423 50.1705C4.29094 56.2607 10.0081 56.4312 10.8492 63.3861V63.6784C8.69159 68.3922 4.53474 68.5506 0 64.2387C0 71.3886 1.58472 77.1376 5.04673 80.3532C9.9228 84.6529 15.0792 81.827 19.2727 87.7467C19.7603 92.8867 16.2007 95.0548 10.0935 93.6297C13.7505 99.8417 17.9561 104.044 22.5396 105.079C23.3865 105.246 24.2486 105.324 25.1117 105.311C26.722 105.175 28.3078 104.831 29.8293 104.287C30.5851 104.044 31.3287 103.812 32.1211 103.63C32.6331 103.544 33.1573 103.435 33.6692 103.398C35.3537 103.304 37.0338 103.648 38.5453 104.397C41.4709 108.624 39.5449 112.205 33.6692 114.019C33.6373 114.028 33.6037 114.028 33.5717 114.019C33.5717 114.019 33.6692 114.019 33.6692 114.105C36.3901 115.705 39.3133 116.934 42.3608 117.759C44.8874 118.443 47.5507 118.443 50.0772 117.759C54.9533 116.115 56.0748 112.058 59.9025 110.134C60.9618 109.624 62.099 109.295 63.267 109.16H63.5473C68.2771 111.352 68.4234 115.469 64.0715 120C69.3499 120 73.8236 119.16 77.1638 117.345C78.305 116.722 79.3449 115.929 80.2479 114.994C84.1243 110.56 82.2105 105.993 86.087 102.058C86.6056 101.565 87.1687 101.121 87.7692 100.731C87.7376 100.742 87.7032 100.742 87.6717 100.731C87.6717 100.731 87.6717 100.731 87.7692 100.646C87.8667 100.56 87.7692 100.646 87.8545 100.646C87.8292 100.677 87.8006 100.706 87.7692 100.731C88.5183 100.694 89.2691 100.727 90.0122 100.828C93.5108 101.486 94.8883 104.799 93.6692 109.903C94.048 109.708 94.4107 109.484 94.7542 109.233C100.362 105.773 104.153 101.803 105.14 97.5152C106.445 91.011 101.337 88.0268 104.482 81.3398C104.482 81.3398 104.482 81.4373 104.482 81.4738C108.736 78.4897 112.381 80.4507 114.161 86.4312C117.818 80.2192 119.269 74.4702 117.903 69.9878C115.697 63.8612 109.943 63.6784 109.163 56.7113Z" fill="#BAB9B9"/>
<defs>
<clipPath id="clip0">
<rect width="58" height="58" fill="white" transform="translate(30 32)"/>
</clipPath>
</defs>
</svg>
