<svg width="126" height="120" viewBox="0 0 126 120" fill="none" xmlns="http://www.w3.org/2000/svg">
<g clip-path="url(#clip0_9:3134)">
<path d="M30.5892 10.9838C28.4715 12.5748 25.6177 15.0317 23.6085 17.0331C21.4316 19.22 20.3975 20.5188 21.6955 19.4244C24.2629 17.281 30.5024 12.8292 33.2486 11.1658C36.9989 8.89413 39.9232 7.57103 44.2116 6.23399C51.939 3.82234 57.9938 3.32026 67.3466 4.37812C71.1329 4.8019 81.2515 7.21668 84.9103 8.5861C93.1126 11.6294 100.316 16.5384 106.339 23.1986C108.333 25.3804 111.485 29.3819 112.391 30.8779C112.958 31.7672 113.016 31.8163 113.03 31.3313C113.018 30.3863 109.25 24.489 106.702 21.4384C98.2477 11.3202 87.2392 4.43019 75.2249 1.70697C63.4863 -0.931124 52.2858 0.278798 40.2925 5.49847C38.3811 6.32011 32.0188 9.92178 30.5892 10.9838Z" fill="black"/>
<path d="M30.5892 10.9838C28.4715 12.5748 25.6177 15.0317 23.6085 17.0331C21.4316 19.22 20.3975 20.5188 21.6955 19.4244C24.2629 17.281 30.5024 12.8292 33.2486 11.1658C36.9989 8.89413 39.9232 7.57103 44.2116 6.23399C51.939 3.82234 57.9938 3.32026 67.3466 4.37812C71.1329 4.8019 81.2515 7.21668 84.9103 8.5861C93.1126 11.6294 100.316 16.5384 106.339 23.1986C108.333 25.3804 111.485 29.3819 112.391 30.8779C112.958 31.7672 113.016 31.8163 113.03 31.3313C113.018 30.3863 109.25 24.489 106.702 21.4384C98.2477 11.3202 87.2392 4.43019 75.2249 1.70697C63.4863 -0.931124 52.2858 0.278798 40.2925 5.49847C38.3811 6.32011 32.0188 9.92178 30.5892 10.9838Z" fill="url(#paint0_linear_9:3134)"/>
<path d="M33.469 16.6629C30.778 18.7411 26.7547 22.5507 24.4075 25.2891C22.22 27.8747 18.3504 33.0479 18.6136 33.1125C18.6794 33.1287 19.9197 31.9853 21.3314 30.5699C32.1059 19.8696 35.7687 17.3148 44.935 14.0876C57.1006 9.79999 70.9667 9.24455 81.6358 12.6144C89.4043 15.0802 96.123 19.0502 101.825 24.5325C105.988 28.5379 107.229 29.6627 107.373 29.5758C107.455 29.5261 106.963 28.7598 106.297 27.8462C97.6015 15.9416 80.5227 6.84577 65.7187 6.17651C59.6114 5.89808 52.245 7.19463 45.8656 9.65814C42.7601 10.8669 36.2009 14.5599 33.469 16.6629Z" fill="black"/>
<path d="M33.469 16.6629C30.778 18.7411 26.7547 22.5507 24.4075 25.2891C22.22 27.8747 18.3504 33.0479 18.6136 33.1125C18.6794 33.1287 19.9197 31.9853 21.3314 30.5699C32.1059 19.8696 35.7687 17.3148 44.935 14.0876C57.1006 9.79999 70.9667 9.24455 81.6358 12.6144C89.4043 15.0802 96.123 19.0502 101.825 24.5325C105.988 28.5379 107.229 29.6627 107.373 29.5758C107.455 29.5261 106.963 28.7598 106.297 27.8462C97.6015 15.9416 80.5227 6.84577 65.7187 6.17651C59.6114 5.89808 52.245 7.19463 45.8656 9.65814C42.7601 10.8669 36.2009 14.5599 33.469 16.6629Z" fill="url(#paint1_linear_9:3134)"/>
<path d="M87.8335 12.7529C87.8799 12.8433 89.1764 13.6636 90.7392 14.5948C92.2793 15.5186 94.5294 16.9732 95.7053 17.8553C98.2705 19.7386 102.657 24.0962 105.059 27.1101C118.992 44.7364 121.437 69.0344 111.151 87.9233C109.017 91.8929 105.534 96.6111 102.474 99.7036C100.982 101.212 101.347 101.405 102.878 99.9343C109.872 93.3011 112.394 90.1611 115.664 83.9144C117.277 80.8594 120.06 72.2157 120.474 68.976C121.796 58.8545 120.515 49.934 116.257 39.627C114.711 35.9072 111.346 30.6451 108.065 26.8445C104.622 22.841 98.9531 18.3223 93.9615 15.5318C91.3098 14.0737 87.6634 12.4212 87.8335 12.7529Z" fill="black"/>
<path d="M87.8335 12.7529C87.8799 12.8433 89.1764 13.6636 90.7392 14.5948C92.2793 15.5186 94.5294 16.9732 95.7053 17.8553C98.2705 19.7386 102.657 24.0962 105.059 27.1101C118.992 44.7364 121.437 69.0344 111.151 87.9233C109.017 91.8929 105.534 96.6111 102.474 99.7036C100.982 101.212 101.347 101.405 102.878 99.9343C109.872 93.3011 112.394 90.1611 115.664 83.9144C117.277 80.8594 120.06 72.2157 120.474 68.976C121.796 58.8545 120.515 49.934 116.257 39.627C114.711 35.9072 111.346 30.6451 108.065 26.8445C104.622 22.841 98.9531 18.3223 93.9615 15.5318C91.3098 14.0737 87.6634 12.4212 87.8335 12.7529Z" fill="url(#paint2_linear_9:3134)"/>
<path d="M24.6257 14.8182C17.7491 19.6582 12.1904 26.5347 7.27861 36.2146C4.21172 42.2764 1.93552 48.6259 0.809397 54.3763C-0.795925 62.4987 -0.00524382 71.4837 3.10956 80.4448C6.58377 90.532 15.2333 102.871 22.613 108.238C24.6736 109.748 24.434 109.269 21.7025 106.417C8.64433 92.8082 3.18144 80.2291 3.18144 63.6967C3.15748 58.8089 3.27728 57.4431 3.97212 53.1064C6.20041 39.0658 12.4779 27.1577 23.0443 16.8548C24.7694 15.1776 26.1591 13.8119 26.1112 13.8119C26.0872 13.8119 25.4164 14.2672 24.6257 14.8182Z" fill="#6AAB30"/>
<path d="M24.6257 14.8182C17.7491 19.6582 12.1904 26.5347 7.27861 36.2146C4.21172 42.2764 1.93552 48.6259 0.809397 54.3763C-0.795925 62.4987 -0.00524382 71.4837 3.10956 80.4448C6.58377 90.532 15.2333 102.871 22.613 108.238C24.6736 109.748 24.434 109.269 21.7025 106.417C8.64433 92.8082 3.18144 80.2291 3.18144 63.6967C3.15748 58.8089 3.27728 57.4431 3.97212 53.1064C6.20041 39.0658 12.4779 27.1577 23.0443 16.8548C24.7694 15.1776 26.1591 13.8119 26.1112 13.8119C26.0872 13.8119 25.4164 14.2672 24.6257 14.8182Z" fill="url(#paint3_linear_9:3134)"/>
<path d="M27.4052 15.8725C26.8062 16.3517 25.3686 17.5976 24.1946 18.6758C16.0242 26.1513 10.9686 35.6395 9.02786 47.2361C8.42886 50.926 8.42886 59.5756 9.02786 63.1696C10.4894 71.6035 13.173 78.4561 17.7733 85.5003C19.6182 88.3276 20.4568 89.31 23.7154 92.5685C27.6209 96.4501 29.9689 98.3908 32.0774 99.469C32.7483 99.8045 33.0119 99.9003 32.6764 99.6607C21.7746 91.7778 13.3646 76.3236 11.8072 61.2767C11.4239 57.4671 11.6635 49.728 12.2864 46.0381C13.2448 40.4075 14.6106 36.0947 17.1024 30.9433C19.2828 26.4149 21.2714 23.5876 26.4229 17.6455C29.0824 14.5786 29.1064 14.5546 27.4052 15.8725Z" fill="#6AAB30"/>
<path d="M27.4052 15.8725C26.8062 16.3517 25.3686 17.5976 24.1946 18.6758C16.0242 26.1513 10.9686 35.6395 9.02786 47.2361C8.42886 50.926 8.42886 59.5756 9.02786 63.1696C10.4894 71.6035 13.173 78.4561 17.7733 85.5003C19.6182 88.3276 20.4568 89.31 23.7154 92.5685C27.6209 96.4501 29.9689 98.3908 32.0774 99.469C32.7483 99.8045 33.0119 99.9003 32.6764 99.6607C21.7746 91.7778 13.3646 76.3236 11.8072 61.2767C11.4239 57.4671 11.6635 49.728 12.2864 46.0381C13.2448 40.4075 14.6106 36.0947 17.1024 30.9433C19.2828 26.4149 21.2714 23.5876 26.4229 17.6455C29.0824 14.5786 29.1064 14.5546 27.4052 15.8725Z" fill="url(#paint4_linear_9:3134)"/>
<path d="M111.959 25.5715C112.187 26.0518 113.453 28.4397 114.755 30.8659C119.551 39.823 120.91 44.3943 121.619 54.1783C122.558 66.6552 120.366 78.1449 115.229 87.6573C109.842 97.6515 102.567 104.879 89.6495 113.026C87.0523 114.66 87.4 114.725 90.7155 113.214C98.1016 109.8 106.544 103.156 111.642 96.75C121.569 84.2752 126.361 66.1959 123.789 50.9704C123.254 47.7962 120.98 40.6747 119.352 37.0698C117.369 32.6724 113.813 26.8909 112.069 25.2092C111.53 24.7022 111.53 24.7022 111.959 25.5715Z" fill="black"/>
<path d="M111.959 25.5715C112.187 26.0518 113.453 28.4397 114.755 30.8659C119.551 39.823 120.91 44.3943 121.619 54.1783C122.558 66.6552 120.366 78.1449 115.229 87.6573C109.842 97.6515 102.567 104.879 89.6495 113.026C87.0523 114.66 87.4 114.725 90.7155 113.214C98.1016 109.8 106.544 103.156 111.642 96.75C121.569 84.2752 126.361 66.1959 123.789 50.9704C123.254 47.7962 120.98 40.6747 119.352 37.0698C117.369 32.6724 113.813 26.8909 112.069 25.2092C111.53 24.7022 111.53 24.7022 111.959 25.5715Z" fill="url(#paint5_linear_9:3134)"/>
<path d="M7.71865 78.9237C8.60624 82.6829 11.7883 89.2212 14.7485 93.3215C19.9421 100.539 27.681 107.89 33.0709 110.761C42.5083 115.757 48.2359 117.947 54.7927 119.079C68.7266 121.509 82.0762 117.677 98.8349 106.52C103.177 103.624 102.584 103.811 97.6004 106.896C92.4054 110.107 89.2185 111.647 84.7354 113.133C79.0664 115.017 74.2713 115.746 66.985 115.788C59.508 115.859 54.5711 115.155 47.4065 113.011C37.0719 109.938 28.5275 105.13 21.2596 98.2669C16.4634 93.722 13.3009 89.2926 9.6145 81.9793C8.6153 79.9737 7.72187 78.2763 7.64773 78.2068C7.57358 78.1372 7.60828 78.4717 7.71865 78.9237Z" fill="black"/>
<path d="M7.71865 78.9237C8.60624 82.6829 11.7883 89.2212 14.7485 93.3215C19.9421 100.539 27.681 107.89 33.0709 110.761C42.5083 115.757 48.2359 117.947 54.7927 119.079C68.7266 121.509 82.0762 117.677 98.8349 106.52C103.177 103.624 102.584 103.811 97.6004 106.896C92.4054 110.107 89.2185 111.647 84.7354 113.133C79.0664 115.017 74.2713 115.746 66.985 115.788C59.508 115.859 54.5711 115.155 47.4065 113.011C37.0719 109.938 28.5275 105.13 21.2596 98.2669C16.4634 93.722 13.3009 89.2926 9.6145 81.9793C8.6153 79.9737 7.72187 78.2763 7.64773 78.2068C7.57358 78.1372 7.60828 78.4717 7.71865 78.9237Z" fill="url(#paint6_linear_9:3134)"/>
<path d="M15.4968 84.5659C17.9647 90.4122 27.2612 101.05 33.8741 105.555C46.1656 113.917 62.9377 115.978 78.0325 110.994C84.7892 108.766 91.0013 106.967 97.183 101.408C99.4113 99.3958 102.314 96.1509 103.944 93.8029C105.165 92.0298 105.806 91.4939 103.098 94.2254C95.4073 101.964 81.9619 107.304 69.2152 109.221C66.0045 109.7 57.4508 109.628 54.0245 109.101C42.0445 107.232 32.3886 102.464 23.8349 94.1978C22.4692 92.88 20.9597 91.2028 20.4565 90.484C19.9534 89.7413 19.3783 88.9985 19.1387 88.8068C18.9231 88.6391 18.1084 87.537 17.3178 86.3869C16.5271 85.2368 15.7124 84.1586 15.4968 83.9909C15.1853 83.7033 15.1853 83.7752 15.4968 84.5659Z" fill="black"/>
<path d="M15.4968 84.5659C17.9647 90.4122 27.2612 101.05 33.8741 105.555C46.1656 113.917 62.9377 115.978 78.0325 110.994C84.7892 108.766 91.0013 106.967 97.183 101.408C99.4113 99.3958 102.314 96.1509 103.944 93.8029C105.165 92.0298 105.806 91.4939 103.098 94.2254C95.4073 101.964 81.9619 107.304 69.2152 109.221C66.0045 109.7 57.4508 109.628 54.0245 109.101C42.0445 107.232 32.3886 102.464 23.8349 94.1978C22.4692 92.88 20.9597 91.2028 20.4565 90.484C19.9534 89.7413 19.3783 88.9985 19.1387 88.8068C18.9231 88.6391 18.1084 87.537 17.3178 86.3869C16.5271 85.2368 15.7124 84.1586 15.4968 83.9909C15.1853 83.7033 15.1853 83.7752 15.4968 84.5659Z" fill="url(#paint7_linear_9:3134)"/>
<g clip-path="url(#clip1_9:3134)">
<path d="M62.3165 90.425V79.0565H60.3176V90.425C58.985 90.831 58.0522 92.1845 58.0522 93.6732C58.0522 95.5679 59.518 97.0567 61.3837 97.0567C63.2494 97.0567 64.7152 95.568 64.7152 93.6732C64.5818 92.1845 63.6489 90.831 62.3165 90.425ZM61.2503 95.0266C60.5841 95.0266 59.9177 94.4852 59.9177 93.6732C59.9177 92.8611 60.4508 92.3197 61.2503 92.3197C62.0499 92.3197 62.5829 92.8611 62.5829 93.6732C62.5829 94.3499 62.0499 95.0266 61.2503 95.0266Z" fill="#6A6C6E"/>
<path d="M86.5695 39.1313H35.9316V78.2445H86.5695V39.1313Z" fill="#E9EFFF"/>
<path d="M86.4363 76.4851H36.0649C34.3326 76.4851 33 77.8384 33 79.5978C33 81.3573 34.3326 82.7106 36.0649 82.7106H86.4363C88.1686 82.7106 89.5011 81.3572 89.5011 79.5978C89.5013 77.8384 88.1686 76.4851 86.4363 76.4851Z" fill="#707274"/>
<path d="M36.0649 42.2455H86.4363C88.1686 42.2455 89.5011 40.892 89.5011 39.1327C89.5011 37.3734 88.1686 36.0198 86.4363 36.0198H36.0649C34.3326 36.0198 33 37.3732 33 39.1327C33 40.8922 34.3326 42.2455 36.0649 42.2455Z" fill="#707274"/>
<path d="M56.7202 58.6202C53.3888 55.2367 47.9252 55.2367 44.5938 58.6202L50.7236 64.8459L56.7202 58.6202Z" fill="#F6C358"/>
<path d="M42.0615 64.7105C42.0615 67.0112 42.8611 69.1767 44.5935 70.9362C47.9249 74.3197 53.3885 74.3197 56.7199 70.9362L50.59 64.7105H42.0615Z" fill="#FF8787"/>
<path d="M50.5901 64.7105L44.4602 58.4848C42.7278 60.2443 41.9282 62.4096 41.9282 64.7105H50.5901Z" fill="#949300"/>
<path d="M56.7197 70.9361C60.0512 67.5525 60.0512 62.0036 56.7197 58.6201L50.5898 64.8458L56.7197 70.9361Z" fill="#6A6C6E"/>
<path d="M50.2847 45.5933L44.0209 50.678L44.0063 52.1726L50.2968 46.8186L56.2346 50.4061L61.1979 46.2791L60.4692 45.526L56.2358 49.046L50.2847 45.5933Z" fill="#D7DCEB"/>
<path d="M45.4125 51.4974C45.3322 52.3055 44.6023 52.9123 43.8067 52.8326C43.0111 52.7528 42.4151 52.0131 42.4954 51.2051C42.5757 50.397 43.3055 49.7902 44.1011 49.8699C44.8967 49.9497 45.4928 50.6894 45.4125 51.4974Z" fill="#949300"/>
<path d="M51.663 46.5475C51.5827 47.3555 50.8528 47.9624 50.0572 47.8826C49.2616 47.8029 48.6656 47.0631 48.7459 46.2551C48.8262 45.4471 49.556 44.8402 50.3516 44.92C51.1472 44.9997 51.7566 45.6048 51.663 46.5475Z" fill="#F6C358"/>
<path d="M57.7733 49.7442C57.693 50.5523 56.9632 51.1591 56.1676 51.0794C55.372 50.9996 54.7759 50.2599 54.8562 49.4519C54.9365 48.6438 55.6664 48.037 56.462 48.1167C57.2576 48.1965 57.8536 48.9362 57.7733 49.7442Z" fill="#6A6C6E"/>
<path d="M62.2854 46.1161C62.2051 46.9241 61.4753 47.531 60.6797 47.4512C59.8841 47.3715 59.2879 46.6317 59.3682 45.8237C59.4485 45.0157 60.1783 44.4088 60.9739 44.4886C61.7829 44.4336 62.3791 45.1734 62.2854 46.1161Z" fill="#FF8787"/>
<path d="M94.1651 96.38C94.1651 96.38 92.8325 99.7636 92.566 100.17C92.2995 100.576 92.2995 100.576 92.2995 100.576L90.0342 95.7034L93.0991 95.0267L94.1651 96.38Z" fill="#FFC2A3"/>
<path d="M92.8328 100.981C92.9661 100.44 92.8328 99.0867 92.2997 97.3273C91.6335 95.4326 90.3008 87.3122 90.3008 87.3122C90.3008 87.3122 75.1095 85.5527 73.6437 88.9363C72.4895 91.5151 71.7352 97.3426 71.4674 100C71.426 100.411 70.5178 108.764 70.5 109C82.7753 106.038 87.8901 104.293 92.8328 100.981Z" fill="#949300"/>
<path d="M85.7539 55.6098C85.869 54.796 85.6671 54.0932 85.3029 54.04C84.9387 53.9869 84.5501 54.6035 84.435 55.4173C84.3199 56.2311 84.5218 56.9339 84.886 56.9871C85.2502 57.0402 85.6388 56.4236 85.7539 55.6098Z" fill="#FFB294"/>
<path d="M76.5669 56.7982C76.7432 57.6006 77.1772 58.1852 77.5363 58.1038C77.8954 58.0225 78.0437 57.306 77.8674 56.5036C77.6912 55.7011 77.2572 55.1166 76.8981 55.1979C76.539 55.2793 76.3907 55.9957 76.5669 56.7982Z" fill="#FFB294"/>
<path d="M78.5739 61.4623V60.3797C78.5739 60.3797 77.3746 58.6202 77.1081 56.9961C76.8417 55.372 76.4419 52.3945 76.4419 52.3945C76.4419 52.3945 76.975 50.3644 78.4408 49.823C80.0399 49.417 80.9727 49.1464 81.7722 49.2816C82.5718 49.417 84.704 51.4471 84.704 51.9884C84.704 52.5298 84.9704 57.5373 84.5707 58.4847C84.5707 58.4847 84.5707 61.4622 86.1697 62.6803C87.1026 63.3569 87.2358 64.575 86.4362 65.5224C85.2369 65.1164 83.3713 68.2292 81.5056 71.2067L77.7744 65.2518C78.0409 65.3871 77.9077 62.2744 78.5739 61.4623Z" fill="#FFC2A3"/>
<path d="M82.0387 64.1691C84.1709 62.9511 84.4157 58.75 84.4157 58.75C84.4157 58.75 83.2381 61.733 81.3725 62.0038C79.5069 62.2744 78.5741 60.5151 78.5741 60.5151V61.4625C78.041 62.1391 78.041 64.1692 78.041 65.1167C79.2403 65.1165 80.8394 64.9811 82.0387 64.1691Z" fill="#FFB294"/>
<path d="M80.573 64.9812C80.573 64.9812 81.2393 65.3872 81.5059 65.6578C81.7723 65.9285 82.4387 66.4699 82.4387 66.4699C82.4387 66.4699 83.3716 66.0638 83.7713 65.3872C84.1711 64.7105 85.3704 64.1691 85.3704 64.1691L87.3693 64.4398L88.3021 89.4776C84.1711 91.5077 79.9069 91.5077 75.7759 89.4776L76.9752 64.575L80.573 64.9812Z" fill="#D7DCEB"/>
<path d="M78.5743 61.4623C78.5743 61.4623 79.5072 63.8985 80.5732 64.9811C80.5732 64.9811 79.1074 65.3872 79.2406 67.2819L77.375 64.0337L78.5743 61.4623Z" fill="#E9EFFF"/>
<path d="M84.5709 55.7781H84.8374C84.8374 55.7781 84.8374 54.4246 85.2372 54.154C85.6369 53.8834 85.7702 52.8006 85.5036 51.7179C85.237 50.6352 83.7714 48.199 81.7725 47.9283C79.7736 47.6577 77.7748 48.3343 76.7088 50.4998C75.6428 52.5299 76.9752 55.6427 76.9752 56.0487C76.9752 56.4547 77.1085 56.7254 77.1085 56.7254H77.2418C77.2418 56.7254 76.8421 54.8307 76.9754 54.0186C77.1087 53.2066 76.9754 52.5299 77.1087 52.1239C77.242 51.7179 78.8411 50.2292 81.1064 50.7705C83.3717 51.3117 83.6383 51.7179 83.9048 52.2592C84.1711 52.8006 84.7042 54.2893 84.5709 55.7781Z" fill="#707274"/>
<path d="M85.1036 60.7856C85.1036 60.7856 85.1036 63.6277 83.771 65.5224C83.771 65.5224 85.1036 64.8458 85.3701 65.6578C85.6366 66.4699 85.7699 67.1465 85.7699 67.1465C85.7699 67.1465 86.5694 65.2518 86.5694 63.4923C86.5694 61.733 85.6366 61.0563 85.1036 60.7856Z" fill="#E9EFFF"/>
<path d="M58.985 72.4249L59.2471 71.3889C59.2471 71.3889 60.7506 68.5903 62.483 68.8611C62.483 68.8611 63.2492 69.7181 62.8495 70.6655C62.4497 71.6129 61.5168 73.237 61.3837 73.237L58.985 73.5077C58.985 73.5077 58.8517 72.8309 58.985 72.4249Z" fill="#80800A"/>
<path d="M62.4498 69.312C62.4498 69.312 61.5169 71.4775 59.7847 72.4247L60.7175 74.1842L63.3826 70.9361L62.4498 69.312Z" fill="white"/>
<path d="M60.5844 73.2369C60.5844 73.2369 60.0513 71.4775 59.7849 71.2068C59.5184 70.9362 59.6516 70.3948 59.5184 70.2594C59.3851 70.124 58.1858 69.312 57.786 68.4999C57.5195 67.6879 57.1197 67.5525 57.2529 67.1465C57.2529 67.1465 57.1196 66.4698 57.2529 66.3345C57.2529 66.3345 56.8531 65.5224 57.786 64.8458C57.786 64.8458 57.3862 64.4397 56.9864 64.0337C56.5867 63.6277 56.0536 63.2217 55.6538 63.0863C55.2541 62.9509 54.8543 62.5449 54.9876 62.1389C55.1209 61.7329 55.9204 62.0035 56.3202 62.1389C56.72 62.2743 57.5195 62.9509 57.9193 63.2216C58.3191 63.4922 58.5855 63.8982 59.1186 64.169L60.0514 64.8456C60.0514 64.8456 60.3179 64.575 61.1175 64.8456C61.7837 65.1163 62.1835 64.8456 62.1835 65.5223C62.1835 66.199 62.45 67.417 62.1835 67.823C62.0502 68.3644 62.7166 70.2591 62.7166 70.2591C62.7166 70.2591 62.4282 71.4024 62 72C61.5724 72.5968 60.5844 73.2369 60.5844 73.2369Z" fill="#FFC2A3"/>
<path d="M58.3193 68.0939C58.3193 68.0939 58.8524 67.9586 58.8524 67.8233C58.8524 67.8233 59.2522 67.8233 59.3855 67.9587C59.5188 68.0941 59.7853 68.2293 60.0517 68.2293C60.3182 68.2293 60.5848 68.0939 60.5848 67.8233C60.5848 67.5527 60.4515 67.4173 60.4515 67.4173C60.4515 67.4173 60.8513 67.4173 60.8513 67.1467C60.9846 66.876 60.8513 66.6053 60.5848 66.47C60.3183 66.3346 59.9186 66.064 59.9186 66.064C59.9186 66.064 60.3183 66.064 60.5848 65.9286C60.7181 65.7932 60.9846 65.658 60.9846 65.658C60.9846 65.658 60.8513 65.9286 61.1179 65.9286C61.3845 65.9286 61.3843 65.9286 61.3843 65.9286C61.3843 65.9286 60.7181 66.064 60.7181 66.1992C60.5848 66.3346 60.8514 66.8759 60.8514 67.2819C60.8514 67.6879 60.8514 68.0939 60.8514 68.2293C60.8514 68.2293 60.8514 68.0939 60.5849 68.0939C60.4516 67.9586 60.3185 68.2293 60.0519 68.2293C59.7854 68.2293 59.2523 68.0939 58.9858 68.0939C58.9858 68.2293 58.3196 68.5 58.3196 68.5C58.3196 68.5 58.3196 68.3646 58.4529 68.3646L58.3193 68.0939Z" fill="#FFB294"/>
<path d="M60.1848 66.1992H59.9183C59.9183 66.1992 59.5185 66.0639 59.3852 65.7932C59.1187 65.5226 58.719 65.2518 58.4524 65.3872C58.1859 65.3872 57.7861 65.9286 57.7861 65.9286C57.7861 65.9286 58.3192 65.5226 58.5857 65.5226C58.8522 65.5226 59.3852 65.7932 59.5185 66.064C59.5185 66.0639 60.1848 66.3346 60.1848 66.1992C60.4512 66.3346 60.1848 66.1992 60.1848 66.1992Z" fill="#FFB294"/>
<path d="M60.5847 67.5527C60.5847 67.5527 60.3182 67.4173 60.0516 67.282C59.7851 67.1467 59.3854 66.7406 59.1188 66.6054C58.8523 66.47 58.8523 66.47 58.719 66.6054C58.5857 66.7408 58.0527 66.876 58.0527 66.876C58.0527 66.876 58.5858 66.6054 58.8523 66.7406C59.1188 66.876 59.5185 67.0113 59.6518 67.1467C59.9183 67.282 60.3181 67.6881 60.3181 67.6881L60.5847 67.5527Z" fill="#FFB294"/>
<path d="M60.1333 64.8646C60.1333 64.8646 60 64.8646 60 65L59.9183 64.9813C59.785 64.9813 59.785 65.1167 59.6519 65.1167C59.6519 65.1167 59.6519 65.1167 59.5186 65.2521C59.5186 65.3875 59.5186 65.3875 59.5186 65.5227C59.5186 65.658 59.5186 65.7934 59.5186 65.7934C59.5186 65.7934 59.5186 65.658 59.3853 65.5227C59.3853 65.3873 59.3853 65.3873 59.3853 65.2521C59.3853 65.2521 59.3853 65.2521 59.3853 65.1167C59.3853 65.1167 59.3853 65.1167 59.3853 64.9813C59.3853 64.9813 59.3853 64.8459 59.5186 64.8459C59.6519 64.7106 59.7334 64.7294 59.8667 64.7294C60 64.8646 60.1333 64.8646 60.1333 64.8646Z" fill="#FFB294"/>
<path d="M57.9194 64.7105L58.4525 64.3045C58.5858 64.3045 58.5858 64.3045 58.719 64.1691C58.8523 64.1691 58.8523 64.1691 58.9855 64.1691C59.1188 64.1691 59.2519 64.3045 59.3852 64.3045C59.5185 64.4399 59.5185 64.4399 59.6517 64.5751C59.6517 64.7105 59.785 64.7105 59.785 64.8458V64.9812C59.785 64.9812 59.785 64.9812 59.785 64.8458L59.6517 64.7104C59.5184 64.575 59.5184 64.575 59.3852 64.4398C59.2519 64.3044 59.1188 64.3044 58.9855 64.3044H58.8522H58.7189C58.4524 64.4398 57.9194 64.7105 57.9194 64.7105Z" fill="#FFB294"/>
<path d="M62.4832 68.8611C62.4832 68.8611 63.5158 71.3421 59.5181 73.2369C59.5181 73.2369 58.8519 73.7783 58.985 73.1015C59.1183 72.4249 59.2515 71.3421 59.2515 71.3421C59.2515 71.3421 58.452 72.6955 58.7184 73.5076C58.9849 74.455 61.3835 77.0263 61.9166 78.1092C62.4497 79.192 63.5157 81.7633 64.5817 82.034C65.6478 82.3046 66.9804 81.7633 67.5134 81.3573C68.1797 81.0867 69.1125 80.5453 69.5123 80.2746C69.9121 80.004 70.0454 79.3272 70.4451 78.7859C70.8449 78.2445 72.3107 75.8084 72.3107 75.8084L74.1763 72.5603C74.1763 72.4249 71.2446 64.9813 71.2446 64.9813C71.2446 64.9813 70.445 64.7106 70.1786 65.3873C69.9121 66.064 69.9121 66.7407 69.6455 67.282C69.379 67.8234 69.1124 68.2294 68.8459 69.0415C68.5795 69.8535 68.4462 70.3949 68.3129 70.6656C68.1796 70.9362 67.9131 71.0716 67.9131 71.613C67.9131 72.1544 67.7798 72.2896 67.7798 72.2896L65.6476 74.7257C65.6476 74.7257 64.9814 73.7783 64.8481 73.3723C64.8485 72.8309 63.0163 69.1318 62.4832 68.8611Z" fill="#949300"/>
<path d="M78.1744 83.9286C78.0411 88.5302 75.5093 96.1092 73.7769 97.5979C72.0445 99.0866 69.2461 95.7032 69.2461 95.7032C69.2461 95.7032 70.3121 90.831 71.6447 86.0941C72.9774 81.3573 72.4443 75.673 72.4443 75.673C70.9785 70.2594 71.245 65.1165 71.245 65.1165C71.778 65.1165 74.8429 64.0338 76.1755 63.3571C77.3749 62.6804 78.4409 61.5976 78.5742 61.5976C78.1744 62.4096 78.0411 67.2819 78.4409 70.2594C78.7075 73.2369 78.3077 79.3272 78.1744 83.9286Z" fill="#80800A"/>
<path d="M78.5743 61.4623C78.5743 61.4623 77.6414 62.139 77.375 62.2744C77.1085 62.4098 76.5754 63.6278 76.5754 63.6278L77.2417 64.3045H75.7759C75.7759 64.3045 76.0424 72.4249 76.4421 74.861C76.8419 77.2971 78.0412 82.5753 78.0412 84.6054C77.9079 86.6355 77.9079 86.6355 77.9079 86.6355C77.9079 86.6355 78.7075 81.0866 78.8408 77.5677C78.9741 74.1842 78.3078 63.4924 78.5743 61.4623Z" fill="#949300"/>
<path d="M90.5674 65.2518L94.4831 64.1667C94.4831 64.1667 94.6984 64.4397 94.8317 65.793C94.8317 67.1465 95.6313 67.9585 95.6313 68.7706C95.6313 69.5826 95.3648 70.124 95.6313 70.8007C95.8977 71.4773 96.5641 77.8384 96.6973 79.1917C96.8305 80.545 97.0971 82.0338 96.9638 82.7105C96.8305 83.2519 95.8977 90.9662 95.6311 92.3195C95.3647 93.673 94.2985 97.7332 94.2985 97.7332C94.2985 97.7332 93.0992 95.4324 90.7006 95.1617C90.7006 95.1617 91.3668 87.9887 91.8999 86.0939C92.433 84.1992 92.6994 84.1992 92.433 83.6578C92.1665 83.1164 91.2336 82.1691 91.2336 81.4923C91.2336 80.8155 91.6334 79.1915 91.3669 78.1087C91.1005 77.0263 90.5674 65.2518 90.5674 65.2518Z" fill="#949300"/>
<path d="M86.9692 62.139C86.9692 62.139 89.2346 62.8157 90.967 63.4924C92.5661 64.1691 94.4832 64.1667 94.4832 64.1667C94.4832 64.1667 92.6992 67.8234 92.033 72.1542C92.033 72.1542 90.4339 91.2371 93.3656 96.38C93.3656 96.38 88.7016 98.1395 87.2357 96.1094C85.7699 94.0793 86.2133 85.1111 86.2133 85.1111C85.8137 82.5395 86.5695 70.936 86.9692 62.139Z" fill="#80800A"/>
<path d="M85.6367 61.1916C85.6367 61.1916 86.303 65.5224 86.0365 68.7706C85.77 72.0187 85.8138 83.487 86.2136 85.1111C86.2136 85.1111 86.0402 81.9958 86.5732 80.7778C87.1062 79.4243 89.1014 70.8007 88.5684 64.0337L87.5024 64.4397L88.0355 63.7631C88.0355 63.7631 87.6357 62.545 86.8362 62.0036C86.0365 61.327 85.9033 61.1916 85.6367 61.1916Z" fill="#949300"/>
</g>
</g>
<defs>
<linearGradient id="paint0_linear_9:3134" x1="35.3723" y1="43.3294" x2="97.7407" y2="5.55121" gradientUnits="userSpaceOnUse">
<stop stop-color="#FEE927"/>
<stop offset="0.3" stop-color="#FEE927"/>
<stop offset="0.571564" stop-color="#FEE927"/>
<stop offset="1" stop-color="#F89C0E"/>
</linearGradient>
<linearGradient id="paint1_linear_9:3134" x1="28.04" y1="48.682" x2="94.5978" y2="8.36628" gradientUnits="userSpaceOnUse">
<stop stop-color="#FEE927"/>
<stop offset="0.3" stop-color="#FEE927"/>
<stop offset="0.571564" stop-color="#FEE927"/>
<stop offset="1" stop-color="#F89C0E"/>
</linearGradient>
<linearGradient id="paint2_linear_9:3134" x1="111.678" y1="18.2121" x2="87.2125" y2="94.1846" gradientUnits="userSpaceOnUse">
<stop stop-color="#1082CE"/>
<stop offset="0.3" stop-color="#1082CE"/>
<stop offset="0.573113" stop-color="#1082CE"/>
<stop offset="1" stop-color="#2744A0"/>
</linearGradient>
<linearGradient id="paint3_linear_9:3134" x1="13.0564" y1="112.659" x2="13.0564" y2="17.3921" gradientUnits="userSpaceOnUse">
<stop stop-color="#80C428"/>
<stop offset="0.3" stop-color="#80C428"/>
<stop offset="0.573113" stop-color="#80C428"/>
<stop offset="1" stop-color="#43803C"/>
</linearGradient>
<linearGradient id="paint4_linear_9:3134" x1="20.7004" y1="102.98" x2="20.7004" y2="18.2287" gradientUnits="userSpaceOnUse">
<stop stop-color="#80C428"/>
<stop offset="0.3" stop-color="#80C428"/>
<stop offset="0.573113" stop-color="#80C428"/>
<stop offset="1" stop-color="#43803C"/>
</linearGradient>
<linearGradient id="paint5_linear_9:3134" x1="89.2219" y1="29.9391" x2="112.951" y2="104.272" gradientUnits="userSpaceOnUse">
<stop stop-color="#1082CE"/>
<stop offset="0.3" stop-color="#1082CE"/>
<stop offset="0.573113" stop-color="#1082CE"/>
<stop offset="1" stop-color="#2744A0"/>
</linearGradient>
<linearGradient id="paint6_linear_9:3134" x1="8.29965" y1="99.8606" x2="101.505" y2="96.8736" gradientUnits="userSpaceOnUse">
<stop stop-color="#1C63B7"/>
<stop offset="0.428436" stop-color="#68BCEB"/>
<stop offset="0.7" stop-color="#68BCEB"/>
<stop offset="1" stop-color="#68BCEB"/>
</linearGradient>
<linearGradient id="paint7_linear_9:3134" x1="15.263" y1="98.7538" x2="102.809" y2="98.7538" gradientUnits="userSpaceOnUse">
<stop stop-color="#1C63B7"/>
<stop offset="0.428436" stop-color="#68BCEB"/>
<stop offset="0.7" stop-color="#68BCEB"/>
<stop offset="1" stop-color="#68BCEB"/>
</linearGradient>
<clipPath id="clip0_9:3134">
<rect width="125.07" height="120" fill="white"/>
</clipPath>
<clipPath id="clip1_9:3134">
<rect width="64" height="73" fill="white" transform="translate(33 36)"/>
</clipPath>
</defs>
</svg>
