<svg width="126" height="120" viewBox="0 0 126 120" fill="none" xmlns="http://www.w3.org/2000/svg">
<g clip-path="url(#clip0_0_1)">
<path d="M30.5892 10.9838C28.4715 12.5748 25.6177 15.0317 23.6085 17.0331C21.4316 19.22 20.3975 20.5188 21.6955 19.4244C24.2629 17.281 30.5024 12.8292 33.2486 11.1658C36.9989 8.89413 39.9232 7.57103 44.2116 6.23399C51.939 3.82234 57.9938 3.32026 67.3466 4.37812C71.1329 4.8019 81.2515 7.21668 84.9103 8.5861C93.1126 11.6294 100.316 16.5384 106.339 23.1986C108.333 25.3804 111.485 29.3819 112.391 30.8779C112.958 31.7672 113.016 31.8163 113.03 31.3313C113.018 30.3863 109.25 24.489 106.702 21.4384C98.2477 11.3202 87.2392 4.43019 75.2249 1.70697C63.4863 -0.931124 52.2858 0.278798 40.2925 5.49847C38.3811 6.32011 32.0188 9.92178 30.5892 10.9838Z" fill="black"/>
<path d="M30.5892 10.9838C28.4715 12.5748 25.6177 15.0317 23.6085 17.0331C21.4316 19.22 20.3975 20.5188 21.6955 19.4244C24.2629 17.281 30.5024 12.8292 33.2486 11.1658C36.9989 8.89413 39.9232 7.57103 44.2116 6.23399C51.939 3.82234 57.9938 3.32026 67.3466 4.37812C71.1329 4.8019 81.2515 7.21668 84.9103 8.5861C93.1126 11.6294 100.316 16.5384 106.339 23.1986C108.333 25.3804 111.485 29.3819 112.391 30.8779C112.958 31.7672 113.016 31.8163 113.03 31.3313C113.018 30.3863 109.25 24.489 106.702 21.4384C98.2477 11.3202 87.2392 4.43019 75.2249 1.70697C63.4863 -0.931124 52.2858 0.278798 40.2925 5.49847C38.3811 6.32011 32.0188 9.92178 30.5892 10.9838Z" fill="url(#paint0_linear_0_1)"/>
<path d="M33.469 16.6629C30.778 18.7411 26.7547 22.5507 24.4075 25.2891C22.22 27.8747 18.3504 33.0479 18.6136 33.1125C18.6794 33.1287 19.9197 31.9853 21.3314 30.5699C32.1059 19.8696 35.7687 17.3148 44.935 14.0876C57.1006 9.79999 70.9667 9.24455 81.6358 12.6144C89.4043 15.0802 96.123 19.0502 101.825 24.5325C105.988 28.5379 107.229 29.6627 107.373 29.5758C107.455 29.5261 106.963 28.7598 106.297 27.8462C97.6015 15.9416 80.5227 6.84577 65.7187 6.17651C59.6114 5.89808 52.245 7.19463 45.8656 9.65814C42.7601 10.8669 36.2009 14.5599 33.469 16.6629Z" fill="black"/>
<path d="M33.469 16.6629C30.778 18.7411 26.7547 22.5507 24.4075 25.2891C22.22 27.8747 18.3504 33.0479 18.6136 33.1125C18.6794 33.1287 19.9197 31.9853 21.3314 30.5699C32.1059 19.8696 35.7687 17.3148 44.935 14.0876C57.1006 9.79999 70.9667 9.24455 81.6358 12.6144C89.4043 15.0802 96.123 19.0502 101.825 24.5325C105.988 28.5379 107.229 29.6627 107.373 29.5758C107.455 29.5261 106.963 28.7598 106.297 27.8462C97.6015 15.9416 80.5227 6.84577 65.7187 6.17651C59.6114 5.89808 52.245 7.19463 45.8656 9.65814C42.7601 10.8669 36.2009 14.5599 33.469 16.6629Z" fill="url(#paint1_linear_0_1)"/>
<path d="M87.8335 12.7529C87.8799 12.8433 89.1764 13.6636 90.7392 14.5948C92.2793 15.5186 94.5294 16.9732 95.7053 17.8553C98.2705 19.7386 102.657 24.0962 105.059 27.1101C118.992 44.7364 121.437 69.0344 111.151 87.9233C109.017 91.8929 105.534 96.6111 102.474 99.7036C100.982 101.212 101.347 101.405 102.878 99.9343C109.872 93.3011 112.394 90.1611 115.664 83.9144C117.277 80.8594 120.06 72.2157 120.474 68.976C121.796 58.8545 120.515 49.934 116.257 39.627C114.711 35.9072 111.346 30.6451 108.065 26.8445C104.622 22.841 98.9531 18.3223 93.9615 15.5318C91.3098 14.0737 87.6634 12.4212 87.8335 12.7529Z" fill="black"/>
<path d="M87.8335 12.7529C87.8799 12.8433 89.1764 13.6636 90.7392 14.5948C92.2793 15.5186 94.5294 16.9732 95.7053 17.8553C98.2705 19.7386 102.657 24.0962 105.059 27.1101C118.992 44.7364 121.437 69.0344 111.151 87.9233C109.017 91.8929 105.534 96.6111 102.474 99.7036C100.982 101.212 101.347 101.405 102.878 99.9343C109.872 93.3011 112.394 90.1611 115.664 83.9144C117.277 80.8594 120.06 72.2157 120.474 68.976C121.796 58.8545 120.515 49.934 116.257 39.627C114.711 35.9072 111.346 30.6451 108.065 26.8445C104.622 22.841 98.9531 18.3223 93.9615 15.5318C91.3098 14.0737 87.6634 12.4212 87.8335 12.7529Z" fill="url(#paint2_linear_0_1)"/>
<path d="M24.6257 14.8182C17.7491 19.6582 12.1904 26.5347 7.27861 36.2146C4.21172 42.2764 1.93552 48.6259 0.809397 54.3763C-0.795925 62.4987 -0.00524382 71.4837 3.10956 80.4448C6.58377 90.532 15.2333 102.871 22.613 108.238C24.6736 109.748 24.434 109.269 21.7025 106.417C8.64433 92.8082 3.18144 80.2291 3.18144 63.6967C3.15748 58.8089 3.27728 57.4431 3.97212 53.1064C6.20041 39.0658 12.4779 27.1577 23.0443 16.8548C24.7694 15.1776 26.1591 13.8119 26.1112 13.8119C26.0872 13.8119 25.4164 14.2672 24.6257 14.8182Z" fill="#6AAB30"/>
<path d="M24.6257 14.8182C17.7491 19.6582 12.1904 26.5347 7.27861 36.2146C4.21172 42.2764 1.93552 48.6259 0.809397 54.3763C-0.795925 62.4987 -0.00524382 71.4837 3.10956 80.4448C6.58377 90.532 15.2333 102.871 22.613 108.238C24.6736 109.748 24.434 109.269 21.7025 106.417C8.64433 92.8082 3.18144 80.2291 3.18144 63.6967C3.15748 58.8089 3.27728 57.4431 3.97212 53.1064C6.20041 39.0658 12.4779 27.1577 23.0443 16.8548C24.7694 15.1776 26.1591 13.8119 26.1112 13.8119C26.0872 13.8119 25.4164 14.2672 24.6257 14.8182Z" fill="url(#paint3_linear_0_1)"/>
<path d="M27.4052 15.8725C26.8062 16.3517 25.3686 17.5976 24.1946 18.6758C16.0242 26.1513 10.9686 35.6395 9.02786 47.2361C8.42886 50.926 8.42886 59.5756 9.02786 63.1696C10.4894 71.6035 13.173 78.4561 17.7733 85.5003C19.6182 88.3276 20.4568 89.31 23.7154 92.5685C27.6209 96.4501 29.9689 98.3908 32.0774 99.469C32.7483 99.8045 33.0119 99.9003 32.6764 99.6607C21.7746 91.7778 13.3646 76.3236 11.8072 61.2767C11.4239 57.4671 11.6635 49.728 12.2864 46.0381C13.2448 40.4075 14.6106 36.0947 17.1024 30.9433C19.2828 26.4149 21.2714 23.5876 26.4229 17.6455C29.0824 14.5786 29.1064 14.5546 27.4052 15.8725Z" fill="#6AAB30"/>
<path d="M27.4052 15.8725C26.8062 16.3517 25.3686 17.5976 24.1946 18.6758C16.0242 26.1513 10.9686 35.6395 9.02786 47.2361C8.42886 50.926 8.42886 59.5756 9.02786 63.1696C10.4894 71.6035 13.173 78.4561 17.7733 85.5003C19.6182 88.3276 20.4568 89.31 23.7154 92.5685C27.6209 96.4501 29.9689 98.3908 32.0774 99.469C32.7483 99.8045 33.0119 99.9003 32.6764 99.6607C21.7746 91.7778 13.3646 76.3236 11.8072 61.2767C11.4239 57.4671 11.6635 49.728 12.2864 46.0381C13.2448 40.4075 14.6106 36.0947 17.1024 30.9433C19.2828 26.4149 21.2714 23.5876 26.4229 17.6455C29.0824 14.5786 29.1064 14.5546 27.4052 15.8725Z" fill="url(#paint4_linear_0_1)"/>
<path d="M111.959 25.5715C112.187 26.0518 113.453 28.4397 114.755 30.8659C119.551 39.823 120.91 44.3943 121.619 54.1783C122.558 66.6552 120.366 78.1449 115.229 87.6573C109.842 97.6515 102.567 104.879 89.6495 113.026C87.0523 114.66 87.4 114.725 90.7155 113.214C98.1016 109.8 106.544 103.156 111.642 96.75C121.569 84.2752 126.361 66.1959 123.789 50.9704C123.254 47.7962 120.98 40.6747 119.352 37.0698C117.369 32.6724 113.813 26.8909 112.069 25.2092C111.53 24.7022 111.53 24.7022 111.959 25.5715Z" fill="black"/>
<path d="M111.959 25.5715C112.187 26.0518 113.453 28.4397 114.755 30.8659C119.551 39.823 120.91 44.3943 121.619 54.1783C122.558 66.6552 120.366 78.1449 115.229 87.6573C109.842 97.6515 102.567 104.879 89.6495 113.026C87.0523 114.66 87.4 114.725 90.7155 113.214C98.1016 109.8 106.544 103.156 111.642 96.75C121.569 84.2752 126.361 66.1959 123.789 50.9704C123.254 47.7962 120.98 40.6747 119.352 37.0698C117.369 32.6724 113.813 26.8909 112.069 25.2092C111.53 24.7022 111.53 24.7022 111.959 25.5715Z" fill="url(#paint5_linear_0_1)"/>
<path d="M7.71865 78.9237C8.60624 82.6829 11.7883 89.2212 14.7485 93.3215C19.9421 100.539 27.681 107.89 33.0709 110.761C42.5083 115.757 48.2359 117.947 54.7927 119.079C68.7266 121.509 82.0762 117.677 98.8349 106.52C103.177 103.624 102.584 103.811 97.6004 106.896C92.4054 110.107 89.2185 111.647 84.7354 113.133C79.0664 115.017 74.2713 115.746 66.985 115.788C59.508 115.859 54.5711 115.155 47.4065 113.011C37.0719 109.938 28.5275 105.13 21.2596 98.2669C16.4634 93.722 13.3009 89.2926 9.6145 81.9793C8.6153 79.9737 7.72187 78.2763 7.64773 78.2068C7.57358 78.1372 7.60828 78.4717 7.71865 78.9237Z" fill="black"/>
<path d="M7.71865 78.9237C8.60624 82.6829 11.7883 89.2212 14.7485 93.3215C19.9421 100.539 27.681 107.89 33.0709 110.761C42.5083 115.757 48.2359 117.947 54.7927 119.079C68.7266 121.509 82.0762 117.677 98.8349 106.52C103.177 103.624 102.584 103.811 97.6004 106.896C92.4054 110.107 89.2185 111.647 84.7354 113.133C79.0664 115.017 74.2713 115.746 66.985 115.788C59.508 115.859 54.5711 115.155 47.4065 113.011C37.0719 109.938 28.5275 105.13 21.2596 98.2669C16.4634 93.722 13.3009 89.2926 9.6145 81.9793C8.6153 79.9737 7.72187 78.2763 7.64773 78.2068C7.57358 78.1372 7.60828 78.4717 7.71865 78.9237Z" fill="url(#paint6_linear_0_1)"/>
<path d="M15.4968 84.5659C17.9647 90.4122 27.2612 101.05 33.8741 105.555C46.1656 113.917 62.9377 115.978 78.0325 110.994C84.7892 108.766 91.0013 106.967 97.183 101.408C99.4113 99.3958 102.314 96.1509 103.944 93.8029C105.165 92.0298 105.806 91.4939 103.098 94.2254C95.4073 101.964 81.9619 107.304 69.2152 109.221C66.0045 109.7 57.4508 109.628 54.0245 109.101C42.0445 107.232 32.3886 102.464 23.8349 94.1978C22.4692 92.88 20.9597 91.2028 20.4565 90.484C19.9534 89.7413 19.3783 88.9985 19.1387 88.8068C18.9231 88.6391 18.1084 87.537 17.3178 86.3869C16.5271 85.2368 15.7124 84.1586 15.4968 83.9909C15.1853 83.7033 15.1853 83.7752 15.4968 84.5659Z" fill="black"/>
<path d="M15.4968 84.5659C17.9647 90.4122 27.2612 101.05 33.8741 105.555C46.1656 113.917 62.9377 115.978 78.0325 110.994C84.7892 108.766 91.0013 106.967 97.183 101.408C99.4113 99.3958 102.314 96.1509 103.944 93.8029C105.165 92.0298 105.806 91.4939 103.098 94.2254C95.4073 101.964 81.9619 107.304 69.2152 109.221C66.0045 109.7 57.4508 109.628 54.0245 109.101C42.0445 107.232 32.3886 102.464 23.8349 94.1978C22.4692 92.88 20.9597 91.2028 20.4565 90.484C19.9534 89.7413 19.3783 88.9985 19.1387 88.8068C18.9231 88.6391 18.1084 87.537 17.3178 86.3869C16.5271 85.2368 15.7124 84.1586 15.4968 83.9909C15.1853 83.7033 15.1853 83.7752 15.4968 84.5659Z" fill="url(#paint7_linear_0_1)"/>
</g>
<g clip-path="url(#clip1_0_1)">
<path d="M42.8721 37.8447C42.8705 37.8447 42.8688 37.8447 42.8672 37.8447C42.3186 37.8447 41.8027 38.0585 41.4131 38.4471C41.0192 38.84 40.8022 39.3632 40.8022 39.9202V71.0421C40.8022 72.1833 41.7344 73.1141 42.8803 73.117C47.7113 73.1285 55.8052 74.1354 61.3888 79.9786V47.4086C61.3888 47.0218 61.29 46.6584 61.1035 46.3576C56.5207 38.9773 47.714 37.856 42.8721 37.8447Z" fill="#F6C358"/>
<path d="M85.1977 71.042V39.92C85.1977 39.363 84.9807 38.8398 84.5868 38.4469C84.1972 38.0583 83.6809 37.8445 83.1329 37.8445C83.1312 37.8445 83.1294 37.8445 83.1278 37.8445C78.2861 37.856 69.4794 38.9773 64.8964 46.3576C64.7099 46.6583 64.6113 47.0218 64.6113 47.4086V79.9784C70.195 74.1352 78.2888 73.1283 83.1198 73.1168C84.2656 73.1138 85.1977 72.1831 85.1977 71.042Z" fill="#F6C358"/>
<path opacity="0.6" d="M89.925 45.0219H88.4201V71.0421C88.4201 73.9559 86.046 76.332 83.1276 76.3392C79.0299 76.349 72.2734 77.1502 67.4883 81.6791C75.7641 79.6529 84.4884 80.9701 89.4604 82.1031C90.0812 82.2445 90.7227 82.0984 91.2201 81.702C91.7158 81.3065 92.0001 80.7154 92.0001 80.0809V47.097C92.0003 45.9528 91.0692 45.0219 89.925 45.0219Z" fill="#B8B9BA"/>
<path opacity="0.6" d="M37.58 71.0421V45.0219H36.0751C34.9311 45.0219 34 45.9528 34 47.097V80.0803C34 80.715 34.2843 81.306 34.78 81.7014C35.277 82.0976 35.9179 82.2443 36.5397 82.1025C41.5117 80.9693 50.2361 79.6523 58.5116 81.6786C53.7267 77.1499 46.9702 76.3488 42.8725 76.339C39.9543 76.332 37.58 73.9559 37.58 71.0421Z" fill="#B8B9BA"/>
</g>
<defs>
<linearGradient id="paint0_linear_0_1" x1="35.3723" y1="43.3294" x2="97.7407" y2="5.55121" gradientUnits="userSpaceOnUse">
<stop stop-color="#FEE927"/>
<stop offset="0.3" stop-color="#FEE927"/>
<stop offset="0.571564" stop-color="#FEE927"/>
<stop offset="1" stop-color="#F89C0E"/>
</linearGradient>
<linearGradient id="paint1_linear_0_1" x1="28.04" y1="48.682" x2="94.5978" y2="8.36628" gradientUnits="userSpaceOnUse">
<stop stop-color="#FEE927"/>
<stop offset="0.3" stop-color="#FEE927"/>
<stop offset="0.571564" stop-color="#FEE927"/>
<stop offset="1" stop-color="#F89C0E"/>
</linearGradient>
<linearGradient id="paint2_linear_0_1" x1="111.678" y1="18.2121" x2="87.2125" y2="94.1846" gradientUnits="userSpaceOnUse">
<stop stop-color="#1082CE"/>
<stop offset="0.3" stop-color="#1082CE"/>
<stop offset="0.573113" stop-color="#1082CE"/>
<stop offset="1" stop-color="#2744A0"/>
</linearGradient>
<linearGradient id="paint3_linear_0_1" x1="13.0564" y1="112.659" x2="13.0564" y2="17.3921" gradientUnits="userSpaceOnUse">
<stop stop-color="#80C428"/>
<stop offset="0.3" stop-color="#80C428"/>
<stop offset="0.573113" stop-color="#80C428"/>
<stop offset="1" stop-color="#43803C"/>
</linearGradient>
<linearGradient id="paint4_linear_0_1" x1="20.7004" y1="102.98" x2="20.7004" y2="18.2287" gradientUnits="userSpaceOnUse">
<stop stop-color="#80C428"/>
<stop offset="0.3" stop-color="#80C428"/>
<stop offset="0.573113" stop-color="#80C428"/>
<stop offset="1" stop-color="#43803C"/>
</linearGradient>
<linearGradient id="paint5_linear_0_1" x1="89.2219" y1="29.9391" x2="112.951" y2="104.272" gradientUnits="userSpaceOnUse">
<stop stop-color="#1082CE"/>
<stop offset="0.3" stop-color="#1082CE"/>
<stop offset="0.573113" stop-color="#1082CE"/>
<stop offset="1" stop-color="#2744A0"/>
</linearGradient>
<linearGradient id="paint6_linear_0_1" x1="8.29965" y1="99.8606" x2="101.505" y2="96.8736" gradientUnits="userSpaceOnUse">
<stop stop-color="#1C63B7"/>
<stop offset="0.428436" stop-color="#68BCEB"/>
<stop offset="0.7" stop-color="#68BCEB"/>
<stop offset="1" stop-color="#68BCEB"/>
</linearGradient>
<linearGradient id="paint7_linear_0_1" x1="15.263" y1="98.7538" x2="102.809" y2="98.7538" gradientUnits="userSpaceOnUse">
<stop stop-color="#1C63B7"/>
<stop offset="0.428436" stop-color="#68BCEB"/>
<stop offset="0.7" stop-color="#68BCEB"/>
<stop offset="1" stop-color="#68BCEB"/>
</linearGradient>
<clipPath id="clip0_0_1">
<rect width="125.07" height="120" fill="white"/>
</clipPath>
<clipPath id="clip1_0_1">
<rect width="58" height="58" fill="white" transform="translate(34 31)"/>
</clipPath>
</defs>
</svg>
