<svg width="91" height="120" viewBox="0 0 91 120" fill="none" xmlns="http://www.w3.org/2000/svg">
<path d="M60.8123 16.4781C61.9574 21.4265 62.9942 27.8035 63.6121 34.8935C72.5875 38.3552 80.4159 44.925 85.3001 54.0755C96.1158 74.3234 88.4626 99.5092 68.2191 110.321C61.314 114.008 53.8306 115.543 46.5417 115.17C51.0527 113.268 54.9167 110.791 58.1303 108.106C60.6265 107.416 63.0902 106.448 65.4702 105.177C82.876 95.8784 89.4449 74.2274 80.1536 56.8278C76.4207 49.8382 70.6898 44.5905 64.0452 41.4201C65.6155 76.2026 55.907 122.12 2.45117 108.162C44.7734 90.3728 60.1442 70.8185 60.8123 16.4781Z" fill="#F6C358"/>
<path d="M65.8082 43.5272C78.651 79.4311 69.0314 110.467 33.1328 120C61.8922 103.301 69.8861 76.3751 65.8082 43.5272Z" fill="#707274"/>
<path d="M29.0578 36.9953C38.4661 31.9703 48.9378 30.9335 58.5406 33.295C58.119 35.2781 57.6349 37.1635 57.0663 38.9397C48.8339 36.9364 39.8656 37.8377 31.804 42.1409C15.0354 51.0995 8.33102 71.5244 16.1823 88.5728C32.8725 79.2216 50.0961 66.0135 56.011 40.2697C57.7634 68.515 24.4147 95.5897 0 97.0156C3.4838 95.2191 7.21317 93.3646 11.0358 91.3568C1.64332 71.4557 9.43477 47.4775 29.0578 36.9953Z" fill="#707274"/>
<path d="M59.9333 0L60.6066 9.43389L68.3162 3.95382L62.1205 11.101L71.4462 12.6774L62.0123 13.3507L67.4923 21.0603L60.3452 14.8647L58.7688 24.1903L58.0954 14.7564L50.3858 20.2365L56.5815 13.0893L47.2559 11.5129L56.6898 10.8396L51.2097 3.12996L58.3568 9.32563L59.9333 0Z" fill="#F6C358"/>
</svg>
