<svg width="52" height="60" viewBox="0 0 52 60" fill="none" xmlns="http://www.w3.org/2000/svg">
<path d="M35.3616 57.7837V7.15292C35.3616 5.92878 34.37 4.93655 33.1467 4.93655H2.21525C0.991995 4.93655 0.000488281 5.9289 0.000488281 7.15292V57.7837C0.000488281 59.0078 0.992113 60 2.21525 60H33.1468C34.37 60 35.3616 59.0077 35.3616 57.7837Z" fill="#F6C358"/>
<path d="M40.4081 4.93643H32.9956C34.2189 4.93643 35.2105 5.92878 35.2105 7.1528V57.7836C35.2105 59.0077 34.2189 59.9999 32.9956 59.9999H40.4081C41.6313 59.9999 42.6229 59.0076 42.6229 57.7836V7.15292C42.6229 5.92878 41.6313 4.93643 40.4081 4.93643Z" fill="#E3B554"/>
<path d="M3.62061 55.5851V9.35136C3.62061 8.91378 3.97507 8.55917 4.41222 8.55917H38.2117C38.649 8.55917 39.0034 8.9139 39.0034 9.35136V55.5851C39.0034 56.0227 38.6489 56.3773 38.2117 56.3773H4.41222C3.97496 56.3773 3.62061 56.0227 3.62061 55.5851Z" fill="#E9EFFF"/>
<path d="M38.2123 8.55917H30.7998C31.2371 8.55917 31.5914 8.9139 31.5914 9.35136V55.5851C31.5914 56.0227 31.2369 56.3773 30.7998 56.3773H38.2123C38.6495 56.3773 39.0039 56.0226 39.0039 55.5851V9.35136C39.0039 8.9139 38.6495 8.55917 38.2123 8.55917Z" fill="#D7DCEB"/>
<path d="M26.0167 2.75839V1.59155C26.0167 0.712648 25.3047 3.05176e-05 24.4263 3.05176e-05H18.1968C17.3185 3.05176e-05 16.6065 0.712648 16.6065 1.59155V2.75839C16.6065 3.1178 16.3152 3.40925 15.9561 3.40925H13.3634C12.501 3.40925 11.8018 4.10898 11.8018 4.97206V8.55917H30.8214V4.97206C30.8214 4.10898 30.1222 3.40925 29.2598 3.40925H26.6671C26.308 3.40925 26.0167 3.1178 26.0167 2.75839Z" fill="#C6CBDA"/>
<path d="M8.22607 21.421V14.4438C8.22607 13.6709 8.85234 13.0442 9.62475 13.0442H16.5968C17.3692 13.0442 17.9955 13.6709 17.9955 14.4438V21.421C17.9955 22.1939 17.3692 22.8206 16.5968 22.8206H9.62475C8.85222 22.8206 8.22607 22.1939 8.22607 21.421Z" fill="#95BB20"/>
<path d="M8.22559 35.9569V28.9798C8.22559 28.2068 8.85185 27.5801 9.62426 27.5801H16.5963C17.3687 27.5801 17.995 28.2068 17.995 28.9798V35.9569C17.995 36.7299 17.3687 37.3566 16.5963 37.3566H9.62426C8.85173 37.3566 8.22559 36.7299 8.22559 35.9569Z" fill="#95BB20"/>
<path d="M8.22559 50.4927V43.5156C8.22559 42.7426 8.85185 42.1159 9.62426 42.1159H16.5963C17.3687 42.1159 17.995 42.7426 17.995 43.5156V50.4927C17.995 51.2657 17.3687 51.8924 16.5963 51.8924H9.62426C8.85173 51.8924 8.22559 51.2658 8.22559 50.4927Z" fill="#95BB20"/>
<path d="M12.5195 20.4306C12.5184 20.4306 12.5175 20.4306 12.5164 20.4306C12.117 20.4296 11.7382 20.236 11.5029 19.9129L10.4464 18.461C10.1522 18.0567 10.2412 17.4903 10.6452 17.1959C11.0492 16.9017 11.6152 16.9907 11.9092 17.3949L12.5218 18.2369L14.3129 15.8018C14.6092 15.399 15.1755 15.313 15.5778 15.6093C15.9803 15.9057 16.0664 16.4725 15.7701 16.8753L13.532 19.9181C13.2961 20.2391 12.9176 20.4306 12.5195 20.4306Z" fill="white"/>
<path d="M12.5203 35.2832C12.5191 35.2832 12.5181 35.2832 12.517 35.2832C12.1176 35.2822 11.7388 35.0887 11.5036 34.7654L10.4474 33.3136C10.1532 32.9093 10.2422 32.343 10.6462 32.0486C11.0502 31.7543 11.6162 31.8434 11.9102 32.2476L12.5228 33.0896L14.3139 30.6544C14.6101 30.2518 15.1764 30.1656 15.5788 30.462C15.9813 30.7584 16.0674 31.3252 15.7711 31.728L13.533 34.7708C13.2971 35.092 12.9186 35.2832 12.5203 35.2832Z" fill="white"/>
<path d="M12.5203 49.5029C12.5192 49.5029 12.5182 49.5029 12.5172 49.5028C12.1179 49.5019 11.739 49.3084 11.5038 48.9854L10.4473 47.5333C10.1532 47.129 10.2423 46.5627 10.6463 46.2683C11.0505 45.974 11.6162 46.0633 11.9103 46.4674L12.5227 47.3093L14.3139 44.8741C14.6102 44.4715 15.1765 44.3854 15.5789 44.6817C15.9814 44.9781 16.0674 45.5449 15.7712 45.9477L13.5331 48.9905C13.2969 49.3115 12.9185 49.5029 12.5203 49.5029Z" fill="white"/>
<path d="M33.685 16.9459H22.4999C22.0003 16.9459 21.5952 16.5406 21.5952 16.0405C21.5952 15.5405 22.0003 15.1351 22.4999 15.1351H33.685C34.1847 15.1351 34.5897 15.5405 34.5897 16.0405C34.5897 16.5406 34.1847 16.9459 33.685 16.9459Z" fill="#C6CBDA"/>
<path d="M28.0924 20.7289H22.4999C22.0003 20.7289 21.5952 20.3236 21.5952 19.8235C21.5952 19.3235 22.0003 18.9181 22.4999 18.9181H28.0924C28.5921 18.9181 28.9971 19.3235 28.9971 19.8235C28.9971 20.3236 28.5921 20.7289 28.0924 20.7289Z" fill="#C6CBDA"/>
<path d="M30.006 31.4819H22.5014C22.0017 31.4819 21.5967 31.0765 21.5967 30.5765C21.5967 30.0764 22.0017 29.6711 22.5014 29.6711H30.006C30.5057 29.6711 30.9108 30.0764 30.9108 30.5765C30.9108 31.0765 30.5057 31.4819 30.006 31.4819Z" fill="#C6CBDA"/>
<path d="M28.0929 35.2648H22.5004C22.0008 35.2648 21.5957 34.8595 21.5957 34.3594C21.5957 33.8594 22.0008 33.454 22.5004 33.454H28.0929C28.5926 33.454 28.9976 33.8594 28.9976 34.3594C28.9976 34.8595 28.5926 35.2648 28.0929 35.2648Z" fill="#C6CBDA"/>
<path d="M48.2307 23.6389L47.3424 22.4677L44.0184 20.3613L42.7407 20.1599L25.7205 47.0747C25.3098 47.7236 25.0085 48.4358 24.8286 49.1825C26.8995 49.2082 28.7791 50.3993 29.6877 52.2617C30.2854 51.7797 30.7998 51.2027 31.2105 50.5537L48.2307 23.6389Z" fill="#FF8787"/>
<path d="M50.634 15.3507L49.1977 14.4405C48.0781 13.7309 46.5956 14.0643 45.8869 15.185L44.5698 17.2678L44.99 18.1154L48.9867 20.6482L50.0599 20.7468L51.3778 18.6628C52.0861 17.5427 51.7531 16.0599 50.634 15.3507Z" fill="#C6CBDA"/>
<path d="M42.7432 20.1521L44.5729 17.2601L50.0639 20.7392L48.2342 23.6312L42.7432 20.1521Z" fill="#E9EFFF"/>
<path d="M29.6882 52.2618L24.8419 56.17C24.1583 56.7214 23.165 56.092 23.3708 55.2378L24.8292 49.1826C26.9 49.2081 28.7797 50.3993 29.6882 52.2618Z" fill="#C6CBDA"/>
<path d="M28.417 50.5839L46.2586 22.3888L44.7298 21.42L26.8882 49.6151C27.4479 49.8511 27.9644 50.1784 28.417 50.5839Z" fill="#FB636F"/>
</svg>
