<svg width="110" height="58" viewBox="0 0 110 58" fill="none" xmlns="http://www.w3.org/2000/svg">
<path d="M31.7231 49.1038C31.7231 48.6635 31.7231 48.3113 31.8112 47.8711C31.9873 46.8145 32.5156 45.8459 33.1319 44.9654C33.22 44.8773 33.308 44.7013 33.3961 44.6132C33.4841 44.5252 33.6602 44.5251 33.7483 44.5251C34.3646 44.5251 34.981 44.5251 35.5974 44.5251C35.7735 44.5251 35.8615 44.5251 36.0376 44.5251C36.2137 44.5251 36.3018 44.7012 36.4779 44.7893C36.9181 45.1415 37.1823 45.5818 37.3584 46.1101C37.7106 47.1667 37.3584 48.3113 37.0062 49.3679C36.8301 49.8082 36.742 50.3365 36.5659 50.7767C36.4779 51.0409 36.3898 51.305 36.2137 51.5692C35.8615 52.0094 35.3332 52.2736 34.893 52.4497C34.1886 52.7138 33.4841 52.978 32.8678 52.6258C32.4275 52.3616 32.2514 51.9214 32.0753 51.4811C31.8112 50.7767 31.7231 49.8962 31.7231 49.1038Z" fill="#F6C358"/>
<path d="M85.2576 34.4874C83.1444 36.7767 81.7356 37.7453 79.6224 40.0346C78.8299 40.9151 77.8614 41.8836 76.6287 41.8836C76.4526 41.8836 76.1884 41.7956 76.0123 41.7956C75.2199 41.5314 74.6035 40.9151 74.0752 40.2987C71.874 37.9214 69.7608 35.2799 67.2073 33.2547C64.4778 31.0534 61.1319 29.6446 58.5784 27.1792C57.5218 26.1226 55.7608 26.2107 54.352 26.0346C53.2073 25.8585 52.1507 26.3868 51.2702 27.0912C50.3897 27.7956 49.6853 28.588 48.7168 29.2924C47.308 30.349 45.4589 30.7893 43.6979 30.7012C43.1696 30.6132 42.5533 30.5251 42.113 30.1729C41.6728 29.8207 41.4086 29.2044 41.6728 28.6761C41.7608 28.4119 42.025 28.1478 42.2891 27.9717C43.9621 26.2107 43.874 23.0409 45.9872 21.8082C46.8677 21.2799 47.8363 21.1918 48.8048 20.8396C49.6853 20.4874 50.4778 19.8711 51.2702 19.4308C52.0627 18.9906 52.9432 18.7264 53.8237 18.5503C55.3206 18.1981 56.9055 18.1981 58.4904 18.1981C60.0753 18.1981 61.6602 18.2862 63.157 18.7264C64.3017 19.0786 65.3583 19.6069 66.591 19.8711C68.352 20.2233 70.113 19.783 71.874 19.5189C72.2262 19.4308 72.5784 19.4308 72.8425 19.6069C73.0186 19.695 73.1947 19.8711 73.2828 19.9591C73.8111 20.4874 74.4274 21.0157 74.9557 21.544C79.006 25.3302 83.1444 29.3805 85.2576 34.4874Z" fill="#F9B54C"/>
<path d="M85.2576 34.4874C83.1444 36.7767 81.7356 37.7453 79.6224 40.0346C78.8299 40.9151 77.8614 41.8836 76.6287 41.8836C76.4526 41.8836 76.1884 41.7956 76.0123 41.7956C75.2199 41.5314 74.6035 40.9151 74.0752 40.2987C71.874 37.9214 69.7608 35.2799 67.2073 33.2547C64.4778 31.0534 61.1319 29.6446 58.5784 27.1792C57.5218 26.1226 55.7608 26.2107 54.352 26.0346C53.2073 25.8585 52.1507 26.3868 51.2702 27.0912C50.3897 27.7956 49.6853 28.588 48.7168 29.2924C47.308 30.349 45.4589 30.7893 43.6979 30.7012C43.5218 30.7012 43.3457 30.7012 43.1696 30.6132C42.8174 30.5251 42.3772 30.4371 42.113 30.1729C41.6728 29.8207 41.4086 29.2044 41.6728 28.6761C41.7608 28.4119 42.025 28.1478 42.2891 27.9717C43.0816 27.1792 43.4338 26.0346 43.874 24.978C44.3143 23.7453 44.8426 22.5126 45.9872 21.8082C46.8677 21.2799 47.9243 21.1918 48.8048 20.8396C49.6853 20.4874 50.4778 19.8711 51.2702 19.4308C52.0627 18.9906 52.9432 18.7264 53.8237 18.5503C55.3206 18.1981 56.9055 18.1981 58.4904 18.1981C60.0753 18.1981 61.6602 18.2862 63.157 18.7264C64.3017 19.0786 65.3583 19.695 66.591 19.8711C68.352 20.2233 70.113 19.783 71.874 19.5189C72.2262 19.5189 72.5784 19.4308 72.8425 19.6069C73.0186 19.695 73.1947 19.8711 73.2828 19.9591C73.8111 20.4874 74.4274 21.0157 74.9557 21.544C79.006 25.3302 83.1444 29.3805 85.2576 34.4874Z" fill="#F9B54C"/>
<path d="M85.2576 34.4874C83.1444 36.7767 81.7356 37.7453 79.6224 40.0346C78.8299 40.9151 77.8614 41.8836 76.6287 41.8836C76.4526 41.8836 76.1884 41.7956 76.0123 41.7956C75.2199 41.5314 74.6035 40.9151 74.0752 40.2987C71.874 37.9214 69.7608 35.2799 67.2073 33.2547C64.4778 31.0534 61.1319 29.6446 58.5784 27.1792C57.5218 26.1226 55.7608 26.2107 54.352 26.0346C53.2073 25.8585 52.1507 26.3868 51.2702 27.0912C50.3897 27.7956 49.6853 28.588 48.7168 29.2924C47.308 30.349 45.4589 30.7893 43.6979 30.7012C43.5218 30.7012 43.3457 30.7012 43.1696 30.6132C42.8174 30.5251 42.3772 30.4371 42.113 30.1729C41.6728 29.8207 41.4086 29.2044 41.6728 28.6761V28.588C41.7608 28.3239 42.025 28.1478 42.2011 27.9717C42.9935 27.1792 43.3457 26.0346 43.786 24.978C43.786 24.8899 43.786 24.8899 43.874 24.8019C44.3143 23.6572 44.8426 22.5126 45.8992 21.8082C46.7797 21.2799 47.8363 21.1918 48.7168 20.8396C49.5973 20.4874 50.3897 19.8711 51.1822 19.4308C51.9746 18.9906 52.8551 18.7264 53.7356 18.5503C55.2325 18.1981 56.8174 18.1981 58.4023 18.1981C59.9872 18.1981 61.5721 18.2862 63.069 18.7264C64.2136 19.0786 65.2702 19.695 66.5029 19.8711C68.2639 20.2233 70.0249 19.783 71.7859 19.5189C72.1381 19.5189 72.4903 19.4308 72.7545 19.6069C72.9306 19.695 73.1067 19.8711 73.1947 19.9591C73.723 20.4874 74.3394 21.0157 74.8677 21.544C79.0061 25.3302 83.1444 29.3805 85.2576 34.4874Z" fill="#F6C358"/>
<path d="M76.2761 43.6447C76.1881 44.7013 75.5718 45.6698 74.6032 46.1101C73.6346 46.5503 72.49 46.5503 71.6095 45.934C72.3139 46.9906 71.6095 48.4874 70.4648 49.0157C69.3202 49.544 67.9994 49.456 66.7667 49.2799C67.207 49.544 67.295 50.2484 67.0309 50.6887C66.7667 51.1289 66.2384 51.3931 65.7101 51.5692C64.5655 51.9214 63.2447 51.9214 62.1001 51.6572C62.6284 52.0975 62.2762 53.066 61.7479 53.5063C60.251 54.9151 58.0498 55.3553 56.0246 54.9151C53.9995 54.5629 52.1504 53.5063 50.3894 52.4497C48.6284 51.3931 46.8674 50.3365 44.8422 49.7201C42.9051 49.1918 40.7919 49.1918 38.7668 48.6635C35.685 47.8711 33.1316 45.7579 30.7542 43.7327C30.314 43.3805 29.8737 42.9403 29.6096 42.412C29.4335 41.7956 29.6096 41.1793 29.7857 40.651C31.0184 36.5126 32.4272 32.4623 34.1882 28.5C34.5404 27.6195 34.9806 26.739 35.597 25.9466C36.6536 24.5378 38.5026 23.6573 38.5907 21.9843C38.6787 21.368 38.8548 20.7516 39.207 20.2233C39.2951 20.0472 39.4712 19.9592 39.5592 19.7831C39.7353 19.695 39.9114 19.607 40.0875 19.607C42.0246 19.0787 43.9617 18.5504 45.8988 18.0221C47.3957 17.5818 48.8925 17.2296 50.4775 17.3177C51.6221 17.4057 52.7668 17.846 53.7353 18.4623C52.8548 18.6384 51.9743 18.9026 51.1819 19.3428C50.3014 19.7831 49.5969 20.3994 48.7164 20.7516C47.7479 21.1038 46.7793 21.1919 45.8988 21.7202C43.7856 22.9529 43.8737 26.1227 42.2007 27.8837C42.0246 28.1478 41.7605 28.3239 41.5844 28.5881C41.3202 29.1164 41.5844 29.7327 42.0246 30.0849C42.4649 30.4371 43.0812 30.5252 43.6095 30.6132C45.3705 30.7893 47.1315 30.261 48.6284 29.2044C49.5089 28.5881 50.3014 27.7076 51.1819 27.0032C52.0624 26.2988 53.119 25.7705 54.2636 25.9466C55.7605 26.1227 57.4334 26.0346 58.49 27.0912C61.0435 29.5566 64.3013 31.0535 67.1189 33.1667C69.6724 35.1918 71.7856 37.8333 73.9868 40.2107C74.5151 40.8271 75.2195 41.4434 75.924 41.7076C76.2761 42.3239 76.3642 42.9403 76.2761 43.6447Z" fill="#FFD05B"/>
<path d="M76.2761 43.6446C76.1881 44.7012 75.5718 45.6698 74.6032 46.11C73.8107 46.4622 72.9302 46.5503 72.1378 46.1981C71.9617 46.11 71.7856 46.022 71.6095 45.9339C71.7856 46.11 71.8736 46.3742 71.8736 46.6383C71.9617 47.5188 71.3453 48.5754 70.4648 49.0157C69.4963 49.4559 68.3516 49.4559 67.295 49.3679C67.1189 49.3679 66.9428 49.3679 66.7667 49.2798C67.0309 49.4559 67.207 49.8081 67.207 50.1603C67.207 50.3364 67.1189 50.6006 67.0309 50.7767C66.7667 51.2169 66.2384 51.4811 65.7101 51.6572C64.5655 52.0094 63.3328 52.0094 62.1881 51.7452H62.1001C62.3642 51.9213 62.4523 52.2735 62.3642 52.5377C62.2762 52.8899 62.1001 53.3301 61.7479 53.5943C60.251 55.0031 58.0498 55.4433 56.0246 55.0031C53.9995 54.6509 52.1504 53.5943 50.3894 52.5377C48.6284 51.4811 46.8674 50.3364 44.8422 49.8081C42.9051 49.2798 40.7919 49.2798 38.7668 48.7515C35.685 47.9591 33.1316 45.8459 30.7542 43.8207C30.314 43.4685 29.8737 43.0283 29.6096 42.5C29.4335 41.9717 29.6096 41.3553 29.7857 40.739C31.0184 36.6006 32.4272 32.5503 34.1882 28.588C34.5404 27.7075 34.9806 26.827 35.597 26.0346C36.6536 24.6258 38.5026 23.7453 38.5907 22.0723C38.6787 21.456 38.8548 20.8396 39.207 20.3113C39.2951 20.1352 39.4712 20.0472 39.5592 19.8711C39.7353 19.783 39.9114 19.695 40.0875 19.695C42.0246 19.1667 43.9617 18.6384 45.8988 18.1101C47.3957 17.6698 48.8925 17.3176 50.4775 17.4057C51.6221 17.4937 52.7668 17.934 53.7353 18.5503C52.8548 18.7264 51.9743 18.9906 51.1819 19.4308C50.3894 19.8711 49.5969 20.4874 48.7164 20.8396C47.7479 21.1918 46.7793 21.2799 45.8988 21.8082C43.7856 23.0409 43.8737 26.2107 42.2007 27.9717C42.0246 28.2358 41.7605 28.4119 41.5844 28.6761C41.3202 29.2044 41.5844 29.8207 42.0246 30.1729C42.4649 30.5251 43.0812 30.6132 43.6095 30.7012C45.3705 30.8773 47.1315 30.349 48.6284 29.2924C49.5089 28.6761 50.3014 27.7956 51.1819 27.0912C52.0624 26.3868 53.119 25.8585 54.2636 26.0346C55.7605 26.2107 57.4334 26.1226 58.49 27.1792C61.0435 29.6446 64.3013 31.0534 67.1189 33.2547C69.6724 35.2799 71.7856 37.9214 73.9868 40.2987C74.5151 40.9151 75.2195 41.5314 75.924 41.7956C76.2761 42.3239 76.3642 42.9402 76.2761 43.6446Z" fill="#FFD05B"/>
<path d="M40.8804 52.1856C40.8804 51.5692 40.8804 51.0409 41.0565 50.5126C41.1445 50.2485 41.3206 50.0724 41.4967 49.8963C41.7609 49.5441 42.2011 49.1919 42.5533 48.9277C43.5219 48.3994 44.6665 48.3994 45.8112 48.3994C45.9873 48.3994 46.1634 48.3994 46.3395 48.4875C46.6917 48.6636 46.9558 49.1038 47.308 49.2799C47.3961 49.368 47.5722 49.456 47.6602 49.5441C47.9244 49.7202 48.0124 50.0724 48.0124 50.3365C48.1005 51.6573 47.4841 52.978 46.4275 53.7705C45.3709 54.5629 43.8741 54.739 42.6414 54.2107C42.2892 54.1227 42.025 53.9466 41.6728 53.7705C41.4967 53.6824 41.2326 53.5063 41.0565 53.3302C40.9684 53.0661 40.8804 52.6258 40.8804 52.1856Z" fill="#F6C358"/>
<path d="M54.8804 54.739C54.5282 54.9151 54.176 54.9151 53.8238 55.0912C53.6477 55.1792 53.4716 55.2673 53.3836 55.3553C52.9433 55.5314 52.5031 55.5314 52.0628 55.5314C51.4465 55.5314 50.8301 55.6195 50.3018 55.4434C49.6855 55.3553 49.1572 55.0912 48.7169 54.6509C48.4528 54.3868 48.2767 53.9465 48.1886 53.5943C48.1006 53.4182 48.1006 53.2421 48.1006 53.066C48.1006 52.6258 48.2767 52.2736 48.5408 51.9214C49.0691 51.305 49.7735 50.9528 50.4779 50.6006C51.0062 50.3365 51.4465 50.0723 51.9748 49.8082C52.415 49.544 52.9433 49.2799 53.4716 49.1038C54.2641 48.8396 55.1446 48.9277 55.849 49.2799C56.5534 49.6321 57.0817 50.4245 57.0817 51.217C57.0817 51.9214 56.7295 52.6258 56.3773 53.2421C55.849 53.8585 55.4968 54.4748 54.8804 54.739Z" fill="#F6C358"/>
<path d="M58.4903 56.412C58.4023 56.5881 58.2262 56.8522 58.1381 57.0283C57.7859 57.3805 57.4337 57.4686 56.9935 57.6447C56.2891 57.8208 55.5847 57.9969 54.8803 57.9969C54.1759 57.9088 53.4715 57.6447 53.0312 57.1164C52.8551 56.9403 52.7671 56.7642 52.7671 56.5C52.7671 56.0598 53.0312 55.7076 53.3834 55.4434C54.2639 54.739 55.4086 54.5629 56.201 53.8585C56.3771 53.6824 56.5532 53.5063 56.8174 53.3302C56.9935 53.2422 57.1696 53.2422 57.3457 53.2422C57.6979 53.1541 58.1381 53.1541 58.4903 53.3302C58.8425 53.5063 59.0186 53.7705 59.1947 54.0346C59.2828 54.739 58.9306 55.7076 58.4903 56.412Z" fill="#F9B54C"/>
<path d="M71.6097 45.934C71.7858 46.1101 71.8739 46.3742 71.8739 46.6384C71.6097 46.5503 71.4336 46.2862 71.1695 46.022C69.7607 44.4371 67.6475 43.7327 66.0626 42.412C65.5343 41.9717 65.006 41.4434 64.4777 41.0912C64.0374 40.739 63.5091 40.4748 62.9808 40.1226C62.2764 39.6824 61.572 39.066 60.8676 38.5377C60.2513 38.0094 59.5469 37.3931 59.5469 36.6006V36.5126C59.5469 36.4245 59.6349 36.4245 59.723 36.4245C60.3393 36.3365 60.8676 36.6006 61.3959 36.9528C61.8362 37.305 62.1884 37.8333 62.6286 38.2736C63.7733 39.5063 65.094 40.4748 66.5028 41.4434C67.7355 42.3239 68.9682 43.1163 70.2009 43.9969C70.7292 44.3491 71.1695 44.7013 71.6097 45.1415C71.8739 45.4937 72.138 45.8459 72.2261 46.1981C71.9619 46.1101 71.7858 46.022 71.6097 45.934Z" fill="#F6C358"/>
<path d="M24.9432 37.6573C25.2954 33.9591 27.0564 30.4371 28.8174 27.0912C29.874 24.978 31.0186 22.8648 32.0752 20.6636C32.3394 20.1353 32.6035 19.607 32.9557 19.2548C34.0123 18.0221 35.9494 17.6699 37.4463 18.4623C37.7104 18.6384 38.0626 18.8145 38.2387 19.1667C38.4148 19.4309 38.4148 19.7831 38.4148 20.0472C38.5029 21.1038 38.5909 22.1604 38.4148 23.129C38.2387 24.0095 37.8865 24.8019 37.4463 25.5944C35.0689 30.4371 32.6916 35.2799 30.3142 40.1227C30.1381 40.4749 29.962 40.8271 29.6979 41.1793C28.7293 42.3239 26.7922 42.412 25.7356 41.3554C24.8551 40.3868 24.7671 38.978 24.9432 37.6573Z" fill="#E6E9EE"/>
<path d="M34.3647 19.4309C32.0754 27.2674 29.1698 35.0158 25.4716 42.3239C25.2955 42.6761 25.0314 43.1164 24.5911 43.2925C24.327 43.3805 23.9748 43.2925 23.7106 43.2925C21.8616 43.1164 20.1886 44.4371 18.2515 44.7893C15.7861 45.1415 13.4088 43.7327 11.2956 42.412C7.15722 39.7705 5.49056 38.2013 1 36C0.8239 33.9749 0 31.0252 0 29C0 18.7862 0.729555 9.39317 5.48426 1.11646C7.24527 2.08501 8.91822 3.14161 10.6792 4.11016C12.088 4.90261 13.4968 5.78311 14.9056 6.57556C17.1069 7.89632 19.3962 9.21707 21.4213 10.9781C22.9182 12.2108 24.327 13.7076 26.2641 14.0598C27.0565 14.1479 27.849 14.0598 28.6414 14.1479C30.3144 14.324 31.8113 15.4686 33.132 16.5252C33.5723 16.8774 34.1006 17.3177 34.2767 17.934C34.6289 18.3743 34.4528 18.9026 34.3647 19.4309Z" fill="#324A5E"/>
<path d="M76.2765 16.7894C76.4526 16.5252 76.6287 16.2611 76.8929 16.173C77.069 16.085 77.2451 16.173 77.4212 16.173C78.5658 16.5252 79.1822 17.846 79.8866 18.8145C80.591 19.7831 81.6476 20.4875 82.5281 21.28C84.9055 23.4812 86.4904 26.563 87.8992 29.4686C88.6916 31.0535 89.4841 32.7265 90.3646 34.3114C91.3331 36.3365 92.3897 38.3617 92.6539 40.5629C91.2451 40.2988 89.6602 41.0032 88.4275 40.3868C87.8992 40.1227 87.547 39.6824 87.1948 39.2422C85.5218 37.129 84.113 34.7516 82.8803 32.3743C81.8237 30.2611 80.8552 27.9718 79.0061 26.4749C78.3017 25.8586 77.4212 25.4183 76.8929 24.802C76.5407 24.3617 76.2765 23.8334 75.9243 23.3932C74.9558 21.7202 73.635 20.2234 72.1382 18.9026C73.7231 18.9026 75.396 18.1101 76.2765 16.7894Z" fill="#E6E9EE"/>
<path d="M110 29.0283C110 30.4371 109.912 31.7579 109.824 33.0786C105.333 35.8962 101.107 39.2421 96.9685 42.6761C96.176 43.3805 95.2075 44.0849 94.1509 43.7327C93.7106 43.5566 93.3584 43.2925 93.0943 42.9403C91.5974 41.2673 90.9811 38.8899 90.0125 36.8648C89.132 35.0157 87.8993 33.3428 86.7547 31.6698L76.3647 17.3177C76.1006 16.9655 75.8364 16.5252 75.9245 16.085C76.0125 15.7328 76.3648 15.5567 76.6289 15.2925C78.0377 14.324 79.5346 13.2674 80.9434 12.2988C82.4402 11.2422 83.849 10.1856 85.4339 9.39316C86.9308 8.60071 88.4276 7.98435 90.0125 7.368C94.2389 5.51895 98.2892 3.1416 102.34 0.852295C107.182 9.12901 110 18.7265 110 29.0283Z" fill="#324A5E"/>
<path d="M67.2072 50.1603C66.943 49.9842 66.5908 49.8081 66.3266 49.632C65.4461 49.1037 64.5656 48.4874 63.6851 47.871C63.421 47.6949 63.0688 47.5188 62.8046 47.2547C61.4839 46.3742 60.1631 45.5817 58.8424 44.7012C58.226 44.261 57.6097 43.9088 57.1694 43.2924C58.226 43.1163 59.2826 43.4685 60.1631 44.0848C61.0436 44.6131 61.8361 45.3176 62.6285 46.022C63.421 46.6383 64.2134 47.1666 65.0059 47.6069C65.6222 47.9591 66.2386 48.2232 66.7669 48.6635C67.0311 48.8396 67.2072 49.1037 67.4713 49.3679C67.2952 49.3679 67.1191 49.3679 66.943 49.2798C67.1191 49.4559 67.2072 49.8081 67.2072 50.1603Z" fill="#F6C358"/>
<path d="M62.2763 52.5377C61.3958 52.1855 60.5153 51.8333 59.6348 51.4811C59.1946 51.305 58.7543 51.1289 58.3141 50.8647C57.9619 50.6006 57.6097 50.3364 57.2575 49.9842C55.6726 48.6634 53.8235 47.3427 51.7983 47.4307C51.5342 47.4307 51.27 47.4307 51.0939 47.2546C50.9178 47.0785 51.0939 46.7263 51.27 46.5502C51.4461 46.3741 51.7983 46.3741 52.0625 46.3741C52.8549 46.3741 53.6474 46.5502 54.4398 46.9024C55.4964 47.3427 56.465 48.1351 57.5216 48.6634C57.9619 48.8395 58.4902 49.0156 58.9304 49.2798C60.1631 49.8081 61.2197 50.6005 62.1883 51.5691H62.1002C62.2763 51.9213 62.3644 52.1855 62.2763 52.5377Z" fill="#F6C358"/>
<path d="M45.5469 26.651C45.4588 27.0032 45.2827 27.2674 45.1066 27.5315C44.5783 28.2359 43.962 28.7642 43.2576 29.1164C42.9934 29.2045 42.8173 29.2925 42.5532 29.2925C42.201 29.2925 41.9368 29.0284 41.8488 28.7642C41.8488 28.6762 41.7607 28.5881 41.7607 28.5001C41.8488 28.2359 42.1129 28.0598 42.289 27.8837C43.0815 27.0913 43.4337 25.9466 43.8739 24.89C43.8739 24.802 43.8739 24.802 43.962 24.7139C44.05 24.6259 44.2261 24.6259 44.3142 24.6259C44.4903 24.6259 44.5783 24.802 44.6664 24.89C45.1947 25.4183 45.6349 26.0347 45.5469 26.651Z" fill="#FFEBEB"/>
<path d="M53.2075 50.7768C53.1194 50.4246 53.2955 49.9844 53.6477 49.7202C54.088 49.368 54.6163 49.1039 55.1446 49.1039C55.6729 49.1039 56.2893 49.4561 56.4654 49.9844C56.6415 50.5127 56.4654 51.2171 56.2012 51.7454C56.1132 51.9215 56.0251 52.0095 55.9371 52.0976C55.849 52.1856 55.6729 52.1856 55.4968 52.1856C55.1446 52.1856 54.7924 52.2737 54.4402 52.1856C54.088 52.0976 53.7358 51.8334 53.6477 51.4812" fill="#FFEBEB"/>
<path d="M59.0188 53.9466C58.8427 53.5064 58.4905 53.2422 58.1383 53.1542C57.4339 52.9781 56.6415 53.5944 56.4654 54.3869C56.3773 54.7391 56.4654 55.1793 56.8176 55.3554C56.9056 55.3554 56.9936 55.4435 57.0817 55.4435L58.8427 55.2674C59.1069 54.8271 59.1069 54.3869 59.0188 53.9466Z" fill="#FFEBEB"/>
</svg>
