<svg width="126" height="120" viewBox="0 0 126 120" fill="none" xmlns="http://www.w3.org/2000/svg">
<g clip-path="url(#clip0_9_3085)">
<path d="M30.5892 10.9839C28.4715 12.5748 25.6177 15.0317 23.6085 17.0331C21.4316 19.2201 20.3975 20.5188 21.6955 19.4244C24.2629 17.281 30.5024 12.8292 33.2486 11.1658C36.9989 8.89416 39.9232 7.57106 44.2116 6.23402C51.939 3.82237 57.9938 3.32029 67.3466 4.37815C71.1329 4.80193 81.2515 7.21671 84.9103 8.58613C93.1126 11.6294 100.316 16.5384 106.339 23.1987C108.333 25.3805 111.485 29.3819 112.391 30.8779C112.958 31.7672 113.016 31.8163 113.03 31.3313C113.018 30.3863 109.25 24.4891 106.702 21.4384C98.2477 11.3202 87.2392 4.43022 75.2249 1.707C63.4863 -0.931093 52.2858 0.278828 40.2925 5.4985C38.3811 6.32014 32.0188 9.92181 30.5892 10.9839Z" fill="url(#paint0_linear_9_3085)"/>
<path d="M33.469 16.6629C30.778 18.7411 26.7547 22.5508 24.4075 25.2891C22.22 27.8747 18.3504 33.0479 18.6136 33.1126C18.6794 33.1287 19.9197 31.9853 21.3314 30.5699C32.1059 19.8697 35.7687 17.3148 44.935 14.0876C57.1006 9.80002 70.9667 9.24458 81.6358 12.6145C89.4043 15.0802 96.123 19.0502 101.825 24.5325C105.988 28.5379 107.229 29.6627 107.373 29.5758C107.455 29.5261 106.963 28.7598 106.297 27.8463C97.6015 15.9416 80.5227 6.8458 65.7187 6.17654C59.6114 5.89811 52.245 7.19466 45.8656 9.65817C42.7601 10.867 36.2009 14.5599 33.469 16.6629Z" fill="url(#paint1_linear_9_3085)"/>
<path d="M87.8335 12.7529C87.8799 12.8434 89.1764 13.6636 90.7392 14.5948C92.2793 15.5187 94.5294 16.9733 95.7053 17.8554C98.2705 19.7386 102.657 24.0962 105.059 27.1101C118.992 44.7365 121.437 69.0344 111.151 87.9234C109.017 91.8929 105.534 96.6112 102.474 99.7036C100.982 101.212 101.347 101.405 102.878 99.9344C109.872 93.3011 112.394 90.1611 115.664 83.9144C117.277 80.8594 120.06 72.2157 120.474 68.976C121.796 58.8545 120.515 49.934 116.257 39.627C114.711 35.9072 111.346 30.6451 108.065 26.8446C104.622 22.8411 98.9531 18.3223 93.9615 15.5318C91.3098 14.0737 87.6634 12.4213 87.8335 12.7529Z" fill="url(#paint2_linear_9_3085)"/>
<path d="M24.6257 14.8183C17.7491 19.6582 12.1904 26.5347 7.27861 36.2146C4.21172 42.2765 1.93552 48.6259 0.809397 54.3763C-0.795925 62.4987 -0.00524382 71.4838 3.10956 80.4448C6.58377 90.532 15.2333 102.871 22.613 108.238C24.6736 109.748 24.434 109.269 21.7025 106.417C8.64433 92.8082 3.18144 80.2292 3.18144 63.6967C3.15748 58.8089 3.27728 57.4432 3.97212 53.1064C6.20041 39.0658 12.4779 27.1577 23.0443 16.8549C24.7694 15.1777 26.1591 13.812 26.1112 13.812C26.0872 13.812 25.4164 14.2672 24.6257 14.8183Z" fill="url(#paint3_linear_9_3085)"/>
<path d="M27.4052 15.8725C26.8062 16.3517 25.3686 17.5976 24.1946 18.6758C16.0242 26.1513 10.9686 35.6395 9.02786 47.2362C8.42886 50.926 8.42886 59.5756 9.02786 63.1696C10.4894 71.6035 13.173 78.4561 17.7733 85.5003C19.6182 88.3276 20.4568 89.31 23.7154 92.5686C27.6209 96.4501 29.9689 98.3908 32.0774 99.469C32.7483 99.8045 33.0119 99.9003 32.6764 99.6607C21.7746 91.7779 13.3646 76.3237 11.8072 61.2767C11.4239 57.4671 11.6635 49.728 12.2864 46.0382C13.2448 40.4076 14.6106 36.0948 17.1024 30.9433C19.2828 26.4149 21.2714 23.5876 26.4229 17.6455C29.0824 14.5786 29.1064 14.5547 27.4052 15.8725Z" fill="url(#paint4_linear_9_3085)"/>
<path d="M111.959 25.5715C112.187 26.0518 113.453 28.4397 114.755 30.8659C119.551 39.823 120.91 44.3944 121.619 54.1783C122.558 66.6552 120.366 78.1449 115.229 87.6573C109.842 97.6515 102.567 104.879 89.6495 113.026C87.0523 114.66 87.4 114.725 90.7155 113.214C98.1016 109.8 106.544 103.156 111.642 96.75C121.569 84.2753 126.361 66.196 123.789 50.9704C123.254 47.7962 120.98 40.6747 119.352 37.0698C117.369 32.6724 113.813 26.8909 112.069 25.2092C111.53 24.7022 111.53 24.7022 111.959 25.5715Z" fill="url(#paint5_linear_9_3085)"/>
<path d="M7.71865 78.9237C8.60624 82.6829 11.7883 89.2212 14.7485 93.3215C19.9421 100.539 27.681 107.89 33.0709 110.762C42.5083 115.757 48.2359 117.947 54.7927 119.079C68.7266 121.509 82.0762 117.677 98.8349 106.52C103.177 103.624 102.584 103.811 97.6004 106.896C92.4054 110.107 89.2185 111.647 84.7354 113.133C79.0664 115.017 74.2713 115.746 66.985 115.788C59.508 115.859 54.5711 115.155 47.4065 113.011C37.0719 109.938 28.5275 105.13 21.2596 98.2669C16.4634 93.722 13.3009 89.2926 9.6145 81.9793C8.6153 79.9737 7.72187 78.2763 7.64773 78.2068C7.57358 78.1373 7.60828 78.4718 7.71865 78.9237Z" fill="url(#paint6_linear_9_3085)"/>
<path d="M15.4968 84.5659C17.9647 90.4122 27.2612 101.05 33.8741 105.555C46.1656 113.917 62.9377 115.978 78.0325 110.994C84.7892 108.766 91.0013 106.967 97.183 101.408C99.4113 99.3958 102.314 96.1509 103.944 93.8029C105.165 92.0298 105.806 91.4939 103.098 94.2254C95.4073 101.964 81.9619 107.304 69.2152 109.221C66.0045 109.7 57.4508 109.628 54.0245 109.101C42.0445 107.232 32.3886 102.464 23.8349 94.1978C22.4692 92.88 20.9597 91.2028 20.4565 90.484C19.9534 89.7413 19.3783 88.9985 19.1387 88.8068C18.9231 88.6391 18.1084 87.537 17.3178 86.3869C16.5271 85.2368 15.7124 84.1586 15.4968 83.9909C15.1853 83.7033 15.1853 83.7752 15.4968 84.5659Z" fill="url(#paint7_linear_9_3085)"/>
</g>
<path d="M70.9376 48.8643H49.1592C48.5943 48.8643 48.1367 49.3219 48.1367 49.8868C48.1367 50.4517 48.5943 50.9092 49.1592 50.9092H70.9376C71.502 50.9092 71.9601 50.4517 71.9601 49.8868C71.9601 49.3219 71.502 48.8643 70.9376 48.8643Z" fill="#D4D5D6" stroke="#D4D5D6" stroke-width="2"/>
<path d="M71.9601 59.7024C71.9601 59.1375 71.502 58.6799 70.9376 58.6799H49.1592C48.5943 58.6799 48.1367 59.1375 48.1367 59.7024C48.1367 60.2673 48.5943 60.7249 49.1592 60.7249H70.9376C71.502 60.7249 71.9601 60.2673 71.9601 59.7024Z" fill="#D4D5D6" stroke="#D4D5D6" stroke-width="2"/>
<path fill-rule="evenodd" clip-rule="evenodd" d="M60.655 84.1649C60.9622 84.8725 61.3129 85.555 61.7081 86.2099H40.9414C40.3765 86.2099 39.9189 85.7523 39.9189 85.1874V35.189C39.9189 34.6241 40.3765 34.1666 40.9414 34.1666H51.869V32.8261C51.869 31.2679 53.1368 30 54.695 30H65.4023C66.9605 30 68.2283 31.2679 68.2283 32.8261V34.1666H79.1559C79.7208 34.1666 80.1784 34.6241 80.1784 35.189V60.4004C79.5051 60.2547 78.8231 60.1494 78.1334 60.0849V36.2115H68.2283V37.1941C68.2283 38.7523 66.9605 40.0202 65.4023 40.0202H54.695C53.1368 40.0202 51.869 38.7523 51.869 37.1941V36.2115H41.9639V84.1649H60.655ZM53.9139 37.1941C53.9139 37.6245 54.2646 37.9752 54.695 37.9752H65.4023C65.8327 37.9752 66.1834 37.6245 66.1834 37.1941V32.8261C66.1834 32.3957 65.8327 32.045 65.4023 32.045H54.695C54.2646 32.045 53.9139 32.3957 53.9139 32.8261V37.1941Z" fill="#F6C358" stroke="#F6C358" stroke-width="2"/>
<path d="M48.1367 69.518C48.1367 70.0829 48.5943 70.5405 49.1592 70.5405H60.599C60.8991 69.8329 61.2447 69.1509 61.6322 68.4955H49.1592C48.5943 68.4955 48.1367 68.9531 48.1367 69.518Z" fill="#D4D5D6" stroke="#D4D5D6" stroke-width="2"/>
<path d="M90.9507 64.053C90.6843 63.7866 90.2508 63.7866 89.9845 64.053L76.3198 77.7172C76.1736 77.6849 74.6879 76.8711 72.2274 75.4749C71.4145 75.0132 70.3854 75.1528 69.7244 75.8138C68.9115 76.6267 68.9115 77.9493 69.7244 78.7626L75.6818 84.7195C75.9512 84.9889 76.309 85.1372 76.6899 85.1372C77.1659 85.1372 77.6081 84.9015 77.8739 84.5063L91.0345 64.917C91.216 64.6465 91.1807 64.283 90.9507 64.053Z" fill="#96BB20" stroke="#96BB20" stroke-width="0.511789"/>
<path d="M87.2789 76.8788C87.2835 77.0107 87.2866 77.1431 87.2866 77.2761C87.2866 82.0136 84.2085 86.0457 79.9474 87.4777C78.8728 87.8391 77.7225 88.0349 76.5277 88.0349C75.5232 88.0349 74.5498 87.8958 73.6265 87.6372C69.779 86.5585 66.7959 83.3893 65.9867 79.437C65.844 78.7387 65.7689 78.0158 65.7689 77.2761C65.7689 76.5516 65.841 75.8446 65.978 75.1601C66.9641 70.2374 71.3193 66.5167 76.5277 66.5167C78.2613 66.5167 79.9003 66.9298 81.3522 67.6608L82.8067 66.2064C82.3793 65.9635 81.9376 65.7452 81.4811 65.552C79.9116 64.8884 78.245 64.5515 76.5277 64.5515C74.8105 64.5515 73.1439 64.8884 71.5744 65.552C70.0591 66.1931 68.6987 67.1102 67.5306 68.2784C66.3624 69.4471 65.4448 70.8074 64.8042 72.3227C64.1401 73.8922 63.8037 75.5588 63.8037 77.2761C63.8037 78.9933 64.1401 80.6599 64.8042 82.2289C65.4448 83.7441 66.3624 85.105 67.5306 86.2732C68.6987 87.4414 70.0591 88.359 71.5744 88.9996C73.1439 89.6637 74.8105 90.0001 76.5277 90.0001C78.245 90.0001 79.9116 89.6637 81.4811 88.9996C82.9963 88.359 84.3567 87.4414 85.5249 86.2732C86.6936 85.105 87.6107 83.7441 88.2518 82.2289C88.9154 80.6599 89.2518 78.9933 89.2518 77.2761C89.2518 76.3052 89.1444 75.3502 88.9307 74.4203L87.2789 76.8788Z" fill="#96BB20" stroke="#96BB20" stroke-width="0.511789"/>
<defs>
<linearGradient id="paint0_linear_9_3085" x1="35.3723" y1="43.3294" x2="97.7407" y2="5.55124" gradientUnits="userSpaceOnUse">
<stop stop-color="#FEE927"/>
<stop offset="0.3" stop-color="#FEE927"/>
<stop offset="0.571564" stop-color="#FEE927"/>
<stop offset="1" stop-color="#F89C0E"/>
</linearGradient>
<linearGradient id="paint1_linear_9_3085" x1="28.04" y1="48.682" x2="94.5978" y2="8.36631" gradientUnits="userSpaceOnUse">
<stop stop-color="#FEE927"/>
<stop offset="0.3" stop-color="#FEE927"/>
<stop offset="0.571564" stop-color="#FEE927"/>
<stop offset="1" stop-color="#F89C0E"/>
</linearGradient>
<linearGradient id="paint2_linear_9_3085" x1="111.678" y1="18.2121" x2="87.2125" y2="94.1846" gradientUnits="userSpaceOnUse">
<stop stop-color="#1082CE"/>
<stop offset="0.3" stop-color="#1082CE"/>
<stop offset="0.573113" stop-color="#1082CE"/>
<stop offset="1" stop-color="#2744A0"/>
</linearGradient>
<linearGradient id="paint3_linear_9_3085" x1="13.0564" y1="112.659" x2="13.0564" y2="17.3921" gradientUnits="userSpaceOnUse">
<stop stop-color="#80C428"/>
<stop offset="0.3" stop-color="#80C428"/>
<stop offset="0.573113" stop-color="#80C428"/>
<stop offset="1" stop-color="#43803C"/>
</linearGradient>
<linearGradient id="paint4_linear_9_3085" x1="20.7004" y1="102.98" x2="20.7004" y2="18.2287" gradientUnits="userSpaceOnUse">
<stop stop-color="#80C428"/>
<stop offset="0.3" stop-color="#80C428"/>
<stop offset="0.573113" stop-color="#80C428"/>
<stop offset="1" stop-color="#43803C"/>
</linearGradient>
<linearGradient id="paint5_linear_9_3085" x1="89.2219" y1="29.9392" x2="112.951" y2="104.272" gradientUnits="userSpaceOnUse">
<stop stop-color="#1082CE"/>
<stop offset="0.3" stop-color="#1082CE"/>
<stop offset="0.573113" stop-color="#1082CE"/>
<stop offset="1" stop-color="#2744A0"/>
</linearGradient>
<linearGradient id="paint6_linear_9_3085" x1="8.29965" y1="99.8606" x2="101.505" y2="96.8736" gradientUnits="userSpaceOnUse">
<stop stop-color="#1C63B7"/>
<stop offset="0.428436" stop-color="#68BCEB"/>
<stop offset="0.7" stop-color="#68BCEB"/>
<stop offset="1" stop-color="#68BCEB"/>
</linearGradient>
<linearGradient id="paint7_linear_9_3085" x1="15.263" y1="98.7538" x2="102.809" y2="98.7538" gradientUnits="userSpaceOnUse">
<stop stop-color="#1C63B7"/>
<stop offset="0.428436" stop-color="#68BCEB"/>
<stop offset="0.7" stop-color="#68BCEB"/>
<stop offset="1" stop-color="#68BCEB"/>
</linearGradient>
<clipPath id="clip0_9_3085">
<rect width="125.07" height="120" fill="white"/>
</clipPath>
</defs>
</svg>
