<svg width="126" height="120" viewBox="0 0 126 120" fill="none" xmlns="http://www.w3.org/2000/svg">
<g clip-path="url(#clip0_9:3085)">
<path d="M30.5892 10.9839C28.4715 12.5748 25.6177 15.0317 23.6085 17.0331C21.4316 19.2201 20.3975 20.5188 21.6955 19.4244C24.2629 17.281 30.5024 12.8292 33.2486 11.1658C36.9989 8.89416 39.9232 7.57106 44.2116 6.23402C51.939 3.82237 57.9938 3.32029 67.3466 4.37815C71.1329 4.80193 81.2515 7.21671 84.9103 8.58613C93.1126 11.6294 100.316 16.5384 106.339 23.1987C108.333 25.3805 111.485 29.3819 112.391 30.8779C112.958 31.7672 113.016 31.8163 113.03 31.3313C113.018 30.3863 109.25 24.4891 106.702 21.4384C98.2477 11.3202 87.2392 4.43022 75.2249 1.707C63.4863 -0.931093 52.2858 0.278828 40.2925 5.4985C38.3811 6.32014 32.0188 9.92181 30.5892 10.9839Z" fill="black"/>
<path d="M30.5892 10.9839C28.4715 12.5748 25.6177 15.0317 23.6085 17.0331C21.4316 19.2201 20.3975 20.5188 21.6955 19.4244C24.2629 17.281 30.5024 12.8292 33.2486 11.1658C36.9989 8.89416 39.9232 7.57106 44.2116 6.23402C51.939 3.82237 57.9938 3.32029 67.3466 4.37815C71.1329 4.80193 81.2515 7.21671 84.9103 8.58613C93.1126 11.6294 100.316 16.5384 106.339 23.1987C108.333 25.3805 111.485 29.3819 112.391 30.8779C112.958 31.7672 113.016 31.8163 113.03 31.3313C113.018 30.3863 109.25 24.4891 106.702 21.4384C98.2477 11.3202 87.2392 4.43022 75.2249 1.707C63.4863 -0.931093 52.2858 0.278828 40.2925 5.4985C38.3811 6.32014 32.0188 9.92181 30.5892 10.9839Z" fill="url(#paint0_linear_9:3085)"/>
<path d="M33.469 16.6629C30.778 18.7411 26.7547 22.5508 24.4075 25.2891C22.22 27.8747 18.3504 33.0479 18.6136 33.1126C18.6794 33.1287 19.9197 31.9853 21.3314 30.5699C32.1059 19.8697 35.7687 17.3148 44.935 14.0876C57.1006 9.80002 70.9667 9.24458 81.6358 12.6145C89.4043 15.0802 96.123 19.0502 101.825 24.5325C105.988 28.5379 107.229 29.6627 107.373 29.5758C107.455 29.5261 106.963 28.7598 106.297 27.8463C97.6015 15.9416 80.5227 6.8458 65.7187 6.17654C59.6114 5.89811 52.245 7.19466 45.8656 9.65817C42.7601 10.867 36.2009 14.5599 33.469 16.6629Z" fill="black"/>
<path d="M33.469 16.6629C30.778 18.7411 26.7547 22.5508 24.4075 25.2891C22.22 27.8747 18.3504 33.0479 18.6136 33.1126C18.6794 33.1287 19.9197 31.9853 21.3314 30.5699C32.1059 19.8697 35.7687 17.3148 44.935 14.0876C57.1006 9.80002 70.9667 9.24458 81.6358 12.6145C89.4043 15.0802 96.123 19.0502 101.825 24.5325C105.988 28.5379 107.229 29.6627 107.373 29.5758C107.455 29.5261 106.963 28.7598 106.297 27.8463C97.6015 15.9416 80.5227 6.8458 65.7187 6.17654C59.6114 5.89811 52.245 7.19466 45.8656 9.65817C42.7601 10.867 36.2009 14.5599 33.469 16.6629Z" fill="url(#paint1_linear_9:3085)"/>
<path d="M87.8335 12.7529C87.8799 12.8434 89.1764 13.6636 90.7392 14.5948C92.2793 15.5187 94.5294 16.9733 95.7053 17.8554C98.2705 19.7386 102.657 24.0962 105.059 27.1101C118.992 44.7365 121.437 69.0344 111.151 87.9234C109.017 91.8929 105.534 96.6112 102.474 99.7036C100.982 101.212 101.347 101.405 102.878 99.9344C109.872 93.3011 112.394 90.1611 115.664 83.9144C117.277 80.8594 120.06 72.2157 120.474 68.976C121.796 58.8545 120.515 49.934 116.257 39.627C114.711 35.9072 111.346 30.6451 108.065 26.8446C104.622 22.8411 98.9531 18.3223 93.9615 15.5318C91.3098 14.0737 87.6634 12.4213 87.8335 12.7529Z" fill="black"/>
<path d="M87.8335 12.7529C87.8799 12.8434 89.1764 13.6636 90.7392 14.5948C92.2793 15.5187 94.5294 16.9733 95.7053 17.8554C98.2705 19.7386 102.657 24.0962 105.059 27.1101C118.992 44.7365 121.437 69.0344 111.151 87.9234C109.017 91.8929 105.534 96.6112 102.474 99.7036C100.982 101.212 101.347 101.405 102.878 99.9344C109.872 93.3011 112.394 90.1611 115.664 83.9144C117.277 80.8594 120.06 72.2157 120.474 68.976C121.796 58.8545 120.515 49.934 116.257 39.627C114.711 35.9072 111.346 30.6451 108.065 26.8446C104.622 22.8411 98.9531 18.3223 93.9615 15.5318C91.3098 14.0737 87.6634 12.4213 87.8335 12.7529Z" fill="url(#paint2_linear_9:3085)"/>
<path d="M24.6257 14.8183C17.7491 19.6582 12.1904 26.5347 7.27861 36.2146C4.21172 42.2765 1.93552 48.6259 0.809397 54.3763C-0.795925 62.4987 -0.00524382 71.4838 3.10956 80.4448C6.58377 90.532 15.2333 102.871 22.613 108.238C24.6736 109.748 24.434 109.269 21.7025 106.417C8.64433 92.8082 3.18144 80.2292 3.18144 63.6967C3.15748 58.8089 3.27728 57.4432 3.97212 53.1064C6.20041 39.0658 12.4779 27.1577 23.0443 16.8549C24.7694 15.1777 26.1591 13.812 26.1112 13.812C26.0872 13.812 25.4164 14.2672 24.6257 14.8183Z" fill="#6AAB30"/>
<path d="M24.6257 14.8183C17.7491 19.6582 12.1904 26.5347 7.27861 36.2146C4.21172 42.2765 1.93552 48.6259 0.809397 54.3763C-0.795925 62.4987 -0.00524382 71.4838 3.10956 80.4448C6.58377 90.532 15.2333 102.871 22.613 108.238C24.6736 109.748 24.434 109.269 21.7025 106.417C8.64433 92.8082 3.18144 80.2292 3.18144 63.6967C3.15748 58.8089 3.27728 57.4432 3.97212 53.1064C6.20041 39.0658 12.4779 27.1577 23.0443 16.8549C24.7694 15.1777 26.1591 13.812 26.1112 13.812C26.0872 13.812 25.4164 14.2672 24.6257 14.8183Z" fill="url(#paint3_linear_9:3085)"/>
<path d="M27.4052 15.8725C26.8062 16.3517 25.3686 17.5976 24.1946 18.6758C16.0242 26.1513 10.9686 35.6395 9.02786 47.2362C8.42886 50.926 8.42886 59.5756 9.02786 63.1696C10.4894 71.6035 13.173 78.4561 17.7733 85.5003C19.6182 88.3276 20.4568 89.31 23.7154 92.5686C27.6209 96.4501 29.9689 98.3908 32.0774 99.469C32.7483 99.8045 33.0119 99.9003 32.6764 99.6607C21.7746 91.7779 13.3646 76.3237 11.8072 61.2767C11.4239 57.4671 11.6635 49.728 12.2864 46.0382C13.2448 40.4076 14.6106 36.0948 17.1024 30.9433C19.2828 26.4149 21.2714 23.5876 26.4229 17.6455C29.0824 14.5786 29.1064 14.5547 27.4052 15.8725Z" fill="#6AAB30"/>
<path d="M27.4052 15.8725C26.8062 16.3517 25.3686 17.5976 24.1946 18.6758C16.0242 26.1513 10.9686 35.6395 9.02786 47.2362C8.42886 50.926 8.42886 59.5756 9.02786 63.1696C10.4894 71.6035 13.173 78.4561 17.7733 85.5003C19.6182 88.3276 20.4568 89.31 23.7154 92.5686C27.6209 96.4501 29.9689 98.3908 32.0774 99.469C32.7483 99.8045 33.0119 99.9003 32.6764 99.6607C21.7746 91.7779 13.3646 76.3237 11.8072 61.2767C11.4239 57.4671 11.6635 49.728 12.2864 46.0382C13.2448 40.4076 14.6106 36.0948 17.1024 30.9433C19.2828 26.4149 21.2714 23.5876 26.4229 17.6455C29.0824 14.5786 29.1064 14.5547 27.4052 15.8725Z" fill="url(#paint4_linear_9:3085)"/>
<path d="M111.959 25.5715C112.187 26.0518 113.453 28.4397 114.755 30.8659C119.551 39.823 120.91 44.3944 121.619 54.1783C122.558 66.6552 120.366 78.1449 115.229 87.6573C109.842 97.6515 102.567 104.879 89.6495 113.026C87.0523 114.66 87.4 114.725 90.7155 113.214C98.1016 109.8 106.544 103.156 111.642 96.75C121.569 84.2753 126.361 66.196 123.789 50.9704C123.254 47.7962 120.98 40.6747 119.352 37.0698C117.369 32.6724 113.813 26.8909 112.069 25.2092C111.53 24.7022 111.53 24.7022 111.959 25.5715Z" fill="black"/>
<path d="M111.959 25.5715C112.187 26.0518 113.453 28.4397 114.755 30.8659C119.551 39.823 120.91 44.3944 121.619 54.1783C122.558 66.6552 120.366 78.1449 115.229 87.6573C109.842 97.6515 102.567 104.879 89.6495 113.026C87.0523 114.66 87.4 114.725 90.7155 113.214C98.1016 109.8 106.544 103.156 111.642 96.75C121.569 84.2753 126.361 66.196 123.789 50.9704C123.254 47.7962 120.98 40.6747 119.352 37.0698C117.369 32.6724 113.813 26.8909 112.069 25.2092C111.53 24.7022 111.53 24.7022 111.959 25.5715Z" fill="url(#paint5_linear_9:3085)"/>
<path d="M7.71865 78.9237C8.60624 82.6829 11.7883 89.2212 14.7485 93.3215C19.9421 100.539 27.681 107.89 33.0709 110.762C42.5083 115.757 48.2359 117.947 54.7927 119.079C68.7266 121.509 82.0762 117.677 98.8349 106.52C103.177 103.624 102.584 103.811 97.6004 106.896C92.4054 110.107 89.2185 111.647 84.7354 113.133C79.0664 115.017 74.2713 115.746 66.985 115.788C59.508 115.859 54.5711 115.155 47.4065 113.011C37.0719 109.938 28.5275 105.13 21.2596 98.2669C16.4634 93.722 13.3009 89.2926 9.6145 81.9793C8.6153 79.9737 7.72187 78.2763 7.64773 78.2068C7.57358 78.1373 7.60828 78.4718 7.71865 78.9237Z" fill="black"/>
<path d="M7.71865 78.9237C8.60624 82.6829 11.7883 89.2212 14.7485 93.3215C19.9421 100.539 27.681 107.89 33.0709 110.762C42.5083 115.757 48.2359 117.947 54.7927 119.079C68.7266 121.509 82.0762 117.677 98.8349 106.52C103.177 103.624 102.584 103.811 97.6004 106.896C92.4054 110.107 89.2185 111.647 84.7354 113.133C79.0664 115.017 74.2713 115.746 66.985 115.788C59.508 115.859 54.5711 115.155 47.4065 113.011C37.0719 109.938 28.5275 105.13 21.2596 98.2669C16.4634 93.722 13.3009 89.2926 9.6145 81.9793C8.6153 79.9737 7.72187 78.2763 7.64773 78.2068C7.57358 78.1373 7.60828 78.4718 7.71865 78.9237Z" fill="url(#paint6_linear_9:3085)"/>
<path d="M15.4968 84.5659C17.9647 90.4122 27.2612 101.05 33.8741 105.555C46.1656 113.917 62.9377 115.978 78.0325 110.994C84.7892 108.766 91.0013 106.967 97.183 101.408C99.4113 99.3958 102.314 96.1509 103.944 93.8029C105.165 92.0298 105.806 91.4939 103.098 94.2254C95.4073 101.964 81.9619 107.304 69.2152 109.221C66.0045 109.7 57.4508 109.628 54.0245 109.101C42.0445 107.232 32.3886 102.464 23.8349 94.1978C22.4692 92.88 20.9597 91.2028 20.4565 90.484C19.9534 89.7413 19.3783 88.9985 19.1387 88.8068C18.9231 88.6391 18.1084 87.537 17.3178 86.3869C16.5271 85.2368 15.7124 84.1586 15.4968 83.9909C15.1853 83.7033 15.1853 83.7752 15.4968 84.5659Z" fill="black"/>
<path d="M15.4968 84.5659C17.9647 90.4122 27.2612 101.05 33.8741 105.555C46.1656 113.917 62.9377 115.978 78.0325 110.994C84.7892 108.766 91.0013 106.967 97.183 101.408C99.4113 99.3958 102.314 96.1509 103.944 93.8029C105.165 92.0298 105.806 91.4939 103.098 94.2254C95.4073 101.964 81.9619 107.304 69.2152 109.221C66.0045 109.7 57.4508 109.628 54.0245 109.101C42.0445 107.232 32.3886 102.464 23.8349 94.1978C22.4692 92.88 20.9597 91.2028 20.4565 90.484C19.9534 89.7413 19.3783 88.9985 19.1387 88.8068C18.9231 88.6391 18.1084 87.537 17.3178 86.3869C16.5271 85.2368 15.7124 84.1586 15.4968 83.9909C15.1853 83.7033 15.1853 83.7752 15.4968 84.5659Z" fill="url(#paint7_linear_9:3085)"/>
</g>
<path d="M76.3616 85.7837V35.1529C76.3616 33.9288 75.37 32.9366 74.1467 32.9366H43.2152C41.992 32.9366 41.0005 33.9289 41.0005 35.1529V85.7837C41.0005 87.0078 41.9921 88 43.2152 88H74.1468C75.37 88 76.3616 87.0077 76.3616 85.7837Z" fill="#F6C358"/>
<path d="M81.4081 32.9364H73.9956C75.2189 32.9364 76.2105 33.9288 76.2105 35.1528V85.7836C76.2105 87.0077 75.2189 87.9999 73.9956 87.9999H81.4081C82.6313 87.9999 83.6229 87.0076 83.6229 85.7836V35.1529C83.6229 33.9288 82.6313 32.9364 81.4081 32.9364Z" fill="#E3B554"/>
<path d="M44.6206 83.5851V37.3514C44.6206 36.9138 44.9751 36.5592 45.4122 36.5592H79.2117C79.649 36.5592 80.0034 36.9139 80.0034 37.3514V83.5851C80.0034 84.0227 79.6489 84.3773 79.2117 84.3773H45.4122C44.975 84.3773 44.6206 84.0227 44.6206 83.5851Z" fill="#E9EFFF"/>
<path d="M79.2123 36.5592H71.7998C72.2371 36.5592 72.5914 36.9139 72.5914 37.3514V83.5851C72.5914 84.0227 72.2369 84.3773 71.7998 84.3773H79.2123C79.6495 84.3773 80.0039 84.0226 80.0039 83.5851V37.3514C80.0039 36.9139 79.6495 36.5592 79.2123 36.5592Z" fill="#D7DCEB"/>
<path d="M67.0167 30.7584V29.5916C67.0167 28.7126 66.3047 28 65.4263 28H59.1968C58.3185 28 57.6065 28.7126 57.6065 29.5916V30.7584C57.6065 31.1178 57.3152 31.4092 56.9561 31.4092H54.3634C53.501 31.4092 52.8018 32.109 52.8018 32.9721V36.5592H71.8214V32.9721C71.8214 32.109 71.1222 31.4092 70.2598 31.4092H67.6671C67.308 31.4092 67.0167 31.1178 67.0167 30.7584Z" fill="#C6CBDA"/>
<path d="M49.2261 49.421V42.4438C49.2261 41.6709 49.8523 41.0442 50.6247 41.0442H57.5968C58.3692 41.0442 58.9955 41.6709 58.9955 42.4438V49.421C58.9955 50.1939 58.3692 50.8206 57.5968 50.8206H50.6247C49.8522 50.8206 49.2261 50.1939 49.2261 49.421Z" fill="#95BB20"/>
<path d="M49.2256 63.9569V56.9798C49.2256 56.2068 49.8519 55.5801 50.6243 55.5801H57.5963C58.3687 55.5801 58.995 56.2068 58.995 56.9798V63.9569C58.995 64.7299 58.3687 65.3566 57.5963 65.3566H50.6243C49.8517 65.3566 49.2256 64.7299 49.2256 63.9569Z" fill="#95BB20"/>
<path d="M49.2256 78.4927V71.5156C49.2256 70.7426 49.8519 70.1159 50.6243 70.1159H57.5963C58.3687 70.1159 58.995 70.7426 58.995 71.5156V78.4927C58.995 79.2657 58.3687 79.8924 57.5963 79.8924H50.6243C49.8517 79.8924 49.2256 79.2658 49.2256 78.4927Z" fill="#95BB20"/>
<path d="M53.5195 48.4306C53.5184 48.4306 53.5175 48.4306 53.5164 48.4306C53.117 48.4296 52.7382 48.236 52.5029 47.9129L51.4464 46.461C51.1522 46.0567 51.2412 45.4903 51.6452 45.1959C52.0492 44.9017 52.6152 44.9907 52.9092 45.3949L53.5218 46.2369L55.3129 43.8018C55.6092 43.399 56.1755 43.313 56.5778 43.6093C56.9803 43.9057 57.0664 44.4725 56.7701 44.8753L54.532 47.9181C54.2961 48.2391 53.9176 48.4306 53.5195 48.4306Z" fill="white"/>
<path d="M53.5203 63.2832C53.5191 63.2832 53.5181 63.2832 53.517 63.2832C53.1176 63.2822 52.7388 63.0887 52.5036 62.7654L51.4474 61.3136C51.1532 60.9093 51.2422 60.343 51.6462 60.0486C52.0502 59.7543 52.6162 59.8434 52.9102 60.2476L53.5228 61.0896L55.3139 58.6544C55.6101 58.2518 56.1764 58.1656 56.5788 58.462C56.9813 58.7584 57.0674 59.3252 56.7711 59.728L54.533 62.7708C54.2971 63.092 53.9186 63.2832 53.5203 63.2832Z" fill="white"/>
<path d="M53.5203 77.5029C53.5192 77.5029 53.5182 77.5029 53.5172 77.5028C53.1179 77.5019 52.739 77.3084 52.5038 76.9854L51.4473 75.5333C51.1532 75.129 51.2423 74.5627 51.6463 74.2683C52.0505 73.974 52.6162 74.0633 52.9103 74.4674L53.5227 75.3093L55.3139 72.8741C55.6102 72.4715 56.1765 72.3854 56.5789 72.6817C56.9814 72.9781 57.0674 73.5449 56.7712 73.9477L54.5331 76.9905C54.2969 77.3115 53.9185 77.5029 53.5203 77.5029Z" fill="white"/>
<path d="M74.685 44.9459H63.4999C63.0003 44.9459 62.5952 44.5406 62.5952 44.0405C62.5952 43.5405 63.0003 43.1351 63.4999 43.1351H74.685C75.1847 43.1351 75.5897 43.5405 75.5897 44.0405C75.5897 44.5406 75.1847 44.9459 74.685 44.9459Z" fill="#C6CBDA"/>
<path d="M69.0924 48.7289H63.4999C63.0003 48.7289 62.5952 48.3236 62.5952 47.8235C62.5952 47.3235 63.0003 46.9181 63.4999 46.9181H69.0924C69.5921 46.9181 69.9971 47.3235 69.9971 47.8235C69.9971 48.3236 69.5921 48.7289 69.0924 48.7289Z" fill="#C6CBDA"/>
<path d="M71.006 59.4819H63.5014C63.0017 59.4819 62.5967 59.0765 62.5967 58.5765C62.5967 58.0764 63.0017 57.6711 63.5014 57.6711H71.006C71.5057 57.6711 71.9108 58.0764 71.9108 58.5765C71.9108 59.0765 71.5057 59.4819 71.006 59.4819Z" fill="#C6CBDA"/>
<path d="M69.0929 63.2648H63.5004C63.0008 63.2648 62.5957 62.8595 62.5957 62.3594C62.5957 61.8594 63.0008 61.454 63.5004 61.454H69.0929C69.5926 61.454 69.9976 61.8594 69.9976 62.3594C69.9976 62.8595 69.5926 63.2648 69.0929 63.2648Z" fill="#C6CBDA"/>
<path d="M89.2307 51.6389L88.3424 50.4677L85.0184 48.3613L83.7407 48.1599L66.7205 75.0747C66.3098 75.7236 66.0085 76.4358 65.8286 77.1825C67.8995 77.2082 69.7791 78.3993 70.6877 80.2617C71.2854 79.7797 71.7998 79.2027 72.2105 78.5537L89.2307 51.6389Z" fill="#FF8787"/>
<path d="M91.634 43.3507L90.1977 42.4405C89.0781 41.7309 87.5956 42.0643 86.8869 43.185L85.5698 45.2678L85.99 46.1154L89.9867 48.6482L91.0599 48.7468L92.3778 46.6628C93.0861 45.5427 92.7531 44.0599 91.634 43.3507Z" fill="#C6CBDA"/>
<path d="M83.7432 48.1521L85.5729 45.2601L91.0639 48.7392L89.2342 51.6312L83.7432 48.1521Z" fill="#E9EFFF"/>
<path d="M70.6882 80.2618L65.8419 84.17C65.1583 84.7214 64.165 84.092 64.3708 83.2378L65.8292 77.1826C67.9 77.2081 69.7797 78.3993 70.6882 80.2618Z" fill="#C6CBDA"/>
<path d="M69.417 78.5839L87.2586 50.3888L85.7298 49.42L67.8882 77.6151C68.4479 77.8511 68.9644 78.1784 69.417 78.5839Z" fill="#FB636F"/>
<defs>
<linearGradient id="paint0_linear_9:3085" x1="35.3723" y1="43.3294" x2="97.7407" y2="5.55124" gradientUnits="userSpaceOnUse">
<stop stop-color="#FEE927"/>
<stop offset="0.3" stop-color="#FEE927"/>
<stop offset="0.571564" stop-color="#FEE927"/>
<stop offset="1" stop-color="#F89C0E"/>
</linearGradient>
<linearGradient id="paint1_linear_9:3085" x1="28.04" y1="48.682" x2="94.5978" y2="8.36631" gradientUnits="userSpaceOnUse">
<stop stop-color="#FEE927"/>
<stop offset="0.3" stop-color="#FEE927"/>
<stop offset="0.571564" stop-color="#FEE927"/>
<stop offset="1" stop-color="#F89C0E"/>
</linearGradient>
<linearGradient id="paint2_linear_9:3085" x1="111.678" y1="18.2121" x2="87.2125" y2="94.1846" gradientUnits="userSpaceOnUse">
<stop stop-color="#1082CE"/>
<stop offset="0.3" stop-color="#1082CE"/>
<stop offset="0.573113" stop-color="#1082CE"/>
<stop offset="1" stop-color="#2744A0"/>
</linearGradient>
<linearGradient id="paint3_linear_9:3085" x1="13.0564" y1="112.659" x2="13.0564" y2="17.3921" gradientUnits="userSpaceOnUse">
<stop stop-color="#80C428"/>
<stop offset="0.3" stop-color="#80C428"/>
<stop offset="0.573113" stop-color="#80C428"/>
<stop offset="1" stop-color="#43803C"/>
</linearGradient>
<linearGradient id="paint4_linear_9:3085" x1="20.7004" y1="102.98" x2="20.7004" y2="18.2287" gradientUnits="userSpaceOnUse">
<stop stop-color="#80C428"/>
<stop offset="0.3" stop-color="#80C428"/>
<stop offset="0.573113" stop-color="#80C428"/>
<stop offset="1" stop-color="#43803C"/>
</linearGradient>
<linearGradient id="paint5_linear_9:3085" x1="89.2219" y1="29.9392" x2="112.951" y2="104.272" gradientUnits="userSpaceOnUse">
<stop stop-color="#1082CE"/>
<stop offset="0.3" stop-color="#1082CE"/>
<stop offset="0.573113" stop-color="#1082CE"/>
<stop offset="1" stop-color="#2744A0"/>
</linearGradient>
<linearGradient id="paint6_linear_9:3085" x1="8.29965" y1="99.8606" x2="101.505" y2="96.8736" gradientUnits="userSpaceOnUse">
<stop stop-color="#1C63B7"/>
<stop offset="0.428436" stop-color="#68BCEB"/>
<stop offset="0.7" stop-color="#68BCEB"/>
<stop offset="1" stop-color="#68BCEB"/>
</linearGradient>
<linearGradient id="paint7_linear_9:3085" x1="15.263" y1="98.7538" x2="102.809" y2="98.7538" gradientUnits="userSpaceOnUse">
<stop stop-color="#1C63B7"/>
<stop offset="0.428436" stop-color="#68BCEB"/>
<stop offset="0.7" stop-color="#68BCEB"/>
<stop offset="1" stop-color="#68BCEB"/>
</linearGradient>
<clipPath id="clip0_9:3085">
<rect width="125.07" height="120" fill="white"/>
</clipPath>
</defs>
</svg>
