<svg width="64" height="73" viewBox="0 0 64 73" fill="none" xmlns="http://www.w3.org/2000/svg">
<g clip-path="url(#clip0_9:3144)">
<path d="M29.3165 54.425V43.0565H27.3176V54.425C25.985 54.831 25.0522 56.1845 25.0522 57.6732C25.0522 59.5679 26.518 61.0567 28.3837 61.0567C30.2494 61.0567 31.7152 59.568 31.7152 57.6732C31.5818 56.1845 30.6489 54.831 29.3165 54.425ZM28.2503 59.0266C27.5841 59.0266 26.9177 58.4852 26.9177 57.6732C26.9177 56.8611 27.4508 56.3197 28.2503 56.3197C29.0499 56.3197 29.5829 56.8611 29.5829 57.6732C29.5829 58.3499 29.0499 59.0266 28.2503 59.0266Z" fill="#6A6C6E"/>
<path d="M53.5695 3.13129H2.93164V42.2445H53.5695V3.13129Z" fill="#E9EFFF"/>
<path d="M53.4363 40.4851H3.06488C1.33262 40.4851 0 41.8384 0 43.5978C0 45.3573 1.33262 46.7106 3.06488 46.7106H53.4363C55.1686 46.7106 56.5011 45.3572 56.5011 43.5978C56.5013 41.8384 55.1686 40.4851 53.4363 40.4851Z" fill="#707274"/>
<path d="M3.06488 6.24548H53.4363C55.1686 6.24548 56.5011 4.89204 56.5011 3.1327C56.5011 1.37337 55.1686 0.0198059 53.4363 0.0198059H3.06488C1.33262 0.0198059 0 1.37325 0 3.1327C0 4.89216 1.33262 6.24548 3.06488 6.24548Z" fill="#707274"/>
<path d="M23.7202 22.6202C20.3888 19.2367 14.9252 19.2367 11.5938 22.6202L17.7236 28.8459L23.7202 22.6202Z" fill="#F6C358"/>
<path d="M9.06152 28.7105C9.06152 31.0112 9.86107 33.1767 11.5935 34.9362C14.9249 38.3197 20.3885 38.3197 23.7199 34.9362L17.59 28.7105H9.06152Z" fill="#FF8787"/>
<path d="M17.5901 28.7105L11.4602 22.4848C9.72777 24.2443 8.92822 26.4096 8.92822 28.7105H17.5901Z" fill="#949300"/>
<path d="M23.7197 34.9361C27.0512 31.5525 27.0512 26.0036 23.7197 22.6201L17.5898 28.8458L23.7197 34.9361Z" fill="#6A6C6E"/>
<path d="M17.2847 9.59328L11.0209 14.678L11.0063 16.1726L17.2968 10.8186L23.2346 14.4061L28.1979 10.2791L27.4692 9.52604L23.2358 13.046L17.2847 9.59328Z" fill="#D7DCEB"/>
<path d="M12.4125 15.4974C12.3322 16.3055 11.6023 16.9123 10.8067 16.8326C10.0111 16.7528 9.41509 16.0131 9.49538 15.2051C9.57567 14.397 10.3055 13.7902 11.1011 13.8699C11.8967 13.9497 12.4928 14.6894 12.4125 15.4974Z" fill="#949300"/>
<path d="M18.663 10.5475C18.5827 11.3555 17.8528 11.9624 17.0572 11.8826C16.2616 11.8029 15.6656 11.0631 15.7459 10.2551C15.8262 9.44708 16.556 8.84022 17.3516 8.91997C18.1472 8.99971 18.7566 9.60476 18.663 10.5475Z" fill="#F6C358"/>
<path d="M24.7733 13.7442C24.693 14.5523 23.9632 15.1591 23.1676 15.0794C22.372 14.9996 21.7759 14.2599 21.8562 13.4519C21.9365 12.6438 22.6664 12.037 23.462 12.1167C24.2576 12.1965 24.8536 12.9362 24.7733 13.7442Z" fill="#6A6C6E"/>
<path d="M29.2854 10.1161C29.2051 10.9241 28.4753 11.531 27.6797 11.4512C26.8841 11.3715 26.2879 10.6317 26.3682 9.8237C26.4485 9.01568 27.1783 8.40881 27.9739 8.48856C28.7829 8.43359 29.3791 9.17336 29.2854 10.1161Z" fill="#FF8787"/>
<path d="M61.1651 60.38C61.1651 60.38 59.8325 63.7636 59.566 64.1696C59.2995 64.5756 59.2995 64.5756 59.2995 64.5756L57.0342 59.7034L60.0991 59.0267L61.1651 60.38Z" fill="#FFC2A3"/>
<path d="M59.8328 64.9815C59.9661 64.44 59.8328 63.0867 59.2997 61.3273C58.6335 59.4326 57.3008 51.3122 57.3008 51.3122C57.3008 51.3122 42.1095 49.5527 40.6437 52.9363C39.4895 55.5151 38.7352 61.3426 38.4674 64C38.426 64.4108 37.5178 72.7644 37.5 73C49.7753 70.0382 54.8901 68.2928 59.8328 64.9815Z" fill="#949300"/>
<path d="M52.7539 19.6098C52.869 18.796 52.6671 18.0932 52.3029 18.04C51.9387 17.9869 51.5501 18.6035 51.435 19.4173C51.3199 20.2311 51.5218 20.9339 51.886 20.9871C52.2502 21.0402 52.6388 20.4236 52.7539 19.6098Z" fill="#FFB294"/>
<path d="M43.5669 20.7982C43.7432 21.6006 44.1772 22.1852 44.5363 22.1038C44.8954 22.0225 45.0437 21.306 44.8674 20.5036C44.6912 19.7011 44.2572 19.1166 43.8981 19.1979C43.539 19.2793 43.3907 19.9957 43.5669 20.7982Z" fill="#FFB294"/>
<path d="M45.5739 25.4623V24.3797C45.5739 24.3797 44.3746 22.6202 44.1081 20.9961C43.8417 19.372 43.4419 16.3945 43.4419 16.3945C43.4419 16.3945 43.975 14.3644 45.4408 13.823C47.0399 13.417 47.9727 13.1464 48.7722 13.2816C49.5718 13.417 51.704 15.4471 51.704 15.9884C51.704 16.5298 51.9704 21.5373 51.5707 22.4847C51.5707 22.4847 51.5707 25.4622 53.1697 26.6803C54.1026 27.3569 54.2358 28.575 53.4362 29.5224C52.2369 29.1164 50.3713 32.2292 48.5056 35.2067L44.7744 29.2518C45.0409 29.3871 44.9077 26.2744 45.5739 25.4623Z" fill="#FFC2A3"/>
<path d="M49.0387 28.1691C51.1709 26.9511 51.4157 22.75 51.4157 22.75C51.4157 22.75 50.2381 25.733 48.3725 26.0038C46.5069 26.2744 45.5741 24.5151 45.5741 24.5151V25.4625C45.041 26.1391 45.041 28.1692 45.041 29.1167C46.2403 29.1165 47.8394 28.9811 49.0387 28.1691Z" fill="#FFB294"/>
<path d="M47.573 28.9812C47.573 28.9812 48.2393 29.3872 48.5059 29.6578C48.7723 29.9285 49.4387 30.4699 49.4387 30.4699C49.4387 30.4699 50.3716 30.0638 50.7713 29.3872C51.1711 28.7105 52.3704 28.1691 52.3704 28.1691L54.3693 28.4398L55.3021 53.4776C51.1711 55.5077 46.9069 55.5077 42.7759 53.4776L43.9752 28.575L47.573 28.9812Z" fill="#D7DCEB"/>
<path d="M45.5743 25.4623C45.5743 25.4623 46.5072 27.8985 47.5732 28.9811C47.5732 28.9811 46.1074 29.3872 46.2406 31.2819L44.375 28.0337L45.5743 25.4623Z" fill="#E9EFFF"/>
<path d="M51.5709 19.7781H51.8374C51.8374 19.7781 51.8374 18.4246 52.2372 18.154C52.6369 17.8834 52.7702 16.8006 52.5036 15.7179C52.237 14.6352 50.7714 12.199 48.7725 11.9283C46.7736 11.6577 44.7748 12.3343 43.7088 14.4998C42.6428 16.5299 43.9752 19.6427 43.9752 20.0487C43.9752 20.4547 44.1085 20.7254 44.1085 20.7254H44.2418C44.2418 20.7254 43.8421 18.8307 43.9754 18.0186C44.1087 17.2066 43.9754 16.5299 44.1087 16.1239C44.242 15.7179 45.8411 14.2292 48.1064 14.7705C50.3717 15.3117 50.6383 15.7179 50.9048 16.2592C51.1711 16.8006 51.7042 18.2893 51.5709 19.7781Z" fill="#707274"/>
<path d="M52.1036 24.7856C52.1036 24.7856 52.1036 27.6277 50.771 29.5224C50.771 29.5224 52.1036 28.8458 52.3701 29.6578C52.6366 30.4699 52.7699 31.1465 52.7699 31.1465C52.7699 31.1465 53.5694 29.2518 53.5694 27.4923C53.5694 25.733 52.6366 25.0563 52.1036 24.7856Z" fill="#E9EFFF"/>
<path d="M25.985 36.4249L26.2471 35.3889C26.2471 35.3889 27.7506 32.5903 29.483 32.8611C29.483 32.8611 30.2492 33.7181 29.8495 34.6655C29.4497 35.6129 28.5168 37.237 28.3837 37.237L25.985 37.5077C25.985 37.5077 25.8517 36.8309 25.985 36.4249Z" fill="#80800A"/>
<path d="M29.4498 33.312C29.4498 33.312 28.5169 35.4775 26.7847 36.4247L27.7175 38.1842L30.3826 34.9361L29.4498 33.312Z" fill="white"/>
<path d="M27.5844 37.2369C27.5844 37.2369 27.0513 35.4775 26.7849 35.2068C26.5184 34.9362 26.6516 34.3948 26.5184 34.2594C26.3851 34.124 25.1858 33.312 24.786 32.4999C24.5195 31.6879 24.1197 31.5525 24.2529 31.1465C24.2529 31.1465 24.1196 30.4698 24.2529 30.3345C24.2529 30.3345 23.8531 29.5224 24.786 28.8458C24.786 28.8458 24.3862 28.4397 23.9864 28.0337C23.5867 27.6277 23.0536 27.2217 22.6538 27.0863C22.2541 26.9509 21.8543 26.5449 21.9876 26.1389C22.1209 25.7329 22.9204 26.0035 23.3202 26.1389C23.72 26.2743 24.5195 26.9509 24.9193 27.2216C25.3191 27.4922 25.5855 27.8982 26.1186 28.169L27.0514 28.8456C27.0514 28.8456 27.3179 28.575 28.1175 28.8456C28.7837 29.1163 29.1835 28.8456 29.1835 29.5223C29.1835 30.199 29.45 31.417 29.1835 31.823C29.0502 32.3644 29.7166 34.2591 29.7166 34.2591C29.7166 34.2591 29.4282 35.4024 29 36C28.5724 36.5968 27.5844 37.2369 27.5844 37.2369Z" fill="#FFC2A3"/>
<path d="M25.3193 32.0939C25.3193 32.0939 25.8524 31.9586 25.8524 31.8233C25.8524 31.8233 26.2522 31.8233 26.3855 31.9587C26.5188 32.0941 26.7853 32.2293 27.0517 32.2293C27.3182 32.2293 27.5848 32.0939 27.5848 31.8233C27.5848 31.5527 27.4515 31.4173 27.4515 31.4173C27.4515 31.4173 27.8513 31.4173 27.8513 31.1467C27.9846 30.876 27.8513 30.6053 27.5848 30.47C27.3183 30.3346 26.9186 30.064 26.9186 30.064C26.9186 30.064 27.3183 30.064 27.5848 29.9286C27.7181 29.7932 27.9846 29.658 27.9846 29.658C27.9846 29.658 27.8513 29.9286 28.1179 29.9286C28.3845 29.9286 28.3843 29.9286 28.3843 29.9286C28.3843 29.9286 27.7181 30.064 27.7181 30.1992C27.5848 30.3346 27.8514 30.8759 27.8514 31.2819C27.8514 31.6879 27.8514 32.0939 27.8514 32.2293C27.8514 32.2293 27.8514 32.0939 27.5849 32.0939C27.4516 31.9586 27.3185 32.2293 27.0519 32.2293C26.7854 32.2293 26.2523 32.0939 25.9858 32.0939C25.9858 32.2293 25.3196 32.5 25.3196 32.5C25.3196 32.5 25.3196 32.3646 25.4529 32.3646L25.3193 32.0939Z" fill="#FFB294"/>
<path d="M27.1848 30.1992H26.9183C26.9183 30.1992 26.5185 30.0639 26.3852 29.7932C26.1187 29.5226 25.719 29.2518 25.4524 29.3872C25.1859 29.3872 24.7861 29.9286 24.7861 29.9286C24.7861 29.9286 25.3192 29.5226 25.5857 29.5226C25.8522 29.5226 26.3852 29.7932 26.5185 30.064C26.5185 30.0639 27.1848 30.3346 27.1848 30.1992C27.4512 30.3346 27.1848 30.1992 27.1848 30.1992Z" fill="#FFB294"/>
<path d="M27.5847 31.5527C27.5847 31.5527 27.3182 31.4173 27.0516 31.282C26.7851 31.1467 26.3854 30.7406 26.1188 30.6054C25.8523 30.47 25.8523 30.47 25.719 30.6054C25.5857 30.7408 25.0527 30.876 25.0527 30.876C25.0527 30.876 25.5858 30.6054 25.8523 30.7406C26.1188 30.876 26.5185 31.0113 26.6518 31.1467C26.9183 31.282 27.3181 31.6881 27.3181 31.6881L27.5847 31.5527Z" fill="#FFB294"/>
<path d="M27.1333 28.8646C27.1333 28.8646 27 28.8646 27 29L26.9183 28.9813C26.785 28.9813 26.785 29.1167 26.6519 29.1167C26.6519 29.1167 26.6519 29.1167 26.5186 29.2521C26.5186 29.3875 26.5186 29.3875 26.5186 29.5227C26.5186 29.658 26.5186 29.7934 26.5186 29.7934C26.5186 29.7934 26.5186 29.658 26.3853 29.5227C26.3853 29.3873 26.3853 29.3873 26.3853 29.2521C26.3853 29.2521 26.3853 29.2521 26.3853 29.1167C26.3853 29.1167 26.3853 29.1167 26.3853 28.9813C26.3853 28.9813 26.3853 28.8459 26.5186 28.8459C26.6519 28.7106 26.7334 28.7294 26.8667 28.7294C27 28.8646 27.1333 28.8646 27.1333 28.8646Z" fill="#FFB294"/>
<path d="M24.9194 28.7105L25.4525 28.3045C25.5858 28.3045 25.5858 28.3045 25.719 28.1691C25.8523 28.1691 25.8523 28.1691 25.9855 28.1691C26.1188 28.1691 26.2519 28.3045 26.3852 28.3045C26.5185 28.4399 26.5185 28.4399 26.6517 28.5751C26.6517 28.7105 26.785 28.7105 26.785 28.8458V28.9812C26.785 28.9812 26.785 28.9812 26.785 28.8458L26.6517 28.7104C26.5184 28.575 26.5184 28.575 26.3852 28.4398C26.2519 28.3044 26.1188 28.3044 25.9855 28.3044H25.8522H25.7189C25.4524 28.4398 24.9194 28.7105 24.9194 28.7105Z" fill="#FFB294"/>
<path d="M29.4832 32.8611C29.4832 32.8611 30.5158 35.3421 26.5181 37.2369C26.5181 37.2369 25.8519 37.7783 25.985 37.1015C26.1183 36.4249 26.2515 35.3421 26.2515 35.3421C26.2515 35.3421 25.452 36.6955 25.7184 37.5076C25.9849 38.455 28.3835 41.0263 28.9166 42.1092C29.4497 43.192 30.5157 45.7633 31.5817 46.034C32.6478 46.3046 33.9804 45.7633 34.5134 45.3573C35.1797 45.0867 36.1125 44.5453 36.5123 44.2746C36.9121 44.004 37.0454 43.3272 37.4451 42.7859C37.8449 42.2445 39.3107 39.8084 39.3107 39.8084L41.1763 36.5603C41.1763 36.4249 38.2446 28.9813 38.2446 28.9813C38.2446 28.9813 37.445 28.7106 37.1786 29.3873C36.9121 30.064 36.9121 30.7407 36.6455 31.282C36.379 31.8234 36.1124 32.2294 35.8459 33.0415C35.5795 33.8535 35.4462 34.3949 35.3129 34.6656C35.1796 34.9362 34.9131 35.0716 34.9131 35.613C34.9131 36.1544 34.7798 36.2896 34.7798 36.2896L32.6476 38.7257C32.6476 38.7257 31.9814 37.7783 31.8481 37.3723C31.8485 36.8309 30.0163 33.1318 29.4832 32.8611Z" fill="#949300"/>
<path d="M45.1744 47.9286C45.0411 52.5302 42.5093 60.1092 40.7769 61.5979C39.0445 63.0866 36.2461 59.7032 36.2461 59.7032C36.2461 59.7032 37.3121 54.831 38.6447 50.0941C39.9774 45.3573 39.4443 39.673 39.4443 39.673C37.9785 34.2594 38.245 29.1165 38.245 29.1165C38.778 29.1165 41.8429 28.0338 43.1755 27.3571C44.3749 26.6804 45.4409 25.5976 45.5742 25.5976C45.1744 26.4096 45.0411 31.2819 45.4409 34.2594C45.7075 37.2369 45.3077 43.3272 45.1744 47.9286Z" fill="#80800A"/>
<path d="M45.5743 25.4623C45.5743 25.4623 44.6414 26.139 44.375 26.2744C44.1085 26.4098 43.5754 27.6278 43.5754 27.6278L44.2417 28.3045H42.7759C42.7759 28.3045 43.0424 36.4249 43.4421 38.861C43.8419 41.2971 45.0412 46.5753 45.0412 48.6054C44.9079 50.6355 44.9079 50.6355 44.9079 50.6355C44.9079 50.6355 45.7075 45.0866 45.8408 41.5677C45.9741 38.1842 45.3078 27.4924 45.5743 25.4623Z" fill="#949300"/>
<path d="M57.5674 29.2518L61.4831 28.1667C61.4831 28.1667 61.6984 28.4397 61.8317 29.793C61.8317 31.1465 62.6313 31.9585 62.6313 32.7706C62.6313 33.5826 62.3648 34.124 62.6313 34.8007C62.8977 35.4773 63.5641 41.8384 63.6973 43.1917C63.8305 44.545 64.0971 46.0338 63.9638 46.7105C63.8305 47.2519 62.8977 54.9662 62.6311 56.3195C62.3647 57.673 61.2985 61.7332 61.2985 61.7332C61.2985 61.7332 60.0992 59.4324 57.7006 59.1617C57.7006 59.1617 58.3668 51.9887 58.8999 50.0939C59.433 48.1992 59.6994 48.1992 59.433 47.6578C59.1665 47.1164 58.2336 46.1691 58.2336 45.4923C58.2336 44.8155 58.6334 43.1915 58.3669 42.1087C58.1005 41.0263 57.5674 29.2518 57.5674 29.2518Z" fill="#949300"/>
<path d="M53.9692 26.139C53.9692 26.139 56.2346 26.8157 57.967 27.4924C59.5661 28.1691 61.4832 28.1667 61.4832 28.1667C61.4832 28.1667 59.6992 31.8234 59.033 36.1542C59.033 36.1542 57.4339 55.2371 60.3656 60.38C60.3656 60.38 55.7016 62.1395 54.2357 60.1094C52.7699 58.0793 53.2133 49.1111 53.2133 49.1111C52.8137 46.5395 53.5695 34.936 53.9692 26.139Z" fill="#80800A"/>
<path d="M52.6367 25.1916C52.6367 25.1916 53.303 29.5224 53.0365 32.7706C52.77 36.0187 52.8138 47.487 53.2136 49.1111C53.2136 49.1111 53.0402 45.9958 53.5732 44.7778C54.1062 43.4243 56.1014 34.8007 55.5684 28.0337L54.5024 28.4397L55.0355 27.7631C55.0355 27.7631 54.6357 26.545 53.8362 26.0036C53.0365 25.327 52.9033 25.1916 52.6367 25.1916Z" fill="#949300"/>
</g>
<defs>
<clipPath id="clip0_9:3144">
<rect width="64" height="73" fill="white"/>
</clipPath>
</defs>
</svg>
