<svg width="100" height="81" viewBox="0 0 100 81" fill="none" xmlns="http://www.w3.org/2000/svg">
<path d="M45.6301 0.810056C37.5406 1.33851 31.4228 3.0255 29.187 5.32225C28.1301 6.41981 27.6423 8.41168 27.6423 11.6027V13.8995H14.065C3.78049 13.8995 0.426829 13.9605 0.243902 14.1434C0.0609756 14.3263 0 15.9523 0 20.2003V25.993L22.2154 33.0662C34.4106 36.9483 44.4715 40.119 44.5732 40.119C44.6545 40.119 44.7154 39.5905 44.7154 38.9401C44.7154 38.2897 44.8171 37.6596 44.9593 37.5174C45.3049 37.1718 54.6951 37.1718 55.0406 37.5174C55.1829 37.6596 55.2846 38.2897 55.2846 38.9401C55.2846 39.5905 55.3455 40.119 55.4472 40.119C55.5285 40.1393 65.5894 36.9483 77.8049 33.0662L100 26.0133V20.2003C100 15.9523 99.939 14.3263 99.7561 14.1434C99.5732 13.9605 96.2195 13.8995 85.935 13.8995H72.3577V11.684C72.3577 9.18404 71.9309 6.90762 71.2602 5.93201C69.2276 2.88323 61.7276 0.972658 51.3211 0.810056C48.8618 0.769406 46.3008 0.769406 45.6301 0.810056ZM61.2805 6.86697C62.8455 7.15152 64.8577 7.57835 65.752 7.84258L67.378 8.31006L67.439 11.0946L67.5 13.8995H50H32.5L32.561 11.1149L32.622 8.33038L33.8415 7.96453C34.5122 7.76128 36.0163 7.41575 37.1951 7.17184C41.4431 6.31819 43.1911 6.19624 51.0163 6.27754C57.9065 6.33851 58.6382 6.37916 61.2805 6.86697Z" fill="#007BC4"/>
<path d="M0 54.8344C0 74.2043 0.0609756 80.1393 0.243902 80.3222C0.630081 80.7084 99.4512 80.6678 99.7764 80.2816C99.939 80.0783 99.9797 73.2694 99.9594 54.8344L99.8984 29.6312L78.0894 36.5824C66.0976 40.4035 56.0569 43.6149 55.7724 43.7369C55.3049 43.9604 55.2846 44.0417 55.2846 46.0743C55.2846 47.4361 55.2033 48.2491 55.0407 48.4117C54.6951 48.7572 45.3049 48.7572 44.9594 48.4117C44.7968 48.2491 44.7154 47.4157 44.7154 45.993V43.8182L43.7602 43.493C43.2114 43.3304 38.7602 41.9076 33.8415 40.3426C20.6098 36.1556 1.19919 29.9767 0.569106 29.7531L0 29.5702V54.8344Z" fill="#007BC4" fill-opacity="0.88"/>
</svg>
