<svg width="125" height="120" viewBox="0 0 125 120" fill="none" xmlns="http://www.w3.org/2000/svg">
<g clip-path="url(#clip0_9:3012)">
<path d="M40.7231 80.1038C40.7231 79.6635 40.7231 79.3113 40.8112 78.8711C40.9873 77.8145 41.5156 76.8459 42.1319 75.9654C42.22 75.8773 42.308 75.7013 42.3961 75.6132C42.4841 75.5252 42.6602 75.5251 42.7483 75.5251C43.3646 75.5251 43.981 75.5251 44.5974 75.5251C44.7735 75.5251 44.8615 75.5251 45.0376 75.5251C45.2137 75.5251 45.3018 75.7012 45.4779 75.7893C45.9181 76.1415 46.1823 76.5818 46.3584 77.1101C46.7106 78.1667 46.3584 79.3113 46.0062 80.3679C45.8301 80.8082 45.742 81.3365 45.5659 81.7767C45.4779 82.0409 45.3898 82.305 45.2137 82.5692C44.8615 83.0094 44.3332 83.2736 43.893 83.4497C43.1886 83.7138 42.4841 83.978 41.8678 83.6258C41.4275 83.3616 41.2514 82.9214 41.0753 82.4811C40.8112 81.7767 40.7231 80.8962 40.7231 80.1038Z" fill="#F6C358"/>
<path d="M94.2576 65.4874C92.1444 67.7767 90.7356 68.7453 88.6224 71.0346C87.8299 71.9151 86.8614 72.8836 85.6287 72.8836C85.4526 72.8836 85.1884 72.7956 85.0123 72.7956C84.2199 72.5314 83.6035 71.9151 83.0752 71.2987C80.874 68.9214 78.7608 66.2799 76.2073 64.2547C73.4778 62.0534 70.1319 60.6446 67.5784 58.1792C66.5218 57.1226 64.7608 57.2107 63.352 57.0346C62.2073 56.8585 61.1507 57.3868 60.2702 58.0912C59.3897 58.7956 58.6853 59.588 57.7168 60.2924C56.308 61.349 54.4589 61.7893 52.6979 61.7012C52.1696 61.6132 51.5533 61.5251 51.113 61.1729C50.6728 60.8207 50.4086 60.2044 50.6728 59.6761C50.7608 59.4119 51.025 59.1478 51.2891 58.9717C52.9621 57.2107 52.874 54.0409 54.9872 52.8082C55.8677 52.2799 56.8363 52.1918 57.8048 51.8396C58.6853 51.4874 59.4778 50.8711 60.2702 50.4308C61.0627 49.9906 61.9432 49.7264 62.8237 49.5503C64.3206 49.1981 65.9055 49.1981 67.4904 49.1981C69.0753 49.1981 70.6602 49.2862 72.157 49.7264C73.3017 50.0786 74.3583 50.6069 75.591 50.8711C77.352 51.2233 79.113 50.783 80.874 50.5189C81.2262 50.4308 81.5784 50.4308 81.8425 50.6069C82.0186 50.695 82.1947 50.8711 82.2828 50.9591C82.8111 51.4874 83.4274 52.0157 83.9557 52.544C88.006 56.3302 92.1444 60.3805 94.2576 65.4874Z" fill="#F9B54C"/>
<path d="M94.2576 65.4874C92.1444 67.7767 90.7356 68.7453 88.6224 71.0346C87.8299 71.9151 86.8614 72.8836 85.6287 72.8836C85.4526 72.8836 85.1884 72.7956 85.0123 72.7956C84.2199 72.5314 83.6035 71.9151 83.0752 71.2987C80.874 68.9214 78.7608 66.2799 76.2073 64.2547C73.4778 62.0534 70.1319 60.6446 67.5784 58.1792C66.5218 57.1226 64.7608 57.2107 63.352 57.0346C62.2073 56.8585 61.1507 57.3868 60.2702 58.0912C59.3897 58.7956 58.6853 59.588 57.7168 60.2924C56.308 61.349 54.4589 61.7893 52.6979 61.7012C52.5218 61.7012 52.3457 61.7012 52.1696 61.6132C51.8174 61.5251 51.3772 61.4371 51.113 61.1729C50.6728 60.8207 50.4086 60.2044 50.6728 59.6761C50.7608 59.4119 51.025 59.1478 51.2891 58.9717C52.0816 58.1792 52.4338 57.0346 52.874 55.978C53.3143 54.7453 53.8426 53.5126 54.9872 52.8082C55.8677 52.2799 56.9243 52.1918 57.8048 51.8396C58.6853 51.4874 59.4778 50.8711 60.2702 50.4308C61.0627 49.9906 61.9432 49.7264 62.8237 49.5503C64.3206 49.1981 65.9055 49.1981 67.4904 49.1981C69.0753 49.1981 70.6602 49.2862 72.157 49.7264C73.3017 50.0786 74.3583 50.695 75.591 50.8711C77.352 51.2233 79.113 50.783 80.874 50.5189C81.2262 50.5189 81.5784 50.4308 81.8425 50.6069C82.0186 50.695 82.1947 50.8711 82.2828 50.9591C82.8111 51.4874 83.4274 52.0157 83.9557 52.544C88.006 56.3302 92.1444 60.3805 94.2576 65.4874Z" fill="#F9B54C"/>
<path d="M94.2576 65.4874C92.1444 67.7767 90.7356 68.7453 88.6224 71.0346C87.8299 71.9151 86.8614 72.8836 85.6287 72.8836C85.4526 72.8836 85.1884 72.7956 85.0123 72.7956C84.2199 72.5314 83.6035 71.9151 83.0752 71.2987C80.874 68.9214 78.7608 66.2799 76.2073 64.2547C73.4778 62.0534 70.1319 60.6446 67.5784 58.1792C66.5218 57.1226 64.7608 57.2107 63.352 57.0346C62.2073 56.8585 61.1507 57.3868 60.2702 58.0912C59.3897 58.7956 58.6853 59.588 57.7168 60.2924C56.308 61.349 54.4589 61.7893 52.6979 61.7012C52.5218 61.7012 52.3457 61.7012 52.1696 61.6132C51.8174 61.5251 51.3772 61.4371 51.113 61.1729C50.6728 60.8207 50.4086 60.2044 50.6728 59.6761V59.588C50.7608 59.3239 51.025 59.1478 51.2011 58.9717C51.9935 58.1792 52.3457 57.0346 52.786 55.978C52.786 55.8899 52.786 55.8899 52.874 55.8019C53.3143 54.6572 53.8426 53.5126 54.8992 52.8082C55.7797 52.2799 56.8363 52.1918 57.7168 51.8396C58.5973 51.4874 59.3897 50.8711 60.1822 50.4308C60.9746 49.9906 61.8551 49.7264 62.7356 49.5503C64.2325 49.1981 65.8174 49.1981 67.4023 49.1981C68.9872 49.1981 70.5721 49.2862 72.069 49.7264C73.2136 50.0786 74.2702 50.695 75.5029 50.8711C77.2639 51.2233 79.0249 50.783 80.7859 50.5189C81.1381 50.5189 81.4903 50.4308 81.7545 50.6069C81.9306 50.695 82.1067 50.8711 82.1947 50.9591C82.723 51.4874 83.3394 52.0157 83.8677 52.544C88.0061 56.3302 92.1444 60.3805 94.2576 65.4874Z" fill="#F6C358"/>
<path d="M85.2761 74.6447C85.1881 75.7013 84.5718 76.6698 83.6032 77.1101C82.6346 77.5503 81.49 77.5503 80.6095 76.934C81.3139 77.9906 80.6095 79.4874 79.4648 80.0157C78.3202 80.544 76.9994 80.456 75.7667 80.2799C76.207 80.544 76.295 81.2484 76.0309 81.6887C75.7667 82.1289 75.2384 82.3931 74.7101 82.5692C73.5655 82.9214 72.2447 82.9214 71.1001 82.6572C71.6284 83.0975 71.2762 84.066 70.7479 84.5063C69.251 85.9151 67.0498 86.3553 65.0246 85.9151C62.9995 85.5629 61.1504 84.5063 59.3894 83.4497C57.6284 82.3931 55.8674 81.3365 53.8422 80.7201C51.9051 80.1918 49.7919 80.1918 47.7668 79.6635C44.685 78.8711 42.1316 76.7579 39.7542 74.7327C39.314 74.3805 38.8737 73.9403 38.6096 73.412C38.4335 72.7956 38.6096 72.1793 38.7857 71.651C40.0184 67.5126 41.4272 63.4623 43.1882 59.5C43.5404 58.6195 43.9806 57.739 44.597 56.9466C45.6536 55.5378 47.5026 54.6573 47.5907 52.9843C47.6787 52.368 47.8548 51.7516 48.207 51.2233C48.2951 51.0472 48.4712 50.9592 48.5592 50.7831C48.7353 50.695 48.9114 50.607 49.0875 50.607C51.0246 50.0787 52.9617 49.5504 54.8988 49.0221C56.3957 48.5818 57.8925 48.2296 59.4775 48.3177C60.6221 48.4057 61.7668 48.846 62.7353 49.4623C61.8548 49.6384 60.9743 49.9026 60.1819 50.3428C59.3014 50.7831 58.5969 51.3994 57.7164 51.7516C56.7479 52.1038 55.7793 52.1919 54.8988 52.7202C52.7856 53.9529 52.8737 57.1227 51.2007 58.8837C51.0246 59.1478 50.7605 59.3239 50.5844 59.5881C50.3202 60.1164 50.5844 60.7327 51.0246 61.0849C51.4649 61.4371 52.0812 61.5252 52.6095 61.6132C54.3705 61.7893 56.1315 61.261 57.6284 60.2044C58.5089 59.5881 59.3014 58.7076 60.1819 58.0032C61.0624 57.2988 62.119 56.7705 63.2636 56.9466C64.7605 57.1227 66.4334 57.0346 67.49 58.0912C70.0435 60.5566 73.3013 62.0535 76.1189 64.1667C78.6724 66.1918 80.7856 68.8333 82.9868 71.2107C83.5151 71.8271 84.2195 72.4434 84.924 72.7076C85.2761 73.3239 85.3642 73.9403 85.2761 74.6447Z" fill="#FFD05B"/>
<path d="M85.2761 74.6446C85.1881 75.7012 84.5718 76.6698 83.6032 77.11C82.8107 77.4622 81.9302 77.5503 81.1378 77.1981C80.9617 77.11 80.7856 77.022 80.6095 76.9339C80.7856 77.11 80.8736 77.3742 80.8736 77.6383C80.9617 78.5188 80.3453 79.5754 79.4648 80.0157C78.4963 80.4559 77.3516 80.4559 76.295 80.3679C76.1189 80.3679 75.9428 80.3679 75.7667 80.2798C76.0309 80.4559 76.207 80.8081 76.207 81.1603C76.207 81.3364 76.1189 81.6006 76.0309 81.7767C75.7667 82.2169 75.2384 82.4811 74.7101 82.6572C73.5655 83.0094 72.3328 83.0094 71.1881 82.7452H71.1001C71.3642 82.9213 71.4523 83.2735 71.3642 83.5377C71.2762 83.8899 71.1001 84.3301 70.7479 84.5943C69.251 86.0031 67.0498 86.4433 65.0246 86.0031C62.9995 85.6509 61.1504 84.5943 59.3894 83.5377C57.6284 82.4811 55.8674 81.3364 53.8422 80.8081C51.9051 80.2798 49.7919 80.2798 47.7668 79.7515C44.685 78.9591 42.1316 76.8459 39.7542 74.8207C39.314 74.4685 38.8737 74.0283 38.6096 73.5C38.4335 72.9717 38.6096 72.3553 38.7857 71.739C40.0184 67.6006 41.4272 63.5503 43.1882 59.588C43.5404 58.7075 43.9806 57.827 44.597 57.0346C45.6536 55.6258 47.5026 54.7453 47.5907 53.0723C47.6787 52.456 47.8548 51.8396 48.207 51.3113C48.2951 51.1352 48.4712 51.0472 48.5592 50.8711C48.7353 50.783 48.9114 50.695 49.0875 50.695C51.0246 50.1667 52.9617 49.6384 54.8988 49.1101C56.3957 48.6698 57.8925 48.3176 59.4775 48.4057C60.6221 48.4937 61.7668 48.934 62.7353 49.5503C61.8548 49.7264 60.9743 49.9906 60.1819 50.4308C59.3894 50.8711 58.5969 51.4874 57.7164 51.8396C56.7479 52.1918 55.7793 52.2799 54.8988 52.8082C52.7856 54.0409 52.8737 57.2107 51.2007 58.9717C51.0246 59.2358 50.7605 59.4119 50.5844 59.6761C50.3202 60.2044 50.5844 60.8207 51.0246 61.1729C51.4649 61.5251 52.0812 61.6132 52.6095 61.7012C54.3705 61.8773 56.1315 61.349 57.6284 60.2924C58.5089 59.6761 59.3014 58.7956 60.1819 58.0912C61.0624 57.3868 62.119 56.8585 63.2636 57.0346C64.7605 57.2107 66.4334 57.1226 67.49 58.1792C70.0435 60.6446 73.3013 62.0534 76.1189 64.2547C78.6724 66.2799 80.7856 68.9214 82.9868 71.2987C83.5151 71.9151 84.2195 72.5314 84.924 72.7956C85.2761 73.3239 85.3642 73.9402 85.2761 74.6446Z" fill="#FFD05B"/>
<path d="M49.8804 83.1856C49.8804 82.5692 49.8804 82.0409 50.0565 81.5126C50.1445 81.2485 50.3206 81.0724 50.4967 80.8963C50.7609 80.5441 51.2011 80.1919 51.5533 79.9277C52.5219 79.3994 53.6665 79.3994 54.8112 79.3994C54.9873 79.3994 55.1634 79.3994 55.3395 79.4875C55.6917 79.6636 55.9558 80.1038 56.308 80.2799C56.3961 80.368 56.5722 80.456 56.6602 80.5441C56.9244 80.7202 57.0124 81.0724 57.0124 81.3365C57.1005 82.6573 56.4841 83.978 55.4275 84.7705C54.3709 85.5629 52.8741 85.739 51.6414 85.2107C51.2892 85.1227 51.025 84.9466 50.6728 84.7705C50.4967 84.6824 50.2326 84.5063 50.0565 84.3302C49.9684 84.0661 49.8804 83.6258 49.8804 83.1856Z" fill="#F6C358"/>
<path d="M63.8804 85.739C63.5282 85.9151 63.176 85.9151 62.8238 86.0912C62.6477 86.1792 62.4716 86.2673 62.3836 86.3553C61.9433 86.5314 61.5031 86.5314 61.0628 86.5314C60.4465 86.5314 59.8301 86.6195 59.3018 86.4434C58.6855 86.3553 58.1572 86.0912 57.7169 85.6509C57.4528 85.3868 57.2767 84.9465 57.1886 84.5943C57.1006 84.4182 57.1006 84.2421 57.1006 84.066C57.1006 83.6258 57.2767 83.2736 57.5408 82.9214C58.0691 82.305 58.7735 81.9528 59.4779 81.6006C60.0062 81.3365 60.4465 81.0723 60.9748 80.8082C61.415 80.544 61.9433 80.2799 62.4716 80.1038C63.2641 79.8396 64.1446 79.9277 64.849 80.2799C65.5534 80.6321 66.0817 81.4245 66.0817 82.217C66.0817 82.9214 65.7295 83.6258 65.3773 84.2421C64.849 84.8585 64.4968 85.4748 63.8804 85.739Z" fill="#F6C358"/>
<path d="M67.4903 87.412C67.4023 87.5881 67.2262 87.8522 67.1381 88.0283C66.7859 88.3805 66.4337 88.4686 65.9935 88.6447C65.2891 88.8208 64.5847 88.9969 63.8803 88.9969C63.1759 88.9088 62.4715 88.6447 62.0312 88.1164C61.8551 87.9403 61.7671 87.7642 61.7671 87.5C61.7671 87.0598 62.0312 86.7076 62.3834 86.4434C63.2639 85.739 64.4086 85.5629 65.201 84.8585C65.3771 84.6824 65.5532 84.5063 65.8174 84.3302C65.9935 84.2422 66.1696 84.2422 66.3457 84.2422C66.6979 84.1541 67.1381 84.1541 67.4903 84.3302C67.8425 84.5063 68.0186 84.7705 68.1947 85.0346C68.2828 85.739 67.9306 86.7076 67.4903 87.412Z" fill="#F9B54C"/>
<path d="M80.6097 76.934C80.7858 77.1101 80.8739 77.3742 80.8739 77.6384C80.6097 77.5503 80.4336 77.2862 80.1695 77.022C78.7607 75.4371 76.6475 74.7327 75.0626 73.412C74.5343 72.9717 74.006 72.4434 73.4777 72.0912C73.0374 71.739 72.5091 71.4748 71.9808 71.1226C71.2764 70.6824 70.572 70.066 69.8676 69.5377C69.2513 69.0094 68.5469 68.3931 68.5469 67.6006V67.5126C68.5469 67.4245 68.6349 67.4245 68.723 67.4245C69.3393 67.3365 69.8676 67.6006 70.3959 67.9528C70.8362 68.305 71.1884 68.8333 71.6286 69.2736C72.7733 70.5063 74.094 71.4748 75.5028 72.4434C76.7355 73.3239 77.9682 74.1163 79.2009 74.9969C79.7292 75.3491 80.1695 75.7013 80.6097 76.1415C80.8739 76.4937 81.138 76.8459 81.2261 77.1981C80.9619 77.1101 80.7858 77.022 80.6097 76.934Z" fill="#F6C358"/>
<path d="M33.9432 68.6573C34.2954 64.9591 36.0564 61.4371 37.8174 58.0912C38.874 55.978 40.0186 53.8648 41.0752 51.6636C41.3394 51.1353 41.6035 50.607 41.9557 50.2548C43.0123 49.0221 44.9494 48.6699 46.4463 49.4623C46.7104 49.6384 47.0626 49.8145 47.2387 50.1667C47.4148 50.4309 47.4148 50.7831 47.4148 51.0472C47.5029 52.1038 47.5909 53.1604 47.4148 54.129C47.2387 55.0095 46.8865 55.8019 46.4463 56.5944C44.0689 61.4371 41.6916 66.2799 39.3142 71.1227C39.1381 71.4749 38.962 71.8271 38.6979 72.1793C37.7293 73.3239 35.7922 73.412 34.7356 72.3554C33.8551 71.3868 33.7671 69.978 33.9432 68.6573Z" fill="#E6E9EE"/>
<path d="M43.3647 50.4309C41.0754 58.2674 38.1698 66.0158 34.4716 73.3239C34.2955 73.6761 34.0314 74.1164 33.5911 74.2925C33.327 74.3805 32.9748 74.2925 32.7106 74.2925C30.8616 74.1164 29.1886 75.4371 27.2515 75.7893C24.7861 76.1415 22.4088 74.7327 20.2956 73.412C16.1572 70.7705 14.4906 69.2013 10 67C9.8239 64.9749 9 62.0252 9 60C9 49.7862 9.72955 40.3932 14.4843 32.1165C16.2453 33.085 17.9182 34.1416 19.6792 35.1102C21.088 35.9026 22.4968 36.7831 23.9056 37.5756C26.1069 38.8963 28.3962 40.2171 30.4213 41.9781C31.9182 43.2108 33.327 44.7076 35.2641 45.0598C36.0565 45.1479 36.849 45.0598 37.6414 45.1479C39.3144 45.324 40.8113 46.4686 42.132 47.5252C42.5723 47.8774 43.1006 48.3177 43.2767 48.934C43.6289 49.3743 43.4528 49.9026 43.3647 50.4309Z" fill="#324A5E"/>
<path d="M85.2765 47.7894C85.4526 47.5252 85.6287 47.2611 85.8929 47.173C86.069 47.085 86.2451 47.173 86.4212 47.173C87.5658 47.5252 88.1822 48.846 88.8866 49.8145C89.591 50.7831 90.6476 51.4875 91.5281 52.28C93.9055 54.4812 95.4904 57.563 96.8992 60.4686C97.6916 62.0535 98.4841 63.7265 99.3646 65.3114C100.333 67.3365 101.39 69.3617 101.654 71.5629C100.245 71.2988 98.6602 72.0032 97.4275 71.3868C96.8992 71.1227 96.547 70.6824 96.1948 70.2422C94.5218 68.129 93.113 65.7516 91.8803 63.3743C90.8237 61.2611 89.8552 58.9718 88.0061 57.4749C87.3017 56.8586 86.4212 56.4183 85.8929 55.802C85.5407 55.3617 85.2765 54.8334 84.9243 54.3932C83.9558 52.7202 82.635 51.2234 81.1382 49.9026C82.7231 49.9026 84.396 49.1101 85.2765 47.7894Z" fill="#E6E9EE"/>
<path d="M119 60.0283C119 61.4371 118.912 62.7579 118.824 64.0786C114.333 66.8962 110.107 70.2421 105.968 73.6761C105.176 74.3805 104.207 75.0849 103.151 74.7327C102.711 74.5566 102.358 74.2925 102.094 73.9403C100.597 72.2673 99.9811 69.8899 99.0125 67.8648C98.132 66.0157 96.8993 64.3428 95.7547 62.6698L85.3647 48.3177C85.1006 47.9655 84.8364 47.5252 84.9245 47.085C85.0125 46.7328 85.3648 46.5567 85.6289 46.2925C87.0377 45.324 88.5346 44.2674 89.9434 43.2988C91.4402 42.2422 92.849 41.1856 94.4339 40.3932C95.9308 39.6007 97.4276 38.9844 99.0125 38.368C103.239 36.519 107.289 34.1416 111.34 31.8523C116.182 40.129 119 49.7265 119 60.0283Z" fill="#324A5E"/>
<path d="M76.2072 81.1603C75.943 80.9842 75.5908 80.8081 75.3266 80.632C74.4461 80.1037 73.5656 79.4874 72.6851 78.871C72.421 78.6949 72.0688 78.5188 71.8046 78.2547C70.4839 77.3742 69.1631 76.5817 67.8424 75.7012C67.226 75.261 66.6097 74.9088 66.1694 74.2924C67.226 74.1163 68.2826 74.4685 69.1631 75.0848C70.0436 75.6131 70.8361 76.3176 71.6285 77.022C72.421 77.6383 73.2134 78.1666 74.0059 78.6069C74.6222 78.9591 75.2386 79.2232 75.7669 79.6635C76.0311 79.8396 76.2072 80.1037 76.4713 80.3679C76.2952 80.3679 76.1191 80.3679 75.943 80.2798C76.1191 80.4559 76.2072 80.8081 76.2072 81.1603Z" fill="#F6C358"/>
<path d="M71.2763 83.5377C70.3958 83.1855 69.5153 82.8333 68.6348 82.4811C68.1946 82.305 67.7543 82.1289 67.3141 81.8647C66.9619 81.6006 66.6097 81.3364 66.2575 80.9842C64.6726 79.6634 62.8235 78.3427 60.7983 78.4307C60.5342 78.4307 60.27 78.4307 60.0939 78.2546C59.9178 78.0785 60.0939 77.7263 60.27 77.5502C60.4461 77.3741 60.7983 77.3741 61.0625 77.3741C61.8549 77.3741 62.6474 77.5502 63.4398 77.9024C64.4964 78.3427 65.465 79.1351 66.5216 79.6634C66.9619 79.8395 67.4902 80.0156 67.9304 80.2798C69.1631 80.8081 70.2197 81.6005 71.1883 82.5691H71.1002C71.2763 82.9213 71.3644 83.1855 71.2763 83.5377Z" fill="#F6C358"/>
<path d="M54.5469 57.651C54.4588 58.0032 54.2827 58.2674 54.1066 58.5315C53.5783 59.2359 52.962 59.7642 52.2576 60.1164C51.9934 60.2045 51.8173 60.2925 51.5532 60.2925C51.201 60.2925 50.9368 60.0284 50.8488 59.7642C50.8488 59.6762 50.7607 59.5881 50.7607 59.5001C50.8488 59.2359 51.1129 59.0598 51.289 58.8837C52.0815 58.0913 52.4337 56.9466 52.8739 55.89C52.8739 55.802 52.8739 55.802 52.962 55.7139C53.05 55.6259 53.2261 55.6259 53.3142 55.6259C53.4903 55.6259 53.5783 55.802 53.6664 55.89C54.1947 56.4183 54.6349 57.0347 54.5469 57.651Z" fill="#FFEBEB"/>
<path d="M62.2075 81.7768C62.1194 81.4246 62.2955 80.9844 62.6477 80.7202C63.088 80.368 63.6163 80.1039 64.1446 80.1039C64.6729 80.1039 65.2893 80.4561 65.4654 80.9844C65.6415 81.5127 65.4654 82.2171 65.2012 82.7454C65.1132 82.9215 65.0251 83.0095 64.9371 83.0976C64.849 83.1856 64.6729 83.1856 64.4968 83.1856C64.1446 83.1856 63.7924 83.2737 63.4402 83.1856C63.088 83.0976 62.7358 82.8334 62.6477 82.4812" fill="#FFEBEB"/>
<path d="M68.0188 84.9466C67.8427 84.5064 67.4905 84.2422 67.1383 84.1542C66.4339 83.9781 65.6415 84.5944 65.4654 85.3869C65.3773 85.7391 65.4654 86.1793 65.8176 86.3554C65.9056 86.3554 65.9936 86.4435 66.0817 86.4435L67.8427 86.2674C68.1069 85.8271 68.1069 85.3869 68.0188 84.9466Z" fill="#FFEBEB"/>
<g clip-path="url(#clip1_9:3012)">
<path d="M30.5892 10.9838C28.4715 12.5748 25.6177 15.0317 23.6085 17.0331C21.4316 19.22 20.3975 20.5188 21.6955 19.4244C24.2629 17.281 30.5024 12.8292 33.2486 11.1658C36.9989 8.89413 39.9232 7.57103 44.2116 6.23399C51.939 3.82234 57.9938 3.32026 67.3466 4.37812C71.1329 4.8019 81.2515 7.21668 84.9103 8.5861C93.1126 11.6294 100.316 16.5384 106.339 23.1986C108.333 25.3804 111.485 29.3819 112.391 30.8779C112.958 31.7672 113.016 31.8163 113.03 31.3313C113.018 30.3863 109.25 24.489 106.702 21.4384C98.2477 11.3202 87.2392 4.43019 75.2249 1.70697C63.4863 -0.931124 52.2858 0.278798 40.2925 5.49847C38.3811 6.32011 32.0188 9.92178 30.5892 10.9838Z" fill="black"/>
<path d="M30.5892 10.9838C28.4715 12.5748 25.6177 15.0317 23.6085 17.0331C21.4316 19.22 20.3975 20.5188 21.6955 19.4244C24.2629 17.281 30.5024 12.8292 33.2486 11.1658C36.9989 8.89413 39.9232 7.57103 44.2116 6.23399C51.939 3.82234 57.9938 3.32026 67.3466 4.37812C71.1329 4.8019 81.2515 7.21668 84.9103 8.5861C93.1126 11.6294 100.316 16.5384 106.339 23.1986C108.333 25.3804 111.485 29.3819 112.391 30.8779C112.958 31.7672 113.016 31.8163 113.03 31.3313C113.018 30.3863 109.25 24.489 106.702 21.4384C98.2477 11.3202 87.2392 4.43019 75.2249 1.70697C63.4863 -0.931124 52.2858 0.278798 40.2925 5.49847C38.3811 6.32011 32.0188 9.92178 30.5892 10.9838Z" fill="url(#paint0_linear_9:3012)"/>
<path d="M33.469 16.6629C30.778 18.7411 26.7547 22.5508 24.4075 25.2891C22.22 27.8747 18.3504 33.048 18.6136 33.1126C18.6794 33.1288 19.9197 31.9853 21.3314 30.57C32.1059 19.8697 35.7687 17.3149 44.935 14.0877C57.1006 9.80005 70.9667 9.24461 81.6358 12.6145C89.4043 15.0802 96.123 19.0502 101.825 24.5325C105.988 28.5379 107.229 29.6627 107.373 29.5758C107.455 29.5262 106.963 28.7598 106.297 27.8463C97.6015 15.9416 80.5227 6.84583 65.7187 6.17657C59.6114 5.89814 52.245 7.19469 45.8656 9.6582C42.7601 10.867 36.2009 14.5599 33.469 16.6629Z" fill="black"/>
<path d="M33.469 16.6629C30.778 18.7411 26.7547 22.5508 24.4075 25.2891C22.22 27.8747 18.3504 33.048 18.6136 33.1126C18.6794 33.1288 19.9197 31.9853 21.3314 30.57C32.1059 19.8697 35.7687 17.3149 44.935 14.0877C57.1006 9.80005 70.9667 9.24461 81.6358 12.6145C89.4043 15.0802 96.123 19.0502 101.825 24.5325C105.988 28.5379 107.229 29.6627 107.373 29.5758C107.455 29.5262 106.963 28.7598 106.297 27.8463C97.6015 15.9416 80.5227 6.84583 65.7187 6.17657C59.6114 5.89814 52.245 7.19469 45.8656 9.6582C42.7601 10.867 36.2009 14.5599 33.469 16.6629Z" fill="url(#paint1_linear_9:3012)"/>
<path d="M87.8335 12.7529C87.8799 12.8433 89.1764 13.6636 90.7392 14.5948C92.2793 15.5186 94.5294 16.9732 95.7053 17.8553C98.2705 19.7386 102.657 24.0962 105.059 27.1101C118.992 44.7364 121.437 69.0344 111.151 87.9233C109.017 91.8929 105.534 96.6111 102.474 99.7036C100.982 101.212 101.347 101.405 102.878 99.9343C109.872 93.3011 112.394 90.1611 115.664 83.9144C117.277 80.8594 120.06 72.2157 120.474 68.976C121.796 58.8545 120.515 49.934 116.257 39.627C114.711 35.9072 111.346 30.6451 108.065 26.8445C104.622 22.841 98.9531 18.3223 93.9615 15.5318C91.3098 14.0737 87.6634 12.4212 87.8335 12.7529Z" fill="black"/>
<path d="M87.8335 12.7529C87.8799 12.8433 89.1764 13.6636 90.7392 14.5948C92.2793 15.5186 94.5294 16.9732 95.7053 17.8553C98.2705 19.7386 102.657 24.0962 105.059 27.1101C118.992 44.7364 121.437 69.0344 111.151 87.9233C109.017 91.8929 105.534 96.6111 102.474 99.7036C100.982 101.212 101.347 101.405 102.878 99.9343C109.872 93.3011 112.394 90.1611 115.664 83.9144C117.277 80.8594 120.06 72.2157 120.474 68.976C121.796 58.8545 120.515 49.934 116.257 39.627C114.711 35.9072 111.346 30.6451 108.065 26.8445C104.622 22.841 98.9531 18.3223 93.9615 15.5318C91.3098 14.0737 87.6634 12.4212 87.8335 12.7529Z" fill="url(#paint2_linear_9:3012)"/>
<path d="M24.6257 14.8183C17.7491 19.6582 12.1904 26.5347 7.27861 36.2146C4.21172 42.2765 1.93552 48.6259 0.809397 54.3763C-0.795925 62.4987 -0.00524382 71.4838 3.10956 80.4448C6.58377 90.532 15.2333 102.871 22.613 108.238C24.6736 109.748 24.434 109.269 21.7025 106.417C8.64433 92.8082 3.18144 80.2292 3.18144 63.6967C3.15748 58.8089 3.27728 57.4432 3.97212 53.1064C6.20041 39.0658 12.4779 27.1577 23.0443 16.8549C24.7694 15.1777 26.1591 13.812 26.1112 13.812C26.0872 13.812 25.4164 14.2672 24.6257 14.8183Z" fill="#6AAB30"/>
<path d="M24.6257 14.8183C17.7491 19.6582 12.1904 26.5347 7.27861 36.2146C4.21172 42.2765 1.93552 48.6259 0.809397 54.3763C-0.795925 62.4987 -0.00524382 71.4838 3.10956 80.4448C6.58377 90.532 15.2333 102.871 22.613 108.238C24.6736 109.748 24.434 109.269 21.7025 106.417C8.64433 92.8082 3.18144 80.2292 3.18144 63.6967C3.15748 58.8089 3.27728 57.4432 3.97212 53.1064C6.20041 39.0658 12.4779 27.1577 23.0443 16.8549C24.7694 15.1777 26.1591 13.812 26.1112 13.812C26.0872 13.812 25.4164 14.2672 24.6257 14.8183Z" fill="url(#paint3_linear_9:3012)"/>
<path d="M27.4052 15.8725C26.8062 16.3517 25.3686 17.5976 24.1946 18.6758C16.0242 26.1513 10.9686 35.6395 9.02786 47.2362C8.42886 50.926 8.42886 59.5756 9.02786 63.1696C10.4894 71.6035 13.173 78.4561 17.7733 85.5003C19.6182 88.3276 20.4568 89.31 23.7154 92.5686C27.6209 96.4501 29.9689 98.3908 32.0774 99.469C32.7483 99.8045 33.0119 99.9003 32.6764 99.6607C21.7746 91.7779 13.3646 76.3237 11.8072 61.2767C11.4239 57.4671 11.6635 49.728 12.2864 46.0382C13.2448 40.4076 14.6106 36.0948 17.1024 30.9433C19.2828 26.4149 21.2714 23.5876 26.4229 17.6455C29.0824 14.5786 29.1064 14.5547 27.4052 15.8725Z" fill="#6AAB30"/>
<path d="M27.4052 15.8725C26.8062 16.3517 25.3686 17.5976 24.1946 18.6758C16.0242 26.1513 10.9686 35.6395 9.02786 47.2362C8.42886 50.926 8.42886 59.5756 9.02786 63.1696C10.4894 71.6035 13.173 78.4561 17.7733 85.5003C19.6182 88.3276 20.4568 89.31 23.7154 92.5686C27.6209 96.4501 29.9689 98.3908 32.0774 99.469C32.7483 99.8045 33.0119 99.9003 32.6764 99.6607C21.7746 91.7779 13.3646 76.3237 11.8072 61.2767C11.4239 57.4671 11.6635 49.728 12.2864 46.0382C13.2448 40.4076 14.6106 36.0948 17.1024 30.9433C19.2828 26.4149 21.2714 23.5876 26.4229 17.6455C29.0824 14.5786 29.1064 14.5547 27.4052 15.8725Z" fill="url(#paint4_linear_9:3012)"/>
<path d="M111.959 25.5716C112.187 26.0519 113.453 28.4397 114.755 30.866C119.551 39.823 120.91 44.3944 121.619 54.1783C122.558 66.6552 120.366 78.145 115.229 87.6574C109.842 97.6515 102.567 104.879 89.6495 113.026C87.0523 114.66 87.4 114.725 90.7155 113.214C98.1016 109.8 106.544 103.156 111.642 96.75C121.569 84.2753 126.361 66.196 123.789 50.9704C123.254 47.7962 120.98 40.6748 119.352 37.0699C117.369 32.6724 113.813 26.891 112.069 25.2093C111.53 24.7023 111.53 24.7023 111.959 25.5716Z" fill="black"/>
<path d="M111.959 25.5716C112.187 26.0519 113.453 28.4397 114.755 30.866C119.551 39.823 120.91 44.3944 121.619 54.1783C122.558 66.6552 120.366 78.145 115.229 87.6574C109.842 97.6515 102.567 104.879 89.6495 113.026C87.0523 114.66 87.4 114.725 90.7155 113.214C98.1016 109.8 106.544 103.156 111.642 96.75C121.569 84.2753 126.361 66.196 123.789 50.9704C123.254 47.7962 120.98 40.6748 119.352 37.0699C117.369 32.6724 113.813 26.891 112.069 25.2093C111.53 24.7023 111.53 24.7023 111.959 25.5716Z" fill="url(#paint5_linear_9:3012)"/>
<path d="M7.71865 78.9237C8.60624 82.6829 11.7883 89.2212 14.7485 93.3215C19.9421 100.539 27.681 107.89 33.0709 110.761C42.5083 115.757 48.2359 117.947 54.7927 119.079C68.7266 121.509 82.0762 117.677 98.8349 106.52C103.177 103.624 102.584 103.811 97.6004 106.896C92.4054 110.107 89.2185 111.647 84.7354 113.133C79.0664 115.017 74.2713 115.746 66.985 115.788C59.508 115.859 54.5711 115.155 47.4065 113.011C37.0719 109.938 28.5275 105.13 21.2596 98.2669C16.4634 93.722 13.3009 89.2926 9.6145 81.9793C8.6153 79.9737 7.72187 78.2763 7.64773 78.2068C7.57358 78.1372 7.60828 78.4717 7.71865 78.9237Z" fill="black"/>
<path d="M7.71865 78.9237C8.60624 82.6829 11.7883 89.2212 14.7485 93.3215C19.9421 100.539 27.681 107.89 33.0709 110.761C42.5083 115.757 48.2359 117.947 54.7927 119.079C68.7266 121.509 82.0762 117.677 98.8349 106.52C103.177 103.624 102.584 103.811 97.6004 106.896C92.4054 110.107 89.2185 111.647 84.7354 113.133C79.0664 115.017 74.2713 115.746 66.985 115.788C59.508 115.859 54.5711 115.155 47.4065 113.011C37.0719 109.938 28.5275 105.13 21.2596 98.2669C16.4634 93.722 13.3009 89.2926 9.6145 81.9793C8.6153 79.9737 7.72187 78.2763 7.64773 78.2068C7.57358 78.1372 7.60828 78.4717 7.71865 78.9237Z" fill="url(#paint6_linear_9:3012)"/>
<path d="M15.4968 84.5658C17.9647 90.4121 27.2612 101.05 33.8741 105.555C46.1656 113.917 62.9377 115.977 78.0325 110.994C84.7892 108.765 91.0013 106.967 97.183 101.408C99.4113 99.3958 102.314 96.1509 103.944 93.8028C105.165 92.0297 105.806 91.4939 103.098 94.2253C95.4073 101.964 81.9619 107.304 69.2152 109.221C66.0045 109.7 57.4508 109.628 54.0245 109.101C42.0445 107.232 32.3886 102.464 23.8349 94.1978C22.4692 92.88 20.9597 91.2028 20.4565 90.484C19.9534 89.7412 19.3783 88.9985 19.1387 88.8068C18.9231 88.6391 18.1084 87.5369 17.3178 86.3868C16.5271 85.2367 15.7124 84.1585 15.4968 83.9908C15.1853 83.7033 15.1853 83.7752 15.4968 84.5658Z" fill="black"/>
<path d="M15.4968 84.5658C17.9647 90.4121 27.2612 101.05 33.8741 105.555C46.1656 113.917 62.9377 115.977 78.0325 110.994C84.7892 108.765 91.0013 106.967 97.183 101.408C99.4113 99.3958 102.314 96.1509 103.944 93.8028C105.165 92.0297 105.806 91.4939 103.098 94.2253C95.4073 101.964 81.9619 107.304 69.2152 109.221C66.0045 109.7 57.4508 109.628 54.0245 109.101C42.0445 107.232 32.3886 102.464 23.8349 94.1978C22.4692 92.88 20.9597 91.2028 20.4565 90.484C19.9534 89.7412 19.3783 88.9985 19.1387 88.8068C18.9231 88.6391 18.1084 87.5369 17.3178 86.3868C16.5271 85.2367 15.7124 84.1585 15.4968 83.9908C15.1853 83.7033 15.1853 83.7752 15.4968 84.5658Z" fill="url(#paint7_linear_9:3012)"/>
</g>
</g>
<defs>
<linearGradient id="paint0_linear_9:3012" x1="35.3723" y1="43.3294" x2="97.7407" y2="5.55121" gradientUnits="userSpaceOnUse">
<stop stop-color="#FEE927"/>
<stop offset="0.3" stop-color="#FEE927"/>
<stop offset="0.571564" stop-color="#FEE927"/>
<stop offset="1" stop-color="#F89C0E"/>
</linearGradient>
<linearGradient id="paint1_linear_9:3012" x1="28.04" y1="48.6821" x2="94.5978" y2="8.36634" gradientUnits="userSpaceOnUse">
<stop stop-color="#FEE927"/>
<stop offset="0.3" stop-color="#FEE927"/>
<stop offset="0.571564" stop-color="#FEE927"/>
<stop offset="1" stop-color="#F89C0E"/>
</linearGradient>
<linearGradient id="paint2_linear_9:3012" x1="111.678" y1="18.2121" x2="87.2125" y2="94.1846" gradientUnits="userSpaceOnUse">
<stop stop-color="#1082CE"/>
<stop offset="0.3" stop-color="#1082CE"/>
<stop offset="0.573113" stop-color="#1082CE"/>
<stop offset="1" stop-color="#2744A0"/>
</linearGradient>
<linearGradient id="paint3_linear_9:3012" x1="13.0564" y1="112.659" x2="13.0564" y2="17.3921" gradientUnits="userSpaceOnUse">
<stop stop-color="#80C428"/>
<stop offset="0.3" stop-color="#80C428"/>
<stop offset="0.573113" stop-color="#80C428"/>
<stop offset="1" stop-color="#43803C"/>
</linearGradient>
<linearGradient id="paint4_linear_9:3012" x1="20.7004" y1="102.98" x2="20.7004" y2="18.2287" gradientUnits="userSpaceOnUse">
<stop stop-color="#80C428"/>
<stop offset="0.3" stop-color="#80C428"/>
<stop offset="0.573113" stop-color="#80C428"/>
<stop offset="1" stop-color="#43803C"/>
</linearGradient>
<linearGradient id="paint5_linear_9:3012" x1="89.2219" y1="29.9392" x2="112.951" y2="104.273" gradientUnits="userSpaceOnUse">
<stop stop-color="#1082CE"/>
<stop offset="0.3" stop-color="#1082CE"/>
<stop offset="0.573113" stop-color="#1082CE"/>
<stop offset="1" stop-color="#2744A0"/>
</linearGradient>
<linearGradient id="paint6_linear_9:3012" x1="8.29965" y1="99.8606" x2="101.505" y2="96.8736" gradientUnits="userSpaceOnUse">
<stop stop-color="#1C63B7"/>
<stop offset="0.428436" stop-color="#68BCEB"/>
<stop offset="0.7" stop-color="#68BCEB"/>
<stop offset="1" stop-color="#68BCEB"/>
</linearGradient>
<linearGradient id="paint7_linear_9:3012" x1="15.263" y1="98.7538" x2="102.809" y2="98.7538" gradientUnits="userSpaceOnUse">
<stop stop-color="#1C63B7"/>
<stop offset="0.428436" stop-color="#68BCEB"/>
<stop offset="0.7" stop-color="#68BCEB"/>
<stop offset="1" stop-color="#68BCEB"/>
</linearGradient>
<clipPath id="clip0_9:3012">
<rect width="125" height="120" fill="white"/>
</clipPath>
<clipPath id="clip1_9:3012">
<rect width="125.07" height="120" fill="white"/>
</clipPath>
</defs>
</svg>
