<svg width="138" height="31" viewBox="0 0 138 31" fill="none" xmlns="http://www.w3.org/2000/svg">
<path d="M17.8917 0.447998V11.4015C15.673 11.4015 13.8703 13.2154 13.8703 15.448H5.75834L15.8117 3.02939L13.7317 0.447998L0.00366211 15.3782L13.593 30.3782L13.7317 30.2387L1.529 15.3782H5.75834L17.961 30.3782V19.355C16.089 19.0061 14.7023 17.3317 14.7023 15.3782C14.7023 13.2852 16.297 11.541 18.3077 11.3317C20.3184 11.541 21.913 13.2852 21.913 15.3782H30.0944L17.8917 0.447998Z" fill="white"/>
<path d="M22.2597 0.378174L22.121 0.587476L34.3237 15.3782H30.0944L20.041 27.7968L22.121 30.3782L35.7797 15.3782L22.2597 0.378174Z" fill="white"/>
<path d="M46.8036 16.2851H51.5876V14.0526H46.8036V12.1688H54.985V9.93628H43.9609V20.8898H55.1236V18.5177H46.8036V16.2851Z" fill="white"/>
<path d="M135.689 11.8201C135.689 11.8201 131.876 16.634 131.529 17.0526C131.252 16.634 127.369 11.8201 127.369 11.8201H125.428V20.8898H127.924V15.727C128.548 16.4945 131.182 19.8433 131.182 19.8433H131.806C131.806 19.8433 134.441 16.4945 135.065 15.727V20.8898H137.561V11.8201H135.689Z" fill="white"/>
<path d="M113.849 17.8898V11.8201H111.353V20.8898H113.294C113.294 20.8898 119.742 15.448 120.366 14.8898V20.8898H122.862V11.8201H120.921C120.921 11.8201 114.473 17.3317 113.849 17.8898Z" fill="white"/>
<path d="M108.51 9.93628H105.113C105.113 9.93628 102.34 13.0758 102.062 13.4247C101.785 13.1456 98.8038 9.93628 98.8038 9.93628H94.9905C94.9905 9.93628 99.9825 14.9595 100.26 15.2386C99.9825 15.5177 95.1291 20.82 95.1291 20.82H98.5958C98.5958 20.82 101.716 17.1921 101.993 16.8433C102.27 17.1223 105.737 20.82 105.737 20.82H109.62C109.62 20.82 104.073 15.2386 103.796 14.9595C104.073 14.6805 108.51 9.93628 108.51 9.93628Z" fill="white"/>
<path d="M66.7025 16.2154C66.9105 16.1456 67.0492 16.0061 67.1879 15.8665C67.3265 15.727 67.6732 15.3781 67.6732 14.6805V13.634C67.6732 13.2154 67.6039 12.6572 67.1879 12.2386C66.7025 11.82 66.0092 11.7502 65.4545 11.7502H57.5505V20.8898H65.0385C65.8705 20.8898 66.4945 20.7502 66.9799 20.4712C67.5345 20.1223 67.7425 19.634 67.7425 19.0061V17.8898C67.7425 17.4014 67.5345 16.913 67.2572 16.634C67.1185 16.4944 66.9799 16.3549 66.7025 16.2154ZM60.0465 13.7037H64.4839C64.9692 13.7037 65.1079 13.7735 65.1079 13.7735C65.2465 13.8433 65.2465 14.0526 65.2465 14.1223V14.9595C65.2465 15.0991 65.2465 15.1688 65.1772 15.2386C65.1079 15.3084 64.8999 15.3781 64.5532 15.3781H60.1159V13.7037H60.0465ZM65.2465 18.3781C65.2465 18.5177 65.2465 18.727 65.1079 18.7968C65.0385 18.8665 64.8999 18.9363 64.5532 18.9363H60.0465V17.1921H64.4839C64.8999 17.1921 65.0385 17.2619 65.1079 17.3316C65.2465 17.4014 65.2465 17.6107 65.2465 17.7502V18.3781Z" fill="white"/>
<path d="M77.8649 11.8201H69.9609V20.8898H72.4569V17.541H77.8649C78.6276 17.541 79.1823 17.4015 79.5289 17.1224C80.0143 16.7038 80.0836 16.0759 80.0836 15.6573V13.7038C80.0836 12.8666 79.8063 11.8201 77.8649 11.8201ZM77.7263 15.0991C77.7263 15.3084 77.7263 15.3782 77.5876 15.448C77.5183 15.5177 77.3103 15.5875 77.1023 15.5875H72.4569V13.7736H76.9636C77.1716 13.7736 77.4489 13.7736 77.5876 13.9131C77.6569 13.9829 77.7263 14.0526 77.7263 14.2619V15.0991Z" fill="white"/>
<path d="M93.1185 12.3783C92.5638 11.8899 91.5932 11.8899 91.1772 11.8899H84.5212C83.6198 11.8899 83.0651 12.0294 82.7185 12.3783C82.1638 12.8666 82.1638 13.7736 82.1638 14.1922V18.7271C82.1638 19.0759 82.1638 19.9829 82.6492 20.4713C82.9958 20.8201 83.6198 20.9597 84.5905 20.9597H91.1772C91.8705 20.9597 92.6332 20.8899 93.1185 20.4015C93.6038 19.9131 93.6038 19.0759 93.6038 18.7969V14.1922C93.6038 13.7038 93.6038 12.7969 93.1185 12.3783ZM91.1078 18.7969H84.5905V13.9131H91.1078V18.7969Z" fill="white"/>
</svg>
