<svg width="80" height="31" viewBox="0 0 80 31" fill="none" xmlns="http://www.w3.org/2000/svg">
<g clip-path="url(#clip0)">
<path d="M45.1679 23.1352C42.8599 23.1352 40.9448 22.4011 39.5698 20.9819C38.1948 19.6115 37.4583 17.654 37.4583 15.3538C37.4583 13.2494 38.2439 11.2918 39.6189 9.87256C41.043 8.40437 43.0563 7.62134 45.2661 7.62134C47.9178 7.62134 50.2258 8.74695 51.3552 10.5088C51.4534 10.6067 51.4043 10.8024 51.3061 10.9003L49.1454 12.8579C48.9981 12.9558 48.8017 12.9558 48.7035 12.8089C47.9669 11.8791 46.6901 11.2918 45.4625 11.2918C42.9581 11.2918 41.3867 12.9068 41.3867 15.3538C41.3867 17.7518 43.0563 19.4158 45.4134 19.4158C46.9357 19.4158 48.2124 18.7796 49.1945 17.605C49.2927 17.4582 49.5383 17.4582 49.6365 17.605L51.5516 19.6605C51.6498 19.7584 51.6498 19.9052 51.6007 20.0031C50.2258 21.9607 47.8196 23.1352 45.1679 23.1352Z" fill="white"/>
<path d="M53.8103 22.45V8.30642C53.8103 8.06173 54.0067 7.86597 54.2523 7.86597H63.7788C64.0243 7.86597 64.2207 8.06173 64.2207 8.30642V11.047C64.2207 11.2917 64.0243 11.4875 63.7788 11.4875H57.7388V22.4989C57.7388 22.7436 57.5423 22.9394 57.2968 22.9394H54.2523C54.0067 22.8904 53.8103 22.6947 53.8103 22.45Z" fill="white"/>
<path d="M18.0613 0.378108C9.22225 0.622806 5.392 8.99148 7.15981 14.8153C7.15981 14.8642 7.30713 14.9132 7.30713 14.8153C8.58388 10.6065 11.5793 7.81693 15.0167 6.74026C22.4317 4.4401 28.6682 8.74679 30.436 14.8642C30.7306 15.9409 30.7797 17.1644 30.8288 18.2411C30.8288 18.3879 31.0252 18.3879 31.0743 18.2411C33.0386 10.3129 26.8512 0.13341 18.0613 0.378108Z" fill="white"/>
<path d="M2.34756 20.835C7.01261 28.3717 16.1954 27.4908 20.3694 23.0373C20.3694 22.9883 20.3694 22.8415 20.3203 22.8905C15.999 23.9182 12.0705 22.7926 9.4679 20.3456C3.72252 15.0601 4.3609 7.47448 8.78042 2.9231C9.56612 2.09112 10.5973 1.50385 11.5303 0.916573C11.6777 0.818694 11.5795 0.671875 11.4321 0.671875C3.5261 2.97204 -2.21928 13.3962 2.34756 20.835Z" fill="white"/>
<path d="M27.9808 24.1629C32.2039 16.3815 26.8514 8.89375 20.8605 7.52344C20.8113 7.52344 20.7131 7.57238 20.7622 7.67026C23.8068 10.8513 24.7889 14.8154 24.0032 18.3391C22.2845 25.8758 15.4097 29.1548 9.27148 27.5887C8.19116 27.2951 7.11083 26.7567 6.17782 26.2184C6.0305 26.1694 5.93229 26.3163 6.0305 26.4141C11.8741 32.1401 23.8068 31.8464 27.9808 24.1629Z" fill="white"/>
<path d="M66.3324 7.86597H69.4261C69.6716 7.86597 69.8189 8.06173 69.8189 8.25748V13.3472C69.8189 13.543 70.0644 13.6408 70.2118 13.494L74.8768 8.01279C74.975 7.91491 75.0732 7.86597 75.1714 7.86597H78.8544C79.1981 7.86597 79.3454 8.1596 79.0999 8.45324L73.7474 14.5707H74.2875C74.4349 14.5707 74.5331 14.6196 74.6313 14.7665L79.5419 22.2542C79.7383 22.4989 79.7874 22.8904 79.3454 22.8904H75.3679C75.2205 22.8904 75.0732 22.7926 75.0241 22.6947L71.5867 17.4581C71.5376 17.3603 71.3903 17.3603 71.2921 17.4092L69.9662 18.9263C69.9171 19.0242 69.868 19.0731 69.868 19.22V22.4989C69.868 22.7436 69.6716 22.8904 69.4752 22.8904H66.3815C66.136 22.8904 65.9887 22.6947 65.9887 22.4989V8.30642C65.9396 8.06173 66.0869 7.86597 66.3324 7.86597Z" fill="white"/>
</g>
<defs>
<clipPath id="clip0">
<rect width="78.913" height="30" fill="white" transform="translate(0.727051 0.378174)"/>
</clipPath>
</defs>
</svg>
