<svg width="15" height="12" viewBox="0 0 15 12" fill="none" xmlns="http://www.w3.org/2000/svg">
<path fill-rule="evenodd" clip-rule="evenodd" d="M7.28336 3.19219L7.31587 3.71122L6.77395 3.64767C4.80138 3.40404 3.07808 2.57782 1.61491 1.1902L0.899581 0.501686L0.71533 1.01013C0.32515 2.14353 0.574431 3.34048 1.38731 4.14552C1.82084 4.5904 1.72329 4.65396 0.975449 4.38914C0.71533 4.3044 0.487725 4.24085 0.466048 4.27263C0.39018 4.34677 0.6503 5.31069 0.856228 5.69202C1.13802 6.22165 1.71246 6.74068 2.34108 7.04787L2.87216 7.2915L2.24353 7.30209C1.63659 7.30209 1.61491 7.31268 1.67994 7.53512C1.89671 8.22364 2.75294 8.95452 3.70671 9.2723L4.37868 9.49474L3.79341 9.8337C2.92635 10.321 1.90755 10.5964 0.888743 10.6175C0.401018 10.6281 0 10.6705 0 10.7023C0 10.8082 1.32228 11.4014 2.0918 11.6344C4.40036 12.3229 7.14246 12.0264 9.20174 10.8506C10.6649 10.0138 12.1281 8.35075 12.8109 6.74068C13.1794 5.88269 13.5479 4.315 13.5479 3.56293C13.5479 3.07567 13.5804 3.01212 14.1874 2.42953C14.545 2.09056 14.881 1.71983 14.9461 1.6139C15.0544 1.41264 15.0436 1.41264 14.4908 1.59272C13.5696 1.91049 13.4395 1.86812 13.8947 1.39146C14.2307 1.0525 14.6317 0.438131 14.6317 0.258058C14.6317 0.22628 14.4692 0.279243 14.2849 0.374576C14.0898 0.480501 13.6563 0.639389 13.3311 0.734722L12.7459 0.914795L12.2148 0.565241C11.9222 0.374576 11.5103 0.162725 11.2935 0.0991699C10.7408 -0.0491255 9.89539 -0.0279404 9.39683 0.14154C8.04204 0.618204 7.18581 1.84694 7.28336 3.19219Z" fill="#333333"/>
</svg>
