<svg width="16" height="10" viewBox="0 0 16 10" fill="none" xmlns="http://www.w3.org/2000/svg">
<path d="M15.6431 0.859951C15.7621 0.419951 15.5836 0.199951 15.1078 0.199951H13.3532C12.9963 0.199951 12.7485 0.369951 12.6097 0.709951L12.3123 1.30995C12.0744 1.82995 11.8265 2.30995 11.5688 2.74995C11.1921 3.36995 10.8154 3.88995 10.4387 4.30995C10.2404 4.52995 10.0818 4.67995 9.96283 4.75995C9.84387 4.81995 9.73482 4.84995 9.63569 4.84995C9.55638 4.84995 9.48699 4.80995 9.42751 4.72995C9.36803 4.64995 9.33829 4.51995 9.33829 4.33995V0.859951C9.33829 0.619951 9.29864 0.449951 9.21933 0.349951C9.15985 0.249951 9.04089 0.199951 8.86245 0.199951H6.09665C5.9777 0.199951 5.86865 0.239951 5.76952 0.319951C5.69021 0.399951 5.65056 0.499951 5.65056 0.619951C5.65056 0.719951 5.71995 0.859951 5.85874 1.03995C5.99752 1.19995 6.09665 1.34995 6.15613 1.48995C6.27509 1.72995 6.34449 2.00995 6.36431 2.32995V4.93995C6.36431 5.19995 6.33457 5.37995 6.27509 5.47995C6.23544 5.55995 6.15613 5.59995 6.03718 5.59995C5.83891 5.59995 5.56134 5.37995 5.20446 4.93995C4.84758 4.49995 4.49071 3.92995 4.13383 3.22995C3.7373 2.46995 3.40025 1.68995 3.12268 0.889951C3.04337 0.629951 2.94424 0.449951 2.82528 0.349951C2.72615 0.249951 2.56753 0.199951 2.34944 0.199951H0.594796C0.198265 0.199951 0 0.369951 0 0.709951C0 0.909951 0.0693928 1.25995 0.208178 1.75995C0.42627 2.37995 0.713755 3.04995 1.07063 3.76995C1.52664 4.70995 2.0917 5.63995 2.7658 6.55995C3.47955 7.59995 4.31227 8.39995 5.26394 8.95995C6.21561 9.51995 7.15737 9.79995 8.08922 9.79995C8.62454 9.79995 8.98141 9.73995 9.15985 9.61995C9.29864 9.51995 9.35812 9.34995 9.33829 9.10995V8.32995C9.33829 7.84995 9.3482 7.53995 9.36803 7.39995C9.36803 7.19995 9.39777 7.06995 9.45725 7.00995C9.53656 6.94995 9.65551 6.91995 9.81413 6.91995C10.1908 6.91995 10.7757 7.29995 11.5688 8.05995C11.8067 8.29995 12.0744 8.59995 12.3717 8.95995C12.689 9.29995 12.9071 9.50995 13.026 9.58995C13.2045 9.72995 13.4027 9.79995 13.6208 9.79995H15.3755C15.6134 9.79995 15.7819 9.73995 15.881 9.61995C16 9.47995 16.0297 9.28995 15.9703 9.04995C15.7918 8.48995 14.9888 7.46995 13.5613 5.98995L13.2937 5.68995C13.1747 5.54995 13.1152 5.42995 13.1152 5.32995C13.1152 5.22995 13.1747 5.08995 13.2937 4.90995C13.3135 4.88995 13.5019 4.61995 13.8587 4.09995C14.2751 3.43995 14.632 2.85995 14.9294 2.35995C15.3457 1.65995 15.5836 1.15995 15.6431 0.859951Z" fill="#333333"/>
</svg>
