<svg width="40" height="40" viewBox="0 0 40 40" fill="none" xmlns="http://www.w3.org/2000/svg">
<circle cx="20" cy="20" r="20" fill="#333333"/>
<path d="M25.6521 12.4958C25.5232 12.3106 25.3495 12.1752 25.1316 12.0893C24.9928 12.0299 24.8474 12.0001 24.6953 12.0001V12H14.3052C14.1533 12 14.0079 12.0298 13.8691 12.0892C13.651 12.175 13.4775 12.3106 13.3486 12.4957C13.2198 12.6808 13.1553 12.8856 13.1553 13.1103V25.8896C13.1553 26.1145 13.2198 26.3192 13.3486 26.5044C13.4775 26.6895 13.651 26.8251 13.8691 26.9109C14.0078 26.9703 14.1533 27 14.3052 27C14.616 27 14.8901 26.8909 15.1281 26.6729L19.5003 22.4691L23.8725 26.673C24.1038 26.8842 24.3781 26.99 24.6953 26.99C24.8605 26.99 25.006 26.9637 25.1316 26.9108C25.3495 26.825 25.5231 26.6895 25.6521 26.5042C25.7809 26.3192 25.8453 26.1144 25.8453 25.8896V13.1105C25.8453 12.8857 25.7808 12.6809 25.6521 12.4958Z" fill="white"/>
</svg>
