<svg width="20" height="17" viewBox="0 0 20 17" fill="none" xmlns="http://www.w3.org/2000/svg">
<path fill-rule="evenodd" clip-rule="evenodd" d="M1.31579 0C0.589099 0 0 0.589099 0 1.31579C0 2.04248 0.589099 2.63158 1.31579 2.63158C2.04248 2.63158 2.63158 2.04248 2.63158 1.31579C2.63158 0.589099 2.04248 0 1.31579 0ZM6.40214 0C5.67545 0 5.08635 0.589099 5.08635 1.31579C5.08635 2.04248 5.67544 2.63158 6.40213 2.63158H18.6843C19.411 2.63158 20.0001 2.04248 20.0001 1.31579C20.0001 0.589099 19.411 0 18.6843 0H6.40214ZM0 8.15789C0 7.4312 0.589099 6.8421 1.31579 6.8421C2.04248 6.8421 2.63158 7.4312 2.63158 8.15789C2.63158 8.88458 2.04248 9.47368 1.31579 9.47368C0.589099 9.47368 0 8.88458 0 8.15789ZM6.40214 6.8421C5.67545 6.8421 5.08635 7.4312 5.08635 8.15789C5.08635 8.88458 5.67544 9.47368 6.40213 9.47368H18.6843C19.411 9.47368 20.0001 8.88458 20.0001 8.15789C20.0001 7.4312 19.411 6.8421 18.6843 6.8421H6.40214ZM0 15C0 14.2733 0.589099 13.6842 1.31579 13.6842C2.04248 13.6842 2.63158 14.2733 2.63158 15C2.63158 15.7267 2.04248 16.3158 1.31579 16.3158C0.589099 16.3158 0 15.7267 0 15ZM6.40214 13.6842C5.67545 13.6842 5.08635 14.2733 5.08635 15C5.08635 15.7267 5.67544 16.3158 6.40213 16.3158H18.6843C19.411 16.3158 20.0001 15.7267 20.0001 15C20.0001 14.2733 19.411 13.6842 18.6843 13.6842H6.40214Z" fill="#B8B9BA"/>
</svg>
