<svg width="16" height="16" viewBox="0 0 16 16" fill="none" xmlns="http://www.w3.org/2000/svg">
<path fill-rule="evenodd" clip-rule="evenodd" d="M4 0C3.44772 0 3 0.447715 3 1V2H1C0.447715 2 0 2.44772 0 3V15C0 15.5523 0.447715 16 1 16H15C15.5523 16 16 15.5523 16 15V3C16 2.44772 15.5523 2 15 2H13V1C13 0.447715 12.5523 0 12 0C11.4477 0 11 0.447715 11 1V2H5V1C5 0.447715 4.55228 0 4 0ZM2 5C1.44772 5 1 5.44772 1 6V14C1 14.5523 1.44772 15 2 15H14C14.5523 15 15 14.5523 15 14V6C15 5.44772 14.5523 5 14 5H2Z" fill="#333333"/>
<path d="M10 11C10 10.4477 10.4477 10 11 10H13C13.5523 10 14 10.4477 14 11V13C14 13.5523 13.5523 14 13 14H11C10.4477 14 10 13.5523 10 13V11Z" fill="#333333"/>
</svg>
