<svg width="40" height="40" viewBox="0 0 40 40" fill="none" xmlns="http://www.w3.org/2000/svg">
<circle cx="20" cy="20" r="20" fill="#F0F0F0"/>
<path d="M25.652 12.4958C25.523 12.3106 25.3494 12.1752 25.1315 12.0893C24.9927 12.0298 24.8472 12.0001 24.6952 12.0001V11.9999H14.3051C14.1531 11.9999 14.0078 12.0297 13.869 12.0891C13.6509 12.175 13.4774 12.3105 13.3485 12.4956C13.2197 12.6807 13.1552 12.8855 13.1552 13.1103V25.8896C13.1552 26.1144 13.2197 26.3191 13.3485 26.5044C13.4774 26.6894 13.6509 26.825 13.869 26.9108C14.0077 26.9702 14.1531 26.9999 14.3051 26.9999C14.6159 26.9999 14.89 26.8908 15.128 26.6729L19.5002 22.4691L23.8723 26.673C24.1037 26.8841 24.378 26.9899 24.6951 26.9899C24.8604 26.9899 25.0059 26.9637 25.1314 26.9108C25.3494 26.825 25.523 26.6894 25.6519 26.5041C25.7808 26.3191 25.8451 26.1143 25.8451 25.8895V13.1104C25.8452 12.8857 25.7807 12.6809 25.652 12.4958Z" fill="#B8B9BA"/>
</svg>
