<svg width="20" height="20" viewBox="0 0 20 20" fill="none" xmlns="http://www.w3.org/2000/svg">
<path d="M17.6818 19.6023C18.2121 20.1326 19.072 20.1326 19.6023 19.6023C20.1326 19.072 20.1326 18.2121 19.6023 17.6818L11.9205 10L19.6023 2.31819C20.1326 1.78788 20.1326 0.928054 19.6023 0.397736C19.0719 -0.132582 18.2121 -0.132575 17.6818 0.397736L10 8.07955L2.31819 0.397736C1.78787 -0.132583 0.928046 -0.132575 0.397736 0.397736C-0.132575 0.928047 -0.132582 1.78787 0.397736 2.31819L8.07955 10L0.397736 17.6818C-0.132575 18.2121 -0.132582 19.0719 0.397736 19.6023C0.928054 20.1326 1.78788 20.1326 2.31819 19.6023L10 11.9205L17.6818 19.6023Z" fill="#707274"/>
</svg>
