<svg width="25" height="25" viewBox="0 0 25 25" fill="none" xmlns="http://www.w3.org/2000/svg">
<path d="M22.4213 10.0685C22.4213 4.5166 17.9045 0 12.3524 0C6.80048 0 2.28369 4.5166 2.28369 10.0685C2.28369 15.6202 6.80048 20.1368 12.3524 20.1368C17.9045 20.1368 22.4213 15.6202 22.4213 10.0685ZM10.5576 14.3635L7.11997 10.9259L8.16195 9.88407L10.5576 12.2797L16.543 6.29444L17.585 7.33624L10.5576 14.3635Z" fill="#F6C358"/>
<path d="M3.04794 16.8884L0 21.3339L4.5063 20.4935L5.34668 25L8.20084 20.8372C6.12869 20.0356 4.34418 18.6523 3.04794 16.8884Z" fill="#009696"/>
<path d="M21.6573 16.8884C20.3611 18.6523 18.5765 20.0356 16.5044 20.8372L19.3586 25L20.1989 20.4935L24.7052 21.3339L21.6573 16.8884Z" fill="#009696"/>
</svg>
