<svg width="16" height="14" viewBox="0 0 16 14" fill="none" xmlns="http://www.w3.org/2000/svg">
<path d="M1.69169 10.2644L1.70903 10.0763L1.59764 9.92371C0.876191 8.93547 0.50002 7.79983 0.50002 6.63158C0.50002 3.30773 3.58534 0.5 7.51122 0.5C11.4371 0.5 14.5224 3.30773 14.5224 6.63158C14.5224 9.95543 11.4371 12.7632 7.51122 12.7632C6.50544 12.7632 5.53746 12.5807 4.62987 12.2215L4.40761 12.1336L4.1996 12.2513C3.0843 12.8826 1.65459 13.2325 0.845697 13.3927C1.0127 13.1156 1.1525 12.796 1.26842 12.448C1.47326 11.8331 1.61522 11.0942 1.69169 10.2644Z" stroke="#f6c358"/>
</svg>
