<svg width="14" height="13" viewBox="0 0 14 13" fill="none" xmlns="http://www.w3.org/2000/svg">
<path d="M2.39761 9.28851L2.41495 9.10039L2.30356 8.94781C1.69374 8.11248 1.37648 7.15371 1.37648 6.1681C1.37648 3.36663 3.98044 0.983887 7.31466 0.983887C10.6489 0.983887 13.2528 3.36663 13.2528 6.1681C13.2528 8.96956 10.6489 11.3523 7.31466 11.3523C6.46132 11.3523 5.64055 11.1975 4.87121 10.8931L4.64895 10.8051L4.44094 10.9229C3.56058 11.4212 2.44699 11.7135 1.74123 11.8619C1.85347 11.653 1.94957 11.422 2.03145 11.1762C2.2092 10.6426 2.33171 10.0036 2.39761 9.28851Z" stroke="#707274"/>
</svg>
