<svg width="11" height="13" viewBox="0 0 11 13" fill="none" xmlns="http://www.w3.org/2000/svg">
<path fill-rule="evenodd" clip-rule="evenodd" d="M3 6.48389C3 5.9316 2.55228 5.48389 2 5.48389C1.44771 5.48389 1 5.9316 1 6.48389C1 7.03617 1.44772 7.48389 2 7.48389C2.55228 7.48389 3 7.03617 3 6.48389ZM3.50809 5.1702C3.14144 4.74965 2.60176 4.48389 2 4.48389C0.89543 4.48389 -3.10551e-07 5.37932 -2.62268e-07 6.48389C-2.13986e-07 7.58846 0.89543 8.48389 2 8.48389C2.57443 8.48389 3.0923 8.24172 3.45708 7.8539L7.04321 10.0684C7.01489 10.2024 7 10.3414 7 10.4839C7 11.5885 7.89543 12.4839 9 12.4839C10.1046 12.4839 11 11.5885 11 10.4839C11 9.37932 10.1046 8.48389 9 8.48389C8.39824 8.48389 7.85856 8.74965 7.49191 9.1702L3.93896 6.97617C3.97882 6.81869 4 6.65376 4 6.48389C4 6.34143 3.98511 6.20245 3.95679 6.06842L7.54292 3.8539C7.9077 4.24172 8.42557 4.48389 9 4.48389C10.1046 4.48389 11 3.58846 11 2.48389C11 1.37932 10.1046 0.483886 9 0.483886C7.89543 0.483886 7 1.37932 7 2.48389C7 2.65376 7.02118 2.81869 7.06104 2.97617L3.50809 5.1702ZM10 2.48389C10 1.9316 9.55228 1.48389 9 1.48389C8.44772 1.48389 8 1.9316 8 2.48389C8 3.03617 8.44772 3.48389 9 3.48389C9.55228 3.48389 10 3.03617 10 2.48389ZM9 9.48389C9.55228 9.48389 10 9.9316 10 10.4839C10 11.0362 9.55228 11.4839 9 11.4839C8.44772 11.4839 8 11.0362 8 10.4839C8 9.9316 8.44772 9.48389 9 9.48389Z" fill="#707274"/>
</svg>
