<svg width="13" height="13" viewBox="0 0 13 13" fill="none" xmlns="http://www.w3.org/2000/svg">
<path d="M5.88698 11.0533L5.87607 11.0426L5.86454 11.0325C4.18208 9.57251 2.83126 8.38402 1.89623 7.26802C0.966606 6.15848 0.5 5.18026 0.5 4.14702C0.5 2.47427 1.81221 1.17334 3.541 1.17334C4.48958 1.17334 5.44603 1.61493 6.05956 2.32623L6.43818 2.76518L6.81679 2.32623C7.43032 1.61493 8.38677 1.17334 9.33535 1.17334C11.0641 1.17334 12.3764 2.47427 12.3764 4.14702C12.3764 5.18026 11.9097 6.15848 10.9801 7.26802C10.0451 8.38402 8.69427 9.57251 7.01181 11.0325L7.00028 11.0426L6.98938 11.0533L6.43818 11.594L5.88698 11.0533Z" stroke="#707274"/>
</svg>
