<svg width="14" height="9" viewBox="0 0 14 9" fill="none" xmlns="http://www.w3.org/2000/svg">
<path d="M7.39895 7.63403L7.39813 7.63408C5.47586 7.7527 3.86681 6.195 3.98938 4.279L7.39895 7.63403ZM7.39895 7.63403C8.98826 7.53335 10.2884 6.26838 10.3923 4.68988L10.3923 4.68898M7.39895 7.63403L10.3923 4.68898M10.3923 4.68898C10.515 2.77298 8.90602 1.21523 6.98378 1.33373L10.3923 4.68898ZM7.25542 5.41116L7.2549 5.4112C6.66311 5.4477 6.19889 4.97357 6.23577 4.42439L6.23591 4.42222C6.2643 3.97004 6.64485 3.58533 7.13004 3.55401C7.72155 3.51786 8.18545 3.99185 8.14859 4.54085L8.14856 4.5413C8.11822 4.99929 7.73518 5.38207 7.25542 5.41116ZM1.25467 4.48263C2.83018 2.43307 4.92444 1.21912 7.19086 1.21912C9.4573 1.21912 11.5516 2.4331 13.127 4.4852C11.5515 6.53475 9.45728 7.74871 7.19086 7.74871C4.92442 7.74871 2.83016 6.53473 1.25467 4.48263ZM6.98359 1.33374C5.39101 1.43148 4.09025 2.69703 3.98939 4.27885L6.98359 1.33374Z" stroke="#707274"/>
</svg>
