<svg width="20" height="20" viewBox="0 0 20 20" fill="none" xmlns="http://www.w3.org/2000/svg">
<path d="M11.4286 9.48714L13.03 7.88714C13.2992 7.62672 13.66 7.48247 14.0346 7.48546C14.4092 7.48844 14.7676 7.63843 15.0326 7.90311C15.2977 8.1678 15.4482 8.526 15.4517 8.90057C15.4552 9.27514 15.3115 9.6361 15.0514 9.90571L11.01 13.9471C10.8776 14.0803 10.7203 14.1859 10.5469 14.258C10.3736 14.3301 10.1877 14.3672 10 14.3672C9.81227 14.3672 9.6264 14.3301 9.45307 14.258C9.27973 14.1859 9.12236 14.0803 8.99 13.9471L4.94857 9.90571C4.81594 9.77289 4.71076 9.61525 4.63905 9.44178C4.56734 9.26831 4.5305 9.08241 4.53063 8.8947C4.5309 8.51561 4.68175 8.15215 4.95 7.88429C5.21825 7.61642 5.58192 7.46608 5.96101 7.46635C6.3401 7.46662 6.70356 7.61747 6.97143 7.88572L8.57143 9.48714V1.42857C8.57143 1.04969 8.72194 0.686328 8.98985 0.418419C9.25776 0.15051 9.62112 0 10 0C10.3789 0 10.7422 0.15051 11.0102 0.418419C11.2781 0.686328 11.4286 1.04969 11.4286 1.42857V9.48714ZM1.42857 17.1429H18.5714C18.9503 17.1429 19.3137 17.2934 19.5816 17.5613C19.8495 17.8292 20 18.1925 20 18.5714C20 18.9503 19.8495 19.3137 19.5816 19.5816C19.3137 19.8495 18.9503 20 18.5714 20H1.42857C1.04969 20 0.686328 19.8495 0.418419 19.5816C0.15051 19.3137 0 18.9503 0 18.5714C0 18.1925 0.15051 17.8292 0.418419 17.5613C0.686328 17.2934 1.04969 17.1429 1.42857 17.1429Z" fill="white"/>
</svg>
