<?xml version="1.0" encoding="UTF-8" standalone="no"?>
<svg
   xmlns:dc="http://purl.org/dc/elements/1.1/"
   xmlns:cc="http://creativecommons.org/ns#"
   xmlns:rdf="http://www.w3.org/1999/02/22-rdf-syntax-ns#"
   xmlns:svg="http://www.w3.org/2000/svg"
   xmlns="http://www.w3.org/2000/svg"
   xmlns:sodipodi="http://sodipodi.sourceforge.net/DTD/sodipodi-0.dtd"
   xmlns:inkscape="http://www.inkscape.org/namespaces/inkscape"
   width="24"
   height="18"
   viewBox="0 0 24 18"
   fill="none"
   version="1.1"
   id="svg6"
   sodipodi:docname="feb-top-btn-icon_2.svg"
   inkscape:version="0.92.3 (2405546, 2018-03-11)">
  <metadata
     id="metadata12">
    <rdf:RDF>
      <cc:Work
         rdf:about="">
        <dc:format>image/svg+xml</dc:format>
        <dc:type
           rdf:resource="http://purl.org/dc/dcmitype/StillImage" />
        <dc:title></dc:title>
      </cc:Work>
    </rdf:RDF>
  </metadata>
  <defs
     id="defs10" />
  <sodipodi:namedview
     pagecolor="#ffffff"
     bordercolor="#666666"
     borderopacity="1"
     objecttolerance="10"
     gridtolerance="10"
     guidetolerance="10"
     inkscape:pageopacity="0"
     inkscape:pageshadow="2"
     inkscape:window-width="1600"
     inkscape:window-height="851"
     id="namedview8"
     showgrid="false"
     inkscape:zoom="11.791667"
     inkscape:cx="-11.194346"
     inkscape:cy="9"
     inkscape:window-x="0"
     inkscape:window-y="25"
     inkscape:window-maximized="1"
     inkscape:current-layer="svg6" />
  <path
     d="M17.3203 0H12C11.8273 0 11.6561 0.00649038 11.4868 0.0191106C11.3253 0.0313702 11.1656 0.049399 11.0074 0.0726563C10.9905 0.0751803 10.9737 0.0777043 10.9567 0.0804087C10.8159 0.102224 10.6765 0.128546 10.5386 0.159014C10.3995 0.189663 10.2621 0.224639 10.1265 0.263762C10.054 0.284495 9.98199 0.306671 9.91058 0.329928C9.80237 0.365084 9.69525 0.402945 9.58942 0.443329C9.56818 0.451442 9.54694 0.459736 9.52588 0.468029C9.44037 0.501743 9.35577 0.537079 9.27209 0.574038C9.16718 0.620373 9.06354 0.669231 8.96173 0.720613C8.9035 0.75 8.84583 0.780469 8.7887 0.811659C8.71893 0.849339 8.65009 0.888281 8.58215 0.928486C8.45764 1.00168 8.33569 1.07885 8.21667 1.1598C8.16577 1.19441 8.1156 1.22957 8.06561 1.26544C8.02258 1.29645 7.9801 1.32782 7.93799 1.35974C7.90155 1.38714 7.86566 1.4149 7.82996 1.44303C7.74554 1.50974 7.66278 1.57825 7.58185 1.64874C7.53607 1.68858 7.49085 1.72915 7.44617 1.77007C7.3905 1.82127 7.33557 1.87284 7.28174 1.92584C7.28082 1.92674 7.27991 1.92764 7.27899 1.92855C7.22022 1.98624 7.1629 2.04555 7.10632 2.10541C7.05835 2.15643 7.01093 2.20781 6.9646 2.26028C6.91132 2.32031 6.8595 2.38161 6.80841 2.44363C6.73297 2.5354 6.65973 2.62915 6.58942 2.72488C6.49585 2.85162 6.40704 2.98197 6.32282 3.11538C6.14484 3.39718 5.98773 3.69321 5.85406 4.00114C5.84491 4.02242 5.83612 4.04369 5.82715 4.06496C5.72058 4.31755 5.62994 4.57806 5.55579 4.84525C5.41699 5.34501 5.33643 5.86821 5.32251 6.40745C5.32104 6.4637 5.32031 6.52031 5.32031 6.57692C5.32031 6.63353 5.32104 6.68996 5.32251 6.74639C5.33807 7.3518 5.43768 7.93702 5.60925 8.49141C5.67242 8.69495 5.74512 8.89417 5.82715 9.08888C5.83612 9.11016 5.84491 9.13143 5.85406 9.15252C5.98773 9.46064 6.14484 9.75649 6.32282 10.0385C6.40704 10.1719 6.49585 10.302 6.58942 10.429C6.65991 10.5247 6.73297 10.6184 6.80841 10.7102C6.8595 10.7722 6.91132 10.8334 6.9646 10.8936C7.01093 10.9459 7.05835 10.9974 7.10632 11.0483C7.14533 11.0895 7.18488 11.1305 7.22498 11.1709C7.26233 11.2085 7.30005 11.2457 7.33832 11.2825C7.37384 11.3165 7.40973 11.3502 7.44598 11.3836C7.49066 11.4247 7.53589 11.4651 7.58167 11.5049C7.66278 11.5754 7.74554 11.6441 7.82996 11.7106C7.86566 11.7388 7.90155 11.7665 7.93781 11.7939C7.9801 11.826 8.02258 11.8574 8.06561 11.8882C8.11542 11.9243 8.16577 11.9594 8.21667 11.9941C8.33569 12.0748 8.45764 12.152 8.58197 12.2254C8.65009 12.2654 8.71893 12.3045 8.78851 12.3422C8.84583 12.3732 8.90332 12.4037 8.96155 12.4331C9.06354 12.4846 9.16699 12.5333 9.27191 12.5798C9.35577 12.6168 9.44037 12.6521 9.52588 12.6858C9.54694 12.6941 9.56818 12.7022 9.58942 12.7103C9.69525 12.7509 9.80237 12.7886 9.91058 12.8239C9.98199 12.847 10.054 12.8692 10.1265 12.8901C10.2621 12.9292 10.3995 12.9642 10.5385 12.9948C10.6763 13.0251 10.8157 13.0514 10.9567 13.0734C10.9735 13.076 10.9905 13.0785 11.0074 13.081C11.1656 13.1044 11.3253 13.1225 11.4868 13.1346C11.6561 13.1474 11.8273 13.1538 12 13.1538C12.9694 13.1538 13.7578 12.3775 13.7578 11.4231C13.7578 10.4686 12.9694 9.69231 12 9.69231C11.4558 9.69231 10.9431 9.55619 10.4954 9.31695C10.4828 9.31028 10.4707 9.30289 10.4583 9.29603C10.203 9.15505 9.96918 8.98107 9.76373 8.77879C9.61761 8.6351 9.48596 8.47716 9.37061 8.30769C9.03314 7.81226 8.83594 7.21695 8.83594 6.57692C8.83594 5.9369 9.03314 5.34159 9.37061 4.84615C9.93896 4.01196 10.9052 3.46154 12 3.46154H17.3203C19.0649 3.46154 20.4844 4.85913 20.4844 6.57692C20.4844 7.4095 20.1502 8.16635 19.6078 8.72578C19.9171 9.56863 20.0859 10.4767 20.0859 11.4231C20.0859 11.8237 20.0554 12.2172 19.9971 12.602C22.3515 11.5839 24 9.26665 24 6.57692C24 2.95042 21.0035 0 17.3203 0Z"
     fill="white"
     id="path2"
     style="fill:#000000" />
  <path
     d="M18.3907 9.50841C18.3278 9.30487 18.2549 9.10565 18.1729 8.91112C18.1432 8.84062 18.1124 8.77049 18.0804 8.70126C18.0494 8.63474 18.0172 8.56875 17.9841 8.50313C17.9506 8.43678 17.9161 8.37079 17.8804 8.30589C17.8226 8.20024 17.7616 8.09657 17.6982 7.99471C17.5975 7.83317 17.4901 7.67632 17.3762 7.52452C17.3507 7.49062 17.3249 7.45691 17.2987 7.42356C17.0598 7.11725 16.7943 6.83203 16.5051 6.57169C16.4908 6.55871 16.4764 6.54591 16.4619 6.53329C16.2936 6.38419 16.1175 6.24339 15.9344 6.1116C15.8846 6.07572 15.8342 6.04057 15.7833 6.00595C15.5457 5.84441 15.297 5.6973 15.0385 5.56677C14.9837 5.53918 14.9286 5.5125 14.8731 5.48636C14.7424 5.42488 14.6094 5.36737 14.4743 5.31418C14.4531 5.30589 14.4318 5.2976 14.4106 5.28948C14.2963 5.24585 14.1808 5.20529 14.0636 5.16779C14.009 5.1503 13.9543 5.13353 13.899 5.11731C13.7468 5.07278 13.5925 5.03347 13.4361 4.99958C13.3154 4.97362 13.1937 4.95072 13.0708 4.93107C13.0389 4.92602 13.0071 4.92097 12.975 4.91647C12.8227 4.89447 12.6689 4.87716 12.5132 4.86544C12.3439 4.85264 12.1727 4.84615 12 4.84615C11.0306 4.84615 10.2422 5.62248 10.2422 6.57692C10.2422 7.53137 11.0306 8.30769 12 8.30769C12.2386 8.30769 12.4708 8.33474 12.6943 8.38413C12.8112 8.4101 12.9254 8.44219 13.0369 8.48041C13.0728 8.49267 13.1083 8.50565 13.1435 8.51899C13.6022 8.69477 14.0096 8.97224 14.3361 9.32416C14.343 9.33155 14.3496 9.3393 14.3564 9.34688C14.4097 9.40529 14.4604 9.46587 14.5091 9.52824C14.53 9.55511 14.5503 9.58233 14.5704 9.60974C14.5904 9.63714 14.6104 9.66436 14.6294 9.69231C14.9669 10.1876 15.1641 10.7831 15.1641 11.4231C15.1641 13.1409 13.7446 14.5385 12 14.5385H6.67969C4.93506 14.5385 3.51563 13.1409 3.51563 11.4231C3.51563 10.5903 3.84979 9.83365 4.39215 9.27404C4.08307 8.43137 3.91406 7.52326 3.91406 6.57692C3.91406 6.17632 3.94464 5.78275 4.00287 5.39802C1.6485 6.41611 0 8.73335 0 11.4231C0 15.0496 2.99652 18 6.67969 18H12C12.1727 18 12.3439 17.9935 12.5132 17.9809C12.6687 17.9692 12.8227 17.9517 12.975 17.9297C13.0069 17.9252 13.0388 17.9201 13.0708 17.9151C13.1937 17.8956 13.3154 17.8725 13.4359 17.8466C13.5923 17.8127 13.7468 17.7734 13.899 17.7288C13.9541 17.7128 14.0089 17.6959 14.0634 17.6784C14.1806 17.6409 14.2963 17.6003 14.4104 17.5567C14.4318 17.5486 14.4529 17.5404 14.4741 17.532C14.6093 17.4788 14.7424 17.4215 14.8729 17.3598C14.9284 17.3337 14.9837 17.307 15.0383 17.2794C15.2968 17.1489 15.5455 17.0017 15.7831 16.8402C15.834 16.8058 15.8844 16.7704 15.9342 16.7346C16.1173 16.6028 16.2935 16.4621 16.4619 16.313C16.4762 16.3002 16.4907 16.2874 16.5049 16.2746C16.5765 16.2101 16.6469 16.1441 16.7155 16.0767C16.7173 16.0749 16.7192 16.0733 16.721 16.0715C16.9276 15.8681 17.1204 15.6512 17.2985 15.4228C17.3247 15.3892 17.3505 15.3557 17.376 15.3218C17.4899 15.1698 17.5975 15.013 17.6981 14.8516C17.7616 14.7496 17.8224 14.6459 17.8802 14.5404C17.9161 14.4754 17.9504 14.4094 17.9839 14.343C18.017 14.2776 18.0493 14.2116 18.0802 14.1449C18.1124 14.0757 18.143 14.0055 18.1729 13.9352C18.2792 13.6825 18.3701 13.4219 18.4442 13.1547C18.5828 12.655 18.6634 12.1318 18.6773 11.5927C18.6788 11.5363 18.6795 11.4799 18.6795 11.4233C18.6795 11.3665 18.6788 11.31 18.6773 11.2536C18.6619 10.6482 18.5623 10.063 18.3907 9.50841Z"
     fill="white"
     id="path4"
     style="fill:#000000" />
</svg>
