<svg width="26" height="22" viewBox="0 0 26 22" fill="none" xmlns="http://www.w3.org/2000/svg">
<path d="M3.69474 0H10.6053C10.8699 0 11.0842 0.215381 11.0842 0.48125V18.2875C11.0842 18.5534 10.8699 18.7688 10.6053 18.7688H3.69474C3.43014 18.7688 3.21579 18.5534 3.21579 18.2875V0.48125C3.21579 0.215381 3.43014 0 3.69474 0Z" fill="#333333"/>
<path d="M15.3947 6.94375H21.6895C21.9541 6.94375 22.1684 7.15913 22.1684 7.425V18.3563C22.1684 18.6221 21.9541 18.8375 21.6895 18.8375H15.3947C15.1301 18.8375 14.9158 18.6221 14.9158 18.3563V7.425C14.9158 7.15913 15.1301 6.94375 15.3947 6.94375Z" fill="#333333"/>
<path d="M0 21.0375H26V22H0V21.0375Z" fill="#333333"/>
</svg>
