<?xml version="1.0" encoding="UTF-8"?>
<svg width="24" height="18" fill="none" version="1.1" viewBox="0 0 24 18" xmlns="http://www.w3.org/2000/svg" xmlns:cc="http://creativecommons.org/ns#" xmlns:dc="http://purl.org/dc/elements/1.1/" xmlns:rdf="http://www.w3.org/1999/02/22-rdf-syntax-ns#">
 <metadata>
  <rdf:RDF>
   <cc:Work rdf:about="">
    <dc:format>image/svg+xml</dc:format>
    <dc:type rdf:resource="http://purl.org/dc/dcmitype/StillImage"/>
    <dc:title/>
   </cc:Work>
  </rdf:RDF>
 </metadata>
 <path d="m17.32 0h-5.3203c-0.1727 0-0.3439 0.0064904-0.5132 0.019111-0.1615 0.01226-0.3212 0.030288-0.4794 0.053546-0.0169 0.002524-0.0337 0.005048-0.0507 0.0077524-0.1408 0.021815-0.2802 0.048137-0.4181 0.078605-0.1391 0.030649-0.2765 0.065625-0.4121 0.10475-0.0725 0.020733-0.14451 0.042909-0.21592 0.066166-0.10821 0.035156-0.21533 0.073017-0.32116 0.1134-0.02124 0.008113-0.04248 0.016407-0.06354 0.0247-0.08551 0.033714-0.17011 0.06905-0.25379 0.10601-0.10491 0.046335-0.20855 0.095193-0.31036 0.14658-0.05823 0.029387-0.1159 0.059856-0.17303 0.091046-0.06977 0.03768-0.13861 0.076622-0.20655 0.11683-0.12451 0.073194-0.24646 0.15036-0.36548 0.23131-0.0509 0.03461-0.10107 0.06977-0.15106 0.10564-0.04303 0.03101-0.08551 0.06238-0.12762 0.0943-0.03644 0.0274-0.07233 0.05516-0.10803 0.08329-0.08442 0.06671-0.16718 0.13522-0.24811 0.20571-0.04578 0.03984-0.091 0.08041-0.13568 0.12133-0.05567 0.0512-0.1106 0.10277-0.16443 0.15577-9.2e-4 9e-4 -0.00183 0.0018-0.00275 0.00271-0.05877 0.05769-0.11609 0.117-0.17267 0.17686-0.04797 0.05102-0.09539 0.1024-0.14172 0.15487-0.05328 0.06003-0.1051 0.12133-0.15619 0.18335-0.07544 0.09177-0.14868 0.18552-0.21899 0.28125-0.09357 0.12674-0.18238 0.25709-0.2666 0.3905-0.17798 0.2818-0.33509 0.57783-0.46876 0.88576-0.00915 0.02128-0.01794 0.04255-0.02691 0.06382-0.10657 0.25259-0.19721 0.5131-0.27136 0.78029-0.1388 0.49976-0.21936 1.023-0.23328 1.5622-0.00147 0.05625-0.0022 0.11286-0.0022 0.16947s7.3e-4 0.11304 0.0022 0.16947c0.01556 0.60541 0.11517 1.1906 0.28674 1.745 0.06317 0.20354 0.13587 0.40276 0.2179 0.59747 0.00897 0.02128 0.01776 0.04255 0.02691 0.06364 0.13367 0.30812 0.29078 0.60397 0.46876 0.88598 0.08422 0.1334 0.17303 0.2635 0.2666 0.3905 0.07049 0.0957 0.14355 0.1894 0.21899 0.2812 0.05109 0.062 0.10291 0.1232 0.15619 0.1834 0.04633 0.0523 0.09375 0.1038 0.14172 0.1547 0.03901 0.0412 0.07856 0.0822 0.11866 0.1226 0.03735 0.0376 0.07507 0.0748 0.11334 0.1116 0.03552 0.034 0.07141 0.0677 0.10766 0.1011 0.04468 0.0411 0.08991 0.0815 0.13569 0.1213 0.08111 0.0705 0.16387 0.1392 0.24829 0.2057 0.0357 0.0282 0.07159 0.0559 0.10785 0.0833 0.04229 0.0321 0.08477 0.0635 0.1278 0.0943 0.04981 0.0361 0.10016 0.0712 0.15106 0.1059 0.11902 0.0807 0.24097 0.1579 0.3653 0.2313 0.06812 0.04 0.13696 0.0791 0.20654 0.1168 0.05732 0.031 0.11481 0.0615 0.17304 0.0909 0.10199 0.0515 0.20544 0.1002 0.31036 0.1467 0.08386 0.037 0.16846 0.0723 0.25397 0.106 0.02106 0.0083 0.0423 0.0164 0.06354 0.0245 0.10583 0.0406 0.21295 0.0783 0.32116 0.1136 0.07141 0.0231 0.14342 0.0453 0.21592 0.0662 0.1356 0.0391 0.273 0.0741 0.412 0.1047 0.1378 0.0303 0.2772 0.0566 0.4182 0.0786 0.0168 0.0026 0.0338 0.0051 0.0507 0.0076 0.1582 0.0234 0.3179 0.0415 0.4794 0.0536 0.1693 0.0128 0.3405 0.0192 0.5132 0.0192 0.9694 0 1.7578-0.7763 1.7578-1.7307 0-0.9545-0.7884-1.7308-1.7578-1.7308-0.5442 0-1.0569-0.13612-1.5046-0.37536-0.0126-0.00667-0.0247-0.01406-0.0371-0.02092-0.2553-0.14098-0.48912-0.31496-0.69457-0.51724-0.14612-0.14369-0.27777-0.30163-0.39312-0.4711-0.33747-0.49543-0.53467-1.0907-0.53467-1.7308 0-0.64002 0.1972-1.2353 0.53467-1.7308 0.56835-0.83419 1.5346-1.3846 2.6294-1.3846h5.3203c1.7446 0 3.1641 1.3976 3.1641 3.1154 0 0.83258-0.3342 1.5894-0.8766 2.1489 0.3093 0.84285 0.4781 1.7509 0.4781 2.6973 0 0.4006-0.0305 0.7941-0.0888 1.1789 2.3544-1.0181 4.0029-3.3354 4.0029-6.0251 0-3.6265-2.9965-6.5769-6.6797-6.5769z" fill="#fff"/>
 <path d="m18.391 9.5084c-0.0629-0.20354-0.1358-0.40276-0.2178-0.59729-0.0297-0.0705-0.0605-0.14063-0.0925-0.20986-0.031-0.06652-0.0632-0.13251-0.0963-0.19813-0.0335-0.06635-0.068-0.13234-0.1037-0.19724-0.0578-0.10565-0.1188-0.20932-0.1822-0.31118-0.1007-0.16154-0.2081-0.31839-0.322-0.47019-0.0255-0.0339-0.0513-0.06761-0.0775-0.10096-0.2389-0.30631-0.5044-0.59153-0.7936-0.85187-0.0143-0.01298-0.0287-0.02578-0.0432-0.0384-0.1683-0.1491-0.3444-0.2899-0.5275-0.42169-0.0498-0.03588-0.1002-0.07103-0.1511-0.10565-0.2376-0.16154-0.4863-0.30865-0.7448-0.43918-0.0548-0.02759-0.1099-0.05427-0.1654-0.08041-0.1307-0.06148-0.2637-0.11899-0.3988-0.17218-0.0212-0.00829-0.0425-0.01658-0.0637-0.0247-0.1143-0.04363-0.2298-0.08419-0.347-0.12169-0.0546-0.01749-0.1093-0.03426-0.1646-0.05048-0.1522-0.04453-0.3065-0.08384-0.4629-0.11773-0.1207-0.02596-0.2424-0.04886-0.3653-0.06851-0.0319-0.00505-0.0637-0.0101-0.0958-0.0146-0.1523-0.022-0.3061-0.03931-0.4618-0.05103-0.1693-0.0128-0.3405-0.01929-0.5132-0.01929-0.9694 0-1.7578 0.77633-1.7578 1.7308 0 0.95445 0.7884 1.7308 1.7578 1.7308 0.2386 0 0.4708 0.02705 0.6943 0.07644 0.1169 0.02597 0.2311 0.05806 0.3426 0.09628 0.0359 0.01226 0.0714 0.02524 0.1066 0.03858 0.4587 0.17578 0.8661 0.45325 1.1926 0.80517 0.0069 0.00739 0.0135 0.01514 0.0203 0.02272 0.0533 0.05841 0.104 0.11899 0.1527 0.18136 0.0209 0.02687 0.0412 0.05409 0.0613 0.0815 0.02 0.0274 0.04 0.05462 0.059 0.08257 0.3375 0.49529 0.5347 1.0908 0.5347 1.7308 0 1.7178-1.4195 3.1154-3.1641 3.1154h-5.3203c-1.7446 0-3.1641-1.3976-3.1641-3.1154 0-0.8328 0.33416-1.5894 0.87652-2.1491-0.30908-0.84267-0.47809-1.7508-0.47809-2.6971 0-0.4006 0.03058-0.79417 0.08881-1.1789-2.3544 1.0181-4.0029 3.3353-4.0029 6.0251 0 3.6265 2.9965 6.5769 6.6797 6.5769h5.3203c0.1727 0 0.3439-0.0065 0.5132-0.0191 0.1555-0.0117 0.3095-0.0292 0.4618-0.0512 0.0319-0.0045 0.0638-0.0096 0.0958-0.0146 0.1229-0.0195 0.2446-0.0426 0.3651-0.0685 0.1564-0.0339 0.3109-0.0732 0.4631-0.1178 0.0551-0.016 0.1099-0.0329 0.1644-0.0504 0.1172-0.0375 0.2329-0.0781 0.347-0.1217 0.0214-0.0081 0.0425-0.0163 0.0637-0.0247 0.1352-0.0532 0.2683-0.1105 0.3988-0.1722 0.0555-0.0261 0.1108-0.0528 0.1654-0.0804 0.2585-0.1305 0.5072-0.2777 0.7448-0.4392 0.0509-0.0344 0.1013-0.0698 0.1511-0.1056 0.1831-0.1318 0.3593-0.2725 0.5277-0.4216 0.0143-0.0128 0.0288-0.0256 0.043-0.0384 0.0716-0.0645 0.142-0.1305 0.2106-0.1979 0.0018-0.0018 0.0037-0.0034 0.0055-0.0052 0.2066-0.2034 0.3994-0.4203 0.5775-0.6487 0.0262-0.0336 0.052-0.0671 0.0775-0.101 0.1139-0.152 0.2215-0.3088 0.3221-0.4702 0.0635-0.102 0.1243-0.2057 0.1821-0.3112 0.0359-0.065 0.0702-0.131 0.1037-0.1974 0.0331-0.0654 0.0654-0.1314 0.0963-0.1981 0.0322-0.0692 0.0628-0.1394 0.0927-0.2097 0.1063-0.2527 0.1972-0.5133 0.2713-0.7805 0.1386-0.4997 0.2192-1.0229 0.2331-1.562 0.0015-0.0564 0.0022-0.1128 0.0022-0.1694 0-0.0568-7e-4 -0.1133-0.0022-0.1697-0.0154-0.6054-0.115-1.1906-0.2866-1.7452z" fill="#fff"/>
</svg>
