<svg width="16" height="14" viewBox="0 0 16 14" fill="none" xmlns="http://www.w3.org/2000/svg">
<path fill-rule="evenodd" clip-rule="evenodd" d="M0 1.10526C0 0.494843 0.467181 0 1.04348 0H14.9565C15.5328 0 16 0.494843 16 1.10526C16 1.71568 15.5328 2.21053 14.9565 2.21053H1.04348C0.467181 2.21053 0 1.71568 0 1.10526ZM2.78261 7C2.78261 6.38958 3.24979 5.89474 3.82609 5.89474H12.1739C12.7502 5.89474 13.2174 6.38958 13.2174 7C13.2174 7.61042 12.7502 8.10526 12.1739 8.10526H3.82609C3.24979 8.10526 2.78261 7.61042 2.78261 7ZM5.56522 12.8947C5.56522 12.2843 6.0324 11.7895 6.6087 11.7895H9.3913C9.9676 11.7895 10.4348 12.2843 10.4348 12.8947C10.4348 13.5052 9.9676 14 9.3913 14H6.6087C6.0324 14 5.56522 13.5052 5.56522 12.8947Z" fill="#333333"/>
</svg>
