<svg width="40" height="40" viewBox="0 0 40 40" fill="none" xmlns="http://www.w3.org/2000/svg"><circle cx="20" cy="20" r="20" fill="#F6C358"/><g clip-path="url(#clip0)"><path d="M30.293 14.083h-2.811a2.509 2.509 0 00.271-2.409c-.311-.771-.971-1.344-1.81-1.57a2.884 2.884 0 00-2.462.445l-3.014 2.193-3.015-2.193a2.884 2.884 0 00-2.462-.446c-.839.227-1.498.8-1.81 1.571a2.51 2.51 0 00.271 2.409h-2.81c-.354 0-.641.274-.641.612v4.898c0 .338.287.612.64.612h.642v9.183c0 .338.287.612.64.612h17.089c.354 0 .64-.274.64-.612v-9.183h.642c.353 0 .64-.274.64-.612v-4.898a.627.627 0 00-.64-.612zm-9.185-.268l3.15-2.292c.384-.28.871-.367 1.337-.242a1.42 1.42 0 011.009.966c.127.424.038.873-.244 1.232a1.54 1.54 0 01-1.215.586c-.052 0-.406.018-.406.018h-3.632v-.268zm0 2.809l1.74 2.357h-1.74v-2.357zm-6.779-4.377a1.42 1.42 0 011.01-.966 1.566 1.566 0 011.337.242l3.15 2.292v.268h-3.631s-.355-.017-.407-.018a1.54 1.54 0 01-1.215-.586 1.347 1.347 0 01-.244-1.232zm-3.047 6.734v-3.674h8.544v3.674h-8.544zm17.088 9.795H12.563v-8.571h7.263v4.285c0 .338.287.613.64.613.355 0 .642-.275.642-.613v-4.285h2.645l1.317 1.782a.66.66 0 00.893.147.595.595 0 00.154-.854l-.795-1.075h3.048v8.57zm1.282-9.795h-5.235l-2.714-3.674h7.949v3.674z" fill="#fff"/></g><defs><clipPath id="clip0"><path fill="#fff" d="M10 10h20.933v20H10z"/></clipPath></defs></svg>