<svg width="40" height="40" viewBox="0 0 40 40" fill="none" xmlns="http://www.w3.org/2000/svg">
<circle cx="20" cy="20" r="20" fill="#2E7CC4"/>
<g clip-path="url(#clip0)">
<path d="M29.3878 14.083H26.7024C27.1302 13.4379 27.2541 12.6549 27.041 11.9104C27.0297 11.8706 26.9771 11.7137 26.9618 11.6741C26.664 10.9026 26.0337 10.33 25.2327 10.1033C24.4142 9.87167 23.5567 10.0342 22.8803 10.5492L20 12.7421L17.1197 10.5492C16.4433 10.0342 15.586 9.87163 14.7673 10.1033C13.9662 10.3301 13.336 10.9026 13.0383 11.674C13.0235 11.7122 12.9704 11.8705 12.9591 11.9101C12.7459 12.6548 12.8698 13.4379 13.2976 14.083H10.6122C10.2741 14.083 10 14.3571 10 14.6952V19.5928C10 19.9309 10.2741 20.205 10.6122 20.205H11.2245V29.3879C11.2245 29.726 11.4986 30.0001 11.8367 30.0001H28.1633C28.5014 30.0001 28.7755 29.726 28.7755 29.3879V20.205H29.3878C29.7259 20.205 30 19.9309 30 19.5928V14.6952C30 14.3571 29.7259 14.083 29.3878 14.083ZM20.6122 13.8149L23.6221 11.5233C23.9892 11.2438 24.4547 11.1556 24.8992 11.2815C25.3262 11.4023 25.6616 11.7061 25.8192 12.1144C25.8276 12.1361 25.8573 12.2248 25.8637 12.2471C25.9851 12.671 25.9001 13.12 25.6306 13.4789C25.3521 13.8498 24.9291 14.0636 24.4699 14.0654C24.4203 14.0656 24.0816 14.083 24.0816 14.083H20.6122V13.8149H20.6122ZM20.6122 16.624L22.2758 18.9806H20.6122V16.624ZM14.1362 12.2471C14.1426 12.2249 14.1722 12.1366 14.1806 12.115C14.3384 11.7061 14.6738 11.4023 15.1008 11.2815C15.5453 11.1556 16.0107 11.2438 16.3779 11.5233L19.3878 13.8149V14.083H15.9184C15.9184 14.083 15.5797 14.0656 15.53 14.0654C15.0709 14.0636 14.6479 13.8498 14.3694 13.4789C14.0999 13.12 14.0149 12.671 14.1362 12.2471ZM11.2245 18.9806V15.3074H19.3878V18.9806H11.2245ZM27.551 28.7757H12.449V20.205H19.3878V24.4904C19.3878 24.8285 19.6619 25.1026 20 25.1026C20.3381 25.1026 20.6122 24.8285 20.6122 24.4904V20.205H23.1402L24.3978 21.9865C24.5929 22.2627 24.9749 22.3285 25.2511 22.1336C25.5273 21.9386 25.5932 21.5566 25.3982 21.2804L24.6389 20.205H27.551V28.7757ZM28.7755 18.9806H23.7747L21.1816 15.3074H28.7755V18.9806Z" fill="white"/>
</g>
<defs>
<clipPath id="clip0">
<rect width="20" height="20" fill="white" transform="translate(10 10)"/>
</clipPath>
</defs>
</svg>
