<svg width="120" height="120" viewBox="0 0 120 120" fill="none" xmlns="http://www.w3.org/2000/svg">
<g clip-path="url(#clip0)">
<path d="M60 107C85.9574 107 107 85.9574 107 60C107 34.0426 85.9574 13 60 13C34.0426 13 13 34.0426 13 60C13 85.9574 34.0426 107 60 107Z" fill="url(#paint0_linear)" fill-opacity="0.3"/>
<path d="M94.6566 29.8417C101.979 38.1966 106.016 48.9245 106.016 60.0305C106.016 71.1364 101.979 81.8643 94.6566 90.2193C93.2204 91.8938 91.6553 93.4536 89.9756 94.8843L87.7692 96.7113C87.2572 97.0889 86.733 97.4665 86.1723 97.8441C83.3844 99.7881 80.3923 101.422 77.2491 102.716C66.0717 107.193 53.5887 107.145 42.4462 102.582C39.3888 101.261 36.4762 99.6288 33.7546 97.7101L32.2064 96.5895C31.4141 95.9805 30.6705 95.3715 29.9147 94.7138C28.2255 93.2635 26.6485 91.6878 25.1971 90C18.0171 81.6583 14.0687 71.0206 14.0687 60.0183C14.0687 49.0159 18.0171 38.3782 25.1971 30.0365C26.6517 28.3517 28.2285 26.7762 29.9147 25.3228C30.6705 24.665 31.4141 24.1048 32.2064 23.447C32.7184 23.0572 33.2426 22.6918 33.7546 22.3264C36.4866 20.4652 39.3983 18.882 42.4462 17.6005C53.5751 12.9738 66.0816 12.9213 77.2491 17.4543C80.3969 18.7138 83.3907 20.3279 86.1723 22.2655C86.733 22.6066 87.2572 23.0207 87.7692 23.3983C88.5128 23.9586 89.2686 24.5554 90.0122 25.1766L94.6566 29.8417ZM109.163 56.7113V56.4312C111.345 51.7174 115.465 51.5591 120 55.9196C120 48.7211 118.464 43.0207 114.99 39.7929C110.114 35.4446 104.97 38.2826 100.776 32.3752C100.288 27.2107 103.836 25.067 109.943 26.4799C106.286 20.3045 102.093 16.151 97.5091 15.0792C96.5758 14.8557 95.6117 14.7899 94.6566 14.8843C93.0596 15.0357 91.4874 15.3835 89.9756 15.9196C89.2393 16.1621 88.4905 16.3654 87.7326 16.5286C87.2064 16.6343 86.6722 16.6954 86.1357 16.7113C84.5255 16.7915 82.9218 16.4559 81.4791 15.7369C78.5412 11.5469 80.4551 8.01462 86.1357 6.16322C86.2531 6.1402 86.3648 6.0947 86.4649 6.02923C86.3623 5.96875 86.2514 5.92361 86.1357 5.89525C83.3561 4.24782 80.3497 3.01669 77.2125 2.24117C74.8138 1.62233 72.2971 1.62233 69.8984 2.24117C64.9492 3.92205 63.8033 8.03898 59.8903 9.95128C58.8901 10.4316 57.8131 10.7326 56.7087 10.8404H56.4283C51.7107 8.63581 51.5522 4.53106 55.9163 0C50.3941 0 45.7131 0.937881 42.3486 2.8989C41.4078 3.51164 40.5478 4.24004 39.7887 5.06699C35.8635 9.56151 37.8748 14.2266 33.6936 18.1973C33.2805 18.5888 32.8406 18.951 32.3771 19.2814H32.0967C31.3302 19.3319 30.5603 19.2869 29.805 19.1474C26.4892 18.3435 25.2824 15.0792 26.4892 10.1218L25.0874 10.9622C19.6627 14.3727 15.9691 18.2704 14.9817 22.4482C13.6774 28.916 18.7729 31.9488 15.6034 38.6236C11.3369 41.6565 7.692 39.6955 5.91223 33.6784C2.34051 39.9391 0.828931 45.676 2.19423 50.1705C4.29094 56.2607 10.0081 56.4312 10.8492 63.3861V63.6784C8.69159 68.3922 4.53474 68.5506 0 64.2387C0 71.3886 1.58472 77.1376 5.04673 80.3532C9.9228 84.6529 15.0792 81.827 19.2727 87.7467C19.7603 92.8867 16.2007 95.0548 10.0935 93.6297C13.7505 99.8417 17.9561 104.044 22.5396 105.079C23.3865 105.246 24.2486 105.324 25.1117 105.311C26.722 105.175 28.3078 104.831 29.8293 104.287C30.5851 104.044 31.3287 103.812 32.1211 103.63C32.6331 103.544 33.1573 103.435 33.6692 103.398C35.3537 103.304 37.0338 103.648 38.5453 104.397C41.4709 108.624 39.5449 112.205 33.6692 114.019C33.6373 114.028 33.6037 114.028 33.5717 114.019C33.5717 114.019 33.6692 114.019 33.6692 114.105C36.3901 115.705 39.3133 116.934 42.3608 117.759C44.8874 118.443 47.5507 118.443 50.0772 117.759C54.9533 116.115 56.0748 112.058 59.9025 110.134C60.9618 109.624 62.099 109.295 63.267 109.16H63.5473C68.2771 111.352 68.4234 115.469 64.0715 120C69.3499 120 73.8236 119.16 77.1638 117.345C78.305 116.722 79.3449 115.929 80.2479 114.994C84.1243 110.56 82.2105 105.993 86.087 102.058C86.6056 101.565 87.1687 101.121 87.7692 100.731C87.7376 100.742 87.7032 100.742 87.6717 100.731C87.6717 100.731 87.6717 100.731 87.7692 100.646C87.8667 100.56 87.7692 100.646 87.8545 100.646C87.8292 100.677 87.8006 100.706 87.7692 100.731C88.5183 100.694 89.2691 100.727 90.0122 100.828C93.5108 101.486 94.8883 104.799 93.6692 109.903C94.048 109.708 94.4107 109.484 94.7542 109.233C100.362 105.773 104.153 101.803 105.14 97.5152C106.445 91.011 101.337 88.0268 104.482 81.3398C104.482 81.3398 104.482 81.4373 104.482 81.4738C108.736 78.4897 112.381 80.4507 114.161 86.4312C117.818 80.2192 119.269 74.4702 117.903 69.9878C115.697 63.8612 109.943 63.6784 109.163 56.7113Z" fill="#BAB9B9"/>
<path d="M36.1318 81.5094C36.1318 81.0377 36.1318 80.6604 36.2262 80.1887C36.4149 79.0566 36.9809 78.0189 37.6413 77.0755C37.7356 76.9811 37.83 76.7924 37.9243 76.6981C38.0186 76.6038 38.2073 76.6038 38.3016 76.6038C38.962 76.6038 39.6224 76.6038 40.2828 76.6038C40.4715 76.6038 40.5658 76.6038 40.7545 76.6038C40.9432 76.6038 41.0375 76.7924 41.2262 76.8868C41.6979 77.2641 41.9809 77.7358 42.1696 78.3019C42.5469 79.434 42.1696 80.6604 41.7922 81.7924C41.6035 82.2641 41.5092 82.8302 41.3205 83.3019C41.2262 83.5849 41.1318 83.8679 40.9432 84.1509C40.5658 84.6226 39.9998 84.9057 39.5281 85.0943C38.7733 85.3774 38.0186 85.6604 37.3583 85.283C36.8866 85 36.6979 84.5283 36.5092 84.0566C36.2262 83.3019 36.1318 82.3585 36.1318 81.5094Z" fill="#F6C358"/>
<path d="M93.4902 65.8491C91.2261 68.3019 89.7167 69.3396 87.4525 71.7925C86.6034 72.7359 85.5657 73.7736 84.245 73.7736C84.0563 73.7736 83.7733 73.6793 83.5846 73.6793C82.7355 73.3962 82.0751 72.7359 81.5091 72.0755C79.1506 69.5283 76.8865 66.6981 74.1506 64.5283C71.2261 62.1698 67.6412 60.6604 64.9053 58.0189C63.7733 56.8868 61.8865 56.9811 60.377 56.7925C59.1506 56.6038 58.0185 57.1698 57.0751 57.9245C56.1317 58.6793 55.377 59.5283 54.3393 60.283C52.8299 61.4151 50.8487 61.8868 48.9619 61.7925C48.3959 61.6981 47.7355 61.6038 47.2638 61.2264C46.7921 60.8491 46.5091 60.1887 46.7921 59.6227C46.8865 59.3396 47.1695 59.0566 47.4525 58.8679C49.2449 56.9811 49.1506 53.5849 51.4148 52.2642C52.3582 51.6981 53.3959 51.6038 54.4336 51.2264C55.377 50.8491 56.2261 50.1887 57.0751 49.717C57.9242 49.2453 58.8676 48.9623 59.811 48.7736C61.4148 48.3962 63.1129 48.3962 64.811 48.3962C66.5091 48.3962 68.2072 48.4906 69.811 48.9623C71.0374 49.3396 72.1695 49.9057 73.4902 50.1887C75.377 50.5661 77.2638 50.0944 79.1506 49.8113C79.528 49.717 79.9053 49.717 80.1884 49.9057C80.377 50 80.5657 50.1887 80.66 50.283C81.2261 50.8491 81.8865 51.4151 82.4525 51.9811C86.7921 56.0378 91.2261 60.3774 93.4902 65.8491Z" fill="#F9B54C"/>
<path d="M93.4902 65.8491C91.2261 68.3019 89.7167 69.3396 87.4525 71.7925C86.6034 72.7359 85.5657 73.7736 84.245 73.7736C84.0563 73.7736 83.7733 73.6793 83.5846 73.6793C82.7355 73.3962 82.0751 72.7359 81.5091 72.0755C79.1506 69.5283 76.8865 66.6981 74.1506 64.5283C71.2261 62.1698 67.6412 60.6604 64.9053 58.0189C63.7733 56.8868 61.8865 56.9811 60.377 56.7925C59.1506 56.6038 58.0185 57.1698 57.0751 57.9245C56.1317 58.6793 55.377 59.5283 54.3393 60.283C52.8299 61.4151 50.8487 61.8868 48.9619 61.7925C48.7733 61.7925 48.5846 61.7925 48.3959 61.6981C48.0185 61.6038 47.5468 61.5095 47.2638 61.2264C46.7921 60.8491 46.5091 60.1887 46.7921 59.6227C46.8865 59.3396 47.1695 59.0566 47.4525 58.8679C48.3016 58.0189 48.6789 56.7925 49.1506 55.6604C49.6223 54.3396 50.1883 53.0189 51.4148 52.2642C52.3582 51.6981 53.4902 51.6038 54.4336 51.2264C55.377 50.8491 56.2261 50.1887 57.0751 49.717C57.9242 49.2453 58.8676 48.9623 59.811 48.7736C61.4148 48.3962 63.1129 48.3962 64.811 48.3962C66.5091 48.3962 68.2072 48.4906 69.811 48.9623C71.0374 49.3396 72.1695 50 73.4902 50.1887C75.377 50.5661 77.2638 50.0944 79.1506 49.8113C79.528 49.8113 79.9053 49.717 80.1884 49.9057C80.377 50 80.5657 50.1887 80.66 50.283C81.2261 50.8491 81.8865 51.4151 82.4525 51.9811C86.7921 56.0378 91.2261 60.3774 93.4902 65.8491Z" fill="#F9B54C"/>
<path d="M93.4902 65.8491C91.2261 68.3019 89.7167 69.3396 87.4525 71.7925C86.6034 72.7359 85.5657 73.7736 84.245 73.7736C84.0563 73.7736 83.7733 73.6793 83.5846 73.6793C82.7355 73.3962 82.0751 72.7359 81.5091 72.0755C79.1506 69.5283 76.8865 66.6981 74.1506 64.5283C71.2261 62.1698 67.6412 60.6604 64.9053 58.0189C63.7733 56.8868 61.8865 56.9811 60.377 56.7925C59.1506 56.6038 58.0185 57.1698 57.0751 57.9245C56.1317 58.6793 55.377 59.5283 54.3393 60.283C52.8299 61.4151 50.8487 61.8868 48.9619 61.7925C48.7733 61.7925 48.5846 61.7925 48.3959 61.6981C48.0185 61.6038 47.5468 61.5095 47.2638 61.2264C46.7921 60.8491 46.5091 60.1887 46.7921 59.6227V59.5283C46.8865 59.2453 47.1695 59.0566 47.3582 58.8679C48.2072 58.0189 48.5846 56.7925 49.0563 55.6604C49.0563 55.5661 49.0563 55.5661 49.1506 55.4717C49.6223 54.2453 50.1883 53.0189 51.3204 52.2642C52.2638 51.6981 53.3959 51.6038 54.3393 51.2264C55.2827 50.8491 56.1317 50.1887 56.9808 49.717C57.8299 49.2453 58.7733 48.9623 59.7166 48.7736C61.3204 48.3962 63.0185 48.3962 64.7167 48.3962C66.4148 48.3962 68.1129 48.4906 69.7167 48.9623C70.9431 49.3396 72.0751 50 73.3959 50.1887C75.2827 50.5661 77.1695 50.0944 79.0563 49.8113C79.4336 49.8113 79.811 49.717 80.094 49.9057C80.2827 50 80.4714 50.1887 80.5657 50.283C81.1317 50.8491 81.7921 51.4151 82.3582 51.9811C86.7921 56.0378 91.2261 60.3774 93.4902 65.8491Z" fill="#F6C358"/>
<path d="M83.8677 75.6604C83.7734 76.7925 83.113 77.8302 82.0753 78.3019C81.0375 78.7736 79.8111 78.7736 78.8677 78.1132C79.6224 79.2453 78.8677 80.8491 77.6413 81.4151C76.4149 81.9811 74.9998 81.8868 73.679 81.6981C74.1507 81.9811 74.2451 82.7359 73.9621 83.2076C73.679 83.6793 73.113 83.9623 72.547 84.151C71.3205 84.5283 69.9054 84.5283 68.679 84.2453C69.2451 84.717 68.8677 85.7547 68.3017 86.2264C66.6979 87.7359 64.3394 88.2076 62.1696 87.7359C59.9998 87.3585 58.0187 86.2264 56.1319 85.0944C54.2451 83.9623 52.3583 82.8302 50.1885 82.1698C48.113 81.6038 45.8488 81.6038 43.679 81.0378C40.3771 80.1887 37.6413 77.9245 35.0941 75.7547C34.6224 75.3774 34.1507 74.9057 33.8677 74.3396C33.679 73.6793 33.8677 73.0189 34.0564 72.4528C35.3771 68.0189 36.8866 63.6793 38.7734 59.434C39.1507 58.4906 39.6224 57.5472 40.2828 56.6981C41.4149 55.1887 43.396 54.2453 43.4903 52.4528C43.5847 51.7925 43.7734 51.1321 44.1507 50.5661C44.2451 50.3774 44.4337 50.283 44.5281 50.0944C44.7168 50 44.9054 49.9057 45.0941 49.9057C47.1696 49.3396 49.2451 48.7736 51.3205 48.2076C52.9243 47.7359 54.5281 47.3585 56.2262 47.4528C57.4526 47.5472 58.679 48.0189 59.7168 48.6793C58.7734 48.8679 57.83 49.151 56.9809 49.6227C56.0375 50.0944 55.2828 50.7547 54.3394 51.1321C53.3017 51.5095 52.2639 51.6038 51.3205 52.1698C49.0564 53.4906 49.1507 56.8868 47.3583 58.7736C47.1696 59.0566 46.8866 59.2453 46.6979 59.5283C46.4149 60.0944 46.6979 60.7547 47.1696 61.1321C47.6413 61.5095 48.3017 61.6038 48.8677 61.6981C50.7545 61.8868 52.6413 61.3208 54.2451 60.1887C55.1885 59.5283 56.0375 58.5849 56.9809 57.8302C57.9243 57.0755 59.0564 56.5094 60.2828 56.6981C61.8866 56.8868 63.679 56.7925 64.8111 57.9245C67.547 60.5661 71.0375 62.1698 74.0564 64.434C76.7922 66.6038 79.0564 69.434 81.4149 71.9811C81.9809 72.6415 82.7356 73.3019 83.4904 73.5849C83.8677 74.2453 83.9621 74.9057 83.8677 75.6604Z" fill="#FFD05B"/>
<path d="M83.8677 75.6604C83.7734 76.7925 83.113 77.8302 82.0753 78.3019C81.2262 78.6793 80.2828 78.7736 79.4337 78.3963C79.2451 78.3019 79.0564 78.2076 78.8677 78.1132C79.0564 78.3019 79.1507 78.5849 79.1507 78.868C79.2451 79.8114 78.5847 80.9434 77.6413 81.4151C76.6036 81.8868 75.3771 81.8868 74.2451 81.7925C74.0564 81.7925 73.8677 81.7925 73.679 81.6982C73.962 81.8868 74.1507 82.2642 74.1507 82.6415C74.1507 82.8302 74.0564 83.1133 73.9621 83.3019C73.679 83.7736 73.113 84.0566 72.547 84.2453C71.3205 84.6227 69.9998 84.6227 68.7734 84.3397H68.679C68.9621 84.5283 69.0564 84.9057 68.962 85.1887C68.8677 85.5661 68.679 86.0378 68.3017 86.3208C66.6979 87.8302 64.3394 88.3019 62.1696 87.8302C59.9998 87.4529 58.0187 86.3208 56.1319 85.1887C54.2451 84.0566 52.3583 82.8302 50.1885 82.2642C48.113 81.6982 45.8488 81.6982 43.679 81.1321C40.3771 80.2831 37.6413 78.0189 35.0941 75.8491C34.6224 75.4717 34.1507 75 33.8677 74.434C33.679 73.868 33.8677 73.2076 34.0564 72.5472C35.3771 68.1132 36.8866 63.7736 38.7734 59.5283C39.1507 58.5849 39.6224 57.6415 40.2828 56.7925C41.4149 55.2831 43.396 54.3397 43.4903 52.5472C43.5847 51.8868 43.7734 51.2265 44.1507 50.6604C44.2451 50.4717 44.4337 50.3774 44.5281 50.1887C44.7168 50.0944 44.9054 50 45.0941 50C47.1696 49.434 49.2451 48.868 51.3205 48.3019C52.9243 47.8302 54.5281 47.4529 56.2262 47.5472C57.4526 47.6415 58.679 48.1132 59.7168 48.7736C58.7734 48.9623 57.83 49.2453 56.9809 49.717C56.1319 50.1887 55.2828 50.8491 54.3394 51.2265C53.3017 51.6038 52.2639 51.6982 51.3205 52.2642C49.0564 53.5849 49.1507 56.9812 47.3583 58.868C47.1696 59.151 46.8866 59.3397 46.6979 59.6227C46.4149 60.1887 46.6979 60.8491 47.1696 61.2265C47.6413 61.6038 48.3017 61.6981 48.8677 61.7925C50.7545 61.9812 52.6413 61.4151 54.2451 60.2831C55.1885 59.6227 56.0375 58.6793 56.9809 57.9246C57.9243 57.1698 59.0564 56.6038 60.2828 56.7925C61.8866 56.9812 63.679 56.8868 64.8111 58.0189C67.547 60.6604 71.0375 62.1699 74.0564 64.5283C76.7922 66.6982 79.0564 69.5283 81.4149 72.0755C81.9809 72.7359 82.7356 73.3963 83.4904 73.6793C83.8677 74.2453 83.9621 74.9057 83.8677 75.6604Z" fill="#FFD05B"/>
<path d="M45.9434 84.8114C45.9434 84.151 45.9434 83.5849 46.132 83.0189C46.2264 82.7359 46.4151 82.5472 46.6037 82.3585C46.8868 81.9812 47.3585 81.6038 47.7358 81.3208C48.7735 80.7548 50 80.7548 51.2264 80.7548C51.4151 80.7548 51.6037 80.7548 51.7924 80.8491C52.1698 81.0378 52.4528 81.5095 52.8301 81.6982C52.9245 81.7925 53.1132 81.8868 53.2075 81.9812C53.4905 82.1699 53.5849 82.5472 53.5849 82.8302C53.6792 84.2453 53.0188 85.6604 51.8868 86.5095C50.7547 87.3585 49.1509 87.5472 47.8302 86.9812C47.4528 86.8868 47.1698 86.6981 46.7924 86.5095C46.6037 86.4151 46.3207 86.2264 46.132 86.0378C46.0377 85.7548 45.9434 85.2831 45.9434 84.8114Z" fill="#F6C358"/>
<path d="M60.9433 87.5472C60.566 87.7359 60.1886 87.7359 59.8113 87.9246C59.6226 88.0189 59.4339 88.1132 59.3396 88.2076C58.8679 88.3963 58.3962 88.3963 57.9245 88.3963C57.2641 88.3963 56.6037 88.4906 56.0377 88.3019C55.3773 88.2076 54.8113 87.9246 54.3396 87.4529C54.0566 87.1698 53.8679 86.6981 53.7735 86.3208C53.6792 86.1321 53.6792 85.9434 53.6792 85.7548C53.6792 85.2831 53.8679 84.9057 54.1509 84.5283C54.7169 83.868 55.4716 83.4906 56.2264 83.1132C56.7924 82.8302 57.2641 82.5472 57.8301 82.2642C58.3018 81.9812 58.8679 81.6981 59.4339 81.5095C60.283 81.2265 61.2264 81.3208 61.9811 81.6981C62.7358 82.0755 63.3018 82.9246 63.3018 83.7736C63.3018 84.5283 62.9245 85.2831 62.5471 85.9434C61.9811 86.6038 61.6037 87.2642 60.9433 87.5472Z" fill="#F6C358"/>
<path d="M64.8113 89.3397C64.7169 89.5283 64.5283 89.8114 64.4339 90C64.0566 90.3774 63.6792 90.4717 63.2075 90.6604C62.4528 90.8491 61.6981 91.0378 60.9433 91.0378C60.1886 90.9434 59.4339 90.6604 58.9622 90.0944C58.7735 89.9057 58.6792 89.717 58.6792 89.434C58.6792 88.9623 58.9622 88.5849 59.3396 88.3019C60.283 87.5472 61.5094 87.3585 62.3584 86.6038C62.5471 86.4151 62.7358 86.2265 63.0188 86.0378C63.2075 85.9434 63.3962 85.9434 63.5849 85.9434C63.9622 85.8491 64.4339 85.8491 64.8113 86.0378C65.1886 86.2265 65.3773 86.5095 65.566 86.7925C65.6603 87.5472 65.283 88.5849 64.8113 89.3397Z" fill="#F9B54C"/>
<path d="M78.8679 78.1132C79.0566 78.3019 79.1509 78.5849 79.1509 78.8679C78.8679 78.7736 78.6792 78.4906 78.3962 78.2076C76.8868 76.5094 74.6226 75.7547 72.9245 74.3396C72.3585 73.8679 71.7924 73.3019 71.2264 72.9245C70.7547 72.5472 70.1886 72.2642 69.6226 71.8868C68.8679 71.4151 68.1132 70.7547 67.3585 70.1887C66.6981 69.6227 65.9434 68.9623 65.9434 68.1132V68.0189C65.9434 67.9245 66.0377 67.9245 66.132 67.9245C66.7924 67.8302 67.3585 68.1132 67.9245 68.4906C68.3962 68.8679 68.7735 69.434 69.2452 69.9057C70.4717 71.2264 71.8868 72.2642 73.3962 73.3019C74.7169 74.2453 76.0377 75.0943 77.3585 76.0377C77.9245 76.4151 78.3962 76.7925 78.8679 77.2642C79.1509 77.6415 79.4339 78.0189 79.5283 78.3962C79.2452 78.3019 79.0566 78.2076 78.8679 78.1132Z" fill="#F6C358"/>
<path d="M28.8679 69.2453C29.2453 65.283 31.1321 61.5094 33.0189 57.9245C34.1509 55.6604 35.3774 53.3962 36.5094 51.0377C36.7925 50.4717 37.0755 49.9057 37.4528 49.5283C38.5849 48.2076 40.6604 47.8302 42.2642 48.6793C42.5472 48.8679 42.9245 49.0566 43.1132 49.434C43.3019 49.717 43.3019 50.0943 43.3019 50.3774C43.3962 51.5094 43.4906 52.6415 43.3019 53.6793C43.1132 54.6226 42.7358 55.4717 42.2642 56.3208C39.717 61.5094 37.1698 66.6981 34.6226 71.8868C34.434 72.2642 34.2453 72.6415 33.9623 73.0189C32.9245 74.2453 30.8491 74.3396 29.717 73.2076C28.7736 72.1698 28.6793 70.6604 28.8679 69.2453Z" fill="#E6E9EE"/>
<path d="M38.9623 49.717C36.5094 58.1132 33.3962 66.4151 29.434 74.2453C29.2453 74.6227 28.9623 75.0944 28.4906 75.283C28.2075 75.3774 27.8302 75.283 27.5472 75.283C25.566 75.0944 23.7736 76.5095 21.6981 76.8868C19.0566 77.2642 16.5094 75.7547 14.2453 74.3396C9.81132 71.5095 5.18868 68.9623 0.377358 66.6038C0.188679 64.434 0 62.2642 0 60.0944C0 49.151 2.92453 38.9623 8.01887 30.0944C9.90566 31.1321 11.6981 32.2642 13.5849 33.3019C15.0943 34.151 16.6038 35.0944 18.1132 35.9434C20.4717 37.3585 22.9245 38.7736 25.0943 40.6604C26.6981 41.9812 28.2075 43.5849 30.283 43.9623C31.1321 44.0566 31.9811 43.9623 32.8302 44.0566C34.6226 44.2453 36.2264 45.4717 37.6415 46.6038C38.1132 46.9812 38.6792 47.4529 38.8679 48.1132C39.2453 48.5849 39.0566 49.151 38.9623 49.717Z" fill="#324A5E"/>
<path d="M83.868 46.8868C84.0567 46.6038 84.2454 46.3208 84.5284 46.2264C84.7171 46.1321 84.9058 46.2264 85.0945 46.2264C86.3209 46.6038 86.9813 48.0189 87.736 49.0566C88.4907 50.0944 89.6228 50.8491 90.5662 51.6981C93.1133 54.0566 94.8114 57.3585 96.3209 60.4717C97.1699 62.1698 98.019 63.9623 98.9624 65.6604C100 67.8302 101.132 70 101.415 72.3585C99.9058 72.0755 98.2077 72.8302 96.8869 72.1698C96.3209 71.8868 95.9435 71.4151 95.5662 70.9434C93.7737 68.6793 92.2643 66.1321 90.9435 63.5849C89.8114 61.3208 88.7737 58.8679 86.7926 57.2642C86.0379 56.6038 85.0945 56.1321 84.5284 55.4717C84.1511 55 83.868 54.434 83.4907 53.9623C82.453 52.1698 81.0379 50.5661 79.4341 49.151C81.1322 49.151 82.9247 48.3019 83.868 46.8868Z" fill="#E6E9EE"/>
<path d="M120 60C120 61.5094 119.906 62.9245 119.811 64.3396C115 67.3585 110.472 70.9434 106.038 74.6227C105.189 75.3774 104.151 76.1321 103.019 75.7547C102.547 75.566 102.17 75.283 101.887 74.9057C100.283 73.1132 99.6227 70.566 98.585 68.3962C97.6416 66.4151 96.3209 64.6227 95.0945 62.8302L83.9624 47.4528C83.6794 47.0755 83.3963 46.6038 83.4907 46.1321C83.585 45.7547 83.9624 45.5661 84.2454 45.283C85.7548 44.2453 87.3586 43.1132 88.868 42.0755C90.4718 40.9434 91.9812 39.8113 93.6794 38.9623C95.2831 38.1132 96.8869 37.4528 98.585 36.7925C103.113 34.8113 107.453 32.2642 111.793 29.8113C116.981 38.6793 120 48.9623 120 60Z" fill="#324A5E"/>
<path d="M74.1507 82.6415C73.8677 82.4528 73.4903 82.2641 73.2073 82.0755C72.2639 81.5094 71.3205 80.849 70.3771 80.1887C70.0941 80 69.7168 79.8113 69.4337 79.5283C68.0186 78.5849 66.6035 77.7358 65.1885 76.7924C64.5281 76.3207 63.8677 75.9434 63.396 75.283C64.5281 75.0943 65.6601 75.4717 66.6035 76.1321C67.5469 76.6981 68.396 77.4528 69.2451 78.2075C70.0941 78.8679 70.9432 79.4339 71.7922 79.9056C72.4526 80.283 73.113 80.566 73.679 81.0377C73.962 81.2264 74.1507 81.5094 74.4337 81.7924C74.2451 81.7924 74.0564 81.7924 73.8677 81.6981C74.0564 81.8868 74.1507 82.2641 74.1507 82.6415Z" fill="#F6C358"/>
<path d="M68.8679 85.1887C67.9245 84.8113 66.9811 84.434 66.0377 84.0566C65.566 83.8679 65.0943 83.6792 64.6226 83.3962C64.2452 83.1132 63.8679 82.8302 63.4905 82.4528C61.7924 81.0377 59.8113 79.6226 57.6415 79.717C57.3584 79.717 57.0754 79.717 56.8867 79.5283C56.6981 79.3396 56.8867 78.9623 57.0754 78.7736C57.2641 78.5849 57.6415 78.5849 57.9245 78.5849C58.7735 78.5849 59.6226 78.7736 60.4717 79.1509C61.6037 79.6226 62.6415 80.4717 63.7735 81.0377C64.2452 81.2264 64.8113 81.4151 65.283 81.6981C66.6037 82.2641 67.7358 83.1132 68.7735 84.1509H68.6792C68.8679 84.5283 68.9622 84.8113 68.8679 85.1887Z" fill="#F6C358"/>
<path d="M50.9433 57.4528C50.849 57.8302 50.6603 58.1132 50.4716 58.3962C49.9056 59.151 49.2452 59.717 48.4905 60.0943C48.2075 60.1887 48.0188 60.283 47.7358 60.283C47.3584 60.283 47.0754 60 46.9811 59.717C46.9811 59.6226 46.8867 59.5283 46.8867 59.434C46.9811 59.1509 47.2641 58.9623 47.4528 58.7736C48.3018 57.9245 48.6792 56.6981 49.1509 55.566C49.1509 55.4717 49.1509 55.4717 49.2452 55.3774C49.3395 55.283 49.5282 55.283 49.6226 55.283C49.8112 55.283 49.9056 55.4717 49.9999 55.566C50.566 56.1321 51.0377 56.7925 50.9433 57.4528Z" fill="#FFEBEB"/>
<path d="M59.151 83.3019C59.0567 82.9246 59.2453 82.4529 59.6227 82.1698C60.0944 81.7925 60.6604 81.5095 61.2265 81.5095C61.7925 81.5095 62.4529 81.8868 62.6416 82.4529C62.8303 83.0189 62.6416 83.7736 62.3586 84.3396C62.2642 84.5283 62.1699 84.6227 62.0755 84.717C61.9812 84.8113 61.7925 84.8113 61.6038 84.8113C61.2265 84.8113 60.8491 84.9057 60.4718 84.8113C60.0944 84.717 59.717 84.434 59.6227 84.0566" fill="#FFEBEB"/>
<path d="M65.3773 86.6981C65.1886 86.2264 64.8113 85.9434 64.4339 85.8491C63.6792 85.6604 62.8301 86.3208 62.6414 87.1698C62.5471 87.5472 62.6414 88.0189 63.0188 88.2076C63.1131 88.2076 63.2075 88.3019 63.3018 88.3019L65.1886 88.1132C65.4716 87.6415 65.4716 87.1698 65.3773 86.6981Z" fill="#FFEBEB"/>
</g>
<defs>
<linearGradient id="paint0_linear" x1="13" y1="13" x2="13.0006" y2="107" gradientUnits="userSpaceOnUse">
<stop stop-color="#C4C4C4" stop-opacity="0"/>
<stop offset="0.486188" stop-color="#C4C4C4"/>
<stop offset="1" stop-color="#C4C4C4" stop-opacity="0"/>
</linearGradient>
<clipPath id="clip0">
<rect width="120" height="120" fill="white"/>
</clipPath>
</defs>
</svg>
