<svg width="16" height="16" viewBox="0 0 16 16" fill="none" xmlns="http://www.w3.org/2000/svg">
<path d="M9.14261 7.58971L10.4238 6.30971C10.6392 6.10138 10.9278 5.98597 11.2274 5.98836C11.5271 5.99075 11.8138 6.11074 12.0259 6.32249C12.2379 6.53424 12.3583 6.8208 12.3611 7.12045C12.3639 7.42011 12.2489 7.70888 12.0409 7.92457L8.80776 11.1577C8.70187 11.2642 8.57597 11.3487 8.4373 11.4064C8.29864 11.4641 8.14994 11.4938 7.99976 11.4938C7.84958 11.4938 7.70088 11.4641 7.56221 11.4064C7.42354 11.3487 7.29765 11.2642 7.19176 11.1577L3.95861 7.92457C3.8525 7.81831 3.76837 7.6922 3.711 7.55342C3.65363 7.41465 3.62416 7.26593 3.62426 7.11576C3.62448 6.81249 3.74516 6.52172 3.95976 6.30743C4.17435 6.09313 4.46529 5.97287 4.76856 5.97308C5.07184 5.97329 5.3626 6.09397 5.5769 6.30857L6.8569 7.58971V1.14286C6.8569 0.839753 6.97731 0.549063 7.19163 0.334735C7.40596 0.120408 7.69665 0 7.99976 0C8.30286 0 8.59355 0.120408 8.80788 0.334735C9.02221 0.549063 9.14261 0.839753 9.14261 1.14286V7.58971ZM1.14261 13.7143H14.8569C15.16 13.7143 15.4507 13.8347 15.665 14.049C15.8793 14.2633 15.9998 14.554 15.9998 14.8571C15.9998 15.1602 15.8793 15.4509 15.665 15.6653C15.4507 15.8796 15.16 16 14.8569 16H1.14261C0.839508 16 0.548818 15.8796 0.334491 15.6653C0.120164 15.4509 -0.000244141 15.1602 -0.000244141 14.8571C-0.000244141 14.554 0.120164 14.2633 0.334491 14.049C0.548818 13.8347 0.839508 13.7143 1.14261 13.7143Z" fill="#333333"/>
</svg>
