<svg width="20" height="19" viewBox="0 0 20 19" fill="none" xmlns="http://www.w3.org/2000/svg">
<path d="M8.95014 16.6142L8.93924 16.6035L8.92771 16.5935C6.31917 14.3298 4.20257 12.4687 2.73326 10.715C1.26936 8.96783 0.5 7.38687 0.5 5.68976C0.5 2.93383 2.66705 0.794312 5.5 0.794312C7.0541 0.794312 8.61605 1.51543 9.62138 2.68097L10 3.11991L10.3786 2.68097C11.384 1.51543 12.9459 0.794312 14.5 0.794312C17.3329 0.794312 19.5 2.93383 19.5 5.68976C19.5 7.38687 18.7306 8.96783 17.2667 10.715C15.7974 12.4687 13.6808 14.3298 11.0723 16.5935L11.0608 16.6035L11.0499 16.6142L10 17.6441L8.95014 16.6142Z" fill="white" stroke="#2E7CC4"/>
</svg>
