<svg width="120" height="120" viewBox="0 0 120 120" fill="none" xmlns="http://www.w3.org/2000/svg">
<path d="M94.6566 29.8417C101.979 38.1966 106.016 48.9245 106.016 60.0305C106.016 71.1364 101.979 81.8643 94.6566 90.2193C93.2204 91.8938 91.6553 93.4536 89.9756 94.8843L87.7692 96.7113C87.2572 97.0889 86.733 97.4665 86.1723 97.8441C83.3844 99.7881 80.3923 101.422 77.2491 102.716C66.0717 107.193 53.5887 107.145 42.4462 102.582C39.3888 101.261 36.4762 99.6288 33.7546 97.7101L32.2064 96.5895C31.4141 95.9805 30.6705 95.3715 29.9147 94.7138C28.2255 93.2635 26.6485 91.6878 25.1971 90C18.0171 81.6583 14.0687 71.0206 14.0687 60.0183C14.0687 49.0159 18.0171 38.3782 25.1971 30.0365C26.6517 28.3517 28.2285 26.7762 29.9147 25.3228C30.6705 24.665 31.4141 24.1048 32.2064 23.447C32.7184 23.0572 33.2426 22.6918 33.7546 22.3264C36.4866 20.4652 39.3983 18.882 42.4462 17.6005C53.5751 12.9738 66.0816 12.9213 77.2491 17.4543C80.3969 18.7138 83.3907 20.3279 86.1723 22.2655C86.733 22.6066 87.2572 23.0207 87.7692 23.3983C88.5128 23.9586 89.2686 24.5554 90.0122 25.1766L94.6566 29.8417ZM109.163 56.7113V56.4312C111.345 51.7174 115.465 51.5591 120 55.9196C120 48.7211 118.464 43.0207 114.99 39.7929C110.114 35.4446 104.97 38.2826 100.776 32.3752C100.288 27.2107 103.836 25.067 109.943 26.4799C106.286 20.3045 102.093 16.151 97.5091 15.0792C96.5758 14.8557 95.6117 14.7899 94.6566 14.8843C93.0596 15.0357 91.4874 15.3835 89.9756 15.9196C89.2393 16.1621 88.4905 16.3654 87.7326 16.5286C87.2064 16.6343 86.6722 16.6954 86.1357 16.7113C84.5255 16.7915 82.9218 16.4559 81.4791 15.7369C78.5412 11.5469 80.4551 8.01462 86.1357 6.16322C86.2531 6.1402 86.3648 6.0947 86.4649 6.02923C86.3623 5.96875 86.2514 5.92361 86.1357 5.89525C83.3561 4.24782 80.3497 3.01669 77.2125 2.24117C74.8138 1.62233 72.2971 1.62233 69.8984 2.24117C64.9492 3.92205 63.8033 8.03898 59.8903 9.95128C58.8901 10.4316 57.8131 10.7326 56.7087 10.8404H56.4283C51.7107 8.63581 51.5522 4.53106 55.9163 0C50.3941 0 45.7131 0.937881 42.3486 2.8989C41.4078 3.51164 40.5478 4.24004 39.7887 5.06699C35.8635 9.56151 37.8748 14.2266 33.6936 18.1973C33.2805 18.5888 32.8406 18.951 32.3771 19.2814H32.0967C31.3302 19.3319 30.5603 19.2869 29.805 19.1474C26.4892 18.3435 25.2824 15.0792 26.4892 10.1218L25.0874 10.9622C19.6627 14.3727 15.9691 18.2704 14.9817 22.4482C13.6774 28.916 18.7729 31.9488 15.6034 38.6236C11.3369 41.6565 7.692 39.6955 5.91223 33.6784C2.34051 39.9391 0.828931 45.676 2.19423 50.1705C4.29094 56.2607 10.0081 56.4312 10.8492 63.3861V63.6784C8.69159 68.3922 4.53474 68.5506 0 64.2387C0 71.3886 1.58472 77.1376 5.04673 80.3532C9.9228 84.6529 15.0792 81.827 19.2727 87.7467C19.7603 92.8867 16.2007 95.0548 10.0935 93.6297C13.7505 99.8417 17.9561 104.044 22.5396 105.079C23.3865 105.246 24.2486 105.324 25.1117 105.311C26.722 105.175 28.3078 104.831 29.8293 104.287C30.5851 104.044 31.3287 103.812 32.1211 103.63C32.6331 103.544 33.1573 103.435 33.6692 103.398C35.3537 103.304 37.0338 103.648 38.5453 104.397C41.4709 108.624 39.5449 112.205 33.6692 114.019C33.6373 114.028 33.6037 114.028 33.5717 114.019C33.5717 114.019 33.6692 114.019 33.6692 114.105C36.3901 115.705 39.3133 116.934 42.3608 117.759C44.8874 118.443 47.5507 118.443 50.0772 117.759C54.9533 116.115 56.0748 112.058 59.9025 110.134C60.9618 109.624 62.099 109.295 63.267 109.16H63.5473C68.2771 111.352 68.4234 115.469 64.0715 120C69.3499 120 73.8236 119.16 77.1638 117.345C78.305 116.722 79.3449 115.929 80.2479 114.994C84.1243 110.56 82.2105 105.993 86.087 102.058C86.6056 101.565 87.1687 101.121 87.7692 100.731C87.7376 100.742 87.7032 100.742 87.6717 100.731C87.6717 100.731 87.6717 100.731 87.7692 100.646C87.8667 100.56 87.7692 100.646 87.8545 100.646C87.8292 100.677 87.8006 100.706 87.7692 100.731C88.5183 100.694 89.2691 100.727 90.0122 100.828C93.5108 101.486 94.8883 104.799 93.6692 109.903C94.048 109.708 94.4107 109.484 94.7542 109.233C100.362 105.773 104.153 101.803 105.14 97.5152C106.445 91.011 101.337 88.0268 104.482 81.3398C104.482 81.3398 104.482 81.4373 104.482 81.4738C108.736 78.4897 112.381 80.4507 114.161 86.4312C117.818 80.2192 119.269 74.4702 117.903 69.9878C115.697 63.8612 109.943 63.6784 109.163 56.7113Z" fill="#BAB9B9"/>
<g clip-path="url(#clip0)">
<rect x="37" y="62.7872" width="23" height="11" fill="white"/>
<path fill-rule="evenodd" clip-rule="evenodd" d="M39.2182 39.7872H58.048L72.1703 54.8511V84.9787C72.1703 86.3104 71.6744 87.5876 70.7915 88.5293C69.9087 89.471 68.7114 90 67.4629 90H39.2182C37.9697 90 36.7723 89.471 35.8895 88.5293C35.0067 87.5876 34.5107 86.3104 34.5107 84.9787V44.8085C34.5107 43.4768 35.0067 42.1996 35.8895 41.2579C36.7723 40.3163 37.9697 39.7872 39.2182 39.7872ZM44.4011 76.4677C45.6509 76.4677 46.7242 76.1413 47.4515 75.4132C48.007 74.8483 48.313 74.0173 48.3153 73.0331C48.3153 72.054 47.9105 71.2229 47.3126 70.7158C46.6842 70.181 45.7521 69.9149 44.4411 69.9149C43.4811 69.9008 42.5215 69.9697 41.5719 70.1208V80.0026H43.6761V76.4225C43.9165 76.4554 44.1587 76.4705 44.4011 76.4677ZM52.0813 80.1081C53.9195 80.1081 55.4236 79.6913 56.4121 78.8151C57.316 77.9991 57.9727 76.676 57.9727 74.7604C57.9727 72.9904 57.3607 71.7577 56.3839 70.9844C55.4801 70.2563 54.322 69.9149 52.5403 69.9149C51.5803 69.9057 50.621 69.9754 49.6711 70.1233V79.9574C50.2007 80.0328 50.9797 80.1081 52.0813 80.1081ZM61.5032 71.8481H65.1091V69.9902H59.3708V80.0051H61.5032V75.9781H64.8738V74.1353H61.5032V71.8481ZM55.6943 57.3617H58.048H67.4629L55.6943 44.8085V57.3617ZM43.6786 71.7126C43.8292 71.6674 44.1211 71.6223 44.5542 71.6223C45.6133 71.6223 46.2112 72.1746 46.2112 73.0935C46.2112 74.1203 45.5168 74.7279 44.3894 74.7279C44.0811 74.7279 43.8575 74.7154 43.6786 74.6702V71.7126ZM51.8036 71.7428C51.9849 71.6976 52.2909 71.6524 52.7616 71.6524C54.5881 71.6524 55.7297 72.752 55.7155 74.8359C55.7155 77.226 54.4633 78.3558 52.5404 78.3407C52.2767 78.3407 51.9849 78.3407 51.8036 78.2955V71.7428Z" fill="#FF4A4A"/>
</g>
<g clip-path="url(#clip1)">
<path fill-rule="evenodd" clip-rule="evenodd" d="M53.0268 31H71.8566L85.9789 46.0638V76.1915C85.9789 77.5232 85.4829 78.8004 84.6001 79.7421C83.7173 80.6837 82.52 81.2128 81.2715 81.2128H53.0268C51.7783 81.2128 50.5809 80.6837 49.6981 79.7421C48.8153 78.8004 48.3193 77.5232 48.3193 76.1915V36.0213C48.3193 34.6896 48.8153 33.4124 49.6981 32.4707C50.5809 31.529 51.7783 31 53.0268 31ZM69.5028 48.5745H71.8566H81.2715L69.5028 36.0213V48.5745Z" fill="#1571C6"/>
<path d="M55.8511 70.9956H58.8605C61.2519 70.9956 62.9111 69.0744 62.9111 66.149C62.9111 63.2235 61.2519 61.2878 58.8605 61.2878H55.8511V70.9956ZM57.4759 69.1763V63.1071H58.8605C60.4281 63.1071 61.2519 64.4315 61.2519 66.149C61.2519 67.7936 60.3709 69.1763 58.8605 69.1763H57.4759Z" fill="white"/>
<path d="M63.6981 66.149C63.6981 69.0744 65.3801 71.1702 67.6801 71.1702C69.9915 71.1702 71.6735 69.0744 71.6735 66.149C71.6735 63.2235 69.9915 61.1277 67.6801 61.1277C65.3801 61.1277 63.6981 63.2235 63.6981 66.149ZM70.0029 66.149C70.0029 67.9537 69.0875 69.3364 67.6801 69.3364C66.2726 69.3364 65.3687 67.9537 65.3687 66.149C65.3687 64.3297 66.2726 62.9615 67.6801 62.9615C69.0875 62.9615 70.0029 64.3297 70.0029 66.149Z" fill="white"/>
<path d="M76.4525 71.1702C78.1917 71.1702 79.1529 69.9913 79.7021 68.7833L78.3061 67.9246C77.9858 68.7251 77.2992 69.3364 76.4525 69.3364C75.1251 69.3364 74.1182 67.9828 74.1182 66.149C74.1182 64.3151 75.1251 62.9615 76.4525 62.9615C77.2992 62.9615 77.9858 63.5874 78.3061 64.3733L79.7021 63.5001C79.1643 62.292 78.1917 61.1277 76.4525 61.1277C74.2212 61.1277 72.4476 63.1653 72.4476 66.149C72.4476 69.1326 74.2212 71.1702 76.4525 71.1702Z" fill="white"/>
</g>
<defs>
<clipPath id="clip0">
<rect width="42.6794" height="50.2128" fill="white" transform="translate(32 39.7872)"/>
</clipPath>
<clipPath id="clip1">
<rect width="42.6794" height="50.2128" fill="white" transform="translate(45.8086 31)"/>
</clipPath>
</defs>
</svg>
