<svg width="120" height="120" viewBox="0 0 120 120" fill="none" xmlns="http://www.w3.org/2000/svg">
<path d="M94.6566 29.8417C101.979 38.1966 106.016 48.9245 106.016 60.0305C106.016 71.1364 101.979 81.8643 94.6566 90.2193C93.2204 91.8938 91.6553 93.4536 89.9756 94.8843L87.7692 96.7113C87.2572 97.0889 86.733 97.4665 86.1723 97.8441C83.3844 99.7881 80.3923 101.422 77.2491 102.716C66.0717 107.193 53.5887 107.145 42.4462 102.582C39.3888 101.261 36.4762 99.6288 33.7546 97.7101L32.2064 96.5895C31.4141 95.9805 30.6705 95.3715 29.9147 94.7138C28.2255 93.2635 26.6485 91.6878 25.1971 90C18.0171 81.6583 14.0687 71.0206 14.0687 60.0183C14.0687 49.0159 18.0171 38.3782 25.1971 30.0365C26.6517 28.3517 28.2285 26.7762 29.9147 25.3228C30.6705 24.665 31.4141 24.1048 32.2064 23.447C32.7184 23.0572 33.2426 22.6918 33.7546 22.3264C36.4866 20.4652 39.3983 18.882 42.4462 17.6005C53.5751 12.9738 66.0816 12.9213 77.2491 17.4543C80.3969 18.7138 83.3907 20.3279 86.1723 22.2655C86.733 22.6066 87.2572 23.0207 87.7692 23.3983C88.5128 23.9586 89.2686 24.5554 90.0122 25.1766L94.6566 29.8417ZM109.163 56.7113V56.4312C111.345 51.7174 115.465 51.5591 120 55.9196C120 48.7211 118.464 43.0207 114.99 39.7929C110.114 35.4446 104.97 38.2826 100.776 32.3752C100.288 27.2107 103.836 25.067 109.943 26.4799C106.286 20.3045 102.093 16.151 97.5091 15.0792C96.5758 14.8557 95.6117 14.7899 94.6566 14.8843C93.0596 15.0357 91.4874 15.3835 89.9756 15.9196C89.2393 16.1621 88.4905 16.3654 87.7326 16.5286C87.2064 16.6343 86.6722 16.6954 86.1357 16.7113C84.5255 16.7915 82.9218 16.4559 81.4791 15.7369C78.5412 11.5469 80.4551 8.01462 86.1357 6.16322C86.2531 6.1402 86.3648 6.0947 86.4649 6.02923C86.3623 5.96875 86.2514 5.92361 86.1357 5.89525C83.3561 4.24782 80.3497 3.01669 77.2125 2.24117C74.8138 1.62233 72.2971 1.62233 69.8984 2.24117C64.9492 3.92205 63.8033 8.03898 59.8903 9.95128C58.8901 10.4316 57.8131 10.7326 56.7087 10.8404H56.4283C51.7107 8.63581 51.5522 4.53106 55.9163 0C50.3941 0 45.7131 0.937881 42.3486 2.8989C41.4078 3.51164 40.5478 4.24004 39.7887 5.06699C35.8635 9.56151 37.8748 14.2266 33.6936 18.1973C33.2805 18.5888 32.8406 18.951 32.3771 19.2814H32.0967C31.3302 19.3319 30.5603 19.2869 29.805 19.1474C26.4892 18.3435 25.2824 15.0792 26.4892 10.1218L25.0874 10.9622C19.6627 14.3727 15.9691 18.2704 14.9817 22.4482C13.6774 28.916 18.7729 31.9488 15.6034 38.6236C11.3369 41.6565 7.692 39.6955 5.91223 33.6784C2.34051 39.9391 0.828931 45.676 2.19423 50.1705C4.29094 56.2607 10.0081 56.4312 10.8492 63.3861V63.6784C8.69159 68.3922 4.53474 68.5506 0 64.2387C0 71.3886 1.58472 77.1376 5.04673 80.3532C9.9228 84.6529 15.0792 81.827 19.2727 87.7467C19.7603 92.8867 16.2007 95.0548 10.0935 93.6297C13.7505 99.8417 17.9561 104.044 22.5396 105.079C23.3865 105.246 24.2486 105.324 25.1117 105.311C26.722 105.175 28.3078 104.831 29.8293 104.287C30.5851 104.044 31.3287 103.812 32.1211 103.63C32.6331 103.544 33.1573 103.435 33.6692 103.398C35.3537 103.304 37.0338 103.648 38.5453 104.397C41.4709 108.624 39.5449 112.205 33.6692 114.019C33.6373 114.028 33.6037 114.028 33.5717 114.019C33.5717 114.019 33.6692 114.019 33.6692 114.105C36.3901 115.705 39.3133 116.934 42.3608 117.759C44.8874 118.443 47.5507 118.443 50.0772 117.759C54.9533 116.115 56.0748 112.058 59.9025 110.134C60.9618 109.624 62.099 109.295 63.267 109.16H63.5473C68.2771 111.352 68.4234 115.469 64.0715 120C69.3499 120 73.8236 119.16 77.1638 117.345C78.305 116.722 79.3449 115.929 80.2479 114.994C84.1243 110.56 82.2105 105.993 86.087 102.058C86.6056 101.565 87.1687 101.121 87.7692 100.731C87.7376 100.742 87.7032 100.742 87.6717 100.731C87.6717 100.731 87.6717 100.731 87.7692 100.646C87.8667 100.56 87.7692 100.646 87.8545 100.646C87.8292 100.677 87.8006 100.706 87.7692 100.731C88.5183 100.694 89.2691 100.727 90.0122 100.828C93.5108 101.486 94.8883 104.799 93.6692 109.903C94.048 109.708 94.4107 109.484 94.7542 109.233C100.362 105.773 104.153 101.803 105.14 97.5152C106.445 91.011 101.337 88.0268 104.482 81.3398C104.482 81.3398 104.482 81.4373 104.482 81.4738C108.736 78.4897 112.381 80.4507 114.161 86.4312C117.818 80.2192 119.269 74.4702 117.903 69.9878C115.697 63.8612 109.943 63.6784 109.163 56.7113Z" fill="#BAB9B9"/>
<g clip-path="url(#clip0)">
<path d="M95.837 72.929C89.7912 72.929 84.8901 68.0279 84.8901 61.9821V54.8575C84.8901 49.2525 89.4338 44.7089 95.0387 44.7089H96.6355C102.24 44.7089 106.784 49.2525 106.784 54.8575V61.9821C106.784 68.0279 101.883 72.929 95.837 72.929Z" fill="#FCD0AE"/>
<path d="M100.073 75.6068H91.2872C85.2521 75.6068 80.3596 81.0729 80.3596 87.8157V99.6206C80.3596 100.147 80.7413 100.573 81.2121 100.573H110.148C110.618 100.573 111 100.147 111 99.6206V87.8157C111 81.0729 106.108 75.6068 100.073 75.6068Z" fill="#EBEEF2"/>
<path d="M96.6353 44.7091H95.0387C89.4338 44.7091 84.8901 49.2527 84.8901 54.8576V56.7985C89.9425 58.2948 97.7984 55.7873 100.002 52.6187C100.796 55.0654 104.138 56.6273 106.784 57.3396V54.8576C106.784 49.2527 102.24 44.7091 96.6353 44.7091Z" fill="#FCAB29"/>
<path d="M97.2233 75.057H94.4504L91.6719 86.7939L95.8369 91.1772L100.002 86.7939L97.2233 75.057Z" fill="#949300"/>
<path d="M25.1632 72.929C19.1174 72.929 14.2163 68.0279 14.2163 61.9821V54.8575C14.2163 49.2525 18.7599 44.7089 24.3648 44.7089H25.9617C31.5666 44.7089 36.1102 49.2525 36.1102 54.8575V61.9821C36.11 68.0279 31.209 72.929 25.1632 72.929Z" fill="#FCD0AE"/>
<path d="M29.7127 75.6068H20.9275C14.8924 75.6068 10 81.0729 10 87.8157V99.6206C10 100.147 10.3817 100.573 10.8524 100.573H39.788C40.2588 100.573 40.6404 100.147 40.6404 99.6206V87.8157C40.6402 81.0729 35.7478 75.6068 29.7127 75.6068Z" fill="#EBEEF2"/>
<path d="M26.5494 75.057H23.7765L20.9978 86.7939L25.1629 91.1772L29.3279 86.7939L26.5494 75.057Z" fill="#949300"/>
<path d="M66.5909 76.6168H54.409C52.1365 76.6168 49.9809 76.7226 48.0462 77.6189C42.8565 80.0236 39.2566 85.2786 39.2566 91.3745V105.175C39.2566 106.298 40.1664 107.207 41.2888 107.207H79.7108C80.8333 107.207 81.7431 106.298 81.7431 105.175V91.3745C81.7431 85.2902 78.1572 80.0437 72.9835 77.6327C71.0412 76.7277 68.875 76.6168 66.5909 76.6168Z" fill="#656D88"/>
<path d="M66.5907 76.6168H63.5183C66.6623 76.6168 69.5544 77.4376 71.8445 79.4742C74.9648 82.2492 76.9675 86.5484 76.9675 91.3745V105.175C76.9675 106.297 76.1599 107.207 75.1637 107.207H79.7109C80.8331 107.207 81.7431 106.297 81.7431 105.175V91.3745C81.7431 85.2902 78.1572 80.0435 72.9835 77.6327C71.0412 76.7277 68.8751 76.6168 66.5907 76.6168Z" fill="#444966"/>
<path d="M60.5 100.352L72.952 77.6225C71.0173 76.7259 68.8635 76.2223 66.5908 76.2223H54.4089C52.1364 76.2223 49.9824 76.7259 48.0479 77.6225L60.5 100.352Z" fill="#EBEEF2"/>
<path d="M62.7132 81.8C64.9316 80.919 66.5011 78.7544 66.5011 76.2221H54.499C54.499 78.7544 56.0683 80.9188 58.2869 81.8L56.3044 92.6928L60.5 100.352L64.6959 92.693L62.7132 81.8Z" fill="#949300"/>
<path d="M60.4549 73.5324C52.5942 73.5324 46.2222 67.1601 46.2222 59.2997V50.1377C46.2222 42.8943 52.094 37.0225 59.3374 37.0225H61.5726C68.816 37.0225 74.6878 42.8943 74.6878 50.1377V59.2997C74.6876 67.1601 68.3153 73.5324 60.4549 73.5324Z" fill="#FCD0AE"/>
<path d="M61.5723 37.0226H59.3371C59.2555 37.0226 59.175 37.0273 59.0935 37.0287C64.9395 37.1587 69.6393 41.9347 69.6393 47.8118V61.8236C69.6393 67.8804 65.0403 72.8628 59.1438 73.4698C59.5756 73.5092 60.0124 73.5323 60.4546 73.5323C68.3151 73.5323 74.6874 67.16 74.6874 59.2996V50.1376C74.6876 42.8944 68.8157 37.0226 61.5723 37.0226Z" fill="#E59F6A"/>
<path d="M61.5723 37.0226H59.3371C52.1608 37.0226 46.3344 42.7873 46.2271 49.938C48.6544 52.6368 52.2809 54.9132 55.0131 55.6216C54.3017 54.1991 52.8234 50.7965 53.5906 47.5944C55.9698 50.7941 66.9593 56.0692 74.6875 57.9827V50.1378C74.6875 42.8944 68.8157 37.0226 61.5723 37.0226Z" fill="#444966"/>
<path d="M61.5723 37.0226H59.3371C59.2555 37.0226 59.175 37.0273 59.0935 37.0287C64.9395 37.1587 69.6393 41.9347 69.6393 47.8118V56.4335C71.3907 57.0595 73.1073 57.5913 74.6876 57.9827V50.1378C74.6876 42.8944 68.8158 37.0226 61.5723 37.0226Z" fill="#2E344C"/>
<path d="M14.2163 54.8576H31.3532C36.2272 54.8576 40.1782 50.9066 40.1782 46.0325V42.48H23.0284C18.1616 42.48 14.2163 46.4253 14.2163 51.292C14.2163 51.292 14.2163 54.8576 14.2163 54.8576Z" fill="#FCAB29"/>
</g>
<defs>
<clipPath id="clip0">
<rect x="14" y="14" width="92" height="92" rx="46" fill="white"/>
</clipPath>
</defs>
</svg>
