<svg width="15" height="15" viewBox="0 0 15 15" fill="none" xmlns="http://www.w3.org/2000/svg">
<g clip-path="url(#clip0)">
<path fill-rule="evenodd" clip-rule="evenodd" d="M1 2.5C1 1.11929 2.11929 0 3.5 0H7.25001C8.63072 0 9.75002 1.11929 9.75002 2.5V2.8125C9.75002 3.15768 9.47019 3.43751 9.12501 3.43751C8.77984 3.43751 8.50001 3.15768 8.50001 2.8125V2.5C8.50001 1.80965 7.94037 1.25 7.25001 1.25H3.5C2.80965 1.25 2.25 1.80965 2.25 2.5V7.50001C2.25 8.19037 2.80965 8.75002 3.5 8.75002H3.76786C4.11304 8.75002 4.39286 9.02984 4.39286 9.37502C4.39286 9.72019 4.11304 10 3.76786 10H3.5C2.11929 10 1 8.88073 1 7.50001V2.5Z" fill="#333333"/>
<path fill-rule="evenodd" clip-rule="evenodd" d="M5.99988 7.5C5.99988 6.11929 7.11917 5 8.49988 5H12.2499C13.6306 5 14.7499 6.11929 14.7499 7.5V12.5C14.7499 13.8807 13.6306 15 12.2499 15H8.49988C7.11917 15 5.99988 13.8807 5.99988 12.5V7.5ZM8.49988 6.25C7.80953 6.25 7.24988 6.80965 7.24988 7.5V12.5C7.24988 13.1904 7.80953 13.75 8.49988 13.75H12.2499C12.9402 13.75 13.4999 13.1904 13.4999 12.5V7.5C13.4999 6.80965 12.9402 6.25 12.2499 6.25H8.49988Z" fill="#333333"/>
</g>
<defs>
<clipPath id="clip0">
<rect width="15" height="15" fill="white"/>
</clipPath>
</defs>
</svg>
