<svg width="21" height="21" viewBox="0 0 21 21" fill="none" xmlns="http://www.w3.org/2000/svg">
<path d="M10.0709 0.166016C4.54875 0.166016 0.0712891 4.64348 0.0712891 10.1656C0.0712891 15.6877 4.54875 20.166 10.0709 20.166C15.593 20.166 20.0713 15.6877 20.0713 10.1656C20.0713 4.64348 15.593 0.166016 10.0709 0.166016ZM12.1526 15.664C11.6378 15.8672 11.2281 16.0213 10.9208 16.1279C10.6144 16.2346 10.258 16.2879 9.85245 16.2879C9.22938 16.2879 8.7443 16.1355 8.39891 15.8316C8.05351 15.5277 7.88166 15.1425 7.88166 14.6744C7.88166 14.4924 7.89436 14.3061 7.91975 14.1165C7.946 13.9269 7.98748 13.7135 8.0442 13.474L8.68843 11.1984C8.74515 10.98 8.79425 10.7726 8.83319 10.5796C8.87214 10.3849 8.89076 10.2062 8.89076 10.0437C8.89076 9.75416 8.83065 9.55099 8.71129 9.4367C8.59023 9.32242 8.36251 9.26654 8.02303 9.26654C7.85711 9.26654 7.6861 9.29109 7.51087 9.34274C7.33732 9.39607 7.18663 9.44432 7.06304 9.49173L7.23319 8.79078C7.65478 8.61893 8.05859 8.47162 8.44378 8.34972C8.82896 8.22612 9.19298 8.16517 9.53584 8.16517C10.1547 8.16517 10.6321 8.31586 10.9682 8.61385C11.3026 8.91268 11.4711 9.30125 11.4711 9.77871C11.4711 9.87776 11.4592 10.0522 11.4364 10.301C11.4135 10.5508 11.3703 10.7785 11.3077 10.9876L10.6668 13.2564C10.6144 13.4384 10.5678 13.6467 10.5255 13.8795C10.484 14.1123 10.4637 14.29 10.4637 14.4094C10.4637 14.7108 10.5305 14.9165 10.666 15.0257C10.7998 15.1349 11.0343 15.1899 11.3661 15.1899C11.5227 15.1899 11.698 15.162 11.8961 15.1078C12.0925 15.0536 12.2347 15.0054 12.3244 14.9639L12.1526 15.664ZM12.0391 6.45512C11.7403 6.73279 11.3805 6.87162 10.9598 6.87162C10.5399 6.87162 10.1775 6.73279 9.87616 6.45512C9.57647 6.17744 9.42494 5.83967 9.42494 5.44517C9.42494 5.05152 9.57732 4.71289 9.87616 4.43268C10.1775 4.15162 10.5399 4.01194 10.9598 4.01194C11.3805 4.01194 11.7411 4.15162 12.0391 4.43268C12.338 4.71289 12.4878 5.05152 12.4878 5.44517C12.4878 5.84051 12.338 6.17744 12.0391 6.45512Z" fill="white"/>
</svg>
