<svg width="13" height="15" viewBox="0 0 13 15" fill="none" xmlns="http://www.w3.org/2000/svg">
<path d="M12.6521 0.49577C12.5232 0.310584 12.3495 0.175159 12.1316 0.0892503C11.9928 0.0298367 11.8474 7.78627e-05 11.6953 7.78627e-05V-6.10352e-05H1.30524C1.15325 -6.10352e-05 1.00793 0.0296978 0.869104 0.0891114C0.651035 0.17495 0.477482 0.310549 0.348619 0.495631C0.219791 0.680712 0.155273 0.885517 0.155273 1.11029V13.8896C0.155273 14.1144 0.219791 14.3191 0.348619 14.5044C0.477482 14.6894 0.651035 14.825 0.869104 14.9108C1.00779 14.9702 1.15325 14.9999 1.30524 14.9999C1.61599 14.9999 1.89014 14.8908 2.12814 14.6729L6.5003 10.4691L10.8725 14.673C11.1038 14.8841 11.3781 14.9899 11.6953 14.9899C11.8605 14.9899 12.006 14.9637 12.1316 14.9108C12.3495 14.825 12.5231 14.6894 12.6521 14.5041C12.7809 14.3191 12.8453 14.1143 12.8453 13.8895V1.11043C12.8453 0.885656 12.7808 0.680851 12.6521 0.49577Z" fill="#B8B9BA"/>
</svg>
