<svg width="15" height="15" viewBox="0 0 15 15" fill="none" xmlns="http://www.w3.org/2000/svg">
<path d="M12.0174 10.6031C11.4455 10.6031 10.9336 10.8275 10.5436 11.1812L5.17296 8.0575C5.21172 7.88438 5.24171 7.71 5.24171 7.52999C5.24171 7.34999 5.21109 7.17624 5.17296 7.00249L10.483 3.9081C10.888 4.2831 11.4236 4.51746 12.0174 4.51746C13.2692 4.51746 14.278 3.51058 14.278 2.25872C14.278 1.00937 13.2686 0 12.0174 0C10.768 0 9.75861 1.00936 9.75861 2.25812C9.75861 2.44061 9.78923 2.61187 9.82736 2.78562L4.51732 5.8825C4.1117 5.50564 3.57671 5.27187 2.98231 5.27187C1.73044 5.27187 0.72168 6.28064 0.72168 7.52999C0.72168 8.77935 1.73044 9.78874 2.98231 9.78874C3.57605 9.78874 4.1117 9.55435 4.5167 9.17937L9.87794 12.31C9.84107 12.4694 9.81793 12.6356 9.81793 12.8013C9.81793 14.0138 10.806 15 12.0167 15C13.2286 15 14.2173 14.0144 14.2173 12.8013C14.2173 11.5881 13.2292 10.6031 12.0174 10.6031Z" fill="#333333"/>
</svg>
