<svg width="12" height="17" viewBox="0 0 12 17" fill="none" xmlns="http://www.w3.org/2000/svg">
<path d="M6 0.5C2.6914 0.5 0 3.02319 0 6.125C0 7.17281 0.309567 8.19547 0.895033 9.08263L5.65823 16.2782C5.85573 16.5773 6.3214 16.5727 6.51273 16.2718L11.1543 9.00663C11.707 8.13825 12 7.14169 12 6.125C12 3.02319 9.3086 0.5 6 0.5ZM6 8.94375C4.32183 8.94375 2.99333 7.66316 2.99333 6.125C2.99333 4.57409 4.3457 3.30625 6 3.30625C7.6543 3.30625 9.00667 4.57409 9.00667 6.125C9.00667 7.64959 7.69603 8.94375 6 8.94375Z" fill="#707274"/>
</svg>
