<svg width="12" height="16" viewBox="0 0 12 16" fill="none" xmlns="http://www.w3.org/2000/svg">
<g clip-path="url(#clip0)">
<path d="M3.84598 15.3333L3.84598 13.558C4.95443 13.2693 5.76904 12.3867 5.76904 11.3333C5.76904 10.28 4.95443 9.398 3.84598 9.10869L3.84598 0.666656C3.84598 0.298656 3.50134 -9.91245e-08 3.07672 -1.17685e-07C2.65211 -1.36246e-07 2.3075 0.298656 2.3075 0.666656L2.3075 9.10865C1.19906 9.39731 0.384439 10.28 0.384439 11.3333C0.384439 12.3866 1.19906 13.2687 2.3075 13.558L2.3075 15.3333C2.3075 15.702 2.65211 16 3.07672 16C3.50134 16 3.84598 15.702 3.84598 15.3333ZM1.92288 11.3333C1.92288 10.782 2.44056 10.3333 3.07672 10.3333C3.71289 10.3333 4.23057 10.782 4.23057 11.3333C4.23057 11.8847 3.71289 12.3333 3.07672 12.3333C2.44056 12.3333 1.92288 11.8847 1.92288 11.3333Z" fill="#707274"/>
<path d="M9.99979 15.3333L9.99979 6.89134C11.1082 6.602 11.9229 5.72 11.9229 4.66669C11.9229 3.61337 11.1082 2.73134 9.99979 2.44203L9.99979 0.666656C9.99979 0.298656 9.65518 -9.91229e-08 9.23057 -1.17683e-07C8.80595 -1.36244e-07 8.46135 0.298656 8.46135 0.666656L8.46135 2.442C7.3529 2.73134 6.53828 3.61334 6.53828 4.66666C6.53828 5.71997 7.3529 6.602 8.46135 6.89131L8.46135 15.3333C8.46135 15.702 8.80595 16 9.23057 16C9.65518 16 9.99979 15.702 9.99979 15.3333ZM8.07672 4.66666C8.07672 4.11531 8.5944 3.66666 9.23057 3.66666C9.86673 3.66666 10.3844 4.11531 10.3844 4.66666C10.3844 5.218 9.86673 5.66666 9.23057 5.66666C8.5944 5.66666 8.07672 5.218 8.07672 4.66666Z" fill="#707274"/>
</g>
<defs>
<clipPath id="clip0">
<rect width="16" height="12" fill="white" transform="translate(12) rotate(90)"/>
</clipPath>
</defs>
</svg>
