<svg width="16" height="15" viewBox="0 0 16 15" fill="none" xmlns="http://www.w3.org/2000/svg">
<path fill-rule="evenodd" clip-rule="evenodd" d="M0 3.84615C0 2.82655 0.826551 2 1.84615 2H14.1538C15.1735 2 16 2.82655 16 3.84615V11.8462C16 12.8658 15.1734 13.6923 14.1538 13.6923H1.84615C0.826551 13.6923 0 12.8658 0 11.8462V3.84615ZM1.84615 3.23077C1.50629 3.23077 1.23077 3.50629 1.23077 3.84615V11.8462C1.23077 12.186 1.50629 12.4615 1.84615 12.4615H14.1538C14.4937 12.4615 14.7692 12.186 14.7692 11.8462V3.84615C14.7692 3.50629 14.4937 3.23077 14.1538 3.23077H1.84615Z" fill="#333333"/>
<path fill-rule="evenodd" clip-rule="evenodd" d="M1.07438 3.87078C0.350374 3.20711 0.819918 2 1.80208 2H14.1983C15.1804 2 15.65 3.20711 14.926 3.87078L9.6635 8.69472C8.7224 9.55739 7.27795 9.55739 6.33685 8.69472L1.07438 3.87078ZM2.19759 3.23077L7.16851 7.78745C7.63906 8.21879 8.36129 8.21879 8.83183 7.78745L13.8028 3.23077H2.19759Z" fill="#333333"/>
</svg>
