<svg width="227" height="26" viewBox="0 0 227 26" fill="none" xmlns="http://www.w3.org/2000/svg">
<g clip-path="url(#clip0)">
<path d="M60.7571 19.2342C62.1521 13.5799 63.5472 7.92565 64.8941 2.22304C65.1347 1.11152 65.5676 0.821555 66.6259 0.869882C68.5982 0.966536 70.5225 0.918209 72.4948 0.869882C73.1683 0.869882 73.3607 1.11152 73.3607 1.73977C73.3607 9.32713 73.3607 16.8662 73.3607 24.4535C73.3607 25.2268 73.1201 25.3717 72.3986 25.3717C71.3884 25.3234 70.33 25.3234 69.3198 25.3717C68.4539 25.4201 68.2134 25.1301 68.2134 24.3085C68.2615 18.4126 68.2134 12.5167 68.2134 6.62081C68.2134 6.28252 68.3096 5.89591 68.021 5.41263C67.1551 8.94052 66.3373 12.3234 65.4714 15.7546C64.7498 18.6543 64.0763 21.5056 63.3548 24.4052C63.2104 25.0818 62.9218 25.4201 62.1521 25.3717C60.9976 25.2751 59.8431 25.3234 58.6404 25.3717C57.967 25.4201 57.6783 25.1784 57.534 24.5019C56.2833 18.9926 54.9844 13.5316 53.6856 8.07063C53.4932 7.20074 53.2526 6.28252 52.8678 5.41263C52.8678 5.75092 52.8678 6.08921 52.8678 6.47583C52.8678 12.4201 52.8678 18.4126 52.8678 24.3569C52.8678 25.1301 52.6754 25.4684 51.8576 25.3717C50.8474 25.3234 49.789 25.2751 48.7788 25.3717C47.9129 25.4201 47.7686 25.0818 47.7686 24.3085C47.8167 18.8476 47.7686 13.3383 47.7686 7.87732C47.7686 5.79925 47.7686 3.76951 47.7686 1.69144C47.7686 1.06319 47.961 0.869882 48.5864 0.869882C50.5587 0.918209 52.5792 0.966536 54.5515 0.869882C55.6579 0.821555 55.9465 1.20817 56.1871 2.22304C57.534 7.92565 58.9291 13.5799 60.3241 19.2342C60.5165 19.3792 60.6128 19.3792 60.7571 19.2342Z" fill="#707274"/>
<path d="M97.6057 13.1934C97.6057 16.9145 97.5576 20.5874 97.6057 24.3086C97.6057 25.1785 97.3652 25.4201 96.4993 25.3718C95.3929 25.3235 94.2384 25.2751 93.0838 25.3718C92.1698 25.4201 92.0255 25.0818 92.0255 24.2603C92.0736 18.316 92.0255 12.3235 92.0736 6.37923C92.0736 5.36436 91.8331 5.12272 90.8229 5.12272C88.1771 5.17105 85.5313 5.17105 82.8855 5.12272C81.9715 5.12272 81.6829 5.31603 81.6829 6.28257C81.731 12.2751 81.6829 18.2677 81.731 24.2603C81.731 25.1302 81.5386 25.4201 80.6727 25.3235C79.4219 25.2268 78.2193 25.2751 76.9686 25.3235C76.3913 25.3235 76.1989 25.1785 76.1989 24.5502C76.1989 16.8662 76.1989 9.1822 76.1989 1.54651C76.1989 0.966588 76.4394 0.869934 76.9205 0.869934C83.559 0.869934 90.2456 0.869934 96.8842 0.869934C97.6538 0.869934 97.5576 1.30488 97.5576 1.78815C97.6057 5.60599 97.6057 9.42384 97.6057 13.1934Z" fill="#707274"/>
<path d="M100.059 20.7323C102.464 21.3606 103.33 20.829 103.859 18.461C104.437 16.0929 104.389 13.6282 104.437 11.2119C104.485 8.11896 104.485 4.97769 104.437 1.88476C104.437 1.11152 104.677 0.918213 105.447 0.918213C110.931 0.96654 116.415 0.96654 121.899 0.918213C122.669 0.918213 122.909 1.11152 122.909 1.88476C122.861 9.37546 122.861 16.8662 122.909 24.3569C122.909 25.1784 122.62 25.4201 121.851 25.3717C120.744 25.3234 119.638 25.3234 118.58 25.3717C117.666 25.4201 117.377 25.1784 117.377 24.2119C117.425 18.2677 117.377 12.2751 117.425 6.33085C117.425 5.41264 117.185 5.07435 116.271 5.12267C114.443 5.21933 112.566 5.171 110.738 5.12267C109.921 5.12267 109.68 5.31598 109.68 6.13754C109.728 10.052 109.776 14.0149 109.199 17.9294C108.959 19.6691 108.574 21.3606 107.756 22.9071C106.986 24.3569 105.88 25.2751 104.244 25.5651C103.33 26 102.368 25.6617 101.454 25.7584C101.214 25.7584 100.925 25.7584 100.781 25.5167C100.444 25.4684 100.155 25.3717 99.8186 25.3234C99.3856 24.5502 99.7223 23.7769 99.6742 23.0037C99.6261 22.3755 99.6742 21.7472 99.6742 21.0706C99.578 20.829 99.578 20.4907 100.059 20.7323Z" fill="#707274"/>
<path d="M174.719 13.0483C174.719 9.32711 174.719 5.60592 174.719 1.8364C174.719 1.06317 174.911 0.821533 175.681 0.869861C176.883 0.918188 178.086 0.918188 179.289 0.869861C180.106 0.821533 180.251 1.15982 180.251 1.88473C180.203 4.30109 180.251 6.66912 180.203 9.08547C180.203 9.85871 180.347 10.197 181.213 10.1487C184.003 10.1003 186.841 10.1003 189.631 10.1487C190.353 10.1487 190.593 9.95536 190.593 9.23046C190.545 6.76577 190.593 4.30109 190.545 1.8364C190.545 1.15982 190.69 0.869861 191.459 0.918188C192.71 0.966515 194.009 0.966515 195.26 0.918188C195.837 0.918188 196.029 1.06317 196.029 1.64309C196.029 9.27878 196.029 16.9145 196.029 24.5502C196.029 25.1784 195.789 25.3717 195.211 25.3717C193.961 25.3234 192.662 25.3234 191.411 25.3717C190.69 25.42 190.545 25.0818 190.545 24.4535C190.545 21.4572 190.545 18.4126 190.593 15.4163C190.593 14.6431 190.401 14.4015 189.631 14.4015C186.793 14.4498 183.955 14.4498 181.117 14.4015C180.443 14.4015 180.251 14.6431 180.251 15.2713C180.299 18.2676 180.203 21.2156 180.299 24.2119C180.299 25.1301 180.01 25.42 179.144 25.3234C178.038 25.2267 176.883 25.2751 175.729 25.3234C174.911 25.3717 174.767 25.0334 174.767 24.3085C174.719 20.5873 174.719 16.8178 174.719 13.0483Z" fill="#707274"/>
<path d="M152.302 13.0484C152.302 9.32718 152.302 5.65432 152.302 1.93313C152.302 1.1599 152.446 0.869934 153.312 0.869934C159.084 0.918261 164.905 0.918261 170.678 0.869934C171.448 0.869934 171.736 1.06324 171.688 1.83648C171.64 2.56138 171.64 3.33462 171.688 4.10785C171.784 5.02607 171.399 5.17105 170.582 5.17105C166.637 5.12272 162.692 5.17105 158.748 5.12272C157.834 5.12272 157.545 5.36436 157.593 6.28257C157.689 7.3941 157.641 8.55395 157.593 9.66547C157.593 10.3904 157.834 10.5837 158.555 10.5837C162.211 10.5354 165.819 10.5837 169.475 10.5354C170.245 10.5354 170.63 10.6803 170.534 11.5502C170.437 12.2268 170.485 12.9034 170.534 13.58C170.63 14.4982 170.245 14.6432 169.427 14.6432C165.915 14.5948 162.356 14.6432 158.844 14.5948C157.93 14.5948 157.545 14.7882 157.641 15.7547C157.738 17.0595 157.689 18.3644 157.641 19.6692C157.593 20.5391 157.834 20.829 158.748 20.829C162.933 20.7807 167.118 20.829 171.303 20.7807C172.121 20.7807 172.41 20.974 172.313 21.7956C172.169 22.9071 172.794 24.3569 172.073 25.0335C171.399 25.7101 170.004 25.2268 168.898 25.2268C163.703 25.2268 158.555 25.2268 153.36 25.2751C152.542 25.2751 152.35 25.0335 152.35 24.2603C152.35 20.5391 152.302 16.7696 152.302 13.0484Z" fill="#707274"/>
<path d="M22.4171 0.869934C21.7436 1.93313 20.8777 2.60971 20.108 3.33462C17.8952 5.41269 15.5861 7.3941 13.4695 9.56882C12.0263 11.0186 12.0263 11.0186 13.1809 12.4684C16.4039 16.5279 19.627 20.5874 22.85 24.5986C22.9944 24.7435 23.1387 24.8885 23.0906 25.1302C22.9944 25.3718 22.7538 25.3235 22.5614 25.3235C20.6372 25.3235 18.713 25.3235 16.7888 25.3235C16.0191 25.3235 15.8267 24.5986 15.4899 24.1636C13.1328 21.119 10.8237 18.0261 8.56275 14.9331C8.27412 14.4982 8.0817 14.5465 7.79307 14.8848C7.26391 15.4647 6.73475 15.9963 6.10938 16.4796C5.62833 16.8179 5.53212 17.3495 5.53212 17.9294C5.53212 20.1041 5.53212 22.3272 5.53212 24.5019C5.53212 25.1785 5.33969 25.4201 4.66622 25.3718C3.46359 25.3235 2.26095 25.3235 1.05832 25.3718C0.192421 25.4201 0 25.0818 0 24.3086C0.0481054 18.0261 0 11.6952 0 5.41268C0 4.15618 0.0481054 2.948 0 1.73982C0 1.1599 0.0962107 0.869934 0.769686 0.918261C2.06853 0.966588 3.36737 0.966588 4.66622 0.918261C5.33969 0.918261 5.48401 1.1599 5.48401 1.73982C5.4359 4.30116 5.48401 6.8625 5.48401 9.42384C5.48401 9.81046 5.3878 10.1487 5.67643 10.632C7.31201 9.03722 8.89949 7.49075 10.487 5.89596C12.0744 4.30116 13.6619 2.70637 15.2494 1.11157C15.4418 0.918261 15.7304 0.869934 16.0191 0.869934C18.0876 0.869934 20.108 0.869934 22.4171 0.869934Z" fill="#707274"/>
<path d="M60.7571 19.2342C60.7571 19.4275 60.8533 19.7175 60.5647 19.7175C60.2761 19.7175 60.3723 19.4275 60.3723 19.2342C60.5166 19.2342 60.6128 19.2342 60.7571 19.2342Z" fill="#707274"/>
<path d="M39.35 1.59483C39.1095 1.3532 38.869 1.15989 38.5322 1.01491C36.8967 0.434979 35.1649 0.241671 33.4812 3.50326e-05C32.3267 -0.144946 31.1721 0.193344 30.0657 0.386652C29.0074 0.579961 27.7567 0.676615 26.8427 1.5465C24.9184 2.6097 23.331 4.01119 22.2726 5.94427C20.8295 8.55394 20.4927 11.3569 20.6371 14.2565C20.9738 19.8142 24.0044 24.4536 30.1138 25.5651C30.5468 25.9517 31.1721 25.5651 31.6051 25.9517C32.471 25.9517 33.3369 25.9517 34.2028 25.9517C34.6357 25.6617 35.1168 25.8067 35.5978 25.7584C35.9346 25.7584 36.2713 25.8067 36.5118 25.5168C37.5701 25.3235 38.4841 24.8402 39.4463 24.4052C40.697 23.8736 41.7072 23.0038 42.6212 21.9889C44.7859 19.5725 45.7962 16.7212 45.8443 13.5316C45.9405 8.40896 44.0644 4.25282 39.35 1.59483ZM38.2436 19.3309C37.4258 20.2008 36.5118 20.9257 35.2611 21.119C35.0206 21.3606 34.6357 21.264 34.299 21.3606C33.9622 21.4573 33.6255 21.5056 33.2888 21.5056H32.9039C32.6153 21.5056 32.2786 21.5056 31.9899 21.3606C31.7013 21.264 31.3646 21.3606 31.124 21.119C28.4301 20.4424 27.0832 18.461 26.4578 15.9963C25.7362 13.2417 25.9287 10.487 27.4199 7.97401C28.3339 6.37922 29.6328 5.21937 31.557 5.02606C31.8456 4.78442 32.2304 4.88108 32.5672 4.83275C32.9039 4.7361 33.2407 4.68777 33.5774 4.68777H34.0585C34.3471 4.68777 34.6357 4.7361 34.9725 4.83275C35.1649 4.88108 35.4054 4.88108 35.5978 5.07439C39.0133 6.23424 40.2159 8.98888 40.4565 12.2268C40.5527 14.7881 40.0716 17.3012 38.2436 19.3309Z" fill="#707274"/>
<path d="M149.896 24.5502C147.01 17.0111 144.124 9.47209 141.285 1.93305C140.997 1.11149 140.564 0.82153 139.746 0.918184C139.073 0.966511 138.399 0.918184 137.678 0.918184C135.417 0.386586 134.31 1.20815 133.492 3.52785C130.991 10.6319 128.153 17.591 125.411 24.5985C125.17 25.2267 125.363 25.42 125.988 25.3717C127.431 25.3717 128.874 25.3234 130.317 25.3717C130.847 25.3717 131.039 25.1784 131.183 24.6951C131.616 23.4386 132.097 22.1821 132.53 20.9256C132.723 20.4423 132.915 20.1524 133.541 20.1524C136.283 20.2007 139.025 20.2007 141.767 20.1524C142.392 20.1524 142.584 20.394 142.777 20.9256C143.162 22.1821 143.643 23.4386 144.027 24.6951C144.172 25.2267 144.412 25.3234 144.893 25.3234C146.385 25.3234 147.828 25.3234 149.319 25.3234C149.944 25.3717 150.185 25.2751 149.896 24.5502ZM140.323 16.1412C138.543 16.1412 136.764 16.1412 134.984 16.1412C134.503 16.1412 134.358 15.9479 134.503 15.513C135.513 12.565 136.571 9.61707 137.678 6.4758C138.928 9.56874 139.794 12.6134 140.853 15.513C140.949 15.8996 140.756 16.1412 140.323 16.1412Z" fill="#707274"/>
<path d="M219.611 15.6841C219.465 15.8301 214.555 20.6704 214.21 21.0266C215.277 21.7581 216.502 22.2257 217.785 22.391C219.067 22.5563 220.37 22.4146 221.587 21.9775C221.879 21.8707 222.394 21.7389 222.696 21.5929L223.002 21.2652C224.444 19.7023 225.428 17.7711 225.846 15.6841C223.77 14.8008 221.05 14.4945 219.611 15.6841Z" fill="url(#paint0_linear)"/>
<path d="M219.61 9.49037C220.983 10.8687 224.172 10.9863 225.654 9.82873C225.298 8.28297 223.876 5.55473 222.337 4.25116L221.911 3.85938C220.845 2.92285 219.625 2.17923 218.306 1.66183L217.52 1.38402L216.272 1.05991C215.423 0.896756 214.56 0.816835 213.695 0.821282C212.859 0.821287 212.025 0.907217 211.206 1.07772L209.902 1.43389L209.159 1.70101C208.074 2.16316 207.062 2.78106 206.155 3.53527C207.458 3.13566 208.837 3.04736 210.181 3.27743C211.525 3.5075 212.797 4.04956 213.894 4.86021C213.894 4.86021 219.458 9.33722 219.61 9.49037Z" fill="url(#paint1_linear)"/>
<path d="M205.223 21.9241C206.355 23.036 207.693 23.9146 209.162 24.5099L209.905 24.777L211.213 25.1332C212.855 25.4638 214.545 25.4747 216.19 25.1652L217.527 24.8269L218.409 24.5099C219.531 24.0504 220.582 23.4328 221.53 22.6756C220.181 23.0576 218.764 23.1373 217.38 22.9089C215.996 22.6805 214.68 22.1497 213.524 21.3543L205.788 13.6112C204.857 14.9748 204.362 16.5893 204.366 18.2414C204.368 19.1292 204.508 20.0114 204.782 20.8556C204.9 21.2014 205.036 21.5403 205.191 21.8707L205.223 21.9241Z" fill="url(#paint2_linear)"/>
<path d="M204.903 4.60377C203.795 5.73902 202.919 7.08095 202.326 8.55365L202.056 9.29804L201.7 10.6087C201.359 12.2533 201.359 13.9505 201.7 15.5951L202.056 16.9022L202.326 17.6501C202.783 18.739 203.4 19.7534 204.157 20.6597C203.902 19.8273 203.768 18.9625 203.759 18.0918C203.754 16.2301 204.352 14.417 205.461 12.9238L213.194 5.18432C212.126 4.45313 210.901 3.98491 209.618 3.8178C208.336 3.65069 207.032 3.78941 205.813 4.22267C205.525 4.32952 205.227 4.45062 204.928 4.59665L204.903 4.60377Z" fill="url(#paint3_linear)"/>
</g>
<defs>
<linearGradient id="paint0_linear" x1="226.813" y1="13.7643" x2="210.402" y2="27.8455" gradientUnits="userSpaceOnUse">
<stop offset="0.3" stop-color="#CBCACA"/>
<stop offset="0.38" stop-color="#C5C4C4"/>
<stop offset="0.5" stop-color="#B3B2B2"/>
<stop offset="0.63" stop-color="#969495"/>
<stop offset="0.78" stop-color="#6D6C6C"/>
<stop offset="0.87" stop-color="#525051"/>
</linearGradient>
<linearGradient id="paint1_linear" x1="212.675" y1="2.10704" x2="225.934" y2="16.7672" gradientUnits="userSpaceOnUse">
<stop offset="0.04" stop-color="#FFFD7F"/>
<stop offset="0.12" stop-color="#FFFD60"/>
<stop offset="0.2" stop-color="#FFFD43"/>
<stop offset="0.3" stop-color="#FFFC2A"/>
<stop offset="0.4" stop-color="#FFFC17"/>
<stop offset="0.53" stop-color="#FFFC0A"/>
<stop offset="0.69" stop-color="#FFFC02"/>
<stop offset="1" stop-color="#FFFC00"/>
</linearGradient>
<linearGradient id="paint2_linear" x1="216.13" y1="24.7094" x2="201.207" y2="11.6905" gradientUnits="userSpaceOnUse">
<stop offset="0.3" stop-color="#979697"/>
<stop offset="0.32" stop-color="#919091"/>
<stop offset="0.49" stop-color="#767475"/>
<stop offset="0.66" stop-color="#626061"/>
<stop offset="0.83" stop-color="#565455"/>
<stop offset="1" stop-color="#525051"/>
</linearGradient>
<linearGradient id="paint3_linear" x1="200.335" y1="16.7918" x2="211.597" y2="5.6683" gradientUnits="userSpaceOnUse">
<stop offset="0.35" stop-color="#BCC76A"/>
<stop offset="0.95" stop-color="#90A107"/>
</linearGradient>
<clipPath id="clip0">
<rect width="227" height="26" fill="white"/>
</clipPath>
</defs>
</svg>
