<?xml version="1.0" encoding="UTF-8"?> <svg xmlns="http://www.w3.org/2000/svg" id="b86c63a6-9cdd-490c-a44d-222cbafbdda7" data-name="logo-ru-white" width="260" height="46" viewBox="0 0 260 46"><title>logo-ru-white</title><g id="b684aaba-7e4e-469e-b9e9-fafb0993cc51" data-name="logo"><path id="adc6995a-16ef-4fd7-bcc6-582281ea0e77" data-name="logo" d="M52.892,23H46.48084L27.56794,0V16.82927A6.17331,6.17331,0,0,0,21.39721,23H8.81533L27.64808,46V29.09059A6.12435,6.12435,0,0,1,22.67944,23a6.2479,6.2479,0,0,1,5.60976-6.17073A6.24791,6.24791,0,0,1,33.899,23H46.4007l-15.547,19.07317L34.13937,46,55.216,23,34.13937,0Z" style="fill:#fff"></path><polygon points="21.077 0 0 23 21.077 46 2.244 23 8.815 23 24.362 4.007 21.077 0" style="fill:#fff"></polygon></g><g id="b538596a-fcb2-49a4-86de-17fe5ce0ba19" data-name="type"><path d="M238.56661,15.20305s-7.02521,9.1714-7.59752,9.87249c-.558-.75832-7.51167-9.87249-7.51167-9.87249H219.909V32.25813H224.459V22.44287c1.13033,1.4308,5.96642,7.82645,5.96642,7.82645h1.13032s4.89332-6.367,5.96642-7.82645v9.81526h4.53562V15.20305Z" style="fill:#fff"></path><path d="M198.5759,26.64941V15.20305h-4.56424V32.25813H197.56s11.81836-10.34465,12.99162-11.44636V32.25813h4.56424V15.20305h-3.54838S199.74915,25.60493,198.5759,26.64941Z" style="fill:#fff"></path><path d="M188.78926,12.34146h-6.19534l-5.623,6.2955-5.90919-6.2955h-6.98228s9.11417,9.1714,9.62926,9.67218c-.45786.51508-9.40032,10.18726-9.40032,10.18726h6.30981s5.72318-6.63889,6.2955-7.154c.558.558,6.81058,7.154,6.81058,7.154h7.154l-10.688-10.74527C180.53357,21.06931,188.78926,12.34146,188.78926,12.34146Z" style="fill:#fff"></path><path d="M160.50245,16.1903a5.36552,5.36552,0,0,0-3.56269-.98725H144.67785a4.76455,4.76455,0,0,0-3.31944.87279,4.879,4.879,0,0,0-.88709,3.4196v8.58477a4.96482,4.96482,0,0,0,.9014,3.27652,4.90765,4.90765,0,0,0,3.54837.98725h12.09022a4.83611,4.83611,0,0,0,3.49114-.95864,4.62152,4.62152,0,0,0,.9014-3.04759V19.58129A5.26533,5.26533,0,0,0,160.50245,16.1903ZM156.83961,28.395H144.90678V19.10912H156.8253Z" style="fill:#fff"></path><path d="M132.58764,15.20305H118.06507V32.25813h4.56423V25.94832h10.01557a4.85038,4.85038,0,0,0,3.03328-.81555,3.44821,3.44821,0,0,0,.95864-2.77574v-3.5913C136.63679,17.13463,136.17893,15.20305,132.58764,15.20305Zm-.28616,6.19534a.81554.81554,0,0,1-.22893.70109,1.71686,1.71686,0,0,1-.9014.22893h-8.58477v-3.391h8.32723c.38631,0,.9014,0,1.116.24323a.71539.71539,0,0,1,.22892.62955Z" style="fill:#fff"></path><path d="M112.15588,23.50166a5.15035,5.15035,0,0,0,.9014-.58662,2.86159,2.86159,0,0,0,.84417-2.1605V18.76573a3.43387,3.43387,0,0,0-.95863-2.63266,4.56423,4.56423,0,0,0-3.14775-.93H95.344V32.25813h13.64979a6.81066,6.81066,0,0,0,3.54837-.81555,3.16208,3.16208,0,0,0,1.4308-2.74713v-2.046a3.49117,3.49117,0,0,0-.95864-2.461A5.52294,5.52294,0,0,0,112.15588,23.50166ZM99.894,18.7085h8.0983c.9014,0,1.0731.17169,1.0731.17169a.70112.70112,0,0,1,.22893.58663v1.45941a.65822.65822,0,0,1-.1717.5294,2.318,2.318,0,0,1-1.18756.22892h-8.0983V18.7085Zm9.572,8.8137a1.23045,1.23045,0,0,1-.22893.81555c-.11446.12877-.40062.24323-1.07309.24323H99.95121V25.21862h8.15553a1.903,1.903,0,0,1,1.18756.22892,1.03016,1.03016,0,0,1,.22892.82987v1.21617Z" style="fill:#fff"></path><path d="M75.59908,23.9309h8.828V19.88175h-8.828V16.39061H90.66535V12.34146h-20.303V32.20089H90.837V27.90851H75.54184V23.9309Z" style="fill:#fff"></path></g></svg> 