<svg width="148" height="47" viewBox="0 0 148 47" fill="none" xmlns="http://www.w3.org/2000/svg">
<path d="M28 0.109299V17.2547C24.5271 17.2547 21.7053 20.094 21.7053 23.5887H9.00776L24.7442 4.14993L21.4884 0.109299L0 23.4794L21.2713 46.9588L21.4884 46.7405L2.3876 23.4794H9.00776L28.1085 46.9588V29.7043C25.1783 29.1582 23.0077 26.5372 23.0077 23.4794C23.0077 20.2033 25.5038 17.4731 28.6512 17.1455C31.7985 17.4731 34.2945 20.2033 34.2945 23.4794H47.1008L28 0.109299Z" fill="white"/>
<path d="M34.8372 0L34.6201 0.327619L53.7209 23.4794H47.1008L31.3643 42.9182L34.6201 46.9588L56 23.4794L34.8372 0Z" fill="white"/>
<path d="M64.6119 24.3488H69.0074V22.1163H64.6119V20.2325H72.129V18H62V28.9535H72.2563V26.5814H64.6119V24.3488Z" fill="white"/>
<path d="M146.28 19.8838C146.28 19.8838 142.777 24.6977 142.458 25.1163C142.203 24.6977 138.636 19.8838 138.636 19.8838H136.852V28.9535H139.146V23.7907C139.719 24.5582 142.139 27.907 142.139 27.907H142.712C142.712 27.907 145.133 24.5582 145.707 23.7907V28.9535H148V19.8838H146.28Z" fill="white"/>
<path d="M126.213 25.9535V19.8838H123.92V28.9535H125.703C125.703 28.9535 131.628 23.5117 132.201 22.9535V28.9535H134.495V19.8838H132.711C132.711 19.8838 126.787 25.3954 126.213 25.9535Z" fill="white"/>
<path d="M121.308 18H118.187C118.187 18 115.639 21.1395 115.383 21.4884C115.129 21.2093 112.39 18 112.39 18H108.886C108.886 18 113.473 23.0232 113.728 23.3023C113.473 23.5814 109.013 28.8837 109.013 28.8837H112.199C112.199 28.8837 115.066 25.2558 115.32 24.907C115.575 25.186 118.76 28.8837 118.76 28.8837H122.328C122.328 28.8837 117.231 23.3023 116.977 23.0232C117.231 22.7442 121.308 18 121.308 18Z" fill="white"/>
<path d="M82.895 24.2791C83.0861 24.2093 83.2136 24.0698 83.341 23.9302C83.4684 23.7907 83.7869 23.4418 83.7869 22.7442V21.6977C83.7869 21.2791 83.7232 20.7209 83.341 20.3023C82.895 19.8837 82.258 19.8139 81.7484 19.8139H74.4861V28.9535H81.3661C82.1306 28.9535 82.7039 28.8139 83.1499 28.5349C83.6595 28.186 83.8506 27.6977 83.8506 27.0698V25.9535C83.8506 25.4651 83.6595 24.9767 83.4047 24.6977C83.2772 24.5581 83.1499 24.4186 82.895 24.2791ZM76.7795 21.7674H80.8566C81.3025 21.7674 81.4299 21.8372 81.4299 21.8372C81.5573 21.907 81.5572 22.1163 81.5572 22.186V23.0232C81.5572 23.1628 81.5572 23.2325 81.4936 23.3023C81.4299 23.3721 81.2388 23.4418 80.9202 23.4418H76.8432V21.7674H76.7795ZM81.5572 26.4418C81.5572 26.5814 81.5573 26.7907 81.4299 26.8605C81.3661 26.9302 81.2388 27 80.9202 27H76.7795V25.2558H80.8566C81.2388 25.2558 81.3661 25.3256 81.4299 25.3953C81.5573 25.4651 81.5572 25.6744 81.5572 25.8139V26.4418Z" fill="white"/>
<path d="M93.1511 19.8838H85.8889V28.9535H88.1822V25.6047H93.1511C93.8518 25.6047 94.3615 25.4652 94.68 25.1861C95.1259 24.7675 95.1896 24.1396 95.1896 23.721V21.7675C95.1896 20.9303 94.9348 19.8838 93.1511 19.8838ZM93.0237 23.1628C93.0237 23.3721 93.0237 23.4419 92.8963 23.5117C92.8326 23.5814 92.6415 23.6512 92.4504 23.6512H88.1822V21.8373H92.323C92.5141 21.8373 92.7688 21.8373 92.8963 21.9768C92.96 22.0466 93.0237 22.1163 93.0237 22.3256V23.1628Z" fill="white"/>
<path d="M107.166 20.442C106.656 19.9536 105.765 19.9536 105.382 19.9536H99.2669C98.4387 19.9536 97.929 20.0931 97.6106 20.442C97.1009 20.9303 97.1009 21.8373 97.1009 22.2559V26.7908C97.1009 27.1396 97.1009 28.0466 97.5469 28.535C97.8654 28.8838 98.4387 29.0234 99.3306 29.0234H105.382C106.019 29.0234 106.72 28.9536 107.166 28.4652C107.612 27.9768 107.612 27.1396 107.612 26.8606V22.2559C107.612 21.7675 107.612 20.8606 107.166 20.442ZM105.319 26.8606H99.3306V21.9768H105.319V26.8606Z" fill="white"/>
</svg>
