<svg width="267" height="155" viewBox="0 0 267 155" fill="none" xmlns="http://www.w3.org/2000/svg">
<path d="M60.4145 34.3614C59.5918 41.8121 58.7985 49.0414 60.0145 55.9574C69.6345 56.8441 78.8145 56.788 87.3691 51.312C87.8131 48.82 88.0585 46.2587 88.0585 43.6374C88.0585 40.6347 87.7531 37.704 87.1758 34.8734L81.3385 29.0374L81.3691 28.996L59.8371 7.46672C62.4158 16.2947 61.4025 25.4281 60.4145 34.3614Z" fill="url(#paint0_linear)"/>
<path d="M35.7066 0.930696L29.8693 6.76804L29.8293 6.73736L8.30127 28.268C12.4533 27.0574 16.6746 26.6374 20.9066 26.6374C25.6746 26.6374 30.4626 27.1667 35.1919 27.6907C42.6426 28.516 49.8733 29.308 56.7906 28.0907C57.6773 18.4734 57.6213 9.29469 52.1466 0.737357C49.6533 0.293357 47.0919 0.0480262 44.4693 0.0480262C41.4679 0.0480262 38.5386 0.353363 35.7066 0.930696" fill="url(#paint1_linear)"/>
<path d="M32.148 59.1813C31.264 68.7987 31.316 77.9787 36.792 86.5373C39.2854 86.98 41.8494 87.2253 44.4694 87.2253C47.4707 87.2253 50.4014 86.92 53.232 86.3427L59.0707 80.5053L59.1094 80.536L80.64 59.004C71.8134 61.5827 62.6774 60.5707 53.7454 59.5813C49.052 59.0627 44.4454 58.5573 39.9507 58.5573C37.3107 58.5573 34.708 58.732 32.148 59.1813" fill="url(#paint2_linear)"/>
<path d="M1.56935 35.9587C1.12535 38.4521 0.881348 41.0161 0.881348 43.6374C0.881348 46.6387 1.18402 49.5694 1.76402 52.3987L7.60135 58.2374L7.56935 58.2761L29.1 79.8041C27.8894 75.6534 27.4707 71.4321 27.4707 67.2001C27.4707 62.4307 28 57.6441 28.5227 52.9147C29.348 45.4641 30.1413 38.2334 28.9253 31.3161C26.2133 31.0667 23.536 30.8907 20.8987 30.8907C14.18 30.8907 7.71468 32.0267 1.56935 35.9587" fill="url(#paint3_linear)"/>
<path d="M116.439 74.8567H116.397L108.725 97.9114H124.109L116.439 74.8567ZM141.339 114.637C141.673 115.643 141.883 116.439 141.968 117.026C142.051 117.613 141.939 118.053 141.632 118.347C141.324 118.639 140.78 118.822 139.997 118.893C139.215 118.961 138.137 118.997 136.771 118.997C135.344 118.997 134.233 118.975 133.436 118.934C132.64 118.893 132.033 118.807 131.613 118.682C131.193 118.555 130.901 118.382 130.733 118.159C130.567 117.935 130.425 117.641 130.313 117.278L126.668 106.379H106.296L102.856 116.985C102.745 117.377 102.599 117.703 102.417 117.969C102.235 118.235 101.941 118.445 101.537 118.598C101.132 118.751 100.559 118.857 99.8202 118.913C99.0775 118.969 98.1068 118.997 96.9068 118.997C95.6202 118.997 94.6148 118.955 93.8882 118.871C93.1615 118.787 92.6575 118.585 92.3788 118.263C92.0988 117.942 92.0002 117.487 92.0842 116.901C92.1695 116.313 92.3788 115.531 92.7135 114.553L109.439 66.4314C109.605 65.9567 109.801 65.5727 110.025 65.2794C110.249 64.9847 110.605 64.762 111.095 64.6087C111.584 64.4554 112.261 64.3567 113.128 64.3154C113.995 64.2727 115.14 64.2514 116.564 64.2514C118.213 64.2514 119.527 64.2727 120.507 64.3154C121.484 64.3567 122.245 64.4554 122.789 64.6087C123.335 64.762 123.727 64.9927 123.964 65.3007C124.2 65.6074 124.404 66.026 124.572 66.558L141.339 114.637Z" fill="#656263"/>
<path d="M192.206 117.32C192.206 117.599 192.115 117.843 191.934 118.054C191.751 118.263 191.451 118.438 191.032 118.576C190.612 118.718 190.046 118.822 189.335 118.892C188.623 118.96 187.734 118.996 186.672 118.996C185.61 118.996 184.724 118.96 184.011 118.892C183.299 118.822 182.739 118.718 182.334 118.576C181.93 118.438 181.644 118.263 181.475 118.054C181.307 117.843 181.223 117.599 181.223 117.32V88.731C181.223 87.643 181.238 86.5723 181.266 85.5243C181.294 84.4777 181.335 83.5483 181.391 82.7377H181.307C181.084 83.1283 180.818 83.5843 180.511 84.099C180.203 84.6177 179.875 85.163 179.527 85.735C179.176 86.307 178.807 86.895 178.415 87.495C178.024 88.0977 177.632 88.6763 177.242 89.235L158.378 117.362C158.155 117.67 157.923 117.935 157.686 118.159C157.45 118.382 157.143 118.556 156.764 118.682C156.388 118.808 155.927 118.892 155.38 118.934C154.838 118.976 154.13 118.996 153.263 118.996C152.175 118.996 151.294 118.96 150.623 118.892C149.952 118.822 149.428 118.718 149.051 118.576C148.675 118.438 148.416 118.256 148.276 118.032C148.136 117.81 148.067 117.543 148.067 117.236V65.9283C148.067 65.6497 148.158 65.4043 148.339 65.1963C148.52 64.9857 148.827 64.811 149.262 64.671C149.695 64.5323 150.259 64.427 150.958 64.3563C151.656 64.2883 152.538 64.2523 153.6 64.2523C154.688 64.2523 155.583 64.2883 156.282 64.3563C156.98 64.427 157.539 64.5323 157.959 64.671C158.378 64.811 158.672 64.9857 158.84 65.1963C159.007 65.4043 159.091 65.6497 159.091 65.9283V94.6843C159.091 95.579 159.076 96.5283 159.048 97.535C159.022 98.5403 158.979 99.519 158.924 100.47H159.007C159.482 99.6297 160.083 98.6243 160.81 97.451C161.536 96.2763 162.29 95.1323 163.072 94.0137L181.936 65.887C182.131 65.6083 182.34 65.363 182.566 65.1537C182.788 64.943 183.088 64.7683 183.467 64.6297C183.843 64.4897 184.312 64.3923 184.871 64.3363C185.428 64.2803 186.142 64.2523 187.01 64.2523C188.07 64.2523 188.93 64.2883 189.587 64.3563C190.242 64.427 190.766 64.5323 191.158 64.671C191.548 64.811 191.822 64.9857 191.975 65.1963C192.128 65.4043 192.206 65.663 192.206 65.971V117.32Z" fill="#656263"/>
<path d="M266.381 117.236C266.381 117.516 266.304 117.766 266.151 117.99C265.997 118.214 265.717 118.396 265.313 118.536C264.907 118.677 264.371 118.788 263.699 118.872C263.028 118.956 262.175 118.997 261.141 118.997C260.135 118.997 259.297 118.956 258.627 118.872C257.956 118.788 257.424 118.677 257.033 118.536C256.641 118.396 256.363 118.214 256.196 117.99C256.028 117.766 255.944 117.516 255.944 117.236V73.0969H255.859L240.141 117.194C240.029 117.557 239.848 117.858 239.596 118.096C239.344 118.333 239.001 118.521 238.569 118.661C238.135 118.801 237.584 118.893 236.913 118.934C236.243 118.976 235.432 118.997 234.483 118.997C233.531 118.997 232.721 118.961 232.049 118.893C231.381 118.821 230.828 118.71 230.395 118.556C229.961 118.402 229.619 118.214 229.368 117.99C229.117 117.766 228.948 117.502 228.864 117.194L213.689 73.0969H213.607V117.236C213.607 117.516 213.529 117.766 213.376 117.99C213.223 118.214 212.936 118.396 212.517 118.536C212.097 118.677 211.559 118.788 210.904 118.872C210.247 118.956 209.401 118.997 208.367 118.997C207.361 118.997 206.523 118.956 205.852 118.872C205.181 118.788 204.643 118.677 204.239 118.536C203.832 118.396 203.553 118.214 203.4 117.99C203.247 117.766 203.169 117.516 203.169 117.236V68.9049C203.169 67.4796 203.547 66.3889 204.3 65.6343C205.055 64.8796 206.061 64.5036 207.319 64.5036H214.529C215.815 64.5036 216.919 64.6089 217.841 64.8183C218.763 65.0276 219.559 65.3769 220.229 65.8663C220.901 66.3543 221.459 66.9969 221.907 67.7929C222.353 68.5903 222.744 69.5743 223.081 70.7489L234.817 103.068H234.985L247.141 70.833C247.504 69.6596 247.903 68.6676 248.336 67.8569C248.769 67.0463 249.272 66.3889 249.845 65.8863C250.417 65.3836 251.095 65.0276 251.877 64.8183C252.66 64.6089 253.568 64.5036 254.603 64.5036H262.023C262.776 64.5036 263.425 64.6009 263.971 64.7969C264.517 64.9929 264.963 65.2796 265.313 65.6556C265.661 66.0343 265.927 66.4943 266.109 67.0396C266.291 67.5849 266.381 68.2076 266.381 68.9049V117.236Z" fill="#656263"/>
<path d="M99.8632 142.932L106.286 151.531H104.693L98.9939 143.947L93.2699 151.531H91.6992L98.1486 142.932L91.9659 134.624H93.5339L99.0166 141.918L104.475 134.624H106.069L99.8632 142.932Z" fill="#656263"/>
<path d="M125.016 150.492C129.146 150.492 132.092 147.28 132.092 143.078C132.092 138.802 129.002 135.664 125.016 135.664C121.007 135.664 117.939 138.802 117.939 143.078C117.939 147.304 121.031 150.492 125.016 150.492ZM125.016 134.408C129.822 134.408 133.494 138.029 133.494 143.078C133.494 148.053 129.822 151.748 125.016 151.748C120.211 151.748 116.539 148.125 116.539 143.078C116.539 138.174 120.136 134.408 125.016 134.408Z" fill="#656263"/>
<path d="M156.864 135.88H149.763L149.473 139.068C148.507 150.54 146.189 151.724 144.039 151.531L144.063 150.201C145.197 150.275 147.444 149.647 148.265 138.005L148.507 134.624H158.192V151.531H156.864V135.88Z" fill="#656263"/>
<path d="M173.901 150.275H183.706V135.88H176.801L176.607 138.971C176.147 145.951 174.554 149.501 173.901 150.275ZM170.618 150.275H172.429C173.129 149.381 174.939 145.685 175.35 138.005L175.519 134.624H185.037V150.275H187.33V154.768H186.074V151.531H171.873V154.768H170.618V150.275Z" fill="#656263"/>
<path d="M200.169 151.531V134.624H201.499V149.356L212.873 134.624H214.059V151.531H212.728V136.797L201.355 151.531H200.169Z" fill="#656263"/>
<path d="M240.637 143.536H230.084V151.531H228.754V134.624H230.084V142.28H240.637V134.624H241.965V151.531H240.637V143.536Z" fill="#656263"/>
<path d="M256.663 134.624H265.985V135.88H257.992V151.531H256.663V134.624Z" fill="#656263"/>
<defs>
<linearGradient id="paint0_linear" x1="73.7239" y1="6.21907" x2="73.7239" y2="55.1353" gradientUnits="userSpaceOnUse">
<stop stop-color="#1082CE"/>
<stop offset="0.3" stop-color="#1082CE"/>
<stop offset="0.573113" stop-color="#1082CE"/>
<stop offset="1" stop-color="#2744A0"/>
</linearGradient>
<linearGradient id="paint1_linear" x1="8.30173" y1="14.3826" x2="57.2159" y2="14.3826" gradientUnits="userSpaceOnUse">
<stop stop-color="#FEE927"/>
<stop offset="0.3" stop-color="#FEE927"/>
<stop offset="0.571564" stop-color="#FEE927"/>
<stop offset="1" stop-color="#F89C0E"/>
</linearGradient>
<linearGradient id="paint2_linear" x1="31.724" y1="72.891" x2="80.6399" y2="72.891" gradientUnits="userSpaceOnUse">
<stop stop-color="#1C63B7"/>
<stop offset="0.428436" stop-color="#68BCEB"/>
<stop offset="0.7" stop-color="#68BCEB"/>
<stop offset="1" stop-color="#68BCEB"/>
</linearGradient>
<linearGradient id="paint3_linear" x1="15.2159" y1="81.6428" x2="15.2159" y2="32.729" gradientUnits="userSpaceOnUse">
<stop stop-color="#80C428"/>
<stop offset="0.3" stop-color="#80C428"/>
<stop offset="0.573113" stop-color="#80C428"/>
<stop offset="1" stop-color="#43803C"/>
</linearGradient>
</defs>
</svg>
