<svg width="148" height="57" viewBox="0 0 148 57" fill="none" xmlns="http://www.w3.org/2000/svg">
<path d="M65.1328 20.0108C63.0823 22.1277 62 25.2313 62 28.9799C62 36.3557 66.1354 40.9367 72.7884 40.9367C78.2681 40.9367 82.0161 37.8552 83.0414 32.4859L83.1326 32.0118H77.5789L77.5105 32.3316C76.9922 34.8287 75.3004 36.262 72.8624 36.262C68.9378 36.262 67.5366 32.5299 67.5366 29.0405C67.5366 23.583 70.2878 21.637 72.8624 21.637C76.5023 21.637 77.163 23.991 77.5219 25.2588L77.6016 25.551H83.0927L83.0585 25.1265C82.7509 21.1961 79.4244 16.9624 72.8056 16.9624C71.3778 16.9253 69.9578 17.1773 68.6364 17.7022C67.3151 18.2272 66.1218 19.0135 65.1328 20.0108Z" fill="#CCCBCB"/>
<path d="M98.4153 17.5412L93.9211 29.25C93.192 27.8002 88.0769 17.5412 88.0769 17.5412H81.777L91.2497 34.9886C90.5775 36.1518 90.2927 36.3282 89.2674 36.3282C88.6917 36.3132 88.1231 36.2012 87.587 35.9974L87.0174 35.7439V40.584L87.325 40.6556C88.3184 40.8393 89.3269 40.9353 90.3382 40.9422C92.7648 40.9422 94.4851 40.2532 96.0742 36.7307L104.693 17.5412H98.4153Z" fill="#CCCBCB"/>
<path d="M103.85 25.1328L103.815 25.5573H109.306L109.392 25.2652C109.751 23.9973 110.412 21.6434 114.074 21.6434C114.974 21.6434 117.89 21.9797 118.922 26.0535H112.656V30.64H119.161C118.887 32.619 117.862 36.2519 114.034 36.2519C111.602 36.2519 109.91 34.8185 109.392 32.3213L109.324 32.0016H103.781L103.873 32.4757C104.921 37.8615 108.657 40.9596 114.137 40.9596C120.829 40.9596 124.994 36.3786 124.994 29.0027C124.994 21.6269 120.704 16.9852 114.074 16.9852C107.444 16.9852 104.157 21.2024 103.85 25.1328Z" fill="#CCCBCB"/>
<path d="M140.339 17.5412L132.261 25.8928V17.5412H126.708V40.3689H132.261V32.6899L134.027 30.9314L140.863 40.391H148L137.918 27.0119L147.641 17.5412H140.339Z" fill="#CCCBCB"/>
<path d="M37.3808 33.0962C37.1475 33.3293 29.2914 41.054 28.7396 41.6224C30.447 42.7899 32.4071 43.5361 34.459 43.7999C36.511 44.0637 38.5963 43.8377 40.5438 43.1401C41.0103 42.9696 41.8351 42.7592 42.3186 42.5262L42.8079 42.0033C45.1158 39.5089 46.6905 36.4269 47.3588 33.0962C44.0367 31.6866 39.6848 31.1978 37.3808 33.0962Z" fill="url(#paint0_linear_1_133)"/>
<path d="M37.3808 23.2116C39.5766 25.4114 44.6794 25.5989 47.0517 23.7517C46.4828 21.2847 44.2073 16.9306 41.744 14.8503L41.0614 14.225C39.3569 12.7304 37.4049 11.5436 35.293 10.7179L34.0358 10.2745L32.039 9.75729C30.6799 9.49691 29.2986 9.36936 27.9147 9.37646C26.5768 9.37647 25.2425 9.51361 23.9326 9.78571L21.8448 10.3541L20.6559 10.7805C18.9199 11.518 17.3006 12.5041 15.8489 13.7078C17.9351 13.0701 20.1418 12.9291 22.2922 13.2963C24.4428 13.6634 26.4774 14.5285 28.2333 15.8223C28.2333 15.8223 37.1362 22.9672 37.3808 23.2116Z" fill="url(#paint1_linear_1_133)"/>
<path d="M14.3583 43.0548C16.1688 44.8294 18.3103 46.2314 20.6614 47.1815L21.8504 47.6078L23.9438 48.1763C26.5707 48.7039 29.2747 48.7213 31.9081 48.2274L34.0471 47.6874L35.4578 47.1815C37.2537 46.4482 38.9356 45.4625 40.4526 44.2542C38.2932 44.8638 36.0259 44.9908 33.8119 44.6264C31.5977 44.262 29.4911 43.4149 27.6415 42.1454L15.2628 29.7881C13.7732 31.9643 12.9797 34.541 12.9873 37.1775C12.9892 38.5944 13.2137 40.0023 13.6529 41.3496C13.8405 41.9014 14.0589 42.4422 14.3072 42.9696L14.3583 43.0548Z" fill="url(#paint2_linear_1_133)"/>
<path d="M13.8463 15.413C12.0726 17.2247 10.6713 19.3664 9.72203 21.7167L9.28969 22.9047L8.72082 24.9964C8.17554 27.621 8.17554 30.3296 8.72082 32.9542L9.28969 35.0402L9.72203 36.2339C10.4541 37.9716 11.4415 39.5905 12.6518 41.037C12.2436 39.7085 12.0291 38.3283 12.0146 36.9388C12.0077 33.9676 12.9636 31.0741 14.7396 28.691L27.1125 16.3395C25.4041 15.1726 23.4439 14.4253 21.3916 14.1587C19.3394 13.892 17.2531 14.1133 15.3027 14.8048C14.842 14.9753 14.3641 15.1686 13.8862 15.4016L13.8463 15.413Z" fill="url(#paint3_linear_1_133)"/>
<path d="M44.1731 14.885C47.5904 18.7839 49.4742 23.7902 49.4742 28.973C49.4742 34.1558 47.5904 39.1622 44.1731 43.0611C43.5029 43.8426 42.7725 44.5704 41.9886 45.2382L40.9589 46.0908C40.72 46.2669 40.4754 46.4432 40.2137 46.6194C38.9128 47.5266 37.5164 48.289 36.0495 48.8931C30.8335 50.9823 25.008 50.9599 19.8082 48.8305C18.3814 48.2141 17.0222 47.4522 15.7521 46.5568L15.0297 46.0339C14.6599 45.7497 14.3129 45.4655 13.9601 45.1585C13.1719 44.4818 12.436 43.7464 11.7587 42.9588C8.40798 39.0661 6.5654 34.1018 6.5654 28.9673C6.5654 23.8329 8.40798 18.8686 11.7587 14.9759C12.4375 14.1897 13.1733 13.4544 13.9601 12.7762C14.3129 12.4692 14.6599 12.2077 15.0297 11.9008C15.2686 11.7189 15.5132 11.5483 15.7521 11.3779C17.0271 10.5093 18.3859 9.7704 19.8082 9.17238C25.0017 7.01325 30.8381 6.98874 36.0495 9.10417C37.5186 9.69191 38.9156 10.4452 40.2137 11.3494C40.4754 11.5086 40.72 11.7018 40.9589 11.878C41.306 12.1395 41.6586 12.418 42.0057 12.7079L44.1731 14.885ZM50.9427 27.4241V27.2933C51.9609 25.0936 53.8838 25.0198 56 27.0546C56 23.6953 55.2832 21.0352 53.6619 19.5289C51.3864 17.4996 48.9858 18.8241 47.0289 16.0672C46.8013 13.6571 48.4568 12.6567 51.3068 13.3161C49.6002 10.4342 47.6432 8.49597 45.5042 7.99576C45.0687 7.8915 44.6188 7.86076 44.1731 7.90482C43.4278 7.9755 42.6941 8.13777 41.9886 8.38797C41.645 8.50111 41.2955 8.59599 40.9419 8.67218C40.6963 8.72149 40.447 8.75001 40.1966 8.75744C39.4453 8.79486 38.6968 8.63825 38.0235 8.30271C36.6526 6.34737 37.5457 4.69898 40.1966 3.83499C40.2515 3.82425 40.3036 3.80302 40.3503 3.77247C40.3024 3.74424 40.2507 3.72317 40.1966 3.70994C38.8995 2.94114 37.4966 2.36661 36.0325 2.00471C34.9132 1.71591 33.7386 1.71591 32.6193 2.00471C30.3097 2.78911 29.7749 4.71034 27.9488 5.60275C27.482 5.82691 26.9795 5.96736 26.464 6.01769H26.3332C24.1317 4.98886 24.0577 3.07332 26.0943 0.958824C23.5173 0.958824 21.3328 1.3965 19.7627 2.31165C19.3236 2.59758 18.9223 2.9375 18.5681 3.32342C16.7362 5.42086 17.6749 7.59788 15.7237 9.4509C15.5309 9.63359 15.3256 9.80263 15.1093 9.95679H14.9784C14.6208 9.98039 14.2615 9.95939 13.909 9.89426C12.3616 9.51911 11.7985 7.99576 12.3616 5.68233L11.7074 6.07453C9.17594 7.66609 7.45226 9.485 6.99146 11.4346C6.38277 14.453 8.76066 15.8683 7.28159 18.9831C5.29053 20.3985 3.5896 19.4834 2.75904 16.6754C1.09224 19.5971 0.386835 22.2743 1.02398 24.3717C2.00244 27.2138 4.67046 27.2933 5.06298 30.539V30.6754C4.05607 32.8752 2.11621 32.9491 0 30.9368C0 34.2735 0.739537 36.9564 2.35514 38.457C4.63063 40.4635 7.03697 39.1448 8.99391 41.9072C9.22146 44.3059 7.56034 45.3177 4.71028 44.6527C6.4169 47.5516 8.37952 49.5126 10.5185 49.9958C10.9137 50.0738 11.3161 50.11 11.7188 50.1037C12.4703 50.0406 13.2103 49.8802 13.9204 49.6262C14.2731 49.5126 14.6201 49.4046 14.9898 49.3194C15.2287 49.2796 15.4734 49.2284 15.7123 49.2113C16.4984 49.1675 17.2824 49.3281 17.9878 49.6774C19.3531 51.6498 18.4543 53.3209 15.7123 54.1679C15.6974 54.1717 15.6817 54.1717 15.6668 54.1679C15.6668 54.1679 15.7123 54.1679 15.7123 54.2077C16.9821 54.9545 18.3462 55.528 19.7684 55.9129C20.9475 56.2321 22.1903 56.2321 23.3694 55.9129C25.6448 55.1455 26.1682 53.2528 27.9545 52.3547C28.4489 52.1168 28.9795 51.9631 29.5246 51.8999H29.6554C31.8627 52.9231 31.9309 54.8443 29.9 56.9588C32.3633 56.9588 34.451 56.5666 36.0098 55.7196C36.5424 55.4289 37.0276 55.0591 37.449 54.6226C39.258 52.5536 38.3649 50.4221 40.1739 48.5861C40.4159 48.3558 40.6788 48.1485 40.9589 47.9665C40.9442 47.9717 40.9282 47.9717 40.9134 47.9665C40.9134 47.9665 40.9134 47.9665 40.9589 47.9268C41.0045 47.887 40.9589 47.9268 40.9988 47.9268C40.987 47.9413 40.9736 47.9547 40.9589 47.9665C41.3085 47.9494 41.6589 47.9647 42.0057 48.012C43.6384 48.319 44.2812 49.865 43.7123 52.2467C43.8891 52.1559 44.0584 52.0514 44.2187 51.934C46.8355 50.3197 48.6046 48.4667 49.0654 46.4659C49.6741 43.4305 47.2905 42.0379 48.7582 38.9174C48.7582 38.9174 48.7582 38.9628 48.7582 38.9799C50.7436 37.5873 52.4446 38.5025 53.275 41.2934C54.9817 38.3944 55.6587 35.7115 55.0215 33.6198C53.9918 30.7607 51.3068 30.6754 50.9427 27.4241Z" fill="#757373"/>
<defs>
<linearGradient id="paint0_linear_1_133" x1="48.9062" y1="30.0325" x2="22.7049" y2="52.5741" gradientUnits="userSpaceOnUse">
<stop offset="0.3" stop-color="#CBCACA"/>
<stop offset="0.38" stop-color="#C5C4C4"/>
<stop offset="0.5" stop-color="#B3B2B2"/>
<stop offset="0.63" stop-color="#969495"/>
<stop offset="0.78" stop-color="#6D6C6C"/>
<stop offset="0.87" stop-color="#525051"/>
</linearGradient>
<linearGradient id="paint1_linear_1_133" x1="26.282" y1="11.4284" x2="47.4366" y2="34.8812" gradientUnits="userSpaceOnUse">
<stop offset="0.04" stop-color="#FFFD7F"/>
<stop offset="0.12" stop-color="#FFFD60"/>
<stop offset="0.2" stop-color="#FFFD43"/>
<stop offset="0.3" stop-color="#FFFC2A"/>
<stop offset="0.4" stop-color="#FFFC17"/>
<stop offset="0.53" stop-color="#FFFC0A"/>
<stop offset="0.69" stop-color="#FFFC02"/>
<stop offset="1" stop-color="#FFFC00"/>
</linearGradient>
<linearGradient id="paint2_linear_1_133" x1="31.8114" y1="47.4999" x2="7.98664" y2="26.6596" gradientUnits="userSpaceOnUse">
<stop offset="0.3" stop-color="#979697"/>
<stop offset="0.32" stop-color="#919091"/>
<stop offset="0.49" stop-color="#767475"/>
<stop offset="0.66" stop-color="#626061"/>
<stop offset="0.83" stop-color="#565455"/>
<stop offset="1" stop-color="#525051"/>
</linearGradient>
<linearGradient id="paint3_linear_1_133" x1="6.53633" y1="34.864" x2="24.5097" y2="17.0638" gradientUnits="userSpaceOnUse">
<stop offset="0.35" stop-color="#BCC76A"/>
<stop offset="0.95" stop-color="#90A107"/>
</linearGradient>
</defs>
</svg>
