<svg width="148" height="57" viewBox="0 0 148 57" fill="none" xmlns="http://www.w3.org/2000/svg">
<path d="M38.2423 23.0007C37.7138 27.7868 37.2042 32.4307 37.9854 36.8733C44.165 37.4429 50.0619 37.4069 55.5571 33.8893C55.8423 32.2885 56 30.6432 56 28.9593C56 27.0305 55.8038 25.1479 55.433 23.3296L51.6833 19.5807L51.7029 19.5541L37.8714 5.72437C39.5279 11.3952 38.877 17.2622 38.2423 23.0007Z" fill="url(#paint0_linear_1_136)"/>
<path d="M22.3707 1.52582L18.621 5.27556L18.5953 5.25585L4.76633 19.0865C7.43347 18.3088 10.1451 18.039 12.8636 18.039C15.9264 18.039 19.0021 18.379 22.0401 18.7157C26.8262 19.2458 31.471 19.7546 35.9144 18.9726C36.484 12.7947 36.448 6.8986 32.9313 1.40163C31.3296 1.11642 29.6843 0.958824 27.9996 0.958824C26.0716 0.958824 24.1899 1.15496 22.3707 1.52582Z" fill="url(#paint1_linear_1_136)"/>
<path d="M20.0847 38.9443C19.5169 45.1222 19.5503 51.0192 23.0679 56.5169C24.6696 56.8013 26.3166 56.9589 27.9996 56.9589C29.9276 56.9589 31.8102 56.7628 33.6285 56.3919L37.3791 52.6422L37.4039 52.6619L51.2346 38.8304C45.5646 40.4869 39.6959 39.8368 33.9583 39.2012C30.9434 38.8681 27.9842 38.5434 25.097 38.5434C23.4011 38.5434 21.7292 38.6556 20.0847 38.9443Z" fill="url(#paint2_linear_1_136)"/>
<path d="M0.441952 24.0268C0.15674 25.6285 0 27.2755 0 28.9593C0 30.8873 0.194427 32.7699 0.567002 34.5873L4.31673 38.3379L4.29617 38.3628L18.1268 52.1917C17.3492 49.5255 17.0802 46.8138 17.0802 44.0953C17.0802 41.0316 17.4202 37.9568 17.756 34.9188C18.2861 30.1328 18.7957 25.488 18.0146 21.0445C16.2725 20.8843 14.5527 20.7712 12.8585 20.7712C8.54266 20.7712 4.38953 21.501 0.441952 24.0268Z" fill="url(#paint3_linear_1_136)"/>
<path d="M74.18 12.1801H74.1593L70.3822 23.5304H77.9561L74.18 12.1801ZM86.4389 31.7649C86.6033 32.2601 86.7067 32.652 86.7485 32.941C86.7894 33.23 86.7342 33.4466 86.5831 33.5914C86.4315 33.7351 86.1636 33.8252 85.7781 33.8602C85.3931 33.8937 84.8624 33.9114 84.1899 33.9114C83.4874 33.9114 82.9404 33.9006 82.548 33.8804C82.1561 33.8602 81.8573 33.8178 81.6505 33.7563C81.4437 33.6938 81.3 33.6086 81.2173 33.4988C81.1355 33.3885 81.0656 33.2438 81.0105 33.0651L79.216 27.6992H69.1863L67.4928 32.9208C67.4381 33.1138 67.3662 33.2743 67.2766 33.4053C67.187 33.5362 67.0423 33.6396 66.8434 33.715C66.644 33.7903 66.3619 33.8425 65.9982 33.87C65.6325 33.8976 65.1546 33.9114 64.5638 33.9114C63.9304 33.9114 63.4354 33.8907 63.0777 33.8494C62.7199 33.808 62.4718 33.7086 62.3346 33.55C62.1967 33.392 62.1482 33.168 62.1895 32.8795C62.2315 32.59 62.3346 32.205 62.4994 31.7235L70.7337 8.03209C70.8154 7.79839 70.9119 7.60934 71.0222 7.46494C71.1325 7.31985 71.3078 7.21021 71.549 7.13474C71.7898 7.05927 72.1231 7.01067 72.5499 6.99034C72.9767 6.96932 73.5405 6.95883 74.2415 6.95883C75.0534 6.95883 75.7003 6.96932 76.1828 6.99034C76.6638 7.01067 77.0384 7.05927 77.3062 7.13474C77.5751 7.21021 77.768 7.32379 77.8847 7.47542C78.0009 7.62642 78.1013 7.83251 78.1841 8.09442L86.4389 31.7649Z" fill="#656263"/>
<path d="M111.482 33.0858C111.482 33.2231 111.437 33.3433 111.348 33.4471C111.258 33.55 111.11 33.6362 110.904 33.7041C110.697 33.774 110.418 33.8252 110.068 33.8597C109.718 33.8932 109.28 33.9109 108.757 33.9109C108.234 33.9109 107.798 33.8932 107.447 33.8597C107.097 33.8252 106.821 33.774 106.622 33.7041C106.423 33.6362 106.282 33.55 106.199 33.4471C106.116 33.3433 106.075 33.2231 106.075 33.0858V19.0107C106.075 18.4751 106.082 17.9479 106.096 17.432C106.11 16.9167 106.13 16.4592 106.157 16.0601H106.116C106.006 16.2524 105.875 16.4769 105.724 16.7303C105.573 16.9856 105.411 17.2541 105.24 17.5357C105.067 17.8173 104.885 18.1068 104.692 18.4022C104.5 18.6989 104.307 18.9838 104.115 19.2589L94.8275 33.1064C94.7178 33.2581 94.6035 33.3885 94.4869 33.4988C94.3707 33.6086 94.2195 33.6943 94.0329 33.7563C93.8478 33.8183 93.6209 33.8597 93.3516 33.8804C93.0847 33.9011 92.7361 33.9109 92.3093 33.9109C91.7737 33.9109 91.3399 33.8932 91.0096 33.8597C90.6792 33.8252 90.4212 33.774 90.2356 33.7041C90.0505 33.6362 89.923 33.5466 89.8541 33.4363C89.7852 33.327 89.7512 33.1956 89.7512 33.0444V7.78441C89.7512 7.64725 89.796 7.52643 89.8851 7.42403C89.9742 7.32034 90.1254 7.23434 90.3395 7.16541C90.5527 7.09713 90.8304 7.04529 91.1745 7.01048C91.5181 6.977 91.9524 6.95927 92.4752 6.95927C93.0109 6.95927 93.4515 6.977 93.7956 7.01048C94.1393 7.04529 94.4145 7.09713 94.6213 7.16541C94.8275 7.23434 94.9723 7.32034 95.055 7.42403C95.1372 7.52643 95.1786 7.64725 95.1786 7.78441V21.9417C95.1786 22.3822 95.1712 22.8495 95.1574 23.3451C95.1446 23.8401 95.1234 24.3219 95.0963 24.7901H95.1372C95.3711 24.3764 95.667 23.8814 96.0249 23.3038C96.3823 22.7255 96.7535 22.1622 97.1385 21.6115L106.426 7.76408C106.522 7.62687 106.625 7.5061 106.736 7.40306C106.845 7.29932 106.993 7.21331 107.179 7.14508C107.365 7.07615 107.595 7.0282 107.871 7.00063C108.145 6.97306 108.496 6.95927 108.924 6.95927C109.446 6.95927 109.869 6.977 110.192 7.01048C110.515 7.04529 110.773 7.09713 110.966 7.16541C111.158 7.23434 111.293 7.32034 111.368 7.42403C111.443 7.52643 111.482 7.6538 111.482 7.80543V33.0858Z" fill="#656263"/>
<path d="M148 33.0444C148 33.1823 147.962 33.3053 147.887 33.4156C147.811 33.5259 147.673 33.6155 147.474 33.6844C147.274 33.7538 147.01 33.8085 146.68 33.8498C146.349 33.8912 145.929 33.9114 145.42 33.9114C144.925 33.9114 144.512 33.8912 144.183 33.8498C143.852 33.8085 143.59 33.7538 143.398 33.6844C143.205 33.6155 143.068 33.5259 142.986 33.4156C142.903 33.3053 142.862 33.1823 142.862 33.0444V11.3137H142.82L135.081 33.0237C135.026 33.2024 134.937 33.3506 134.813 33.4678C134.689 33.5845 134.52 33.677 134.307 33.746C134.094 33.8149 133.823 33.8602 133.492 33.8804C133.162 33.901 132.763 33.9114 132.296 33.9114C131.827 33.9114 131.428 33.8937 131.098 33.8602C130.769 33.8247 130.496 33.7701 130.283 33.6943C130.07 33.6185 129.901 33.5259 129.778 33.4156C129.654 33.3053 129.571 33.1754 129.529 33.0237L122.058 11.3137H122.018V33.0444C122.018 33.1823 121.98 33.3053 121.904 33.4156C121.829 33.5259 121.688 33.6155 121.481 33.6844C121.275 33.7538 121.01 33.8085 120.687 33.8498C120.364 33.8912 119.947 33.9114 119.438 33.9114C118.943 33.9114 118.53 33.8912 118.2 33.8498C117.87 33.8085 117.605 33.7538 117.406 33.6844C117.206 33.6155 117.068 33.5259 116.993 33.4156C116.918 33.3053 116.879 33.1823 116.879 33.0444V9.24986C116.879 8.54815 117.065 8.01117 117.436 7.63966C117.808 7.26811 118.303 7.08299 118.922 7.08299H122.472C123.105 7.08299 123.649 7.13483 124.103 7.23793C124.557 7.34097 124.948 7.51294 125.278 7.75388C125.609 7.99414 125.884 8.3105 126.104 8.70239C126.324 9.09497 126.516 9.57942 126.682 10.1577L132.46 26.0692H132.543L138.528 10.1991C138.706 9.62141 138.903 9.13303 139.116 8.7339C139.329 8.33483 139.577 8.01117 139.859 7.76373C140.141 7.51624 140.474 7.34097 140.859 7.23793C141.245 7.13483 141.692 7.08299 142.201 7.08299H145.854C146.225 7.08299 146.545 7.13089 146.813 7.22739C147.082 7.32388 147.302 7.46504 147.474 7.65015C147.646 7.83659 147.776 8.06306 147.866 8.33152C147.956 8.59999 148 8.90656 148 9.24986V33.0444Z" fill="#656263"/>
<path d="M66.0193 45.6952L69.1814 49.9287H68.3972L65.5914 46.1949L62.7733 49.9287H62L65.1752 45.6952L62.1313 41.6049H62.9033L65.6025 45.1959L68.2898 41.6049H69.0746L66.0193 45.6952Z" fill="#656263"/>
<path d="M78.4026 49.4171C80.4359 49.4171 81.8863 47.8358 81.8863 45.767C81.8863 43.6619 80.365 42.117 78.4026 42.117C76.4289 42.117 74.9185 43.6619 74.9185 45.767C74.9185 47.8476 76.4407 49.4171 78.4026 49.4171ZM78.4026 41.4986C80.7688 41.4986 82.5766 43.2813 82.5766 45.767C82.5766 48.2164 80.7688 50.0355 78.4026 50.0355C76.037 50.0355 74.2292 48.2518 74.2292 45.767C74.2292 43.3527 76.0001 41.4986 78.4026 41.4986Z" fill="#656263"/>
<path d="M94.0822 42.2233H90.5862L90.4434 43.7928C89.9678 49.4408 88.8266 50.0237 87.7681 49.9287L87.7799 49.2739C88.3382 49.3103 89.4445 49.0011 89.8487 43.2695L89.9678 41.6049H94.736V49.9287H94.0822V42.2233Z" fill="#656263"/>
<path d="M102.47 49.3103H107.297V42.2233H103.898L103.802 43.7451C103.576 47.1815 102.791 48.9292 102.47 49.3103ZM100.854 49.3103H101.745C102.09 48.8702 102.981 47.0505 103.183 43.2695L103.266 41.6049H107.952V49.3103H109.081V51.5223H108.463V49.9287H101.471V51.5223H100.854V49.3103Z" fill="#656263"/>
<path d="M115.402 49.9287V41.6049H116.057V48.8579L121.657 41.6049H122.241V49.9287H121.585V42.6748L115.986 49.9287H115.402Z" fill="#656263"/>
<path d="M135.326 45.9925H130.13V49.9287H129.475V41.6049H130.13V45.3742H135.326V41.6049H135.979V49.9287H135.326V45.9925Z" fill="#656263"/>
<path d="M143.216 41.6049H147.805V42.2233H143.87V49.9287H143.216V41.6049Z" fill="#656263"/>
<defs>
<linearGradient id="paint0_linear_1_136" x1="46.7919" y1="4.92292" x2="46.7919" y2="36.3452" gradientUnits="userSpaceOnUse">
<stop stop-color="#1082CE"/>
<stop offset="0.3" stop-color="#1082CE"/>
<stop offset="0.573113" stop-color="#1082CE"/>
<stop offset="1" stop-color="#2744A0"/>
</linearGradient>
<linearGradient id="paint1_linear_1_136" x1="4.76662" y1="10.1669" x2="36.1876" y2="10.1669" gradientUnits="userSpaceOnUse">
<stop stop-color="#FEE927"/>
<stop offset="0.3" stop-color="#FEE927"/>
<stop offset="0.571564" stop-color="#FEE927"/>
<stop offset="1" stop-color="#F89C0E"/>
</linearGradient>
<linearGradient id="paint2_linear_1_136" x1="19.8124" y1="47.751" x2="51.2345" y2="47.751" gradientUnits="userSpaceOnUse">
<stop stop-color="#1C63B7"/>
<stop offset="0.428436" stop-color="#68BCEB"/>
<stop offset="0.7" stop-color="#68BCEB"/>
<stop offset="1" stop-color="#68BCEB"/>
</linearGradient>
<linearGradient id="paint3_linear_1_136" x1="9.20809" y1="53.3729" x2="9.20809" y2="21.9521" gradientUnits="userSpaceOnUse">
<stop stop-color="#80C428"/>
<stop offset="0.3" stop-color="#80C428"/>
<stop offset="0.573113" stop-color="#80C428"/>
<stop offset="1" stop-color="#43803C"/>
</linearGradient>
</defs>
</svg>
