<svg width="148" height="57" viewBox="0 0 148 57" fill="none" xmlns="http://www.w3.org/2000/svg">
<path fill-rule="evenodd" clip-rule="evenodd" d="M2.98813 39.1067C11.4802 53.1556 28.2276 51.5378 35.8455 43.1788C35.8885 43.1324 35.8885 42.8485 35.7227 42.8895C27.8421 44.8452 20.7055 42.6704 15.8813 38.1332C5.49657 28.3625 6.59899 14.2338 14.6551 5.70861C16.0794 4.20086 17.9602 3.02338 19.6644 1.96029C19.8905 1.81999 19.7279 1.47138 19.4739 1.54477C5.06809 5.76797 -5.39738 25.2359 2.98813 39.1067Z" fill="#0078A8"/>
<path fill-rule="evenodd" clip-rule="evenodd" d="M31.6651 0.967367C15.4883 1.44333 8.48946 17.041 11.7784 27.9492C11.7956 28.0085 12.0379 28.151 12.0852 27.9837C14.3655 20.0478 19.7796 14.8328 26.0453 12.8415C39.5371 8.55249 50.9854 16.5942 54.198 27.9686C54.7653 29.9825 54.8256 32.2285 54.8751 34.2662C54.8827 34.536 55.2595 34.5673 55.323 34.3061C58.9393 19.4737 47.6384 0.497884 31.6651 0.967367Z" fill="#EF4056"/>
<path fill-rule="evenodd" clip-rule="evenodd" d="M49.7086 45.4075C57.3933 30.8826 47.647 16.9017 36.738 14.3536C36.6777 14.3396 36.4365 14.4831 36.5549 14.6083C42.1553 20.5875 43.8768 27.9783 42.4352 34.5068C39.3315 48.5665 26.7785 54.6547 15.512 51.8043C13.5182 51.3003 11.5804 50.2286 9.82444 49.2551C9.59298 49.1256 9.37658 49.4429 9.56606 49.6296C20.3556 60.2399 42.122 59.7478 49.7086 45.4075Z" fill="#FFD530"/>
<path fill-rule="evenodd" clip-rule="evenodd" d="M62 19.4036C62 17.4736 63.4611 15.9588 65.433 15.9588C66.6777 15.9588 67.4821 16.473 68.0533 17.2052C68.1187 17.2891 68.1011 17.4124 68.0172 17.4778L66.9906 18.2872C66.9516 18.3171 66.9025 18.3308 66.8536 18.3255C66.8047 18.3202 66.7598 18.2963 66.7281 18.2587C66.3817 17.8695 65.9732 17.6338 65.4137 17.6338C64.5028 17.6338 63.8612 18.4189 63.8612 19.4036C63.8612 20.3967 64.5028 21.1734 65.4137 21.1734C66.0277 21.1734 66.4135 20.91 66.77 20.5024C66.8012 20.4662 66.8449 20.4429 66.8923 20.4372C66.9398 20.4315 66.9877 20.4436 67.0267 20.4713L68.081 21.2354C68.169 21.2992 68.19 21.4267 68.1229 21.5122C67.5215 22.2906 66.7096 22.8467 65.3575 22.8467C63.4972 22.8467 62 21.3998 62 19.4036ZM73.1059 19.2702L70.6677 21.7974V22.5439C70.6681 22.5661 70.6641 22.5882 70.656 22.6089C70.6478 22.6296 70.6356 22.6485 70.62 22.6644C70.6045 22.6803 70.586 22.693 70.5655 22.7017C70.545 22.7104 70.523 22.7149 70.5008 22.715H69.199C69.1068 22.715 69.0313 22.6395 69.0313 22.5447V16.4419C69.0309 16.4197 69.035 16.3976 69.0433 16.377C69.0516 16.3563 69.0639 16.3375 69.0795 16.3217C69.0951 16.3059 69.1137 16.2933 69.1342 16.2847C69.1548 16.2761 69.1768 16.2717 69.199 16.2717H70.5008C70.523 16.2717 70.545 16.2761 70.5656 16.2847C70.5861 16.2933 70.6047 16.3059 70.6203 16.3217C70.6359 16.3375 70.6482 16.3563 70.6565 16.377C70.6648 16.3976 70.6689 16.4197 70.6685 16.4419V19.7533L73.1059 17.2371V16.4419C73.1056 16.4197 73.1097 16.3976 73.118 16.377C73.1263 16.3563 73.1386 16.3375 73.1542 16.3217C73.1698 16.3059 73.1884 16.2933 73.2089 16.2847C73.2294 16.2761 73.2515 16.2717 73.2737 16.2717H74.5746C74.6677 16.2717 74.7424 16.3472 74.7424 16.4419V22.5447C74.7424 22.6395 74.6677 22.715 74.5746 22.715H73.2729C73.2507 22.7149 73.2288 22.7104 73.2083 22.7017C73.1879 22.6931 73.1694 22.6805 73.1539 22.6647C73.1384 22.6488 73.1261 22.6301 73.1179 22.6095C73.1097 22.5889 73.1056 22.5669 73.1059 22.5447L73.1068 19.2702H73.1059ZM80.5549 16.4419C80.5554 16.4196 80.5514 16.3975 80.5431 16.3767C80.5349 16.356 80.5226 16.3371 80.507 16.3212C80.4914 16.3052 80.4727 16.2926 80.4522 16.2839C80.4316 16.2753 80.4095 16.2708 80.3872 16.2708H76.471C76.4488 16.2709 76.4268 16.2755 76.4063 16.2842C76.3858 16.2929 76.3673 16.3055 76.3518 16.3215C76.3362 16.3374 76.324 16.3562 76.3158 16.3769C76.3076 16.3976 76.3037 16.4197 76.3041 16.4419V22.5447C76.3038 22.567 76.3079 22.589 76.3162 22.6097C76.3244 22.6303 76.3367 22.6491 76.3523 22.665C76.368 22.6808 76.3866 22.6934 76.4071 22.702C76.4276 22.7106 76.4496 22.715 76.4719 22.715H78.703C79.1794 22.715 79.6893 22.6294 80.1095 22.403C80.648 22.1186 81.0473 21.5894 81.0473 20.728C81.0473 19.7911 80.6388 19.2987 80.1095 19.0429C79.6063 18.798 79.0024 18.7695 78.5461 18.7695H77.9414V17.747H80.3872C80.4094 17.7471 80.4314 17.7426 80.452 17.734C80.4725 17.7255 80.4911 17.7129 80.5067 17.697C80.5223 17.6812 80.5346 17.6624 80.5429 17.6417C80.5512 17.6211 80.5553 17.599 80.5549 17.5768V16.4419ZM86.4421 19.2711L84.0047 21.7974V22.5439C84.0052 22.5662 84.0012 22.5884 83.9929 22.6091C83.9847 22.6299 83.9724 22.6487 83.9568 22.6647C83.9412 22.6806 83.9225 22.6933 83.9019 22.7019C83.8814 22.7105 83.8593 22.715 83.837 22.715H82.5344C82.5123 22.7148 82.4904 22.7102 82.4701 22.7015C82.4498 22.6928 82.4314 22.6802 82.416 22.6644C82.4005 22.6486 82.3884 22.6298 82.3802 22.6093C82.372 22.5888 82.368 22.5668 82.3683 22.5447V16.4419C82.368 16.4197 82.3721 16.3976 82.3803 16.377C82.3886 16.3563 82.4009 16.3375 82.4165 16.3217C82.4322 16.3059 82.4508 16.2933 82.4713 16.2847C82.4918 16.2761 82.5138 16.2717 82.5361 16.2717H83.837C83.8592 16.2717 83.8812 16.2761 83.9017 16.2847C83.9223 16.2933 83.9409 16.3059 83.9565 16.3217C83.9721 16.3375 83.9844 16.3563 83.9927 16.377C84.001 16.3976 84.0051 16.4197 84.0047 16.4419V19.7533L86.4421 17.2371V16.4419C86.4418 16.4197 86.4459 16.3976 86.4542 16.377C86.4625 16.3563 86.4748 16.3375 86.4904 16.3217C86.506 16.3059 86.5246 16.2933 86.5451 16.2847C86.5656 16.2761 86.5876 16.2717 86.6099 16.2717H87.9116C88.0039 16.2717 88.0794 16.3472 88.0794 16.4419V22.5447C88.0794 22.6395 88.0039 22.715 87.9116 22.715H86.609C86.5868 22.715 86.5648 22.7106 86.5443 22.702C86.5237 22.6934 86.5051 22.6808 86.4895 22.665C86.4739 22.6491 86.4616 22.6303 86.4533 22.6097C86.4451 22.589 86.441 22.567 86.4413 22.5447V19.2702L86.4421 19.2711ZM94.0589 16.7733C93.5942 16.3757 93.0356 16.2717 92.5156 16.2717H89.8072C89.715 16.2717 89.6395 16.3472 89.6395 16.4419V22.5447C89.6395 22.6387 89.715 22.715 89.8072 22.715H91.109C91.2021 22.715 91.2776 22.6395 91.2776 22.5447V20.9083H92.5608C93.054 20.9083 93.5464 20.8135 93.9934 20.4537C94.5143 20.0469 94.8498 19.3843 94.8498 18.59C94.8498 17.8234 94.542 17.1801 94.0589 16.7733ZM95.6953 19.4036C95.6953 17.4736 97.1555 15.9588 99.1275 15.9588C100.372 15.9588 101.177 16.473 101.748 17.2052C101.813 17.2891 101.796 17.4124 101.711 17.4778L100.686 18.2872C100.647 18.3171 100.598 18.3308 100.549 18.3255C100.5 18.3202 100.455 18.2963 100.423 18.2587C100.077 17.8695 99.6668 17.6338 99.1082 17.6338C98.1973 17.6338 97.5556 18.4189 97.5556 19.4036C97.5548 20.3967 98.1973 21.1734 99.1082 21.1734C99.7221 21.1734 100.107 20.91 100.464 20.5024C100.531 20.4277 100.64 20.4134 100.72 20.4713L101.775 21.2354C101.796 21.2508 101.814 21.2701 101.828 21.2924C101.841 21.3146 101.85 21.3393 101.854 21.3651C101.858 21.3908 101.857 21.4171 101.85 21.4423C101.844 21.4676 101.833 21.4913 101.817 21.5122C101.215 22.2906 100.403 22.8467 99.0528 22.8467C97.1924 22.8467 95.6944 21.3998 95.6953 19.4036ZM110.186 22.715C110.335 22.715 110.428 22.658 110.466 22.5254L110.753 21.5508H112.698L112.977 22.5254C113.014 22.658 113.107 22.715 113.256 22.715H114.577C114.689 22.715 114.726 22.658 114.726 22.5825C114.726 22.5506 114.719 22.5254 114.712 22.4961L114.707 22.4785L112.708 16.4134C112.67 16.2901 112.587 16.2432 112.447 16.2432H111.07C110.93 16.2432 110.847 16.2901 110.81 16.4134L108.772 22.4776L108.767 22.4961C108.761 22.5254 108.754 22.5506 108.754 22.5825C108.754 22.658 108.791 22.715 108.903 22.715H110.186ZM115.487 18.429C115.487 17.747 115.748 17.113 116.222 16.7347C116.641 16.4042 117.226 16.2708 117.85 16.2708H120.668C120.691 16.2708 120.713 16.2753 120.733 16.2839C120.754 16.2926 120.773 16.3052 120.788 16.3212C120.804 16.3371 120.816 16.356 120.824 16.3767C120.833 16.3975 120.837 16.4196 120.836 16.4419V22.5447C120.836 22.567 120.832 22.589 120.824 22.6097C120.816 22.6303 120.803 22.6491 120.788 22.665C120.772 22.6808 120.754 22.6934 120.733 22.702C120.713 22.7106 120.691 22.715 120.668 22.715H119.366C119.344 22.715 119.321 22.7106 119.301 22.702C119.28 22.6934 119.262 22.6808 119.246 22.665C119.231 22.6491 119.218 22.6303 119.21 22.6097C119.202 22.589 119.198 22.567 119.198 22.5447V20.6139H118.202L117.208 22.5447C117.133 22.6865 117.04 22.715 116.892 22.715H115.459C115.366 22.715 115.31 22.668 115.31 22.5833C115.313 22.5224 115.333 22.4636 115.366 22.4122L116.566 20.2927C116.429 20.2163 116.301 20.1243 116.185 20.0184C115.682 19.5638 115.487 18.9968 115.487 18.429ZM62.2416 32.3833C62.2412 32.4056 62.2453 32.4276 62.2536 32.4483C62.2619 32.4689 62.2742 32.4877 62.2898 32.5036C62.3054 32.5194 62.324 32.532 62.3445 32.5406C62.365 32.5492 62.3871 32.5536 62.4093 32.5536H63.7111C63.7333 32.5536 63.7553 32.5492 63.7758 32.5406C63.7964 32.532 63.815 32.5194 63.8306 32.5036C63.8462 32.4877 63.8585 32.4689 63.8668 32.4483C63.8751 32.4276 63.8791 32.4056 63.8788 32.3833V27.5856H66.3255C66.3477 27.5856 66.3697 27.5812 66.3902 27.5726C66.4108 27.564 66.4294 27.5515 66.445 27.5356C66.4606 27.5198 66.4729 27.501 66.4812 27.4803C66.4894 27.4597 66.4935 27.4376 66.4932 27.4154V26.2805C66.4935 26.2583 66.4894 26.2362 66.4812 26.2156C66.4729 26.1949 66.4606 26.1761 66.445 26.1603C66.4294 26.1444 66.4108 26.1319 66.3902 26.1233C66.3697 26.1147 66.3477 26.1103 66.3255 26.1103H62.4085C62.3863 26.1104 62.3644 26.1149 62.3439 26.1235C62.3235 26.1322 62.305 26.1448 62.2895 26.1606C62.274 26.1764 62.2617 26.1952 62.2535 26.2158C62.2453 26.2363 62.2412 26.2584 62.2416 26.2805V32.3833ZM72.4266 26.1094C72.4488 26.1094 72.4708 26.1138 72.4913 26.1224C72.5119 26.131 72.5305 26.1436 72.5461 26.1594C72.5617 26.1753 72.574 26.1941 72.5823 26.2147C72.5905 26.2354 72.5946 26.2575 72.5943 26.2797V27.4154C72.5946 27.4376 72.5905 27.4597 72.5823 27.4803C72.574 27.501 72.5617 27.5198 72.5461 27.5356C72.5305 27.5515 72.5119 27.564 72.4913 27.5726C72.4708 27.5812 72.4488 27.5856 72.4266 27.5856H69.3391V28.5695H71.9334C72.0265 28.5695 72.1011 28.6458 72.1011 28.7398L72.1003 29.8763C72.1005 29.8984 72.0963 29.9204 72.088 29.941C72.0797 29.9615 72.0673 29.9802 72.0517 29.996C72.0361 30.0117 72.0176 30.0242 71.9971 30.0328C71.9766 30.0413 71.9547 30.0457 71.9325 30.0457H69.3391V31.0774H72.4257C72.5188 31.0774 72.5935 31.1529 72.5935 31.2476V32.3833C72.5937 32.4055 72.5895 32.4275 72.5812 32.448C72.5728 32.4686 72.5605 32.4873 72.5449 32.503C72.5293 32.5188 72.5108 32.5313 72.4903 32.5398C72.4698 32.5483 72.4479 32.5527 72.4257 32.5527H67.8679C67.8458 32.5527 67.8238 32.5483 67.8033 32.5398C67.7829 32.5313 67.7643 32.5188 67.7487 32.503C67.7331 32.4873 67.7208 32.4686 67.7125 32.448C67.7041 32.4275 67.6999 32.4055 67.7002 32.3833L67.701 26.2797C67.7007 26.2575 67.7048 26.2354 67.7131 26.2147C67.7213 26.1941 67.7336 26.1753 67.7492 26.1594C67.7649 26.1436 67.7835 26.131 67.804 26.1224C67.8245 26.1138 67.8465 26.1094 67.8688 26.1094H72.4266ZM79.6147 26.2797C79.615 26.2576 79.611 26.2356 79.6028 26.2151C79.5946 26.1946 79.5825 26.1759 79.567 26.16C79.5516 26.1442 79.5332 26.1316 79.5129 26.1229C79.4925 26.1142 79.4707 26.1096 79.4486 26.1094H78.146C78.1238 26.1095 78.1019 26.114 78.0815 26.1227C78.0611 26.1313 78.0426 26.1439 78.027 26.1597C78.0115 26.1756 77.9993 26.1943 77.9911 26.2149C77.9828 26.2355 77.9788 26.2575 77.9791 26.2797V28.5695H75.5593V26.2797C75.5596 26.2576 75.5556 26.2356 75.5474 26.2151C75.5392 26.1946 75.5271 26.1759 75.5117 26.16C75.4962 26.1442 75.4778 26.1316 75.4575 26.1229C75.4372 26.1142 75.4153 26.1096 75.3932 26.1094H74.0906C74.0684 26.1094 74.0464 26.1138 74.0259 26.1224C74.0053 26.131 73.9867 26.1436 73.9711 26.1594C73.9555 26.1753 73.9432 26.1941 73.9349 26.2147C73.9267 26.2354 73.9226 26.2575 73.9229 26.2797V32.3833C73.9227 32.4055 73.9268 32.4275 73.9352 32.448C73.9435 32.4686 73.9558 32.4873 73.9714 32.503C73.987 32.5188 74.0056 32.5313 74.0261 32.5398C74.0465 32.5483 74.0685 32.5527 74.0906 32.5527H75.3924C75.4145 32.5526 75.4363 32.5482 75.4567 32.5396C75.4771 32.531 75.4955 32.5185 75.5111 32.5027C75.5266 32.487 75.5388 32.4683 75.5471 32.4478C75.5554 32.4273 75.5595 32.4054 75.5593 32.3833V30.0457H77.9783V32.3833C77.978 32.4055 77.9822 32.4275 77.9906 32.448C77.9989 32.4686 78.0112 32.4873 78.0268 32.503C78.0424 32.5188 78.061 32.5313 78.0814 32.5398C78.1019 32.5483 78.1238 32.5527 78.146 32.5527H79.4486C79.4706 32.5525 79.4924 32.548 79.5127 32.5393C79.5329 32.5307 79.5513 32.5182 79.5667 32.5024C79.5822 32.4867 79.5943 32.4681 79.6026 32.4476C79.6108 32.4272 79.6149 32.4053 79.6147 32.3833V26.2797ZM85.9028 26.1094C85.9251 26.1094 85.9471 26.1138 85.9676 26.1224C85.9881 26.131 86.0067 26.1436 86.0223 26.1594C86.0379 26.1753 86.0502 26.1941 86.0585 26.2147C86.0668 26.2354 86.0709 26.2575 86.0706 26.2797V27.4154C86.0709 27.4376 86.0668 27.4597 86.0585 27.4803C86.0502 27.501 86.0379 27.5198 86.0223 27.5356C86.0067 27.5515 85.9881 27.564 85.9676 27.5726C85.9471 27.5812 85.9251 27.5856 85.9028 27.5856H82.8145V28.5695H85.4096C85.5019 28.5695 85.5774 28.6458 85.5774 28.7398V29.8763C85.5776 29.8984 85.5734 29.9204 85.5651 29.941C85.5568 29.9615 85.5444 29.9802 85.5288 29.996C85.5132 30.0117 85.4947 30.0242 85.4742 30.0328C85.4538 30.0413 85.4318 30.0457 85.4096 30.0457H82.8145V31.0774H85.9028C85.9951 31.0774 86.0697 31.1529 86.0697 31.2476V32.3833C86.07 32.4055 86.0658 32.4275 86.0574 32.448C86.0491 32.4686 86.0368 32.4873 86.0212 32.503C86.0056 32.5188 85.987 32.5313 85.9666 32.5398C85.9461 32.5483 85.9242 32.5527 85.902 32.5527H81.3442C81.322 32.5527 81.3001 32.5483 81.2796 32.5398C81.2591 32.5313 81.2406 32.5188 81.225 32.503C81.2094 32.4873 81.1971 32.4686 81.1887 32.448C81.1804 32.4275 81.1762 32.4055 81.1764 32.3833V26.2797C81.1761 26.2575 81.1802 26.2354 81.1885 26.2147C81.1968 26.1941 81.2091 26.1753 81.2247 26.1594C81.2403 26.1436 81.2589 26.131 81.2794 26.1224C81.2999 26.1138 81.3219 26.1094 81.3442 26.1094H85.9028ZM91.8177 26.611C91.353 26.2134 90.7944 26.1094 90.2736 26.1094H87.5652C87.473 26.1094 87.3975 26.1849 87.3975 26.2797V32.3833C87.3975 32.4772 87.473 32.5527 87.5652 32.5527H88.867C88.9601 32.5527 89.0347 32.4772 89.0347 32.3833V30.7461H90.318C90.8112 30.7461 91.3044 30.6513 91.7506 30.2923C92.2723 29.8855 92.607 29.2229 92.607 28.4277C92.607 27.662 92.3 27.0186 91.8169 26.611H91.8177ZM97.9557 29.1088L95.5183 31.6351V32.3825C95.5187 32.4048 95.5147 32.427 95.5065 32.4477C95.4983 32.4684 95.486 32.4873 95.4704 32.5033C95.4547 32.5192 95.4361 32.5319 95.4155 32.5405C95.3949 32.5491 95.3729 32.5536 95.3505 32.5536H94.048C94.0257 32.5535 94.0037 32.5489 93.9832 32.5402C93.9628 32.5316 93.9442 32.5189 93.9287 32.503C93.9132 32.487 93.9009 32.4682 93.8928 32.4475C93.8846 32.4268 93.8806 32.4047 93.881 32.3825V26.2805C93.8806 26.2582 93.8846 26.236 93.8928 26.2153C93.9011 26.1946 93.9134 26.1757 93.929 26.1597C93.9446 26.1438 93.9632 26.1312 93.9838 26.1225C94.0044 26.1139 94.0265 26.1094 94.0488 26.1094H95.3505C95.3729 26.1094 95.3949 26.1139 95.4155 26.1225C95.4361 26.1312 95.4547 26.1438 95.4704 26.1597C95.486 26.1757 95.4983 26.1946 95.5065 26.2153C95.5147 26.236 95.5187 26.2582 95.5183 26.2805V29.5919L97.9557 27.0757V26.2805C97.9553 26.2583 97.9593 26.2362 97.9674 26.2155C97.9756 26.1948 97.9878 26.176 98.0034 26.16C98.0189 26.1441 98.0374 26.1314 98.0579 26.1228C98.0784 26.1141 98.1004 26.1095 98.1226 26.1094H99.4244C99.5183 26.1094 99.593 26.1849 99.593 26.2805V32.3825C99.5933 32.4048 99.5892 32.427 99.5809 32.4478C99.5725 32.4685 99.5602 32.4874 99.5445 32.5033C99.5288 32.5192 99.5101 32.5319 99.4895 32.5405C99.4689 32.5491 99.4467 32.5536 99.4244 32.5536H98.1218C98.0995 32.5535 98.0775 32.5489 98.0571 32.5402C98.0366 32.5316 98.018 32.5189 98.0025 32.503C97.987 32.487 97.9748 32.4682 97.9666 32.4475C97.9584 32.4268 97.9544 32.4047 97.9549 32.3825L97.9557 29.1088ZM105.572 26.611C105.108 26.2134 104.549 26.1094 104.028 26.1094H101.322C101.299 26.1094 101.277 26.1138 101.257 26.1224C101.236 26.131 101.218 26.1436 101.202 26.1594C101.187 26.1753 101.174 26.1941 101.166 26.2147C101.158 26.2354 101.154 26.2575 101.154 26.2797V32.3833C101.154 32.4055 101.158 32.4275 101.166 32.448C101.174 32.4686 101.187 32.4873 101.202 32.503C101.218 32.5188 101.237 32.5313 101.257 32.5398C101.278 32.5483 101.299 32.5527 101.322 32.5527H102.623C102.645 32.5527 102.667 32.5483 102.687 32.5398C102.708 32.5313 102.726 32.5188 102.742 32.503C102.757 32.4873 102.77 32.4686 102.778 32.448C102.786 32.4275 102.791 32.4055 102.79 32.3833V30.7461H104.074C104.568 30.7461 105.06 30.6513 105.507 30.2923C106.028 29.8855 106.363 29.2229 106.363 28.4277C106.363 27.662 106.056 27.0186 105.572 26.611ZM108.241 31.1243C108.519 31.1243 108.734 31.1059 108.92 31.0296C109.068 30.9734 109.19 30.8878 109.31 30.7654L107.078 26.346C107.032 26.2512 107.041 26.1094 107.208 26.1094H108.669C108.818 26.1094 108.901 26.195 108.948 26.299L110.148 29.0618L111.18 26.299C111.227 26.1858 111.31 26.1094 111.46 26.1094H112.845C113.012 26.1094 113.023 26.252 112.976 26.346L111.17 30.6043C110.938 31.1529 110.659 31.5504 110.334 31.8532C109.775 32.3732 109.096 32.5536 108.427 32.5536H107.85C107.827 32.5535 107.805 32.5489 107.785 32.5402C107.764 32.5316 107.746 32.5189 107.73 32.503C107.715 32.487 107.703 32.4682 107.694 32.4475C107.686 32.4268 107.682 32.4047 107.683 32.3825V31.2954C107.682 31.2732 107.686 31.2511 107.694 31.2304C107.703 31.2097 107.715 31.1909 107.73 31.175C107.746 31.159 107.764 31.1464 107.785 31.1377C107.805 31.129 107.827 31.1244 107.85 31.1243H108.241ZM116.778 30.0465C117.104 31.636 118.528 32.6383 120.146 32.6383C121.978 32.6383 123.57 31.3609 123.57 29.3361C123.57 27.3206 121.979 26.0146 120.146 26.0146C118.546 26.0146 117.141 26.9993 116.788 28.5703H115.615V26.2805C115.615 26.2584 115.611 26.2363 115.603 26.2157C115.595 26.1951 115.583 26.1762 115.568 26.1603C115.552 26.1444 115.534 26.1317 115.513 26.123C115.493 26.1143 115.471 26.1096 115.449 26.1094H114.146C114.053 26.1094 113.978 26.1858 113.978 26.2805V32.3833C113.978 32.4056 113.982 32.4276 113.99 32.4483C113.999 32.4689 114.011 32.4877 114.027 32.5036C114.042 32.5194 114.061 32.532 114.081 32.5406C114.102 32.5492 114.124 32.5536 114.146 32.5536H115.448C115.47 32.5535 115.492 32.549 115.512 32.5403C115.533 32.5317 115.551 32.5191 115.567 32.5033C115.582 32.4874 115.595 32.4687 115.603 32.4481C115.611 32.4275 115.615 32.4055 115.615 32.3833V30.0465H116.778ZM124.878 32.3833V26.2797C124.878 26.1858 124.953 26.1094 125.046 26.1094H126.348C126.441 26.1094 126.516 26.1858 126.516 26.2797V31.0774H128.506L128.507 26.2797C128.507 26.2576 128.511 26.2356 128.519 26.2151C128.527 26.1946 128.54 26.1759 128.555 26.16C128.57 26.1442 128.589 26.1316 128.609 26.1229C128.629 26.1142 128.651 26.1096 128.673 26.1094H129.976C129.998 26.1094 130.02 26.1138 130.041 26.1224C130.061 26.131 130.08 26.1436 130.096 26.1594C130.111 26.1753 130.123 26.1941 130.132 26.2147C130.14 26.2354 130.144 26.2575 130.144 26.2797L130.143 31.0774H132.135V26.2797C132.135 26.2575 132.139 26.2354 132.147 26.2147C132.155 26.1941 132.168 26.1753 132.183 26.1594C132.199 26.1436 132.217 26.131 132.238 26.1224C132.258 26.1138 132.28 26.1094 132.303 26.1094H133.604C133.626 26.1094 133.648 26.1138 133.668 26.1224C133.689 26.131 133.708 26.1436 133.723 26.1594C133.739 26.1753 133.751 26.1941 133.759 26.2147C133.768 26.2354 133.772 26.2575 133.771 26.2797V31.0774H135.205C135.227 31.0776 135.249 31.0822 135.269 31.0909C135.289 31.0995 135.308 31.1122 135.323 31.128C135.339 31.1438 135.351 31.1625 135.359 31.1831C135.367 31.2036 135.371 31.2255 135.371 31.2476V33.8402C135.371 33.8623 135.367 33.8843 135.359 33.9048C135.351 33.9253 135.339 33.9441 135.323 33.9599C135.308 33.9757 135.289 33.9883 135.269 33.997C135.249 34.0057 135.227 34.0103 135.205 34.0105H133.902C133.88 34.0105 133.858 34.0061 133.837 33.9975C133.817 33.9889 133.798 33.9763 133.783 33.9605C133.767 33.9446 133.755 33.9258 133.746 33.9052C133.738 33.8845 133.734 33.8625 133.734 33.8402V32.5536H125.046C125.024 32.5536 125.002 32.5492 124.981 32.5406C124.96 32.532 124.942 32.5194 124.926 32.5036C124.911 32.4877 124.898 32.4689 124.89 32.4483C124.882 32.4276 124.878 32.4056 124.878 32.3833ZM137.351 32.5527C137.5 32.5527 137.592 32.4965 137.63 32.364L137.918 31.3894H139.862L140.141 32.364C140.179 32.4965 140.272 32.5527 140.42 32.5527H141.742C141.852 32.5527 141.89 32.4965 141.89 32.4211C141.889 32.3946 141.885 32.3684 141.878 32.343L141.875 32.3279L141.872 32.317L139.872 26.252C139.835 26.1287 139.751 26.0809 139.612 26.0809H138.234C138.095 26.0809 138.011 26.1287 137.974 26.252L135.935 32.3162L135.93 32.3397C135.923 32.3662 135.919 32.3935 135.919 32.4211C135.919 32.4965 135.955 32.5527 136.067 32.5527H137.351ZM142.651 28.2667C142.651 27.5856 142.912 26.9515 143.386 26.5724C143.805 26.2428 144.391 26.1094 145.014 26.1094H147.833C147.855 26.1095 147.877 26.114 147.898 26.1227C147.918 26.1313 147.937 26.1439 147.952 26.1597C147.968 26.1756 147.98 26.1943 147.988 26.2149C147.996 26.2355 148 26.2575 148 26.2797V32.3833C148 32.4054 147.996 32.4273 147.988 32.4478C147.979 32.4683 147.967 32.487 147.952 32.5027C147.936 32.5185 147.918 32.531 147.897 32.5396C147.877 32.5482 147.855 32.5526 147.833 32.5527H146.53C146.508 32.5527 146.486 32.5483 146.466 32.5398C146.445 32.5313 146.427 32.5188 146.411 32.503C146.396 32.4873 146.383 32.4686 146.375 32.448C146.367 32.4275 146.363 32.4055 146.363 32.3833V30.4525H145.367L144.372 32.3833C144.298 32.5251 144.205 32.5527 144.056 32.5527H142.623C142.53 32.5527 142.474 32.5066 142.474 32.4211C142.474 32.3732 142.493 32.3162 142.53 32.2508L143.73 30.1313C143.593 30.0549 143.465 29.9629 143.349 29.857C143.125 29.658 142.947 29.4129 142.826 29.1386C142.706 28.8643 142.646 28.5671 142.651 28.2675V28.2667ZM68.2588 39.1856C68.2588 41.1818 69.8499 42.4878 71.691 42.4878C73.5228 42.4878 75.1131 41.2104 75.1148 39.1856C75.1148 37.1701 73.5228 35.8641 71.691 35.8641C69.8499 35.8641 68.2588 37.1701 68.2588 39.1856ZM83.0745 42.2227C83.075 42.245 83.071 42.2672 83.0627 42.288C83.0545 42.3087 83.0422 42.3276 83.0266 42.3435C83.011 42.3595 82.9923 42.3721 82.9718 42.3808C82.9512 42.3894 82.9291 42.3938 82.9068 42.3938H81.6612C81.6389 42.3938 81.6168 42.3894 81.5963 42.3808C81.5757 42.3721 81.557 42.3595 81.5414 42.3435C81.5258 42.3276 81.5135 42.3087 81.5053 42.288C81.497 42.2672 81.493 42.245 81.4935 42.2227V38.8451L80.5163 40.6903C80.4509 40.8036 80.3956 40.8606 80.2555 40.8606H79.2976C79.1592 40.8606 79.1022 40.8036 79.0376 40.6903L78.0059 38.8451L78.0051 42.2227C78.0056 42.245 78.0015 42.2672 77.9933 42.288C77.9851 42.3087 77.9728 42.3276 77.9572 42.3435C77.9416 42.3595 77.9229 42.3721 77.9023 42.3808C77.8818 42.3894 77.8597 42.3938 77.8374 42.3938H76.591C76.5687 42.3938 76.5466 42.3894 76.526 42.3808C76.5054 42.3721 76.4868 42.3595 76.4711 42.3435C76.4555 42.3276 76.4432 42.3087 76.435 42.288C76.4268 42.2672 76.4228 42.245 76.4232 42.2227V36.12C76.4232 36.026 76.4987 35.9497 76.591 35.9497H77.9028C78.0336 35.9497 78.1167 35.9681 78.2014 36.12L79.7447 38.9398L81.288 36.12C81.3727 35.969 81.4557 35.9497 81.5866 35.9497H82.9076C82.9299 35.9497 82.9519 35.9541 82.9724 35.9627C82.9929 35.9713 83.0115 35.9839 83.0271 35.9997C83.0427 36.0156 83.0551 36.0343 83.0633 36.055C83.0716 36.0756 83.0757 36.0977 83.0754 36.12V42.2227H83.0745ZM88.5432 42.2227C88.5429 42.2449 88.5469 42.2669 88.5552 42.2875C88.5634 42.3081 88.5756 42.3268 88.5912 42.3427C88.6067 42.3585 88.6252 42.3711 88.6456 42.3798C88.666 42.3884 88.688 42.3929 88.7101 42.393H90.0119C90.0341 42.393 90.0561 42.3886 90.0767 42.38C90.0972 42.3714 90.1158 42.3588 90.1314 42.343C90.147 42.3271 90.1593 42.3083 90.1676 42.2877C90.1759 42.2671 90.18 42.245 90.1796 42.2227V36.12C90.18 36.0977 90.1759 36.0756 90.1676 36.055C90.1593 36.0343 90.147 36.0156 90.1314 35.9997C90.1158 35.9839 90.0972 35.9713 90.0767 35.9627C90.0561 35.9541 90.0341 35.9497 90.0119 35.9497H84.8032C84.7811 35.9499 84.7593 35.9545 84.7389 35.9632C84.7186 35.9719 84.7002 35.9845 84.6848 36.0003C84.6693 36.0161 84.6572 36.0348 84.649 36.0554C84.6408 36.0759 84.6368 36.0979 84.6371 36.12L84.6363 42.2227C84.636 42.245 84.6401 42.2671 84.6483 42.2877C84.6566 42.3083 84.6689 42.3271 84.6845 42.343C84.7001 42.3588 84.7187 42.3714 84.7393 42.38C84.7598 42.3886 84.7818 42.393 84.804 42.393H86.1058C86.128 42.3929 86.1499 42.3884 86.1703 42.3798C86.1907 42.3711 86.2092 42.3585 86.2248 42.3427C86.2403 42.3268 86.2525 42.3081 86.2607 42.2875C86.269 42.2669 86.273 42.2449 86.2727 42.2227V37.4251H88.5432V42.2227ZM92.8854 42.2043C92.8485 42.336 92.7554 42.393 92.607 42.393H91.3237C91.2113 42.393 91.1744 42.336 91.1744 42.2605C91.1744 42.2294 91.1803 42.2051 91.1878 42.1766L91.192 42.1565L93.2302 36.0923C93.2671 35.9681 93.351 35.9212 93.4902 35.9212H94.8674C95.0067 35.9212 95.0905 35.9681 95.1291 36.0914L97.1279 42.1565L97.1321 42.1758C97.1404 42.2033 97.1449 42.2318 97.1455 42.2605C97.1455 42.336 97.1086 42.393 96.9979 42.393H95.676C95.5275 42.393 95.4344 42.336 95.3975 42.2043L95.1182 41.2288H93.174L92.8854 42.2043ZM103.833 36.12C103.833 36.0978 103.829 36.0758 103.821 36.0552C103.813 36.0346 103.8 36.0158 103.785 36C103.769 35.9842 103.751 35.9716 103.73 35.9629C103.71 35.9543 103.688 35.9498 103.666 35.9497H102.363C102.341 35.9498 102.319 35.9543 102.299 35.9629C102.278 35.9716 102.26 35.9842 102.244 36C102.229 36.0158 102.217 36.0346 102.208 36.0552C102.2 36.0758 102.196 36.0978 102.196 36.12V38.4098H99.7766V36.12C99.777 36.0978 99.7729 36.0758 99.7647 36.0552C99.7565 36.0346 99.7442 36.0158 99.7287 36C99.7132 35.9842 99.6947 35.9716 99.6743 35.9629C99.6538 35.9543 99.6319 35.9498 99.6097 35.9497H98.308C98.2858 35.9498 98.2639 35.9543 98.2435 35.9629C98.223 35.9716 98.2045 35.9842 98.189 36C98.1735 36.0158 98.1613 36.0346 98.153 36.0552C98.1448 36.0758 98.1407 36.0978 98.1411 36.12V42.2227C98.1411 42.3175 98.214 42.393 98.3071 42.393H99.6097C99.6319 42.3929 99.6538 42.3884 99.6743 42.3798C99.6947 42.3711 99.7132 42.3585 99.7287 42.3427C99.7442 42.3268 99.7565 42.3081 99.7647 42.2875C99.7729 42.2669 99.777 42.2449 99.7766 42.2227V39.886H102.196V42.2227C102.195 42.245 102.199 42.2671 102.208 42.2877C102.216 42.3083 102.228 42.3271 102.244 42.343C102.259 42.3588 102.278 42.3714 102.299 42.38C102.319 42.3886 102.341 42.393 102.363 42.393H103.666C103.688 42.3929 103.71 42.3884 103.73 42.3798C103.751 42.3711 103.769 42.3585 103.785 42.3427C103.8 42.3268 103.813 42.3081 103.821 42.2875C103.829 42.2669 103.833 42.2449 103.833 42.2227V36.12ZM109.468 38.9491L107.032 41.4754V42.2219C107.032 42.2442 107.028 42.2664 107.02 42.2871C107.012 42.3079 107 42.3268 106.984 42.3427C106.968 42.3586 106.95 42.3713 106.929 42.3799C106.909 42.3886 106.886 42.393 106.864 42.393H105.562C105.539 42.3928 105.518 42.3882 105.497 42.3795C105.477 42.3708 105.459 42.3582 105.443 42.3424C105.428 42.3266 105.416 42.3078 105.407 42.2873C105.399 42.2668 105.395 42.2448 105.395 42.2227V36.12C105.395 36.0978 105.399 36.0758 105.407 36.0552C105.416 36.0346 105.428 36.0158 105.443 36C105.459 35.9842 105.477 35.9716 105.498 35.9629C105.518 35.9543 105.54 35.9498 105.562 35.9497H106.864C106.886 35.9497 106.908 35.9541 106.929 35.9627C106.949 35.9713 106.968 35.9839 106.984 35.9997C106.999 36.0156 107.012 36.0343 107.02 36.055C107.028 36.0756 107.032 36.0977 107.032 36.12V39.4314L109.468 36.9151V36.12C109.468 36.0977 109.472 36.0756 109.48 36.055C109.489 36.0343 109.501 36.0156 109.517 35.9997C109.532 35.9839 109.551 35.9713 109.571 35.9627C109.592 35.9541 109.614 35.9497 109.636 35.9497H110.938C111.031 35.9497 111.107 36.0252 111.107 36.12V42.2227C111.107 42.3175 111.031 42.393 110.938 42.393H109.635C109.613 42.3929 109.591 42.3884 109.571 42.3798C109.55 42.3711 109.532 42.3585 109.516 42.3427C109.501 42.3268 109.489 42.3081 109.48 42.2875C109.472 42.2669 109.468 42.2449 109.468 42.2227V38.9474V38.9491ZM113.17 36.4127C112.694 36.7918 112.434 37.4259 112.434 38.107C112.434 38.6748 112.63 39.2426 113.132 39.6964C113.253 39.8105 113.383 39.8952 113.514 39.9715L112.314 42.091C112.281 42.1422 112.261 42.2007 112.256 42.2613C112.256 42.346 112.314 42.393 112.406 42.393H113.84C113.987 42.393 114.081 42.3645 114.155 42.2227L115.15 40.2928H116.146V42.2227C116.145 42.2449 116.15 42.2669 116.158 42.2875C116.166 42.3081 116.178 42.3268 116.194 42.3427C116.209 42.3585 116.228 42.3711 116.248 42.3798C116.269 42.3884 116.291 42.3929 116.313 42.393H117.615C117.638 42.393 117.66 42.3886 117.68 42.38C117.701 42.3714 117.719 42.3588 117.735 42.343C117.75 42.3271 117.763 42.3083 117.771 42.2877C117.779 42.2671 117.783 42.245 117.783 42.2227V36.12C117.783 36.0977 117.779 36.0756 117.771 36.055C117.763 36.0343 117.75 36.0156 117.735 35.9997C117.719 35.9839 117.701 35.9713 117.68 35.9627C117.66 35.9541 117.638 35.9497 117.615 35.9497H114.797C114.174 35.9497 113.588 36.0822 113.17 36.4127ZM102.71 16.27H104.004C104.098 16.27 104.175 16.348 104.175 16.4436V18.6294C104.175 18.6485 104.18 18.6672 104.191 18.6829C104.202 18.6987 104.217 18.7107 104.235 18.7174C104.253 18.7242 104.272 18.7252 104.291 18.7204C104.309 18.7156 104.325 18.7052 104.338 18.6906L106.306 16.3321C106.321 16.3128 106.341 16.2973 106.364 16.2865C106.386 16.2758 106.411 16.2702 106.436 16.27H107.987C108.134 16.27 108.19 16.4025 108.084 16.5283L105.833 19.1436L106.065 19.1419C106.123 19.1419 106.177 19.1721 106.209 19.2216L108.269 22.4483C108.343 22.5649 108.379 22.7167 108.193 22.7167H106.508C106.478 22.7167 106.449 22.709 106.423 22.6942C106.398 22.6795 106.377 22.6583 106.362 22.6328L104.908 20.3757C104.902 20.3651 104.893 20.3561 104.883 20.3495C104.873 20.3429 104.861 20.3389 104.849 20.3377C104.836 20.3366 104.824 20.3383 104.813 20.3429C104.801 20.3475 104.791 20.3547 104.783 20.364L104.219 21.0157C104.19 21.0476 104.175 21.0888 104.175 21.1314V22.543C104.175 22.5887 104.157 22.6326 104.125 22.6652C104.093 22.6977 104.05 22.7162 104.004 22.7167H102.71C102.687 22.7164 102.665 22.7118 102.644 22.7029C102.623 22.6941 102.604 22.6812 102.589 22.6651C102.573 22.649 102.56 22.6299 102.552 22.609C102.544 22.588 102.539 22.5656 102.54 22.543V16.4436C102.54 16.348 102.616 16.27 102.71 16.27ZM63.706 35.9413H62.411C62.3884 35.9415 62.3661 35.9462 62.3453 35.955C62.3245 35.9639 62.3057 35.9767 62.2899 35.9928C62.2741 36.009 62.2616 36.0281 62.2532 36.049C62.2447 36.0699 62.2405 36.0923 62.2407 36.1149V42.2143C62.2407 42.31 62.3162 42.388 62.411 42.388H63.7052C63.7278 42.3877 63.7501 42.3831 63.7709 42.3742C63.7916 42.3654 63.8105 42.3525 63.8263 42.3364C63.8421 42.3203 63.8546 42.3012 63.863 42.2803C63.8714 42.2593 63.8757 42.2369 63.8755 42.2143V40.8027C63.8755 40.7599 63.8914 40.7188 63.9199 40.687L64.4835 40.0353C64.4917 40.026 64.5019 40.0188 64.5133 40.0142C64.5248 40.0097 64.5372 40.0079 64.5495 40.009C64.5617 40.0102 64.5736 40.0142 64.584 40.0208C64.5944 40.0274 64.6031 40.0364 64.6094 40.047L66.0629 42.3033C66.0776 42.329 66.0988 42.3504 66.1245 42.3653C66.1501 42.3802 66.1792 42.388 66.2089 42.388H67.8939C68.0801 42.388 68.0449 42.2353 67.9694 42.1196L65.9094 38.8929C65.8941 38.8687 65.8729 38.8487 65.8478 38.8348C65.8228 38.8209 65.7947 38.8135 65.766 38.8132L65.5337 38.8149L67.7849 36.1996C67.8914 36.0738 67.8352 35.9413 67.6884 35.9413H66.1359C66.1111 35.9416 66.0867 35.9473 66.0644 35.958C66.0421 35.9687 66.0224 35.9842 66.0067 36.0034L64.039 38.3619C64.0268 38.3768 64.0104 38.3874 63.9918 38.3925C63.9733 38.3975 63.9537 38.3966 63.9357 38.39C63.9178 38.3833 63.9023 38.3712 63.8915 38.3554C63.8807 38.3395 63.8751 38.3207 63.8755 38.3016V36.1149C63.8757 36.0923 63.8714 36.0699 63.863 36.049C63.8546 36.0281 63.8421 36.009 63.8263 35.9928C63.8105 35.9767 63.7916 35.9639 63.7709 35.955C63.7501 35.9462 63.7278 35.9415 63.7052 35.9413H63.706ZM79.02 20.1979C78.8257 20.1303 78.6209 20.0982 78.4153 20.1031H77.9405V21.3612H78.5461C78.7591 21.3612 78.9638 21.3336 79.1131 21.2488C79.2716 21.1532 79.3731 20.993 79.3731 20.7288C79.3731 20.4822 79.2716 20.3019 79.02 20.1979ZM92.3101 17.7286C92.5047 17.7286 92.7009 17.7663 92.8586 17.8712C93.054 17.9936 93.1849 18.2201 93.1849 18.59C93.1849 18.9674 93.054 19.1956 92.8494 19.318C92.7009 19.4128 92.5055 19.4506 92.3092 19.4506H91.2776V17.7286H92.3101ZM111.74 18.2578L111.154 20.2172H112.307L111.74 18.2578ZM117.413 17.8418C117.562 17.7286 117.766 17.6816 117.963 17.6816H119.199V19.214H117.98C117.785 19.214 117.589 19.1671 117.442 19.0714C117.265 18.949 117.152 18.741 117.152 18.4482C117.152 18.1639 117.245 17.9651 117.413 17.8418ZM90.6166 27.7089C90.4598 27.6049 90.2635 27.5663 90.0689 27.5663H89.0364V29.2883H90.0681C90.2635 29.2883 90.4598 29.2514 90.6082 29.1558C90.812 29.0342 90.9429 28.8069 90.9429 28.4277C90.9429 28.0587 90.812 27.8322 90.6166 27.7089ZM103.824 27.5663C104.019 27.5663 104.214 27.6049 104.372 27.7089C104.568 27.8322 104.698 28.0587 104.698 28.4277C104.698 28.8069 104.568 29.0342 104.363 29.1558C104.214 29.2514 104.019 29.2883 103.824 29.2883H102.791V27.5663H103.824ZM120.146 27.5764C119.16 27.5764 118.452 28.3145 118.452 29.3361C118.452 30.3586 119.16 31.0866 120.146 31.0866C121.132 31.0866 121.83 30.3586 121.83 29.3361C121.83 28.3145 121.132 27.5764 120.146 27.5764ZM138.317 30.0558L138.905 28.0964L139.471 30.0558H138.317ZM145.126 27.5202C144.931 27.5202 144.726 27.5663 144.577 27.6804C144.41 27.8037 144.316 28.0025 144.316 28.286C144.316 28.5796 144.429 28.7876 144.606 28.91C144.754 29.0056 144.949 29.0526 145.144 29.0526H146.364V27.5194H145.126V27.5202ZM69.9984 39.1848C69.9984 38.1632 70.7046 37.4242 71.691 37.4242C72.6773 37.4242 73.3743 38.1623 73.3743 39.1848C73.3743 40.2064 72.6765 40.9352 71.691 40.9352C70.7046 40.9352 69.9984 40.2064 69.9984 39.1848ZM94.1603 37.935L93.5732 39.8944H94.7273L94.1603 37.9359V37.935ZM114.361 37.5198C114.509 37.4058 114.713 37.3588 114.909 37.3588H116.146V38.8912H114.927C114.732 38.8912 114.537 38.8442 114.389 38.7495C114.212 38.6262 114.1 38.4181 114.1 38.1254C114.1 37.8411 114.192 37.6423 114.361 37.5198Z" fill="white"/>
</svg>
