<svg width="148" height="57" viewBox="0 0 148 57" fill="none" xmlns="http://www.w3.org/2000/svg">
<path d="M34.8072 43.3538L20.4133 28.9578L13.6125 35.7599L34.8072 56.9586L56 35.762V22.1572L34.8072 43.3538Z" fill="#2872A4"/>
<path d="M28.0054 36.5506L34.8063 43.3528L56 22.1556L34.8073 0.95892H21.205L42.3972 22.1556L28.0054 36.5506Z" fill="#83AD3F"/>
<path d="M42.3917 22.1617L21.1927 0.958832L0 22.1555V35.7608L21.1927 14.5636L35.5903 28.9639L42.3917 22.1617Z" fill="#B5D978"/>
<path d="M27.9948 21.3671L21.1939 14.5645L0.000183105 35.7622L21.1929 56.9588H34.7952L13.6025 35.7622L27.9948 21.3671Z" fill="#80C8EB"/>
<path d="M122.427 30.3868L121.174 28.7816L122.427 27.1758L126.821 21.5402V12.6043H118.411V44.9588H126.821V36.0224L122.427 30.3868ZM134.675 28.7816L148 12.6043H137.1L124.486 28.7816L137.1 44.9588H148L134.675 28.7816ZM108.894 19.7259V44.9588H100.482V19.7259H93.5741V12.6043H115.801V19.7259H108.894ZM70.409 25.0905H82.5539V12.6043H90.9629V44.9588H82.5539V31.6133H70.409V44.9588H62V12.6043H70.409V25.0905Z" fill="#707176"/>
</svg>
