<svg width="86" height="30" viewBox="0 0 86 30" fill="none" xmlns="http://www.w3.org/2000/svg">
<path d="M19.0091 0.230347H11.6404L22.7034 11.3952L15.2589 18.932L18.8943 22.6014L30.0508 11.3952L19.0091 0.230347Z" fill="#AEA830"/>
<path d="M0.454834 11.2721L0.454834 18.6407L11.6197 7.57775L19.1565 15.0223L22.8259 11.3869L11.6197 0.230291L0.454834 11.2721Z" fill="#FFEA47"/>
<path d="M11.4966 29.8263H18.8652L7.80224 18.6614L15.2468 11.1246L11.6113 7.4552L0.454779 18.6614L11.4966 29.8263Z" fill="#96979B"/>
<path d="M30.0508 18.7846V11.4159L18.8859 22.4789L11.3491 15.0344L7.67969 18.6698L18.8859 29.8263L30.0508 18.7846Z" fill="#716F70"/>
<path d="M42.5591 6.07007H38.0999V23.8349H42.5591V16.5221H49.2297V23.8349H54.0455V6.07007H49.2297V12.8478H42.5591V6.07007Z" fill="#52565B"/>
<path d="M67.6143 6.03186H55.405V9.9067H59.201V23.8538H63.8053V9.9067H67.6143V6.03186Z" fill="#52565B"/>
<path d="M73.6508 6.05359H69.1061L69.0757 23.8889H73.6508V18.98L70.4678 15.019L73.6508 11.0579V6.05359Z" fill="#52565B"/>
<path d="M85.2928 6.06433H79.3512L72.3923 14.936L79.3512 23.7669H85.2928L78.049 14.936L85.2928 6.06433Z" fill="#52565B"/>
</svg>
