<?xml version="1.0" encoding="utf-8"?>
<svg viewBox="33.185 909.857 156.158 55.664" width="309.037" height="107.717" xmlns="http://www.w3.org/2000/svg">
  <g>
    <g transform="matrix(0.647171, 0, 0, 0.647171, 11.708659, 870.448853)" xmlns="http://www.w3.org/2000/svg" version="1.1" width="425.197px" height="255.118px" preserveAspectRatio="none" viewBox="0 0 425.197 255.118">
      <title>Page 3</title>
      <g transform="matrix(0.775, 0, 0, -0.775, 7.466659, 230.523911)">
        <g transform="translate(100.1497 135.4763)">
          <path d="M 0 0 L -27.692 27.691 L -40.776 14.607 L 0 -26.169 L 40.772 14.603 L 40.772 40.772 Z" style="fill: rgb(40, 114, 164); fill-opacity: 1;"/>
        </g>
        <g transform="translate(87.0638 148.5623)">
          <path d="M 0 0 L 13.084 -13.084 L 53.858 27.689 L 13.086 68.461 L -13.083 68.461 L 27.688 27.689 Z" style="fill: rgb(131, 173, 63); fill-opacity: 1;"/>
        </g>
        <g transform="translate(114.7411 176.2395)">
          <path d="M 0 0 L -40.784 40.784 L -81.556 0.012 L -81.556 -26.158 L -40.784 14.615 L -13.085 -13.084 Z" style="fill: rgb(181, 217, 120); fill-opacity: 1;"/>
        </g>
        <g transform="translate(87.0433 177.7679)">
          <path d="M 0 0 L -13.084 13.085 L -53.858 -27.689 L -13.086 -68.461 L 13.083 -68.461 L -27.689 -27.689 Z" style="fill: rgb(128, 200, 235); fill-opacity: 1;"/>
        </g>
        <g transform="translate(290.9725 159.9524)">
          <path d="M 0 0 L -2.51 3.217 L 0 6.435 L 8.806 17.729 L 8.806 35.637 L -8.047 35.637 L -8.047 -29.203 L 8.806 -29.203 L 8.806 -11.294 Z M 24.547 3.217 L 51.25 35.637 L 29.405 35.637 L 4.126 3.217 L 29.405 -29.203 L 51.25 -29.203 Z M -27.121 21.365 L -27.121 -29.203 L -43.979 -29.203 L -43.979 21.365 L -57.822 21.365 L -57.822 35.637 L -13.278 35.637 L -13.278 21.365 Z M -104.246 10.614 L -79.907 10.614 L -79.907 35.637 L -63.055 35.637 L -63.055 -29.203 L -79.907 -29.203 L -79.907 -2.458 L -104.246 -2.458 L -104.246 -29.203 L -121.098 -29.203 L -121.098 35.637 L -104.246 35.637 Z" style="fill: rgb(112, 113, 118); fill-opacity: 1;"/>
        </g>
      </g>
    </g>
  </g>
</svg>