<svg width="16" height="16" viewBox="0 0 16 16" fill="none" xmlns="http://www.w3.org/2000/svg">
<path fill-rule="evenodd" clip-rule="evenodd" d="M8.2558 -0.000488281C10.2369 0.27587 12.0316 1.17154 13.45 2.58996C14.7952 3.93845 15.6775 5.63656 16.0005 7.50781L14.7719 7.71757C14.4955 6.10271 13.733 4.63434 12.571 3.47231C11.3457 2.25034 9.79409 1.47453 8.08266 1.2348L8.2558 -0.000488281ZM12.1647 10.5844C11.642 10.0683 10.9894 10.0683 10.4699 10.5844C10.0737 10.9773 9.67749 11.3702 9.28792 11.7697C9.18137 11.8796 9.09147 11.9029 8.96162 11.8297C8.86003 11.7743 8.75584 11.723 8.65172 11.6718L8.65167 11.6718L8.65166 11.6718C8.49302 11.5938 8.33456 11.5159 8.18581 11.4235C7.0371 10.7009 6.07484 9.77196 5.22245 8.72646C4.79959 8.20704 4.42334 7.65099 4.1603 7.02502C4.10703 6.8985 4.11702 6.81526 4.22024 6.71204C4.55962 6.38406 4.89168 6.04876 5.22477 5.7124L5.22479 5.71239L5.39226 5.54334C5.93499 4.99728 5.93499 4.358 5.38893 3.80861C5.23411 3.65212 5.07928 3.4973 4.92446 3.34247L4.92433 3.34234C4.76954 3.18755 4.61475 3.03277 4.45997 2.87632C4.35342 2.76977 4.24724 2.66285 4.14106 2.55593C3.92871 2.34209 3.71635 2.12826 3.50104 1.91739C2.97829 1.40795 2.32568 1.40795 1.80626 1.92072C1.6464 2.07791 1.4892 2.23671 1.33211 2.3954C1.09657 2.63333 0.861274 2.87103 0.617587 3.10273C0.24134 3.459 0.0515513 3.89518 0.0115958 4.40461C-0.051667 5.23369 0.15144 6.01615 0.437787 6.77863C1.0238 8.35687 1.91614 9.75864 2.99827 11.0439C4.45997 12.7819 6.20469 14.1571 8.24575 15.1493C9.16472 15.5955 10.117 15.9384 11.1525 15.995C11.865 16.035 12.4844 15.8552 12.9805 15.2991C13.2037 15.0497 13.4456 14.8146 13.6873 14.5797C13.8134 14.4572 13.9393 14.3347 14.0626 14.2103C14.5953 13.6709 14.5987 13.0183 14.0693 12.4856C13.4366 11.8496 12.8007 11.217 12.1647 10.5844ZM11.5289 7.93064L12.7575 7.72088C12.5644 6.59214 12.0316 5.56994 11.2225 4.75752C10.3668 3.9018 9.28471 3.3624 8.09271 3.19592L7.91957 4.43121C8.84187 4.56107 9.68093 4.97727 10.3435 5.63987C10.9695 6.26583 11.379 7.05828 11.5289 7.93064Z" fill="#f6c358"/>
</svg>
