<svg width="32" height="32" viewBox="0 0 32 32" fill="none" xmlns="http://www.w3.org/2000/svg">
<rect width="32" height="32" rx="16" fill="#ACC0CC"/>
<path d="M16 8C12.6914 8 10 10.5232 10 13.625C10 14.6728 10.3096 15.6955 10.895 16.5826L15.6582 23.7782C15.8557 24.0773 16.3214 24.0727 16.5127 23.7718L21.1543 16.5066C21.707 15.6383 22 14.6417 22 13.625C22 10.5232 19.3086 8 16 8ZM16 16.4438C14.3218 16.4438 12.9933 15.1632 12.9933 13.625C12.9933 12.0741 14.3457 10.8063 16 10.8063C17.6543 10.8063 19.0067 12.0741 19.0067 13.625C19.0067 15.1496 17.696 16.4438 16 16.4438Z" fill="white"/>
</svg>
