<svg width="32" height="32" viewBox="0 0 32 32" fill="none" xmlns="http://www.w3.org/2000/svg">
<rect width="32" height="32" rx="16" fill="#ACC0CC"/>
<path d="M11.2 17.9375C11.4167 17.9375 11.6 18.0221 11.75 18.1914C11.9167 18.3438 12 18.5299 12 18.75V21.1875C12 21.4076 11.9167 21.5938 11.75 21.7461C11.6 21.9154 11.4167 22 11.2 22H8.8C8.58333 22 8.39167 21.9154 8.225 21.7461C8.075 21.5938 8 21.4076 8 21.1875V18.75C8 18.5299 8.075 18.3438 8.225 18.1914C8.39167 18.0221 8.58333 17.9375 8.8 17.9375H11.2ZM10.6 15.9062V17.125H9.4V15.6523C9.4 15.3984 9.49167 15.1784 9.675 14.9922C9.875 14.7891 10.1 14.6875 10.35 14.6875H15.4V13.0625H14.4C14.1833 13.0625 13.9917 12.9863 13.825 12.834C13.675 12.6647 13.6 12.4701 13.6 12.25V9.8125C13.6 9.59245 13.675 9.40625 13.825 9.25391C13.9917 9.08464 14.1833 9 14.4 9H17.6C17.8167 9 18 9.08464 18.15 9.25391C18.3167 9.40625 18.4 9.59245 18.4 9.8125V12.25C18.4 12.4701 18.3167 12.6647 18.15 12.834C18 12.9863 17.8167 13.0625 17.6 13.0625H16.6V14.6875H21.65C21.9 14.6875 22.1167 14.7891 22.3 14.9922C22.5 15.1784 22.6 15.3984 22.6 15.6523V17.125H21.4V15.9062H16.6V17.125H15.4V15.9062H10.6ZM17.2 17.9375C17.4167 17.9375 17.6 18.0221 17.75 18.1914C17.9167 18.3438 18 18.5299 18 18.75V21.1875C18 21.4076 17.9167 21.5938 17.75 21.7461C17.6 21.9154 17.4167 22 17.2 22H14.8C14.5833 22 14.3917 21.9154 14.225 21.7461C14.075 21.5938 14 21.4076 14 21.1875V18.75C14 18.5299 14.075 18.3438 14.225 18.1914C14.3917 18.0221 14.5833 17.9375 14.8 17.9375H17.2ZM23.2 17.9375C23.4167 17.9375 23.6 18.0221 23.75 18.1914C23.9167 18.3438 24 18.5299 24 18.75V21.1875C24 21.4076 23.9167 21.5938 23.75 21.7461C23.6 21.9154 23.4167 22 23.2 22H20.8C20.5833 22 20.3917 21.9154 20.225 21.7461C20.075 21.5938 20 21.4076 20 21.1875V18.75C20 18.5299 20.075 18.3438 20.225 18.1914C20.3917 18.0221 20.5833 17.9375 20.8 17.9375H23.2Z" fill="white"/>
</svg>
