<svg width="12" height="8" viewBox="0 0 12 8" fill="none" xmlns="http://www.w3.org/2000/svg">
<path fill-rule="evenodd" clip-rule="evenodd" d="M4.7564e-08 4C5.19421e-08 3.63181 0.299234 3.33333 0.668359 3.33333L9.69397 3.33333L7.45175 1.14296C7.18803 0.885344 7.18361 0.463257 7.44189 0.200206C7.70016 -0.0628451 8.12332 -0.0672482 8.38704 0.190371L11.7993 3.5237C11.9277 3.6491 12 3.82078 12 4C12 4.17922 11.9277 4.3509 11.7993 4.4763L8.38704 7.80963C8.12332 8.06725 7.70016 8.06285 7.44189 7.79979C7.18361 7.53674 7.18803 7.11466 7.45175 6.85704L9.69397 4.66667L0.668358 4.66667C0.299234 4.66667 4.31858e-08 4.36819 4.7564e-08 4Z" fill="#009696"/>
</svg>
