<svg width="120" height="120" viewBox="0 0 120 120" fill="none" xmlns="http://www.w3.org/2000/svg">
<g clip-path="url(#clip0)">
<path d="M60 107C85.9574 107 107 85.9575 107 60.0001C107 34.0427 85.9574 13.0001 60 13.0001C34.0426 13.0001 13 34.0427 13 60.0001C13 85.9575 34.0426 107 60 107Z" fill="url(#paint0_linear)" fill-opacity="0.3"/>
<path d="M94.6566 29.8418C101.979 38.1967 106.016 48.9247 106.016 60.0306C106.016 71.1365 101.979 81.8644 94.6566 90.2194C93.2204 91.894 91.6553 93.4537 89.9756 94.8844L87.7692 96.7114C87.2572 97.089 86.733 97.4666 86.1723 97.8442C83.3844 99.7883 80.3923 101.422 77.2491 102.716C66.0717 107.193 53.5887 107.145 42.4462 102.582C39.3888 101.262 36.4762 99.6289 33.7546 97.7102L32.2064 96.5896C31.4141 95.9806 30.6705 95.3716 29.9147 94.7139C28.2255 93.2636 26.6485 91.6879 25.1971 90.0001C18.0171 81.6584 14.0687 71.0208 14.0687 60.0184C14.0687 49.016 18.0171 38.3784 25.1971 30.0367C26.6517 28.3518 28.2285 26.7763 29.9147 25.3229C30.6705 24.6652 31.4141 24.1049 32.2064 23.4471C32.7184 23.0574 33.2426 22.692 33.7546 22.3266C36.4866 20.4653 39.3983 18.8821 42.4462 17.6006C53.5751 12.9739 66.0816 12.9214 77.2491 17.4544C80.3969 18.7139 83.3907 20.3281 86.1723 22.2657C86.733 22.6067 87.2572 23.0208 87.7692 23.3984C88.5128 23.9587 89.2686 24.5555 90.0122 25.1767L94.6566 29.8418ZM109.163 56.7115V56.4313C111.345 51.7175 115.465 51.5592 120 55.9197C120 48.7212 118.464 43.0208 114.99 39.7931C110.114 35.4447 104.97 38.2827 100.776 32.3753C100.288 27.2108 103.836 25.0671 109.943 26.48C106.286 20.3046 102.093 16.1512 97.5091 15.0793C96.5758 14.8559 95.6117 14.79 94.6566 14.8844C93.0596 15.0359 91.4874 15.3836 89.9756 15.9197C89.2393 16.1622 88.4905 16.3655 87.7326 16.5287C87.2064 16.6344 86.6722 16.6955 86.1357 16.7115C84.5255 16.7916 82.9218 16.456 81.4791 15.737C78.5412 11.547 80.4551 8.01474 86.1357 6.16334C86.2531 6.14032 86.3648 6.09482 86.4649 6.02936C86.3623 5.96887 86.2514 5.92373 86.1357 5.89537C83.3561 4.24794 80.3497 3.01681 77.2125 2.24129C74.8138 1.62245 72.2971 1.62245 69.8984 2.24129C64.9492 3.92217 63.8033 8.0391 59.8903 9.9514C58.8901 10.4317 57.8131 10.7327 56.7087 10.8406H56.4283C51.7107 8.63593 51.5522 4.53118 55.9163 0.00012207C50.3941 0.00012207 45.7131 0.938003 42.3486 2.89903C41.4078 3.51176 40.5478 4.24016 39.7887 5.06711C35.8635 9.56163 37.8748 14.2267 33.6936 18.1974C33.2805 18.5889 32.8406 18.9511 32.3771 19.2815H32.0967C31.3302 19.3321 30.5603 19.2871 29.805 19.1475C26.4892 18.3436 25.2824 15.0793 26.4892 10.1219L25.0874 10.9624C19.6627 14.3728 15.9691 18.2705 14.9817 22.4484C13.6774 28.9161 18.7729 31.949 15.6034 38.6238C11.3369 41.6566 7.692 39.6956 5.91223 33.6786C2.34051 39.9392 0.828931 45.6761 2.19423 50.1707C4.29094 56.2608 10.0081 56.4313 10.8492 63.3862V63.6786C8.69159 68.3923 4.53474 68.5507 0 64.2389C0 71.3887 1.58472 77.1378 5.04673 80.3534C9.9228 84.653 15.0792 81.8272 19.2727 87.7468C19.7603 92.8869 16.2007 95.0549 10.0935 93.6298C13.7505 99.8418 17.9561 104.044 22.5396 105.079C23.3865 105.247 24.2486 105.324 25.1117 105.311C26.722 105.175 28.3078 104.832 29.8293 104.288C30.5851 104.044 31.3287 103.813 32.1211 103.63C32.6331 103.545 33.1573 103.435 33.6692 103.398C35.3537 103.304 37.0338 103.648 38.5453 104.397C41.4709 108.624 39.5449 112.205 33.6692 114.02C33.6373 114.028 33.6037 114.028 33.5717 114.02C33.5717 114.02 33.6692 114.02 33.6692 114.105C36.3901 115.705 39.3133 116.934 42.3608 117.759C44.8874 118.443 47.5507 118.443 50.0772 117.759C54.9533 116.115 56.0748 112.059 59.9025 110.134C60.9618 109.624 62.099 109.295 63.267 109.16H63.5473C68.2771 111.352 68.4234 115.469 64.0715 120C69.3499 120 73.8236 119.16 77.1638 117.345C78.305 116.722 79.3449 115.929 80.2479 114.994C84.1243 110.56 82.2105 105.993 86.087 102.059C86.6056 101.565 87.1687 101.121 87.7692 100.731C87.7376 100.742 87.7032 100.742 87.6717 100.731C87.6717 100.731 87.6717 100.731 87.7692 100.646C87.8667 100.56 87.7692 100.646 87.8545 100.646C87.8292 100.677 87.8006 100.706 87.7692 100.731C88.5183 100.694 89.2691 100.727 90.0122 100.828C93.5108 101.486 94.8883 104.799 93.6692 109.903C94.048 109.708 94.4107 109.484 94.7542 109.233C100.362 105.774 104.153 101.803 105.14 97.5154C106.445 91.0111 101.337 88.0269 104.482 81.34C104.482 81.34 104.482 81.4374 104.482 81.4739C108.736 78.4898 112.381 80.4508 114.161 86.4313C117.818 80.2194 119.269 74.4703 117.903 69.988C115.697 63.8613 109.943 63.6786 109.163 56.7115Z" fill="#BAB9B9"/>
<g clip-path="url(#clip1)">
<path d="M90 35.1147V75.5815C90 77.3709 88.5498 78.8211 86.7604 78.8211H41.391C39.6016 78.8211 38.1514 77.3709 38.1514 75.5815V35.1147C38.1514 33.3253 39.6016 31.8751 41.391 31.8751H86.7604C88.5498 31.8751 90 33.3253 90 35.1147Z" fill="#C4E2F2"/>
<path d="M44.7695 72.1382H49.008V78.8211H44.7695V72.1382Z" fill="#83B2C6"/>
<path d="M53.166 64.7838H57.4031V78.8211H53.166V64.7838Z" fill="#83B2C6"/>
<path d="M90 35.1147V38.9842H38.1514V35.1147C38.1514 33.3253 39.6011 31.8751 41.391 31.8751H86.7604C88.5498 31.8751 90 33.3253 90 35.1147Z" fill="#83B2C6"/>
<path d="M42.4401 36.5942C41.5869 36.5942 41.2028 35.4836 41.8716 34.9531C42.5271 34.4335 43.5081 35.0373 43.3424 35.854C43.2559 36.2788 42.8746 36.5942 42.4401 36.5942Z" fill="#E5E5E5"/>
<path d="M48.6911 36.5942C47.8479 36.5942 47.4569 35.5015 48.1088 34.9646C48.4068 34.7192 48.8421 34.6895 49.1717 34.8909C49.5045 35.0946 49.6762 35.5029 49.5874 35.8824C49.4908 36.2939 49.115 36.5942 48.6911 36.5942Z" fill="#E5E5E5"/>
<path d="M45.5672 36.5942C45.1919 36.5942 44.8462 36.3576 44.7098 36.0087C44.562 35.6306 44.6883 35.188 45.012 34.9422C45.6858 34.4308 46.6695 35.0763 46.4576 35.9007C46.3541 36.3022 45.9833 36.5942 45.5672 36.5942Z" fill="#E5E5E5"/>
<path d="M78.7835 58.7175C78.7835 66.8405 72.1986 73.4254 64.0747 73.4254C61.6723 73.4254 59.4059 72.8491 57.4028 71.8283C55.7983 71.0107 54.3632 69.9062 53.1657 68.5823C50.8046 65.9726 49.3672 62.5137 49.3672 58.7175C49.3672 50.5945 55.9517 44.01 64.0747 44.01V58.7175L75.6859 49.689C77.6277 52.182 78.7835 55.3149 78.7835 58.7175Z" fill="#FF491F"/>
<path d="M57.4031 64.7838V71.8283C55.7986 71.0108 54.3635 69.9062 53.166 68.5823V64.7838H57.4031Z" fill="#ED3618"/>
<path d="M77.1048 42.866L65.4932 51.8638V37.2072C70.2122 37.2072 74.4141 39.4227 77.1048 42.866Z" fill="#83B2C6"/>
<path d="M78.7827 58.717C78.7827 63.6211 76.3817 67.9652 72.6908 70.6372L64.0752 58.717L75.6855 49.6881C77.6268 52.1815 78.7827 55.3145 78.7827 58.717Z" fill="#2C92BF"/>
<path d="M78.9432 42.866L67.332 51.8638V37.2072C72.0511 37.2072 76.2529 39.4227 78.9432 42.866Z" fill="#FF8E1D"/>
<path d="M30 60.5553H34.2384V88.0243H30V60.5553Z" fill="#32CC77"/>
<path d="M38.1514 54.3046H42.3893V88.0244H38.1514V54.3046Z" fill="#32CC77"/>
<path d="M46.6084 72.1381H50.8468V88.0243H46.6084V72.1381Z" fill="#32CC77"/>
<path d="M55.0039 64.7842H59.2423V88.0244H55.0039V64.7842Z" fill="#32CC77"/>
<path d="M86.8199 75.2936H77.0754C76.5678 75.2936 76.1562 74.882 76.1562 74.3744C76.1562 73.8667 76.5678 73.4552 77.0754 73.4552H86.8194C87.3275 73.4552 87.739 73.8667 87.739 74.3744C87.739 74.882 87.3275 75.2936 86.8199 75.2936Z" fill="#FF491F"/>
<path d="M86.8197 71.403H80.0168C79.5092 71.403 79.0977 70.9915 79.0977 70.4834C79.0977 69.9757 79.5092 69.5642 80.0168 69.5642H86.8197C87.3273 69.5642 87.7389 69.9757 87.7389 70.4834C87.7389 70.9915 87.3273 71.403 86.8197 71.403Z" fill="#FF8E1D"/>
</g>
</g>
<defs>
<linearGradient id="paint0_linear" x1="13" y1="13.0001" x2="13.0006" y2="107" gradientUnits="userSpaceOnUse">
<stop stop-color="#C4C4C4" stop-opacity="0"/>
<stop offset="0.486188" stop-color="#C4C4C4"/>
<stop offset="1" stop-color="#C4C4C4" stop-opacity="0"/>
</linearGradient>
<clipPath id="clip0">
<rect width="120" height="120" fill="white" transform="translate(0 0.00012207)"/>
</clipPath>
<clipPath id="clip1">
<rect width="60" height="60" fill="white" transform="translate(30 30.0001)"/>
</clipPath>
</defs>
</svg>
