<svg width="54" height="36" viewBox="0 0 54 36" fill="none" xmlns="http://www.w3.org/2000/svg">
<path d="M21.1228 0L27 3.52417L32.8772 0L42.7039 5.89251H11.2961L21.1228 0Z" fill="#333333"/>
<path d="M2.67672 25.2117V8.67753H51.3233V25.2117H2.67672Z" fill="#333333"/>
<path d="M0 27.4397H54V30.2541L51.3233 30.2541V33.0684C51.3233 34.6875 50.0207 36 48.4138 36C46.8069 36 45.5043 34.6875 45.5043 33.0684H40.8491C40.8491 34.6875 39.5465 36 37.9397 36C36.3328 36 35.0302 34.6875 35.0302 33.0684V30.2541H18.9698V33.0684C18.9698 34.6875 17.6672 36 16.0603 36C14.4535 36 13.1509 34.6875 13.1509 33.0684H8.49569C8.49569 34.6875 7.19307 36 5.58621 36C3.97934 36 2.67672 34.6875 2.67672 33.0684V30.2541L0 30.2541V27.4397Z" fill="#333333"/>
</svg>
