<svg width="120" height="120" viewBox="0 0 120 120" fill="none" xmlns="http://www.w3.org/2000/svg">
<path d="M94.6566 29.8417C101.979 38.1966 106.016 48.9245 106.016 60.0305C106.016 71.1364 101.979 81.8643 94.6566 90.2193C93.2204 91.8938 91.6553 93.4536 89.9756 94.8843L87.7692 96.7113C87.2572 97.0889 86.733 97.4665 86.1723 97.8441C83.3844 99.7881 80.3923 101.422 77.2491 102.716C66.0717 107.193 53.5887 107.145 42.4462 102.582C39.3888 101.261 36.4762 99.6288 33.7546 97.7101L32.2064 96.5895C31.4141 95.9805 30.6705 95.3715 29.9147 94.7138C28.2255 93.2635 26.6485 91.6878 25.1971 90C18.0171 81.6583 14.0687 71.0206 14.0687 60.0183C14.0687 49.0159 18.0171 38.3782 25.1971 30.0365C26.6517 28.3517 28.2285 26.7762 29.9147 25.3228C30.6705 24.665 31.4141 24.1048 32.2064 23.447C32.7184 23.0572 33.2426 22.6918 33.7546 22.3264C36.4866 20.4652 39.3983 18.882 42.4462 17.6005C53.5751 12.9738 66.0816 12.9213 77.2491 17.4543C80.3969 18.7138 83.3907 20.3279 86.1723 22.2655C86.733 22.6066 87.2572 23.0207 87.7692 23.3983C88.5128 23.9586 89.2686 24.5554 90.0122 25.1766L94.6566 29.8417ZM109.163 56.7113V56.4312C111.345 51.7174 115.465 51.5591 120 55.9196C120 48.7211 118.464 43.0207 114.99 39.7929C110.114 35.4446 104.97 38.2826 100.776 32.3752C100.288 27.2107 103.836 25.067 109.943 26.4799C106.286 20.3045 102.093 16.151 97.5091 15.0792C96.5758 14.8557 95.6117 14.7899 94.6566 14.8843C93.0596 15.0357 91.4874 15.3835 89.9756 15.9196C89.2393 16.1621 88.4905 16.3654 87.7326 16.5286C87.2064 16.6343 86.6722 16.6954 86.1357 16.7113C84.5255 16.7915 82.9218 16.4559 81.4791 15.7369C78.5412 11.5469 80.4551 8.01462 86.1357 6.16322C86.2531 6.1402 86.3648 6.0947 86.4649 6.02923C86.3623 5.96875 86.2514 5.92361 86.1357 5.89525C83.3561 4.24782 80.3497 3.01669 77.2125 2.24117C74.8138 1.62233 72.2971 1.62233 69.8984 2.24117C64.9492 3.92205 63.8033 8.03898 59.8903 9.95128C58.8901 10.4316 57.8131 10.7326 56.7087 10.8404H56.4283C51.7107 8.63581 51.5522 4.53106 55.9163 0C50.3941 0 45.7131 0.937881 42.3486 2.8989C41.4078 3.51164 40.5478 4.24004 39.7887 5.06699C35.8635 9.56151 37.8748 14.2266 33.6936 18.1973C33.2805 18.5888 32.8406 18.951 32.3771 19.2814H32.0967C31.3302 19.3319 30.5603 19.2869 29.805 19.1474C26.4892 18.3435 25.2824 15.0792 26.4892 10.1218L25.0874 10.9622C19.6627 14.3727 15.9691 18.2704 14.9817 22.4482C13.6774 28.916 18.7729 31.9488 15.6034 38.6236C11.3369 41.6565 7.692 39.6955 5.91223 33.6784C2.34051 39.9391 0.828931 45.676 2.19423 50.1705C4.29094 56.2607 10.0081 56.4312 10.8492 63.3861V63.6784C8.69159 68.3922 4.53474 68.5506 0 64.2387C0 71.3886 1.58472 77.1376 5.04673 80.3532C9.9228 84.6529 15.0792 81.827 19.2727 87.7467C19.7603 92.8867 16.2007 95.0548 10.0935 93.6297C13.7505 99.8417 17.9561 104.044 22.5396 105.079C23.3865 105.246 24.2486 105.324 25.1117 105.311C26.722 105.175 28.3078 104.831 29.8293 104.287C30.5851 104.044 31.3287 103.812 32.1211 103.63C32.6331 103.544 33.1573 103.435 33.6692 103.398C35.3537 103.304 37.0338 103.648 38.5453 104.397C41.4709 108.624 39.5449 112.205 33.6692 114.019C33.6373 114.028 33.6037 114.028 33.5717 114.019C33.5717 114.019 33.6692 114.019 33.6692 114.105C36.3901 115.705 39.3133 116.934 42.3608 117.759C44.8874 118.443 47.5507 118.443 50.0772 117.759C54.9533 116.115 56.0748 112.058 59.9025 110.134C60.9618 109.624 62.099 109.295 63.267 109.16H63.5473C68.2771 111.352 68.4234 115.469 64.0715 120C69.3499 120 73.8236 119.16 77.1638 117.345C78.305 116.722 79.3449 115.929 80.2479 114.994C84.1243 110.56 82.2105 105.993 86.087 102.058C86.6056 101.565 87.1687 101.121 87.7692 100.731C87.7376 100.742 87.7032 100.742 87.6717 100.731C87.6717 100.731 87.6717 100.731 87.7692 100.646C87.8667 100.56 87.7692 100.646 87.8545 100.646C87.8292 100.677 87.8006 100.706 87.7692 100.731C88.5183 100.694 89.2691 100.727 90.0122 100.828C93.5108 101.486 94.8883 104.799 93.6692 109.903C94.048 109.708 94.4107 109.484 94.7542 109.233C100.362 105.773 104.153 101.803 105.14 97.5152C106.445 91.011 101.337 88.0268 104.482 81.3398C104.482 81.3398 104.482 81.4373 104.482 81.4738C108.736 78.4897 112.381 80.4507 114.161 86.4312C117.818 80.2192 119.269 74.4702 117.903 69.9878C115.697 63.8612 109.943 63.6784 109.163 56.7113Z" fill="#BAB9B9"/>
<path d="M60 107C85.9574 107 107 85.9574 107 60C107 34.0426 85.9574 13 60 13C34.0426 13 13 34.0426 13 60C13 85.9574 34.0426 107 60 107Z" fill="url(#paint0_linear)" fill-opacity="0.3"/>
<g clip-path="url(#clip0)">
<path d="M13.3301 25.2306L12.7209 26.9748C11.8562 29.4505 13.1623 32.1582 15.6378 33.0229L16.2917 33.2512L15.3734 35.8806C14.5086 38.3563 15.8147 41.064 18.2902 41.9287L20.2282 42.6055L19.3099 45.235C18.4452 47.7106 19.7513 50.4185 22.2268 51.283L26.2391 52.6844L25.3208 55.3138C24.4561 57.7895 25.762 60.4972 28.2377 61.3619L58.5244 71.94L68.4603 43.4923L14.5245 24.6545C14.0356 24.4837 13.5009 24.7417 13.3301 25.2306Z" fill="#FFB125"/>
<path d="M51.8757 64.548C51.8278 64.0097 51.6092 63.5007 51.2521 63.0948L47.1963 58.4859C46.8403 58.0813 46.6221 57.5739 46.5732 57.037L45.1578 41.4681C45.003 39.7651 46.0733 38.1899 47.7137 37.7069L49.9822 37.0386L45.6843 35.5375L38.3198 37.7069C36.6793 38.1901 35.6091 39.7651 35.7639 41.4681L37.1792 57.037C37.228 57.5739 37.4463 58.0813 37.8024 58.4859L41.8582 63.0948C42.2153 63.5007 42.4337 64.0097 42.4818 64.548L42.6465 66.3942L52.3425 69.7807L51.8757 64.548Z" fill="#FF901D"/>
<path d="M107.279 26.9746L106.67 25.2304C106.499 24.7415 105.965 24.4837 105.476 24.6543L51.54 43.4921L61.4757 71.9398L91.7625 61.3617C94.2381 60.4969 95.544 57.7891 94.6793 55.3136L93.761 52.6842L97.7731 51.2828C100.249 50.4181 101.555 47.7102 100.69 45.2347L99.7717 42.6053L101.71 41.9285C104.185 41.0638 105.491 38.3561 104.627 35.8804L103.708 33.251L104.362 33.0227C106.838 32.1582 108.144 29.4503 107.279 26.9746Z" fill="#FF6D3A"/>
<path d="M107.279 26.9746L106.669 25.2304C106.499 24.7415 105.964 24.4837 105.475 24.6543L96.5983 27.7548L97.8225 31.2604C98.5164 33.2471 97.4717 35.4293 95.4849 36.1232L93.9759 36.6503L95.1701 40.1664C95.864 42.1531 94.8244 44.3335 92.8376 45.0274L90.0125 46.0141L91.2335 49.5207C91.9274 51.5075 90.8933 53.686 88.9065 54.3798L83.9954 56.095L85.2226 59.5993C85.9165 61.5861 84.8686 63.7591 82.8818 64.453L91.7619 61.3619C94.2375 60.4972 95.5434 57.7893 94.6787 55.3138L93.7604 52.6844L97.7727 51.283C100.248 50.4183 101.554 47.7104 100.69 45.235L99.7713 42.6055L101.709 41.9287C104.185 41.064 105.491 38.3561 104.626 35.8806L103.708 33.2512L104.362 33.0229C106.837 32.1582 108.143 29.4503 107.279 26.9746Z" fill="#ED5729"/>
<path d="M101.709 41.9287L56.5075 57.7162L54.0234 50.6044L103.708 33.2512L104.626 35.8807C105.491 38.3562 104.185 41.064 101.709 41.9287Z" fill="#FFB125"/>
<path d="M91.762 61.3618L61.4752 71.94L58.9912 64.8282L93.7605 52.6843L94.6788 55.3138C95.5435 57.7893 94.2377 60.4971 91.762 61.3618Z" fill="#FFB125"/>
<path d="M15.6378 33.0229L65.9763 50.6044L68.4603 43.4925L14.5245 24.6545C14.0356 24.4837 13.5009 24.7417 13.3301 25.2306L12.7209 26.9748C11.8562 29.4503 13.1623 32.1582 15.6378 33.0229Z" fill="#FF6D3A"/>
<path d="M22.2267 51.283L61.0081 64.828L63.4922 57.7161L20.2282 42.6055L19.3098 45.2349C18.4451 47.7104 19.751 50.4183 22.2267 51.283Z" fill="#FF6D3A"/>
<path d="M72.2862 37.7067L62.911 34.9451V33.2703L63.5425 32.733C65.3298 31.2128 66.3596 28.9848 66.3596 26.6383V22.36C66.3598 18.8474 63.5124 16 59.9998 16C56.4872 16 53.6397 18.8474 53.6397 22.36V26.6385C53.6397 28.9848 54.6696 31.213 56.4569 32.7332L57.0884 33.2705V34.9453L47.7132 37.707C46.0727 38.1902 45.0025 39.7652 45.1575 41.4682L46.5728 57.0371C46.6216 57.574 46.8399 58.0814 47.196 58.486L51.2518 63.0949C51.6089 63.5008 51.8273 64.0098 51.8752 64.5481L55.1197 100.925H59.9998H64.8799L68.1244 64.5481C68.1723 64.0098 68.3909 63.5008 68.7478 63.0949L72.8036 58.486C73.1596 58.0814 73.3778 57.574 73.4268 57.0371L74.8421 41.4682C74.9969 39.7652 73.9266 38.19 72.2862 37.7067Z" fill="#FFB125"/>
<path d="M72.2861 37.7067L62.9109 34.9451V33.2703L63.5424 32.733C65.3297 31.2128 66.3595 28.9848 66.3595 26.6383V22.36C66.3597 18.8474 63.5123 16 59.9997 16C56.4873 16 53.6396 18.8474 53.6396 22.36V26.6385C53.6396 27.9882 53.9821 29.298 54.612 30.4574C55.1897 30.9159 55.4643 31.2801 55.2915 31.5055C55.4619 31.728 55.6443 31.9421 55.8385 32.147C55.8472 32.1562 55.8566 32.1647 55.8653 32.1738C55.9539 32.2665 56.0442 32.3577 56.1377 32.4462C56.2413 32.5443 56.3477 32.6402 56.457 32.7332L57.0885 33.2705V34.9453L62.8696 37.707C64.5101 38.1902 65.5803 39.7652 65.4256 41.4682L64.0102 57.0371C63.9614 57.574 63.7431 58.0814 63.387 58.486L59.3312 63.0949C58.9741 63.5008 58.7558 64.0098 58.7076 64.5481L55.4631 100.925H59.9997H64.8798L68.1243 64.5481C68.1363 64.4134 68.159 64.2808 68.1917 64.151C68.2902 63.7616 68.4799 63.3992 68.7477 63.0949L72.8035 58.486C72.8479 58.4355 72.8904 58.3833 72.9304 58.3296C73.2113 57.954 73.3838 57.507 73.4266 57.0371L74.842 41.4682C74.9968 39.7652 73.9265 38.19 72.2861 37.7067Z" fill="#FF901D"/>
<path d="M71.5479 109.246H48.4521L49.8929 100.223C49.9689 99.7472 50.3796 99.3969 50.8618 99.3969H69.1384C69.6206 99.3969 70.0311 99.7472 70.1073 100.223L71.5479 109.246Z" fill="#FF6D3A"/>
<path d="M77.4241 120H42.5755C41.8902 120 41.368 119.386 41.4774 118.71L43.4549 106.5C43.542 105.962 44.0072 105.566 44.553 105.566H75.4466C75.9922 105.566 76.4574 105.962 76.5447 106.5L78.5222 118.71C78.6316 119.386 78.1092 120 77.4241 120Z" fill="#474747"/>
<path d="M78.522 118.71L76.5446 106.5C76.4572 105.962 75.9923 105.566 75.4465 105.566H66.9766L69.3145 120H77.4241C78.1092 120 78.6317 119.386 78.522 118.71Z" fill="#333333"/>
<path d="M46.682 114.548L47.2972 110.748C47.3637 110.338 47.7173 110.037 48.1323 110.037H71.8685C72.2834 110.037 72.6371 110.338 72.7035 110.748L73.319 114.548C73.4023 115.062 73.0052 115.529 72.4839 115.529H47.517C46.9958 115.529 46.5987 115.062 46.682 114.548Z" fill="#98ACB8"/>
<path d="M73.319 114.548L72.7035 110.748C72.6373 110.338 72.2835 110.037 71.8685 110.037H63.1719L64.0614 115.528H72.4839C73.0052 115.529 73.4023 115.062 73.319 114.548Z" fill="#ACC0CC"/>
<path d="M104.854 36.839C104.812 36.5187 104.738 36.1978 104.627 35.8807L103.709 33.2512L94.812 36.3586L93.977 36.6503L95.1711 40.1664C95.865 42.1532 94.8254 44.3335 92.8389 45.0274L101.71 41.9289C103.645 41.2533 104.865 39.4528 104.894 37.517C104.895 37.4352 104.894 37.3533 104.89 37.2711C104.885 37.1273 104.873 36.9832 104.854 36.839Z" fill="#FF901D"/>
<path d="M94.6797 55.3138L93.7614 52.6843L83.9963 56.0948L85.2236 59.5993C85.9175 61.5861 84.8696 63.7591 82.8828 64.453L91.7628 61.3618C91.8402 61.3348 91.9164 61.306 91.9915 61.2755C92.2918 61.1532 92.5731 61.0033 92.8339 60.8294C93.0628 60.6769 93.2747 60.505 93.4703 60.3186C94.7784 59.072 95.3143 57.1307 94.6797 55.3138Z" fill="#FF901D"/>
<path d="M37.129 56.4879L49.1244 60.6775L47.1959 58.486C46.8398 58.0814 46.6217 57.574 46.5727 57.0371L46.0817 51.6352L36.3799 48.2467L37.129 56.4879Z" fill="#ED5729"/>
<path d="M45.6844 35.5374L38.3199 37.7067C37.1347 38.0559 36.2501 38.9763 35.9072 40.102L45.333 43.3942L45.1579 41.4682C45.0032 39.7652 46.0734 38.19 47.7139 37.7069L49.9824 37.0387L45.6844 35.5374Z" fill="#ED5729"/>
<path d="M60 65.3843C59.1331 65.3843 58.4307 66.0869 58.4307 66.9536V99.3968H61.5696V66.9536C61.5694 66.0869 60.8667 65.3843 60 65.3843Z" fill="#2C5871"/>
</g>
<defs>
<linearGradient id="paint0_linear" x1="13" y1="13" x2="13.0006" y2="107" gradientUnits="userSpaceOnUse">
<stop stop-color="#C4C4C4" stop-opacity="0"/>
<stop offset="0.486188" stop-color="#C4C4C4"/>
<stop offset="1" stop-color="#C4C4C4" stop-opacity="0"/>
</linearGradient>
<clipPath id="clip0">
<rect width="104" height="104" fill="white" transform="translate(8 16)"/>
</clipPath>
</defs>
</svg>
