<svg width="120" height="120" viewBox="0 0 120 120" fill="none" xmlns="http://www.w3.org/2000/svg">
<path d="M94.6566 29.8417C101.979 38.1966 106.016 48.9245 106.016 60.0305C106.016 71.1364 101.979 81.8643 94.6566 90.2193C93.2204 91.8938 91.6553 93.4536 89.9756 94.8843L87.7692 96.7113C87.2572 97.0889 86.733 97.4665 86.1723 97.8441C83.3844 99.7881 80.3923 101.422 77.2491 102.716C66.0717 107.193 53.5887 107.145 42.4462 102.582C39.3888 101.261 36.4762 99.6288 33.7546 97.7101L32.2064 96.5895C31.4141 95.9805 30.6705 95.3715 29.9147 94.7138C28.2255 93.2635 26.6485 91.6878 25.1971 90C18.0171 81.6583 14.0687 71.0206 14.0687 60.0183C14.0687 49.0159 18.0171 38.3782 25.1971 30.0365C26.6517 28.3517 28.2285 26.7762 29.9147 25.3228C30.6705 24.665 31.4141 24.1048 32.2064 23.447C32.7184 23.0572 33.2426 22.6918 33.7546 22.3264C36.4866 20.4652 39.3983 18.882 42.4462 17.6005C53.5751 12.9738 66.0816 12.9213 77.2491 17.4543C80.3969 18.7138 83.3907 20.3279 86.1723 22.2655C86.733 22.6066 87.2572 23.0207 87.7692 23.3983C88.5128 23.9586 89.2686 24.5554 90.0122 25.1766L94.6566 29.8417ZM109.163 56.7113V56.4312C111.345 51.7174 115.465 51.5591 120 55.9196C120 48.7211 118.464 43.0207 114.99 39.7929C110.114 35.4446 104.97 38.2826 100.776 32.3752C100.288 27.2107 103.836 25.067 109.943 26.4799C106.286 20.3045 102.093 16.151 97.5091 15.0792C96.5758 14.8557 95.6117 14.7899 94.6566 14.8843C93.0596 15.0357 91.4874 15.3835 89.9756 15.9196C89.2393 16.1621 88.4905 16.3654 87.7326 16.5286C87.2064 16.6343 86.6722 16.6954 86.1357 16.7113C84.5255 16.7915 82.9218 16.4559 81.4791 15.7369C78.5412 11.5469 80.4551 8.01462 86.1357 6.16322C86.2531 6.1402 86.3648 6.0947 86.4649 6.02923C86.3623 5.96875 86.2514 5.92361 86.1357 5.89525C83.3561 4.24782 80.3497 3.01669 77.2125 2.24117C74.8138 1.62233 72.2971 1.62233 69.8984 2.24117C64.9492 3.92205 63.8033 8.03898 59.8903 9.95128C58.8901 10.4316 57.8131 10.7326 56.7087 10.8404H56.4283C51.7107 8.63581 51.5522 4.53106 55.9163 0C50.3941 0 45.7131 0.937881 42.3486 2.8989C41.4078 3.51164 40.5478 4.24004 39.7887 5.06699C35.8635 9.56151 37.8748 14.2266 33.6936 18.1973C33.2805 18.5888 32.8406 18.951 32.3771 19.2814H32.0967C31.3302 19.3319 30.5603 19.2869 29.805 19.1474C26.4892 18.3435 25.2824 15.0792 26.4892 10.1218L25.0874 10.9622C19.6627 14.3727 15.9691 18.2704 14.9817 22.4482C13.6774 28.916 18.7729 31.9488 15.6034 38.6236C11.3369 41.6565 7.692 39.6955 5.91223 33.6784C2.34051 39.9391 0.828931 45.676 2.19423 50.1705C4.29094 56.2607 10.0081 56.4312 10.8492 63.3861V63.6784C8.69159 68.3922 4.53474 68.5506 0 64.2387C0 71.3886 1.58472 77.1376 5.04673 80.3532C9.9228 84.6529 15.0792 81.827 19.2727 87.7467C19.7603 92.8867 16.2007 95.0548 10.0935 93.6297C13.7505 99.8417 17.9561 104.044 22.5396 105.079C23.3865 105.246 24.2486 105.324 25.1117 105.311C26.722 105.175 28.3078 104.831 29.8293 104.287C30.5851 104.044 31.3287 103.812 32.1211 103.63C32.6331 103.544 33.1573 103.435 33.6692 103.398C35.3537 103.304 37.0338 103.648 38.5453 104.397C41.4709 108.624 39.5449 112.205 33.6692 114.019C33.6373 114.028 33.6037 114.028 33.5717 114.019C33.5717 114.019 33.6692 114.019 33.6692 114.105C36.3901 115.705 39.3133 116.934 42.3608 117.759C44.8874 118.443 47.5507 118.443 50.0772 117.759C54.9533 116.115 56.0748 112.058 59.9025 110.134C60.9618 109.624 62.099 109.295 63.267 109.16H63.5473C68.2771 111.352 68.4234 115.469 64.0715 120C69.3499 120 73.8236 119.16 77.1638 117.345C78.305 116.722 79.3449 115.929 80.2479 114.994C84.1243 110.56 82.2105 105.993 86.087 102.058C86.6056 101.565 87.1687 101.121 87.7692 100.731C87.7376 100.742 87.7032 100.742 87.6717 100.731C87.6717 100.731 87.6717 100.731 87.7692 100.646C87.8667 100.56 87.7692 100.646 87.8545 100.646C87.8292 100.677 87.8006 100.706 87.7692 100.731C88.5183 100.694 89.2691 100.727 90.0122 100.828C93.5108 101.486 94.8883 104.799 93.6692 109.903C94.048 109.708 94.4107 109.484 94.7542 109.233C100.362 105.773 104.153 101.803 105.14 97.5152C106.445 91.011 101.337 88.0268 104.482 81.3398C104.482 81.3398 104.482 81.4373 104.482 81.4738C108.736 78.4897 112.381 80.4507 114.161 86.4312C117.818 80.2192 119.269 74.4702 117.903 69.9878C115.697 63.8612 109.943 63.6784 109.163 56.7113Z" fill="#BAB9B9"/>
<path d="M60 107C85.9574 107 107 85.9574 107 60C107 34.0426 85.9574 13 60 13C34.0426 13 13 34.0426 13 60C13 85.9574 34.0426 107 60 107Z" fill="url(#paint0_linear)" fill-opacity="0.3"/>
<g clip-path="url(#clip0)">
<path d="M38.0156 39.7656H63.3018L65.1155 34.325C65.3387 33.6551 65.9657 33.2031 66.6719 33.2031H86.3594C87.2654 33.2031 88 33.9377 88 34.8438V46.3149V82.4219C88 84.8381 86.0412 86.7969 83.625 86.7969C80.8067 86.7969 78.0865 85.7627 75.9799 83.8906L36.7962 49.0663C36.5251 48.765 36.375 48.3741 36.375 47.9688V41.4062C36.375 40.5002 37.1096 39.7656 38.0156 39.7656Z" fill="#FFB454"/>
<path d="M38.0156 39.7656H53.9844V64.3368L36.7962 49.0662C36.5251 48.765 36.375 48.3741 36.375 47.9688V41.4063C36.375 40.5002 37.1096 39.7656 38.0156 39.7656Z" fill="#FF7D47"/>
<path d="M33.6406 46.3281H77.6094C78.5154 46.3281 79.25 47.0627 79.25 47.9688V82.4219C79.25 84.8381 81.2088 86.7969 83.625 86.7969H38.0156C34.6986 86.7969 32 84.0983 32 80.7812V47.9688C32 47.0627 32.7346 46.3281 33.6406 46.3281Z" fill="#FFF16B"/>
<path d="M33.6406 46.3148H53.9844V86.7836H38.0156C34.6986 86.7836 32 84.085 32 80.7679V47.9554C32 47.0494 32.7346 46.3148 33.6406 46.3148Z" fill="#FFB454"/>
<path fill-rule="evenodd" clip-rule="evenodd" d="M53.9463 54.7028C57.3421 54.7028 60.095 57.5262 60.095 61.0091C60.095 64.4919 57.3421 67.3154 53.9463 67.3154V54.7028ZM53.9463 68.1562C59.3796 68.1562 63.7842 72.2972 63.7842 77.4055H53.9463V68.1562Z" fill="#F6C358"/>
<path fill-rule="evenodd" clip-rule="evenodd" d="M53.9462 54.7028C50.5504 54.7028 47.7976 57.5262 47.7976 61.0091C47.7976 64.4919 50.5504 67.3154 53.9462 67.3154V54.7028ZM53.9462 68.1562C48.5129 68.1562 44.1084 72.2972 44.1084 77.4055H53.9462V68.1562Z" fill="#D7A53A"/>
</g>
<defs>
<linearGradient id="paint0_linear" x1="13" y1="13" x2="13.0006" y2="107" gradientUnits="userSpaceOnUse">
<stop stop-color="#C4C4C4" stop-opacity="0"/>
<stop offset="0.486188" stop-color="#C4C4C4"/>
<stop offset="1" stop-color="#C4C4C4" stop-opacity="0"/>
</linearGradient>
<clipPath id="clip0">
<rect width="56" height="56" fill="white" transform="matrix(-1 0 0 1 88 32)"/>
</clipPath>
</defs>
</svg>
