<?xml version="1.0" encoding="UTF-8" standalone="no"?>
<svg
   xmlns:dc="http://purl.org/dc/elements/1.1/"
   xmlns:cc="http://creativecommons.org/ns#"
   xmlns:rdf="http://www.w3.org/1999/02/22-rdf-syntax-ns#"
   xmlns:svg="http://www.w3.org/2000/svg"
   xmlns="http://www.w3.org/2000/svg"
   xmlns:sodipodi="http://sodipodi.sourceforge.net/DTD/sodipodi-0.dtd"
   xmlns:inkscape="http://www.inkscape.org/namespaces/inkscape"
   width="245"
   height="245"
   viewBox="0 0 245 245"
   fill="none"
   version="1.1"
   id="svg109"
   sodipodi:docname="safety-barometr.svg"
   inkscape:version="0.92.3 (2405546, 2018-03-11)">
  <metadata
     id="metadata113">
    <rdf:RDF>
      <cc:Work
         rdf:about="">
        <dc:format>image/svg+xml</dc:format>
        <dc:type
           rdf:resource="http://purl.org/dc/dcmitype/StillImage" />
        <dc:title></dc:title>
      </cc:Work>
    </rdf:RDF>
  </metadata>
  <sodipodi:namedview
     pagecolor="#ffffff"
     bordercolor="#666666"
     borderopacity="1"
     objecttolerance="10"
     gridtolerance="10"
     guidetolerance="10"
     inkscape:pageopacity="0"
     inkscape:pageshadow="2"
     inkscape:window-width="961"
     inkscape:window-height="480"
     id="namedview111"
     showgrid="false"
     inkscape:zoom="0.96326531"
     inkscape:cx="122.5"
     inkscape:cy="122.5"
     inkscape:window-x="0"
     inkscape:window-y="25"
     inkscape:window-maximized="0"
     inkscape:current-layer="svg109" />
  <g
     opacity="0.8"
     id="g6">
    <path
       d="M245 122.5C245 190.155 190.155 245 122.5 245C54.8451 245 0 190.155 0 122.5C0 54.8451 54.8451 0 122.5 0C190.155 0 245 54.8451 245 122.5Z"
       fill="#333333"
       id="path2" />
    <path
       d="M245 122.5C245 190.155 190.155 245 122.5 245C54.8451 245 0 190.155 0 122.5C0 54.8451 54.8451 0 122.5 0C190.155 0 245 54.8451 245 122.5Z"
       fill="url(#paint0_linear)"
       id="path4" />
  </g>
  <g
     filter="url(#filter0_i)"
     id="g10">
    <path
       fill-rule="evenodd"
       clip-rule="evenodd"
       d="M122.5 238.147C186.37 238.147 238.147 186.37 238.147 122.5C238.147 58.63 186.37 6.85315 122.5 6.85315C58.63 6.85315 6.85315 58.63 6.85315 122.5C6.85315 186.37 58.63 238.147 122.5 238.147ZM122.5 245C190.155 245 245 190.155 245 122.5C245 54.8451 190.155 0 122.5 0C54.8451 0 0 54.8451 0 122.5C0 190.155 54.8451 245 122.5 245Z"
       fill="white"
       id="path8" />
  </g>
  <path
     d="M44.9432 172.522C35.6001 158.67 30.1825 142.547 29.2656 125.864C28.3487 109.181 31.9667 92.561 39.7355 77.7688C47.5043 62.9766 59.1339 50.5644 73.3895 41.8499C87.6451 33.1355 103.994 28.4442 120.702 28.2741C137.409 28.104 153.851 32.4614 168.281 40.8838C182.711 49.3062 194.591 61.4791 202.659 76.11C210.727 90.7409 214.683 107.284 214.106 123.982C213.529 140.68 208.441 156.91 199.382 170.949L192.804 166.705C201.097 153.854 205.755 138.997 206.283 123.712C206.811 108.426 203.19 93.2831 195.804 79.89C188.419 66.497 177.544 55.3541 164.335 47.6443C151.126 39.9345 136.075 35.9457 120.781 36.1014C105.488 36.2571 90.5216 40.5515 77.4722 48.5287C64.4228 56.5058 53.7772 67.8679 46.6657 81.4085C39.5541 94.9491 36.2422 110.163 37.0816 125.434C37.9209 140.706 42.8801 155.465 51.4327 168.145L44.9432 172.522Z"
     fill="white"
     id="path20" />
  <path
     d="M55.5961 165.336C47.5512 153.409 42.8861 139.527 42.0961 125.162C41.306 110.797 44.4205 96.4862 51.1089 83.7489C57.7973 71.0116 67.8099 60.3231 80.0838 52.8181C92.3577 45.3131 106.435 41.2718 120.821 41.1232C135.206 40.9745 149.364 44.7241 161.79 51.9739C174.217 59.2236 184.448 69.7029 191.398 82.2993C198.348 94.8957 201.758 109.139 201.265 123.517C200.772 137.895 196.394 151.871 188.598 163.962L182.933 160.309C190.07 149.241 194.077 136.448 194.528 123.286C194.979 110.124 191.858 97.0863 185.496 85.5557C179.134 74.0251 169.769 64.4324 158.394 57.796C147.019 51.1597 134.059 47.7273 120.89 47.8634C107.722 47.9995 94.8355 51.6989 83.6001 58.5688C72.3647 65.4388 63.1992 75.223 57.0768 86.8826C50.9543 98.5422 48.1033 111.642 48.8265 124.792C49.5497 137.941 53.8201 150.649 61.1843 161.567L55.5961 165.336Z"
     fill="#FF4A4A"
     id="path22" />
  <path
     d="M55.5961 165.336C44.4373 148.793 39.8934 128.664 42.8629 108.931C45.8325 89.1983 56.0993 71.2983 71.6328 58.7717C87.1662 46.245 106.835 40.0039 126.749 41.2827C146.663 42.5615 165.372 51.2671 179.176 65.6777L174.308 70.3404C161.672 57.1491 144.546 49.18 126.317 48.0094C108.088 46.8388 90.0833 52.5519 75.8641 64.0187C61.6449 75.4855 52.2468 91.871 49.5285 109.934C46.8102 127.998 50.9696 146.423 61.1843 161.567L55.5961 165.336Z"
     fill="#F6C358"
     id="path24" />
  <path
     d="M55.5961 165.336C45.2101 149.939 40.5304 131.396 42.3658 112.914C44.2013 94.4316 52.4365 77.1715 65.648 64.1172L70.3857 68.9119C58.292 80.8618 50.7536 96.6615 49.0734 113.58C47.3933 130.498 51.6771 147.472 61.1843 161.567L55.5961 165.336Z"
     fill="#74B422"
     id="path26" />
  <rect
     x="198.007"
     y="44.5454"
     width="3.42657"
     height="17.1329"
     transform="rotate(45 198.007 44.5454)"
     fill="white"
     id="rect28" />
  <rect
     width="3.42657"
     height="17.1329"
     transform="matrix(-0.5 0.866025 0.866026 0.5 199.598 167.045)"
     fill="white"
     id="rect30" />
  <rect
     width="3.42657"
     height="17.1329"
     transform="matrix(-0.5292 -0.848497 0.848498 -0.529198 32.7529 179.656)"
     fill="white"
     id="rect32" />
  <rect
     width="3.42657"
     height="17.1329"
     transform="matrix(-0.707107 0.707106 0.707107 0.707106 49.5635 47.1154)"
     fill="white"
     id="rect34" />
  <path
     d="M72.3699 160.757C72.3699 162.978 72.0183 164.636 71.3152 165.732C70.6179 166.827 69.5486 167.375 68.1072 167.375C66.7244 167.375 65.6726 166.816 64.9519 165.696C64.2312 164.571 63.8708 162.925 63.8708 160.757C63.8708 158.519 64.2195 156.858 64.9167 155.774C65.614 154.69 66.6775 154.148 68.1072 154.148C69.5017 154.148 70.5593 154.713 71.28 155.844C72.0066 156.975 72.3699 158.612 72.3699 160.757ZM65.3474 160.757C65.3474 162.626 65.5671 163.988 66.0066 164.844C66.446 165.693 67.1462 166.118 68.1072 166.118C69.0798 166.118 69.783 165.688 70.2166 164.826C70.656 163.959 70.8757 162.603 70.8757 160.757C70.8757 158.911 70.656 157.561 70.2166 156.705C69.783 155.844 69.0798 155.413 68.1072 155.413C67.1462 155.413 66.446 155.838 66.0066 156.688C65.5671 157.531 65.3474 158.888 65.3474 160.757Z"
     fill="white"
     id="path40" />
  <path
     d="M166.447 167.199H158V165.943L161.384 162.541C162.415 161.498 163.095 160.754 163.423 160.309C163.751 159.863 163.997 159.43 164.162 159.008C164.326 158.586 164.408 158.132 164.408 157.646C164.408 156.96 164.2 156.418 163.784 156.02C163.368 155.615 162.79 155.413 162.052 155.413C161.519 155.413 161.012 155.501 160.532 155.677C160.057 155.853 159.527 156.172 158.941 156.635L158.167 155.642C159.351 154.657 160.64 154.165 162.035 154.165C163.242 154.165 164.188 154.476 164.873 155.097C165.559 155.712 165.902 156.541 165.902 157.584C165.902 158.399 165.673 159.204 165.216 160.001C164.759 160.798 163.904 161.806 162.65 163.025L159.837 165.776V165.846H166.447V167.199ZM173.162 160.247H176.783V161.46H173.162V165.204H171.94V161.46H168.336V160.247H171.94V156.485H173.162V160.247Z"
     fill="white"
     id="path42" />
  <path
     d="M78.9988 78.5192C78.9988 80.7399 78.6472 82.3981 77.9441 83.4938C77.2469 84.5895 76.1775 85.1373 74.7361 85.1373C73.3533 85.1373 72.3015 84.5778 71.5808 83.4586C70.8601 82.3336 70.4998 80.6871 70.4998 78.5192C70.4998 76.2809 70.8484 74.6198 71.5457 73.5358C72.2429 72.4518 73.3064 71.9098 74.7361 71.9098C76.1306 71.9098 77.1883 72.4752 77.909 73.6061C78.6355 74.7369 78.9988 76.3746 78.9988 78.5192ZM71.9763 78.5192C71.9763 80.3883 72.1961 81.7506 72.6355 82.6061C73.075 83.4557 73.7752 83.8805 74.7361 83.8805C75.7088 83.8805 76.4119 83.4498 76.8455 82.5885C77.2849 81.7213 77.5047 80.3649 77.5047 78.5192C77.5047 76.6735 77.2849 75.3229 76.8455 74.4674C76.4119 73.6061 75.7088 73.1754 74.7361 73.1754C73.7752 73.1754 73.075 73.6002 72.6355 74.4498C72.1961 75.2936 71.9763 76.65 71.9763 78.5192ZM81.24 84.0299C81.24 83.6373 81.3279 83.3414 81.5037 83.1422C81.6853 82.9371 81.9431 82.8346 82.2771 82.8346C82.617 82.8346 82.8806 82.9371 83.0681 83.1422C83.2615 83.3414 83.3582 83.6373 83.3582 84.0299C83.3582 84.4108 83.2615 84.7037 83.0681 84.9088C82.8748 85.1139 82.6111 85.2164 82.2771 85.2164C81.9783 85.2164 81.7293 85.1256 81.5301 84.944C81.3367 84.7565 81.24 84.4518 81.24 84.0299ZM89.5984 77.1129C90.9519 77.1129 92.0154 77.4498 92.7888 78.1237C93.5681 78.7916 93.9578 79.7086 93.9578 80.8746C93.9578 82.2047 93.533 83.2477 92.6834 84.0035C91.8396 84.7594 90.6736 85.1373 89.1853 85.1373C87.7381 85.1373 86.6336 84.9059 85.8719 84.443V83.0367C86.282 83.3004 86.7918 83.5084 87.4011 83.6608C88.0105 83.8073 88.6111 83.8805 89.2029 83.8805C90.2342 83.8805 91.034 83.6373 91.6023 83.151C92.1765 82.6647 92.4636 81.9615 92.4636 81.0416C92.4636 79.2487 91.365 78.3522 89.1678 78.3522C88.6111 78.3522 87.867 78.4371 86.9353 78.6071L86.1795 78.1237L86.6629 72.1119H93.0525V73.4567H87.9109L87.5857 77.3151C88.2595 77.1803 88.9304 77.1129 89.5984 77.1129Z"
     fill="white"
     id="path44" />
  <path
     d="M158.266 84.9615H156.842V75.8033C156.842 75.0416 156.866 74.3209 156.913 73.6412C156.789 73.7643 156.652 73.8932 156.499 74.028C156.347 74.1627 155.65 74.734 154.408 75.7418L153.634 74.7399L157.036 72.1119H158.266V84.9615ZM168.022 78.0094H171.643V79.2223H168.022V82.9664H166.8V79.2223H163.197V78.0094H166.8V74.2477H168.022V78.0094Z"
     fill="white"
     id="path46" />
  <defs
     id="defs107">
    <filter
       id="filter0_i"
       x="0"
       y="0"
       width="246"
       height="245"
       filterUnits="userSpaceOnUse"
       color-interpolation-filters="sRGB">
      <feFlood
         flood-opacity="0"
         result="BackgroundImageFix"
         id="feFlood52" />
      <feBlend
         mode="normal"
         in="SourceGraphic"
         in2="BackgroundImageFix"
         result="shape"
         id="feBlend54" />
      <feColorMatrix
         in="SourceAlpha"
         type="matrix"
         values="0 0 0 0 0 0 0 0 0 0 0 0 0 0 0 0 0 0 127 0"
         result="hardAlpha"
         id="feColorMatrix56" />
      <feOffset
         dx="1"
         id="feOffset58" />
      <feGaussianBlur
         stdDeviation="3"
         id="feGaussianBlur60" />
      <feComposite
         in2="hardAlpha"
         operator="arithmetic"
         k2="-1"
         k3="1"
         id="feComposite62" />
      <feColorMatrix
         type="matrix"
         values="0 0 0 0 0.2 0 0 0 0 0.2 0 0 0 0 0.2 0 0 0 0.5 0"
         id="feColorMatrix64" />
      <feBlend
         mode="normal"
         in2="shape"
         result="effect1_innerShadow"
         id="feBlend66" />
    </filter>
    <filter
       id="filter1_d"
       x="78.2373"
       y="116.504"
       width="50.8322"
       height="19.993"
       filterUnits="userSpaceOnUse"
       color-interpolation-filters="sRGB">
      <feFlood
         flood-opacity="0"
         result="BackgroundImageFix"
         id="feFlood69" />
      <feColorMatrix
         in="SourceAlpha"
         type="matrix"
         values="0 0 0 0 0 0 0 0 0 0 0 0 0 0 0 0 0 0 127 0"
         id="feColorMatrix71" />
      <feOffset
         dy="4"
         id="feOffset73" />
      <feGaussianBlur
         stdDeviation="2"
         id="feGaussianBlur75" />
      <feColorMatrix
         type="matrix"
         values="0 0 0 0 0 0 0 0 0 0 0 0 0 0 0 0 0 0 0.25 0"
         id="feColorMatrix77" />
      <feBlend
         mode="normal"
         in2="BackgroundImageFix"
         result="effect1_dropShadow"
         id="feBlend79" />
      <feBlend
         mode="normal"
         in="SourceGraphic"
         in2="effect1_dropShadow"
         result="shape"
         id="feBlend81" />
    </filter>
    <filter
       id="filter2_d"
       x="109.934"
       y="113.934"
       width="25.1329"
       height="25.1329"
       filterUnits="userSpaceOnUse"
       color-interpolation-filters="sRGB">
      <feFlood
         flood-opacity="0"
         result="BackgroundImageFix"
         id="feFlood84" />
      <feColorMatrix
         in="SourceAlpha"
         type="matrix"
         values="0 0 0 0 0 0 0 0 0 0 0 0 0 0 0 0 0 0 127 0"
         id="feColorMatrix86" />
      <feOffset
         dy="4"
         id="feOffset88" />
      <feGaussianBlur
         stdDeviation="2"
         id="feGaussianBlur90" />
      <feColorMatrix
         type="matrix"
         values="0 0 0 0 0 0 0 0 0 0 0 0 0 0 0 0 0 0 0.25 0"
         id="feColorMatrix92" />
      <feBlend
         mode="normal"
         in2="BackgroundImageFix"
         result="effect1_dropShadow"
         id="feBlend94" />
      <feBlend
         mode="normal"
         in="SourceGraphic"
         in2="effect1_dropShadow"
         result="shape"
         id="feBlend96" />
    </filter>
    <linearGradient
       id="paint0_linear"
       x1="245"
       y1="-1.46031e-05"
       x2="1.46031e-05"
       y2="245"
       gradientUnits="userSpaceOnUse">
      <stop
         stop-color="#FFDF07"
         id="stop99" />
      <stop
         offset="1"
         stop-color="#969300"
         id="stop101" />
    </linearGradient>
    <clipPath
       id="clip0">
      <rect
         width="108"
         height="21.4161"
         fill="white"
         transform="translate(68.0713 194.458)"
         id="rect104" />
    </clipPath>
  </defs>
</svg>
