<?xml version="1.0" encoding="UTF-8" standalone="no"?>
<svg
   xmlns:dc="http://purl.org/dc/elements/1.1/"
   xmlns:cc="http://creativecommons.org/ns#"
   xmlns:rdf="http://www.w3.org/1999/02/22-rdf-syntax-ns#"
   xmlns:svg="http://www.w3.org/2000/svg"
   xmlns="http://www.w3.org/2000/svg"
   xmlns:sodipodi="http://sodipodi.sourceforge.net/DTD/sodipodi-0.dtd"
   xmlns:inkscape="http://www.inkscape.org/namespaces/inkscape"
   width="245"
   height="245"
   viewBox="0 0 245 245"
   fill="none"
   version="1.1"
   id="svg109"
   sodipodi:docname="safety-barometr-arrow.svg"
   enable-background="new"
   inkscape:version="0.92.3 (2405546, 2018-03-11)">
  <metadata
     id="metadata113">
    <rdf:RDF>
      <cc:Work
         rdf:about="">
        <dc:format>image/svg+xml</dc:format>
        <dc:type
           rdf:resource="http://purl.org/dc/dcmitype/StillImage" />
        <dc:title></dc:title>
      </cc:Work>
    </rdf:RDF>
  </metadata>
  <sodipodi:namedview
     pagecolor="#ffffff"
     bordercolor="#666666"
     borderopacity="1"
     objecttolerance="10"
     gridtolerance="10"
     guidetolerance="10"
     inkscape:pageopacity="0"
     inkscape:pageshadow="2"
     inkscape:window-width="1600"
     inkscape:window-height="851"
     id="namedview111"
     showgrid="false"
     inkscape:zoom="1.3622629"
     inkscape:cx="130.36585"
     inkscape:cy="110.32463"
     inkscape:window-x="0"
     inkscape:window-y="25"
     inkscape:window-maximized="1"
     inkscape:current-layer="svg109"
     inkscape:snap-bbox="true"
     inkscape:bbox-paths="true"
     inkscape:bbox-nodes="true"
     inkscape:snap-bbox-edge-midpoints="true"
     inkscape:snap-bbox-midpoints="true"
     showguides="true" />
  <path
     style="fill:#ffffff;fill-opacity:1;stroke:none;stroke-width:1px;stroke-linecap:butt;stroke-linejoin:miter;stroke-opacity:1"
     d="m 82.2373,122.5 42.8317,5.997 v -11.993 z"
     id="path2164"
     inkscape:connector-curvature="0"
     sodipodi:nodetypes="cccc" />
  <g
     clip-path="url(#clip0)"
     id="g18"
     style="display:none">
    <path
       d="m 70.0156,211.666 v -12.85 h 2.1006 v 11.048 h 5.4404 v 1.802 z m 14.1944,0 h -2.1006 v -11.048 h -3.7793 v -1.802 h 9.6592 v 1.802 H 84.21 Z m 5.7568,0 v -12.85 h 2.1006 v 12.85 z m 7.585,0 h -2.083 v -12.85 h 7.2512 v 1.776 h -5.1682 v 4.016 h 4.8432 v 1.785 h -4.8432 z m 9.5972,-6.873 h 1.459 c 0.979,0 1.688,-0.182 2.127,-0.545 0.44,-0.363 0.66,-0.902 0.66,-1.617 0,-0.727 -0.238,-1.248 -0.712,-1.565 -0.475,-0.316 -1.19,-0.474 -2.145,-0.474 h -1.389 z m 0,1.74 v 5.133 h -2.1 v -12.85 h 3.63 c 1.658,0 2.885,0.311 3.682,0.932 0.797,0.621 1.196,1.559 1.196,2.813 0,1.599 -0.832,2.739 -2.496,3.418 l 3.629,5.687 h -2.39 l -3.076,-5.133 z m 8.886,4.034 c 0,-0.427 0.111,-0.755 0.334,-0.984 0.223,-0.229 0.545,-0.343 0.967,-0.343 0.428,0 0.753,0.12 0.976,0.361 0.222,0.234 0.334,0.556 0.334,0.966 0,0.416 -0.115,0.747 -0.343,0.994 -0.223,0.24 -0.545,0.36 -0.967,0.36 -0.422,0 -0.744,-0.12 -0.967,-0.36 -0.223,-0.241 -0.334,-0.572 -0.334,-0.994 z m 0,-7.505 c 0,-0.885 0.434,-1.328 1.301,-1.328 0.439,0 0.768,0.118 0.984,0.352 0.217,0.234 0.326,0.56 0.326,0.976 0,0.416 -0.115,0.747 -0.343,0.993 -0.223,0.24 -0.545,0.36 -0.967,0.36 -0.422,0 -0.744,-0.12 -0.967,-0.36 -0.223,-0.241 -0.334,-0.572 -0.334,-0.993 z"
       id="path12"
       inkscape:connector-curvature="0"
       style="fill:#ffffff" />
    <path
       d="m 134.881,205.241 c 0,2.233 -0.36,3.891 -1.081,4.975 -0.715,1.084 -1.811,1.626 -3.287,1.626 -1.43,0 -2.514,-0.56 -3.252,-1.679 -0.739,-1.119 -1.108,-2.76 -1.108,-4.922 0,-2.267 0.358,-3.937 1.073,-5.01 0.72,-1.078 1.816,-1.617 3.287,-1.617 1.435,0 2.522,0.563 3.26,1.688 0.739,1.125 1.108,2.771 1.108,4.939 z m -6.636,0 c 0,1.752 0.179,3.003 0.536,3.753 0.364,0.75 0.941,1.125 1.732,1.125 0.791,0 1.368,-0.381 1.731,-1.142 0.369,-0.762 0.554,-2.007 0.554,-3.736 0,-1.722 -0.185,-2.968 -0.554,-3.735 -0.363,-0.774 -0.94,-1.16 -1.731,-1.16 -0.791,0 -1.368,0.378 -1.732,1.133 -0.357,0.756 -0.536,2.01 -0.536,3.762 z m 11.039,4.535 c -0.281,1.09 -0.797,2.494 -1.547,4.21 h -1.52 c 0.404,-1.582 0.706,-3.052 0.905,-4.412 h 2.03 z m 8.051,1.89 h -2.065 v -8.297 c 0,-0.99 0.023,-1.775 0.07,-2.355 -0.135,0.14 -0.302,0.296 -0.501,0.465 -0.193,0.17 -0.85,0.709 -1.969,1.618 l -1.037,-1.31 3.779,-2.971 h 1.723 z"
       id="path14"
       inkscape:connector-curvature="0"
       style="fill:#ffffff" />
    <path
       d="m 166.071,195.166 c -5.522,0 -10,4.477 -10,10 0,5.522 4.478,10 10,10 5.522,0 10,-4.478 10,-10 0,-5.523 -4.478,-10 -10,-10 z m 2.082,15.498 c -0.515,0.203 -0.925,0.357 -1.232,0.464 -0.307,0.107 -0.663,0.16 -1.069,0.16 -0.623,0 -1.108,-0.152 -1.453,-0.456 -0.345,-0.304 -0.517,-0.689 -0.517,-1.158 0,-0.182 0.012,-0.368 0.038,-0.558 0.026,-0.189 0.067,-0.402 0.124,-0.642 l 0.644,-2.276 c 0.057,-0.218 0.106,-0.425 0.145,-0.618 0.039,-0.195 0.058,-0.374 0.058,-0.536 0,-0.29 -0.06,-0.493 -0.18,-0.607 -0.121,-0.115 -0.348,-0.17 -0.688,-0.17 -0.166,0 -0.337,0.024 -0.512,0.076 -0.174,0.053 -0.324,0.101 -0.448,0.149 l 0.17,-0.701 c 0.422,-0.172 0.826,-0.319 1.211,-0.441 0.385,-0.124 0.749,-0.185 1.092,-0.185 0.619,0 1.096,0.151 1.432,0.449 0.335,0.299 0.503,0.687 0.503,1.165 0,0.099 -0.012,0.273 -0.035,0.522 -0.022,0.25 -0.066,0.478 -0.128,0.687 l -0.641,2.268 c -0.053,0.182 -0.099,0.391 -0.142,0.623 -0.041,0.233 -0.061,0.411 -0.061,0.53 0,0.302 0.067,0.507 0.202,0.617 0.134,0.109 0.368,0.164 0.7,0.164 0.157,0 0.332,-0.028 0.53,-0.082 0.196,-0.054 0.339,-0.103 0.428,-0.144 z m -0.114,-9.209 c -0.299,0.278 -0.659,0.417 -1.079,0.417 -0.42,0 -0.782,-0.139 -1.084,-0.417 -0.3,-0.278 -0.451,-0.615 -0.451,-1.01 0,-0.393 0.152,-0.732 0.451,-1.012 0.302,-0.281 0.664,-0.421 1.084,-0.421 0.42,0 0.781,0.14 1.079,0.421 0.299,0.28 0.449,0.619 0.449,1.012 0,0.396 -0.15,0.732 -0.449,1.01 z"
       id="path16"
       inkscape:connector-curvature="0"
       style="fill:#ffffff" />
  </g>
  <path
     d="M 44.9432,172.522 C 35.6001,158.67 30.1825,142.547 29.2656,125.864 28.3487,109.181 31.9667,92.561 39.7355,77.7688 47.5043,62.9766 59.1339,50.5644 73.3895,41.8499 87.6451,33.1355 103.994,28.4442 120.702,28.2741 c 16.707,-0.1701 33.149,4.1873 47.579,12.6097 14.43,8.4224 26.31,20.5953 34.378,35.2262 8.068,14.6309 12.024,31.174 11.447,47.872 -0.577,16.698 -5.665,32.928 -14.724,46.967 l -6.578,-4.244 c 8.293,-12.851 12.951,-27.708 13.479,-42.993 C 206.811,108.426 203.19,93.2831 195.804,79.89 188.419,66.497 177.544,55.3541 164.335,47.6443 151.126,39.9345 136.075,35.9457 120.781,36.1014 105.488,36.2571 90.5216,40.5515 77.4722,48.5287 64.4228,56.5058 53.7772,67.8679 46.6657,81.4085 39.5541,94.9491 36.2422,110.163 37.0816,125.434 c 0.8393,15.272 5.7985,30.031 14.3511,42.711 z"
     id="path20"
     inkscape:connector-curvature="0"
     style="display:none;fill:#ffffff" />
  <rect
     x="198.007"
     y="44.545399"
     width="3.4265699"
     height="17.1329"
     transform="rotate(45,198.007,44.5454)"
     id="rect28"
     style="display:none;fill:#ffffff" />
  <rect
     width="3.4265699"
     height="17.1329"
     transform="matrix(-0.5,0.866025,0.866026,0.5,199.598,167.045)"
     id="rect30"
     x="0"
     y="0"
     style="display:none;fill:#ffffff" />
  <rect
     width="3.4265699"
     height="17.1329"
     transform="matrix(-0.5292,-0.848497,0.848498,-0.529198,32.7529,179.656)"
     id="rect32"
     x="0"
     y="0"
     style="display:none;fill:#ffffff" />
  <rect
     width="3.4265699"
     height="17.1329"
     transform="matrix(-0.707107,0.707106,0.707107,0.707106,49.5635,47.1154)"
     id="rect34"
     x="0"
     y="0"
     style="display:none;fill:#ffffff" />
  <path
     d="m 72.3699,160.757 c 0,2.221 -0.3516,3.879 -1.0547,4.975 -0.6973,1.095 -1.7666,1.643 -3.208,1.643 -1.3828,0 -2.4346,-0.559 -3.1553,-1.679 -0.7207,-1.125 -1.0811,-2.771 -1.0811,-4.939 0,-2.238 0.3487,-3.899 1.0459,-4.983 0.6973,-1.084 1.7608,-1.626 3.1905,-1.626 1.3945,0 2.4521,0.565 3.1728,1.696 0.7266,1.131 1.0899,2.768 1.0899,4.913 z m -7.0225,0 c 0,1.869 0.2197,3.231 0.6592,4.087 0.4394,0.849 1.1396,1.274 2.1006,1.274 0.9726,0 1.6758,-0.43 2.1094,-1.292 0.4394,-0.867 0.6591,-2.223 0.6591,-4.069 0,-1.846 -0.2197,-3.196 -0.6591,-4.052 -0.4336,-0.861 -1.1368,-1.292 -2.1094,-1.292 -0.961,0 -1.6612,0.425 -2.1006,1.275 -0.4395,0.843 -0.6592,2.2 -0.6592,4.069 z"
     id="path40"
     inkscape:connector-curvature="0"
     style="display:none;fill:#ffffff" />
  <path
     d="M 166.447,167.199 H 158 v -1.256 l 3.384,-3.402 c 1.031,-1.043 1.711,-1.787 2.039,-2.232 0.328,-0.446 0.574,-0.879 0.739,-1.301 0.164,-0.422 0.246,-0.876 0.246,-1.362 0,-0.686 -0.208,-1.228 -0.624,-1.626 -0.416,-0.405 -0.994,-0.607 -1.732,-0.607 -0.533,0 -1.04,0.088 -1.52,0.264 -0.475,0.176 -1.005,0.495 -1.591,0.958 l -0.774,-0.993 c 1.184,-0.985 2.473,-1.477 3.868,-1.477 1.207,0 2.153,0.311 2.838,0.932 0.686,0.615 1.029,1.444 1.029,2.487 0,0.815 -0.229,1.62 -0.686,2.417 -0.457,0.797 -1.312,1.805 -2.566,3.024 l -2.813,2.751 v 0.07 h 6.61 z m 6.715,-6.952 h 3.621 v 1.213 h -3.621 v 3.744 h -1.222 v -3.744 h -3.604 v -1.213 h 3.604 v -3.762 h 1.222 z"
     id="path42"
     inkscape:connector-curvature="0"
     style="display:none;fill:#ffffff" />
  <path
     d="m 78.9988,78.5192 c 0,2.2207 -0.3516,3.8789 -1.0547,4.9746 -0.6972,1.0957 -1.7666,1.6435 -3.208,1.6435 -1.3828,0 -2.4346,-0.5595 -3.1553,-1.6787 -0.7207,-1.125 -1.081,-2.7715 -1.081,-4.9394 0,-2.2383 0.3486,-3.8994 1.0459,-4.9834 0.6972,-1.084 1.7607,-1.626 3.1904,-1.626 1.3945,0 2.4522,0.5654 3.1729,1.6963 0.7265,1.1308 1.0898,2.7685 1.0898,4.9131 z m -7.0225,0 c 0,1.8691 0.2198,3.2314 0.6592,4.0869 0.4395,0.8496 1.1397,1.2744 2.1006,1.2744 0.9727,0 1.6758,-0.4307 2.1094,-1.292 0.4394,-0.8672 0.6592,-2.2236 0.6592,-4.0693 0,-1.8457 -0.2198,-3.1963 -0.6592,-4.0518 -0.4336,-0.8613 -1.1367,-1.292 -2.1094,-1.292 -0.9609,0 -1.6611,0.4248 -2.1006,1.2744 -0.4394,0.8438 -0.6592,2.2002 -0.6592,4.0694 z m 9.2637,5.5107 c 0,-0.3926 0.0879,-0.6885 0.2637,-0.8877 0.1816,-0.2051 0.4394,-0.3076 0.7734,-0.3076 0.3399,0 0.6035,0.1025 0.791,0.3076 0.1934,0.1992 0.2901,0.4951 0.2901,0.8877 0,0.3809 -0.0967,0.6738 -0.2901,0.8789 -0.1933,0.2051 -0.457,0.3076 -0.791,0.3076 -0.2988,0 -0.5478,-0.0908 -0.747,-0.2724 C 81.3367,84.7565 81.24,84.4518 81.24,84.0299 Z m 8.3584,-6.917 c 1.3535,0 2.417,0.3369 3.1904,1.0108 0.7793,0.6679 1.169,1.5849 1.169,2.7509 0,1.3301 -0.4248,2.3731 -1.2744,3.1289 -0.8438,0.7559 -2.0098,1.1338 -3.4981,1.1338 -1.4472,0 -2.5517,-0.2314 -3.3134,-0.6943 v -1.4063 c 0.4101,0.2637 0.9199,0.4717 1.5292,0.6241 0.6094,0.1465 1.21,0.2197 1.8018,0.2197 1.0313,0 1.8311,-0.2432 2.3994,-0.7295 0.5742,-0.4863 0.8613,-1.1895 0.8613,-2.1094 0,-1.7929 -1.0986,-2.6894 -3.2958,-2.6894 -0.5567,0 -1.3008,0.0849 -2.2325,0.2549 l -0.7558,-0.4834 0.4834,-6.0118 h 6.3896 v 1.3448 h -5.1416 l -0.3252,3.8584 c 0.6738,-0.1348 1.3447,-0.2022 2.0127,-0.2022 z"
     id="path44"
     inkscape:connector-curvature="0"
     style="display:none;fill:#ffffff" />
  <path
     d="m 158.266,84.9615 h -1.424 v -9.1582 c 0,-0.7617 0.024,-1.4824 0.071,-2.1621 -0.124,0.1231 -0.261,0.252 -0.414,0.3868 -0.152,0.1347 -0.849,0.706 -2.091,1.7138 l -0.774,-1.0019 3.402,-2.628 h 1.23 z m 9.756,-6.9521 h 3.621 v 1.2129 h -3.621 v 3.7441 H 166.8 v -3.7441 h -3.603 v -1.2129 h 3.603 v -3.7617 h 1.222 z"
     id="path46"
     inkscape:connector-curvature="0"
     style="display:none;fill:#ffffff;filter:url(#filter920)" />
  <defs
     id="defs107">
    <filter
       id="filter0_i"
       x="0"
       y="0"
       width="246"
       height="245"
       filterUnits="userSpaceOnUse"
       color-interpolation-filters="sRGB">
      <feFlood
         flood-opacity="0"
         result="BackgroundImageFix"
         id="feFlood52" />
      <feBlend
         mode="normal"
         in="SourceGraphic"
         in2="BackgroundImageFix"
         result="shape"
         id="feBlend54" />
      <feColorMatrix
         in="SourceAlpha"
         type="matrix"
         values="0 0 0 0 0 0 0 0 0 0 0 0 0 0 0 0 0 0 127 0"
         result="hardAlpha"
         id="feColorMatrix56" />
      <feOffset
         dx="1"
         id="feOffset58" />
      <feGaussianBlur
         stdDeviation="3"
         id="feGaussianBlur60" />
      <feComposite
         in2="hardAlpha"
         operator="arithmetic"
         k2="-1"
         k3="1"
         id="feComposite62" />
      <feColorMatrix
         type="matrix"
         values="0 0 0 0 0.2 0 0 0 0 0.2 0 0 0 0 0.2 0 0 0 0.5 0"
         id="feColorMatrix64" />
      <feBlend
         mode="normal"
         in2="shape"
         result="effect1_innerShadow"
         id="feBlend66" />
    </filter>
    <filter
       id="filter1_d"
       x="78.2373"
       y="116.504"
       width="50.8322"
       height="19.993"
       filterUnits="userSpaceOnUse"
       color-interpolation-filters="sRGB">
      <feFlood
         flood-opacity="0"
         result="BackgroundImageFix"
         id="feFlood69" />
      <feColorMatrix
         in="SourceAlpha"
         type="matrix"
         values="0 0 0 0 0 0 0 0 0 0 0 0 0 0 0 0 0 0 127 0"
         id="feColorMatrix71" />
      <feOffset
         dy="4"
         id="feOffset73" />
      <feGaussianBlur
         stdDeviation="2"
         id="feGaussianBlur75" />
      <feColorMatrix
         type="matrix"
         values="0 0 0 0 0 0 0 0 0 0 0 0 0 0 0 0 0 0 0.25 0"
         id="feColorMatrix77" />
      <feBlend
         mode="normal"
         in2="BackgroundImageFix"
         result="effect1_dropShadow"
         id="feBlend79" />
      <feBlend
         mode="normal"
         in="SourceGraphic"
         in2="effect1_dropShadow"
         result="shape"
         id="feBlend81" />
    </filter>
    <filter
       id="filter2_d"
       x="109.934"
       y="113.934"
       width="25.1329"
       height="25.1329"
       filterUnits="userSpaceOnUse"
       color-interpolation-filters="sRGB">
      <feFlood
         flood-opacity="0"
         result="BackgroundImageFix"
         id="feFlood84" />
      <feColorMatrix
         in="SourceAlpha"
         type="matrix"
         values="0 0 0 0 0 0 0 0 0 0 0 0 0 0 0 0 0 0 127 0"
         id="feColorMatrix86" />
      <feOffset
         dy="4"
         id="feOffset88" />
      <feGaussianBlur
         stdDeviation="2"
         id="feGaussianBlur90" />
      <feColorMatrix
         type="matrix"
         values="0 0 0 0 0 0 0 0 0 0 0 0 0 0 0 0 0 0 0.25 0"
         id="feColorMatrix92" />
      <feBlend
         mode="normal"
         in2="BackgroundImageFix"
         result="effect1_dropShadow"
         id="feBlend94" />
      <feBlend
         mode="normal"
         in="SourceGraphic"
         in2="effect1_dropShadow"
         result="shape"
         id="feBlend96" />
    </filter>
    <linearGradient
       id="paint0_linear"
       x1="245"
       y1="-1.46031e-05"
       x2="1.46031e-05"
       y2="245"
       gradientUnits="userSpaceOnUse">
      <stop
         stop-color="#FFDF07"
         id="stop99" />
      <stop
         offset="1"
         stop-color="#969300"
         id="stop101" />
    </linearGradient>
    <clipPath
       id="clip0">
      <rect
         width="108"
         height="21.4161"
         fill="white"
         transform="translate(68.0713 194.458)"
         id="rect104" />
    </clipPath>
    <filter
       inkscape:collect="always"
       style="color-interpolation-filters:sRGB"
       id="filter920">
      <feBlend
         inkscape:collect="always"
         mode="multiply"
         in2="BackgroundImage"
         id="feBlend922" />
    </filter>
  </defs>
  <circle
     style="opacity:1;fill:#ffffff;fill-opacity:1;stroke:none;stroke-width:0.13507138;stroke-linecap:round;stroke-linejoin:round;stroke-miterlimit:4;stroke-dasharray:none;stroke-dashoffset:0;stroke-opacity:1"
     id="path2016"
     cx="122.54633"
     cy="122.46759"
     r="8.5335922" />
</svg>
