<svg width="20" height="20" viewBox="0 0 20 20" fill="none" xmlns="http://www.w3.org/2000/svg">
<path fill-rule="evenodd" clip-rule="evenodd" d="M16.2375 9.11877C16.2375 13.0504 13.0504 16.2375 9.11877 16.2375C5.18718 16.2375 2 13.0504 2 9.11877C2 5.18718 5.18718 2 9.11877 2C13.0504 2 16.2375 5.18718 16.2375 9.11877ZM14.8405 16.2195C13.2759 17.4818 11.2856 18.2375 9.11877 18.2375C4.08261 18.2375 0 14.1549 0 9.11877C0 4.08261 4.08261 0 9.11877 0C14.1549 0 18.2375 4.08261 18.2375 9.11877C18.2375 11.2856 17.4818 13.2759 16.2195 14.8404C16.2347 14.8539 16.2496 14.8679 16.2642 14.8824L19.7139 18.3322C20.0954 18.7137 20.0954 19.3323 19.7139 19.7139C19.3323 20.0954 18.7137 20.0954 18.3322 19.7139L14.8825 16.2641C14.8679 16.2496 14.8539 16.2347 14.8405 16.2195Z" fill="#333333"/>
</svg>
