<svg width="16" height="16" viewBox="0 0 16 16" fill="none" xmlns="http://www.w3.org/2000/svg">
<path fill-rule="evenodd" clip-rule="evenodd" d="M11.7842 10.2632C13.5871 7.73267 13.3465 4.18945 11.0673 1.91025C8.52788 -0.629158 4.41941 -0.637838 1.89077 1.89086C-0.637865 4.41956 -0.629121 8.52807 1.9103 11.0675C4.18952 13.3467 7.73272 13.5872 10.2632 11.7843C10.2823 11.8068 10.3025 11.8287 10.3238 11.85L14.1554 15.6816C14.5787 16.1049 15.2634 16.1063 15.6849 15.6849C16.1063 15.2634 16.1049 14.5787 15.6816 14.1554L11.8499 10.3238C11.8287 10.3025 11.8067 10.2823 11.7842 10.2632ZM9.54114 3.43645C11.2341 5.12939 11.2399 7.86839 9.55416 9.55419C7.8684 11.24 5.12942 11.2342 3.43647 9.54127C1.74352 7.84833 1.73769 5.10932 3.42345 3.42353C5.10921 1.73773 7.84819 1.74351 9.54114 3.43645Z" fill="#707274"/>
</svg>
