<svg width="100" height="19" viewBox="0 0 100 19" fill="none" xmlns="http://www.w3.org/2000/svg">
<g clip-path="url(#clip0)">
<path d="M27.7905 14.3399C26.3604 14.3399 25.1738 13.885 24.3218 13.0057C23.4699 12.1566 23.0135 10.9436 23.0135 9.51844C23.0135 8.21452 23.5003 7.00157 24.3523 6.12218C25.2346 5.21247 26.4821 4.72729 27.8513 4.72729C29.4944 4.72729 30.9244 5.42474 31.6242 6.51639C31.6851 6.57704 31.6547 6.69833 31.5938 6.75898L30.255 7.97193C30.1637 8.03258 30.042 8.03258 29.9812 7.9416C29.5248 7.36545 28.7337 7.00157 27.973 7.00157C26.4213 7.00157 25.4476 8.00225 25.4476 9.51844C25.4476 11.0043 26.4821 12.0353 27.9426 12.0353C28.8858 12.0353 29.6769 11.6411 30.2855 10.9133C30.3463 10.8224 30.4984 10.8224 30.5593 10.9133L31.7459 12.1869C31.8068 12.2476 31.8068 12.3385 31.7764 12.3992C30.9244 13.6121 29.4335 14.3399 27.7905 14.3399Z" fill="#43474F"/>
<path d="M33.1456 13.9151V5.15158C33.1456 4.99996 33.2673 4.87866 33.4194 4.87866H39.3222C39.4743 4.87866 39.596 4.99996 39.596 5.15158V6.8497C39.596 7.00132 39.4743 7.12261 39.3222 7.12261H35.5797V13.9454C35.5797 14.0971 35.458 14.2184 35.3059 14.2184H33.4194C33.2673 14.188 33.1456 14.0667 33.1456 13.9151Z" fill="#43474F"/>
<path d="M10.9949 0.239254C5.51814 0.390873 3.14486 5.57622 4.24022 9.18474C4.24022 9.21506 4.3315 9.24539 4.3315 9.18474C5.12259 6.5769 6.97862 4.84845 9.10848 4.18133C13.7029 2.75612 17.5671 5.4246 18.6624 9.21506C18.845 9.88218 18.8754 10.6403 18.9059 11.3074C18.9059 11.3984 19.0276 11.3984 19.058 11.3074C20.2751 6.39496 16.4413 0.0876361 10.9949 0.239254Z" fill="#EF4056"/>
<path d="M1.25843 12.9145C4.14896 17.5843 9.83874 17.0385 12.425 14.2791C12.425 14.2487 12.425 14.1578 12.3946 14.1881C9.71704 14.8249 7.2829 14.1274 5.67029 12.6113C2.11037 9.3363 2.50592 4.63613 5.24432 1.81603C5.73114 1.30053 6.3701 0.936645 6.94821 0.572761C7.03949 0.512114 6.97864 0.421143 6.88736 0.421143C1.98867 1.84636 -1.57125 8.3053 1.25843 12.9145Z" fill="#0078A8"/>
<path d="M17.1411 14.9766C19.7578 10.1551 16.4413 5.51557 12.7293 4.6665C12.6988 4.6665 12.638 4.69683 12.6684 4.75747C14.5549 6.72851 15.1634 9.18473 14.6766 11.368C13.6116 16.0379 9.35191 18.0696 5.54858 17.0992C4.8792 16.9173 4.20981 16.5837 3.63171 16.2501C3.54043 16.2198 3.47957 16.3108 3.54043 16.3714C7.1612 19.9193 14.5549 19.7374 17.1411 14.9766Z" fill="#FFD530"/>
<path d="M40.9043 4.87866H42.8212C42.9733 4.87866 43.0646 4.99996 43.0646 5.12125V8.27491C43.0646 8.39621 43.2168 8.45686 43.308 8.36588L46.1986 4.96963C46.2594 4.90899 46.3203 4.87866 46.3811 4.87866H48.6631C48.8761 4.87866 48.9674 5.0606 48.8153 5.24255L45.4988 9.03301H45.8334C45.9247 9.03301 45.9856 9.06333 46.0464 9.1543L49.0891 13.7938C49.2108 13.9454 49.2412 14.188 48.9674 14.188H46.5028C46.4115 14.188 46.3203 14.1274 46.2898 14.0667L44.16 10.8221C44.1296 10.7615 44.0383 10.7615 43.9774 10.7918L43.1559 11.7318C43.1255 11.7925 43.0951 11.8228 43.0951 11.9138V13.9454C43.0951 14.0971 42.9733 14.188 42.8516 14.188H40.9348C40.7826 14.188 40.6913 14.0667 40.6913 13.9454V5.15158C40.6609 4.99996 40.7522 4.87866 40.9043 4.87866Z" fill="#43474F"/>
</g>
<defs>
<clipPath id="clip0">
<rect width="48.8956" height="18.5884" fill="white" transform="translate(0.254364 0.239258)"/>
</clipPath>
</defs>
</svg>
