<svg width="165" height="52" viewBox="0 0 165 52" fill="none" xmlns="http://www.w3.org/2000/svg" aria-hidden="true">
  <path fill-rule="evenodd" clip-rule="evenodd" d="M2.776 35.346c7.888 13.017 23.444 11.518 30.52 3.773.04-.043.04-.306-.114-.268-7.32 1.812-13.949-.203-18.43-4.407C5.106 25.391 6.13 12.3 13.613 4.401c1.323-1.397 3.07-2.488 4.653-3.473.21-.13.059-.453-.177-.385C4.708 4.456-5.013 22.494 2.776 35.346z" fill="#0078A8"></path>
  <mask id="logo-a" maskUnits="userSpaceOnUse" x="0" y="0" width="34" height="46">
    <path fill-rule="evenodd" clip-rule="evenodd" d="M2.776 35.346c7.888 13.017 23.444 11.518 30.52 3.773.04-.043.04-.306-.114-.268-7.32 1.812-13.949-.203-18.43-4.407C5.106 25.391 6.13 12.3 13.613 4.401c1.323-1.397 3.07-2.488 4.653-3.473.21-.13.059-.453-.177-.385C4.708 4.456-5.013 22.494 2.776 35.346z" fill="#fff"></path>
  </mask>
  <path fill-rule="evenodd" clip-rule="evenodd" d="M29.413.008c-15.026.441-21.527 14.893-18.472 25 .016.055.241.187.285.032 2.118-7.353 7.147-12.185 12.967-14.03 12.532-3.974 23.166 3.477 26.15 14.016.527 1.866.583 3.947.629 5.835.007.25.357.279.416.037C54.747 17.155 44.25-.427 29.413.008z" fill="#EF4056"></path>
  <mask id="logo-b" maskUnits="userSpaceOnUse" x="10" y="0" width="43" height="32">
    <path fill-rule="evenodd" clip-rule="evenodd" d="M29.413.008c-15.026.441-21.527 14.893-18.472 25 .016.055.241.187.285.032 2.118-7.353 7.147-12.185 12.967-14.03 12.532-3.974 23.166 3.477 26.15 14.016.527 1.866.583 3.947.629 5.835.007.25.357.279.416.037C54.747 17.155 44.25-.427 29.413.008z" fill="#fff"></path>
  </mask>
  <path fill-rule="evenodd" clip-rule="evenodd" d="M46.173 41.184c7.138-13.458-1.915-26.412-12.048-28.773-.056-.013-.28.12-.17.236 5.202 5.54 6.801 12.388 5.462 18.437-2.883 13.027-14.543 18.668-25.008 16.027-1.852-.467-3.652-1.46-5.283-2.362-.215-.12-.416.174-.24.347 10.022 9.831 30.24 9.375 37.287-3.912z" fill="#FFD530"></path>
  <mask id="logo-c" maskUnits="userSpaceOnUse" x="8" y="12" width="41" height="40">
    <path fill-rule="evenodd" clip-rule="evenodd" d="M46.173 41.184c7.138-13.458-1.915-26.412-12.048-28.773-.056-.013-.28.12-.17.236 5.202 5.54 6.801 12.388 5.462 18.437-2.883 13.027-14.543 18.668-25.008 16.027-1.852-.467-3.652-1.46-5.283-2.362-.215-.12-.416.174-.24.347 10.022 9.831 30.24 9.375 37.287-3.912z" fill="#fff"></path>
  </mask>
  <path class="logo-full__text" fill-rule="evenodd" clip-rule="evenodd" d="M62.15 14.099c0-2.301 1.742-4.107 4.093-4.107 1.484 0 2.443.613 3.124 1.486.078.1.057.247-.043.325l-1.224.965a.228.228 0 01-.313-.034c-.413-.464-.9-.745-1.567-.745-1.086 0-1.851.936-1.851 2.11 0 1.184.765 2.11 1.851 2.11.732 0 1.192-.314 1.617-.8a.229.229 0 01.306-.037l1.257.911c.105.076.13.228.05.33-.717.928-1.685 1.591-3.297 1.591-2.218 0-4.003-1.725-4.003-4.105zm13.241-.159l-2.907 3.013v.89a.2.2 0 01-.199.204h-1.552c-.11 0-.2-.09-.2-.203v-7.276a.2.2 0 01.2-.203h1.552a.2.2 0 01.2.203v3.948l2.906-3v-.948a.2.2 0 01.2-.203h1.551c.111 0 .2.09.2.203v7.276c0 .113-.089.203-.2.203H75.59a.2.2 0 01-.199-.203l.001-3.904zm8.881-3.372a.2.2 0 00-.2-.204h-4.669a.2.2 0 00-.199.204v7.276a.2.2 0 00.2.203h2.66c.568 0 1.176-.102 1.677-.372.642-.339 1.118-.97 1.118-1.997 0-1.117-.487-1.704-1.118-2.009-.6-.292-1.32-.326-1.864-.326h-.721v-1.219h2.916a.2.2 0 00.2-.203v-1.353zm7.019 3.373l-2.906 3.012v.89a.2.2 0 01-.2.204h-1.553a.2.2 0 01-.198-.203v-7.276a.2.2 0 01.2-.203h1.551a.2.2 0 01.2.203v3.948l2.906-3v-.948a.2.2 0 01.2-.203h1.552c.11 0 .2.09.2.203v7.276c0 .113-.09.203-.2.203H91.49a.2.2 0 01-.2-.203V13.94zm9.081-2.978c-.554-.474-1.22-.598-1.84-.598h-3.229c-.11 0-.2.09-.2.203v7.276c0 .112.09.203.2.203h1.552c.111 0 .201-.09.201-.203v-1.951h1.53c.588 0 1.175-.113 1.708-.542.621-.485 1.021-1.275 1.021-2.222 0-.914-.367-1.681-.943-2.166zm1.951 3.136c0-2.301 1.741-4.107 4.092-4.107 1.484 0 2.443.613 3.124 1.486.078.1.057.247-.044.325l-1.222.965a.228.228 0 01-.313-.034c-.413-.464-.902-.745-1.568-.745-1.086 0-1.851.936-1.851 2.11-.001 1.184.765 2.11 1.851 2.11.732 0 1.191-.314 1.616-.8.08-.089.21-.106.306-.037l1.258.911a.235.235 0 01.05.33c-.718.928-1.686 1.591-3.296 1.591-2.218 0-4.004-1.725-4.003-4.105zm17.277 3.948c.177 0 .288-.068.333-.226l.343-1.162h2.318l.333 1.162c.044.158.155.226.333.226h1.575c.133 0 .177-.068.177-.158 0-.038-.008-.068-.017-.103l-.005-.021-2.384-7.231c-.045-.147-.144-.203-.311-.203h-1.642c-.166 0-.266.056-.31.203l-2.429 7.23-.006.022c-.008.035-.016.065-.016.103 0 .09.044.158.178.158h1.53zm6.32-5.11c0-.813.311-1.569.876-2.02.499-.394 1.197-.553 1.941-.553h3.36a.2.2 0 01.2.204v7.276a.2.2 0 01-.2.203h-1.553a.2.2 0 01-.2-.203v-2.302h-1.187l-1.185 2.302c-.09.169-.201.203-.377.203h-1.709c-.111 0-.178-.056-.178-.157a.43.43 0 01.067-.204l1.431-2.527a2.412 2.412 0 01-.454-.327c-.6-.542-.832-1.218-.832-1.895zM62.438 29.574a.2.2 0 00.2.203h1.552a.2.2 0 00.2-.203v-5.72h2.917a.2.2 0 00.2-.203v-1.353a.2.2 0 00-.2-.203h-4.67a.2.2 0 00-.199.203v7.276zm12.143-7.48a.2.2 0 01.2.203v1.354a.2.2 0 01-.2.203H70.9v1.173h3.093c.111 0 .2.091.2.203l-.001 1.355a.2.2 0 01-.2.202H70.9v1.23h3.68c.111 0 .2.09.2.203v1.354a.2.2 0 01-.2.202h-5.434a.2.2 0 01-.2-.202l.001-7.277a.2.2 0 01.2-.203h5.434zm8.57.203a.2.2 0 00-.198-.203H81.4a.2.2 0 00-.199.203v2.73h-2.885v-2.73a.2.2 0 00-.198-.203h-1.553a.2.2 0 00-.2.203v7.277a.2.2 0 00.2.202h1.552a.2.2 0 00.199-.202v-2.787H81.2v2.787a.2.2 0 00.2.202h1.553a.2.2 0 00.198-.202v-7.277zm7.497-.203a.2.2 0 01.2.203v1.354a.2.2 0 01-.2.203h-3.682v1.173h3.094c.11 0 .2.091.2.203v1.355a.2.2 0 01-.2.202h-3.094v1.23h3.682c.11 0 .199.09.199.203v1.354a.2.2 0 01-.2.202h-5.434a.2.2 0 01-.2-.202v-7.277a.2.2 0 01.2-.203h5.435zm7.052.598c-.554-.474-1.22-.598-1.841-.598H92.63c-.11 0-.2.09-.2.203v7.277c0 .112.09.202.2.202h1.552c.111 0 .2-.09.2-.202v-1.952h1.53c.588 0 1.176-.113 1.708-.541.622-.485 1.021-1.275 1.021-2.223 0-.913-.366-1.68-.942-2.166zm7.318 2.978l-2.906 3.012v.891a.2.2 0 01-.2.204h-1.553a.2.2 0 01-.199-.204v-7.275a.2.2 0 01.2-.204h1.552a.2.2 0 01.2.204v3.948l2.906-3v-.948a.2.2 0 01.199-.204h1.552c.112 0 .201.09.201.204v7.275a.201.201 0 01-.201.204h-1.553a.2.2 0 01-.199-.204l.001-3.903zm9.081-2.978c-.554-.474-1.22-.598-1.841-.598h-3.227a.2.2 0 00-.2.203v7.277a.2.2 0 00.2.202h1.551a.2.2 0 00.2-.202v-1.952h1.531c.588 0 1.175-.113 1.708-.541.621-.485 1.021-1.275 1.021-2.223 0-.913-.367-1.68-.943-2.166zm3.181 5.381c.332 0 .588-.022.81-.113.177-.067.322-.169.465-.315l-2.661-5.269c-.055-.113-.044-.282.155-.282h1.742c.177 0 .277.102.333.226l1.43 3.294 1.231-3.294c.056-.135.155-.226.333-.226h1.652c.199 0 .212.17.156.282l-2.153 5.077c-.277.654-.609 1.128-.997 1.489-.666.62-1.476.835-2.274.835h-.688a.2.2 0 01-.199-.204v-1.296a.2.2 0 01.199-.204h.466zm10.179-1.285c.389 1.895 2.086 3.09 4.015 3.09 2.185 0 4.082-1.523 4.082-3.937 0-2.403-1.896-3.96-4.082-3.96-1.907 0-3.582 1.174-4.003 3.047h-1.399v-2.73a.2.2 0 00-.198-.204h-1.553c-.111 0-.2.091-.2.204v7.276a.2.2 0 00.2.203h1.552a.2.2 0 00.199-.203v-2.786h1.387zm9.657 2.786v-7.277c0-.112.089-.203.2-.203h1.553c.111 0 .2.091.2.203v5.72h2.373l.001-5.72a.2.2 0 01.198-.203h1.553a.2.2 0 01.2.203l-.001 5.72h2.375v-5.72a.2.2 0 01.2-.203h1.551a.2.2 0 01.2.203v5.72h1.709a.2.2 0 01.198.203v3.091a.2.2 0 01-.198.203h-1.553a.2.2 0 01-.2-.203v-1.534h-10.359a.2.2 0 01-.2-.203zm14.871.202c.177 0 .287-.067.332-.225l.344-1.162h2.318l.332 1.162c.045.158.156.225.333.225h1.576c.131 0 .176-.067.176-.157a.354.354 0 00-.014-.093l-.004-.018-.003-.013-2.384-7.231c-.045-.147-.145-.204-.311-.204h-1.642c-.166 0-.266.057-.31.204l-2.431 7.23-.006.028a.383.383 0 00-.014.097c0 .09.044.157.177.157h1.531zm6.319-5.11c0-.812.311-1.568.876-2.02.5-.393 1.198-.552 1.941-.552h3.361a.2.2 0 01.199.203v7.277a.2.2 0 01-.199.202h-1.553a.2.2 0 01-.2-.202v-2.302h-1.187l-1.186 2.302c-.089.169-.2.202-.377.202h-1.709c-.11 0-.177-.055-.177-.157 0-.057.022-.125.067-.203l1.43-2.527a2.411 2.411 0 01-.454-.327 2.478 2.478 0 01-.832-1.895zM69.612 37.684c0 2.38 1.897 3.937 4.092 3.937 2.184 0 4.08-1.523 4.082-3.937 0-2.403-1.898-3.96-4.082-3.96-2.195 0-4.092 1.557-4.092 3.96zm17.664 3.621a.2.2 0 01-.2.204h-1.485a.2.2 0 01-.2-.204v-4.027l-1.165 2.2c-.078.135-.144.203-.311.203h-1.142c-.165 0-.233-.068-.31-.203l-1.23-2.2-.001 4.027a.2.2 0 01-.2.204h-1.486a.2.2 0 01-.2-.204v-7.276c0-.112.09-.203.2-.203h1.564c.156 0 .255.022.356.203l1.84 3.362 1.84-3.362c.101-.18.2-.203.356-.203h1.575a.2.2 0 01.2.203v7.276zm6.52 0a.2.2 0 00.199.203h1.552a.2.2 0 00.2-.203v-7.276a.2.2 0 00-.2-.203h-6.21a.2.2 0 00-.198.203l-.001 7.276a.2.2 0 00.2.203h1.552a.2.2 0 00.199-.203v-5.72h2.707v5.72zm5.177-.022c-.044.157-.155.225-.332.225h-1.53c-.134 0-.178-.068-.178-.158 0-.037.007-.066.016-.1l.005-.024 2.43-7.23c.044-.148.144-.204.31-.204h1.642c.166 0 .266.056.312.203l2.383 7.231.005.023a.377.377 0 01.016.101c0 .09-.044.158-.176.158H102.3c-.177 0-.288-.068-.332-.225l-.333-1.163h-2.318l-.344 1.163zm13.052-7.254a.2.2 0 00-.199-.203h-1.553a.2.2 0 00-.199.203v2.73h-2.885v-2.73a.2.2 0 00-.199-.203h-1.552a.2.2 0 00-.199.203v7.276c0 .113.087.203.198.203h1.553a.2.2 0 00.199-.203v-2.786h2.884v2.786a.2.2 0 00.2.203h1.553a.2.2 0 00.199-.203v-7.276zm6.719 3.373l-2.905 3.012v.89a.2.2 0 01-.2.204h-1.553a.2.2 0 01-.198-.203v-7.276a.2.2 0 01.199-.203h1.552a.2.2 0 01.2.203v3.948l2.905-3v-.948a.2.2 0 01.2-.203h1.552c.111 0 .201.09.201.203v7.276c0 .113-.09.203-.201.203h-1.553a.2.2 0 01-.199-.203V37.4zm4.413-3.024c-.567.452-.877 1.208-.877 2.02 0 .677.233 1.354.832 1.895.144.136.299.237.455.328l-1.431 2.527a.437.437 0 00-.068.203c0 .101.068.157.178.157h1.71c.175 0 .287-.034.376-.203l1.186-2.301h1.187v2.301a.2.2 0 00.199.203h1.553a.2.2 0 00.2-.203v-7.276a.2.2 0 00-.2-.203h-3.36c-.743 0-1.442.158-1.94.552zm-12.471-24.015h1.543c.112 0 .204.093.204.207v2.606a.11.11 0 00.194.073l2.346-2.812a.202.202 0 01.155-.074h1.85c.175 0 .242.158.115.308l-2.683 3.118.276-.002c.069 0 .134.036.172.095l2.456 3.847c.088.139.131.32-.091.32h-2.009a.201.201 0 01-.174-.1l-1.733-2.691a.092.092 0 00-.149-.014l-.673.777a.206.206 0 00-.052.138v1.683a.206.206 0 01-.204.207h-1.543a.205.205 0 01-.203-.207V10.57c0-.114.091-.207.203-.207zM64.184 33.816H62.64a.205.205 0 00-.203.207v7.272c0 .114.09.207.203.207h1.543a.205.205 0 00.203-.207v-1.683c0-.051.019-.1.053-.138l.672-.777a.093.093 0 01.15.014l1.733 2.69a.2.2 0 00.174.101h2.009c.222 0 .18-.182.09-.32l-2.456-3.847a.205.205 0 00-.171-.095l-.277.002 2.684-3.118c.127-.15.06-.308-.115-.308h-1.851a.202.202 0 00-.154.074l-2.346 2.812a.11.11 0 01-.195-.072v-2.607a.205.205 0 00-.203-.207zm18.258-18.77a2.045 2.045 0 00-.721-.113h-.566v1.5h.722c.254 0 .498-.033.676-.134.189-.114.31-.305.31-.62 0-.294-.121-.509-.421-.633zm15.845-2.944c.232 0 .466.045.654.17.233.146.389.416.389.857 0 .45-.156.722-.4.868-.177.113-.41.158-.644.158h-1.23v-2.053h1.231zm23.165.631l-.699 2.336h1.375l-.676-2.336zm6.764-.496c.177-.135.421-.191.655-.191h1.474v1.827h-1.453c-.233 0-.466-.056-.642-.17-.211-.146-.345-.394-.345-.743 0-.339.111-.576.311-.723zM96.268 24.001c-.187-.124-.421-.17-.653-.17h-1.231v2.053h1.23c.233 0 .467-.044.644-.158.243-.145.399-.416.399-.868 0-.44-.156-.71-.389-.857zm15.746-.17c.233 0 .466.046.654.17.234.147.389.417.389.857 0 .452-.155.723-.4.868-.177.114-.41.158-.643.158h-1.231v-2.053h1.231zm19.46.012c-1.175 0-2.019.88-2.019 2.098 0 1.219.844 2.087 2.019 2.087 1.176 0 2.008-.868 2.008-2.087 0-1.218-.832-2.098-2.008-2.098zm21.665 2.956l.7-2.336.675 2.336h-1.375zm8.118-3.023c-.233 0-.477.055-.655.191-.199.147-.311.384-.311.722 0 .35.134.598.345.744.177.114.409.17.642.17h1.454v-1.828h-1.475zM71.686 37.683c0-1.218.842-2.099 2.018-2.099 1.176 0 2.007.88 2.007 2.099 0 1.218-.832 2.087-2.007 2.087-1.176 0-2.018-.869-2.018-2.087zm28.807-1.49l-.7 2.336h1.376l-.676-2.335zm24.084-.495c.177-.136.42-.192.654-.192h1.474v1.827h-1.453c-.232 0-.465-.056-.642-.169-.211-.147-.344-.395-.344-.744 0-.339.11-.576.311-.722z" fill="#fff"></path>
  <mask id="logo-d" maskUnits="userSpaceOnUse" x="62" y="9" width="103" height="33">
    <path fill-rule="evenodd" clip-rule="evenodd" d="M62.15 14.099c0-2.301 1.742-4.107 4.093-4.107 1.484 0 2.443.613 3.124 1.486.078.1.057.247-.043.325l-1.224.965a.228.228 0 01-.313-.034c-.413-.464-.9-.745-1.567-.745-1.086 0-1.851.936-1.851 2.11 0 1.184.765 2.11 1.851 2.11.732 0 1.192-.314 1.617-.8a.229.229 0 01.306-.037l1.257.911c.105.076.13.228.05.33-.717.928-1.685 1.591-3.297 1.591-2.218 0-4.003-1.725-4.003-4.105zm13.241-.159l-2.907 3.013v.89a.2.2 0 01-.199.204h-1.552c-.11 0-.2-.09-.2-.203v-7.276a.2.2 0 01.2-.203h1.552a.2.2 0 01.2.203v3.948l2.906-3v-.948a.2.2 0 01.2-.203h1.551c.111 0 .2.09.2.203v7.276c0 .113-.089.203-.2.203H75.59a.2.2 0 01-.199-.203l.001-3.904zm8.881-3.372a.2.2 0 00-.2-.204h-4.669a.2.2 0 00-.199.204v7.276a.2.2 0 00.2.203h2.66c.568 0 1.176-.102 1.677-.372.642-.339 1.118-.97 1.118-1.997 0-1.117-.487-1.704-1.118-2.009-.6-.292-1.32-.326-1.864-.326h-.721v-1.219h2.916a.2.2 0 00.2-.203v-1.353zm7.019 3.373l-2.906 3.012v.89a.2.2 0 01-.2.204h-1.553a.2.2 0 01-.198-.203v-7.276a.2.2 0 01.2-.203h1.551a.2.2 0 01.2.203v3.948l2.906-3v-.948a.2.2 0 01.2-.203h1.552c.11 0 .2.09.2.203v7.276c0 .113-.09.203-.2.203H91.49a.2.2 0 01-.2-.203V13.94zm9.081-2.978c-.554-.474-1.22-.598-1.84-.598h-3.229c-.11 0-.2.09-.2.203v7.276c0 .112.09.203.2.203h1.552c.111 0 .201-.09.201-.203v-1.951h1.53c.588 0 1.175-.113 1.708-.542.621-.485 1.021-1.275 1.021-2.222 0-.914-.367-1.681-.943-2.166zm1.951 3.136c0-2.301 1.741-4.107 4.092-4.107 1.484 0 2.443.613 3.124 1.486.078.1.057.247-.044.325l-1.222.965a.228.228 0 01-.313-.034c-.413-.464-.902-.745-1.568-.745-1.086 0-1.851.936-1.851 2.11-.001 1.184.765 2.11 1.851 2.11.732 0 1.191-.314 1.616-.8.08-.089.21-.106.306-.037l1.258.911a.235.235 0 01.05.33c-.718.928-1.686 1.591-3.296 1.591-2.218 0-4.004-1.725-4.003-4.105zm17.277 3.948c.177 0 .288-.068.333-.226l.343-1.162h2.318l.333 1.162c.044.158.155.226.333.226h1.575c.133 0 .177-.068.177-.158 0-.038-.008-.068-.017-.103l-.005-.021-2.384-7.231c-.045-.147-.144-.203-.311-.203h-1.642c-.166 0-.266.056-.31.203l-2.429 7.23-.006.022c-.008.035-.016.065-.016.103 0 .09.044.158.178.158h1.53zm6.32-5.11c0-.813.311-1.569.876-2.02.499-.394 1.197-.553 1.941-.553h3.36a.2.2 0 01.2.204v7.276a.2.2 0 01-.2.203h-1.553a.2.2 0 01-.2-.203v-2.302h-1.187l-1.185 2.302c-.09.169-.201.203-.377.203h-1.709c-.111 0-.178-.056-.178-.157a.43.43 0 01.067-.204l1.431-2.527a2.412 2.412 0 01-.454-.327c-.6-.542-.832-1.218-.832-1.895zM62.438 29.574a.2.2 0 00.2.203h1.552a.2.2 0 00.2-.203v-5.72h2.917a.2.2 0 00.2-.203v-1.353a.2.2 0 00-.2-.203h-4.67a.2.2 0 00-.199.203v7.276zm12.143-7.48a.2.2 0 01.2.203v1.354a.2.2 0 01-.2.203H70.9v1.173h3.093c.111 0 .2.091.2.203l-.001 1.355a.2.2 0 01-.2.202H70.9v1.23h3.68c.111 0 .2.09.2.203v1.354a.2.2 0 01-.2.202h-5.434a.2.2 0 01-.2-.202l.001-7.277a.2.2 0 01.2-.203h5.434zm8.57.203a.2.2 0 00-.198-.203H81.4a.2.2 0 00-.199.203v2.73h-2.885v-2.73a.2.2 0 00-.198-.203h-1.553a.2.2 0 00-.2.203v7.277a.2.2 0 00.2.202h1.552a.2.2 0 00.199-.202v-2.787H81.2v2.787a.2.2 0 00.2.202h1.553a.2.2 0 00.198-.202v-7.277zm7.497-.203a.2.2 0 01.2.203v1.354a.2.2 0 01-.2.203h-3.682v1.173h3.094c.11 0 .2.091.2.203v1.355a.2.2 0 01-.2.202h-3.094v1.23h3.682c.11 0 .199.09.199.203v1.354a.2.2 0 01-.2.202h-5.434a.2.2 0 01-.2-.202v-7.277a.2.2 0 01.2-.203h5.435zm7.052.598c-.554-.474-1.22-.598-1.841-.598H92.63c-.11 0-.2.09-.2.203v7.277c0 .112.09.202.2.202h1.552c.111 0 .2-.09.2-.202v-1.952h1.53c.588 0 1.176-.113 1.708-.541.622-.485 1.021-1.275 1.021-2.223 0-.913-.366-1.68-.942-2.166zm7.318 2.978l-2.906 3.012v.891a.2.2 0 01-.2.204h-1.553a.2.2 0 01-.199-.204v-7.275a.2.2 0 01.2-.204h1.552a.2.2 0 01.2.204v3.948l2.906-3v-.948a.2.2 0 01.199-.204h1.552c.112 0 .201.09.201.204v7.275a.201.201 0 01-.201.204h-1.553a.2.2 0 01-.199-.204l.001-3.903zm9.081-2.978c-.554-.474-1.22-.598-1.841-.598h-3.227a.2.2 0 00-.2.203v7.277a.2.2 0 00.2.202h1.551a.2.2 0 00.2-.202v-1.952h1.531c.588 0 1.175-.113 1.708-.541.621-.485 1.021-1.275 1.021-2.223 0-.913-.367-1.68-.943-2.166zm3.181 5.381c.332 0 .588-.022.81-.113.177-.067.322-.169.465-.315l-2.661-5.269c-.055-.113-.044-.282.155-.282h1.742c.177 0 .277.102.333.226l1.43 3.294 1.231-3.294c.056-.135.155-.226.333-.226h1.652c.199 0 .212.17.156.282l-2.153 5.077c-.277.654-.609 1.128-.997 1.489-.666.62-1.476.835-2.274.835h-.688a.2.2 0 01-.199-.204v-1.296a.2.2 0 01.199-.204h.466zm10.179-1.285c.389 1.895 2.086 3.09 4.015 3.09 2.185 0 4.082-1.523 4.082-3.937 0-2.403-1.896-3.96-4.082-3.96-1.907 0-3.582 1.174-4.003 3.047h-1.399v-2.73a.2.2 0 00-.198-.204h-1.553c-.111 0-.2.091-.2.204v7.276a.2.2 0 00.2.203h1.552a.2.2 0 00.199-.203v-2.786h1.387zm9.657 2.786v-7.277c0-.112.089-.203.2-.203h1.553c.111 0 .2.091.2.203v5.72h2.373l.001-5.72a.2.2 0 01.198-.203h1.553a.2.2 0 01.2.203l-.001 5.72h2.375v-5.72a.2.2 0 01.2-.203h1.551a.2.2 0 01.2.203v5.72h1.709a.2.2 0 01.198.203v3.091a.2.2 0 01-.198.203h-1.553a.2.2 0 01-.2-.203v-1.534h-10.359a.2.2 0 01-.2-.203zm14.871.202c.177 0 .287-.067.332-.225l.344-1.162h2.318l.332 1.162c.045.158.156.225.333.225h1.576c.131 0 .176-.067.176-.157a.354.354 0 00-.014-.093l-.004-.018-.003-.013-2.384-7.231c-.045-.147-.145-.204-.311-.204h-1.642c-.166 0-.266.057-.31.204l-2.431 7.23-.006.028a.383.383 0 00-.014.097c0 .09.044.157.177.157h1.531zm6.319-5.11c0-.812.311-1.568.876-2.02.5-.393 1.198-.552 1.941-.552h3.361a.2.2 0 01.199.203v7.277a.2.2 0 01-.199.202h-1.553a.2.2 0 01-.2-.202v-2.302h-1.187l-1.186 2.302c-.089.169-.2.202-.377.202h-1.709c-.11 0-.177-.055-.177-.157 0-.057.022-.125.067-.203l1.43-2.527a2.411 2.411 0 01-.454-.327 2.478 2.478 0 01-.832-1.895zM69.612 37.684c0 2.38 1.897 3.937 4.092 3.937 2.184 0 4.08-1.523 4.082-3.937 0-2.403-1.898-3.96-4.082-3.96-2.195 0-4.092 1.557-4.092 3.96zm17.664 3.621a.2.2 0 01-.2.204h-1.485a.2.2 0 01-.2-.204v-4.027l-1.165 2.2c-.078.135-.144.203-.311.203h-1.142c-.165 0-.233-.068-.31-.203l-1.23-2.2-.001 4.027a.2.2 0 01-.2.204h-1.486a.2.2 0 01-.2-.204v-7.276c0-.112.09-.203.2-.203h1.564c.156 0 .255.022.356.203l1.84 3.362 1.84-3.362c.101-.18.2-.203.356-.203h1.575a.2.2 0 01.2.203v7.276zm6.52 0a.2.2 0 00.199.203h1.552a.2.2 0 00.2-.203v-7.276a.2.2 0 00-.2-.203h-6.21a.2.2 0 00-.198.203l-.001 7.276a.2.2 0 00.2.203h1.552a.2.2 0 00.199-.203v-5.72h2.707v5.72zm5.177-.022c-.044.157-.155.225-.332.225h-1.53c-.134 0-.178-.068-.178-.158 0-.037.007-.066.016-.1l.005-.024 2.43-7.23c.044-.148.144-.204.31-.204h1.642c.166 0 .266.056.312.203l2.383 7.231.005.023a.377.377 0 01.016.101c0 .09-.044.158-.176.158H102.3c-.177 0-.288-.068-.332-.225l-.333-1.163h-2.318l-.344 1.163zm13.052-7.254a.2.2 0 00-.199-.203h-1.553a.2.2 0 00-.199.203v2.73h-2.885v-2.73a.2.2 0 00-.199-.203h-1.552a.2.2 0 00-.199.203v7.276c0 .113.087.203.198.203h1.553a.2.2 0 00.199-.203v-2.786h2.884v2.786a.2.2 0 00.2.203h1.553a.2.2 0 00.199-.203v-7.276zm6.719 3.373l-2.905 3.012v.89a.2.2 0 01-.2.204h-1.553a.2.2 0 01-.198-.203v-7.276a.2.2 0 01.199-.203h1.552a.2.2 0 01.2.203v3.948l2.905-3v-.948a.2.2 0 01.2-.203h1.552c.111 0 .201.09.201.203v7.276c0 .113-.09.203-.201.203h-1.553a.2.2 0 01-.199-.203V37.4zm4.413-3.024c-.567.452-.877 1.208-.877 2.02 0 .677.233 1.354.832 1.895.144.136.299.237.455.328l-1.431 2.527a.437.437 0 00-.068.203c0 .101.068.157.178.157h1.71c.175 0 .287-.034.376-.203l1.186-2.301h1.187v2.301a.2.2 0 00.199.203h1.553a.2.2 0 00.2-.203v-7.276a.2.2 0 00-.2-.203h-3.36c-.743 0-1.442.158-1.94.552zm-12.471-24.015h1.543c.112 0 .204.093.204.207v2.606a.11.11 0 00.194.073l2.346-2.812a.202.202 0 01.155-.074h1.85c.175 0 .242.158.115.308l-2.683 3.118.276-.002c.069 0 .134.036.172.095l2.456 3.847c.088.139.131.32-.091.32h-2.009a.201.201 0 01-.174-.1l-1.733-2.691a.092.092 0 00-.149-.014l-.673.777a.206.206 0 00-.052.138v1.683a.206.206 0 01-.204.207h-1.543a.205.205 0 01-.203-.207V10.57c0-.114.091-.207.203-.207zM64.184 33.816H62.64a.205.205 0 00-.203.207v7.272c0 .114.09.207.203.207h1.543a.205.205 0 00.203-.207v-1.683c0-.051.019-.1.053-.138l.672-.777a.093.093 0 01.15.014l1.733 2.69a.2.2 0 00.174.101h2.009c.222 0 .18-.182.09-.32l-2.456-3.847a.205.205 0 00-.171-.095l-.277.002 2.684-3.118c.127-.15.06-.308-.115-.308h-1.851a.202.202 0 00-.154.074l-2.346 2.812a.11.11 0 01-.195-.072v-2.607a.205.205 0 00-.203-.207zm18.258-18.77a2.045 2.045 0 00-.721-.113h-.566v1.5h.722c.254 0 .498-.033.676-.134.189-.114.31-.305.31-.62 0-.294-.121-.509-.421-.633zm15.845-2.944c.232 0 .466.045.654.17.233.146.389.416.389.857 0 .45-.156.722-.4.868-.177.113-.41.158-.644.158h-1.23v-2.053h1.231zm23.165.631l-.699 2.336h1.375l-.676-2.336zm6.764-.496c.177-.135.421-.191.655-.191h1.474v1.827h-1.453c-.233 0-.466-.056-.642-.17-.211-.146-.345-.394-.345-.743 0-.339.111-.576.311-.723zM96.268 24.001c-.187-.124-.421-.17-.653-.17h-1.231v2.053h1.23c.233 0 .467-.044.644-.158.243-.145.399-.416.399-.868 0-.44-.156-.71-.389-.857zm15.746-.17c.233 0 .466.046.654.17.234.147.389.417.389.857 0 .452-.155.723-.4.868-.177.114-.41.158-.643.158h-1.231v-2.053h1.231zm19.46.012c-1.175 0-2.019.88-2.019 2.098 0 1.219.844 2.087 2.019 2.087 1.176 0 2.008-.868 2.008-2.087 0-1.218-.832-2.098-2.008-2.098zm21.665 2.956l.7-2.336.675 2.336h-1.375zm8.118-3.023c-.233 0-.477.055-.655.191-.199.147-.311.384-.311.722 0 .35.134.598.345.744.177.114.409.17.642.17h1.454v-1.828h-1.475zM71.686 37.683c0-1.218.842-2.099 2.018-2.099 1.176 0 2.007.88 2.007 2.099 0 1.218-.832 2.087-2.007 2.087-1.176 0-2.018-.869-2.018-2.087zm28.807-1.49l-.7 2.336h1.376l-.676-2.335zm24.084-.495c.177-.136.42-.192.654-.192h1.474v1.827h-1.453c-.232 0-.465-.056-.642-.169-.211-.147-.344-.395-.344-.744 0-.339.11-.576.311-.722z" fill="#fff"></path>
  </mask>
</svg>