<svg width="239" height="49" viewBox="0 0 80 49" xmlns="http://www.w3.org/2000/svg">
	<g fill="none" fill-rule="evenodd">
		<path d="M71.964 37c-3.55 0-6.561-1.146-8.708-3.313C61.126 31.534 60 28.53 60 25c0-3.266 1.183-6.278 3.331-8.48 2.212-2.27 5.325-3.52 8.762-3.52 4.097 0 7.73 1.706 9.483 4.452v.002a.448.448 0 01-.078.574l-3.376 3.063a.458.458 0 01-.661-.05c-1.163-1.429-3.13-2.352-5.014-2.352-3.864 0-6.36 2.477-6.36 6.311 0 3.716 2.588 6.31 6.295 6.31 2.352 0 4.373-.966 5.848-2.796a.458.458 0 01.69-.026l2.959 3.159a.449.449 0 01.04.562c-2.068 3-5.79 4.791-9.955 4.791" fill="#343A4A" fill-rule="nonzero"></path>
		<path d="M86 35.348V13.652c0-.36.295-.652.658-.652h14.684c.363 0 .658.291.658.652v4.17c0 .36-.295.652-.658.652h-9.334v16.874c0 .36-.294.652-.658.652h-4.692a.655.655 0 01-.658-.652" fill="#343A4A" fill-rule="nonzero"></path>
		<path d="M104.648 13h4.92c.357 0 .647.278.647.62v7.799c0 .311.407.455.619.217l7.476-8.418a.663.663 0 01.495-.218h5.897c.558 0 .768.474.364.92l-8.548 9.33.879-.003a.655.655 0 01.548.282l7.828 11.514c.28.413.416.957-.292.957h-6.403a.657.657 0 01-.556-.3l-5.52-8.052a.305.305 0 00-.476-.043l-2.145 2.324a.606.606 0 00-.166.415v5.037c0 .342-.29.619-.648.619h-4.919c-.357 0-.648-.277-.648-.62V13.62c0-.342.29-.62.648-.62" fill="#343A4A" fill-rule="nonzero"></path>
		<g fill="#343A4A" fill-rule="nonzero">
			<path d="M27.04.007C12.858.417 6.72 13.827 9.605 23.203c.016.052.228.174.27.03 1.997-6.822 6.746-11.305 12.238-13.018 11.827-3.686 21.863 3.226 24.68 13.006.497 1.73.55 3.662.594 5.414.006.23.336.258.392.034C50.95 15.917 41.042-.397 27.04.007"></path>
			<path d="M2.62 33.414c7.445 12.078 22.126 10.688 28.805 3.502.037-.04.037-.284-.108-.249-6.908 1.68-13.164-.189-17.394-4.09-9.106-8.4-8.137-20.547-1.076-27.875 1.249-1.297 2.896-2.308 4.391-3.222.197-.12.056-.421-.167-.358C4.443 4.752-4.732 21.49 2.62 33.414"></path>
			<path d="M43.05 38.948c6.737-12.487-1.807-24.506-11.37-26.697-.053-.012-.264.11-.16.218 4.91 5.142 6.418 11.495 5.154 17.108-2.721 12.086-13.725 17.321-23.602 14.87-1.749-.433-3.447-1.354-4.987-2.191-.203-.11-.392.162-.226.323 9.46 9.121 28.54 8.697 35.192-3.63"></path>
		</g>
	</g>
</svg>