<svg xmlns="http://www.w3.org/2000/svg">
    <symbol id="i_arrow" viewBox="0 0 8 14">
        <path fill-rule="evenodd" clip-rule="evenodd" d="M0.317611 0.346723C0.767329 -0.115574 1.51839 -0.115574 1.9681 0.346723L7.68239 6.22084C8.10587 6.65617 8.10587 7.34381 7.68239 7.77914L1.9681 13.6533C1.51839 14.1156 0.767329 14.1156 0.317611 13.6533C-0.105869 13.2179 -0.10587 12.5303 0.31761 12.095L5.27395 6.99999L0.317611 1.90502C-0.10587 1.4697 -0.10587 0.782049 0.317611 0.346723Z"/>
    </symbol>
    <symbol id="i_arrow_long" viewBox="0 0 12 9">
       <path fill-rule="evenodd" clip-rule="evenodd" d="M4.7564e-08 4.5C5.19421e-08 4.13181 0.299234 3.83333 0.668359 3.83333L9.69397 3.83333L7.45175 1.64296C7.18803 1.38534 7.18361 0.963257 7.44189 0.700206C7.70016 0.437155 8.12332 0.432751 8.38704 0.690371L11.7993 4.0237C11.9277 4.1491 12 4.32078 12 4.5C12 4.67922 11.9277 4.8509 11.7993 4.9763L8.38704 8.30963C8.12332 8.56725 7.70016 8.56285 7.44189 8.29979C7.18361 8.03674 7.18803 7.61466 7.45175 7.35704L9.69397 5.16667L0.668358 5.16667C0.299234 5.16667 4.31858e-08 4.86819 4.7564e-08 4.5Z" fill="#707274"/>
    </symbol>
    <symbol id="i_download" viewBox="0 0 24 24">
        <path d="M12.9286 11.4871L14.53 9.88714C14.7992 9.62672 15.16 9.48247 15.5346 9.48546C15.9092 9.48844 16.2676 9.63843 16.5326 9.90311C16.7977 10.1678 16.9482 10.526 16.9517 10.9006C16.9552 11.2751 16.8115 11.6361 16.5514 11.9057L12.51 15.9471C12.3776 16.0803 12.2203 16.1859 12.0469 16.258C11.8736 16.3301 11.6877 16.3672 11.5 16.3672C11.3123 16.3672 11.1264 16.3301 10.9531 16.258C10.7797 16.1859 10.6224 16.0803 10.49 15.9471L6.44857 11.9057C6.31594 11.7729 6.21076 11.6152 6.13905 11.4418C6.06734 11.2683 6.0305 11.0824 6.03063 10.8947C6.0309 10.5156 6.18175 10.1522 6.45 9.88429C6.71825 9.61642 7.08192 9.46608 7.46101 9.46635C7.8401 9.46662 8.20356 9.61747 8.47143 9.88572L10.0714 11.4871V3.42857C10.0714 3.04969 10.2219 2.68633 10.4898 2.41842C10.7578 2.15051 11.1211 2 11.5 2C11.8789 2 12.2422 2.15051 12.5102 2.41842C12.7781 2.68633 12.9286 3.04969 12.9286 3.42857V11.4871ZM2.92857 19.1429H20.0714C20.4503 19.1429 20.8137 19.2934 21.0816 19.5613C21.3495 19.8292 21.5 20.1925 21.5 20.5714C21.5 20.9503 21.3495 21.3137 21.0816 21.5816C20.8137 21.8495 20.4503 22 20.0714 22H2.92857C2.54969 22 2.18633 21.8495 1.91842 21.5816C1.65051 21.3137 1.5 20.9503 1.5 20.5714C1.5 20.1925 1.65051 19.8292 1.91842 19.5613C2.18633 19.2934 2.54969 19.1429 2.92857 19.1429Z"/>
    </symbol>
    <symbol id="i_answer" viewBox="0 0 30 30">
        <g clip-path="url(#clip0a)">
        <path d="M23.7499 15.0577C23.0587 15.0577 22.5 15.6178 22.5 16.3076V26.3077C22.5 26.9964 21.9399 27.5576 21.2501 27.5576H3.75C3.05992 27.5576 2.50008 26.9964 2.50008 26.3077V8.80762C2.50008 8.11891 3.05992 7.55769 3.75 7.55769H13.7501C14.4413 7.55769 15 6.99762 15 6.30777C15 5.61769 14.4413 5.05762 13.7501 5.05762H3.75C1.68251 5.05762 0 6.74013 0 8.80762V26.3077C0 28.3752 1.68251 30.0577 3.75 30.0577H21.2501C23.3176 30.0577 25.0001 28.3752 25.0001 26.3077V16.3076C25.0001 15.6164 24.4411 15.0577 23.7499 15.0577Z"/>
        <path d="M11.7194 13.919C11.632 14.0065 11.5732 14.1177 11.5482 14.2376L10.6645 18.6578C10.6233 18.8627 10.6883 19.0739 10.8357 19.2227C10.9545 19.3415 11.1145 19.4051 11.2784 19.4051C11.3182 19.4051 11.3596 19.4014 11.4008 19.3927L15.8196 18.509C15.9421 18.4839 16.0533 18.4253 16.1396 18.3376L26.0296 8.44762L21.6108 4.02905L11.7194 13.919Z"/>
        <path d="M29.0842 0.972813C27.8657 -0.245983 25.8831 -0.245983 24.6654 0.972813L22.9355 2.7027L27.3543 7.12149L29.0842 5.39138C29.6743 4.80269 29.9993 4.01763 29.9993 3.18267C29.9993 2.34771 29.6743 1.56264 29.0842 0.972813Z"/>
        </g>
        <defs>
        <clipPath id="clip0a">
        <rect width="30" height="30" fill="white"/>
        </clipPath>
        </defs>
    </symbol>
    <symbol id="i_timer" viewBox="0 0 30 30">
        <path d="M24 18C20.6921 18 18 20.6916 18 24C18 27.3084 20.6921 30 24 30C27.3079 30 30 27.3084 30 24C30 20.6916 27.3079 18 24 18ZM26.1818 24.5454H24.5454V26.1818C24.5454 26.4833 24.3014 26.7273 23.9999 26.7273C23.6984 26.7273 23.4545 26.4833 23.4545 26.1818V24.5454H21.8182C21.5167 24.5454 21.2727 24.3015 21.2727 24C21.2727 23.6985 21.5167 23.4546 21.8182 23.4546H23.4545V21.8182C23.4545 21.5167 23.6985 21.2727 24 21.2727C24.3015 21.2727 24.5455 21.5167 24.5455 21.8182V23.4546H26.1818C26.4833 23.4546 26.7273 23.6985 26.7273 24C26.7273 24.3015 26.4833 24.5454 26.1818 24.5454Z"/>
        <path fill-rule="evenodd" clip-rule="evenodd" d="M0 13C0 5.82062 5.82062 0 13 0C20.1794 0 26 5.82062 26 13C26 14.0908 25.8656 15.1502 25.6126 16.1626C25.0917 16.056 24.5524 16 24 16C19.5817 16 16 19.5817 16 24C16 24.5524 16.056 25.0917 16.1626 25.6126C15.1502 25.8656 14.0908 26 13 26C5.82062 26 0 20.1794 0 13ZM13 15H19C19.2652 15 19.5196 14.8946 19.7071 14.7071C19.8946 14.5196 20 14.2652 20 14C20 13.7348 19.8946 13.4804 19.7071 13.2929C19.5196 13.1054 19.2652 13 19 13H14V5C14 4.73478 13.8946 4.48043 13.7071 4.29289C13.5196 4.10536 13.2652 4 13 4C12.7348 4 12.4804 4.10536 12.2929 4.29289C12.1054 4.48043 12 4.73478 12 5V14C12 14.2652 12.1054 14.5196 12.2929 14.7071C12.4804 14.8946 12.7348 15 13 15Z"/>
    </symbol>
    <symbol id="i_approve" viewBox="0 0 30 30">
        <g clip-path="url(#clip0s)">
            <path d="M29.9999 27.2401V28.7367C29.9999 29.2794 29.5601 29.7194 29.0172 29.7194H2.29306C1.75021 29.7194 1.31034 29.2794 1.31034 28.7367V27.2401C1.31034 26.6974 1.75021 26.2574 2.29306 26.2574H29.0172C29.5601 26.2574 29.9999 26.6974 29.9999 27.2401ZM29.3331 13.6313L28.9386 12.6723C28.712 12.1217 28.1865 11.7632 27.5935 11.7504C27.5811 11.6886 27.5632 11.6271 27.5383 11.5667L27.2266 10.8088C27.421 10.7021 27.5751 10.5326 27.6613 10.3258C27.7617 10.0853 27.7623 9.81468 27.6633 9.57359L26.0974 5.76695C25.9053 5.30009 25.3951 5.06097 24.9205 5.1958L24.6086 4.4378C24.584 4.37792 24.5536 4.32105 24.5182 4.26785C24.9156 3.85498 25.0563 3.2305 24.8247 2.66708L24.4302 1.70808C24.0734 0.840804 23.2369 0.280396 22.299 0.280396C21.9976 0.280396 21.7029 0.338834 21.4229 0.454008L16.3838 2.52688C15.209 3.01011 14.6464 4.35905 15.1296 5.53398L15.5243 6.49337C15.7511 7.04421 16.2776 7.40271 16.871 7.41489C16.8833 7.47648 16.9013 7.5378 16.926 7.59794L17.2375 8.35502C17.0409 8.46155 16.8854 8.63228 16.7985 8.84048C16.7146 9.042 16.7015 9.26423 16.7573 9.47283L16.5143 9.5728C16.2733 9.67186 16.0814 9.86277 15.9812 10.1033C15.9132 10.2665 15.8921 10.4434 15.9158 10.6157L12.2064 12.1416C12.1283 12.0741 12.0399 12.0182 11.9428 11.9777C11.7022 11.8773 11.4318 11.8767 11.1907 11.9759L1.60908 15.9176C1.10724 16.1241 0.86772 16.6983 1.07409 17.2002L1.83812 19.0576C1.93731 19.2986 2.12821 19.4903 2.36878 19.5907C2.48985 19.6412 2.61839 19.6664 2.74706 19.6664C2.87416 19.6664 3.00112 19.6418 3.12102 19.5925L12.7029 15.6509C13.0572 15.5052 13.2798 15.1761 13.3079 14.8185L17.0172 13.2927C17.1215 13.4317 17.2609 13.5426 17.4242 13.6107C17.5453 13.6611 17.6738 13.6864 17.8025 13.6864C17.9296 13.6864 18.0566 13.6618 18.1764 13.6125L18.4199 13.5123C18.5973 13.8235 18.9262 14.0086 19.2724 14.0086C19.3628 14.0086 19.4544 13.9957 19.5445 13.9695L19.8561 14.7268C19.8807 14.7866 19.9109 14.8432 19.9461 14.8961C19.5478 15.309 19.4067 15.9341 19.6385 16.4979L20.0331 17.457C20.39 18.3243 21.2264 18.8847 22.1643 18.8847C22.4655 18.8847 22.7603 18.8263 23.0403 18.7111L28.0794 16.6382C29.2538 16.1553 29.8165 14.8062 29.3331 13.6313Z"/>
        </g>
        <defs>
            <clipPath id="clip0s">
            <rect width="30" height="30" fill="white"/>
            </clipPath>
        </defs>
    </symbol>
    <symbol id="i_copy" viewBox="0 0 30 30">
        <g clip-path="url(#clip0)">
        <path fill-rule="evenodd" clip-rule="evenodd" d="M1 2.5C1 1.11929 2.11929 0 3.5 0H7.25001C8.63072 0 9.75002 1.11929 9.75002 2.5V2.8125C9.75002 3.15768 9.47019 3.43751 9.12501 3.43751C8.77984 3.43751 8.50001 3.15768 8.50001 2.8125V2.5C8.50001 1.80965 7.94037 1.25 7.25001 1.25H3.5C2.80965 1.25 2.25 1.80965 2.25 2.5V7.50001C2.25 8.19037 2.80965 8.75002 3.5 8.75002H3.76786C4.11304 8.75002 4.39286 9.02984 4.39286 9.37502C4.39286 9.72019 4.11304 10 3.76786 10H3.5C2.11929 10 1 8.88073 1 7.50001V2.5Z" fill="#333333"/>
        <path fill-rule="evenodd" clip-rule="evenodd" d="M5.99988 7.5C5.99988 6.11929 7.11917 5 8.49988 5H12.2499C13.6306 5 14.7499 6.11929 14.7499 7.5V12.5C14.7499 13.8807 13.6306 15 12.2499 15H8.49988C7.11917 15 5.99988 13.8807 5.99988 12.5V7.5ZM8.49988 6.25C7.80953 6.25 7.24988 6.80965 7.24988 7.5V12.5C7.24988 13.1904 7.80953 13.75 8.49988 13.75H12.2499C12.9402 13.75 13.4999 13.1904 13.4999 12.5V7.5C13.4999 6.80965 12.9402 6.25 12.2499 6.25H8.49988Z" fill="#333333"/>
        </g>
        <defs>
        <clipPath id="clip0">
        <rect width="15" height="15" fill="#333333"/>
        </clipPath>
        </defs>
    </symbol>
    <symbol id="i_openeye" viewBox="0 0 30 30">
        <path fill-rule="evenodd" clip-rule="evenodd" d="M7.87395 1.3483C5.32135 1.3483 2.98289 2.94672 1.48461 5.55634C1.30286 5.8729 1.30287 6.26191 1.48462 6.57847C2.98289 9.18805 5.32134 10.7864 7.87392 10.7864C10.4265 10.7864 12.765 9.18803 14.2633 6.57841C14.445 6.26185 14.445 5.87284 14.2633 5.55628C12.765 2.9467 10.4265 1.3483 7.87395 1.3483ZM0.315324 4.88501C1.98555 1.9759 4.71512 0 7.87395 0C11.0327 0 13.7623 1.97587 15.4325 4.88495C15.853 5.61724 15.853 6.51745 15.4325 7.24974C13.7623 10.1589 11.0327 12.1348 7.87392 12.1348C4.71512 12.1348 1.98556 10.1589 0.315331 7.2498C-0.105108 6.51751 -0.105111 5.6173 0.315324 4.88501Z" fill="#333333"/>
        <path fill-rule="evenodd" clip-rule="evenodd" d="M7.87395 4.71903C7.1293 4.71903 6.52565 5.32269 6.52565 6.06733C6.52565 6.81198 7.1293 7.41564 7.87395 7.41564C8.6186 7.41564 9.22225 6.81198 9.22225 6.06733C9.22225 5.32269 8.6186 4.71903 7.87395 4.71903ZM5.17735 6.06733C5.17735 4.57804 6.38466 3.37073 7.87395 3.37073C9.36324 3.37073 10.5706 4.57804 10.5706 6.06733C10.5706 7.55663 9.36324 8.76394 7.87395 8.76394C6.38466 8.76394 5.17735 7.55663 5.17735 6.06733Z" fill="#333333"/>
    </symbol>
    <symbol id="i_closeeye" viewBox="0 0 30 30">
        <path fill-rule="evenodd" clip-rule="evenodd" d="M3.35235 0.197454C3.61563 -0.0658181 4.04248 -0.0658181 4.30575 0.197454L15.0922 10.9839C15.3554 11.2471 15.3554 11.674 15.0922 11.9373C14.8289 12.2005 14.402 12.2005 14.1388 11.9373L3.35235 1.15085C3.08908 0.887576 3.08908 0.460727 3.35235 0.197454Z" fill="#333333"/>
        <path fill-rule="evenodd" clip-rule="evenodd" d="M9.47495 1.88118C9.59634 1.5292 9.98007 1.34227 10.3321 1.46365C12.4366 2.18944 14.2134 3.81089 15.4325 5.93423C15.7528 6.49197 15.829 7.14703 15.6616 7.75105C15.5621 8.10985 15.1906 8.32007 14.8318 8.22059C14.473 8.12112 14.2628 7.74963 14.3623 7.39084C14.4347 7.12964 14.4016 6.84657 14.2633 6.60557C13.1725 4.70582 11.63 3.3375 9.89248 2.73829C9.5405 2.6169 9.35357 2.23316 9.47495 1.88118ZM5.89902 1.98283C6.03914 2.32779 5.87309 2.72101 5.52814 2.86113C3.92469 3.51244 2.50607 4.8265 1.48461 6.60563C1.30286 6.92219 1.30287 7.31119 1.48462 7.62775C2.98289 10.2373 5.32134 11.8357 7.87392 11.8357C9.68555 11.8357 11.3798 11.0352 12.7513 9.63974C13.0123 9.37421 13.4391 9.37052 13.7047 9.63152C13.9702 9.89251 13.9739 10.3193 13.7129 10.5849C12.1318 12.1935 10.1053 13.184 7.87392 13.184C4.71512 13.184 1.98556 11.2082 0.315331 8.29909C-0.105108 7.5668 -0.105111 6.66659 0.315324 5.9343C1.45766 3.94464 3.0887 2.39672 5.02073 1.61195C5.36568 1.47183 5.75891 1.63788 5.89902 1.98283Z" fill="#333333"/>
        <path fill-rule="evenodd" clip-rule="evenodd" d="M8.15216 5.79736C7.86566 5.73695 7.56729 5.77144 7.30213 5.89561C7.03697 6.01979 6.81944 6.22691 6.68241 6.48566C6.54539 6.74442 6.49632 7.04074 6.54261 7.32986C6.58891 7.61897 6.72807 7.88515 6.93904 8.08818C7.15002 8.2912 7.42135 8.42003 7.71203 8.45519C8.0027 8.49036 8.29693 8.42995 8.55023 8.28309C8.80353 8.13623 9.00214 7.9109 9.11605 7.64117C9.22995 7.37144 9.25296 7.07196 9.18159 6.788L10.4892 6.45934C10.632 7.02727 10.586 7.62623 10.3581 8.16569C10.1303 8.70516 9.73311 9.1558 9.2265 9.44952C8.7199 9.74324 8.13145 9.86407 7.5501 9.79374C6.96874 9.72341 6.42608 9.46575 6.00413 9.0597C5.58218 8.65365 5.30387 8.12129 5.21128 7.54306C5.11868 6.96484 5.21682 6.37218 5.49087 5.85467C5.76492 5.33717 6.19998 4.92293 6.7303 4.67458C7.26062 4.42622 7.85737 4.35725 8.43036 4.47807L8.15216 5.79736Z" fill="#333333"/>
    </symbol>
    <symbol id="i_close" viewBox="0 0 30 30">
        <path d="M4.73851 4.77784C5.5003 4.01746 6.7354 4.01746 7.49719 4.77784L25.4287 22.6761C26.1904 23.4365 26.1904 24.6693 25.4287 25.4297C24.6669 26.1901 23.4318 26.1901 22.67 25.4297L4.73851 7.53143C3.97672 6.77105 3.97672 5.53822 4.73851 4.77784Z"/>
        <path d="M4.57134 25.2222C3.80955 24.4618 3.80955 23.229 4.57134 22.4686L22.5028 4.57029C23.2646 3.8099 24.4997 3.8099 25.2615 4.57029C26.0233 5.33067 26.0233 6.56349 25.2615 7.32387L7.33003 25.2222C6.56824 25.9825 5.33313 25.9825 4.57134 25.2222Z"/>
    </symbol>
    <symbol id="i_pdf" viewBox="0 0 26 30">
        <path fill-rule="evenodd" clip-rule="evenodd" d="M4.3125 0H15.5625L24 9V27C24 27.7956 23.7037 28.5587 23.1762 29.1213C22.6488 29.6839 21.9334 30 21.1875 30H4.3125C3.56658 30 2.85121 29.6839 2.32376 29.1213C1.79632 28.5587 1.5 27.7956 1.5 27V3C1.5 2.20435 1.79632 1.44129 2.32376 0.87868C2.85121 0.31607 3.56658 0 4.3125 0ZM7.40906 21.915C8.15578 21.915 8.79703 21.72 9.23156 21.285C9.56344 20.9475 9.74625 20.451 9.74766 19.863C9.74766 19.278 9.50578 18.7815 9.14859 18.4785C8.77313 18.159 8.21625 18 7.43297 18C6.85939 17.9916 6.28611 18.0327 5.71875 18.123V24.027H6.97594V21.888C7.11955 21.9077 7.26428 21.9167 7.40906 21.915ZM11.9977 24.09C13.0959 24.09 13.9945 23.841 14.5852 23.3175C15.1252 22.83 15.5175 22.0395 15.5175 20.895C15.5175 19.8375 15.1519 19.101 14.5683 18.639C14.0283 18.204 13.3364 18 12.2719 18C11.6983 17.9945 11.1252 18.0361 10.5577 18.1245V24C10.8741 24.045 11.3395 24.09 11.9977 24.09ZM17.6269 19.155H19.7812V18.045H16.3528V24.0285H17.6269V21.6225H19.6406V20.5215H17.6269V19.155ZM14.1562 10.5H15.5625H21.1875L14.1562 3V10.5ZM6.9774 19.0741C7.0674 19.0471 7.24177 19.0201 7.50052 19.0201C8.13333 19.0201 8.49052 19.3501 8.49052 19.8991C8.49052 20.5126 8.07568 20.8756 7.40208 20.8756C7.21786 20.8756 7.08427 20.8681 6.9774 20.8411V19.0741ZM11.8318 19.0921C11.9401 19.0651 12.1229 19.0381 12.4041 19.0381C13.4954 19.0381 14.1774 19.6951 14.169 20.9401C14.169 22.3681 13.4208 23.0431 12.2719 23.0341C12.1144 23.0341 11.9401 23.0341 11.8318 23.0071V19.0921Z" />
    </symbol>
    <symbol id="i_doc" viewBox="0 0 26 30">
        <path fill-rule="evenodd" clip-rule="evenodd" d="M16.0625 0H4.8125C4.06658 0 3.35121 0.31607 2.82376 0.87868C2.29632 1.44129 2 2.20435 2 3V27C2 27.7956 2.29632 28.5587 2.82376 29.1213C3.35121 29.6839 4.06658 30 4.8125 30H21.6875C22.4334 30 23.1488 29.6839 23.6762 29.1213C24.2037 28.5587 24.5 27.7956 24.5 27V9L16.0625 0ZM16.0625 10.5H14.6562V3L21.6875 10.5H16.0625ZM11.1902 20.9999C11.1902 22.7477 12.1951 23.9999 13.5693 23.9999C14.9502 23.9999 15.9552 22.7477 15.9552 20.9999C15.9552 19.2521 14.9502 17.9999 13.5693 17.9999C12.1951 17.9999 11.1902 19.2521 11.1902 20.9999ZM14.9571 20.9999C14.9571 22.0781 14.4102 22.9042 13.5693 22.9042C12.7284 22.9042 12.1883 22.0781 12.1883 20.9999C12.1883 19.9129 12.7284 19.0955 13.5693 19.0955C14.4102 19.0955 14.9571 19.9129 14.9571 20.9999ZM6.50195 23.8955H8.29993C9.72875 23.8955 10.72 22.7477 10.72 20.9999C10.72 19.2521 9.72875 18.0955 8.29993 18.0955H6.50195V23.8955ZM7.47273 22.8086V19.1825H8.29993C9.23652 19.1825 9.72875 19.9738 9.72875 20.9999C9.72875 21.9825 9.20234 22.8086 8.29993 22.8086H7.47273ZM20.752 22.5738C20.4238 23.2955 19.8495 23.9999 18.8104 23.9999C17.4773 23.9999 16.4177 22.7825 16.4177 20.9999C16.4177 19.2173 17.4773 17.9999 18.8104 17.9999C19.8495 17.9999 20.4306 18.6955 20.752 19.4173L19.9179 19.939C19.7265 19.4694 19.3163 19.0955 18.8104 19.0955C18.0174 19.0955 17.4158 19.9042 17.4158 20.9999C17.4158 22.0955 18.0174 22.9042 18.8104 22.9042C19.3163 22.9042 19.7265 22.539 19.9179 22.0607L20.752 22.5738Z" />
    </symbol>
    <symbol id="i_xls" viewBox="0 0 27 30">
        <path fill-rule="evenodd" clip-rule="evenodd" d="M5.31055 0H16.5605L24.998 9V27C24.998 27.7956 24.7017 28.5587 24.1743 29.1213C23.6468 29.6839 22.9315 30 22.1855 30H5.31055C4.56463 30 3.84925 29.6839 3.32181 29.1213C2.79436 28.5587 2.49805 27.7956 2.49805 27V3C2.49805 2.20435 2.79436 1.44129 3.32181 0.87868C3.84925 0.31607 4.56463 0 5.31055 0ZM15.1543 10.5H16.5605H22.1855L15.1543 3V10.5ZM18.7652 24C17.6998 24 16.9289 23.6255 16.4179 23.0769L16.9809 22.2932C17.3794 22.7199 18.003 23.0943 18.8086 23.0943C19.6401 23.0943 19.9692 22.6851 19.9692 22.3019C19.9692 21.7829 19.3625 21.6248 18.6667 21.4434L18.6526 21.4398C17.7085 21.2046 16.5998 20.926 16.5998 19.6981C16.5998 18.7402 17.44 18 18.7046 18C19.6054 18 20.333 18.2874 20.8701 18.8099L20.2897 19.5675C19.8393 19.1147 19.2243 18.9057 18.618 18.9057C18.0203 18.9057 17.6392 19.193 17.6392 19.6284C17.6392 20.0794 18.2234 20.2281 18.9041 20.4013L18.9125 20.4035C19.8653 20.6473 21 20.9434 21 22.2061C21 23.1727 20.3244 24 18.7652 24ZM10.4522 23.8955H11.6648L9.50804 20.9086L11.5349 18.0871H10.3136L8.83242 20.2206L7.34258 18.0871H6.12993L8.16546 20.9173L6 23.8955H7.21266L8.83242 21.6226L10.4522 23.8955ZM12.3156 23.8955H15.8756V22.9985H13.3291V18.0871H12.3156V23.8955Z"/>
    </symbol>
    <symbol id="i_pptx" viewBox="0 0 15 21">
        <path d="M3.11087 14.0705C3.38684 14.0705 3.59383 13.8546 3.59383 13.5188C3.59383 13.189 3.38684 12.9671 3.11087 12.9671H2.36672V14.0705H3.11087Z"/>
        <path d="M6.18615 14.0705C6.46212 14.0705 6.66911 13.8546 6.66911 13.5188C6.66911 13.189 6.46212 12.9671 6.18615 12.9671H5.442V14.0705H6.18615Z"/>
        <path fill-rule="evenodd" clip-rule="evenodd" d="M1.87451 0.235443H9.37477L15 6.23544V18.2354C15 18.7659 14.8024 19.2746 14.4508 19.6497C14.0991 20.0247 13.6222 20.2354 13.1249 20.2354H1.87451C1.37721 20.2354 0.900278 20.0247 0.548635 19.6497C0.196992 19.2746 -0.000558853 18.7659 -0.000558853 18.2354V2.23544C-0.000558853 1.70501 0.196992 1.1963 0.548635 0.821229C0.900278 0.446157 1.37721 0.235443 1.87451 0.235443ZM8.43724 7.23544H13.1249L8.43724 2.23544V7.23544ZM2.36672 16.2354H1.66692V12.2354H3.2045C3.91908 12.2354 4.30841 12.8231 4.30841 13.5248C4.30841 14.2205 3.91416 14.8022 3.2045 14.8022H2.36672V16.2354ZM5.442 16.2354H4.7422V12.2354H6.27978C6.99436 12.2354 7.38369 12.8231 7.38369 13.5248C7.38369 14.2205 6.98944 14.8022 6.27978 14.8022H5.442V16.2354ZM8.57641 16.2354H9.28114V12.9851H10.2372V12.2354H7.61543V12.9851H8.57641V16.2354ZM13.6673 16.2354H12.8296L12.0066 14.7722L11.1786 16.2354H10.3458L11.5384 14.1845L10.4197 12.2354H11.2526L12.0066 13.6028L12.7507 12.2354H13.5934L12.4747 14.1785L13.6673 16.2354Z"/>
    </symbol>
    <symbol id="i_attention" viewBox="0 0 40 40">
        <path fill-rule="evenodd" clip-rule="evenodd" d="M20 40C31.0457 40 40 31.0457 40 20C40 8.9543 31.0457 0 20 0C8.9543 0 0 8.9543 0 20C0 31.0457 8.9543 40 20 40ZM17.6479 7C17.2984 7 17.0229 7.32234 17.0497 7.69985L18.1574 23.2999C18.1814 23.6385 18.4421 23.9 18.7556 23.9H21.2444C21.5579 23.9 21.8186 23.6385 21.8426 23.2999L22.9503 7.69985C22.9771 7.32234 22.7016 7 22.3521 7H17.6479ZM17 29.7734C17 31.5036 18.3381 33 19.9784 33C21.6187 33 23 31.5036 23 29.7734C23 27.9964 21.6187 26.5 19.9784 26.5C18.3381 26.5 17 27.9964 17 29.7734Z"/>
    </symbol>
    <symbol id="i_gallery" viewBox="0 0 40 35">
        <path d="M20.723 28.9088C19.5599 28.8908 18.4385 28.4727 17.5477 27.7248L11.6815 22.5582C10.7584 21.6957 9.34689 21.6274 8.3448 22.3968L0.00309731 28.532V32.5145C-0.0568549 33.5828 0.760741 34.4974 1.82907 34.5574C1.88407 34.5605 1.93929 34.5612 1.9944 34.5595H31.5403C32.7244 34.5595 33.9084 33.6985 33.9084 32.5145V22.0739L23.3062 28.2091C22.5268 28.6776 21.6324 28.9199 20.723 28.9088Z" />
        <path d="M20.2918 18.4682C21.5997 18.4682 22.6599 17.408 22.6599 16.1002C22.6599 14.7924 21.5997 13.7322 20.2918 13.7322C18.984 13.7322 17.9238 14.7924 17.9238 16.1002C17.9238 17.408 18.984 18.4682 20.2918 18.4682Z" fill="#BFBE66"/>
        <path opacity="0.6" d="M39.5064 4.20644C39.1628 3.73836 38.6321 3.44354 38.0533 3.39914L8.72255 0.00864691C8.15073 -0.0392531 7.58005 0.112894 7.10806 0.439232C6.69004 0.802242 6.40583 1.29494 6.30076 1.83853L5.81641 6.03632H31.5414C33.994 6.09195 35.9771 8.05142 36.0621 10.5032V29.5008C36.0621 29.3932 36.5465 29.2855 36.7618 29.0702C37.2074 28.7203 37.4657 28.1837 37.4614 27.6172L39.9907 5.76715C40.0467 5.20276 39.872 4.6398 39.5064 4.20644Z" />
        <path d="M31.5412 8.18896H1.99521C0.811201 8.18896 0.00390625 9.3191 0.00390625 10.5031V25.8412L7.10784 20.6747C8.91114 19.337 11.4059 19.4494 13.0816 20.9438L19.0016 26.1103C19.8942 26.8681 21.1693 26.9762 22.1768 26.3793L33.9091 19.5445V10.5031C33.8277 9.23967 32.8061 8.2414 31.5412 8.18896ZM20.2932 20.6208C17.7965 20.6208 15.7725 18.5969 15.7725 16.1001C15.7725 13.6034 17.7964 11.5794 20.2932 11.5794C22.7899 11.5794 24.8139 13.6033 24.8139 16.1001C24.8139 18.5969 22.79 20.6208 20.2932 20.6208Z" />
    </symbol>
    <symbol id="i_quiz" viewBox="0 0 40 34">
        <path d="M38.8281 31.1823H37.5781V1.40884C37.5781 0.630309 37.0538 0 36.4062 0H31.7188C31.0712 0 30.5469 0.630309 30.5469 1.40884V31.1823H28.2031V9.86188C28.2031 9.08335 27.6788 8.45304 27.0312 8.45304H22.3438C21.6962 8.45304 21.1719 9.08335 21.1719 9.86188V31.1823H18.8281V21.1326C18.8281 20.3541 18.3038 19.7238 17.6562 19.7238H12.9688C12.3212 19.7238 11.7969 20.3541 11.7969 21.1326V31.1823H9.45312V15.4972C9.45312 14.7187 8.92883 14.0884 8.28125 14.0884H3.59375C2.94617 14.0884 2.42188 14.7187 2.42188 15.4972V31.1823H1.17188C0.524292 31.1823 0 31.8126 0 32.5912C0 33.3697 0.524292 34 1.17188 34H38.8281C39.4757 34 40 33.3697 40 32.5912C40 31.8126 39.4757 31.1823 38.8281 31.1823Z" />
    </symbol>
    <symbol id="i_book" viewBox="0 0 40 40">
        <path d="M6.11889 4.72046C6.11781 4.72046 6.1166 4.72046 6.11552 4.72046C5.7372 4.72046 5.38138 4.86793 5.11269 5.13595C4.84104 5.40693 4.69141 5.76774 4.69141 6.15184V27.6152C4.69141 28.4023 5.33424 29.0442 6.12454 29.0462C9.45627 29.0541 15.0382 29.7486 18.889 33.7783V11.3163C18.889 11.0495 18.8209 10.7989 18.6923 10.5915C15.5317 5.50161 9.45816 4.72827 6.11889 4.72046Z" />
        <path d="M35.3088 27.6152V6.15172C35.3088 5.76761 35.1592 5.4068 34.8875 5.13583C34.6188 4.86781 34.2628 4.72034 33.8848 4.72034C33.8836 4.72034 33.8824 4.72034 33.8813 4.72034C30.5422 4.72828 24.4686 5.50162 21.308 10.5915C21.1793 10.7989 21.1113 11.0495 21.1113 11.3163V33.7782C24.9621 29.7484 30.5441 29.054 33.8758 29.0461C34.666 29.0441 35.3088 28.4022 35.3088 27.6152Z" />
        <path opacity="0.6" d="M38.5693 9.67029H37.5314V27.6153C37.5314 29.6248 35.8941 31.2635 33.8815 31.2685C31.0555 31.2752 26.3958 31.8278 23.0957 34.9512C28.8032 33.5537 34.8199 34.4622 38.2489 35.2436C38.677 35.3411 39.1195 35.2403 39.4625 34.9669C39.8043 34.6942 40.0004 34.2865 40.0004 33.849V11.1014C40.0005 10.3123 39.3584 9.67029 38.5693 9.67029Z" />
        <path opacity="0.6" d="M2.46896 27.6153V9.67029H1.43112C0.642157 9.67029 0 10.3123 0 11.1014V33.8486C0 34.2863 0.196095 34.6938 0.537914 34.9665C0.880676 35.2398 1.3227 35.3409 1.75152 35.2432C5.18049 34.4616 11.1973 33.5533 16.9046 34.9508C13.6046 31.8275 8.94495 31.2751 6.11894 31.2683C4.10641 31.2635 2.46896 29.6248 2.46896 27.6153Z" />
    </symbol>
    <symbol id="i_diagram" viewBox="0 0 40 40">
        <path opacity="0.6" d="M21.3789 18.5926H39.9471C39.2685 8.63403 31.3244 0.679508 21.3789 0V18.5926Z" />
        <path opacity="0.8" d="M34.7486 33.545C37.7438 30.2925 39.6804 26.0469 39.9997 21.3546H22.5742L34.7486 33.545Z" />
        <path d="M18.6206 19.4019V0C8.21927 0.710583 0 9.37845 0 19.9737C0 25.0065 1.85861 29.6021 4.91998 33.1205L18.6206 19.4019Z" />
        <path opacity="0.4" d="M19.5966 22.3314L6.87109 35.0736C10.3849 38.139 14.9745 40 20.0007 40C24.8214 40 29.2393 38.2881 32.691 35.443L19.5966 22.3314Z" />
    </symbol>
    <symbol id="i_info" viewBox="0 0 16 16">
        <path d="M7.99966 0.000244141C3.58197 0.000244141 0 3.58221 0 7.99991C0 12.4176 3.58197 16.0002 7.99966 16.0002C12.4174 16.0002 16 12.4176 16 7.99991C16 3.58221 12.4174 0.000244141 7.99966 0.000244141ZM9.66502 12.3986C9.25325 12.5612 8.92546 12.6844 8.67962 12.7698C8.43445 12.8551 8.14933 12.8978 7.82493 12.8978C7.32648 12.8978 6.93841 12.7759 6.6621 12.5327C6.38578 12.2896 6.2483 11.9815 6.2483 11.6069C6.2483 11.4613 6.25845 11.3123 6.27877 11.1606C6.29977 11.0089 6.33295 10.8383 6.37833 10.6466L6.89371 8.82615C6.93909 8.65142 6.97837 8.48549 7.00952 8.33108C7.04068 8.17531 7.05558 8.03241 7.05558 7.90238C7.05558 7.67076 7.00749 7.50822 6.912 7.41679C6.81515 7.32537 6.63297 7.28067 6.3614 7.28067C6.22866 7.28067 6.09185 7.30031 5.95166 7.34162C5.81283 7.38429 5.69228 7.42289 5.5934 7.46082L5.72952 6.90005C6.06679 6.76257 6.38984 6.64473 6.69799 6.54721C7.00614 6.44833 7.29735 6.39957 7.57164 6.39957C8.06671 6.39957 8.44868 6.52012 8.71754 6.75851C8.98506 6.99758 9.11983 7.30843 9.11983 7.6904C9.11983 7.76964 9.11035 7.90915 9.09206 8.10826C9.07378 8.30805 9.03924 8.49023 8.98912 8.65751L8.47644 10.4725C8.43445 10.6181 8.39721 10.7848 8.36334 10.971C8.33016 11.1572 8.3139 11.2995 8.3139 11.395C8.3139 11.6361 8.36741 11.8006 8.47577 11.888C8.58277 11.9754 8.77037 12.0194 9.03585 12.0194C9.16114 12.0194 9.30133 11.997 9.45981 11.9537C9.61693 11.9103 9.73071 11.8717 9.8025 11.8386L9.66502 12.3986ZM9.57426 5.03152C9.3352 5.25366 9.04737 5.36473 8.71077 5.36473C8.37486 5.36473 8.08499 5.25366 7.84389 5.03152C7.60415 4.80939 7.48292 4.53916 7.48292 4.22357C7.48292 3.90865 7.60483 3.63775 7.84389 3.41358C8.08499 3.18873 8.37486 3.07698 8.71077 3.07698C9.04737 3.07698 9.33587 3.18873 9.57426 3.41358C9.81333 3.63775 9.93321 3.90865 9.93321 4.22357C9.93321 4.53984 9.81333 4.80939 9.57426 5.03152Z" />
    </symbol>
    <symbol id="i_star" viewBox="0 0 26 25">
       <path d="M13 0L16.0689 9.54915H26L17.9656 15.4509L21.0344 25L13 19.0983L4.96556 25L8.03444 15.4509L0 9.54915H9.93112L13 0Z"/>
    </symbol>
    <symbol id="i_mail" viewBox="0 0 16 16">
      <path d="M8.57304 14.8621C9.11236 14.7568 9.45805 14.2635 9.34511 13.7604C9.23216 13.2574 8.70361 12.9353 8.16402 13.0403C4.08089 13.8381 1.55322 9.57688 3.8977 5.77457C5.35291 3.4147 8.43953 2.06278 10.8589 3.37046C13.1278 4.59705 13.6928 7.67225 12.1184 10.2256C11.9954 10.4249 11.7974 10.5673 11.5605 10.6264C10.776 10.822 10.1214 10.0253 10.5313 9.36058C12.2083 6.6411 10.5291 4.04025 8.02885 4.6645C7.03242 4.91355 6.10509 5.63335 5.48468 6.63949C3.59678 9.70128 5.9513 12.4697 8.74292 11.05C9.80681 12.9688 12.7078 13.003 13.8481 11.1536C15.9693 7.71351 15.0773 3.49952 11.8595 1.76C8.53353 -0.0379761 4.23195 1.49915 2.16791 4.84654C-1.06492 10.0893 2.84965 15.9798 8.57304 14.8621V14.8621ZM7.07213 9.52401C6.75444 9.35221 6.64921 8.48431 7.21454 7.56751C7.58392 6.96858 8.23433 6.4343 8.75243 6.4343C8.81988 6.4343 8.88713 6.44541 8.94401 6.47612C9.26163 6.64786 9.36686 7.5157 8.80152 8.4325C8.25501 9.31883 7.40059 9.70134 7.07213 9.52401V9.52401Z" />
    </symbol>
    <symbol id="i_mob" viewBox="0 0 16 16">
       <path d="M11.4375 1C11.8021 1 12.112 1.1276 12.3672 1.38281C12.6224 1.63802 12.75 1.94792 12.75 2.3125V13.6875C12.75 14.0521 12.6224 14.362 12.3672 14.6172C12.112 14.8724 11.8021 15 11.4375 15H5.3125C4.94792 15 4.63802 14.8724 4.38281 14.6172C4.1276 14.362 4 14.0521 4 13.6875V2.3125C4 1.94792 4.1276 1.63802 4.38281 1.38281C4.63802 1.1276 4.94792 1 5.3125 1H11.4375ZM7.74609 13.8516C7.92839 14.0339 8.13802 14.125 8.375 14.125C8.61198 14.125 8.8125 14.0339 8.97656 13.8516C9.15885 13.6875 9.25 13.487 9.25 13.25C9.25 13.013 9.15885 12.8125 8.97656 12.6484C8.8125 12.4661 8.61198 12.375 8.375 12.375C8.13802 12.375 7.92839 12.4661 7.74609 12.6484C7.58203 12.8125 7.5 13.013 7.5 13.25C7.5 13.487 7.58203 13.6875 7.74609 13.8516ZM11.4375 11.1719V2.64062C11.4375 2.42188 11.3281 2.3125 11.1094 2.3125H5.64062C5.42188 2.3125 5.3125 2.42188 5.3125 2.64062V11.1719C5.3125 11.3906 5.42188 11.5 5.64062 11.5H11.1094C11.3281 11.5 11.4375 11.3906 11.4375 11.1719Z"/>
    </symbol>
    <symbol id="i_phone" viewBox="0 0 16 16">
       <path d="M14.3165 14.4816C14.2436 14.828 14.0339 15.0011 13.6876 15.0011C10.1876 15.0011 7.19798 13.7616 4.71881 11.2824C2.23965 8.80322 1.00006 5.81364 1.00006 2.31364C1.00006 1.96728 1.17324 1.75765 1.5196 1.68473L4.36335 1.02848C4.7097 0.937337 4.95579 1.06494 5.10163 1.4113L6.41413 4.4738C6.54173 4.76546 6.47793 5.02067 6.22272 5.23942L4.58209 6.57926C5.07428 7.65478 5.73965 8.6027 6.57819 9.42301C7.41673 10.2616 8.36465 10.9269 9.42194 11.4191L10.7891 9.77848C10.9896 9.52327 11.2449 9.45947 11.5548 9.58708L14.6173 10.8996C14.9454 11.0454 15.0639 11.2915 14.9727 11.6379L14.3165 14.4816Z"/>
    </symbol>
    <symbol id="i_skrepka" viewBox="0 0 28 32">
       <path d="M24.4414 3.67969C20.7618 -1.19209e-07 14.7696 -1.19209e-07 11.0938 3.67969L0.898474 13.8672C0.832068 13.9336 0.796911 14.0234 0.796911 14.1172C0.796911 14.2109 0.832068 14.3008 0.898474 14.3672L2.33988 15.8086C2.40577 15.8742 2.49495 15.911 2.58793 15.911C2.6809 15.911 2.77009 15.8742 2.83597 15.8086L13.0313 5.62109C14.2969 4.35547 15.9805 3.66016 17.7696 3.66016C19.5586 3.66016 21.2422 4.35547 22.5039 5.62109C23.7696 6.88672 24.4649 8.57031 24.4649 10.3555C24.4649 12.1445 23.7696 13.8242 22.5039 15.0898L12.1133 25.4766L10.4297 27.1602C8.8555 28.7344 6.29691 28.7344 4.72269 27.1602C3.96097 26.3984 3.543 25.3867 3.543 24.3086C3.543 23.2305 3.96097 22.2188 4.72269 21.457L15.0313 11.1523C15.293 10.8945 15.6368 10.75 16.0039 10.75H16.0078C16.375 10.75 16.7149 10.8945 16.9727 11.1523C17.2344 11.4141 17.375 11.7578 17.375 12.125C17.375 12.4883 17.2305 12.832 16.9727 13.0898L8.54691 21.5078C8.4805 21.5742 8.44535 21.6641 8.44535 21.7578C8.44535 21.8516 8.4805 21.9414 8.54691 22.0078L9.98832 23.4492C10.0542 23.5148 10.1434 23.5516 10.2364 23.5516C10.3293 23.5516 10.4185 23.5148 10.4844 23.4492L18.9063 15.0273C19.6836 14.25 20.1094 13.2188 20.1094 12.1211C20.1094 11.0234 19.6797 9.98828 18.9063 9.21484C17.3008 7.60937 14.6914 7.61328 13.086 9.21484L12.086 10.2187L2.78129 19.5195C2.14977 20.1473 1.64917 20.8943 1.30853 21.7171C0.967896 22.5398 0.793993 23.422 0.796911 24.3125C0.796911 26.1211 1.50394 27.8203 2.78129 29.0977C4.1055 30.418 5.83988 31.0781 7.57425 31.0781C9.30863 31.0781 11.043 30.418 12.3633 29.0977L24.4414 17.0273C26.2188 15.2461 27.2032 12.875 27.2032 10.3555C27.2071 7.83203 26.2227 5.46094 24.4414 3.67969Z" fill="#707274"/>
    </symbol>
    <symbol id="i_boat" viewBox="0 0 32 31">
       <path fill-rule="evenodd" clip-rule="evenodd" d="M20.12 0H11.8797V2.33495H6.3858V10.7442L3.50221 11.5364L7.62239 18.06V23.5287C7.41092 23.3408 7.13595 23.1251 6.77634 22.9519C6.29323 22.7192 5.72376 22.5924 5.01288 22.5924C2.78043 22.5924 0.968176 23.8756 0.301693 24.5421C-0.100564 24.9444 -0.100564 25.5966 0.301693 25.9988C0.70395 26.4011 1.35614 26.4011 1.75839 25.9988C2.19062 25.5666 3.5097 24.6524 5.01288 24.6524C5.46938 24.6524 5.72394 24.7316 5.88246 24.8079C6.05073 24.889 6.18324 24.9993 6.39276 25.1965L6.44789 25.2487C6.6393 25.4306 6.92752 25.7044 7.30312 25.9132C7.75027 26.1618 8.27349 26.3005 8.92704 26.3005C9.54478 26.3005 10.0445 26.1979 10.4789 26.0191C10.8923 25.849 11.2059 25.6241 11.4293 25.4639L11.4414 25.4552C11.6802 25.284 11.817 25.189 11.9845 25.118C12.1346 25.0544 12.3483 24.9958 12.7039 24.9958C13.0587 24.9958 13.2314 25.054 13.334 25.1021C13.4466 25.155 13.523 25.2125 13.6917 25.3397L13.6918 25.3397C13.7322 25.3702 13.778 25.4047 13.8309 25.4441C14.0879 25.6355 14.4284 25.8686 14.9275 26.0405C15.4167 26.209 16.0032 26.3005 16.7554 26.3005C17.5008 26.3005 18.0757 26.2109 18.5466 26.0239C19.0415 25.8273 19.3397 25.5539 19.5429 25.3559L19.545 25.3538L19.545 25.3537C19.7462 25.1578 19.7763 25.1284 19.8475 25.0933C19.9082 25.0633 20.081 24.9958 20.5322 24.9958C20.9783 24.9958 21.1929 25.0617 21.3044 25.1112C21.4249 25.1646 21.5044 25.2288 21.7131 25.4051C21.9183 25.5783 22.2224 25.8335 22.6847 26.0211C23.142 26.2066 23.6849 26.3005 24.3777 26.3005C25.1178 26.3005 25.7057 26.1558 26.1971 25.8755C26.6507 25.6167 26.9533 25.2757 27.1506 25.0534L27.1733 25.0278C27.3889 24.7852 27.4926 24.6795 27.6305 24.6008C27.7486 24.5335 27.9676 24.4464 28.4292 24.4464C29.1527 24.4464 29.4843 24.6701 29.6385 24.829C29.8191 25.0151 29.869 25.2288 29.872 25.3086C29.893 25.8771 30.3709 26.3209 30.9394 26.2998C31.5079 26.2787 31.9517 25.8008 31.9306 25.2323C31.9107 24.6941 31.6859 23.9807 31.1169 23.3944C30.5215 22.7807 29.6284 22.3863 28.4292 22.3863C27.6891 22.3863 27.1012 22.5311 26.6098 22.8114C26.1561 23.0702 25.8535 23.4112 25.6563 23.6335L25.6336 23.6591C25.418 23.9016 25.3143 24.0073 25.1763 24.0861C25.0583 24.1534 24.8393 24.2404 24.3778 24.2404V18.06L28.4979 11.5364L25.6133 10.7439V2.33495H20.12V0ZM22.3171 5.63109H9.68194V9.83871L16.0001 8.10296L22.3171 9.83842V5.63109ZM26.2658 30.4762C25.7744 30.7565 25.1865 30.9013 24.4464 30.9013C23.7536 30.9013 23.2108 30.8074 22.7534 30.6218C22.2911 30.4343 21.987 30.1791 21.7819 30.0058C21.5731 29.8295 21.4936 29.7654 21.3732 29.7119C21.2616 29.6624 21.047 29.5965 20.6009 29.5965C20.1498 29.5965 19.9769 29.6641 19.9162 29.694C19.845 29.7292 19.8149 29.7585 19.6138 29.9545L19.6137 29.9545L19.6116 29.9566C19.4084 30.1546 19.1102 30.428 18.6153 30.6246C18.1445 30.8117 17.5696 30.9013 16.8241 30.9013C16.0719 30.9013 15.4855 30.8098 14.9962 30.6412C14.4971 30.4694 14.1566 30.2363 13.8997 30.0448C13.8468 30.0054 13.801 29.9709 13.7605 29.9404L13.7605 29.9404L13.7604 29.9404L13.7604 29.9403C13.5917 29.8132 13.5154 29.7557 13.4027 29.7029C13.3001 29.6547 13.1274 29.5965 12.7726 29.5965C12.417 29.5965 12.2033 29.6552 12.0533 29.7187C11.8857 29.7898 11.7489 29.8848 11.5101 30.056L11.498 30.0647C11.2747 30.2248 10.9611 30.4497 10.5477 30.6199C10.1133 30.7987 9.61352 30.9013 8.99578 30.9013C8.34222 30.9013 7.819 30.7626 7.37186 30.514C6.99626 30.3051 6.70803 30.0313 6.51663 29.8495L6.4615 29.7973C6.25198 29.6001 6.11946 29.4897 5.9512 29.4087C5.79267 29.3323 5.53811 29.2532 5.08161 29.2532C3.57843 29.2532 2.25936 30.1673 1.82713 30.5996C1.42487 31.0018 0.772686 31.0018 0.370429 30.5996C-0.0318276 30.1973 -0.0318276 29.5451 0.370429 29.1429C1.03691 28.4764 2.84917 27.1931 5.08161 27.1931C5.79249 27.1931 6.36197 27.32 6.84508 27.5526C7.31844 27.7806 7.64515 28.0823 7.87341 28.2971L7.88638 28.3093C8.12591 28.5348 8.23323 28.6358 8.37291 28.7134C8.48156 28.7738 8.65362 28.8412 8.99578 28.8412C9.37374 28.8412 9.6036 28.7807 9.76363 28.7148C9.93712 28.6434 10.0789 28.5473 10.3097 28.3817L10.3399 28.3601C10.5547 28.2058 10.8584 27.9877 11.2494 27.822C11.6766 27.6409 12.1668 27.5364 12.7726 27.5364C13.3792 27.5364 13.8588 27.6413 14.2777 27.8378C14.6044 27.9911 14.8762 28.1989 15.0508 28.3324L15.051 28.3326L15.0515 28.3329C15.0806 28.3552 15.107 28.3754 15.1305 28.3929C15.3113 28.5276 15.4558 28.6207 15.667 28.6934C15.888 28.7696 16.2372 28.8412 16.8241 28.8412C17.4177 28.8412 17.7097 28.7677 17.8548 28.7101C17.9758 28.662 18.0424 28.6093 18.1739 28.4811L18.2001 28.4553L18.2178 28.4377C18.3622 28.2942 18.6228 28.0351 19.0045 27.8467C19.4396 27.632 19.9534 27.5364 20.6009 27.5364C21.2535 27.5364 21.7686 27.6336 22.2085 27.8288C22.6112 28.0074 22.8942 28.2478 23.0744 28.4008L23.111 28.4319C23.2921 28.5848 23.3871 28.6558 23.5279 28.7129C23.6735 28.7719 23.9375 28.8412 24.4464 28.8412C24.908 28.8412 25.127 28.7541 25.2451 28.6868C25.383 28.6081 25.4868 28.5024 25.7023 28.2598L25.725 28.2342C25.9223 28.0119 26.2249 27.6709 26.6785 27.4121C27.17 27.1318 27.7578 26.9871 28.4979 26.9871C29.6972 26.9871 30.5902 27.3815 31.1856 27.9951C31.7547 28.5815 31.9794 29.2949 31.9994 29.8331C32.0204 30.4016 31.5766 30.8795 31.0082 30.9005C30.4397 30.9216 29.9617 30.4778 29.9407 29.9093C29.9377 29.8295 29.8878 29.6159 29.7072 29.4297C29.553 29.2708 29.2215 29.0472 28.4979 29.0472C28.0363 29.0472 27.8173 29.1342 27.6993 29.2015C27.5613 29.2802 27.4576 29.386 27.242 29.6285L27.2193 29.6541C27.0221 29.8764 26.7195 30.2174 26.2658 30.4762Z" fill="white"/>
    </symbol>
    <symbol id="i_vagon" viewBox="0 0 38 25">
        <path d="M14.8642 0L19 2.44734L23.1358 0L30.0509 4.09202H7.94908L14.8642 0Z" fill="white"/>
        <path d="M1.88362 17.5081V6.02606H36.1164V17.5081H1.88362Z" fill="white"/>
        <path d="M0 19.0554H38V21.0098L36.1164 21.0098V22.9642C36.1164 24.0885 35.1997 25 34.069 25C32.9382 25 32.0216 24.0885 32.0216 22.9642H28.7457C28.7457 24.0885 27.829 25 26.6983 25C25.5675 25 24.6509 24.0885 24.6509 22.9642V21.0098H13.3491V22.9642C13.3491 24.0885 12.4325 25 11.3017 25C10.171 25 9.25431 24.0885 9.25431 22.9642H5.97845C5.97845 24.0885 5.06179 25 3.93103 25C2.80028 25 1.88362 24.0885 1.88362 22.9642V21.0098L0 21.0098V19.0554Z" fill="white"/>
    </symbol>
    <symbol id="i_calendar" viewBox="0 0 20 20">
        <path fill-rule="evenodd" clip-rule="evenodd" d="M5 0C4.30964 0 3.75 0.559644 3.75 1.25V2.5H1C0.447715 2.5 0 2.94772 0 3.5V19C0 19.5523 0.447716 20 1 20H19C19.5523 20 20 19.5523 20 19V3.5C20 2.94772 19.5523 2.5 19 2.5H16.25V1.25C16.25 0.559644 15.6904 0 15 0C14.3096 0 13.75 0.559644 13.75 1.25V2.5H6.25V1.25C6.25 0.559644 5.69036 0 5 0ZM2.25 6.25C1.69772 6.25 1.25 6.69772 1.25 7.25V17.75C1.25 18.3023 1.69772 18.75 2.25 18.75H17.75C18.3023 18.75 18.75 18.3023 18.75 17.75V7.25C18.75 6.69772 18.3023 6.25 17.75 6.25H2.25Z"/>
        <path d="M12.5 13.5C12.5 12.9477 12.9477 12.5 13.5 12.5H16.5C17.0523 12.5 17.5 12.9477 17.5 13.5V16.5C17.5 17.0523 17.0523 17.5 16.5 17.5H13.5C12.9477 17.5 12.5 17.0523 12.5 16.5V13.5Z"/>
    </symbol>
    <symbol id="i_category" viewBox="0 0 20 17">
        <path d="M1.31579 0C0.589099 0 0 0.589099 0 1.31579C0 2.04248 0.589099 2.63158 1.31579 2.63158C2.04248 2.63158 2.63158 2.04248 2.63158 1.31579C2.63158 0.589099 2.04248 0 1.31579 0Z"/>
        <path d="M6.40214 0C5.67545 0 5.08635 0.589099 5.08635 1.31579C5.08635 2.04248 5.67544 2.63158 6.40213 2.63158H18.6843C19.411 2.63158 20.0001 2.04248 20.0001 1.31579C20.0001 0.589099 19.411 0 18.6843 0H6.40214Z"/>
        <path d="M0 8.15789C0 7.4312 0.589099 6.8421 1.31579 6.8421C2.04248 6.8421 2.63158 7.4312 2.63158 8.15789C2.63158 8.88458 2.04248 9.47368 1.31579 9.47368C0.589099 9.47368 0 8.88458 0 8.15789Z"/>
        <path d="M6.40214 6.8421C5.67545 6.8421 5.08635 7.4312 5.08635 8.15789C5.08635 8.88458 5.67544 9.47368 6.40213 9.47368H18.6843C19.411 9.47368 20.0001 8.88458 20.0001 8.15789C20.0001 7.4312 19.411 6.8421 18.6843 6.8421H6.40214Z"/>
        <path d="M0 15C0 14.2733 0.589099 13.6842 1.31579 13.6842C2.04248 13.6842 2.63158 14.2733 2.63158 15C2.63158 15.7267 2.04248 16.3158 1.31579 16.3158C0.589099 16.3158 0 15.7267 0 15Z"/>
        <path d="M6.40214 13.6842C5.67545 13.6842 5.08635 14.2733 5.08635 15C5.08635 15.7267 5.67544 16.3158 6.40213 16.3158H18.6843C19.411 16.3158 20.0001 15.7267 20.0001 15C20.0001 14.2733 19.411 13.6842 18.6843 13.6842H6.40214Z"/>
    </symbol>
    <symbol id="i_pin" viewBox="0 0 14 20">
        <path d="M7 0C3.13997 0 0 3.15398 0 7.03125C0 8.34102 0.361161 9.61934 1.04421 10.7283L6.60127 19.7228C6.83169 20.0966 7.37497 20.0909 7.59819 19.7148L13.0134 10.6333C13.6582 9.54781 14 8.30211 14 7.03125C14 3.15398 10.86 0 7 0ZM7 10.5547C5.04214 10.5547 3.49222 8.95395 3.49222 7.03125C3.49222 5.09262 5.06998 3.50781 7 3.50781C8.93002 3.50781 10.5078 5.09262 10.5078 7.03125C10.5078 8.93699 8.97871 10.5547 7 10.5547Z"/>
    </symbol>
    <symbol id="i_chat" viewBox="0 0 20 18">
        <path fill-rule="evenodd" clip-rule="evenodd" d="M20 8C20 3.58 15.5 0 10 0C4.5 0 0 3.58 0 8C0 10.13 1.05 12.07 2.75 13.5C2.7 14.1 2.33 15.67 0 18C0 18 3.55 18 6.47 15.5C7.57 15.82 8.76 16 10 16C15.5 16 20 12.42 20 8ZM6 9.5C6.82843 9.5 7.5 8.82843 7.5 8C7.5 7.17157 6.82843 6.5 6 6.5C5.17157 6.5 4.5 7.17157 4.5 8C4.5 8.82843 5.17157 9.5 6 9.5ZM11.5 8C11.5 8.82843 10.8284 9.5 10 9.5C9.17157 9.5 8.5 8.82843 8.5 8C8.5 7.17157 9.17157 6.5 10 6.5C10.8284 6.5 11.5 7.17157 11.5 8ZM14 9.5C14.8284 9.5 15.5 8.82843 15.5 8C15.5 7.17157 14.8284 6.5 14 6.5C13.1716 6.5 12.5 7.17157 12.5 8C12.5 8.82843 13.1716 9.5 14 9.5Z"/>
    </symbol>
    <symbol id="i_mail2" viewBox="0 0 16 16">
        <path d="M8.6549 15.8425C9.27127 15.7221 9.66635 15.1583 9.53727 14.5833C9.40818 14.0084 8.80413 13.6404 8.18745 13.7603C3.52102 14.6721 0.632248 9.80214 3.31166 5.45665C4.97476 2.75966 8.50233 1.21461 11.2673 2.7091C13.8604 4.11092 14.5061 7.62542 12.7067 10.5435C12.5662 10.7713 12.3398 10.934 12.0691 11.0017C11.1725 11.2252 10.4245 10.3146 10.8929 9.55495C12.8095 6.44697 10.8904 3.47457 8.03298 4.188C6.89419 4.47263 5.83439 5.29526 5.12535 6.44513C2.96774 9.94432 5.65863 13.1082 8.84905 11.4858C10.0649 13.6786 13.3803 13.7177 14.6835 11.6041C17.1078 7.67258 16.0883 2.8566 12.4108 0.868567C8.60974 -1.18626 3.69366 0.570462 1.33475 4.39605C-2.35991 10.3878 2.11388 17.1198 8.6549 15.8425ZM6.93958 9.74173C6.5765 9.54538 6.45624 8.55349 7.10234 7.50573C7.52448 6.82124 8.2678 6.21063 8.85992 6.21063C8.93701 6.21063 9.01387 6.22332 9.07886 6.25842C9.44186 6.4547 9.56212 7.44652 8.91603 8.49428C8.29145 9.50723 7.31497 9.94439 6.93958 9.74173Z"/>
    </symbol>
    <symbol id="i_rouble" viewBox="0 0 22 25">
        <path d="M13.7016 14.652C18.7056 14.652 21.5496 11.304 21.5496 7.344C21.5496 3.384 18.7416 0 13.7016 0H3.15361V11.34H0.849609V14.652H3.15361V17.712H0.849609V20.088H3.15361V24.012H7.36562V20.088H16.2576V17.712H7.36562V14.652H13.7016ZM7.36562 3.708H13.1256C15.5016 3.708 17.2296 5.22 17.2296 7.524C17.2296 9.828 15.5016 11.34 13.1256 11.34H7.36562V3.708Z"/>
    </symbol>
    <symbol id="i_docs" viewBox="0 0 32 32" fill="none" xmlns="http://www.w3.org/2000/svg">
        <path opacity="0.6" d="M13.3325 15.3569H22.96V17.4695H13.3325V15.3569Z" fill="#949300"/>
        <path opacity="0.6" d="M13.3325 19.3445H22.96V21.4861H13.3325V19.3445Z" fill="#949300"/>
        <path opacity="0.6" d="M9.19946 15.3569H11.4575V25.4734H9.19946V15.3569Z" fill="#949300"/>
        <path opacity="0.6" d="M23.1875 0.0195312V6.25H29.4375L23.1875 0.0195312Z" fill="#949300"/>
        <path d="M22.25 8.125C21.7322 8.125 21.3125 7.70532 21.3125 7.1875V0H6.74756C4.43994 0 2.5625 1.87744 2.5625 4.18506V27.8149C2.5625 30.1226 4.43994 32 6.74756 32H25.2524C27.5601 32 29.4375 30.1226 29.4375 27.8149V8.125H22.25ZM24.835 26.2131C24.835 26.8391 24.3257 27.3484 23.6997 27.3484H8.45972C7.83374 27.3484 7.32446 26.8391 7.32446 26.2131V14.6172C7.32446 13.9912 7.83374 13.4819 8.45972 13.4819H23.6997C24.3257 13.4819 24.835 13.9912 24.835 14.6172V26.2131Z" fill="#949300"/>
        <path opacity="0.6" d="M13.3325 23.3608H22.96V25.4734H13.3325V23.3608Z" fill="#949300"/>
    </symbol>
    <symbol id="i_idea" viewBox="0 0 32 32" fill="none" xmlns="http://www.w3.org/2000/svg">
        <path opacity="0.6" d="M10.0417 28.0499C10.0417 28.8929 10.5194 29.887 11.1776 30.4134L12.1197 31.1672C12.7132 31.6419 13.7337 31.9999 14.4937 31.9999H17.5062C18.2662 31.9999 19.2867 31.6419 19.88 31.1672L20.8224 30.4134C21.4806 29.8867 21.9584 28.8927 21.9584 28.0499V25.9749H10.0417V28.0499Z" fill="#949300"/>
        <path d="M24.5653 3.60275C22.3647 1.35406 19.4226 0.07575 16.2831 0.0035C16.0946 -0.0011875 15.9024 -0.001125 15.7192 0.0034375C12.5773 0.07575 9.63516 1.354 7.4346 3.60275C5.23048 5.85512 4.0166 8.83131 4.0166 11.9832C4.0166 14.2328 4.64379 16.4257 5.83035 18.3248C6.88091 20.0061 8.32923 21.3996 10.0418 22.3824V24.0999H21.9584V22.3824C23.6707 21.3995 25.1189 20.0061 26.1695 18.3248C27.3561 16.4256 27.9833 14.2327 27.9833 11.9832C27.9833 8.83131 26.7694 5.85512 24.5653 3.60275ZM23.0165 10.6269L20.1885 13.3837L20.8473 17.2253C20.8625 17.2927 20.8707 17.3627 20.8707 17.4347C20.8707 17.9517 20.4523 18.3709 19.9357 18.3722C19.9344 18.3722 19.9331 18.3722 19.9319 18.3722C19.7825 18.3722 19.6329 18.3367 19.4957 18.2646L16 16.4266L12.504 18.2646C12.3669 18.3366 12.2171 18.3722 12.0678 18.3722C11.8735 18.3722 11.6801 18.3119 11.5167 18.1932C11.228 17.9835 11.0834 17.628 11.1437 17.2763L11.8115 13.3837L8.98335 10.627C8.72773 10.3779 8.63579 10.0054 8.74616 9.66594C8.85641 9.32656 9.14973 9.07919 9.50285 9.02794L13.4113 8.46012L15.1592 4.91831C15.317 4.59831 15.643 4.39575 15.9999 4.39575C16.3567 4.39575 16.6827 4.59831 16.8406 4.91831L18.5885 8.46012L22.4969 9.02794C22.85 9.07919 23.1434 9.32656 23.2537 9.66594C23.364 10.0053 23.2721 10.3778 23.0165 10.6269Z" fill="#949300"/>
    </symbol>  
    <symbol id="i_news" viewBox="0 0 32 32" fill="none" xmlns="http://www.w3.org/2000/svg">
        <path d="M12.1875 9.46875V11.3438L27.3125 11.2812V9.40625L12.1875 9.46875Z" fill="#949300"/>
        <path d="M21.625 16.9688V22.5938L27.3125 22.5312V16.9062L21.625 16.9688Z" fill="#949300"/>
        <path d="M31.0625 1.90625L7.50001 1.96875V27.2812C7.50001 28.3405 7.13345 29.3079 6.53857 30.0938L28.25 30.0312C30.3182 30.0312 32 28.3494 32 26.2812V2.84375C32 2.32556 31.5807 1.90625 31.0625 1.90625ZM16.9375 24.4688H11.25C10.7318 24.4688 10.3125 24.0494 10.3125 23.5312C10.3125 23.0131 10.7318 22.5938 11.25 22.5938H16.9375C17.4557 22.5938 17.875 23.0131 17.875 23.5312C17.875 24.0494 17.4557 24.4688 16.9375 24.4688ZM16.9375 20.7188H11.25C10.7318 20.7188 10.3125 20.2994 10.3125 19.7812C10.3125 19.2631 10.7318 18.8438 11.25 18.8438H16.9375C17.4557 18.8438 17.875 19.2631 17.875 19.7812C17.875 20.2994 17.4557 20.7188 16.9375 20.7188ZM16.9375 16.9688H11.25C10.7318 16.9688 10.3125 16.5494 10.3125 16.0312C10.3125 15.5131 10.7318 15.0938 11.25 15.0938H16.9375C17.4557 15.0938 17.875 15.5131 17.875 16.0312C17.875 16.5494 17.4557 16.9688 16.9375 16.9688ZM29.1875 23.4688C29.1875 23.9869 28.7682 24.4062 28.25 24.4062L20.6875 24.4688C20.1693 24.4688 19.75 24.0494 19.75 23.5312V16.0312C19.75 15.5131 20.1693 15.0938 20.6875 15.0938L28.25 15.0312C28.7682 15.0312 29.1875 15.4506 29.1875 15.9688V23.4688ZM29.1875 12.2188C29.1875 12.7369 28.7682 13.1562 28.25 13.1562L11.25 13.2188C10.7318 13.2188 10.3125 12.7994 10.3125 12.2812V8.53125C10.3125 8.01306 10.7318 7.59375 11.25 7.59375L28.25 7.53125C28.7682 7.53125 29.1875 7.95056 29.1875 8.46875V12.2188Z" fill="#949300"/>
        <path opacity="0.6" d="M0.9375 5.71875C0.41975 5.71875 0 6.13837 0 6.65625V27.2812C0 28.8346 1.25919 30.0938 2.8125 30.0938C4.36581 30.0938 5.625 28.8346 5.625 27.2812V5.71875H0.9375Z" fill="#949300"/>
    </symbol>
    <symbol id="i_prof" viewBox="0 0 32 32" fill="none" xmlns="http://www.w3.org/2000/svg">
        <path d="M28.3333 6.66675H3.66667C1.64 6.66675 0 8.30675 0 10.3334V14.6667H12C12 12.9161 13.0787 12.0001 14.3333 12.0001H17.6667C18.9213 12.0001 20 12.9161 20 14.6667H32V10.3334C32 8.30675 30.36 6.66675 28.3333 6.66675Z" fill="#949300"/>
        <path d="M20 17.3333C20 19.0839 18.9213 19.9999 17.6667 19.9999H14.3333C13.0787 19.9999 12 19.0839 12 17.3333H0V25.6666C0 27.6933 1.64 29.3333 3.66667 29.3333H28.3333C30.36 29.3333 32 27.6933 32 25.6666V17.3333H20Z" fill="#949300"/>
        <path opacity="0.6" d="M20.3333 8.66675C19.7813 8.66675 19.3333 8.21875 19.3333 7.66675V5.00008C19.3333 4.81608 19.184 4.66675 19 4.66675H13C12.816 4.66675 12.6666 4.81608 12.6666 5.00008V7.66675C12.6666 8.21875 12.2186 8.66675 11.6666 8.66675C11.1146 8.66675 10.6666 8.21875 10.6666 7.66675V5.00008C10.6666 3.71341 11.7133 2.66675 13 2.66675H19C20.2866 2.66675 21.3333 3.71341 21.3333 5.00008V7.66675C21.3333 8.21875 20.8853 8.66675 20.3333 8.66675Z" fill="#949300"/>
    </symbol>
    <symbol id="i_target" viewBox="0 0 32 32" fill="none" xmlns="http://www.w3.org/2000/svg">
        <circle cx="16" cy="16" r="14" stroke="#949300" stroke-width="4"/>
        <circle opacity="0.6" cx="16" cy="16" r="6" fill="#949300"/>
    </symbol>
    <symbol id="i_share" viewBox="0 0 15 15" xmlns="http://www.w3.org/2000/svg">
        <path d="M12.0174 10.6031C11.4455 10.6031 10.9336 10.8275 10.5436 11.1812L5.17296 8.0575C5.21172 7.88438 5.24171 7.71 5.24171 7.52999C5.24171 7.34999 5.21109 7.17624 5.17296 7.00249L10.483 3.9081C10.888 4.2831 11.4236 4.51746 12.0174 4.51746C13.2692 4.51746 14.278 3.51058 14.278 2.25872C14.278 1.00937 13.2686 0 12.0174 0C10.768 0 9.75861 1.00936 9.75861 2.25812C9.75861 2.44061 9.78923 2.61187 9.82736 2.78562L4.51732 5.8825C4.1117 5.50564 3.57671 5.27187 2.98231 5.27187C1.73044 5.27187 0.72168 6.28064 0.72168 7.52999C0.72168 8.77935 1.73044 9.78874 2.98231 9.78874C3.57605 9.78874 4.1117 9.55435 4.5167 9.17937L9.87794 12.31C9.84107 12.4694 9.81793 12.6356 9.81793 12.8013C9.81793 14.0138 10.806 15 12.0167 15C13.2286 15 14.2173 14.0144 14.2173 12.8013C14.2173 11.5881 13.2292 10.6031 12.0174 10.6031Z"/>
    </symbol>
    <symbol id="i_bookmark" viewBox="0 0 13 15" xmlns="http://www.w3.org/2000/svg">
        <path d="M12.6521 0.49577C12.5232 0.310584 12.3495 0.175159 12.1316 0.0892503C11.9928 0.0298367 11.8474 7.78627e-05 11.6953 7.78627e-05V-6.10352e-05H1.30524C1.15325 -6.10352e-05 1.00793 0.0296978 0.869104 0.0891114C0.651035 0.17495 0.477482 0.310549 0.348619 0.495631C0.219791 0.680712 0.155273 0.885517 0.155273 1.11029V13.8896C0.155273 14.1144 0.219791 14.3191 0.348619 14.5044C0.477482 14.6894 0.651035 14.825 0.869104 14.9108C1.00779 14.9702 1.15325 14.9999 1.30524 14.9999C1.61599 14.9999 1.89014 14.8908 2.12814 14.6729L6.5003 10.4691L10.8725 14.673C11.1038 14.8841 11.3781 14.9899 11.6953 14.9899C11.8605 14.9899 12.006 14.9637 12.1316 14.9108C12.3495 14.825 12.5231 14.6894 12.6521 14.5041C12.7809 14.3191 12.8453 14.1143 12.8453 13.8895V1.11043C12.8453 0.885656 12.7808 0.680851 12.6521 0.49577Z"/>
    </symbol>
    <symbol id="ifile" viewBox="0 0 72 96" xmlns="http://www.w3.org/2000/svg">
        <path d="M45 0H9C6.61305 0 4.32387 1.01143 2.63604 2.81177C0.948211 4.61212 0 7.05392 0 9.6V86.4C0 88.9461 0.948211 91.3879 2.63604 93.1882C4.32387 94.9886 6.61305 96 9 96H63C65.387 96 67.6761 94.9886 69.364 93.1882C71.0518 91.3879 72 88.9461 72 86.4V28.8L45 0ZM45 33.6H40.5V9.6L63 33.6H45Z"/>
    </symbol>

</svg>