<svg width="120" height="120" viewBox="0 0 120 120" fill="none" xmlns="http://www.w3.org/2000/svg">
<path d="M80.1018 68.8659C79.602 69.3653 62.7674 85.9183 61.585 87.1363C65.2436 89.638 69.4438 91.2371 73.8408 91.8024C78.2378 92.3677 82.7063 91.8832 86.8796 90.3885C87.8792 90.0231 89.6467 89.5724 90.6829 89.073L91.7313 87.9524C96.6769 82.6075 100.051 76.0032 101.483 68.8659C94.3643 65.8452 85.0388 64.7977 80.1018 68.8659Z" fill="url(#paint0_linear)"/>
<path d="M80.1017 47.6846C84.8071 52.3983 95.7417 52.8003 100.825 48.8417C99.606 43.5554 94.7299 34.2254 89.4516 29.7674L87.9887 28.4275C84.3361 25.2248 80.1534 22.6817 75.6279 20.9123L72.9339 19.9623L68.6551 18.8538C65.7427 18.2959 62.7827 18.0226 59.8173 18.0378C56.9504 18.0378 54.091 18.3317 51.2841 18.9148L46.8104 20.1328L44.2626 21.0463C40.5426 22.6268 37.0727 24.7399 33.9619 27.3191C38.4324 25.9526 43.1609 25.6506 47.7692 26.4374C52.3774 27.2242 56.7373 29.0779 60.4999 31.8502C60.4999 31.8502 79.5775 47.1608 80.1017 47.6846Z" fill="url(#paint1_linear)"/>
<path d="M30.768 90.2058C34.6477 94.0082 39.2367 97.0127 44.2747 99.0486L46.8225 99.9622L51.3085 101.18C56.9374 102.311 62.7316 102.348 68.3747 101.29L72.9582 100.133L75.9814 99.0486C79.8296 97.4773 83.4336 95.365 86.6843 92.7758C82.057 94.0821 77.1986 94.3545 72.4542 93.5735C67.7097 92.7925 63.1954 90.9773 59.2321 88.2569L32.7063 61.777C29.5142 66.4403 27.8139 71.9618 27.8302 77.6114C27.8341 80.6477 28.3154 83.6646 29.2564 86.5517C29.6584 87.7341 30.1264 88.893 30.6583 90.0231L30.768 90.2058Z" fill="url(#paint2_linear)"/>
<path d="M29.6707 30.9732C25.8697 34.8556 22.8671 39.4447 20.8328 44.4811L19.9064 47.0268L18.6874 51.5092C17.5189 57.1333 17.5189 62.9374 18.6874 68.5615L19.9064 73.0317L20.8328 75.5896C22.4014 79.3133 24.5174 82.7822 27.1108 85.8819C26.2362 83.0352 25.7764 80.0775 25.7455 77.0999C25.7305 70.7332 27.779 64.5328 31.5846 59.4263L58.0982 32.9586C54.4371 30.4581 50.2367 28.8568 45.839 28.2853C41.4414 27.7139 36.9708 28.1883 32.7914 29.6699C31.804 30.0353 30.78 30.4495 29.756 30.9489L29.6707 30.9732Z" fill="url(#paint3_linear)"/>
<path d="M94.6566 29.8417C101.979 38.1966 106.016 48.9245 106.016 60.0305C106.016 71.1364 101.979 81.8643 94.6566 90.2193C93.2204 91.8938 91.6553 93.4536 89.9756 94.8843L87.7692 96.7113C87.2572 97.0889 86.733 97.4665 86.1723 97.8441C83.3844 99.7881 80.3923 101.422 77.2491 102.716C66.0717 107.193 53.5887 107.145 42.4462 102.582C39.3888 101.261 36.4762 99.6288 33.7546 97.7101L32.2064 96.5895C31.4141 95.9805 30.6705 95.3715 29.9147 94.7138C28.2255 93.2635 26.6485 91.6878 25.1971 90C18.0171 81.6583 14.0687 71.0206 14.0687 60.0183C14.0687 49.0159 18.0171 38.3782 25.1971 30.0365C26.6517 28.3517 28.2285 26.7762 29.9147 25.3228C30.6705 24.665 31.4141 24.1048 32.2064 23.447C32.7184 23.0572 33.2426 22.6918 33.7546 22.3264C36.4866 20.4652 39.3983 18.882 42.4462 17.6005C53.5751 12.9738 66.0816 12.9213 77.2491 17.4543C80.3969 18.7138 83.3907 20.3279 86.1723 22.2655C86.733 22.6066 87.2572 23.0207 87.7692 23.3983C88.5128 23.9586 89.2686 24.5554 90.0122 25.1766L94.6566 29.8417ZM109.163 56.7113V56.4312C111.345 51.7174 115.465 51.5591 120 55.9196C120 48.7211 118.464 43.0207 114.99 39.7929C110.114 35.4446 104.97 38.2826 100.776 32.3752C100.288 27.2107 103.836 25.067 109.943 26.4799C106.286 20.3045 102.093 16.151 97.5091 15.0792C96.5758 14.8557 95.6117 14.7899 94.6566 14.8843C93.0596 15.0357 91.4874 15.3835 89.9756 15.9196C89.2393 16.1621 88.4905 16.3654 87.7326 16.5286C87.2064 16.6343 86.6722 16.6954 86.1357 16.7113C84.5255 16.7915 82.9218 16.4559 81.4791 15.7369C78.5412 11.5469 80.4551 8.01462 86.1357 6.16322C86.2531 6.1402 86.3648 6.0947 86.4649 6.02923C86.3623 5.96875 86.2514 5.92361 86.1357 5.89525C83.3561 4.24782 80.3497 3.01669 77.2125 2.24117C74.8138 1.62233 72.2971 1.62233 69.8984 2.24117C64.9492 3.92205 63.8033 8.03898 59.8903 9.95128C58.8901 10.4316 57.8131 10.7326 56.7087 10.8404H56.4283C51.7107 8.63581 51.5522 4.53106 55.9163 0C50.3941 0 45.7131 0.937881 42.3486 2.8989C41.4078 3.51164 40.5478 4.24004 39.7887 5.06699C35.8635 9.56151 37.8748 14.2266 33.6936 18.1973C33.2805 18.5888 32.8406 18.951 32.3771 19.2814H32.0967C31.3302 19.3319 30.5603 19.2869 29.805 19.1474C26.4892 18.3435 25.2824 15.0792 26.4892 10.1218L25.0874 10.9622C19.6627 14.3727 15.9691 18.2704 14.9817 22.4482C13.6774 28.916 18.7729 31.9488 15.6034 38.6236C11.3369 41.6565 7.692 39.6955 5.91223 33.6784C2.34051 39.9391 0.828931 45.676 2.19423 50.1705C4.29094 56.2607 10.0081 56.4312 10.8492 63.3861V63.6784C8.69159 68.3922 4.53474 68.5506 0 64.2387C0 71.3886 1.58472 77.1376 5.04673 80.3532C9.9228 84.6529 15.0792 81.827 19.2727 87.7467C19.7603 92.8867 16.2007 95.0548 10.0935 93.6297C13.7505 99.8417 17.9561 104.044 22.5396 105.079C23.3865 105.246 24.2486 105.324 25.1117 105.311C26.722 105.175 28.3078 104.831 29.8293 104.287C30.5851 104.044 31.3287 103.812 32.1211 103.63C32.6331 103.544 33.1573 103.435 33.6692 103.398C35.3537 103.304 37.0338 103.648 38.5453 104.397C41.4709 108.624 39.5449 112.205 33.6692 114.019C33.6373 114.028 33.6037 114.028 33.5717 114.019C33.5717 114.019 33.6692 114.019 33.6692 114.105C36.3901 115.705 39.3133 116.934 42.3608 117.759C44.8874 118.443 47.5507 118.443 50.0772 117.759C54.9533 116.115 56.0748 112.058 59.9025 110.134C60.9618 109.624 62.099 109.295 63.267 109.16H63.5473C68.2771 111.352 68.4234 115.469 64.0715 120C69.3499 120 73.8236 119.16 77.1638 117.345C78.305 116.722 79.3449 115.929 80.2479 114.994C84.1243 110.56 82.2105 105.993 86.087 102.058C86.6056 101.565 87.1687 101.121 87.7692 100.731C87.7376 100.742 87.7032 100.742 87.6717 100.731C87.6717 100.731 87.6717 100.731 87.7692 100.646C87.8667 100.56 87.7692 100.646 87.8545 100.646C87.8292 100.677 87.8006 100.706 87.7692 100.731C88.5183 100.694 89.2691 100.727 90.0122 100.828C93.5108 101.486 94.8883 104.799 93.6692 109.903C94.048 109.708 94.4107 109.484 94.7542 109.233C100.362 105.773 104.153 101.803 105.14 97.5152C106.445 91.011 101.337 88.0268 104.482 81.3398C104.482 81.3398 104.482 81.4373 104.482 81.4738C108.736 78.4897 112.381 80.4507 114.161 86.4312C117.818 80.2192 119.269 74.4702 117.903 69.9878C115.697 63.8612 109.943 63.6784 109.163 56.7113Z" fill="#BAB9B9"/>
<defs>
<linearGradient id="paint0_linear" x1="104.799" y1="62.3008" x2="48.6534" y2="110.604" gradientUnits="userSpaceOnUse">
<stop offset="0.3" stop-color="#CBCACA"/>
<stop offset="0.38" stop-color="#C5C4C4"/>
<stop offset="0.5" stop-color="#B3B2B2"/>
<stop offset="0.63" stop-color="#969495"/>
<stop offset="0.78" stop-color="#6D6C6C"/>
<stop offset="0.87" stop-color="#525051"/>
</linearGradient>
<linearGradient id="paint1_linear" x1="56.3187" y1="22.4348" x2="101.65" y2="72.6907" gradientUnits="userSpaceOnUse">
<stop offset="0.04" stop-color="#FFFD7F"/>
<stop offset="0.12" stop-color="#FFFD60"/>
<stop offset="0.2" stop-color="#FFFD43"/>
<stop offset="0.3" stop-color="#FFFC2A"/>
<stop offset="0.4" stop-color="#FFFC17"/>
<stop offset="0.53" stop-color="#FFFC0A"/>
<stop offset="0.69" stop-color="#FFFC02"/>
<stop offset="1" stop-color="#FFFC00"/>
</linearGradient>
<linearGradient id="paint2_linear" x1="68.1675" y1="99.7307" x2="17.1144" y2="55.0733" gradientUnits="userSpaceOnUse">
<stop offset="0.3" stop-color="#979697"/>
<stop offset="0.32" stop-color="#919091"/>
<stop offset="0.49" stop-color="#767475"/>
<stop offset="0.66" stop-color="#626061"/>
<stop offset="0.83" stop-color="#565455"/>
<stop offset="1" stop-color="#525051"/>
</linearGradient>
<linearGradient id="paint3_linear" x1="14.0063" y1="72.6541" x2="52.5207" y2="34.5108" gradientUnits="userSpaceOnUse">
<stop offset="0.35" stop-color="#BCC76A"/>
<stop offset="0.95" stop-color="#90A107"/>
</linearGradient>
</defs>
</svg>
