<svg width="149" height="58" viewBox="0 0 149 58" fill="none" xmlns="http://www.w3.org/2000/svg">
<path d="M65.5098 19.771C63.4438 21.9553 62.3534 25.1577 62.3534 29.0257C62.3534 36.6364 66.5199 41.3633 73.2229 41.3633C78.7438 41.3633 82.52 38.1836 83.553 32.6433L83.6449 32.1542H78.0494L77.9805 32.4841C77.4583 35.0608 75.7538 36.5397 73.2975 36.5397C69.3434 36.5397 67.9316 32.6888 67.9316 29.0882C67.9316 23.4569 70.7035 21.449 73.2975 21.449C76.9647 21.449 77.6304 23.8779 77.992 25.1861L78.0723 25.4876H83.6047L83.5702 25.0496C83.2603 20.994 79.9088 16.6255 73.2402 16.6255C71.8017 16.5872 70.371 16.8472 69.0397 17.3889C67.7085 17.9306 66.5062 18.7419 65.5098 19.771V19.771Z" fill="#CCCBCB"/>
<path d="M99.0425 17.2227L94.5145 29.3044C93.7799 27.8084 88.6264 17.2227 88.6264 17.2227H82.2791L91.823 35.2258C91.1458 36.426 90.8588 36.608 89.8258 36.608C89.2458 36.5925 88.6729 36.477 88.1328 36.2667L87.5589 36.0051V40.9993L87.8688 41.0732C88.8697 41.2628 89.8858 41.3618 90.9047 41.369C93.3495 41.369 95.0827 40.658 96.6838 37.0233L105.367 17.2227H99.0425Z" fill="#CCCBCB"/>
<path d="M104.518 25.0553L104.483 25.4933H110.015L110.102 25.1919C110.463 23.8836 111.129 21.4547 114.819 21.4547C115.726 21.4547 118.664 21.8017 119.703 26.0053H113.39V30.7378H119.944C119.668 32.7799 118.635 36.5284 114.779 36.5284C112.328 36.5284 110.624 35.0494 110.102 32.4727L110.033 32.1428H104.449L104.541 32.632C105.597 38.1893 109.361 41.3861 114.882 41.3861C121.625 41.3861 125.821 36.6592 125.821 29.0484C125.821 21.4377 121.499 16.6482 114.819 16.6482C108.139 16.6482 104.827 20.9997 104.518 25.0553Z" fill="#CCCBCB"/>
<path d="M141.281 17.2227L133.143 25.8403V17.2227H127.548V40.7774H133.143V32.8538L134.922 31.0393L141.809 40.8002H149L138.842 26.995L148.638 17.2227H141.281Z" fill="#CCCBCB"/>
<path d="M37.7106 33.1268C37.4753 33.3601 29.5498 41.0903 28.9932 41.6591C30.7156 42.8274 32.693 43.5741 34.763 43.8381C36.8331 44.1021 38.9368 43.8759 40.9015 43.1778C41.3721 43.0072 42.2042 42.7967 42.692 42.5635L43.1856 42.0402C45.5139 39.5441 47.1025 36.4599 47.7767 33.1268C44.4252 31.7162 40.0349 31.227 37.7106 33.1268Z" fill="url(#paint0_linear)"/>
<path d="M37.7106 23.2352C39.9258 25.4365 45.0736 25.6242 47.4668 23.7756C46.8929 21.3069 44.5973 16.9497 42.1123 14.8679L41.4237 14.2422C39.7041 12.7465 37.7349 11.5589 35.6044 10.7326L34.3361 10.2889L32.3217 9.77128C30.9506 9.51071 29.5571 9.38307 28.161 9.39017C26.8113 9.39018 25.4652 9.52742 24.1437 9.79972L22.0375 10.3685L20.8381 10.7952C19.0868 11.5332 17.4532 12.52 15.9887 13.7246C18.0933 13.0864 20.3195 12.9453 22.4889 13.3128C24.6584 13.6802 26.711 14.5459 28.4824 15.8406C28.4824 15.8406 37.4638 22.9906 37.7106 23.2352Z" fill="url(#paint1_linear)"/>
<path d="M14.485 43.0925C16.3115 44.8683 18.4719 46.2713 20.8437 47.2221L22.0432 47.6487L24.1551 48.2176C26.8051 48.7456 29.533 48.763 32.1896 48.2688L34.3475 47.7284L35.7707 47.2221C37.5824 46.4883 39.2791 45.5019 40.8095 44.2927C38.6311 44.9028 36.3438 45.0299 34.1102 44.6652C31.8765 44.3005 29.7513 43.4528 27.8854 42.1824V42.1824L15.3975 29.8163C13.8947 31.9941 13.0942 34.5726 13.1019 37.211C13.1038 38.6289 13.3303 40.0378 13.7734 41.3861C13.9626 41.9383 14.183 42.4795 14.4334 43.0072L14.485 43.0925Z" fill="url(#paint2_linear)"/>
<path d="M13.9685 15.431C12.1791 17.244 10.7655 19.3872 9.80781 21.7392L9.37165 22.928L8.79776 25.0212C8.24767 27.6477 8.24767 30.3582 8.79776 32.9847L9.37165 35.0722L9.80781 36.2667C10.5463 38.0057 11.5424 39.6257 12.7634 41.0732C12.3516 39.7438 12.1352 38.3626 12.1206 36.9721C12.1136 33.9988 13.078 31.1033 14.8696 28.7185V28.7185L27.3517 16.3582C25.6282 15.1904 23.6507 14.4426 21.5803 14.1758C19.51 13.9089 17.4053 14.1304 15.4377 14.8224C14.9729 14.993 14.4908 15.1864 14.0087 15.4196L13.9685 15.431Z" fill="url(#paint3_linear)"/>
<path d="M44.5628 14.9026C48.0103 18.8043 49.9107 23.8142 49.9107 29.0007C49.9107 34.1871 48.0103 39.1971 44.5628 43.0988C43.8867 43.8808 43.1499 44.6092 42.3591 45.2774L41.3203 46.1306C41.0793 46.3069 40.8325 46.4833 40.5685 46.6596C39.2561 47.5675 37.8474 48.3304 36.3676 48.9349C31.1055 51.0256 25.2287 51.0032 19.983 48.8723C18.5436 48.2555 17.1724 47.493 15.8911 46.597L15.1623 46.0737C14.7892 45.7893 14.4392 45.5049 14.0833 45.1977C13.2881 44.5205 12.5457 43.7846 11.8624 42.9964C8.48217 39.1009 6.62333 34.1331 6.62333 28.995C6.62333 23.8569 8.48217 18.8891 11.8624 14.9936C12.5472 14.2068 13.2895 13.471 14.0833 12.7923C14.4392 12.4851 14.7892 12.2234 15.1623 11.9163C15.4033 11.7343 15.6501 11.5636 15.8911 11.393C17.1773 10.5238 18.5481 9.7844 19.983 9.18595C25.2223 7.02529 31.1102 7.00076 36.3676 9.1177C37.8496 9.70585 39.259 10.4597 40.5685 11.3645C40.8325 11.5238 41.0793 11.7172 41.3203 11.8935C41.6704 12.1552 42.0262 12.4339 42.3763 12.724L44.5628 14.9026ZM51.3922 27.4507V27.3198C52.4194 25.1185 54.3592 25.0446 56.4941 27.0809C56.4941 23.7192 55.771 21.0572 54.1354 19.5498C51.8398 17.5191 49.418 18.8445 47.4438 16.0857C47.2142 13.6739 48.8843 12.6728 51.7595 13.3326C50.0378 10.4487 48.0636 8.50906 45.9057 8.0085C45.4664 7.90416 45.0125 7.8734 44.5628 7.91749C43.811 7.98822 43.0708 8.15061 42.3591 8.40099C42.0124 8.51421 41.6599 8.60915 41.3031 8.6854C41.0554 8.73474 40.8039 8.76328 40.5513 8.77072C39.7933 8.80816 39.0382 8.65144 38.359 8.31566C36.976 6.35893 37.877 4.70937 40.5513 3.84477C40.6066 3.83402 40.6592 3.81277 40.7063 3.7822C40.658 3.75395 40.6058 3.73287 40.5513 3.71963C39.2427 2.95028 37.8274 2.37534 36.3504 2.01318C35.2212 1.72418 34.0363 1.72418 32.9071 2.01318C30.5771 2.79814 30.0376 4.72074 28.1954 5.61378C27.7245 5.8381 27.2175 5.97865 26.6975 6.02902H26.5655C24.3446 4.99946 24.27 3.08255 26.3245 0.966553C23.7248 0.966553 21.521 1.40454 19.9371 2.32034C19.4941 2.60648 19.0893 2.94664 18.7319 3.33283C16.8839 5.43176 17.8309 7.61033 15.8624 9.46467C15.6679 9.64749 15.4608 9.81665 15.2426 9.97092H15.1106C14.7498 9.99454 14.3873 9.97352 14.0317 9.90835C12.4707 9.53293 11.9026 8.0085 12.4707 5.69342L11.8107 6.0859C9.2569 7.67859 7.51801 9.4988 7.05315 11.4498C6.43909 14.4703 8.83796 15.8866 7.34584 19.0037C5.33721 20.4201 3.62127 19.5043 2.78338 16.6943C1.10188 19.6181 0.390248 22.2972 1.03301 24.3961C2.02011 27.2402 4.71167 27.3198 5.10765 30.5678V30.7043C4.09186 32.9056 2.13488 32.9796 0 30.9659C0 34.3049 0.746062 36.9897 2.37592 38.4914C4.67149 40.4993 7.09906 39.1797 9.07326 41.9441C9.30282 44.3445 7.62705 45.357 4.75184 44.6915C6.47352 47.5925 8.45345 49.5549 10.6113 50.0384C11.01 50.1165 11.4159 50.1527 11.8222 50.1464C12.5803 50.0833 13.3269 49.9227 14.0432 49.6686C14.399 49.5549 14.7491 49.4468 15.1221 49.3615C15.3631 49.3217 15.6099 49.2705 15.8509 49.2534C16.644 49.2095 17.4349 49.3702 18.1465 49.7198C19.5239 51.6936 18.6171 53.3659 15.8509 54.2135C15.8359 54.2173 15.8201 54.2173 15.805 54.2135C15.805 54.2135 15.8509 54.2135 15.8509 54.2533C17.1319 55.0007 18.5081 55.5746 19.9428 55.9597C21.1323 56.2792 22.3861 56.2792 23.5756 55.9597C25.8711 55.1918 26.3991 53.2977 28.2011 52.399C28.6999 52.1609 29.2352 52.0071 29.7851 51.9439H29.9171C32.1438 52.9678 32.2126 54.8904 30.1638 57.0064C32.6488 57.0064 34.755 56.6139 36.3275 55.7663C36.8648 55.4754 37.3543 55.1053 37.7794 54.6685C39.6044 52.598 38.7034 50.465 40.5284 48.6277C40.7725 48.3973 41.0377 48.1898 41.3203 48.0077C41.3055 48.0129 41.2893 48.0129 41.2744 48.0077C41.2744 48.0077 41.2744 48.0077 41.3203 47.9679C41.3663 47.9281 41.3203 47.9679 41.3605 47.9679C41.3486 47.9825 41.3351 47.9959 41.3203 48.0077C41.673 47.9906 42.0265 48.0059 42.3763 48.0532C44.0234 48.3604 44.6719 49.9075 44.098 52.2909C44.2763 52.2001 44.4471 52.0955 44.6088 51.978C47.2487 50.3626 49.0335 48.5082 49.4983 46.506C50.1124 43.4685 47.7078 42.0749 49.1884 38.9521C49.1884 38.9521 49.1884 38.9976 49.1884 39.0147C51.1913 37.6211 52.9073 38.5369 53.7451 41.3298C55.4668 38.4288 56.1498 35.744 55.507 33.6508C54.4682 30.7896 51.7595 30.7043 51.3922 27.4507Z" fill="#757373"/>
<defs>
<linearGradient id="paint0_linear" x1="49.3377" y1="30.0609" x2="23.087" y2="52.8281" gradientUnits="userSpaceOnUse">
<stop offset="0.3" stop-color="#CBCACA"/>
<stop offset="0.38" stop-color="#C5C4C4"/>
<stop offset="0.5" stop-color="#B3B2B2"/>
<stop offset="0.63" stop-color="#969495"/>
<stop offset="0.78" stop-color="#6D6C6C"/>
<stop offset="0.87" stop-color="#525051"/>
</linearGradient>
<linearGradient id="paint1_linear" x1="26.5139" y1="11.4436" x2="47.6653" y2="35.0829" gradientUnits="userSpaceOnUse">
<stop offset="0.04" stop-color="#FFFD7F"/>
<stop offset="0.12" stop-color="#FFFD60"/>
<stop offset="0.2" stop-color="#FFFD43"/>
<stop offset="0.3" stop-color="#FFFC2A"/>
<stop offset="0.4" stop-color="#FFFC17"/>
<stop offset="0.53" stop-color="#FFFC0A"/>
<stop offset="0.69" stop-color="#FFFC02"/>
<stop offset="1" stop-color="#FFFC00"/>
</linearGradient>
<linearGradient id="paint2_linear" x1="32.0921" y1="47.5407" x2="8.22552" y2="26.4947" gradientUnits="userSpaceOnUse">
<stop offset="0.3" stop-color="#979697"/>
<stop offset="0.32" stop-color="#919091"/>
<stop offset="0.49" stop-color="#767475"/>
<stop offset="0.66" stop-color="#626061"/>
<stop offset="0.83" stop-color="#565455"/>
<stop offset="1" stop-color="#525051"/>
</linearGradient>
<linearGradient id="paint3_linear" x1="6.594" y1="34.8959" x2="24.581" y2="16.9378" gradientUnits="userSpaceOnUse">
<stop offset="0.35" stop-color="#BCC76A"/>
<stop offset="0.95" stop-color="#90A107"/>
</linearGradient>
</defs>
</svg>
