<svg width="20" height="20" viewBox="0 0 20 20" fill="none" xmlns="http://www.w3.org/2000/svg">
<path d="M0.425558 20C0.313253 20 0.204 19.9556 0.122976 19.8737C0.0161643 19.7656 -0.0250344 19.6088 0.0150962 19.4621L1.3153 14.7142C0.505819 13.2504 0.0790306 11.5945 0.0796409 9.91364C0.0819297 4.44717 4.53048 0 9.99648 0C12.6477 0.00106812 15.1388 1.03378 17.0113 2.90756C18.8834 4.78149 19.9139 7.27249 19.9132 9.92157C19.9107 15.3882 15.4622 19.8357 9.99648 19.8357C9.99648 19.8357 9.99236 19.8357 9.99221 19.8357C8.39568 19.8351 6.81289 19.446 5.40358 18.709L0.533437 19.9861C0.497732 19.9954 0.461416 20 0.425558 20Z" fill="#E5E5E5"/>
<path d="M0.425537 19.5744L1.77197 14.6576C0.941437 13.2185 0.504578 11.5862 0.505188 9.91379C0.507324 4.68201 4.76483 0.425568 9.99646 0.425568C12.5352 0.426636 14.9182 1.41479 16.7102 3.20831C18.502 5.00183 19.4885 7.38586 19.4876 9.92142C19.4853 15.153 15.2272 19.4101 9.99646 19.4101C9.99615 19.4101 9.99661 19.4101 9.99646 19.4101H9.99234C8.4039 19.4095 6.84323 19.0111 5.45697 18.255L0.425537 19.5744ZM5.68997 16.5373L5.97821 16.7081C7.18915 17.4268 8.57755 17.8069 9.99341 17.8076H9.99646C14.3443 17.8076 17.8831 14.2694 17.8849 9.92081C17.8857 7.81342 17.066 5.83176 15.5766 4.34113C14.087 2.85049 12.1066 2.02911 9.99936 2.0282C5.64801 2.0282 2.10934 5.56595 2.10767 9.9144C2.10706 11.4046 2.52393 12.8557 3.31372 14.1115L3.5014 14.4099L2.70428 17.3201L5.68997 16.5373Z" fill="white"/>
<path d="M0.755615 19.2432L2.05551 14.4963C1.25351 13.1071 0.831909 11.5311 0.832367 9.91684C0.834351 4.86618 4.94461 0.757141 9.99481 0.757141C12.446 0.758209 14.7466 1.71219 16.4761 3.4436C18.2062 5.17502 19.1583 7.4765 19.1574 9.92401C19.1553 14.9748 15.0449 19.0843 9.99527 19.0843C9.99481 19.0843 9.99542 19.0843 9.99527 19.0843H9.99115C8.45779 19.0837 6.95099 18.6989 5.61279 17.9695L0.755615 19.2432Z" fill="#64B161"/>
<path d="M0.425537 19.5744L1.77197 14.6576C0.941437 13.2185 0.504578 11.5862 0.505188 9.91379C0.507324 4.68201 4.76483 0.425568 9.99646 0.425568C12.5352 0.426636 14.9182 1.41479 16.7102 3.20831C18.502 5.00183 19.4885 7.38586 19.4876 9.92142C19.4853 15.153 15.2272 19.4101 9.99646 19.4101C9.99615 19.4101 9.99661 19.4101 9.99646 19.4101H9.99234C8.4039 19.4095 6.84323 19.0111 5.45697 18.255L0.425537 19.5744ZM5.68997 16.5373L5.97821 16.7081C7.18915 17.4268 8.57755 17.8069 9.99341 17.8076H9.99646C14.3443 17.8076 17.8831 14.2694 17.8849 9.92081C17.8857 7.81342 17.066 5.83176 15.5766 4.34113C14.087 2.85049 12.1066 2.02911 9.99936 2.0282C5.64801 2.0282 2.10934 5.56595 2.10767 9.9144C2.10706 11.4046 2.52393 12.8557 3.31372 14.1115L3.5014 14.4099L2.70428 17.3201L5.68997 16.5373Z" fill="white"/>
<path fill-rule="evenodd" clip-rule="evenodd" d="M7.62442 5.94712C7.44681 5.55222 7.25974 5.54428 7.09067 5.53742C6.95242 5.53147 6.79419 5.53177 6.63626 5.53177C6.47818 5.53177 6.22122 5.59128 6.00394 5.82855C5.7865 6.06583 5.17371 6.63956 5.17371 7.8064C5.17371 8.97339 6.02362 10.1009 6.14218 10.2592C6.26074 10.4175 7.78281 12.8885 10.1932 13.8391C12.1966 14.6292 12.6041 14.472 13.039 14.4325C13.4739 14.393 14.442 13.8588 14.6396 13.3051C14.8374 12.7513 14.8374 12.2768 14.778 12.1774C14.7187 12.0787 14.5606 12.0194 14.3235 11.9008C14.0864 11.7822 12.9204 11.2083 12.703 11.1293C12.4856 11.0501 12.3275 11.0107 12.1694 11.2482C12.0112 11.4853 11.5571 12.0194 11.4187 12.1774C11.2803 12.336 11.1419 12.3558 10.9048 12.2371C10.6676 12.1182 9.90378 11.868 8.99771 11.06C8.29276 10.4315 7.81668 9.65515 7.67828 9.41773C7.54004 9.18061 7.67599 9.06342 7.7825 8.93387C7.9743 8.70056 8.29611 8.2811 8.37515 8.12302C8.45419 7.96463 8.41467 7.82624 8.35547 7.70752C8.29611 7.58896 7.83514 6.41617 7.62442 5.94712Z" fill="white"/>
</svg>
