<svg width="50" height="50" viewBox="0 0 50 50" fill="none" xmlns="http://www.w3.org/2000/svg">
<path fill-rule="evenodd" clip-rule="evenodd" d="M2.66798 34.0612C10.2502 46.6049 25.2032 45.1604 32.0049 37.697C32.0433 37.6556 32.0433 37.4021 31.8953 37.4388C24.8591 39.1849 18.487 37.2431 14.1797 33.192C4.90765 24.4682 5.89196 11.8533 13.0849 4.2415C14.3566 2.8953 16.0359 1.84397 17.5575 0.89479C17.7594 0.769517 17.6142 0.458263 17.3874 0.52379C4.52508 4.2945 -4.81909 21.6766 2.66798 34.0612Z" fill="#0078A8"/>
<path fill-rule="evenodd" clip-rule="evenodd" d="M28.2725 0.00762796C13.829 0.432591 7.57998 14.3591 10.5166 24.0985C10.5319 24.1515 10.7482 24.2787 10.7905 24.1294C12.8264 17.0438 17.6605 12.3875 23.2548 10.6096C35.3011 6.78006 45.5228 13.9601 48.3912 24.1159C48.8977 25.914 48.9516 27.9193 48.9958 29.7387C49.0025 29.9796 49.3389 30.0075 49.3956 29.7743C52.6244 16.5311 42.5344 -0.411554 28.2725 0.00762796Z" fill="#EF4056"/>
<path fill-rule="evenodd" clip-rule="evenodd" d="M44.3828 39.6863C51.2441 26.7177 42.542 14.2347 32.8018 11.9596C32.748 11.9471 32.5327 12.0752 32.6384 12.187C37.6388 17.5256 39.1758 24.1245 37.8887 29.9536C35.1175 42.5069 23.9095 47.9427 13.8501 45.3978C12.0699 44.9477 10.3397 43.9909 8.77191 43.1217C8.56525 43.006 8.37204 43.2893 8.54121 43.456C18.1747 52.9295 37.609 52.4901 44.3828 39.6863Z" fill="#FFD530"/>
</svg>
