<svg width="50" height="50" viewBox="0 0 50 50" fill="none" xmlns="http://www.w3.org/2000/svg">
<path d="M33.3758 28.6941C33.1675 28.9022 26.1531 35.7993 25.6604 36.3068C27.1848 37.3492 28.9349 38.0154 30.767 38.251C32.5991 38.4865 34.461 38.2846 36.1998 37.6619C36.6163 37.5096 37.3528 37.3218 37.7845 37.1137L38.2214 36.6468C40.2821 34.4198 41.6881 31.668 42.2847 28.6941C39.3185 27.4355 35.4329 26.999 33.3758 28.6941Z" fill="url(#paint0_linear_25_2516)"/>
<path d="M33.3755 19.8686C35.3361 21.8326 39.8922 22.0001 42.0102 20.3507C41.5023 18.1481 39.4706 14.2606 37.2713 12.4031L36.6618 11.8448C35.1399 10.5103 33.3971 9.45073 31.5115 8.71348L30.389 8.31762L28.6061 7.85579C27.3926 7.6233 26.1593 7.50942 24.9237 7.51575C23.7292 7.51576 22.5378 7.63821 21.3682 7.88116L19.5042 8.38867L18.4426 8.76931C16.8926 9.42783 15.4468 10.3083 14.1506 11.383C16.0133 10.8136 17.9836 10.6878 19.9036 11.0156C21.8237 11.3434 23.6404 12.1158 25.2081 13.2709C25.2081 13.2709 33.1571 19.6503 33.3755 19.8686Z" fill="url(#paint1_linear_25_2516)"/>
<path d="M12.8198 37.5858C14.4364 39.1701 16.3485 40.422 18.4476 41.2703L19.5092 41.651L21.3784 42.1585C23.7238 42.6296 26.138 42.6451 28.4893 42.2041L30.3991 41.722L31.6587 41.2703C33.2622 40.6156 34.7638 39.7355 36.1183 38.6566C34.1903 39.2009 32.1659 39.3144 30.1891 38.989C28.2122 38.6636 26.3313 37.9073 24.6799 36.7738L13.6274 25.7405C12.2974 27.6835 11.5889 29.9841 11.5958 32.3381C11.5974 33.6033 11.7979 34.8603 12.19 36.0633C12.3575 36.5559 12.5525 37.0388 12.7741 37.5097L12.8198 37.5858Z" fill="url(#paint2_linear_25_2516)"/>
<path d="M12.3629 12.9055C10.7792 14.5232 9.5281 16.4353 8.68047 18.5338L8.29445 19.5945L7.78653 21.4622C7.29967 23.8056 7.29967 26.2239 7.78653 28.5673L8.29445 30.4299L8.68047 31.4957C9.33405 33.0472 10.2157 34.4926 11.2963 35.7841C10.9319 34.598 10.7403 33.3657 10.7274 32.125C10.7212 29.4722 11.5747 26.8887 13.1604 24.761L24.2077 13.7328C22.6822 12.6909 20.9321 12.0237 19.0997 11.7856C17.2674 11.5475 15.4046 11.7451 13.6632 12.3625C13.2518 12.5148 12.8251 12.6873 12.3985 12.8954L12.3629 12.9055Z" fill="url(#paint3_linear_25_2516)"/>
<path d="M39.4403 12.434C42.4914 15.9152 44.1734 20.3852 44.1734 25.0127C44.1734 29.6402 42.4914 34.1101 39.4403 37.5914C38.8418 38.2891 38.1897 38.939 37.4898 39.5351L36.5705 40.2964C36.3572 40.4537 36.1388 40.611 35.9051 40.7684C34.7435 41.5784 33.4968 42.2591 32.1871 42.7984C27.5299 44.6639 22.3286 44.6438 17.6859 42.7426C16.412 42.1923 15.1984 41.512 14.0644 40.7125L13.4193 40.2456C13.0892 39.9919 12.7794 39.7381 12.4644 39.4641C11.7606 38.8598 11.1035 38.2032 10.4988 37.5C7.50713 34.0243 5.86197 29.5919 5.86197 25.0076C5.86197 20.4233 7.50713 15.9909 10.4988 12.5152C11.1049 11.8132 11.7619 11.1567 12.4644 10.5512C12.7794 10.2771 13.0892 10.0436 13.4193 9.76959C13.6327 9.60719 13.8511 9.45493 14.0644 9.30268C15.2028 8.52715 16.416 7.86748 17.6859 7.33354C22.323 5.40575 27.534 5.38386 32.1871 7.27264C33.4987 7.7974 34.7461 8.46997 35.9051 9.2773C36.1388 9.41941 36.3572 9.59196 36.5705 9.74929C36.8803 9.98275 37.1952 10.2314 37.5051 10.4903L39.4403 12.434ZM45.4846 23.6297V23.513C46.3937 21.5489 48.1105 21.4829 50 23.2998C50 20.3004 49.36 17.9253 47.9124 16.5804C45.8807 14.7686 43.7373 15.9511 41.99 13.4896C41.7869 11.3378 43.2649 10.4446 45.8096 11.0333C44.2859 8.46021 42.5386 6.7296 40.6288 6.28299C40.2399 6.1899 39.8382 6.16245 39.4403 6.20179C38.7748 6.26489 38.1198 6.40978 37.4898 6.63317C37.183 6.7342 36.8711 6.8189 36.5553 6.88693C36.336 6.93095 36.1134 6.95642 35.8899 6.96305C35.219 6.99646 34.5507 6.85663 33.9496 6.55704C32.7255 4.81121 33.523 3.33942 35.8899 2.56801C35.9388 2.55842 35.9853 2.53946 36.027 2.51218C35.9843 2.48698 35.9381 2.46817 35.8899 2.45635C34.7317 1.76992 33.4791 1.25695 32.1719 0.933821C31.1724 0.675971 30.1238 0.675971 29.1243 0.933821C27.0622 1.63419 26.5847 3.34957 24.9543 4.14637C24.5375 4.34651 24.0888 4.47191 23.6286 4.51685H23.5118C21.5461 3.59825 21.4801 1.88794 23.2985 0C20.9976 0 19.0471 0.390784 17.6453 1.20788C17.2533 1.46318 16.8949 1.76668 16.5786 2.11125C14.9431 3.98396 15.7812 5.92773 14.039 7.58222C13.8669 7.74533 13.6836 7.89626 13.4905 8.0339H13.3736C13.0542 8.05497 12.7335 8.03622 12.4187 7.97808C11.0372 7.64312 10.5343 6.28299 11.0372 4.21742L10.4531 4.5676C8.19281 5.98863 6.6538 7.61267 6.24238 9.35343C5.6989 12.0483 7.82202 13.312 6.50142 16.0932C4.72369 17.3569 3.205 16.5398 2.46343 14.0327C0.975213 16.6413 0.345388 19.0317 0.914262 20.9044C1.78789 23.4419 4.17005 23.513 4.52052 26.4109V26.5327C3.6215 28.4968 1.88948 28.5627 0 26.7661C0 29.7452 0.660301 32.1407 2.1028 33.4805C4.1345 35.272 6.28302 34.0946 8.03027 36.5611C8.23344 38.7028 6.7503 39.6062 4.20561 39.0124C5.72938 41.6007 7.48171 43.3516 9.39151 43.783C9.74436 43.8527 10.1036 43.885 10.4632 43.8794C11.1342 43.8231 11.7949 43.6797 12.4289 43.4531C12.7438 43.3516 13.0536 43.2552 13.3838 43.1791C13.5971 43.1435 13.8155 43.0979 14.0289 43.0826C14.7307 43.0434 15.4307 43.1868 16.0605 43.4988C17.2796 45.2598 16.477 46.7519 14.0289 47.5081C14.0155 47.5116 14.0015 47.5116 13.9882 47.5081C13.9882 47.5081 14.0289 47.5081 14.0289 47.5436C15.1626 48.2105 16.3806 48.7225 17.6503 49.0662C18.7031 49.3512 19.8128 49.3512 20.8655 49.0662C22.8972 48.381 23.3645 46.691 24.9594 45.8892C25.4008 45.6768 25.8746 45.5395 26.3612 45.4832H26.4781C28.4488 46.3967 28.5098 48.1121 26.6965 50C28.8958 50 30.7599 49.6498 32.1516 48.8936C32.6271 48.6341 33.0604 48.3038 33.4366 47.9141C35.0518 46.0668 34.2544 44.1636 35.8696 42.5244C36.0857 42.3188 36.3203 42.1336 36.5705 41.9712C36.5574 41.9758 36.543 41.9758 36.5299 41.9712C36.5299 41.9712 36.5299 41.9712 36.5705 41.9356C36.6111 41.9001 36.5705 41.9356 36.6061 41.9356C36.5955 41.9487 36.5836 41.9606 36.5705 41.9712C36.8826 41.956 37.1955 41.9695 37.5051 42.0118C38.9628 42.2858 39.5368 43.6663 39.0288 45.7927C39.1866 45.7117 39.3378 45.6184 39.4809 45.5136C41.8174 44.0723 43.397 42.4178 43.8084 40.6313C44.3519 37.9212 42.2237 36.6778 43.5341 33.8916C43.5341 33.8916 43.5341 33.9322 43.5341 33.9474C45.3068 32.704 46.8255 33.5211 47.567 36.013C49.0908 33.4247 49.6952 31.0292 49.1264 29.1616C48.207 26.6088 45.8096 26.5327 45.4846 23.6297Z" fill="#BAB9B9"/>
<defs>
<linearGradient id="paint0_linear_25_2516" x1="43.6663" y1="25.9586" x2="20.2723" y2="46.085" gradientUnits="userSpaceOnUse">
<stop offset="0.3" stop-color="#CBCACA"/>
<stop offset="0.38" stop-color="#C5C4C4"/>
<stop offset="0.5" stop-color="#B3B2B2"/>
<stop offset="0.63" stop-color="#969495"/>
<stop offset="0.78" stop-color="#6D6C6C"/>
<stop offset="0.87" stop-color="#525051"/>
</linearGradient>
<linearGradient id="paint1_linear_25_2516" x1="23.466" y1="9.34787" x2="42.354" y2="30.2878" gradientUnits="userSpaceOnUse">
<stop offset="0.04" stop-color="#FFFD7F"/>
<stop offset="0.12" stop-color="#FFFD60"/>
<stop offset="0.2" stop-color="#FFFD43"/>
<stop offset="0.3" stop-color="#FFFC2A"/>
<stop offset="0.4" stop-color="#FFFC17"/>
<stop offset="0.53" stop-color="#FFFC0A"/>
<stop offset="0.69" stop-color="#FFFC02"/>
<stop offset="1" stop-color="#FFFC00"/>
</linearGradient>
<linearGradient id="paint2_linear_25_2516" x1="28.4029" y1="41.5545" x2="7.13085" y2="22.9473" gradientUnits="userSpaceOnUse">
<stop offset="0.3" stop-color="#979697"/>
<stop offset="0.32" stop-color="#919091"/>
<stop offset="0.49" stop-color="#767475"/>
<stop offset="0.66" stop-color="#626061"/>
<stop offset="0.83" stop-color="#565455"/>
<stop offset="1" stop-color="#525051"/>
</linearGradient>
<linearGradient id="paint3_linear_25_2516" x1="5.8361" y1="30.2726" x2="21.8837" y2="14.3795" gradientUnits="userSpaceOnUse">
<stop offset="0.35" stop-color="#BCC76A"/>
<stop offset="0.95" stop-color="#90A107"/>
</linearGradient>
</defs>
</svg>
