<svg width="50" height="42" viewBox="0 0 50 42" fill="none" xmlns="http://www.w3.org/2000/svg">
<path d="M25 0.0960693V15.1725C21.8992 15.1725 19.3798 17.6692 19.3798 20.7422H8.04263L22.093 3.64911L19.1861 0.0960693L0 20.6461L18.9922 41.2922L19.1861 41.1002L2.13178 20.6461H8.04263L25.0968 41.2922V26.1198C22.4806 25.6396 20.5425 23.3349 20.5425 20.6461C20.5425 17.7653 22.7713 15.3645 25.5814 15.0765C28.3915 15.3645 30.6201 17.7653 30.6201 20.6461H42.0543L25 0.0960693Z" fill="#053868"/>
<path d="M31.1045 0L30.9106 0.288085L47.965 20.6461H42.0542L28.0037 37.7392L30.9106 41.2922L49.9998 20.6461L31.1045 0Z" fill="#053868"/>
</svg>
