<svg width="22" height="22" viewBox="0 0 22 22" fill="none" xmlns="http://www.w3.org/2000/svg">
<path d="M15.0238 8.65949C14.8161 10.5398 14.6159 12.3642 14.9228 14.1095C17.3505 14.3332 19.6672 14.3191 21.8261 12.9372C21.9381 12.3083 22 11.6619 22 11.0004C22 10.2426 21.923 9.50303 21.7773 8.7887L20.3042 7.31592L20.3119 7.30547L14.8781 1.87231C15.5288 4.10015 15.2731 6.40507 15.0238 8.65949Z" fill="url(#paint0_linear_1689_42300)"/>
<path d="M8.78836 0.222752L7.31525 1.69587L7.30515 1.68813L1.87231 7.12163C2.92013 6.81612 3.98542 6.71013 5.05341 6.71013C6.25667 6.71013 7.46497 6.8437 8.65847 6.97594C10.5387 7.18421 12.3635 7.38408 14.1091 7.07688C14.3329 4.64985 14.3188 2.3335 12.9372 0.17396C12.308 0.061912 11.6616 0 10.9997 0C10.2423 0 9.50304 0.0770552 8.78836 0.222752Z" fill="url(#paint1_linear_1689_42300)"/>
<path d="M7.8903 14.9231C7.66722 17.3502 7.68034 19.6668 9.06227 21.8267C9.69151 21.9384 10.3386 22.0003 10.9997 22.0003C11.7572 22.0003 12.4968 21.9233 13.2111 21.7776L14.6845 20.3044L14.6943 20.3122L20.1278 14.8784C17.9003 15.5291 15.5947 15.2737 13.3407 15.024C12.1562 14.8932 10.9937 14.7656 9.8594 14.7656C9.19317 14.7656 8.53635 14.8097 7.8903 14.9231Z" fill="url(#paint2_linear_1689_42300)"/>
<path d="M0.173625 9.06241C0.0615766 9.69165 0 10.3387 0 11.0002C0 11.7576 0.0763827 12.4972 0.222752 13.2112L1.69587 14.6847L1.68779 14.6945L7.12129 20.1273C6.81578 19.0798 6.71012 18.0145 6.71012 16.9465C6.71012 15.7429 6.84369 14.535 6.9756 13.3414C7.18388 11.4612 7.38408 9.63646 7.07721 7.8908C6.3928 7.82786 5.71715 7.78345 5.0516 7.78345C3.35606 7.78345 1.72447 8.07013 0.173625 9.06241Z" fill="url(#paint3_linear_1689_42300)"/>
<defs>
<linearGradient id="paint0_linear_1689_42300" x1="18.3825" y1="1.55746" x2="18.3825" y2="13.902" gradientUnits="userSpaceOnUse">
<stop stop-color="#1082CE"/>
<stop offset="0.3" stop-color="#1082CE"/>
<stop offset="0.573113" stop-color="#1082CE"/>
<stop offset="1" stop-color="#2744A0"/>
</linearGradient>
<linearGradient id="paint1_linear_1689_42300" x1="1.87243" y1="3.61749" x2="14.2165" y2="3.61749" gradientUnits="userSpaceOnUse">
<stop stop-color="#FEE927"/>
<stop offset="0.3" stop-color="#FEE927"/>
<stop offset="0.571564" stop-color="#FEE927"/>
<stop offset="1" stop-color="#F89C0E"/>
</linearGradient>
<linearGradient id="paint2_linear_1689_42300" x1="7.7833" y1="18.3829" x2="20.1278" y2="18.3829" gradientUnits="userSpaceOnUse">
<stop stop-color="#1C63B7"/>
<stop offset="0.428436" stop-color="#68BCEB"/>
<stop offset="0.7" stop-color="#68BCEB"/>
<stop offset="1" stop-color="#68BCEB"/>
</linearGradient>
<linearGradient id="paint3_linear_1689_42300" x1="3.61748" y1="20.5913" x2="3.61748" y2="8.24736" gradientUnits="userSpaceOnUse">
<stop stop-color="#80C428"/>
<stop offset="0.3" stop-color="#80C428"/>
<stop offset="0.573113" stop-color="#80C428"/>
<stop offset="1" stop-color="#43803C"/>
</linearGradient>
</defs>
</svg>
