<svg width="21" height="18" viewBox="0 0 21 18" fill="none" xmlns="http://www.w3.org/2000/svg">
<path d="M3.34211 0.578979H8.6579C8.86143 0.578979 9.02632 0.743864 9.02632 0.947401V14.579C9.02632 14.7825 8.86143 14.9474 8.6579 14.9474H3.34211C3.13857 14.9474 2.97368 14.7825 2.97368 14.579V0.947401C2.97368 0.743864 3.13857 0.578979 3.34211 0.578979Z" fill="#007BC4"/>
<path d="M12.3421 5.89477H17.1842C17.3877 5.89477 17.5526 6.05965 17.5526 6.26319V14.6316C17.5526 14.8351 17.3877 15 17.1842 15H12.3421C12.1386 15 11.9737 14.8351 11.9737 14.6316V6.26319C11.9737 6.05965 12.1386 5.89477 12.3421 5.89477Z" fill="#007BC4"/>
<path d="M0.5 16.6842H20.5V17.4211H0.5V16.6842Z" fill="#007BC4"/>
</svg>
