<svg width="21" height="16" viewBox="0 0 21 16" fill="none" xmlns="http://www.w3.org/2000/svg">
<path d="M14.9336 0.382812H10.5C10.3561 0.382812 10.2134 0.388306 10.0723 0.398987C9.93771 0.409363 9.80466 0.424622 9.67282 0.444305C9.65878 0.446442 9.64474 0.448578 9.63055 0.450867C9.51321 0.46933 9.39709 0.491608 9.2822 0.517395C9.16623 0.543335 9.05179 0.572937 8.93872 0.606049C8.8783 0.623596 8.81833 0.642365 8.75882 0.662048C8.66864 0.691803 8.57938 0.723846 8.49118 0.758026C8.47348 0.764893 8.45578 0.771912 8.43823 0.778931C8.36697 0.807465 8.29648 0.837372 8.22675 0.868652C8.13931 0.907867 8.05295 0.949219 7.96811 0.992706C7.91959 1.01758 7.87152 1.04337 7.82391 1.06976C7.76578 1.10165 7.7084 1.13461 7.65179 1.16864C7.54803 1.23059 7.44641 1.2959 7.34723 1.36441C7.30481 1.39371 7.263 1.42346 7.22134 1.45383C7.18549 1.48007 7.15009 1.50662 7.11499 1.53363C7.08463 1.55682 7.05472 1.58032 7.02496 1.60413C6.95462 1.66058 6.88565 1.71857 6.81821 1.77823C6.78006 1.81195 6.74237 1.84628 6.70514 1.88092C6.65875 1.92426 6.61298 1.9679 6.56812 2.01276C6.56735 2.01352 6.56659 2.01428 6.56583 2.01505C6.51685 2.06387 6.46909 2.11407 6.42194 2.16473C6.38196 2.20792 6.34244 2.2514 6.30383 2.29581C6.25943 2.34662 6.21625 2.3985 6.17368 2.45099C6.11081 2.52866 6.04977 2.608 5.99118 2.68903C5.91321 2.7963 5.8392 2.90662 5.76901 3.01953C5.6207 3.25803 5.48978 3.50858 5.37839 3.7692C5.37076 3.7872 5.36343 3.80521 5.35596 3.82321C5.26715 4.03699 5.19162 4.25748 5.12982 4.48361C5.01416 4.90659 4.94702 5.3494 4.93542 5.80579C4.9342 5.85339 4.93359 5.90131 4.93359 5.94922C4.93359 5.99713 4.9342 6.04489 4.93542 6.09265C4.94839 6.60504 5.0314 7.10034 5.17438 7.56955C5.22702 7.74182 5.2876 7.91043 5.35596 8.07523C5.36343 8.09323 5.37076 8.11124 5.37839 8.12909C5.48978 8.38986 5.6207 8.64026 5.76901 8.87891C5.8392 8.99182 5.91321 9.10199 5.99118 9.20941C6.04993 9.29044 6.11081 9.36978 6.17368 9.44745C6.21625 9.49994 6.25943 9.55167 6.30383 9.60263C6.34244 9.64688 6.38196 9.69052 6.42194 9.73355C6.45444 9.76849 6.4874 9.80313 6.52081 9.83731C6.55194 9.8692 6.58337 9.90063 6.61526 9.93176C6.64487 9.9606 6.67477 9.98914 6.70499 10.0174C6.74222 10.0522 6.77991 10.0863 6.81805 10.1201C6.88565 10.1797 6.95462 10.2379 7.02496 10.2942C7.05472 10.318 7.08463 10.3415 7.11484 10.3647C7.15009 10.3918 7.18549 10.4184 7.22134 10.4445C7.26285 10.475 7.30481 10.5047 7.34723 10.534C7.44641 10.6024 7.54803 10.6677 7.65164 10.7298C7.7084 10.7637 7.76578 10.7968 7.82376 10.8287C7.87152 10.8549 7.91943 10.8807 7.96796 10.9056C8.05295 10.9492 8.13916 10.9904 8.22659 11.0298C8.29648 11.0611 8.36697 11.091 8.43823 11.1195C8.45578 11.1265 8.47348 11.1334 8.49118 11.1403C8.57938 11.1746 8.66864 11.2065 8.75882 11.2364C8.81833 11.2559 8.8783 11.2747 8.93872 11.2924C9.05179 11.3255 9.16623 11.3551 9.28204 11.381C9.39694 11.4067 9.51306 11.429 9.63055 11.4476C9.64459 11.4497 9.65878 11.4518 9.67282 11.454C9.80466 11.4738 9.93771 11.4891 10.0723 11.4993C10.2134 11.5101 10.3561 11.5156 10.5 11.5156C11.3078 11.5156 11.9648 10.8586 11.9648 10.0508C11.9648 9.24298 11.3078 8.58594 10.5 8.58594C10.0465 8.58594 9.61926 8.47073 9.24619 8.26825C9.23566 8.2626 9.22559 8.25635 9.21521 8.25055C9.0025 8.13123 8.80765 7.98398 8.63644 7.81277C8.51468 7.69116 8.40497 7.5575 8.30884 7.41406C8.02762 6.99475 7.86328 6.49091 7.86328 5.94922C7.86328 5.40753 8.02762 4.90369 8.30884 4.48438C8.78247 3.77835 9.58768 3.3125 10.5 3.3125H14.9336C16.3875 3.3125 17.5703 4.49536 17.5703 5.94922C17.5703 6.65387 17.2918 7.29443 16.8399 7.76791C17.0976 8.48126 17.2383 9.24985 17.2383 10.0508C17.2383 10.3898 17.2128 10.7229 17.1643 11.0486C19.1263 10.1869 20.5 8.22568 20.5 5.94922C20.5 2.87991 18.0029 0.382812 14.9336 0.382812Z" fill="#949300"/>
<path d="M15.8256 8.4303C15.7731 8.25803 15.7124 8.08942 15.644 7.92477C15.6193 7.86511 15.5937 7.80576 15.567 7.74716C15.5412 7.69086 15.5143 7.63501 15.4867 7.57947C15.4588 7.52332 15.4301 7.46747 15.4004 7.41254C15.3521 7.32312 15.3013 7.23538 15.2485 7.14917C15.1646 7.01245 15.075 6.8797 14.9801 6.75122C14.9589 6.72253 14.9374 6.694 14.9156 6.66577C14.7165 6.40652 14.4952 6.16513 14.2543 5.94479C14.2424 5.93381 14.2303 5.92297 14.2183 5.91229C14.078 5.7861 13.9312 5.66693 13.7787 5.55539C13.7372 5.52502 13.6952 5.49527 13.6528 5.46597C13.4547 5.32925 13.2475 5.20474 13.032 5.09427C12.9864 5.07092 12.9405 5.04834 12.8943 5.02621C12.7853 4.97418 12.6745 4.92551 12.5619 4.88049C12.5442 4.87347 12.5265 4.86646 12.5088 4.85959C12.4136 4.82266 12.3173 4.78833 12.2197 4.75659C12.1742 4.74179 12.1286 4.7276 12.0825 4.71387C11.9557 4.67618 11.8271 4.64291 11.6967 4.61423C11.5962 4.59225 11.4947 4.57288 11.3923 4.55624C11.3658 4.55197 11.3392 4.5477 11.3125 4.54388C11.1856 4.52527 11.0574 4.51062 10.9277 4.5007C10.7866 4.48987 10.6439 4.48438 10.5 4.48438C9.6922 4.48438 9.03516 5.14142 9.03516 5.94922C9.03516 6.75702 9.6922 7.41406 10.5 7.41406C10.6988 7.41406 10.8923 7.43695 11.0786 7.47876C11.176 7.50073 11.2712 7.52789 11.3641 7.56024C11.394 7.57062 11.4236 7.5816 11.4529 7.5929C11.8351 7.74167 12.1747 7.9765 12.4467 8.27435C12.4525 8.28061 12.458 8.28717 12.4637 8.29358C12.5081 8.34302 12.5503 8.39429 12.5909 8.44708C12.6083 8.46982 12.6252 8.49286 12.642 8.51605C12.6587 8.53925 12.6753 8.56229 12.6912 8.58594C12.9724 9.0051 13.1367 9.50909 13.1367 10.0508C13.1367 11.5046 11.9539 12.6875 10.5 12.6875H6.06641C4.61255 12.6875 3.42969 11.5046 3.42969 10.0508C3.42969 9.34598 3.70816 8.70557 4.16013 8.23193C3.90256 7.51874 3.76172 6.75015 3.76172 5.94922C3.76172 5.61017 3.7872 5.27707 3.83572 4.95145C1.87375 5.81311 0.5 7.77432 0.5 10.0508C0.5 13.1201 2.9971 15.6172 6.06641 15.6172H10.5C10.6439 15.6172 10.7866 15.6117 10.9277 15.601C11.0573 15.5911 11.1856 15.5763 11.3125 15.5577C11.3391 15.5539 11.3656 15.5496 11.3923 15.5453C11.4947 15.5288 11.5962 15.5093 11.6966 15.4873C11.8269 15.4586 11.9557 15.4254 12.0825 15.3877C12.1284 15.3741 12.174 15.3598 12.2195 15.345C12.3172 15.3132 12.4136 15.2789 12.5087 15.242C12.5265 15.2351 12.5441 15.2282 12.5618 15.2211C12.6744 15.1761 12.7853 15.1275 12.8941 15.0753C12.9403 15.0532 12.9864 15.0306 13.0319 15.0073C13.2473 14.8968 13.4546 14.7723 13.6526 14.6356C13.695 14.6064 13.737 14.5765 13.7785 14.5462C13.9311 14.4346 14.0779 14.3156 14.2183 14.1894C14.2302 14.1786 14.2422 14.1678 14.2541 14.1569C14.3138 14.1023 14.3724 14.0464 14.4296 13.9894C14.4311 13.9879 14.4326 13.9865 14.4342 13.985C14.6063 13.8128 14.767 13.6293 14.9154 13.4359C14.9373 13.4076 14.9588 13.3792 14.98 13.3505C15.0749 13.2219 15.1646 13.0891 15.2484 12.9525C15.3013 12.8662 15.352 12.7784 15.4002 12.6892C15.4301 12.6341 15.4586 12.5782 15.4866 12.5221C15.5142 12.4667 15.541 12.4109 15.5668 12.3544C15.5937 12.2958 15.6192 12.2365 15.644 12.1769C15.7327 11.963 15.8084 11.7425 15.8702 11.5164C15.9857 11.0934 16.0528 10.6506 16.0644 10.1944C16.0656 10.1466 16.0663 10.0988 16.0663 10.0509C16.0663 10.0029 16.0656 9.95511 16.0644 9.90735C16.0516 9.39496 15.9686 8.89966 15.8256 8.4303Z" fill="#949300"/>
</svg>
