<svg width="40" height="40" viewBox="0 0 40 40" fill="none" xmlns="http://www.w3.org/2000/svg">
<circle cx="20" cy="20" r="20" fill="#9CC319" fill-opacity="0.1"/>
<circle cx="20" cy="20" r="19.5" stroke="#9CC319" stroke-opacity="0.1"/>
<path d="M19.4605 22.213C18.7992 22.213 18.2269 22.213 17.5784 22.213C17.5784 21.7637 17.5784 21.327 17.5784 20.9027C17.5784 19.2555 17.5529 17.6208 17.5911 15.9736C17.6165 14.7881 18.494 13.8272 19.6131 13.6775C20.7957 13.5152 21.9021 14.1392 22.2836 15.2248C22.398 15.5493 22.4362 15.9112 22.4362 16.2606C22.4489 19.4177 22.4616 22.5749 22.4362 25.7445C22.4107 28.2028 20.5668 30.0247 18.1633 29.9997C15.8108 29.9748 14.0177 28.1154 14.0177 25.6821C14.005 22.3752 13.9796 19.0683 14.0304 15.7614C14.0813 12.8539 16.2813 10.433 19.1044 10.0586C22.1055 9.65929 24.8523 11.3315 25.7171 14.1267C25.8951 14.7007 25.9841 15.3122 25.9841 15.9112C26.0095 19.3428 25.9968 22.7745 25.9968 26.2062C25.9968 26.331 25.9714 26.4433 25.9587 26.6055C25.361 26.6055 24.7887 26.6055 24.1275 26.6055C24.1275 26.331 24.1275 26.0939 24.1275 25.8443C24.1275 22.5749 24.1402 19.3179 24.1275 16.0484C24.1148 13.8397 22.6905 12.1675 20.6304 11.8805C18.2142 11.5436 15.9888 13.2906 15.9506 15.6866C15.8871 19.0933 15.9125 22.5 15.9379 25.9192C15.9506 27.1795 16.968 28.1404 18.2015 28.1529C19.4477 28.1778 20.4651 27.2669 20.5668 26.0065C20.605 25.445 20.5922 24.8834 20.5922 24.3219C20.5922 21.7263 20.5922 19.1307 20.5922 16.5226C20.5922 16.0984 20.6813 15.5368 20.0454 15.5119C19.3842 15.4869 19.4859 16.0609 19.4859 16.4852C19.4859 18.1449 19.4859 19.817 19.4859 21.4767C19.4605 21.7013 19.4605 21.926 19.4605 22.213Z" fill="#9CC319"/>
</svg>
