<svg width="21" height="16" viewBox="0 0 21 16" fill="none" xmlns="http://www.w3.org/2000/svg">
<path d="M9.39715 5.98132C9.59656 5.58245 10.2537 5.58245 10.4531 5.98132L12.2717 9.61844L12.9169 8.32782C13.0226 8.12841 13.222 7.99935 13.4449 7.99935H15.2048C15.5333 7.99935 15.7914 8.25743 15.7914 8.58598C15.7914 8.91445 15.5333 9.1726 15.2048 9.1726H13.8086L12.7996 11.1906C12.694 11.39 12.4946 11.5191 12.2717 11.5191C12.0487 11.5191 11.8493 11.39 11.7437 11.1906L9.92511 7.55352L9.27982 8.84405C9.17419 9.04355 8.97478 9.1726 8.75186 9.1726H5.46675C6.76906 10.7565 8.96301 12.3873 11.8375 14.8981C12.0252 15.0506 12.3537 15.121 12.6118 14.8981C16.9764 11.1084 20.5 9.1726 20.5 5.67627C20.5 2.98957 18.5719 0.959839 16.0729 0.959839C14.0432 0.959839 12.8934 1.96884 12.2716 2.75488C11.6732 1.96884 10.4765 0.959839 8.45851 0.959839C4.86835 0.959839 4.05881 4.45609 4.05881 5.67627C4.05881 6.52105 4.25822 7.27193 4.65717 7.99935H8.38811L9.39715 5.98132Z" fill="#F0AE43"/>
<path d="M1.08663 9.1727L5.46675 9.1726C5.1382 8.77366 4.86836 8.38648 4.65717 7.99935L1.08663 7.99945C0.758076 7.99945 0.5 8.25753 0.5 8.58608C0.5 8.91455 0.758076 9.1727 1.08663 9.1727Z" fill="#F0AE43"/>
</svg>
