<svg width="40" height="40" viewBox="0 0 40 40" fill="none" xmlns="http://www.w3.org/2000/svg">
<circle opacity="0.1" cx="20" cy="20" r="19.5" fill="#ACC0CC" stroke="#ACC0CC"/>
<path fill-rule="evenodd" clip-rule="evenodd" d="M9.64453 15.4883C10.0007 15.4883 10.2891 15.1999 10.2891 14.8438V11.6211H13.5547C13.9109 11.6211 14.1992 11.3327 14.1992 10.9766C14.1992 10.6204 13.9109 10.332 13.5547 10.332H9.64453C9.28836 10.332 9 10.6204 9 10.9766V14.8438C9 15.1999 9.28836 15.4883 9.64453 15.4883ZM30.3555 10.332H26.4453C26.0891 10.332 25.8008 10.6204 25.8008 10.9766C25.8008 11.3327 26.0891 11.6211 26.4453 11.6211H29.7109V14.8438C29.7109 15.1999 29.9993 15.4883 30.3555 15.4883C30.7116 15.4883 31 15.1999 31 14.8438V10.9766C31 10.6204 30.7116 10.332 30.3555 10.332ZM13.5547 29.668H9.64453C9.28836 29.668 9 29.3796 9 29.0234V25.1562C9 24.8001 9.28836 24.5117 9.64453 24.5117C10.0007 24.5117 10.2891 24.8001 10.2891 25.1562V28.3789H13.5547C13.9109 28.3789 14.1992 28.6673 14.1992 29.0234C14.1992 29.3796 13.9109 29.668 13.5547 29.668ZM30.3555 24.5117C29.9993 24.5117 29.7109 24.8001 29.7109 25.1562V28.3789H26.4453C26.0891 28.3789 25.8008 28.6673 25.8008 29.0234C25.8008 29.3796 26.0891 29.668 26.4453 29.668H30.3555C30.7116 29.668 31 29.3796 31 29.0234V25.1562C31 24.8001 30.7116 24.5117 30.3555 24.5117ZM24.5117 20.6445H30.3555C30.7116 20.6445 31 20.9329 31 21.2891C31 21.6452 30.7116 21.9336 30.3555 21.9336H27.0898V26.4453C27.0898 26.8015 26.8015 27.0898 26.4453 27.0898C26.0891 27.0898 25.8008 26.8015 25.8008 26.4453V21.9336H24.5117V29.0234C24.5117 29.3796 24.2234 29.668 23.8672 29.668C23.511 29.668 23.2227 29.3796 23.2227 29.0234V21.9336H21.9336V29.0234C21.9336 29.3796 21.6452 29.668 21.2891 29.668C20.9329 29.668 20.6445 29.3796 20.6445 29.0234V21.9336H16.7773V25.1562C16.7773 25.5124 16.489 25.8008 16.1328 25.8008C15.7766 25.8008 15.4883 25.5124 15.4883 25.1562V21.9336H14.1992V26.4453C14.1992 26.8015 13.9109 27.0898 13.5547 27.0898C13.1985 27.0898 12.9102 26.8015 12.9102 26.4453V21.9336H9.64453C9.28836 21.9336 9 21.6452 9 21.2891C9 20.9329 9.28836 20.6445 9.64453 20.6445H12.9102V18.7109C12.9102 18.3548 13.1985 18.0664 13.5547 18.0664C13.9109 18.0664 14.1992 18.3548 14.1992 18.7109V20.6445H15.4883V17.4219C15.4883 14.9344 17.5125 12.9102 20 12.9102C21.2822 12.9102 22.5076 13.4583 23.363 14.4139C23.6003 14.6794 23.5777 15.0868 23.3126 15.324C23.0478 15.562 22.6397 15.5398 22.4026 15.2736C21.7913 14.5906 20.9158 14.1992 20 14.1992C18.2232 14.1992 16.7773 15.6451 16.7773 17.4219V20.6445H18.0664V18.7109C18.0664 17.6448 18.9338 16.7773 20 16.7773C21.0662 16.7773 21.9336 17.6448 21.9336 18.7109V20.6445H23.2227V17.4219C23.2227 17.0657 23.511 16.7773 23.8672 16.7773C24.2234 16.7773 24.5117 17.0657 24.5117 17.4219V20.6445ZM19.3555 18.7109V20.6445H20.6445V18.7109C20.6445 18.3553 20.3557 18.0664 20 18.0664C19.6443 18.0664 19.3555 18.3553 19.3555 18.7109ZM16.1328 29.668C16.489 29.668 16.7773 29.3796 16.7773 29.0234V27.7344C16.7773 27.3782 16.489 27.0898 16.1328 27.0898C15.7766 27.0898 15.4883 27.3782 15.4883 27.7344V29.0234C15.4883 29.3796 15.7766 29.668 16.1328 29.668ZM13.6843 16.7773C13.642 16.7773 13.5987 16.773 13.5553 16.7648C13.2065 16.6936 12.9812 16.3532 13.0517 16.0044C13.7196 12.7176 16.6413 10.332 19.9999 10.332C20.2856 10.332 20.5677 10.3485 20.8454 10.3817C21.1983 10.424 21.4508 10.7449 21.4086 11.0988C21.3663 11.4517 21.0605 11.7117 20.6916 11.662C20.4645 11.6349 20.2341 11.6211 19.9999 11.6211C17.2519 11.6211 14.8613 13.5723 14.3156 16.2612C14.2533 16.5665 13.9845 16.7773 13.6843 16.7773ZM26.4453 19.3555C26.8015 19.3555 27.0898 19.0671 27.0898 18.7109V17.4219C27.0898 14.9124 25.7422 12.5652 23.5733 11.297C23.2643 11.1164 22.8702 11.2201 22.6914 11.5279C22.512 11.8351 22.6152 12.2304 22.9224 12.4098C24.698 13.4478 25.8008 15.3688 25.8008 17.4219V18.7109C25.8008 19.0671 26.0891 19.3555 26.4453 19.3555ZM18.7109 23.2227C19.0671 23.2227 19.3555 23.511 19.3555 23.8672V29.0234C19.3555 29.3796 19.0671 29.668 18.7109 29.668C18.3548 29.668 18.0664 29.3796 18.0664 29.0234V23.8672C18.0664 23.511 18.3548 23.2227 18.7109 23.2227Z" fill="#ACC0CC"/>
</svg>
