<svg width="40" height="40" viewBox="0 0 40 40" fill="none" xmlns="http://www.w3.org/2000/svg">
<circle cx="20" cy="20" r="20" fill="#1976D3" fill-opacity="0.1"/>
<circle cx="20" cy="20" r="19.5" stroke="#1976D3" stroke-opacity="0.1"/>
<path fill-rule="evenodd" clip-rule="evenodd" d="M30.4606 19.6481H29.5546V16.6413H30.4606C31.67 16.6413 32.6328 17.003 32.6328 18.1255C32.6328 19.2847 31.67 19.6481 30.4606 19.6481ZM20.7099 21.7976C20.2304 21.7976 19.7807 21.7182 19.392 21.5856L20.6969 17.8509H20.7248L22.0027 21.5957C21.6177 21.7207 21.1796 21.7976 20.7113 21.7976H20.7099ZM30.2204 14.1986H26.1064V23.076L22.5125 14.1986H18.9502L15.8795 21.6206C15.555 19.7499 13.4196 19.1022 11.7409 18.6193C10.6343 18.2962 9.45651 17.8213 9.46722 17.2953C9.47653 16.8652 10.0999 16.4664 11.3294 16.526C12.158 16.564 12.8889 16.6248 14.34 17.2615L15.7692 15.0021C14.4452 14.3883 12.6105 14.003 11.1096 14H11.1003C9.34944 14 7.89045 14.518 6.98544 15.3659C6.3565 15.959 6.0162 16.7093 6.00083 17.5446C5.97756 18.6886 6.4417 19.5006 7.41327 20.15C8.23541 20.6967 9.28426 21.0486 10.2107 21.3122C11.3536 21.632 12.2865 21.9113 12.2758 22.5065C12.2665 22.7233 12.1776 22.9265 12.0049 23.087C11.7204 23.3553 11.2833 23.4546 10.6785 23.4668C9.51284 23.488 8.64834 23.3232 7.27128 22.5847L6.00083 24.8758C7.3737 25.5851 8.99889 26 10.6576 26H10.8722C12.3154 25.9747 13.4811 25.6008 14.4126 24.9214L14.5634 24.8019L14.1519 25.8057H17.8878L18.5154 24.0739C19.1718 24.2755 19.9194 24.3887 20.7109 24.3887C21.4832 24.3887 22.2117 24.2831 22.8565 24.0904L23.4598 25.8057H29.5556V22.2188H30.8856C34.0978 22.2188 36 20.7351 36 18.245C36 15.4736 34.1528 14.2024 30.2199 14.2024" fill="#1976D3" fill-opacity="0.7"/>
</svg>
