<svg width="21" height="18" viewBox="0 0 21 18" fill="none" xmlns="http://www.w3.org/2000/svg">
<path d="M9.98894 0.308196C10.1905 -0.102732 10.8095 -0.102732 11.0111 0.308196L13.552 5.48905C13.634 5.65633 13.8021 5.77154 13.9961 5.79347L20.0032 6.47273C20.4797 6.5266 20.6709 7.08213 20.319 7.38997L15.8823 11.2712C15.739 11.3965 15.6749 11.5829 15.7127 11.7637L16.8844 17.3644C16.9773 17.8086 16.4765 18.1519 16.0574 17.9313L10.7744 15.1491C10.6039 15.0593 10.3961 15.0593 10.2256 15.1491L4.94256 17.9313C4.52353 18.1519 4.02271 17.8086 4.11564 17.3644L5.28731 11.7637C5.32514 11.5829 5.26095 11.3965 5.1177 11.2712L0.680957 7.38997C0.329049 7.08213 0.520344 6.5266 0.99681 6.47273L7.00394 5.79347C7.1979 5.77154 7.36595 5.65633 7.448 5.48905L9.98894 0.308196Z" fill="#F0AE43"/>
</svg>
