<svg width="16" height="20" viewBox="0 0 16 20" fill="none" xmlns="http://www.w3.org/2000/svg">
<path d="M15.3774 4.28824L11.2118 0.122578C11.1363 0.0469141 11.0321 0 10.9167 0H2.16668C1.24789 0 0.5 0.747461 0.5 1.66668V18.3334C0.5 19.2525 1.24789 20 2.16668 20H13.8334C14.7521 20 15.5 19.2525 15.5 18.3333V4.58332C15.5 4.46793 15.4531 4.36367 15.3774 4.28824ZM8.41668 16.6667H4.25C4.01969 16.6667 3.83332 16.4803 3.83332 16.25C3.83332 16.0197 4.01969 15.8333 4.25 15.8333H8.41668C8.64699 15.8333 8.83336 16.0197 8.83336 16.25C8.83332 16.4803 8.64699 16.6667 8.41668 16.6667ZM11.75 14.1667H4.25C4.01969 14.1667 3.83332 13.9803 3.83332 13.75C3.83332 13.5197 4.01969 13.3333 4.25 13.3333H11.75C11.9803 13.3333 12.1667 13.5197 12.1667 13.75C12.1667 13.9803 11.9803 14.1667 11.75 14.1667ZM11.75 11.6667H4.25C4.01969 11.6667 3.83332 11.4803 3.83332 11.25C3.83332 11.0197 4.01969 10.8333 4.25 10.8333H11.75C11.9803 10.8333 12.1667 11.0197 12.1667 11.25C12.1667 11.4803 11.9803 11.6667 11.75 11.6667ZM11.75 9.16668H4.25C4.01969 9.16668 3.83332 8.98031 3.83332 8.75C3.83332 8.51969 4.01969 8.33332 4.25 8.33332H11.75C11.9803 8.33332 12.1667 8.51969 12.1667 8.75C12.1667 8.98031 11.9803 9.16668 11.75 9.16668ZM12.1667 4.16668C11.7069 4.16668 11.3334 3.79273 11.3334 3.33336V1.42254L14.0775 4.16668H12.1667Z" fill="#F0AE43"/>
</svg>
