<svg width="40" height="40" viewBox="0 0 40 40" fill="none" xmlns="http://www.w3.org/2000/svg">
<circle cx="20" cy="20" r="20" fill="#ED7F06" fill-opacity="0.1"/>
<circle cx="20" cy="20" r="19.5" stroke="#ED7F06" stroke-opacity="0.1"/>
<g clip-path="url(#clip0_4_15860)">
<path d="M18.7785 25.2412C19.0953 25.2412 19.4121 25.244 19.729 25.2384C19.8355 25.2355 19.8586 25.2694 19.8355 25.3682C19.7866 25.5969 19.752 25.8285 19.7578 26.0656C19.7635 26.3198 19.8355 26.4242 20.0861 26.492C20.3741 26.571 20.6708 26.5823 20.9703 26.5852C21.3073 26.5852 21.6414 26.5767 21.9697 26.5033C22.1684 26.4581 22.3182 26.3508 22.4132 26.1758C22.6264 25.7861 22.7214 25.3682 22.6897 24.9278C22.6724 24.6906 22.5716 24.5805 22.3383 24.5268C22.0186 24.4534 21.6932 24.4534 21.3677 24.4506C20.8868 24.4478 20.4115 24.4111 19.9478 24.2784C18.8361 23.965 18.3206 23.2732 18.3811 22.1438C18.4156 21.5226 18.5769 20.9325 18.8822 20.3819C19.2653 19.6958 19.8355 19.2158 20.5815 18.9589C21.7796 18.5439 23.0065 18.51 24.2277 18.846C24.9304 19.0408 25.4345 19.47 25.6159 20.1956C25.7282 20.6587 25.6821 21.1189 25.59 21.5763C25.5439 21.8135 25.541 21.8135 25.2847 21.8135C24.7144 21.8135 24.1442 21.8106 23.571 21.8163C23.4472 21.8163 23.3896 21.8078 23.427 21.6582C23.4846 21.4295 23.5077 21.1951 23.499 20.9608C23.4904 20.7547 23.427 20.6615 23.2283 20.5909C23.0958 20.5429 22.9604 20.5175 22.8222 20.5062C22.3441 20.4667 21.866 20.4638 21.3879 20.5372C21.0884 20.5824 20.8896 20.7462 20.7716 21.0088C20.616 21.3532 20.5412 21.7146 20.5584 22.0902C20.5728 22.3556 20.6823 22.4826 20.9472 22.5391C21.3389 22.621 21.7393 22.5927 22.1367 22.6097C22.6609 22.6323 23.1765 22.7 23.6661 22.9005C24.4149 23.2083 24.8354 23.7645 24.8642 24.5579C24.9016 25.5715 24.6309 26.5005 23.9282 27.2769C23.4529 27.7993 22.8424 28.1042 22.154 28.2538C21.0826 28.4882 20.0055 28.5221 18.9485 28.1889C17.9116 27.8614 17.5142 27.0765 17.5804 26.0882C17.5977 25.8398 17.6495 25.5969 17.6841 25.3485C17.6956 25.2666 17.7244 25.2299 17.8223 25.2327C18.1449 25.2468 18.4617 25.2412 18.7785 25.2412Z" fill="#ED7F06"/>
<path d="M22.3815 31.9583C21.7825 32.0346 21.2208 31.9866 20.6592 31.9499C20.0342 31.9103 19.4179 31.82 18.8073 31.6901C17.7935 31.4755 16.82 31.1423 15.8955 30.6821C15.1553 30.3151 14.4584 29.8802 13.8219 29.3579C13.4849 29.0812 13.1508 28.7988 12.8513 28.4854C12.4336 28.045 12.0535 27.5763 11.7165 27.0737C11.2355 26.3537 10.8496 25.5885 10.5645 24.7754C10.3715 24.2191 10.2304 23.646 10.1411 23.0615C10.0432 22.4206 9.98555 21.7796 10.0057 21.1331C10.0345 20.2437 10.1411 19.3627 10.3888 18.5044C10.4377 18.335 10.4953 18.1656 10.5414 17.9933C10.5587 17.9284 10.5731 17.9114 10.6451 17.9284C10.7171 17.9453 10.7805 17.9764 10.8409 18.0131C11.0886 18.1599 11.3363 18.2983 11.5869 18.4366C11.7626 18.5326 11.9354 18.6427 12.1111 18.7416C12.2148 18.8008 12.3415 18.8488 12.4394 18.9138C12.5949 19.0126 12.7505 19.1114 12.9146 19.1905C13.0356 19.2498 13.1421 19.3317 13.2718 19.3797C13.3697 19.4135 13.4359 19.4785 13.3841 19.614C13.1854 20.1477 13.0442 20.6954 12.9722 21.2573C12.8973 21.8446 12.8973 22.4319 12.9319 23.0248C12.9751 23.7476 13.0903 24.4535 13.2833 25.1509C13.5137 25.9782 13.8564 26.7575 14.3201 27.4859C14.6974 28.076 15.1409 28.6125 15.6536 29.0953C16.2613 29.6685 16.9381 30.1513 17.6783 30.5522C18.6057 31.0548 19.5907 31.4049 20.6189 31.6506C21.1892 31.7861 21.7652 31.8849 22.3815 31.9583Z" fill="#ED7F06"/>
<path d="M30.9498 14.43C30.9469 14.478 30.9095 14.495 30.8807 14.5147C30.1578 15.054 29.432 15.5961 28.7091 16.1354C28.2857 16.4517 27.8623 16.7651 27.4418 17.0841C27.3612 17.1462 27.3266 17.1378 27.2604 17.0644C26.1717 15.8587 24.8382 15.0371 23.2513 14.6107C23.0698 14.5627 23.0727 14.5627 23.1793 14.4159C24.0433 13.2272 24.9074 12.0385 25.7656 10.8442C25.8261 10.7595 25.8722 10.7425 25.973 10.7821C27.4217 11.3439 28.7062 12.1486 29.8295 13.2046C30.2067 13.5604 30.5552 13.9416 30.8836 14.3397C30.9066 14.3707 30.9268 14.4018 30.9498 14.43Z" fill="#ED7F06"/>
<path d="M17.1743 15.2714C17.1369 14.9326 17.1455 14.591 17.134 14.2493C17.1081 13.2639 17.0793 12.2785 17.0476 11.296C17.0361 10.9515 17.0332 10.9487 17.3673 10.8188C18.3696 10.4263 19.4035 10.1722 20.4749 10.0621C21.0625 10.0028 21.65 9.98587 22.2375 10.0085C22.4161 10.0141 22.3297 10.1073 22.3038 10.1722C21.9034 11.1633 21.5002 12.1543 21.097 13.1482C20.9501 13.5096 20.8004 13.8682 20.6564 14.2324C20.6276 14.3058 20.593 14.3482 20.5066 14.3538C19.3632 14.4216 18.286 14.7293 17.2694 15.246C17.2434 15.2602 17.2175 15.2827 17.1743 15.2714Z" fill="#ED7F06"/>
<path d="M14.156 18.0667C13.842 17.7166 13.5396 17.3608 13.217 17.0248C13.0817 16.8837 12.9521 16.734 12.8138 16.5929C12.641 16.4206 12.4884 16.2314 12.3242 16.0507C12.1773 15.8898 12.0391 15.7232 11.8864 15.5679C11.7914 15.4719 11.7511 15.4013 11.8461 15.263C12.2464 14.6842 12.6813 14.1336 13.1681 13.6225C13.5367 13.2329 13.9428 12.8828 14.3576 12.544C14.4612 12.4593 14.4728 12.4988 14.4929 12.6004C14.7176 13.7948 14.948 14.9891 15.1755 16.1834C15.1957 16.2879 15.2014 16.4009 15.2389 16.4997C15.3166 16.7171 15.1409 16.8131 15.0315 16.9317C14.7089 17.2846 14.418 17.6573 14.156 18.0667Z" fill="#ED7F06"/>
</g>
<defs>
<clipPath id="clip0_4_15860">
<rect width="22" height="22" fill="white" transform="translate(10 10)"/>
</clipPath>
</defs>
</svg>
