<svg width="40" height="40" viewBox="0 0 40 40" fill="none" xmlns="http://www.w3.org/2000/svg">
<circle opacity="0.1" cx="20" cy="20" r="19.5" fill="#F6C358" stroke="#F6C358"/>
<path fill-rule="evenodd" clip-rule="evenodd" d="M29.7741 14.3709L29.7705 14.3662C29.7501 14.3418 29.7287 14.3177 29.7054 14.2944L23.7059 8.29488C23.6826 8.27159 23.6585 8.25021 23.634 8.22982L23.6294 8.22617C23.4243 8.05715 23.1825 7.98848 22.9484 8.00203H12.9997C12.4474 8.00203 11.9998 8.4497 11.9998 9.00193V31.0001C11.9998 31.5523 12.4474 32 12.9997 32H28.9983C29.5505 32 29.9982 31.5523 29.9982 31.0001V15.0519C30.0118 14.8178 29.9432 14.5759 29.7741 14.3709ZM26.5843 14.0015H23.9987V11.4159L26.5843 14.0015ZM13.9996 30.0002V10.0018H21.9989V15.0014C21.9989 15.5537 22.4466 16.0013 22.9988 16.0013H27.9984V30.0002H13.9996ZM25.9985 18.0012H20.9989C20.4467 18.0012 19.999 18.4489 19.999 19.0011C19.999 19.5534 20.4467 20.001 20.9989 20.001H25.9985C26.5508 20.001 26.9984 19.5534 26.9984 19.0011C26.9984 18.4489 26.5508 18.0012 25.9985 18.0012ZM16.9993 20.001H15.9994C15.4472 20.001 14.9995 19.5534 14.9995 19.0011C14.9995 18.4489 15.4472 18.0012 15.9994 18.0012H16.9993C17.5515 18.0012 17.9992 18.4489 17.9992 19.0011C17.9992 19.5534 17.5515 20.001 16.9993 20.001ZM25.9985 22.0009H23.9987C23.4464 22.0009 22.9988 22.4485 22.9988 23.0008C22.9988 23.553 23.4464 24.0007 23.9987 24.0007H25.9985C26.5508 24.0007 26.9984 23.553 26.9984 23.0008C26.9984 22.4485 26.5508 22.0009 25.9985 22.0009ZM15.9994 22.0009H19.9991C20.5513 22.0009 20.999 22.4485 20.999 23.0008C20.999 23.553 20.5513 24.0007 19.9991 24.0007H15.9994C15.4472 24.0007 14.9995 23.553 14.9995 23.0008C14.9995 22.4485 15.4472 22.0009 15.9994 22.0009ZM25.9986 26.0005H21.9989C21.4467 26.0005 20.999 26.4482 20.999 27.0004C20.999 27.5526 21.4467 28.0003 21.9989 28.0003H25.9986C26.5508 28.0003 26.9985 27.5526 26.9985 27.0004C26.9985 26.4482 26.5508 26.0005 25.9986 26.0005ZM15.9994 26.0005H17.9993C18.5515 26.0005 18.9992 26.4482 18.9992 27.0004C18.9992 27.5526 18.5515 28.0003 17.9993 28.0003H15.9994C15.4472 28.0003 14.9995 27.5526 14.9995 27.0004C14.9995 26.4482 15.4472 26.0005 15.9994 26.0005Z" fill="#F6C358"/>
</svg>
