<svg width="26" height="26" viewBox="0 0 26 26" fill="none" xmlns="http://www.w3.org/2000/svg">
<path fill-rule="evenodd" clip-rule="evenodd" d="M24.5 13C24.5 19.3513 19.3513 24.5 13 24.5C6.64873 24.5 1.5 19.3513 1.5 13C1.5 6.64873 6.64873 1.5 13 1.5C19.3513 1.5 24.5 6.64873 24.5 13ZM26 13C26 20.1797 20.1797 26 13 26C5.8203 26 0 20.1797 0 13C0 5.8203 5.8203 0 13 0C20.1797 0 26 5.8203 26 13ZM17.7523 14.5239C18.0826 14.8612 18.0826 15.4245 17.7523 15.7618C17.4414 16.0794 16.9502 16.0794 16.6393 15.7618L13 12.0445L9.36073 15.7618C9.04978 16.0794 8.55861 16.0794 8.24766 15.7618C7.91745 15.4245 7.91745 14.8612 8.24766 14.5239L12.4435 10.2382C12.7544 9.9206 13.2456 9.9206 13.5565 10.2382L17.7523 14.5239Z" fill="#949300"/>
</svg>
