<svg width="26" height="26" viewBox="0 0 26 26" fill="none" xmlns="http://www.w3.org/2000/svg">
<path fill-rule="evenodd" clip-rule="evenodd" d="M1.5 13C1.5 6.64873 6.64873 1.5 13 1.5C19.3513 1.5 24.5 6.64873 24.5 13C24.5 19.3513 19.3513 24.5 13 24.5C6.64873 24.5 1.5 19.3513 1.5 13ZM0 13C0 5.8203 5.8203 0 13 0C20.1797 0 26 5.8203 26 13C26 20.1797 20.1797 26 13 26C5.8203 26 0 20.1797 0 13ZM8.24766 11.4777C7.91745 11.14 7.91745 10.5761 8.24766 10.2385C8.55861 9.92051 9.04978 9.92051 9.36073 10.2385L13 13.9598L16.6393 10.2385C16.9502 9.92051 17.4414 9.92051 17.7523 10.2385C18.0826 10.5761 18.0826 11.14 17.7523 11.4777L13.5565 15.7681C13.2456 16.0861 12.7544 16.0861 12.4435 15.7681L8.24766 11.4777Z" fill="#333333"/>
</svg>
