<svg width="30" height="30" viewBox="0 0 30 30" fill="none" xmlns="http://www.w3.org/2000/svg">
<circle cx="15" cy="15" r="15" fill="white"/>
<path d="M19.2391 9.37187C19.1424 9.23298 19.0122 9.13141 18.8487 9.06698C18.7446 9.02242 18.6355 9.0001 18.5215 9.0001V9H10.7289C10.6149 9 10.5059 9.02232 10.4018 9.06688C10.2383 9.13126 10.1081 9.23296 10.0115 9.37177C9.91484 9.51058 9.86646 9.66418 9.86646 9.83276V19.4172C9.86646 19.5858 9.91484 19.7394 10.0115 19.8783C10.1081 20.0171 10.2383 20.1188 10.4018 20.1831C10.5058 20.2277 10.6149 20.25 10.7289 20.25C10.962 20.25 11.1676 20.1681 11.3461 20.0047L14.6252 16.8518L17.9043 20.0048C18.0779 20.1631 18.2836 20.2425 18.5214 20.2425C18.6454 20.2425 18.7545 20.2228 18.8487 20.1831C19.0121 20.1188 19.1423 20.0171 19.239 19.8781C19.3357 19.7394 19.3839 19.5858 19.3839 19.4172V9.83287C19.384 9.66429 19.3356 9.51068 19.2391 9.37187Z" fill="#B8B9BA"/>
</svg>
