<svg width="22" height="22" viewBox="0 0 22 22" fill="none" xmlns="http://www.w3.org/2000/svg">
<path fill-rule="evenodd" clip-rule="evenodd" d="M20.0132 10.3971V10.3457C20.4132 9.48151 21.1686 9.45251 22 10.252C22 8.93219 21.7184 7.88715 21.0814 7.29535C20.6818 6.93896 20.2724 6.84592 19.873 6.75517L19.8728 6.75513C19.379 6.64294 18.9006 6.53424 18.4756 5.93542C18.3862 4.98865 19.0366 4.59564 20.1562 4.85468C19.4857 3.72247 18.717 2.961 17.8767 2.76453C17.7056 2.72357 17.5288 2.71149 17.3538 2.72876C17.0609 2.75653 16.7727 2.82031 16.4955 2.91858C16.3605 2.96307 16.2233 3.00031 16.0844 3.03027C15.9878 3.04962 15.8899 3.06085 15.7915 3.06372C15.4963 3.07843 15.2023 3.01691 14.9379 2.88507C14.3992 2.11694 14.7501 1.46936 15.7915 1.12994C15.7985 1.1286 15.8053 1.12683 15.812 1.12457C15.826 1.11993 15.8395 1.11346 15.8519 1.10535C15.8331 1.0943 15.8127 1.086 15.7915 1.08081C15.282 0.778748 14.7308 0.55304 14.1556 0.410889C13.7158 0.297424 13.2545 0.297424 12.8147 0.410889C12.309 0.582664 12.0199 0.893109 11.7388 1.19499L11.7386 1.19519C11.5155 1.43494 11.2974 1.66925 10.9799 1.8244C10.7965 1.91248 10.5991 1.96765 10.3966 1.98743H10.3452C9.48035 1.58325 9.45129 0.830688 10.2513 0C9.23889 0 8.38074 0.171936 7.76392 0.531494C7.59143 0.643799 7.43372 0.777344 7.29456 0.928955C6.94587 1.32815 6.85276 1.73472 6.76211 2.13058L6.76196 2.13123L6.76194 2.13134C6.66563 2.55232 6.57211 2.96116 6.17712 3.33618C6.14038 3.37103 6.10242 3.40466 6.06335 3.43695C6.02209 3.47113 5.97949 3.50378 5.93579 3.53491H5.8844C5.7439 3.54419 5.60278 3.53595 5.46423 3.51038C4.85638 3.36298 4.63513 2.76453 4.85638 1.85565L4.59937 2.00977C3.60486 2.63501 2.92767 3.34955 2.74664 4.11554C2.64075 4.64047 2.76488 5.042 2.88566 5.43272L2.88568 5.4328C3.03772 5.92456 3.18439 6.39911 2.8606 7.08099C2.07843 7.63702 1.41022 7.27753 1.08392 6.17438C0.429077 7.32214 0.151978 8.37396 0.402283 9.19794C0.575562 9.70129 0.883728 9.98407 1.18408 10.2596C1.55005 10.5954 1.90436 10.9205 1.98901 11.6208V11.6744C1.59344 12.5386 0.83136 12.5676 0 11.7771C0 13.0879 0.290527 14.1419 0.925232 14.7314C1.32305 15.0822 1.73105 15.1743 2.12911 15.2641L2.12933 15.2642C2.62573 15.3762 3.10669 15.4847 3.53333 16.0869C3.62274 17.0292 2.97015 17.4267 1.85046 17.1655C2.52094 18.3043 3.29193 19.0747 4.13226 19.2645C4.28754 19.2952 4.44556 19.3094 4.60382 19.3069C4.89905 19.2822 5.18982 19.2191 5.46875 19.1194C5.6073 19.0747 5.74365 19.0323 5.88892 18.9988C5.91125 18.9951 5.93384 18.9911 5.95642 18.9871C6.02856 18.9743 6.1012 18.9615 6.17273 18.9564C6.48157 18.9391 6.78955 19.0022 7.06665 19.1395C7.60303 19.9143 7.24988 20.5709 6.17273 20.9036C6.16895 20.9045 6.16516 20.9048 6.16125 20.9046C6.16638 20.9061 6.17273 20.9099 6.17273 20.9192C6.67151 21.2126 7.2074 21.4379 7.76611 21.5891C8.22937 21.7145 8.71765 21.7145 9.18079 21.5891C9.68262 21.4199 9.96753 21.1114 10.245 20.8109L10.245 20.8108C10.4619 20.576 10.6743 20.346 10.9822 20.1912C11.1764 20.0978 11.3848 20.0374 11.599 20.0126H11.6504C12.5175 20.4146 12.5443 21.1693 11.7465 22C12.7141 22 13.5343 21.8459 14.1467 21.5132C14.356 21.399 14.5466 21.2537 14.7122 21.0822C15.064 20.6797 15.1556 20.2712 15.2447 19.8738L15.2448 19.8736C15.3356 19.4684 15.4238 19.0748 15.7826 18.7107C15.8777 18.6203 15.981 18.5388 16.0911 18.4673C16.2284 18.4606 16.366 18.4666 16.5022 18.4852C17.1437 18.6058 17.3961 19.2131 17.1727 20.1488C17.2421 20.1132 17.3086 20.0721 17.3716 20.026C18.3997 19.3918 19.0947 18.6638 19.2758 17.8778C19.3818 17.3485 19.2563 16.9464 19.1344 16.5555C18.9816 16.0659 18.8344 15.5941 19.155 14.9123V14.9369C19.9349 14.3898 20.6031 14.7493 20.9294 15.8457C21.6 14.7068 21.866 13.6529 21.6156 12.8311C21.4344 12.3282 21.1229 12.0437 20.8213 11.7682C20.4492 11.4285 20.0922 11.1025 20.0132 10.3971ZM16.0911 18.4673C16.0852 18.4694 16.079 18.4694 16.0731 18.4673L16.0911 18.4517C16.0975 18.446 16.0992 18.4445 16.0996 18.4448C16.0998 18.4449 16.0997 18.4453 16.0996 18.4458C16.0994 18.4478 16.0989 18.4517 16.1067 18.4517C16.105 18.4537 16.1033 18.4557 16.1014 18.4576C16.0983 18.4611 16.0947 18.4644 16.0911 18.4673ZM11 15C13.2091 15 15 13.2091 15 11C15 8.79086 13.2091 7 11 7C8.79086 7 7 8.79086 7 11C7 13.2091 8.79086 15 11 15Z" fill="#333333"/>
</svg>

