<svg width="40" height="21" viewBox="0 0 40 21" fill="none" xmlns="http://www.w3.org/2000/svg">
<circle cx="10" cy="15" r="5" stroke="#333333" stroke-width="2"/>
<circle cx="10" cy="15" r="2" fill="#333333"/>
<circle cx="31" cy="15" r="5" stroke="#333333" stroke-width="2"/>
<circle cx="31" cy="15" r="2" fill="#333333"/>
<path fill-rule="evenodd" clip-rule="evenodd" d="M31.5 0L30.5 0.5L29 1H0L0.825757 4.71591L24.4144 10.2199L31 1H40V0H31.5ZM18 15V9.75004L18.6347 9.89813L18.6717 9.93515L18.6947 9.91214L23.7857 11.1L21 15H18ZM4.44816 4.552L7.00016 2H9.12148L6.16815 4.95333L4.44816 4.552ZM9.17367 5.65461L12.8283 2H14.9496L10.8937 6.05594L9.17367 5.65461ZM13.8996 6.75731L18.6569 2H20.7782L15.6196 7.15864L13.8996 6.75731ZM18.6255 7.86001L24.4855 2H26.6068L20.3455 8.26134L18.6255 7.86001Z" fill="#333333"/>
<path fill-rule="evenodd" clip-rule="evenodd" d="M31.5001 2H37.0001L39.0001 7V15H38.0001C38.0001 11.134 34.866 8 31.0001 8H27.3462L31.5001 2ZM36 3H32V6H37L36 3Z" fill="#333333"/>
</svg>
