<svg width="20" height="20" viewBox="0 0 20 20" fill="none" xmlns="http://www.w3.org/2000/svg">
<path d="M15.2 2.1939L14.96 0L0 8.10056L0.799999 15.6105C1.2 16.2011 1.68 16.7074 2.16 17.1293L1.36 9.61942L15.2 2.1939Z" fill="white"/>
<path d="M15.6 5.14721L16.72 4.55654L16.48 2.78455L15.36 3.37521L2.47998 10.2944L3.35998 18.0575C3.83998 18.395 4.31998 18.6481 4.79998 18.9013L3.99998 11.3914L15.6 5.14721Z" fill="white"/>
<path d="M20 12.6571L19.12 4.47217L17.84 5.14721L17.36 5.40036L16.88 5.6535L15.76 6.24417L5.12 11.9821L5.91999 19.3232C7.03999 19.7451 8.23999 19.9982 9.51999 19.9982C14.24 20.0826 18.32 17.0449 20 12.6571Z" fill="white"/>
</svg>
