<svg width="13" height="12" viewBox="0 0 13 12" fill="none" xmlns="http://www.w3.org/2000/svg">
<path d="M1.52115 8.80462L1.53848 8.6165L1.4271 8.46392C0.817279 7.62859 0.500017 6.66983 0.500017 5.68421C0.500017 2.88275 3.10398 0.5 6.43819 0.5C9.77241 0.5 12.3764 2.88275 12.3764 5.68421C12.3764 8.48567 9.77241 10.8684 6.43819 10.8684C5.58485 10.8684 4.76409 10.7136 3.99474 10.4092L3.77248 10.3212L3.56447 10.439C2.68411 10.9373 1.57052 11.2296 0.864767 11.378C0.977004 11.1691 1.0731 10.9381 1.15499 10.6923C1.33273 10.1587 1.45525 9.5197 1.52115 8.80462Z" stroke="white"/>
</svg>
