<svg width="20" height="20" viewBox="0 0 20 20" fill="none" xmlns="http://www.w3.org/2000/svg">
<path fill-rule="evenodd" clip-rule="evenodd" d="M18.9763 7.90051L17.5725 7.66237C17.4263 7.19026 17.2382 6.73486 17.0085 6.30035L17.8357 5.14306C18.1866 4.65006 18.1323 3.97741 17.702 3.55126L16.457 2.30623C16.223 2.07227 15.9138 1.94275 15.5838 1.94275C15.3247 1.94275 15.0782 2.02213 14.8693 2.17254L13.7079 2.99977C13.2567 2.76163 12.7845 2.56526 12.2957 2.41904L12.0618 1.03195C11.9615 0.434507 11.4476 0 10.8418 0H9.08288C8.47707 0 7.96318 0.434507 7.86291 1.03195L7.62059 2.45246C7.15266 2.59869 6.69726 2.79087 6.26276 3.02484L5.11382 2.1976C4.90492 2.0472 4.65424 1.96782 4.39521 1.96782C4.06515 1.96782 3.7518 2.09733 3.52202 2.3313L2.27281 3.57633C1.84666 4.00248 1.78817 4.67513 2.13911 5.16813L2.9747 6.34213C2.74492 6.78082 2.56109 7.23622 2.41904 7.70833L1.03196 7.94229C0.434507 8.04256 0 8.55645 0 9.16225V10.9212C0 11.527 0.434507 12.0409 1.03196 12.1411L2.45246 12.3835C2.59869 12.8514 2.79087 13.3068 3.02484 13.7413L2.20178 14.8861C1.85083 15.379 1.90515 16.0517 2.33548 16.4779L3.58051 17.7229C3.81447 17.9568 4.12364 18.0864 4.4537 18.0864C4.71273 18.0864 4.95923 18.007 5.16813 17.8566L6.34214 17.021C6.76411 17.2424 7.20697 17.4221 7.66237 17.5641L7.89634 18.9679C7.99661 19.5654 8.5105 19.9999 9.1163 19.9999H10.8794C11.4852 19.9999 11.9991 19.5654 12.0994 18.9679L12.3375 17.5641C12.8096 17.4179 13.265 17.2299 13.6995 17.0001L14.8568 17.8273C15.0657 17.9777 15.3164 18.0571 15.5754 18.0571C15.9055 18.0571 16.2146 17.9276 16.4486 17.6936L17.6936 16.4486C18.1198 16.0225 18.1783 15.3498 17.8273 14.8568L17.0001 13.6953C17.2299 13.2566 17.4221 12.8013 17.5641 12.3333L18.9679 12.0994C19.5654 11.9991 19.9999 11.4852 19.9999 10.8794V9.12047C20.0082 8.51467 19.5737 8.00078 18.9763 7.90051ZM6 10C6 12.2071 7.79292 14 10 14C12.2071 14 14 12.2071 14 10C14 7.79292 12.2071 6 10 6C7.79292 6 6 7.79292 6 10Z" fill="#333333"/>
</svg>
