<svg width="70" height="70" viewBox="0 0 70 70" fill="none" xmlns="http://www.w3.org/2000/svg">
<rect width="70" height="70" rx="5" fill="#B8B9BA"/>
<path d="M42.0213 37.6149C41.8543 37.792 36.2285 43.6645 35.8333 44.0967C37.056 44.9842 38.4596 45.5515 39.929 45.7521C41.3984 45.9526 42.8917 45.7807 44.2863 45.2504C44.6204 45.1208 45.211 44.9609 45.5573 44.7837L45.9077 44.3862C47.5604 42.49 48.6881 40.1469 49.1666 37.6149C46.7876 36.5432 43.6712 36.1716 42.0213 37.6149Z" fill="white"/>
<path d="M42.1931 31.157C43.7765 32.7984 47.4561 32.9383 49.1667 31.5599C48.7565 29.7192 47.1156 26.4703 45.3394 24.918L44.8472 24.4514C43.618 23.3362 42.2105 22.4506 40.6877 21.8345L39.7811 21.5037L38.3413 21.1177C37.3612 20.9234 36.3651 20.8283 35.3672 20.8336C34.4025 20.8336 33.4403 20.9359 32.4958 21.1389L30.9903 21.5631L30.133 21.8812C28.8811 22.4315 27.7135 23.1673 26.6667 24.0655C28.171 23.5896 29.7622 23.4844 31.3129 23.7584C32.8636 24.0324 34.3308 24.6779 35.597 25.6432C35.597 25.6432 42.0167 30.9746 42.1931 31.157Z" fill="white"/>
<path d="M25.1651 45.2438C26.4835 46.5024 28.0429 47.497 29.755 48.1709L30.6207 48.4733L32.1452 48.8765C34.058 49.2508 36.027 49.2631 37.9447 48.9128L39.5022 48.5298L40.5296 48.1709C41.8373 47.6508 43.062 46.9516 44.1667 46.0945C42.5942 46.5269 40.9432 46.6171 39.331 46.3585C37.7187 46.1 36.1846 45.4992 34.8378 44.5987L25.8237 35.8333C24.739 37.377 24.1612 39.2047 24.1667 41.0748C24.168 42.0799 24.3316 43.0785 24.6514 44.0342C24.788 44.4256 24.947 44.8092 25.1278 45.1833L25.1651 45.2438Z" fill="white"/>
<path d="M24.7584 25.1354C23.5004 26.4221 22.5067 27.943 21.8334 29.6122L21.5268 30.4559L21.1233 31.9414C20.7366 33.8054 20.7366 35.729 21.1233 37.593L21.5268 39.0745L21.8334 39.9222C22.3525 41.1563 23.0528 42.306 23.9111 43.3333C23.6217 42.3899 23.4695 41.4096 23.4593 40.4228C23.4543 38.3127 24.1323 36.2578 25.3918 34.5654L34.1666 25.7934C32.955 24.9646 31.5648 24.4339 30.1094 24.2445C28.654 24.0551 27.1744 24.2124 25.7912 24.7034C25.4644 24.8245 25.1255 24.9618 24.7866 25.1273L24.7584 25.1354Z" fill="white"/>
<path d="M46.5522 24.9472C48.9931 27.7322 50.3387 31.3082 50.3387 35.0102C50.3387 38.7121 48.9931 42.2881 46.5522 45.0731C46.0735 45.6313 45.5518 46.1512 44.9919 46.6281L44.2564 47.2371C44.0857 47.363 43.911 47.4888 43.7241 47.6147C42.7948 48.2627 41.7974 48.8073 40.7497 49.2387C37.0239 50.7311 32.8629 50.7151 29.1487 49.1941C28.1296 48.7538 27.1587 48.2096 26.2515 47.57L25.7355 47.1965C25.4714 46.9935 25.2235 46.7905 24.9716 46.5713C24.4085 46.0878 23.8828 45.5626 23.399 45C21.0057 42.2194 19.6896 38.6735 19.6896 35.0061C19.6896 31.3386 21.0057 27.7927 23.399 25.0122C23.8839 24.4506 24.4095 23.9254 24.9716 23.4409C25.2235 23.2217 25.4714 23.0349 25.7355 22.8157C25.9061 22.6857 26.0809 22.5639 26.2515 22.4421C27.1622 21.8217 28.1328 21.294 29.1487 20.8668C32.8584 19.3246 37.0272 19.3071 40.7497 20.8181C41.799 21.2379 42.7969 21.776 43.7241 22.4218C43.911 22.5355 44.0857 22.6736 44.2564 22.7994C44.5043 22.9862 44.7562 23.1851 45.0041 23.3922L46.5522 24.9472ZM51.3876 33.9038V33.8104C52.115 32.2391 53.4884 32.1864 55 33.6399C55 31.2404 54.488 29.3402 53.3299 28.2643C51.7046 26.8149 49.9898 27.7609 48.592 25.7917C48.4295 24.0702 49.6119 23.3557 51.6477 23.8266C50.4287 21.7682 49.0309 20.3837 47.503 20.0264C47.1919 19.9519 46.8706 19.93 46.5522 19.9614C46.0199 20.0119 45.4958 20.1278 44.9919 20.3065C44.7464 20.3874 44.4968 20.4551 44.2442 20.5095C44.0688 20.5448 43.8907 20.5651 43.7119 20.5704C43.1752 20.5972 42.6406 20.4853 42.1597 20.2456C41.1804 18.849 41.8184 17.6715 43.7119 17.0544C43.751 17.0467 43.7883 17.0316 43.8216 17.0097C43.7874 16.9896 43.7505 16.9745 43.7119 16.9651C42.7854 16.4159 41.7832 16.0056 40.7375 15.7471C39.9379 15.5408 39.099 15.5408 38.2995 15.7471C36.6497 16.3073 36.2678 17.6797 34.9634 18.3171C34.63 18.4772 34.271 18.5775 33.9029 18.6135H33.8094C32.2369 17.8786 32.1841 16.5104 33.6388 15C31.798 15 30.2377 15.3126 29.1162 15.9663C28.8026 16.1705 28.5159 16.4133 28.2629 16.689C26.9545 18.1872 27.6249 19.7422 26.2312 21.0658C26.0935 21.1963 25.9469 21.317 25.7924 21.4271H25.6989C25.4434 21.444 25.1868 21.429 24.935 21.3825C23.8297 21.1145 23.4275 20.0264 23.8297 18.3739L23.3625 18.6541C21.5542 19.7909 20.323 21.0901 19.9939 22.4827C19.5591 24.6387 21.2576 25.6496 20.2011 27.8745C18.779 28.8855 17.564 28.2318 16.9707 26.2261C15.7802 28.313 15.2763 30.2253 15.7314 31.7235C16.4303 33.7536 18.336 33.8104 18.6164 36.1287V36.2261C17.8972 37.7974 16.5116 37.8502 15 36.4129C15 38.7962 15.5282 40.7125 16.6822 41.7844C18.3076 43.2176 20.0264 42.2757 21.4242 44.2489C21.5868 45.9622 20.4002 46.6849 18.3645 46.2099C19.5835 48.2806 20.9854 49.6813 22.5132 50.0264C22.7955 50.0822 23.0829 50.108 23.3706 50.1035C23.9073 50.0584 24.4359 49.9438 24.9431 49.7625C25.195 49.6813 25.4429 49.6041 25.707 49.5432C25.8777 49.5148 26.0524 49.4783 26.2231 49.4661C26.7846 49.4347 27.3446 49.5494 27.8484 49.799C28.8236 51.2079 28.1816 52.4015 26.2231 53.0065C26.2124 53.0093 26.2012 53.0093 26.1906 53.0065C26.1906 53.0065 26.2231 53.0065 26.2231 53.0349C27.13 53.5684 28.1044 53.978 29.1203 54.2529C29.9625 54.481 30.8502 54.481 31.6924 54.2529C33.3178 53.7048 33.6916 52.3528 34.9675 51.7113C35.3206 51.5414 35.6997 51.4316 36.089 51.3865H36.1824C37.759 52.1173 37.8078 53.4896 36.3572 55C38.1166 55 39.6079 54.7199 40.7213 54.1149C41.1017 53.9072 41.4483 53.643 41.7493 53.3313C43.0414 51.8534 42.4035 50.3309 43.6957 49.0195C43.8685 48.855 44.0562 48.7069 44.2564 48.5769C44.2459 48.5807 44.2344 48.5807 44.2239 48.5769C44.2239 48.5769 44.2239 48.5769 44.2564 48.5485C44.2889 48.5201 44.2564 48.5485 44.2848 48.5485C44.2764 48.559 44.2669 48.5685 44.2564 48.5769C44.5061 48.5648 44.7564 48.5756 45.0041 48.6094C46.1703 48.8287 46.6294 49.933 46.2231 51.6342C46.3493 51.5694 46.4702 51.4947 46.5847 51.4109C48.4539 50.2578 49.7176 48.9342 50.0467 47.5051C50.4815 45.337 48.7789 44.3423 49.8273 42.1133C49.8273 42.1133 49.8273 42.1458 49.8273 42.1579C51.2454 41.1632 52.4604 41.8169 53.0536 43.8104C54.2727 41.7397 54.7562 39.8234 54.3011 38.3293C53.5656 36.2871 51.6477 36.2261 51.3876 33.9038Z" fill="white"/>
</svg>
