<svg width="11" height="12" viewBox="0 0 11 12" fill="none" xmlns="http://www.w3.org/2000/svg">
<path fill-rule="evenodd" clip-rule="evenodd" d="M10.1464 0.646447C10.3417 0.451184 10.6583 0.451184 10.8536 0.646447C11.0488 0.841709 11.0488 1.15829 10.8536 1.35355L9.74264 2.46447C7.79002 4.41709 7.79002 7.58291 9.74264 9.53554L10.8536 10.6464C11.0488 10.8417 11.0488 11.1583 10.8536 11.3536C10.6583 11.5488 10.3417 11.5488 10.1464 11.3536L5.14645 6.35355C4.95118 6.15829 4.95118 5.84171 5.14645 5.64645L10.1464 0.646447ZM5.14645 0.646447C5.34171 0.451184 5.65829 0.451184 5.85355 0.646447C6.04882 0.841709 6.04882 1.15829 5.85355 1.35355L4.74264 2.46446C2.79002 4.41709 2.79002 7.58291 4.74264 9.53554L5.85355 10.6464C6.04882 10.8417 6.04882 11.1583 5.85355 11.3536C5.65829 11.5488 5.34171 11.5488 5.14645 11.3536L0.146446 6.35355C-0.0488157 6.15829 -0.0488157 5.84171 0.146446 5.64645L5.14645 0.646447Z" fill="#333333"/>
</svg>
