<svg width="11" height="12" viewBox="0 0 11 12" fill="none" xmlns="http://www.w3.org/2000/svg">
<path fill-rule="evenodd" clip-rule="evenodd" d="M0.853553 0.646447C0.658291 0.451184 0.341709 0.451184 0.146447 0.646447C-0.0488155 0.841709 -0.0488155 1.15829 0.146447 1.35355L1.25736 2.46447C3.20998 4.41709 3.20998 7.58291 1.25736 9.53554L0.146447 10.6464C-0.0488155 10.8417 -0.0488155 11.1583 0.146447 11.3536C0.341709 11.5488 0.658291 11.5488 0.853553 11.3536L5.85355 6.35355C6.04882 6.15829 6.04882 5.84171 5.85355 5.64645L0.853553 0.646447ZM5.85355 0.646447C5.65829 0.451184 5.34171 0.451184 5.14645 0.646447C4.95118 0.841709 4.95118 1.15829 5.14645 1.35355L6.25736 2.46446C8.20998 4.41709 8.20998 7.58291 6.25736 9.53554L5.14645 10.6464C4.95118 10.8417 4.95118 11.1583 5.14645 11.3536C5.34171 11.5488 5.65829 11.5488 5.85355 11.3536L10.8536 6.35355C11.0488 6.15829 11.0488 5.84171 10.8536 5.64645L5.85355 0.646447Z" fill="#333333"/>
</svg>
