<svg width="24" height="24" viewBox="0 0 24 24" fill="none" xmlns="http://www.w3.org/2000/svg">
<path d="M12.9295 11.4871L14.531 9.88714C14.8002 9.62672 15.161 9.48247 15.5356 9.48546C15.9101 9.48844 16.2685 9.63843 16.5336 9.90311C16.7987 10.1678 16.9492 10.526 16.9527 10.9006C16.9562 11.2751 16.8124 11.6361 16.5524 11.9057L12.511 15.9471C12.3786 16.0803 12.2212 16.1859 12.0479 16.258C11.8746 16.3301 11.6887 16.3672 11.501 16.3672C11.3133 16.3672 11.1274 16.3301 10.954 16.258C10.7807 16.1859 10.6233 16.0803 10.491 15.9471L6.44955 11.9057C6.31691 11.7729 6.21174 11.6152 6.14003 11.4418C6.06832 11.2683 6.03148 11.0824 6.03161 10.8947C6.03188 10.5156 6.18273 10.1522 6.45098 9.88429C6.71922 9.61642 7.0829 9.46608 7.46199 9.46635C7.84108 9.46662 8.20454 9.61747 8.47241 9.88572L10.0724 11.4871V3.42857C10.0724 3.04969 10.2229 2.68633 10.4908 2.41842C10.7587 2.15051 11.1221 2 11.501 2C11.8799 2 12.2432 2.15051 12.5111 2.41842C12.779 2.68633 12.9295 3.04969 12.9295 3.42857V11.4871ZM2.92955 19.1429H20.0724C20.4513 19.1429 20.8146 19.2934 21.0826 19.5613C21.3505 19.8292 21.501 20.1925 21.501 20.5714C21.501 20.9503 21.3505 21.3137 21.0826 21.5816C20.8146 21.8495 20.4513 22 20.0724 22H2.92955C2.55067 22 2.1873 21.8495 1.9194 21.5816C1.65149 21.3137 1.50098 20.9503 1.50098 20.5714C1.50098 20.1925 1.65149 19.8292 1.9194 19.5613C2.1873 19.2934 2.55067 19.1429 2.92955 19.1429Z" fill="#FF4A4A"/>
</svg>
