<svg width="11" height="14" viewBox="0 0 11 14" fill="none" xmlns="http://www.w3.org/2000/svg">
<path d="M5.5 0C2.74299 0 0.5 2.27451 0.5 5.07025C0.5 8.53985 4.97451 13.6334 5.16502 13.8486C5.34395 14.0507 5.65637 14.0503 5.83498 13.8486C6.02549 13.6334 10.5 8.53985 10.5 5.07025C10.4999 2.27451 8.25699 0 5.5 0ZM5.5 7.62123C4.11288 7.62123 2.9844 6.47687 2.9844 5.07025C2.9844 3.66363 4.1129 2.51929 5.5 2.51929C6.8871 2.51929 8.01557 3.66366 8.01557 5.07028C8.01557 6.47689 6.8871 7.62123 5.5 7.62123Z" fill="#333333"/>
</svg>
