<svg width="120" height="120" viewBox="0 0 120 120" fill="none" xmlns="http://www.w3.org/2000/svg">
<g clip-path="url(#clip0)">
<path d="M60 107C85.9574 107 107 85.9574 107 60C107 34.0426 85.9574 13 60 13C34.0426 13 13 34.0426 13 60C13 85.9574 34.0426 107 60 107Z" fill="url(#paint0_linear)" fill-opacity="0.3"/>
<path d="M94.6566 29.8417C101.979 38.1966 106.016 48.9245 106.016 60.0305C106.016 71.1364 101.979 81.8643 94.6566 90.2193C93.2204 91.8938 91.6553 93.4536 89.9756 94.8843L87.7692 96.7113C87.2572 97.0889 86.733 97.4665 86.1723 97.8441C83.3844 99.7881 80.3923 101.422 77.2491 102.716C66.0717 107.193 53.5887 107.145 42.4462 102.582C39.3888 101.261 36.4762 99.6288 33.7546 97.7101L32.2064 96.5895C31.4141 95.9805 30.6705 95.3715 29.9147 94.7138C28.2255 93.2635 26.6485 91.6878 25.1971 90C18.0171 81.6583 14.0687 71.0206 14.0687 60.0183C14.0687 49.0159 18.0171 38.3782 25.1971 30.0365C26.6517 28.3517 28.2285 26.7762 29.9147 25.3228C30.6705 24.665 31.4141 24.1048 32.2064 23.447C32.7184 23.0572 33.2426 22.6918 33.7546 22.3264C36.4866 20.4652 39.3983 18.882 42.4462 17.6005C53.5751 12.9738 66.0816 12.9213 77.2491 17.4543C80.3969 18.7138 83.3907 20.3279 86.1723 22.2655C86.733 22.6066 87.2572 23.0207 87.7692 23.3983C88.5128 23.9586 89.2686 24.5554 90.0122 25.1766L94.6566 29.8417ZM109.163 56.7113V56.4312C111.345 51.7174 115.465 51.5591 120 55.9196C120 48.7211 118.464 43.0207 114.99 39.7929C110.114 35.4446 104.97 38.2826 100.776 32.3752C100.288 27.2107 103.836 25.067 109.943 26.4799C106.286 20.3045 102.093 16.151 97.5091 15.0792C96.5758 14.8557 95.6117 14.7899 94.6566 14.8843C93.0596 15.0357 91.4874 15.3835 89.9756 15.9196C89.2393 16.1621 88.4905 16.3654 87.7326 16.5286C87.2064 16.6343 86.6722 16.6954 86.1357 16.7113C84.5255 16.7915 82.9218 16.4559 81.4791 15.7369C78.5412 11.5469 80.4551 8.01462 86.1357 6.16322C86.2531 6.1402 86.3648 6.0947 86.4649 6.02923C86.3623 5.96875 86.2514 5.92361 86.1357 5.89525C83.3561 4.24782 80.3497 3.01669 77.2125 2.24117C74.8138 1.62233 72.2971 1.62233 69.8984 2.24117C64.9492 3.92205 63.8033 8.03898 59.8903 9.95128C58.8901 10.4316 57.8131 10.7326 56.7087 10.8404H56.4283C51.7107 8.63581 51.5522 4.53106 55.9163 0C50.3941 0 45.7131 0.937881 42.3486 2.8989C41.4078 3.51164 40.5478 4.24004 39.7887 5.06699C35.8635 9.56151 37.8748 14.2266 33.6936 18.1973C33.2805 18.5888 32.8406 18.951 32.3771 19.2814H32.0967C31.3302 19.3319 30.5603 19.2869 29.805 19.1474C26.4892 18.3435 25.2824 15.0792 26.4892 10.1218L25.0874 10.9622C19.6627 14.3727 15.9691 18.2704 14.9817 22.4482C13.6774 28.916 18.7729 31.9488 15.6034 38.6236C11.3369 41.6565 7.692 39.6955 5.91223 33.6784C2.34051 39.9391 0.828931 45.676 2.19423 50.1705C4.29094 56.2607 10.0081 56.4312 10.8492 63.3861V63.6784C8.69159 68.3922 4.53474 68.5506 0 64.2387C0 71.3886 1.58472 77.1376 5.04673 80.3532C9.9228 84.6529 15.0792 81.827 19.2727 87.7467C19.7603 92.8867 16.2007 95.0548 10.0935 93.6297C13.7505 99.8417 17.9561 104.044 22.5396 105.079C23.3865 105.246 24.2486 105.324 25.1117 105.311C26.722 105.175 28.3078 104.831 29.8293 104.287C30.5851 104.044 31.3287 103.812 32.1211 103.63C32.6331 103.544 33.1573 103.435 33.6692 103.398C35.3537 103.304 37.0338 103.648 38.5453 104.397C41.4709 108.624 39.5449 112.205 33.6692 114.019C33.6373 114.028 33.6037 114.028 33.5717 114.019C33.5717 114.019 33.6692 114.019 33.6692 114.105C36.3901 115.705 39.3133 116.934 42.3608 117.759C44.8874 118.443 47.5507 118.443 50.0772 117.759C54.9533 116.115 56.0748 112.058 59.9025 110.134C60.9618 109.624 62.099 109.295 63.267 109.16H63.5473C68.2771 111.352 68.4234 115.469 64.0715 120C69.3499 120 73.8236 119.16 77.1638 117.345C78.305 116.722 79.3449 115.929 80.2479 114.994C84.1243 110.56 82.2105 105.993 86.087 102.058C86.6056 101.565 87.1687 101.121 87.7692 100.731C87.7376 100.742 87.7032 100.742 87.6717 100.731C87.6717 100.731 87.6717 100.731 87.7692 100.646C87.8667 100.56 87.7692 100.646 87.8545 100.646C87.8292 100.677 87.8006 100.706 87.7692 100.731C88.5183 100.694 89.2691 100.727 90.0122 100.828C93.5108 101.486 94.8883 104.799 93.6692 109.903C94.048 109.708 94.4107 109.484 94.7542 109.233C100.362 105.773 104.153 101.803 105.14 97.5152C106.445 91.011 101.337 88.0268 104.482 81.3398C104.482 81.3398 104.482 81.4373 104.482 81.4738C108.736 78.4897 112.381 80.4507 114.161 86.4312C117.818 80.2192 119.269 74.4702 117.903 69.9878C115.697 63.8612 109.943 63.6784 109.163 56.7113Z" fill="#BAB9B9"/>
<path d="M36.1321 81.5094C36.1321 81.0377 36.1321 80.6604 36.2264 80.1887C36.4151 79.0566 36.9811 78.0189 37.6415 77.0755C37.7359 76.9811 37.8302 76.7924 37.9245 76.6981C38.0189 76.6038 38.2076 76.6038 38.3019 76.6038C38.9623 76.6038 39.6226 76.6038 40.283 76.6038C40.4717 76.6038 40.566 76.6038 40.7547 76.6038C40.9434 76.6038 41.0377 76.7924 41.2264 76.8868C41.6981 77.2641 41.9811 77.7358 42.1698 78.3019C42.5472 79.434 42.1698 80.6604 41.7925 81.7924C41.6038 82.2641 41.5094 82.8302 41.3208 83.3019C41.2264 83.5849 41.1321 83.8679 40.9434 84.1509C40.566 84.6226 40 84.9057 39.5283 85.0943C38.7736 85.3774 38.0189 85.6604 37.3585 85.283C36.8868 85 36.6981 84.5283 36.5094 84.0566C36.2264 83.3019 36.1321 82.3585 36.1321 81.5094Z" fill="#F6C358"/>
<path d="M93.4906 65.8491C91.2264 68.3019 89.717 69.3396 87.4528 71.7925C86.6038 72.7359 85.566 73.7736 84.2453 73.7736C84.0566 73.7736 83.7736 73.6793 83.5849 73.6793C82.7359 73.3962 82.0755 72.7359 81.5094 72.0755C79.151 69.5283 76.8868 66.6981 74.1509 64.5283C71.2264 62.1698 67.6415 60.6604 64.9057 58.0189C63.7736 56.8868 61.8868 56.9811 60.3774 56.7925C59.1509 56.6038 58.0189 57.1698 57.0755 57.9245C56.1321 58.6793 55.3774 59.5283 54.3396 60.283C52.8302 61.4151 50.8491 61.8868 48.9623 61.7925C48.3962 61.6981 47.7359 61.6038 47.2642 61.2264C46.7925 60.8491 46.5094 60.1887 46.7925 59.6227C46.8868 59.3396 47.1698 59.0566 47.4528 58.8679C49.2453 56.9811 49.1509 53.5849 51.4151 52.2642C52.3585 51.6981 53.3962 51.6038 54.434 51.2264C55.3774 50.8491 56.2264 50.1887 57.0755 49.717C57.9245 49.2453 58.8679 48.9623 59.8113 48.7736C61.4151 48.3962 63.1132 48.3962 64.8113 48.3962C66.5094 48.3962 68.2076 48.4906 69.8113 48.9623C71.0377 49.3396 72.1698 49.9057 73.4906 50.1887C75.3774 50.5661 77.2642 50.0944 79.151 49.8113C79.5283 49.717 79.9057 49.717 80.1887 49.9057C80.3774 50 80.566 50.1887 80.6604 50.283C81.2264 50.8491 81.8868 51.4151 82.4528 51.9811C86.7925 56.0378 91.2264 60.3774 93.4906 65.8491Z" fill="#F9B54C"/>
<path d="M93.4906 65.8491C91.2264 68.3019 89.717 69.3396 87.4528 71.7925C86.6038 72.7359 85.566 73.7736 84.2453 73.7736C84.0566 73.7736 83.7736 73.6793 83.5849 73.6793C82.7359 73.3962 82.0755 72.7359 81.5094 72.0755C79.151 69.5283 76.8868 66.6981 74.1509 64.5283C71.2264 62.1698 67.6415 60.6604 64.9057 58.0189C63.7736 56.8868 61.8868 56.9811 60.3774 56.7925C59.1509 56.6038 58.0189 57.1698 57.0755 57.9245C56.1321 58.6793 55.3774 59.5283 54.3396 60.283C52.8302 61.4151 50.8491 61.8868 48.9623 61.7925C48.7736 61.7925 48.5849 61.7925 48.3962 61.6981C48.0189 61.6038 47.5472 61.5095 47.2642 61.2264C46.7925 60.8491 46.5094 60.1887 46.7925 59.6227C46.8868 59.3396 47.1698 59.0566 47.4528 58.8679C48.3019 58.0189 48.6792 56.7925 49.1509 55.6604C49.6226 54.3396 50.1887 53.0189 51.4151 52.2642C52.3585 51.6981 53.4906 51.6038 54.434 51.2264C55.3774 50.8491 56.2264 50.1887 57.0755 49.717C57.9245 49.2453 58.8679 48.9623 59.8113 48.7736C61.4151 48.3962 63.1132 48.3962 64.8113 48.3962C66.5094 48.3962 68.2076 48.4906 69.8113 48.9623C71.0377 49.3396 72.1698 50 73.4906 50.1887C75.3774 50.5661 77.2642 50.0944 79.151 49.8113C79.5283 49.8113 79.9057 49.717 80.1887 49.9057C80.3774 50 80.566 50.1887 80.6604 50.283C81.2264 50.8491 81.8868 51.4151 82.4528 51.9811C86.7925 56.0378 91.2264 60.3774 93.4906 65.8491Z" fill="#F9B54C"/>
<path d="M93.4906 65.8491C91.2264 68.3019 89.717 69.3396 87.4528 71.7925C86.6038 72.7359 85.566 73.7736 84.2453 73.7736C84.0566 73.7736 83.7736 73.6793 83.5849 73.6793C82.7359 73.3962 82.0755 72.7359 81.5094 72.0755C79.151 69.5283 76.8868 66.6981 74.1509 64.5283C71.2264 62.1698 67.6415 60.6604 64.9057 58.0189C63.7736 56.8868 61.8868 56.9811 60.3774 56.7925C59.1509 56.6038 58.0189 57.1698 57.0755 57.9245C56.1321 58.6793 55.3774 59.5283 54.3396 60.283C52.8302 61.4151 50.8491 61.8868 48.9623 61.7925C48.7736 61.7925 48.5849 61.7925 48.3962 61.6981C48.0189 61.6038 47.5472 61.5095 47.2642 61.2264C46.7925 60.8491 46.5094 60.1887 46.7925 59.6227V59.5283C46.8868 59.2453 47.1698 59.0566 47.3585 58.8679C48.2076 58.0189 48.5849 56.7925 49.0566 55.6604C49.0566 55.5661 49.0566 55.5661 49.1509 55.4717C49.6226 54.2453 50.1887 53.0189 51.3208 52.2642C52.2642 51.6981 53.3962 51.6038 54.3396 51.2264C55.283 50.8491 56.1321 50.1887 56.9811 49.717C57.8302 49.2453 58.7736 48.9623 59.717 48.7736C61.3208 48.3962 63.0189 48.3962 64.717 48.3962C66.4151 48.3962 68.1132 48.4906 69.717 48.9623C70.9434 49.3396 72.0755 50 73.3962 50.1887C75.283 50.5661 77.1698 50.0944 79.0566 49.8113C79.434 49.8113 79.8113 49.717 80.0943 49.9057C80.283 50 80.4717 50.1887 80.566 50.283C81.1321 50.8491 81.7925 51.4151 82.3585 51.9811C86.7925 56.0378 91.2264 60.3774 93.4906 65.8491Z" fill="#F6C358"/>
<path d="M83.8679 75.6603C83.7736 76.7924 83.1132 77.8301 82.0755 78.3018C81.0377 78.7735 79.8113 78.7735 78.8679 78.1132C79.6226 79.2452 78.8679 80.849 77.6415 81.4151C76.4151 81.9811 75 81.8867 73.6792 81.6981C74.1509 81.9811 74.2453 82.7358 73.9623 83.2075C73.6792 83.6792 73.1132 83.9622 72.5472 84.1509C71.3208 84.5283 69.9057 84.5283 68.6792 84.2452C69.2453 84.7169 68.8679 85.7547 68.3019 86.2264C66.6981 87.7358 64.3396 88.2075 62.1698 87.7358C60 87.3584 58.0189 86.2264 56.1321 85.0943C54.2453 83.9622 52.3585 82.8301 50.1887 82.1698C48.1132 81.6037 45.8491 81.6037 43.6792 81.0377C40.3774 80.1886 37.6415 77.9245 35.0943 75.7547C34.6226 75.3773 34.1509 74.9056 33.8679 74.3396C33.6792 73.6792 33.8679 73.0188 34.0566 72.4528C35.3773 68.0188 36.8868 63.6792 38.7736 59.4339C39.1509 58.4905 39.6226 57.5471 40.283 56.6981C41.4151 55.1886 43.3962 54.2452 43.4906 52.4528C43.5849 51.7924 43.7736 51.132 44.1509 50.566C44.2453 50.3773 44.434 50.283 44.5283 50.0943C44.717 50 44.9057 49.9056 45.0943 49.9056C47.1698 49.3396 49.2453 48.7735 51.3208 48.2075C52.9245 47.7358 54.5283 47.3584 56.2264 47.4528C57.4528 47.5471 58.6792 48.0188 59.717 48.6792C58.7736 48.8679 57.8302 49.1509 56.9811 49.6226C56.0377 50.0943 55.283 50.7547 54.3396 51.132C53.3019 51.5094 52.2641 51.6037 51.3208 52.1698C49.0566 53.4905 49.1509 56.8867 47.3585 58.7735C47.1698 59.0566 46.8868 59.2452 46.6981 59.5283C46.4151 60.0943 46.6981 60.7547 47.1698 61.132C47.6415 61.5094 48.3019 61.6037 48.8679 61.6981C50.7547 61.8867 52.6415 61.3207 54.2453 60.1886C55.1887 59.5283 56.0377 58.5849 56.9811 57.8301C57.9245 57.0754 59.0566 56.5094 60.283 56.6981C61.8868 56.8867 63.6792 56.7924 64.8113 57.9245C67.5472 60.566 71.0377 62.1698 74.0566 64.4339C76.7925 66.6037 79.0566 69.4339 81.4151 71.9811C81.9811 72.6415 82.7359 73.3018 83.4906 73.5849C83.8679 74.2452 83.9623 74.9056 83.8679 75.6603Z" fill="#FFD05B"/>
<path d="M83.8679 75.6604C83.7736 76.7924 83.1132 77.8302 82.0755 78.3019C81.2264 78.6792 80.283 78.7736 79.434 78.3962C79.2453 78.3019 79.0566 78.2075 78.8679 78.1132C79.0566 78.3019 79.1509 78.5849 79.1509 78.8679C79.2453 79.8113 78.5849 80.9434 77.6415 81.4151C76.6038 81.8868 75.3774 81.8868 74.2453 81.7924C74.0566 81.7924 73.8679 81.7924 73.6792 81.6981C73.9623 81.8868 74.1509 82.2641 74.1509 82.6415C74.1509 82.8302 74.0566 83.1132 73.9623 83.3019C73.6792 83.7736 73.1132 84.0566 72.5472 84.2453C71.3208 84.6226 70 84.6226 68.7736 84.3396H68.6792C68.9623 84.5283 69.0566 84.9056 68.9623 85.1887C68.8679 85.566 68.6792 86.0377 68.3019 86.3207C66.6981 87.8302 64.3396 88.3019 62.1698 87.8302C60 87.4528 58.0189 86.3207 56.1321 85.1887C54.2453 84.0566 52.3585 82.8302 50.1887 82.2641C48.1132 81.6981 45.8491 81.6981 43.6792 81.1321C40.3774 80.283 37.6415 78.0188 35.0943 75.849C34.6226 75.4717 34.1509 75 33.8679 74.4339C33.6792 73.8679 33.8679 73.2075 34.0566 72.5471C35.3773 68.1132 36.8868 63.7736 38.7736 59.5283C39.1509 58.5849 39.6226 57.6415 40.283 56.7924C41.4151 55.283 43.3962 54.3396 43.4906 52.5471C43.5849 51.8868 43.7736 51.2264 44.1509 50.6604C44.2453 50.4717 44.434 50.3773 44.5283 50.1887C44.717 50.0943 44.9057 50 45.0943 50C47.1698 49.4339 49.2453 48.8679 51.3208 48.3019C52.9245 47.8302 54.5283 47.4528 56.2264 47.5471C57.4528 47.6415 58.6792 48.1132 59.717 48.7736C58.7736 48.9622 57.8302 49.2453 56.9811 49.717C56.1321 50.1887 55.283 50.849 54.3396 51.2264C53.3019 51.6037 52.2641 51.6981 51.3208 52.2641C49.0566 53.5849 49.1509 56.9811 47.3585 58.8679C47.1698 59.1509 46.8868 59.3396 46.6981 59.6226C46.4151 60.1887 46.6981 60.849 47.1698 61.2264C47.6415 61.6038 48.3019 61.6981 48.8679 61.7924C50.7547 61.9811 52.6415 61.4151 54.2453 60.283C55.1887 59.6226 56.0377 58.6792 56.9811 57.9245C57.9245 57.1698 59.0566 56.6037 60.283 56.7924C61.8868 56.9811 63.6792 56.8868 64.8113 58.0188C67.5472 60.6604 71.0377 62.1698 74.0566 64.5283C76.7925 66.6981 79.0566 69.5283 81.4151 72.0755C81.9811 72.7358 82.7359 73.3962 83.4906 73.6792C83.8679 74.2453 83.9623 74.9056 83.8679 75.6604Z" fill="#FFD05B"/>
<path d="M45.9434 84.8114C45.9434 84.151 45.9434 83.5849 46.1321 83.0189C46.2264 82.7359 46.4151 82.5472 46.6038 82.3585C46.8868 81.9812 47.3585 81.6038 47.7358 81.3208C48.7736 80.7548 50 80.7548 51.2264 80.7548C51.4151 80.7548 51.6038 80.7548 51.7924 80.8491C52.1698 81.0378 52.4528 81.5095 52.8302 81.6982C52.9245 81.7925 53.1132 81.8868 53.2075 81.9812C53.4906 82.1699 53.5849 82.5472 53.5849 82.8302C53.6792 84.2453 53.0189 85.6604 51.8868 86.5095C50.7547 87.3585 49.1509 87.5472 47.8302 86.9812C47.4528 86.8868 47.1698 86.6981 46.7924 86.5095C46.6038 86.4151 46.3207 86.2264 46.1321 86.0378C46.0377 85.7548 45.9434 85.2831 45.9434 84.8114Z" fill="#F6C358"/>
<path d="M60.9434 87.5471C60.566 87.7358 60.1887 87.7358 59.8113 87.9245C59.6226 88.0188 59.4339 88.1132 59.3396 88.2075C58.8679 88.3962 58.3962 88.3962 57.9245 88.3962C57.2641 88.3962 56.6038 88.4905 56.0377 88.3019C55.3773 88.2075 54.8113 87.9245 54.3396 87.4528C54.0566 87.1698 53.8679 86.6981 53.7736 86.3207C53.6792 86.1321 53.6792 85.9434 53.6792 85.7547C53.6792 85.283 53.8679 84.9056 54.1509 84.5283C54.717 83.8679 55.4717 83.4905 56.2264 83.1132C56.7924 82.8302 57.2641 82.5471 57.8302 82.2641C58.3019 81.9811 58.8679 81.6981 59.4339 81.5094C60.283 81.2264 61.2264 81.3207 61.9811 81.6981C62.7358 82.0754 63.3019 82.9245 63.3019 83.7736C63.3019 84.5283 62.9245 85.283 62.5472 85.9434C61.9811 86.6037 61.6038 87.2641 60.9434 87.5471Z" fill="#F6C358"/>
<path d="M64.8113 89.3397C64.717 89.5283 64.5283 89.8114 64.4339 90C64.0566 90.3774 63.6792 90.4717 63.2075 90.6604C62.4528 90.8491 61.6981 91.0378 60.9434 91.0378C60.1887 90.9434 59.4339 90.6604 58.9622 90.0944C58.7736 89.9057 58.6792 89.717 58.6792 89.434C58.6792 88.9623 58.9622 88.5849 59.3396 88.3019C60.283 87.5472 61.5094 87.3585 62.3585 86.6038C62.5471 86.4151 62.7358 86.2265 63.0189 86.0378C63.2075 85.9434 63.3962 85.9434 63.5849 85.9434C63.9622 85.8491 64.4339 85.8491 64.8113 86.0378C65.1887 86.2265 65.3773 86.5095 65.566 86.7925C65.6604 87.5472 65.283 88.5849 64.8113 89.3397Z" fill="#F9B54C"/>
<path d="M78.8679 78.1132C79.0566 78.3019 79.1509 78.5849 79.1509 78.8679C78.8679 78.7736 78.6792 78.4906 78.3962 78.2076C76.8868 76.5094 74.6226 75.7547 72.9245 74.3396C72.3585 73.8679 71.7924 73.3019 71.2264 72.9245C70.7547 72.5472 70.1887 72.2642 69.6226 71.8868C68.8679 71.4151 68.1132 70.7547 67.3585 70.1887C66.6981 69.6227 65.9434 68.9623 65.9434 68.1132V68.0189C65.9434 67.9245 66.0377 67.9245 66.1321 67.9245C66.7924 67.8302 67.3585 68.1132 67.9245 68.4906C68.3962 68.8679 68.7736 69.434 69.2453 69.9057C70.4717 71.2264 71.8868 72.2642 73.3962 73.3019C74.717 74.2453 76.0377 75.0943 77.3585 76.0377C77.9245 76.4151 78.3962 76.7925 78.8679 77.2642C79.1509 77.6415 79.434 78.0189 79.5283 78.3962C79.2453 78.3019 79.0566 78.2076 78.8679 78.1132Z" fill="#F6C358"/>
<path d="M28.8679 69.2453C29.2453 65.2831 31.1321 61.5095 33.0189 57.9246C34.1509 55.6604 35.3774 53.3963 36.5094 51.0378C36.7925 50.4718 37.0755 49.9057 37.4528 49.5284C38.5849 48.2076 40.6604 47.8303 42.2642 48.6793C42.5472 48.868 42.9245 49.0567 43.1132 49.434C43.3019 49.7171 43.3019 50.0944 43.3019 50.3774C43.3962 51.5095 43.4906 52.6416 43.3019 53.6793C43.1132 54.6227 42.7358 55.4718 42.2642 56.3208C39.717 61.5095 37.1698 66.6982 34.6226 71.8869C34.434 72.2642 34.2453 72.6416 33.9623 73.0189C32.9245 74.2453 30.8491 74.3397 29.717 73.2076C28.7736 72.1699 28.6793 70.6604 28.8679 69.2453Z" fill="#E6E9EE"/>
<path d="M38.9623 49.717C36.5094 58.1132 33.3962 66.4151 29.434 74.2453C29.2453 74.6227 28.9623 75.0944 28.4906 75.283C28.2075 75.3774 27.8302 75.283 27.5472 75.283C25.566 75.0944 23.7736 76.5095 21.6981 76.8868C19.0566 77.2642 16.5094 75.7547 14.2453 74.3396C9.81132 71.5095 5.18868 68.9623 0.377358 66.6038C0.188679 64.434 0 62.2642 0 60.0944C0 49.151 2.92453 38.9623 8.01887 30.0944C9.90566 31.1321 11.6981 32.2642 13.5849 33.3019C15.0943 34.151 16.6038 35.0944 18.1132 35.9434C20.4717 37.3585 22.9245 38.7736 25.0943 40.6604C26.6981 41.9812 28.2075 43.5849 30.283 43.9623C31.1321 44.0566 31.9811 43.9623 32.8302 44.0566C34.6226 44.2453 36.2264 45.4717 37.6415 46.6038C38.1132 46.9812 38.6792 47.4529 38.8679 48.1132C39.2453 48.5849 39.0566 49.151 38.9623 49.717Z" fill="#324A5E"/>
<path d="M83.8679 46.8868C84.0566 46.6037 84.2453 46.3207 84.5283 46.2264C84.717 46.132 84.9057 46.2264 85.0943 46.2264C86.3208 46.6037 86.9811 48.0188 87.7358 49.0566C88.4906 50.0943 89.6226 50.849 90.566 51.6981C93.1132 54.0566 94.8113 57.3585 96.3208 60.4717C97.1698 62.1698 98.0189 63.9622 98.9623 65.6603C100 67.8302 101.132 70 101.415 72.3585C99.9057 72.0754 98.2075 72.8302 96.8868 72.1698C96.3208 71.8868 95.9434 71.4151 95.566 70.9434C93.7736 68.6792 92.2642 66.132 90.9434 63.5849C89.8113 61.3207 88.7736 58.8679 86.7925 57.2641C86.0377 56.6037 85.0943 56.132 84.5283 55.4717C84.1509 55 83.8679 54.4339 83.4906 53.9622C82.4528 52.1698 81.0377 50.566 79.434 49.1509C81.1321 49.1509 82.9245 48.3018 83.8679 46.8868Z" fill="#E6E9EE"/>
<path d="M120 59.9999C120 61.5094 119.906 62.9245 119.811 64.3396C115 67.3584 110.472 70.9433 106.038 74.6226C105.189 75.3773 104.151 76.132 103.019 75.7547C102.547 75.566 102.17 75.283 101.887 74.9056C100.283 73.1132 99.6226 70.566 98.5849 68.3962C97.6415 66.415 96.3207 64.6226 95.0943 62.8301L83.9622 47.4528C83.6792 47.0754 83.3962 46.6037 83.4906 46.132C83.5849 45.7547 83.9623 45.566 84.2453 45.283C85.7547 44.2452 87.3585 43.1132 88.8679 42.0754C90.4717 40.9433 91.9811 39.8113 93.6792 38.9622C95.283 38.1132 96.8868 37.4528 98.5849 36.7924C103.113 34.8113 107.453 32.2641 111.792 29.8113C116.981 38.6792 120 48.9622 120 59.9999Z" fill="#324A5E"/>
<path d="M74.151 82.6416C73.8679 82.4529 73.4906 82.2642 73.2076 82.0755C72.2642 81.5095 71.3208 80.8491 70.3774 80.1887C70.0944 80 69.717 79.8114 69.434 79.5284C68.0189 78.585 66.6038 77.7359 65.1887 76.7925C64.5283 76.3208 63.8679 75.9434 63.3962 75.2831C64.5283 75.0944 65.6604 75.4717 66.6038 76.1321C67.5472 76.6982 68.3962 77.4529 69.2453 78.2076C70.0944 78.868 70.9434 79.434 71.7925 79.9057C72.4528 80.2831 73.1132 80.5661 73.6793 81.0378C73.9623 81.2265 74.151 81.5095 74.434 81.7925C74.2453 81.7925 74.0566 81.7925 73.8679 81.6982C74.0566 81.8868 74.151 82.2642 74.151 82.6416Z" fill="#F6C358"/>
<path d="M68.8679 85.1887C67.9245 84.8114 66.9812 84.434 66.0378 84.0567C65.5661 83.868 65.0944 83.6793 64.6227 83.3963C64.2453 83.1133 63.8679 82.8302 63.4906 82.4529C61.7925 81.0378 59.8113 79.6227 57.6415 79.717C57.3585 79.717 57.0755 79.717 56.8868 79.5284C56.6981 79.3397 56.8868 78.9623 57.0755 78.7736C57.2642 78.585 57.6415 78.585 57.9245 78.585C58.7736 78.585 59.6227 78.7736 60.4717 79.151C61.6038 79.6227 62.6415 80.4718 63.7736 81.0378C64.2453 81.2265 64.8113 81.4151 65.283 81.6982C66.6038 82.2642 67.7359 83.1133 68.7736 84.151H68.6793C68.8679 84.5284 68.9623 84.8114 68.8679 85.1887Z" fill="#F6C358"/>
<path d="M50.9434 57.4528C50.849 57.8301 50.6604 58.1132 50.4717 58.3962C49.9056 59.1509 49.2453 59.7169 48.4906 60.0943C48.2075 60.1886 48.0189 60.283 47.7358 60.283C47.3585 60.283 47.0755 59.9999 46.9811 59.7169C46.9811 59.6226 46.8868 59.5282 46.8868 59.4339C46.9811 59.1509 47.2641 58.9622 47.4528 58.7735C48.3019 57.9245 48.6792 56.6981 49.1509 55.566C49.1509 55.4716 49.1509 55.4716 49.2453 55.3773C49.3396 55.283 49.5283 55.283 49.6226 55.283C49.8113 55.283 49.9056 55.4716 50 55.566C50.566 56.132 51.0377 56.7924 50.9434 57.4528Z" fill="#FFEBEB"/>
<path d="M59.1509 83.3019C59.0566 82.9245 59.2453 82.4528 59.6226 82.1698C60.0943 81.7924 60.6604 81.5094 61.2264 81.5094C61.7925 81.5094 62.4528 81.8868 62.6415 82.4528C62.8302 83.0188 62.6415 83.7735 62.3585 84.3396C62.2641 84.5283 62.1698 84.6226 62.0755 84.7169C61.9811 84.8113 61.7925 84.8113 61.6038 84.8113C61.2264 84.8113 60.849 84.9056 60.4717 84.8113C60.0943 84.7169 59.717 84.4339 59.6226 84.0566" fill="#FFEBEB"/>
<path d="M65.3774 86.6981C65.1887 86.2264 64.8113 85.9434 64.434 85.8491C63.6792 85.6604 62.8302 86.3208 62.6415 87.1698C62.5472 87.5472 62.6415 88.0189 63.0189 88.2076C63.1132 88.2076 63.2075 88.3019 63.3019 88.3019L65.1887 88.1132C65.4717 87.6415 65.4717 87.1698 65.3774 86.6981Z" fill="#FFEBEB"/>
</g>
<defs>
<linearGradient id="paint0_linear" x1="13" y1="13" x2="13.0006" y2="107" gradientUnits="userSpaceOnUse">
<stop stop-color="#C4C4C4" stop-opacity="0"/>
<stop offset="0.486188" stop-color="#C4C4C4"/>
<stop offset="1" stop-color="#C4C4C4" stop-opacity="0"/>
</linearGradient>
<clipPath id="clip0">
<rect width="120" height="120" fill="white"/>
</clipPath>
</defs>
</svg>
