<svg width="40" height="40" viewBox="0 0 40 40" fill="none" xmlns="http://www.w3.org/2000/svg">
<path fill-rule="evenodd" clip-rule="evenodd" d="M19.9987 11.818C21.8814 11.818 23.4077 10.2918 23.4077 8.40901C23.4077 6.52627 21.8814 5 19.9987 5C18.1159 5 16.5897 6.52627 16.5897 8.40901C16.5897 10.2918 18.1159 11.818 19.9987 11.818ZM15.3231 18.6362H24.674C25.4797 18.6362 26.1348 17.929 26.1348 17.0595V16.6227C26.1348 15.4835 25.5709 14.4428 24.662 13.9068C23.5734 13.2649 21.8809 12.4999 19.9986 12.4999C18.1163 12.4999 16.4237 13.2649 15.3351 13.9068C14.4263 14.4427 13.8623 15.4835 13.8623 16.6227V17.0595C13.8623 17.9291 14.5175 18.6362 15.3231 18.6362ZM14.5426 24.7725C14.5426 26.6552 13.0164 28.1815 11.1336 28.1815C9.25088 28.1815 7.72461 26.6552 7.72461 24.7725C7.72461 22.8897 9.25088 21.3634 11.1336 21.3634C13.0164 21.3634 14.5426 22.8897 14.5426 24.7725ZM15.7997 30.2702C14.7111 29.6283 13.0186 28.8633 11.1363 28.8633C9.25396 28.8633 7.56144 29.6284 6.47283 30.2702C5.56396 30.8062 5 31.8468 5 32.9861V33.4228C5 34.2924 5.65517 34.9995 6.46081 34.9995H15.8117C16.6173 34.9995 17.2725 34.2924 17.2725 33.4228V32.9861C17.2725 31.8468 16.7086 30.8062 15.7997 30.2702ZM32.2727 24.7725C32.2727 26.6552 30.7465 28.1815 28.8637 28.1815C26.981 28.1815 25.4547 26.6552 25.4547 24.7725C25.4547 22.8897 26.981 21.3634 28.8637 21.3634C30.7465 21.3634 32.2727 22.8897 32.2727 24.7725ZM33.5271 30.2702C32.4385 29.6283 30.7459 28.8633 28.8636 28.8633C26.9813 28.8633 25.2888 29.6284 24.2002 30.2702C23.2913 30.8062 22.7273 31.8469 22.7273 32.9862V33.4229C22.7273 34.2925 23.3825 34.9996 24.1882 34.9996H33.5391C34.3447 34.9996 34.9999 34.2925 34.9999 33.4229V32.9862C34.9998 31.8468 34.4359 30.8062 33.5271 30.2702ZM23.943 27.9258C23.8078 28.0936 23.61 28.1814 23.4096 28.1814C23.2604 28.1814 23.11 28.1328 22.9841 28.0323L20.0012 25.646L17.0183 28.0323C16.8925 28.1328 16.742 28.1814 16.5929 28.1814C16.3924 28.1814 16.1947 28.0935 16.0595 27.9257C15.8245 27.6314 15.8724 27.2026 16.1661 26.9669L19.3194 24.4448V20.6815C19.3194 20.3047 19.6244 19.9998 20.0012 19.9998C20.3781 19.9998 20.6831 20.3047 20.6831 20.6816V24.4443L23.8364 26.967C24.1301 27.2026 24.178 27.6315 23.943 27.9258Z" fill="#949300"/>
</svg>
