<svg width="40" height="40" viewBox="0 0 40 40" fill="none" xmlns="http://www.w3.org/2000/svg">
<circle cx="20" cy="20" r="20" fill="#949300"/>
<path d="M19.9784 33C18.3381 33 17 31.5036 17 29.7734C17 27.9964 18.3381 26.5 19.9784 26.5C21.6187 26.5 23 27.9964 23 29.7734C23 31.5036 21.6187 33 19.9784 33Z" fill="white"/>
<path d="M17.0497 7.69985C17.0229 7.32234 17.2984 7 17.6479 7H22.3521C22.7016 7 22.9771 7.32234 22.9503 7.69985L21.8426 23.2999C21.8186 23.6385 21.5579 23.9 21.2444 23.9H18.7556C18.4421 23.9 18.1814 23.6385 18.1574 23.2999L17.0497 7.69985Z" fill="white"/>
</svg>
