<svg width="60" height="60" viewBox="0 0 60 60" fill="none" xmlns="http://www.w3.org/2000/svg">
<g filter="url(#filter0_d)">
<path d="M30 50C41.0457 50 50 41.0457 50 30C50 18.9543 41.0457 10 30 10C18.9543 10 10 18.9543 10 30C10 41.0457 18.9543 50 30 50Z" fill="#949300"/>
</g>
<path d="M31.4286 29.4871L33.03 27.8871C33.2992 27.6267 33.66 27.4825 34.0346 27.4855C34.4092 27.4884 34.7676 27.6384 35.0326 27.9031C35.2977 28.1678 35.4482 28.526 35.4517 28.9006C35.4552 29.2751 35.3115 29.6361 35.0514 29.9057L31.01 33.9471C30.8776 34.0803 30.7203 34.1859 30.5469 34.258C30.3736 34.3301 30.1877 34.3672 30 34.3672C29.8123 34.3672 29.6264 34.3301 29.4531 34.258C29.2797 34.1859 29.1224 34.0803 28.99 33.9471L24.9486 29.9057C24.8159 29.7729 24.7108 29.6152 24.6391 29.4418C24.5673 29.2683 24.5305 29.0824 24.5306 28.8947C24.5309 28.5156 24.6818 28.1522 24.95 27.8843C25.2182 27.6164 25.5819 27.4661 25.961 27.4663C26.3401 27.4666 26.7036 27.6175 26.9714 27.8857L28.5714 29.4871V21.4286C28.5714 21.0497 28.7219 20.6863 28.9898 20.4184C29.2578 20.1505 29.6211 20 30 20C30.3789 20 30.7422 20.1505 31.0102 20.4184C31.2781 20.6863 31.4286 21.0497 31.4286 21.4286V29.4871ZM21.4286 37.1429H38.5714C38.9503 37.1429 39.3137 37.2934 39.5816 37.5613C39.8495 37.8292 40 38.1925 40 38.5714C40 38.9503 39.8495 39.3137 39.5816 39.5816C39.3137 39.8495 38.9503 40 38.5714 40H21.4286C21.0497 40 20.6863 39.8495 20.4184 39.5816C20.1505 39.3137 20 38.9503 20 38.5714C20 38.1925 20.1505 37.8292 20.4184 37.5613C20.6863 37.2934 21.0497 37.1429 21.4286 37.1429Z" fill="white"/>
<defs>
<filter id="filter0_d" x="0" y="0" width="60" height="60" filterUnits="userSpaceOnUse" color-interpolation-filters="sRGB">
<feFlood flood-opacity="0" result="BackgroundImageFix"/>
<feColorMatrix in="SourceAlpha" type="matrix" values="0 0 0 0 0 0 0 0 0 0 0 0 0 0 0 0 0 0 127 0"/>
<feOffset/>
<feGaussianBlur stdDeviation="5"/>
<feColorMatrix type="matrix" values="0 0 0 0 0 0 0 0 0 0 0 0 0 0 0 0 0 0 0.1 0"/>
<feBlend mode="normal" in2="BackgroundImageFix" result="effect1_dropShadow"/>
<feBlend mode="normal" in="SourceGraphic" in2="effect1_dropShadow" result="shape"/>
</filter>
</defs>
</svg>
