<svg width="34" height="29" viewBox="0 0 34 29" fill="none" xmlns="http://www.w3.org/2000/svg">
<path d="M14.3716 3.7981L17.4244 5.90345L20.4773 3.7981L25.5817 7.31832H9.26709L14.3716 3.7981Z" fill="#949300"/>
<path d="M4.78982 18.8597V8.9821H30.059V18.8597H4.78982Z" fill="#949300"/>
<path d="M3.39941 20.1908H31.4494V21.8721H30.059V23.5534C30.059 24.5206 29.3824 25.3047 28.5477 25.3047C27.713 25.3047 27.0364 24.5206 27.0364 23.5534H24.6183C24.6183 24.5206 23.9416 25.3047 23.107 25.3047C22.2723 25.3047 21.5956 24.5206 21.5956 23.5534V21.8721H13.2532V23.5534C13.2532 24.5206 12.5765 25.3047 11.7419 25.3047C10.9072 25.3047 10.2306 24.5206 10.2306 23.5534H7.81245C7.81245 24.5206 7.13581 25.3047 6.30114 25.3047C5.46646 25.3047 4.78982 24.5206 4.78982 23.5534V21.8721H3.39941V20.1908Z" fill="#949300"/>
</svg>
