<svg width="120" height="120" viewBox="0 0 120 120" fill="none" xmlns="http://www.w3.org/2000/svg">
<g clip-path="url(#clip0)">
<path d="M60 107C85.9574 107 107 85.9574 107 60C107 34.0426 85.9574 13 60 13C34.0426 13 13 34.0426 13 60C13 85.9574 34.0426 107 60 107Z" fill="url(#paint0_linear)" fill-opacity="0.3"/>
<g clip-path="url(#clip1)">
<path d="M63.1631 49.9196L65.1937 31.5912L81.4915 47.889L63.1631 49.9196Z" fill="#EABC73"/>
<path d="M79.4609 89.9999L74.0283 46.2977H77.6501C80.6504 46.2977 83.0826 48.73 83.0826 51.7303V89.0945C83.0826 89.5945 82.6773 89.9999 82.1772 89.9999H79.4609Z" fill="#EFD27C"/>
<path d="M79.4608 51.7304V90H36.9054C36.4054 90 36 89.5946 36 89.0946V30.9054C36 30.4054 36.4054 30 36.9054 30H61.3521C64.3525 30 66.7847 32.4322 66.7847 35.4326V46.2978H74.0282C77.0285 46.2978 79.4608 48.73 79.4608 51.7304Z" fill="white"/>
<path d="M59.5417 37.2435L55.9199 41.7706L59.5417 46.2978H63.1634V37.2435H59.5417Z" fill="#8CBDF9"/>
<path d="M43.2441 37.2435H59.5419V46.2978H43.2441V37.2435Z" fill="#A6CCFB"/>
<path d="M75.8389 55.3118H43.2433C42.7432 55.3118 42.3379 54.9066 42.3379 54.4064C42.3379 53.9062 42.7432 53.501 43.2433 53.501H75.8389C76.3391 53.501 76.7443 53.9062 76.7443 54.4064C76.7443 54.9066 76.3391 55.3118 75.8389 55.3118Z" fill="#EABC73"/>
<path d="M75.8389 62.1227H43.2433C42.7432 62.1227 42.3379 61.7174 42.3379 61.2173C42.3379 60.7171 42.7432 60.3118 43.2433 60.3118H75.8389C76.3391 60.3118 76.7443 60.7171 76.7443 61.2173C76.7443 61.7174 76.3391 62.1227 75.8389 62.1227Z" fill="#EABC73"/>
<path d="M75.8389 68.9335H43.2433C42.7432 68.9335 42.3379 68.5283 42.3379 68.0281C42.3379 67.528 42.7432 67.1227 43.2433 67.1227H75.8389C76.3391 67.1227 76.7443 67.528 76.7443 68.0281C76.7443 68.5283 76.3391 68.9335 75.8389 68.9335Z" fill="#EABC73"/>
<path d="M63.1628 83.6619H43.2433C42.7432 83.6619 42.3379 83.2567 42.3379 82.7565C42.3379 82.2563 42.7432 81.8511 43.2433 81.8511H63.1628C63.663 81.8511 64.0683 82.2563 64.0683 82.7565C64.0683 83.2567 63.663 83.6619 63.1628 83.6619Z" fill="#EABC73"/>
</g>
<path d="M94.6566 29.8417C101.979 38.1966 106.016 48.9245 106.016 60.0305C106.016 71.1364 101.979 81.8643 94.6566 90.2193C93.2204 91.8938 91.6553 93.4536 89.9756 94.8843L87.7692 96.7113C87.2572 97.0889 86.733 97.4665 86.1723 97.8441C83.3844 99.7881 80.3923 101.422 77.2491 102.716C66.0717 107.193 53.5887 107.145 42.4462 102.582C39.3888 101.261 36.4762 99.6288 33.7546 97.7101L32.2064 96.5895C31.4141 95.9805 30.6705 95.3715 29.9147 94.7138C28.2255 93.2635 26.6485 91.6878 25.1971 90C18.0171 81.6583 14.0687 71.0206 14.0687 60.0183C14.0687 49.0159 18.0171 38.3782 25.1971 30.0365C26.6517 28.3517 28.2285 26.7762 29.9147 25.3228C30.6705 24.665 31.4141 24.1048 32.2064 23.447C32.7184 23.0572 33.2426 22.6918 33.7546 22.3264C36.4866 20.4652 39.3983 18.882 42.4462 17.6005C53.5751 12.9738 66.0816 12.9213 77.2491 17.4543C80.3969 18.7138 83.3907 20.3279 86.1723 22.2655C86.733 22.6066 87.2572 23.0207 87.7692 23.3983C88.5128 23.9586 89.2686 24.5554 90.0122 25.1766L94.6566 29.8417ZM109.163 56.7113V56.4312C111.345 51.7174 115.465 51.5591 120 55.9196C120 48.7211 118.464 43.0207 114.99 39.7929C110.114 35.4446 104.97 38.2826 100.776 32.3752C100.288 27.2107 103.836 25.067 109.943 26.4799C106.286 20.3045 102.093 16.151 97.5091 15.0792C96.5758 14.8557 95.6117 14.7899 94.6566 14.8843C93.0596 15.0357 91.4874 15.3835 89.9756 15.9196C89.2393 16.1621 88.4905 16.3654 87.7326 16.5286C87.2064 16.6343 86.6722 16.6954 86.1357 16.7113C84.5255 16.7915 82.9218 16.4559 81.4791 15.7369C78.5412 11.5469 80.4551 8.01462 86.1357 6.16322C86.2531 6.1402 86.3648 6.0947 86.4649 6.02923C86.3623 5.96875 86.2514 5.92361 86.1357 5.89525C83.3561 4.24782 80.3497 3.01669 77.2125 2.24117C74.8138 1.62233 72.2971 1.62233 69.8984 2.24117C64.9492 3.92205 63.8033 8.03898 59.8903 9.95128C58.8901 10.4316 57.8131 10.7326 56.7087 10.8404H56.4283C51.7107 8.63581 51.5522 4.53106 55.9163 0C50.3941 0 45.7131 0.937881 42.3486 2.8989C41.4078 3.51164 40.5478 4.24004 39.7887 5.06699C35.8635 9.56151 37.8748 14.2266 33.6936 18.1973C33.2805 18.5888 32.8406 18.951 32.3771 19.2814H32.0967C31.3302 19.3319 30.5603 19.2869 29.805 19.1474C26.4892 18.3435 25.2824 15.0792 26.4892 10.1218L25.0874 10.9622C19.6627 14.3727 15.9691 18.2704 14.9817 22.4482C13.6774 28.916 18.7729 31.9488 15.6034 38.6236C11.3369 41.6565 7.692 39.6955 5.91223 33.6784C2.34051 39.9391 0.828931 45.676 2.19423 50.1705C4.29094 56.2607 10.0081 56.4312 10.8492 63.3861V63.6784C8.69159 68.3922 4.53474 68.5506 0 64.2387C0 71.3886 1.58472 77.1376 5.04673 80.3532C9.9228 84.6529 15.0792 81.827 19.2727 87.7467C19.7603 92.8867 16.2007 95.0548 10.0935 93.6297C13.7505 99.8417 17.9561 104.044 22.5396 105.079C23.3865 105.246 24.2486 105.324 25.1117 105.311C26.722 105.175 28.3078 104.831 29.8293 104.287C30.5851 104.044 31.3287 103.812 32.1211 103.63C32.6331 103.544 33.1573 103.435 33.6692 103.398C35.3537 103.304 37.0338 103.648 38.5453 104.397C41.4709 108.624 39.5449 112.205 33.6692 114.019C33.6373 114.028 33.6037 114.028 33.5717 114.019C33.5717 114.019 33.6692 114.019 33.6692 114.105C36.3901 115.705 39.3133 116.934 42.3608 117.759C44.8874 118.443 47.5507 118.443 50.0772 117.759C54.9533 116.115 56.0748 112.058 59.9025 110.134C60.9618 109.624 62.099 109.295 63.267 109.16H63.5473C68.2771 111.352 68.4234 115.469 64.0715 120C69.3499 120 73.8236 119.16 77.1638 117.345C78.305 116.722 79.3449 115.929 80.2479 114.994C84.1243 110.56 82.2105 105.993 86.087 102.058C86.6056 101.565 87.1687 101.121 87.7692 100.731C87.7376 100.742 87.7032 100.742 87.6717 100.731C87.6717 100.731 87.6717 100.731 87.7692 100.646C87.8667 100.56 87.7692 100.646 87.8545 100.646C87.8292 100.677 87.8006 100.706 87.7692 100.731C88.5183 100.694 89.2691 100.727 90.0122 100.828C93.5108 101.486 94.8883 104.799 93.6692 109.903C94.048 109.708 94.4107 109.484 94.7542 109.233C100.362 105.773 104.153 101.803 105.14 97.5152C106.445 91.011 101.337 88.0268 104.482 81.3398C104.482 81.3398 104.482 81.4373 104.482 81.4738C108.736 78.4897 112.381 80.4507 114.161 86.4312C117.818 80.2192 119.269 74.4702 117.903 69.9878C115.697 63.8612 109.943 63.6784 109.163 56.7113Z" fill="#BAB9B9"/>
</g>
<defs>
<linearGradient id="paint0_linear" x1="13" y1="13" x2="13.0006" y2="107" gradientUnits="userSpaceOnUse">
<stop stop-color="#C4C4C4" stop-opacity="0"/>
<stop offset="0.486188" stop-color="#C4C4C4"/>
<stop offset="1" stop-color="#C4C4C4" stop-opacity="0"/>
</linearGradient>
<clipPath id="clip0">
<rect width="120" height="120" fill="white"/>
</clipPath>
<clipPath id="clip1">
<rect width="60" height="60" fill="white" transform="translate(30 30)"/>
</clipPath>
</defs>
</svg>
