<svg width="40" height="40" viewBox="0 0 40 40" fill="none" xmlns="http://www.w3.org/2000/svg">
<g clip-path="url(#clip0)">
<path d="M6.1188 4.72046C6.11772 4.72046 6.11651 4.72046 6.11543 4.72046C5.73711 4.72046 5.38128 4.86793 5.1126 5.13595C4.84094 5.40693 4.69131 5.76774 4.69131 6.15184V27.6152C4.69131 28.4023 5.33415 29.0442 6.12445 29.0462C9.45618 29.0541 15.0382 29.7486 18.8889 33.7783V11.3163C18.8889 11.0495 18.8208 10.7989 18.6922 10.5915C15.5316 5.50161 9.45807 4.72827 6.1188 4.72046Z" fill="#949300"/>
<path d="M35.3088 27.6152V6.15172C35.3088 5.76761 35.1592 5.4068 34.8876 5.13583C34.6189 4.86781 34.2628 4.72034 33.8849 4.72034C33.8837 4.72034 33.8824 4.72034 33.8814 4.72034C30.5422 4.72828 24.4687 5.50162 21.308 10.5915C21.1794 10.7989 21.1114 11.0495 21.1114 11.3163V33.7782C24.9621 29.7484 30.5441 29.054 33.8758 29.0461C34.666 29.0441 35.3088 28.4022 35.3088 27.6152Z" fill="#949300"/>
<path opacity="0.6" d="M38.5689 9.67029H37.5311V27.6153C37.5311 29.6248 35.8938 31.2635 33.8811 31.2685C31.0551 31.2752 26.3954 31.8278 23.0953 34.9512C28.8028 33.5537 34.8196 34.4622 38.2485 35.2436C38.6767 35.3411 39.1191 35.2403 39.4621 34.9669C39.8039 34.6942 40 34.2865 40 33.849V11.1014C40.0002 10.3123 39.358 9.67029 38.5689 9.67029Z" fill="#949300"/>
<path opacity="0.6" d="M2.46896 27.6153V9.67029H1.43112C0.642157 9.67029 0 10.3123 0 11.1014V33.8486C0 34.2863 0.196095 34.6938 0.537914 34.9665C0.880676 35.2398 1.3227 35.3409 1.75152 35.2432C5.18049 34.4616 11.1973 33.5533 16.9046 34.9508C13.6046 31.8275 8.94495 31.2751 6.11894 31.2683C4.10641 31.2635 2.46896 29.6248 2.46896 27.6153Z" fill="#949300"/>
</g>
<defs>
<clipPath id="clip0">
<rect width="40" height="40" fill="white"/>
</clipPath>
</defs>
</svg>
