<svg width="120" height="120" viewBox="0 0 120 120" fill="none" xmlns="http://www.w3.org/2000/svg">
<g clip-path="url(#clip0)">
<path d="M60 107C85.9574 107 107 85.9574 107 60C107 34.0426 85.9574 13 60 13C34.0426 13 13 34.0426 13 60C13 85.9574 34.0426 107 60 107Z" fill="url(#paint0_linear)" fill-opacity="0.3"/>
<path d="M94.6566 29.8417C101.979 38.1966 106.016 48.9245 106.016 60.0305C106.016 71.1364 101.979 81.8643 94.6566 90.2193C93.2204 91.8938 91.6553 93.4536 89.9756 94.8843L87.7692 96.7113C87.2572 97.0889 86.733 97.4665 86.1723 97.8441C83.3844 99.7881 80.3923 101.422 77.2491 102.716C66.0717 107.193 53.5887 107.145 42.4462 102.582C39.3888 101.261 36.4762 99.6288 33.7546 97.7101L32.2064 96.5895C31.4141 95.9805 30.6705 95.3715 29.9147 94.7138C28.2255 93.2635 26.6485 91.6878 25.1971 90C18.0171 81.6583 14.0687 71.0206 14.0687 60.0183C14.0687 49.0159 18.0171 38.3782 25.1971 30.0365C26.6517 28.3517 28.2285 26.7762 29.9147 25.3228C30.6705 24.665 31.4141 24.1048 32.2064 23.447C32.7184 23.0572 33.2426 22.6918 33.7546 22.3264C36.4866 20.4652 39.3983 18.882 42.4462 17.6005C53.5751 12.9738 66.0816 12.9213 77.2491 17.4543C80.3969 18.7138 83.3907 20.3279 86.1723 22.2655C86.733 22.6066 87.2572 23.0207 87.7692 23.3983C88.5128 23.9586 89.2686 24.5554 90.0122 25.1766L94.6566 29.8417ZM109.163 56.7113V56.4312C111.345 51.7174 115.465 51.5591 120 55.9196C120 48.7211 118.464 43.0207 114.99 39.7929C110.114 35.4446 104.97 38.2826 100.776 32.3752C100.288 27.2107 103.836 25.067 109.943 26.4799C106.286 20.3045 102.093 16.151 97.5091 15.0792C96.5758 14.8557 95.6117 14.7899 94.6566 14.8843C93.0596 15.0357 91.4874 15.3835 89.9756 15.9196C89.2393 16.1621 88.4905 16.3654 87.7326 16.5286C87.2064 16.6343 86.6722 16.6954 86.1357 16.7113C84.5255 16.7915 82.9218 16.4559 81.4791 15.7369C78.5412 11.5469 80.4551 8.01462 86.1357 6.16322C86.2531 6.1402 86.3648 6.0947 86.4649 6.02923C86.3623 5.96875 86.2514 5.92361 86.1357 5.89525C83.3561 4.24782 80.3497 3.01669 77.2125 2.24117C74.8138 1.62233 72.2971 1.62233 69.8984 2.24117C64.9492 3.92205 63.8033 8.03898 59.8903 9.95128C58.8901 10.4316 57.8131 10.7326 56.7087 10.8404H56.4283C51.7107 8.63581 51.5522 4.53106 55.9163 0C50.3941 0 45.7131 0.937881 42.3486 2.8989C41.4078 3.51164 40.5478 4.24004 39.7887 5.06699C35.8635 9.56151 37.8748 14.2266 33.6936 18.1973C33.2805 18.5888 32.8406 18.951 32.3771 19.2814H32.0967C31.3302 19.3319 30.5603 19.2869 29.805 19.1474C26.4892 18.3435 25.2824 15.0792 26.4892 10.1218L25.0874 10.9622C19.6627 14.3727 15.9691 18.2704 14.9817 22.4482C13.6774 28.916 18.7729 31.9488 15.6034 38.6236C11.3369 41.6565 7.692 39.6955 5.91223 33.6784C2.34051 39.9391 0.828931 45.676 2.19423 50.1705C4.29094 56.2607 10.0081 56.4312 10.8492 63.3861V63.6784C8.69159 68.3922 4.53474 68.5506 0 64.2387C0 71.3886 1.58472 77.1376 5.04673 80.3532C9.9228 84.6529 15.0792 81.827 19.2727 87.7467C19.7603 92.8867 16.2007 95.0548 10.0935 93.6297C13.7505 99.8417 17.9561 104.044 22.5396 105.079C23.3865 105.246 24.2486 105.324 25.1117 105.311C26.722 105.175 28.3078 104.831 29.8293 104.287C30.5851 104.044 31.3287 103.812 32.1211 103.63C32.6331 103.544 33.1573 103.435 33.6692 103.398C35.3537 103.304 37.0338 103.648 38.5453 104.397C41.4709 108.624 39.5449 112.205 33.6692 114.019C33.6373 114.028 33.6037 114.028 33.5717 114.019C33.5717 114.019 33.6692 114.019 33.6692 114.105C36.3901 115.705 39.3133 116.934 42.3608 117.759C44.8874 118.443 47.5507 118.443 50.0772 117.759C54.9533 116.115 56.0748 112.058 59.9025 110.134C60.9618 109.624 62.099 109.295 63.267 109.16H63.5473C68.2771 111.352 68.4234 115.469 64.0715 120C69.3499 120 73.8236 119.16 77.1638 117.345C78.305 116.722 79.3449 115.929 80.2479 114.994C84.1243 110.56 82.2105 105.993 86.087 102.058C86.6056 101.565 87.1687 101.121 87.7692 100.731C87.7376 100.742 87.7032 100.742 87.6717 100.731C87.6717 100.731 87.6717 100.731 87.7692 100.646C87.8667 100.56 87.7692 100.646 87.8545 100.646C87.8292 100.677 87.8006 100.706 87.7692 100.731C88.5183 100.694 89.2691 100.727 90.0122 100.828C93.5108 101.486 94.8883 104.799 93.6692 109.903C94.048 109.708 94.4107 109.484 94.7542 109.233C100.362 105.773 104.153 101.803 105.14 97.5152C106.445 91.011 101.337 88.0268 104.482 81.3398C104.482 81.3398 104.482 81.4373 104.482 81.4738C108.736 78.4897 112.381 80.4507 114.161 86.4312C117.818 80.2192 119.269 74.4702 117.903 69.9878C115.697 63.8612 109.943 63.6784 109.163 56.7113Z" fill="#BAB9B9"/>
<g clip-path="url(#clip1)">
<path d="M82.9999 56.0001H82V52.0001C82 43.3627 75.9162 36.1462 67.7999 34.402H52.2C44.0837 36.1461 37.9999 43.3626 37.9999 52V56H37C36.4477 56 36 56.4477 36 56.9999V59.1528C36 59.6416 36.3534 60.0588 36.8357 60.1391L58.6848 63.7806C59.5556 63.9258 60.4444 63.9258 61.3152 63.7806L83.1645 60.1391C83.6467 60.0588 84 59.6416 84 59.1528V57C83.9999 56.4477 83.5521 56.0001 82.9999 56.0001Z" fill="#EFD27C"/>
<path d="M82.9999 56.0001H82V52.0001C82 43.3627 75.9162 36.1462 67.7999 34.402H52.2C44.0837 36.1461 37.9999 43.3626 37.9999 52V56H37C36.4477 56 36 56.4477 36 56.9999V59.1528C36 59.6416 36.3534 60.0588 36.8357 60.1391L58.6848 63.7806C59.5556 63.9258 60.4444 63.9258 61.3152 63.7806L83.1645 60.1391C83.6467 60.0588 84 59.6416 84 59.1528V57C83.9999 56.4477 83.5521 56.0001 82.9999 56.0001Z" fill="#EFD27C"/>
<path d="M83.0001 56.0001H82.0002V52.0002C82.0002 43.3627 75.9164 36.1462 67.8001 34.402H65.0234C73.1397 36.1462 79.2235 43.3627 79.2235 52.0002V56.0001H80.2235C80.7758 56.0001 81.2234 56.4479 81.2234 57.0001V60.4629L83.1645 60.1393C83.6468 60.0589 84.0001 59.6417 84.0001 59.1529V57.0001C84.0001 56.4478 83.5523 56.0001 83.0001 56.0001Z" fill="#EABC73"/>
<path d="M65.8269 32H64.2287C64.1034 32 64.0022 31.9039 63.9885 31.7794C63.8786 30.7786 63.0304 30 62.0005 30H58.0005C56.8959 30 56.0005 30.8954 56.0005 32H56.0004H54.174C53.0039 32 52.0837 33.0001 52.1809 34.1661L54.0004 55.8792H66.0004L67.8199 34.166C67.9172 33 66.9969 32 65.8269 32Z" fill="#EAA96A"/>
<path d="M45.9044 55.0945C45.9044 54.5944 45.499 54.1891 44.999 54.1891H37.999V56H44.999C45.4991 56 45.9044 55.5945 45.9044 55.0945Z" fill="#EABC73"/>
<path d="M74.9991 56H81.9991V54.1891H74.9991C74.499 54.1891 74.0938 54.5944 74.0938 55.0945C74.0938 55.5945 74.499 56 74.9991 56Z" fill="#EABC73"/>
<path d="M37.999 56H41.999V52.9375C41.999 52.4198 41.5792 52 41.0615 52H37.999V56Z" fill="#EAA96A"/>
<path d="M82 56H78V52.9375C78 52.4198 78.4198 52 78.9375 52H82V56Z" fill="#EAA96A"/>
<path d="M65.8267 32H64.2283C64.1031 32 64.0018 31.9039 63.9881 31.7794C63.8784 30.7786 63.0302 30 62.0003 30H59.2236C60.2536 30 61.1018 30.7786 61.2116 31.7794C61.2253 31.9038 61.3266 32 61.4518 32H63.05C64.2201 32 65.1403 33.0001 65.0432 34.1661L63.2237 56H66.0002L67.8197 34.1661C67.9169 33 66.9967 32 65.8267 32Z" fill="#E5935D"/>
<path d="M61.0615 52H58.9365C58.4188 52 57.999 51.5802 57.999 51.0625V46.9375C57.999 46.4198 58.4188 46 58.9365 46H61.0615C61.5792 46 61.999 46.4198 61.999 46.9375V51.0625C61.999 51.5803 61.5792 52 61.0615 52Z" fill="#EFD27C"/>
<path d="M68.0002 56H52.0001C51.5 56 51.0947 55.5946 51.0947 55.0946C51.0947 54.5946 51.5001 54.1892 52.0001 54.1892H68.0001C68.5002 54.1892 68.9055 54.5946 68.9055 55.0946C68.9056 55.5946 68.5003 56 68.0002 56Z" fill="#E5935D"/>
<path d="M83.0343 80C83.5677 80 84 79.5676 84 79.0343V72.9659C84 72.4324 83.5676 72.0001 83.0343 72.0001H36.9657C36.4323 72.0001 36 72.4325 36 72.9659V79.0343C36 79.5677 36.4324 80 36.9657 80H83.0343Z" fill="#4C5E71"/>
<path d="M83.0345 71.9999H80.2578C80.7913 71.9999 81.2236 72.4323 81.2236 72.9656V79.0341C81.2236 79.5675 80.7911 79.9998 80.2578 79.9998H83.0345C83.5679 79.9998 84.0002 79.5674 84.0002 79.0341V72.9656C84.0002 72.4323 83.5678 71.9999 83.0345 71.9999Z" fill="#3C4958"/>
<path d="M74 90H65C64.5459 90 64.1052 89.8454 63.7506 89.5617L61.2494 87.5607C60.5189 86.9764 59.481 86.9764 58.7506 87.5607L56.2493 89.5617C55.8947 89.8454 55.4541 90 55 90H45.9062C45.3677 90 44.8517 89.7827 44.4754 89.3973L40.5691 85.3973C40.2043 85.0237 40 84.5221 40 84V69.9999C40 68.8953 40.8954 67.9999 42 67.9999H78C79.1047 67.9999 80.0001 68.8953 80.0001 69.9999V84C80.0001 84.5303 79.7894 85.0391 79.4143 85.4142L75.4143 89.4143C75.0391 89.7893 74.5303 90 74 90Z" fill="#EFD27C"/>
<path d="M66.4032 85.9999H72.3432C72.8736 85.9999 73.3823 85.7892 73.7574 85.4141L75.4142 83.7573C75.7893 83.3822 76 82.8735 76 82.3431V73.9999C76 72.8953 75.1046 71.9999 74 71.9999H46C44.8954 71.9999 44 72.8953 44 73.9999V82.3707C44 82.8929 44.2043 83.3945 44.5691 83.7681L46.16 85.3972C46.5364 85.7826 47.0523 85.9999 47.5909 85.9999H53.5967C54.0508 85.9999 54.4914 85.8453 54.8461 85.5616L58.7504 82.4381C59.4808 81.8538 60.5187 81.8538 61.2492 82.4381L65.1535 85.5616C65.5085 85.8453 65.9491 85.9999 66.4032 85.9999Z" fill="#A6CCFB"/>
<path d="M77.9993 68H75.2226C76.3272 68 77.2227 68.8954 77.2227 70V83.9999C77.2227 84.5303 77.012 85.039 76.6368 85.4142L72.6369 89.4142C72.2618 89.7893 71.753 90 71.2227 90H73.9993C74.5297 90 75.0384 89.7893 75.4135 89.4142L79.4135 85.4142C79.7886 85.039 79.9993 84.5303 79.9993 83.9999V69.9999C79.9993 68.8954 79.1039 68 77.9993 68Z" fill="#EABC73"/>
<path d="M74.0008 71.9999H71.2242C72.3288 71.9999 73.2242 72.8953 73.2242 73.9999V82.3431C73.2242 82.8735 73.0135 83.3822 72.6384 83.7573L70.9816 85.4141C70.6065 85.7892 70.0978 85.9999 69.5674 85.9999H72.344C72.8744 85.9999 73.3831 85.7892 73.7582 85.4141L75.415 83.7573C75.7902 83.3822 76.0009 82.8735 76.0009 82.3431V73.9999C76.0007 72.8953 75.1053 71.9999 74.0008 71.9999Z" fill="#8CBDF9"/>
</g>
</g>
<defs>
<linearGradient id="paint0_linear" x1="13" y1="13" x2="13.0006" y2="107" gradientUnits="userSpaceOnUse">
<stop stop-color="#C4C4C4" stop-opacity="0"/>
<stop offset="0.486188" stop-color="#C4C4C4"/>
<stop offset="1" stop-color="#C4C4C4" stop-opacity="0"/>
</linearGradient>
<clipPath id="clip0">
<rect width="120" height="120" fill="white"/>
</clipPath>
<clipPath id="clip1">
<rect width="60" height="60" fill="white" transform="translate(30 30)"/>
</clipPath>
</defs>
</svg>
