<svg width="59" height="32" viewBox="0 0 59 32" fill="none" xmlns="http://www.w3.org/2000/svg">
<path d="M0.942383 31.8292V31.1323L2.78306 26.8374L4.45605 29.068L6.45605 27.068L7.90196 28.9959L10.7182 25.2409L13.7097 26.2381L16.2097 22.7381L17.6216 23.2087L23.2683 9.86181L25.4434 12.5807L27.8382 10.1858L29.2979 11.1589L33.3941 6.03871L35.9984 9.16397L40.4984 6.16398L42.9165 9.06564L47.3829 4.10302L50.8776 7.59776L57.5257 -3.05176e-05L58.2782 0.658474V31.8292H0.942383Z" fill="url(#paint0_linear)" fill-opacity="0.3"/>
<path d="M1.40234 31.3292L2.90234 27.8292L4.40234 29.8292L6.40234 27.8292L7.90234 29.8292L10.9023 25.8292L13.9023 26.8292L16.4023 23.3292L17.9023 23.8292L23.4023 10.8292L25.4023 13.3292L27.9023 10.8292L29.4023 11.8292L33.4023 6.82919L35.9023 9.82919L40.4023 6.82919L42.9023 9.82919L47.4023 4.82919L50.9023 8.32919L57.9023 0.329193" stroke="#74B422"/>
<defs>
<linearGradient id="paint0_linear" x1="29.4023" y1="12.3292" x2="29.6103" y2="31.8292" gradientUnits="userSpaceOnUse">
<stop stop-color="#74B422"/>
<stop offset="1" stop-color="#74B422" stop-opacity="0"/>
</linearGradient>
</defs>
</svg>
