<svg width="80" height="80" viewBox="0 0 80 80" fill="none" xmlns="http://www.w3.org/2000/svg">
<rect opacity="0.3" x="8" y="72" width="26" height="64" rx="3" transform="rotate(-90 8 72)" fill="url(#paint0_linear)"/>
<path fill-rule="evenodd" clip-rule="evenodd" d="M23.6042 23.5934L25.1899 22.3745L37.3789 38.2309L35.7932 39.4498C33.166 41.4694 29.3991 40.9768 27.3796 38.3496L22.504 32.007C20.4844 29.3798 20.977 25.6129 23.6042 23.5934ZM20.9183 33.2259C18.2256 29.723 18.8824 24.7004 22.3853 22.0077L23.971 20.7888C24.7649 20.1785 25.8711 20.2565 26.5725 20.9289C29.0038 18.4929 31.8016 16.0307 34.8871 13.6588C38.2719 11.0568 41.6727 8.81754 44.9142 7.00165C44.3558 6.13616 44.546 4.97255 45.3772 4.33362L46.9628 3.11472C50.4658 0.421996 55.4883 1.07879 58.181 4.5817L63.0567 10.9243C65.7494 14.4272 65.0926 19.4498 61.5897 22.1425L60.004 23.3614C59.1283 24.0346 57.8727 23.8704 57.1995 22.9946L56.0829 21.5421C54.4022 23.2726 52.5318 25.0221 50.5001 26.7484C51.1741 27.002 51.788 27.4407 52.2592 28.0536L55.4616 32.2197C57.6703 32.1173 59.8919 33.0604 61.3416 34.9463L77.1873 55.5597C79.5435 58.6248 78.9688 63.0195 75.9037 65.3757C72.8387 67.7318 68.4439 67.1571 66.0878 64.0921L50.2421 43.4786C48.7923 41.5927 48.4522 39.2034 49.119 37.0953L45.9166 32.9292C45.4643 32.3409 45.201 31.6667 45.1172 30.9798C42.6916 32.7427 40.2751 34.3133 37.9324 35.6693L38.9645 37.012C39.6377 37.8877 39.4735 39.1434 38.5978 39.8166L37.0121 41.0355C33.5092 43.7282 28.4867 43.0714 25.7939 39.5685L20.9183 33.2259ZM36.7027 34.0696C39.658 32.3736 42.7571 30.3127 45.8572 27.9296C49.2665 25.3088 52.2989 22.5891 54.8508 19.9393L46.1403 8.60792C42.9233 10.3926 39.5153 12.6236 36.106 15.2444C33.0059 17.6275 30.2174 20.0924 27.8185 22.5123L36.7027 34.0696ZM48.1817 4.70037L46.5961 5.91927L58.7851 21.7757L60.3708 20.5568C62.998 18.5373 63.4905 14.7704 61.471 12.1432L56.5954 5.8006C54.5759 3.17342 50.8089 2.68082 48.1817 4.70037ZM53.288 32.6736L50.6735 29.2725C50.0003 28.3968 48.7447 28.2326 47.869 28.9058C46.9932 29.579 46.829 30.8346 47.5022 31.7103L50.1167 35.1114C50.5042 34.5757 50.9747 34.0863 51.5257 33.6627C52.0767 33.2392 52.6706 32.9103 53.288 32.6736ZM59.7559 36.1652L75.6017 56.7786C77.2846 58.968 76.8741 62.1071 74.6848 63.79C72.4955 65.473 69.3564 65.0625 67.6734 62.8732L51.8277 42.2597C50.1448 40.0704 50.5553 36.9313 52.7446 35.2484C54.9339 33.5654 58.073 33.9759 59.7559 36.1652ZM32 58H14C11.7909 58 10 59.7909 10 62V66H36V62C36 59.7909 34.2091 58 32 58ZM8 62V66H7C3.68629 66 1 68.6863 1 72V76C1 77.1046 1.89543 78 3 78H43C44.1046 78 45 77.1046 45 76V72C45 68.6863 42.3137 66 39 66H38V62C38 58.6863 35.3137 56 32 56H14C10.6863 56 8 58.6863 8 62ZM10 68H36H39C41.2091 68 43 69.7909 43 72V76H3V72C3 69.7909 4.79086 68 7 68H10Z" fill="url(#paint1_linear)"/>
<defs>
<linearGradient id="paint0_linear" x1="21" y1="72" x2="21" y2="136" gradientUnits="userSpaceOnUse">
<stop stop-color="#FCDAA0"/>
<stop offset="1" stop-color="#B5A78F"/>
</linearGradient>
<linearGradient id="paint1_linear" x1="39.8189" y1="1.45691" x2="39.8189" y2="78" gradientUnits="userSpaceOnUse">
<stop stop-color="#D3AE7B"/>
<stop offset="1" stop-color="#493304"/>
</linearGradient>
</defs>
</svg>
