<svg width="24" height="12" viewBox="0 0 24 12" fill="none" xmlns="http://www.w3.org/2000/svg">
<path d="M18.6 0.625C17.16 0.625 15.8 1.18502 14.825 2.16002L12 4.66L11.995 4.65499L10.48 5.98999L10.49 5.99997L7.79498 8.38999C7.155 9.02501 6.30502 9.37502 5.4 9.37502C3.53002 9.37502 2.01 7.86002 2.01 6.00002C2.01 4.14002 3.53002 2.62502 5.4 2.62502C6.30502 2.62502 7.155 2.97503 7.83998 3.655L8.97497 4.66L10.485 3.325L9.21994 2.20502C8.19994 1.19003 6.84492 0.630016 5.39995 0.630016C2.42002 0.625 0 3.03503 0 6.00002C0 8.96501 2.42002 11.375 5.4 11.375C6.84 11.375 8.19502 10.815 9.17498 9.84504L12 7.34004L12.005 7.34505L13.515 6.00504L13.51 6.00002L16.205 3.61502C16.845 2.97503 17.695 2.62502 18.6 2.62502C20.47 2.62502 21.99 4.14002 21.99 6.00002C21.99 7.86002 20.47 9.37502 18.6 9.37502C17.695 9.37502 16.845 9.02501 16.16 8.35001L15.025 7.34501L13.515 8.68502L14.78 9.80501C15.8 10.82 17.155 11.375 18.595 11.375C21.58 11.375 24 8.96501 24 6.00002C24 3.03503 21.58 0.625 18.6 0.625Z" fill="#333333"/>
</svg>
