<svg width="80" height="80" viewBox="0 0 80 80" fill="none" xmlns="http://www.w3.org/2000/svg">
<circle opacity="0.3" cx="45" cy="44" r="26" fill="url(#paint0_linear)"/>
<path fill-rule="evenodd" clip-rule="evenodd" d="M39.9999 73.6923C39.4476 73.6923 38.9999 73.2446 38.9999 72.6923V67.1358C31.926 66.8797 25.5422 63.9177 20.8526 59.2538L17.1686 62.9379C16.778 63.3284 16.1449 63.3284 15.7544 62.9379C15.3638 62.5473 15.3638 61.9142 15.7544 61.5236L19.4863 57.7917C15.5532 53.2609 13.0964 47.4141 12.8642 41H7.30762C6.75533 41 6.30762 40.5523 6.30762 40C6.30762 39.4477 6.75533 39 7.30762 39H12.8642C13.1083 32.2558 15.812 26.1389 20.1051 21.5194L15.2897 16.704C14.8992 16.3134 14.8992 15.6803 15.2897 15.2897C15.6802 14.8992 16.3134 14.8992 16.7039 15.2897L21.5193 20.1052C26.1388 15.8121 32.2557 13.1084 38.9999 12.8642V7.30768C38.9999 6.75539 39.4476 6.30768 39.9999 6.30768C40.5522 6.30768 40.9999 6.75539 40.9999 7.30768V12.8642C47.4141 13.0964 53.2608 15.5533 57.7916 19.4864L61.9883 15.2897C62.3788 14.8992 63.0119 14.8992 63.4025 15.2897C63.793 15.6803 63.793 16.3134 63.4025 16.704L59.2538 20.8527C63.9176 25.5423 66.8796 31.9261 67.1357 39H72.6922C73.2445 39 73.6922 39.4477 73.6922 40C73.6922 40.5523 73.2445 41 72.6922 41H67.1357C66.8915 47.7442 64.1879 53.8611 59.8948 58.4806L62.9378 61.5236C63.3283 61.9142 63.3283 62.5473 62.9378 62.9379C62.5473 63.3284 61.9141 63.3284 61.5236 62.9379L58.4805 59.8948C53.861 64.1879 47.7441 66.8916 40.9999 67.1358V72.6923C40.9999 73.2446 40.5522 73.6923 39.9999 73.6923ZM14.8656 39C15.1077 32.8079 17.5881 27.1906 21.5203 22.9346L36.61 38.0242C36.4336 38.3261 36.2965 38.6537 36.2054 39H14.8656ZM36.2054 41H14.8656C15.0948 46.8622 17.3302 52.2092 20.9043 56.3737L36.2209 41.0571C36.2156 41.0381 36.2105 41.0191 36.2054 41ZM37.2797 42.8268L22.2668 57.8396C26.5944 62.1415 32.4784 64.8794 38.9999 65.1343V43.7945C38.3434 43.6219 37.7542 43.2835 37.2797 42.8268ZM41.057 36.221C41.038 36.2157 41.019 36.2105 40.9999 36.2055V14.8657C46.8621 15.0948 52.2091 17.3302 56.3736 20.9044L41.057 36.221ZM43.7944 39C43.6219 38.3435 43.2835 37.7542 42.8267 37.2797L57.8396 22.2669C62.1414 26.5944 64.8793 32.4784 65.1343 39H43.7944ZM43.3899 41.9757C43.5662 41.6738 43.7034 41.3463 43.7944 41H65.1343C64.8922 47.1921 62.4118 52.8094 58.4795 57.0654L43.3899 41.9757ZM40.9999 43.7945C41.3462 43.7035 41.6738 43.5663 41.9757 43.39L57.0653 58.4796C52.8093 62.4118 47.192 64.8922 40.9999 65.1343V43.7945ZM38.9999 36.2055C38.6536 36.2965 38.3261 36.4337 38.0242 36.61L22.9345 21.5204C27.1906 17.5882 32.8079 15.1077 38.9999 14.8657V36.2055Z" fill="url(#paint1_linear)"/>
<defs>
<linearGradient id="paint0_linear" x1="45" y1="18" x2="45" y2="70" gradientUnits="userSpaceOnUse">
<stop stop-color="#FCDAA0"/>
<stop offset="1" stop-color="#B5A78F"/>
</linearGradient>
<linearGradient id="paint1_linear" x1="39.9999" y1="6.30768" x2="39.9999" y2="73.6923" gradientUnits="userSpaceOnUse">
<stop stop-color="#D3AE7B"/>
<stop offset="1" stop-color="#493304"/>
</linearGradient>
</defs>
</svg>
