<svg width="80" height="80" viewBox="0 0 80 80" fill="none" xmlns="http://www.w3.org/2000/svg">
<rect opacity="0.3" x="36" y="16" width="26" height="64" rx="2" fill="url(#paint0_linear)"/>
<path fill-rule="evenodd" clip-rule="evenodd" d="M34 10C34 9.44772 33.5523 9 33 9C32.4477 9 32 9.44772 32 10V19H23.7391C23.1869 19 22.7391 19.4477 22.7391 20C22.7391 20.5523 23.1869 21 23.7391 21H32V29H23.7391C23.1869 29 22.7391 29.4477 22.7391 30C22.7391 30.5523 23.1869 31 23.7391 31H32V39H23.7391C23.1869 39 22.7391 39.4477 22.7391 40C22.7391 40.5523 23.1869 41 23.7391 41H32V49H23.7391C23.1869 49 22.7391 49.4477 22.7391 50C22.7391 50.5523 23.1869 51 23.7391 51H32V59H23.7391C23.1869 59 22.7391 59.4477 22.7391 60C22.7391 60.5523 23.1869 61 23.7391 61H32V70C32 70.5523 32.4477 71 33 71C33.5523 71 34 70.5523 34 70V61H46V70C46 70.5523 46.4477 71 47 71C47.5523 71 48 70.5523 48 70V61H56.2609C56.8132 61 57.2609 60.5523 57.2609 60C57.2609 59.4477 56.8132 59 56.2609 59H48V51H56.2609C56.8132 51 57.2609 50.5523 57.2609 50C57.2609 49.4477 56.8132 49 56.2609 49H48V41H56.2609C56.8132 41 57.2609 40.5523 57.2609 40C57.2609 39.4477 56.8132 39 56.2609 39H48V31H56.2609C56.8132 31 57.2609 30.5523 57.2609 30C57.2609 29.4477 56.8132 29 56.2609 29H48V21H56.2609C56.8132 21 57.2609 20.5523 57.2609 20C57.2609 19.4477 56.8132 19 56.2609 19H48V10C48 9.44772 47.5523 9 47 9C46.4477 9 46 9.44772 46 10V19H34V10ZM34 21V29H46V21H34ZM46 31H34V39H46V31ZM46 41H34V49H46V41ZM46 51H34V59H46V51Z" fill="url(#paint1_linear)"/>
<defs>
<linearGradient id="paint0_linear" x1="49" y1="16" x2="49" y2="80" gradientUnits="userSpaceOnUse">
<stop stop-color="#FCDAA0"/>
<stop offset="1" stop-color="#B5A78F"/>
</linearGradient>
<linearGradient id="paint1_linear" x1="40" y1="9" x2="40" y2="71" gradientUnits="userSpaceOnUse">
<stop stop-color="#D3AE7B"/>
<stop offset="1" stop-color="#493304"/>
</linearGradient>
</defs>
</svg>
