<svg width="40" height="30" viewBox="0 0 40 30" fill="none" xmlns="http://www.w3.org/2000/svg">
<path d="M28.8672 0H20C19.7122 0 19.4269 0.0108173 19.1446 0.0318509C18.8754 0.0522837 18.6093 0.0823317 18.3456 0.121094C18.3176 0.1253 18.2895 0.129507 18.2611 0.134014C18.0264 0.170373 17.7942 0.214243 17.5644 0.265024C17.3325 0.316106 17.1036 0.374399 16.8774 0.439603C16.7566 0.474159 16.6367 0.511118 16.5176 0.54988C16.3373 0.608474 16.1588 0.671575 15.9824 0.738882C15.947 0.752404 15.9116 0.766226 15.8765 0.780048C15.7339 0.836238 15.593 0.895132 15.4535 0.956731C15.2786 1.03395 15.1059 1.11538 14.9362 1.20102C14.8392 1.25 14.743 1.30078 14.6478 1.35276C14.5316 1.41556 14.4168 1.48047 14.3036 1.54748C14.0961 1.66947 13.8928 1.79808 13.6945 1.93299C13.6096 1.99069 13.526 2.04928 13.4427 2.10907C13.371 2.16076 13.3002 2.21304 13.23 2.26623C13.1693 2.3119 13.1094 2.35817 13.0499 2.40505C12.9092 2.51623 12.7713 2.63041 12.6364 2.7479C12.5601 2.8143 12.4847 2.88191 12.4103 2.95012C12.3175 3.03546 12.226 3.12139 12.1362 3.20974C12.1347 3.21124 12.1332 3.21274 12.1317 3.21424C12.0337 3.3104 11.9382 3.40925 11.8439 3.50901C11.7639 3.59405 11.6849 3.67969 11.6077 3.76713C11.5189 3.86719 11.4325 3.96935 11.3474 4.07272C11.2216 4.22566 11.0995 4.38191 10.9824 4.54147C10.8264 4.7527 10.6784 4.96995 10.538 5.19231C10.2414 5.66196 9.97955 6.15535 9.75677 6.66857C9.74152 6.70403 9.72687 6.73948 9.71191 6.77494C9.5343 7.19591 9.38324 7.63011 9.25964 8.07542C9.02832 8.90835 8.89404 9.78035 8.87085 10.6791C8.86841 10.7728 8.86719 10.8672 8.86719 10.9615C8.86719 11.0559 8.86841 11.1499 8.87085 11.244C8.89679 12.253 9.06281 13.2284 9.34875 14.1523C9.45404 14.4916 9.5752 14.8236 9.71191 15.1481C9.72687 15.1836 9.74152 15.2191 9.75677 15.2542C9.97955 15.7677 10.2414 16.2608 10.538 16.7308C10.6784 16.9531 10.8264 17.1701 10.9824 17.3816C11.0999 17.5412 11.2216 17.6974 11.3474 17.8504C11.4325 17.9537 11.5189 18.0556 11.6077 18.1559C11.6849 18.2431 11.7639 18.329 11.8439 18.4138C11.9089 18.4826 11.9748 18.5508 12.0416 18.6181C12.1039 18.6809 12.1667 18.7428 12.2305 18.8041C12.2897 18.8609 12.3495 18.9171 12.41 18.9727C12.4844 19.0412 12.5598 19.1085 12.6361 19.1749C12.7713 19.2924 12.9092 19.4069 13.0499 19.5177C13.1094 19.5646 13.1693 19.6109 13.2297 19.6566C13.3002 19.71 13.371 19.7623 13.4427 19.8137C13.5257 19.8738 13.6096 19.9324 13.6945 19.9901C13.8928 20.1247 14.0961 20.2533 14.3033 20.3756C14.4168 20.4423 14.5316 20.5075 14.6475 20.5703C14.743 20.622 14.8389 20.6728 14.9359 20.7218C15.1059 20.8077 15.2783 20.8888 15.4532 20.9663C15.593 21.0279 15.7339 21.0868 15.8765 21.143C15.9116 21.1569 15.947 21.1704 15.9824 21.1839C16.1588 21.2515 16.3373 21.3143 16.5176 21.3732C16.6367 21.4117 16.7566 21.4486 16.8774 21.4835C17.1036 21.5487 17.3325 21.607 17.5641 21.6581C17.7939 21.7085 18.0261 21.7524 18.2611 21.7891C18.2892 21.7933 18.3176 21.7975 18.3456 21.8017C18.6093 21.8407 18.8754 21.8708 19.1446 21.8909C19.4269 21.9123 19.7122 21.9231 20 21.9231C21.6156 21.9231 22.9297 20.6292 22.9297 19.0385C22.9297 17.4477 21.6156 16.1538 20 16.1538C19.093 16.1538 18.2385 15.927 17.4924 15.5282C17.4713 15.5171 17.4512 15.5048 17.4304 15.4934C17.005 15.2584 16.6153 14.9684 16.2729 14.6313C16.0294 14.3918 15.8099 14.1286 15.6177 13.8462C15.0552 13.0204 14.7266 12.0282 14.7266 10.9615C14.7266 9.89483 15.0552 8.90264 15.6177 8.07692C16.5649 6.6866 18.1754 5.76923 20 5.76923H28.8672C31.7749 5.76923 34.1406 8.09856 34.1406 10.9615C34.1406 12.3492 33.5837 13.6106 32.6797 14.543C33.1952 15.9477 33.4766 17.4612 33.4766 19.0385C33.4766 19.7061 33.4256 20.3621 33.3286 21.0033C37.2525 19.3065 40 15.4444 40 10.9615C40 4.91737 35.0058 0 28.8672 0Z" fill="#949300"/>
<path d="M30.6512 15.8474C30.5463 15.5081 30.4248 15.1761 30.2881 14.8519C30.2386 14.7344 30.1874 14.6175 30.134 14.5021C30.0824 14.3912 30.0287 14.2812 29.9734 14.1719C29.9176 14.0613 29.8602 13.9513 29.8007 13.8431C29.7043 13.6671 29.6027 13.4943 29.4971 13.3245C29.3292 13.0553 29.1501 12.7939 28.9603 12.5409C28.9178 12.4844 28.8748 12.4282 28.8312 12.3726C28.4329 11.8621 27.9904 11.3867 27.5085 10.9528C27.4847 10.9312 27.4606 10.9099 27.4365 10.8888C27.1561 10.6403 26.8625 10.4056 26.5573 10.186C26.4743 10.1262 26.3904 10.0676 26.3055 10.0099C25.9094 9.74069 25.495 9.49549 25.0641 9.27794C24.9728 9.23197 24.881 9.1875 24.7885 9.14393C24.5706 9.04147 24.3491 8.94561 24.1238 8.85697C24.0884 8.84315 24.053 8.82933 24.0176 8.81581C23.8272 8.74309 23.6346 8.67548 23.4393 8.61298C23.3484 8.58383 23.2571 8.55589 23.165 8.52885C22.9114 8.45463 22.6541 8.38912 22.3935 8.33263C22.1924 8.28936 21.9894 8.2512 21.7847 8.21845C21.7316 8.21004 21.6785 8.20162 21.6251 8.19411C21.3712 8.15745 21.1148 8.12861 20.8554 8.10907C20.5731 8.08774 20.2878 8.07692 20 8.07692C18.3844 8.07692 17.0703 9.37079 17.0703 10.9615C17.0703 12.5523 18.3844 13.8462 20 13.8462C20.3976 13.8462 20.7846 13.8912 21.1572 13.9736C21.3519 14.0168 21.5424 14.0703 21.7282 14.134C21.788 14.1544 21.8472 14.1761 21.9058 14.1983C22.6703 14.4913 23.3493 14.9537 23.8934 15.5403C23.905 15.5526 23.916 15.5655 23.9273 15.5781C24.0161 15.6755 24.1006 15.7764 24.1818 15.8804C24.2166 15.9252 24.2505 15.9706 24.2841 16.0162C24.3173 16.0619 24.3506 16.1073 24.3823 16.1538C24.9448 16.9793 25.2734 17.9718 25.2734 19.0385C25.2734 21.9014 22.9077 24.2308 20 24.2308H11.1328C8.2251 24.2308 5.85938 21.9014 5.85938 19.0385C5.85938 17.6505 6.41632 16.3894 7.32025 15.4567C6.80511 14.0523 6.52344 12.5388 6.52344 10.9615C6.52344 10.2939 6.5744 9.63792 6.67145 8.99669C2.7475 10.6935 0 14.5556 0 19.0385C0 25.0826 4.9942 30 11.1328 30H20C20.2878 30 20.5731 29.9892 20.8554 29.9681C21.1145 29.9486 21.3712 29.9195 21.6251 29.8828C21.6782 29.8753 21.7313 29.8669 21.7847 29.8585C21.9894 29.826 22.1924 29.7876 22.3932 29.7443C22.6538 29.6878 22.9114 29.6223 23.165 29.5481C23.2568 29.5213 23.3481 29.4931 23.439 29.4639C23.6343 29.4014 23.8272 29.3338 24.0173 29.2611C24.053 29.2476 24.0881 29.2341 24.1235 29.22C24.3488 29.1313 24.5706 29.0358 24.7882 28.933C24.8807 28.8894 24.9728 28.845 25.0638 28.799C25.4947 28.5814 25.9091 28.3362 26.3052 28.067C26.3901 28.0096 26.474 27.9507 26.557 27.8909C26.8622 27.6713 27.1558 27.4369 27.4365 27.1884C27.4603 27.1671 27.4844 27.1457 27.5082 27.1244C27.6276 27.0168 27.7448 26.9069 27.8592 26.7945C27.8622 26.7915 27.8653 26.7888 27.8683 26.7858C28.2126 26.4468 28.5339 26.0853 28.8309 25.7046C28.8745 25.6487 28.9175 25.5928 28.96 25.5364C29.1498 25.2831 29.3292 25.0216 29.4968 24.7527C29.6027 24.5826 29.704 24.4099 29.8004 24.2341C29.8602 24.1256 29.9173 24.0156 29.9731 23.905C30.0284 23.796 30.0821 23.686 30.1337 23.5748C30.1874 23.4594 30.2383 23.3425 30.2881 23.2254C30.4654 22.8041 30.6168 22.3699 30.7404 21.9246C30.9714 21.0916 31.1057 20.2197 31.1288 19.3212C31.1313 19.2272 31.1325 19.1331 31.1325 19.0388C31.1325 18.9441 31.1313 18.8501 31.1288 18.756C31.1032 17.747 30.9372 16.7716 30.6512 15.8474Z" fill="#949300"/>
</svg>
