<svg width="40" height="40" viewBox="0 0 40 40" fill="none" xmlns="http://www.w3.org/2000/svg">
<g clip-path="url(#clip0)">
<path d="M32.5632 31.7944C31.1496 31.7944 29.9994 32.9447 29.9994 34.3582V39.9991L38.2041 31.7944H32.5632Z" fill="#949300"/>
<path d="M8.97412 5.12842V34.8716C8.97412 37.6924 11.2817 40 14.1025 40H27.4356V34.3592C27.4356 31.5383 29.7432 29.2308 32.564 29.2308H38.2049L38.2057 5.12842H8.97412ZM24.3578 25.8967H15.1274V23.3329H24.3578V25.8967ZM32.0508 19.7434H15.1274V17.1796H32.05V19.7434H32.0508ZM32.0508 13.5893H15.1274V11.0255H32.05V13.5893H32.0508Z" fill="#949300"/>
<path d="M1.79517 0V29.7432C1.79517 32.3903 3.82828 34.586 6.41034 34.8454V2.56381H31.0267V0H1.79517Z" fill="#949300"/>
</g>
<defs>
<clipPath id="clip0">
<rect width="40" height="40" fill="white"/>
</clipPath>
</defs>
</svg>
