<svg width="80" height="80" viewBox="0 0 80 80" fill="none" xmlns="http://www.w3.org/2000/svg">
<path opacity="0.3" d="M22 44L27 61.5L65.5 62L71 44L46.5 27L22 44Z" fill="url(#paint0_linear)"/>
<path fill-rule="evenodd" clip-rule="evenodd" d="M40.9463 13.1985C40.9463 12.6462 40.4985 12.1985 39.9463 12.1985C39.394 12.1985 38.9463 12.6462 38.9463 13.1985V19.2729C38.9463 19.8252 39.394 20.2729 39.9463 20.2729C40.4985 20.2729 40.9463 19.8252 40.9463 19.2729V13.1985ZM25.5454 23.9175C24.9931 23.9175 24.5454 24.3652 24.5454 24.9175V38.7109C24.5454 39.2632 24.0977 39.7109 23.5454 39.7109C22.9931 39.7109 22.5454 39.2632 22.5454 38.7109V24.9175C22.5454 23.2606 23.8886 21.9175 25.5454 21.9175H54.3471C56.0039 21.9175 57.3471 23.2606 57.3471 24.9175V38.7109C57.3471 39.2632 56.8994 39.7109 56.3471 39.7109C55.7948 39.7109 55.3471 39.2632 55.3471 38.7109V24.9175C55.3471 24.3652 54.8994 23.9175 54.3471 23.9175H25.5454ZM40.5197 30.6024L39.9463 30.2009L39.3728 30.6024L15.0753 47.6106L14.497 48.0154L14.6847 48.6958L19.4229 65.8717C16.4937 66.4221 13.4142 65.7586 10.9387 63.9432L9.23171 62.6914C8.0884 61.853 6.70754 61.4009 5.28975 61.4009H4.71484C4.16256 61.4009 3.71484 61.8486 3.71484 62.4009C3.71484 62.9532 4.16256 63.4009 4.71484 63.4009H5.28975C6.28216 63.4009 7.24871 63.7173 8.04899 64.3042L9.75598 65.556C13.6845 68.4369 18.8988 68.8656 23.2451 66.6649C26.3854 65.0749 30.0992 65.0942 33.2227 66.7169L33.6387 66.933C37.5948 68.9881 42.2985 69.0126 46.2759 66.9987L46.9314 66.6668C50.0741 65.0756 53.7906 65.095 56.9165 66.7188C61.1008 68.8924 66.1362 68.618 70.0595 66.0025L71.8553 64.8053C72.6347 64.2857 73.5506 64.0084 74.4874 64.0084H75.7851C76.3374 64.0084 76.7851 63.5606 76.7851 63.0084C76.7851 62.4561 76.3374 62.0084 75.7851 62.0084H74.4874C73.1557 62.0084 71.8539 62.4025 70.7459 63.1412L68.9501 64.3384C66.4215 66.0241 63.3465 66.5596 60.4605 65.9048L65.2078 48.6958L65.3955 48.0154L64.8172 47.6106L40.5197 30.6024ZM58.5568 65.2847L63.0921 48.8443L40.9463 33.3422V66.4558C42.4683 66.3367 43.9729 65.923 45.3724 65.2144L46.028 64.8825C49.7451 63.0004 54.1411 63.0233 57.8385 64.944C58.0749 65.0668 58.3145 65.1804 58.5568 65.2847ZM38.9463 66.443V33.3422L16.8004 48.8443L21.3465 65.3238C21.6831 65.1936 22.0153 65.0459 22.3416 64.8806C26.0564 62.9997 30.4497 63.0226 34.1447 64.9421L34.5606 65.1581C35.9443 65.8769 37.4349 66.3054 38.9463 66.443Z" fill="url(#paint1_linear)"/>
<defs>
<linearGradient id="paint0_linear" x1="46.5" y1="27" x2="46.5" y2="62" gradientUnits="userSpaceOnUse">
<stop stop-color="#FCDAA0"/>
<stop offset="1" stop-color="#B5A78F"/>
</linearGradient>
<linearGradient id="paint1_linear" x1="40.25" y1="12.1985" x2="40.25" y2="68.4919" gradientUnits="userSpaceOnUse">
<stop stop-color="#D3AE7B"/>
<stop offset="1" stop-color="#493304"/>
</linearGradient>
</defs>
</svg>
