<svg width="80" height="80" viewBox="0 0 80 80" fill="none" xmlns="http://www.w3.org/2000/svg">
<path opacity="0.3" d="M15 24H77L65 54H27L15 24Z" fill="url(#paint0_linear)"/>
<path fill-rule="evenodd" clip-rule="evenodd" d="M55.1183 16.0177C58.124 16.1922 60.1119 17.6377 61.3288 19.4405C62.5912 21.3107 63 23.5191 63 25V26H62H15H14V25C14 20.0301 16.2848 16.9995 19.1842 15.3108C21.7989 13.7881 24.8539 13.384 27.0567 13.472C28.7575 11.5264 31.046 10.109 32.0528 9.60554L32.0997 9.58207L32.1489 9.56364C38.7791 7.07732 44.0595 7.65417 47.9731 9.48137C51.5462 11.1496 53.9148 13.8298 55.1183 16.0177ZM32.9016 11.4174C39.0467 9.12585 43.7497 9.71675 47.1269 11.2936C50.5482 12.891 52.6889 15.5376 53.5985 17.4327L53.8708 18H54.5C57.1461 18 58.7196 19.1498 59.6712 20.5594C60.4092 21.6528 60.7862 22.9296 60.9297 24H16.0369C16.3103 20.387 18.0705 18.274 20.1908 17.0391C22.5704 15.6532 25.4764 15.3413 27.4203 15.4968L27.9493 15.5391L28.2809 15.1247C29.7353 13.3067 31.9499 11.9025 32.9016 11.4174ZM48.8616 30H68.0459L57.6459 56H39.3984L48.8616 30ZM47.5009 28L47.4659 27.9872L47.4612 28H39.5009L39.4659 27.9872L39.4612 28H31.5009L31.4659 27.9872L31.4612 28H11.9541C10.5391 28 9.57162 29.429 10.0971 30.7428L20.4971 56.7428C20.8008 57.5021 21.5363 58 22.3541 58H25.3924C23.3596 59.2249 22 61.4537 22 64C22 67.866 25.134 71 29 71H7C6.44772 71 6 71.4477 6 72C6 72.5523 6.44772 73 7 73H72.5C73.0523 73 73.5 72.5523 73.5 72C73.5 71.4477 73.0523 71 72.5 71H51C54.866 71 58 67.866 58 64C58 61.4537 56.6404 59.2249 54.6076 58H57.6459C58.4637 58 59.1992 57.5021 59.5029 56.7428L69.9029 30.7428C70.4284 29.429 69.4609 28 68.0459 28H47.5009ZM51 71C47.134 71 44 67.866 44 64C44 61.4537 45.3596 59.2249 47.3924 58H32.6076C34.6404 59.2249 36 61.4537 36 64C36 67.866 32.866 71 29 71H51ZM30.7333 30H11.9541L21.7865 54.5811L30.7333 30ZM23.3984 56H29.2701L38.7333 30H32.8616L23.3984 56ZM40.8616 30L31.3984 56H37.2701L46.7333 30H40.8616ZM34 64C34 65.0191 33.6951 65.9669 33.1716 66.7574L30.4142 64L33.1716 61.2426C33.6951 62.033 34 62.9809 34 64ZM29 69C30.0191 69 30.967 68.6951 31.7574 68.1716L29 65.4142L26.2426 68.1716C27.033 68.6951 27.9809 69 29 69ZM24.8284 66.7574L27.5858 64L24.8284 61.2426C24.3049 62.033 24 62.9809 24 64C24 65.0191 24.3049 65.9669 24.8284 66.7574ZM31.7574 59.8284L29 62.5858L26.2426 59.8284C27.033 59.3049 27.9809 59 29 59C30.0191 59 30.967 59.3049 31.7574 59.8284ZM53.4471 68.3613C52.7237 68.768 51.889 69 51 69C49.8523 69 48.795 68.6133 47.9511 67.9631L50.5 65.4142L53.4471 68.3613ZM54.9631 67.0489L51.9142 64L54.9631 60.951C55.6133 61.7949 56 62.8523 56 64C56 65.1477 55.6133 66.205 54.9631 67.0489ZM50.5 62.5858L53.4471 59.6387C52.7237 59.232 51.889 59 51 59C49.8523 59 48.795 59.3867 47.9511 60.0368L50.5 62.5858ZM49.0858 64L46.6387 61.5529C46.232 62.2763 46 63.111 46 64C46 64.8889 46.232 65.7237 46.6387 66.447L49.0858 64Z" fill="url(#paint1_linear)"/>
<defs>
<linearGradient id="paint0_linear" x1="46" y1="24" x2="46" y2="54" gradientUnits="userSpaceOnUse">
<stop stop-color="#FCDAA0"/>
<stop offset="1" stop-color="#B5A78F"/>
</linearGradient>
<linearGradient id="paint1_linear" x1="39.75" y1="7.89966" x2="39.75" y2="72.9999" gradientUnits="userSpaceOnUse">
<stop stop-color="#D3AE7B"/>
<stop offset="1" stop-color="#493304"/>
</linearGradient>
</defs>
</svg>
