<svg width="80" height="80" viewBox="0 0 80 80" fill="none" xmlns="http://www.w3.org/2000/svg">
<rect opacity="0.3" x="19.3359" y="16.1328" width="43.36" height="60.704" rx="2" fill="url(#paint0_linear)"/>
<path fill-rule="evenodd" clip-rule="evenodd" d="M10 11C9.44772 11 9 11.4477 9 12C9 12.5523 9.44772 13 10 13H14.3403C14.3375 13.0439 14.336 13.0882 14.336 13.1328V32.68H12.6016C12.0493 32.68 11.6016 33.1277 11.6016 33.68C11.6016 34.2323 12.0493 34.68 12.6016 34.68H14.336V50.024H12.6016C12.0493 50.024 11.6016 50.4717 11.6016 51.024C11.6016 51.5763 12.0493 52.024 12.6016 52.024H14.336V69.8368C14.336 69.8918 14.3382 69.9462 14.3426 70H10C9.44772 70 9 70.4477 9 71C9 71.5523 9.44772 72 10 72H62C62.5523 72 63 71.5523 63 71C63 70.4477 62.5523 70 62 70H57.6894C57.6938 69.9462 57.696 69.8918 57.696 69.8368V52.024H59.4304C59.9827 52.024 60.4304 51.5763 60.4304 51.024C60.4304 50.4717 59.9827 50.024 59.4304 50.024H57.696V34.68H59.4304C59.9827 34.68 60.4304 34.2323 60.4304 33.68C60.4304 33.1277 59.9827 32.68 59.4304 32.68H57.696V13.1328C57.696 13.0882 57.6945 13.0439 57.6917 13H62C62.5523 13 63 12.5523 63 12C63 11.4477 62.5523 11 62 11H10ZM16.336 50.024V34.68H27.7555C25.8858 36.6922 24.7424 39.3886 24.7424 42.352C24.7424 45.3154 25.8858 48.0118 27.7555 50.024H16.336ZM36.016 31.0784C33.8968 31.0784 31.9142 31.6631 30.2207 32.68H16.336V13.1328H55.696V32.68H41.8112C40.1177 31.6631 38.1351 31.0784 36.016 31.0784ZM47.2896 42.352C47.2896 39.3886 46.1462 36.6922 44.2765 34.68H55.696V50.024H44.2765C46.1462 48.0118 47.2896 45.3154 47.2896 42.352ZM36.016 53.6256C38.1351 53.6256 40.1177 53.0409 41.8112 52.024H55.696V69.8368H16.336V52.024H30.2207C31.9142 53.0409 33.8968 53.6256 36.016 53.6256ZM36.016 51.6256C41.1376 51.6256 45.2896 47.4737 45.2896 42.352C45.2896 37.2303 41.1376 33.0784 36.016 33.0784C30.8943 33.0784 26.7424 37.2303 26.7424 42.352C26.7424 47.4737 30.8943 51.6256 36.016 51.6256ZM36.9644 34.8332L36.1506 33.6939L35.3369 34.8332L31.7054 39.9173C29.1228 43.5329 31.7074 48.5552 36.1506 48.5552C40.5939 48.5552 43.1785 43.5329 40.5959 39.9173L36.9644 34.8332ZM33.3329 41.0798L36.1506 37.1349L38.9684 41.0798C40.6055 43.3717 38.9672 46.5552 36.1506 46.5552C33.3341 46.5552 31.6958 43.3717 33.3329 41.0798Z" fill="url(#paint1_linear)"/>
<defs>
<linearGradient id="paint0_linear" x1="41.0159" y1="16.1328" x2="41.0159" y2="76.8368" gradientUnits="userSpaceOnUse">
<stop stop-color="#FCDAA0"/>
<stop offset="1" stop-color="#B5A78F"/>
</linearGradient>
<linearGradient id="paint1_linear" x1="36" y1="11" x2="36" y2="72" gradientUnits="userSpaceOnUse">
<stop stop-color="#D3AE7B"/>
<stop offset="1" stop-color="#493304"/>
</linearGradient>
</defs>
</svg>
