<svg width="34" height="40" viewBox="0 0 34 40" fill="none" xmlns="http://www.w3.org/2000/svg">
<path d="M29.0833 0H4.91659C2.38825 0 0.333252 2.055 0.333252 4.58333V35.4167C0.333252 37.945 2.38825 40 4.91659 40H29.0833C31.6116 40 33.6666 37.945 33.6666 35.4167V4.58333C33.6666 2.055 31.6116 0 29.0833 0ZM13.2999 31.2C13.7883 31.6883 13.7883 32.48 13.2999 32.9683C13.0566 33.2117 12.7366 33.3333 12.4166 33.3333C12.0966 33.3333 11.7766 33.2117 11.5333 32.9667L10.3333 31.7683L9.13325 32.9683C8.88992 33.2117 8.56992 33.3333 8.24992 33.3333C7.92992 33.3333 7.60992 33.2117 7.36659 32.9667C6.87825 32.4783 6.87825 31.6867 7.36659 31.1983L8.56492 30L7.36492 28.8C6.87659 28.3117 6.87659 27.52 7.36492 27.0317C7.85325 26.5433 8.64492 26.5433 9.13325 27.0317L10.3333 28.2317L11.5333 27.0317C12.0216 26.5433 12.8133 26.5433 13.3016 27.0317C13.7899 27.52 13.7899 28.3117 13.3016 28.8L12.1016 30L13.2999 31.2ZM12.4166 21.25H11.5833V22.0833C11.5833 22.7733 11.0233 23.3333 10.3333 23.3333C9.64325 23.3333 9.08325 22.7733 9.08325 22.0833V21.25H8.24992C7.55992 21.25 6.99992 20.69 6.99992 20C6.99992 19.31 7.55992 18.75 8.24992 18.75H9.08325V17.9167C9.08325 17.2267 9.64325 16.6667 10.3333 16.6667C11.0233 16.6667 11.5833 17.2267 11.5833 17.9167V18.75H12.4166C13.1066 18.75 13.6666 19.31 13.6666 20C13.6666 20.69 13.1066 21.25 12.4166 21.25ZM25.7499 33.3333H21.5833C20.8933 33.3333 20.3333 32.7733 20.3333 32.0833C20.3333 31.3933 20.8933 30.8333 21.5833 30.8333H25.7499C26.4399 30.8333 26.9999 31.3933 26.9999 32.0833C26.9999 32.7733 26.4399 33.3333 25.7499 33.3333ZM25.7499 29.1667H21.5833C20.8933 29.1667 20.3333 28.6067 20.3333 27.9167C20.3333 27.2267 20.8933 26.6667 21.5833 26.6667H25.7499C26.4399 26.6667 26.9999 27.2267 26.9999 27.9167C26.9999 28.6067 26.4399 29.1667 25.7499 29.1667ZM25.7499 21.6667H21.5833C20.8933 21.6667 20.3333 21.1067 20.3333 20.4167C20.3333 19.7267 20.8933 19.1667 21.5833 19.1667H25.7499C26.4399 19.1667 26.9999 19.7267 26.9999 20.4167C26.9999 21.1067 26.4399 21.6667 25.7499 21.6667ZM28.6666 10.4167C28.6666 12.025 27.3583 13.3333 25.7499 13.3333H8.24992C6.64159 13.3333 5.33325 12.025 5.33325 10.4167V7.91667C5.33325 6.30833 6.64159 5 8.24992 5H25.7499C27.3583 5 28.6666 6.30833 28.6666 7.91667V10.4167Z" fill="#949300"/>
</svg>
