<svg width="40" height="40" viewBox="0 0 40 40" fill="none" xmlns="http://www.w3.org/2000/svg">
<path d="M5.68421 3H16.3158C16.7229 3 17.0526 3.33286 17.0526 3.74375V31.2625C17.0526 31.6734 16.7229 32.0063 16.3158 32.0063H5.68421C5.27714 32.0063 4.94737 31.6734 4.94737 31.2625V3.74375C4.94737 3.33286 5.27714 3 5.68421 3Z" fill="#949300"/>
<path d="M23.6842 13.7313H33.3684C33.7755 13.7313 34.1053 14.0641 34.1053 14.475V31.3688C34.1053 31.7796 33.7755 32.1125 33.3684 32.1125H23.6842C23.2771 32.1125 22.9474 31.7796 22.9474 31.3688V14.475C22.9474 14.0641 23.2771 13.7313 23.6842 13.7313Z" fill="#949300"/>
<path d="M0 35.5125H40V37H0V35.5125Z" fill="#949300"/>
</svg>
