<svg width="80" height="80" viewBox="0 0 80 80" fill="none" xmlns="http://www.w3.org/2000/svg">
<rect opacity="0.3" x="19" y="14" width="59" height="43" rx="2" fill="url(#paint0_linear)"/>
<path fill-rule="evenodd" clip-rule="evenodd" d="M7.28976 13C7.28976 11.3431 8.6329 10 10.2898 10H69.563C71.2198 10 72.563 11.3431 72.563 13V51.8247H73.1716C75.2046 51.8247 76.8526 53.4728 76.8526 55.5058C76.8526 57.5388 75.2046 59.1869 73.1716 59.1869H71.0769C71.7653 60.2446 72.1653 61.5074 72.1653 62.8635C72.1653 66.5909 69.1436 69.6126 65.4161 69.6126C61.6887 69.6126 58.667 66.5909 58.667 62.8635C58.667 61.5074 59.067 60.2446 59.7554 59.1869H53.8296C54.518 60.2446 54.9179 61.5074 54.9179 62.8635C54.9179 66.5909 51.8963 69.6126 48.1688 69.6126C44.4414 69.6126 41.4197 66.5909 41.4197 62.8635C41.4197 61.5074 41.8197 60.2446 42.5081 59.1869H36.5822C37.2706 60.2446 37.6706 61.5074 37.6706 62.8635C37.6706 66.5909 34.6489 69.6126 30.9214 69.6126C27.194 69.6126 24.1723 66.5909 24.1723 62.8635C24.1723 61.5074 24.5723 60.2446 25.2607 59.1869H20.772C21.4604 60.2446 21.8604 61.5074 21.8604 62.8635C21.8604 66.5909 18.8387 69.6126 15.1112 69.6126C11.3838 69.6126 8.3621 66.5909 8.3621 62.8635C8.3621 61.5074 8.76208 60.2446 9.45049 59.1869H6.68107C4.64807 59.1869 3 57.5388 3 55.5058C3 53.4728 4.64807 51.8247 6.68107 51.8247H7.28976V13ZM7.28976 53.8247V53.8971H9.28976V53.8247H70.563V53.8971H72.563V53.8247H73.1716C74.1 53.8247 74.8526 54.5774 74.8526 55.5058C74.8526 56.4342 74.1 57.1869 73.1716 57.1869H6.68107C5.75264 57.1869 5 56.4342 5 55.5058C5 54.5774 5.75264 53.8247 6.68107 53.8247H7.28976ZM70.563 51.8247H9.28976V13C9.28976 12.4477 9.73747 12 10.2898 12H69.563C70.1152 12 70.563 12.4477 70.563 13V51.8247ZM12.1049 59.1869C11.041 60.0578 10.3621 61.3814 10.3621 62.8635C10.3621 65.4864 12.4884 67.6126 15.1112 67.6126C17.7341 67.6126 19.8604 65.4864 19.8604 62.8635C19.8604 61.3814 19.1814 60.0578 18.1176 59.1869H12.1049ZM27.9151 59.1869C26.8512 60.0578 26.1723 61.3814 26.1723 62.8635C26.1723 65.4864 28.2986 67.6126 30.9214 67.6126C33.5443 67.6126 35.6706 65.4864 35.6706 62.8635C35.6706 61.3814 34.9916 60.0578 33.9278 59.1869H27.9151ZM45.1625 59.1869C44.0986 60.0578 43.4197 61.3814 43.4197 62.8635C43.4197 65.4864 45.5459 67.6126 48.1688 67.6126C50.7917 67.6126 52.9179 65.4864 52.9179 62.8635C52.9179 61.3814 52.239 60.0578 51.1752 59.1869H45.1625ZM62.4098 59.1869C61.346 60.0578 60.667 61.3814 60.667 62.8635C60.667 65.4864 62.7933 67.6126 65.4161 67.6126C68.039 67.6126 70.1653 65.4864 70.1653 62.8635C70.1653 61.3814 69.4863 60.0578 68.4225 59.1869H62.4098ZM19.751 19.713C19.751 19.1607 19.3033 18.713 18.751 18.713C18.1987 18.713 17.751 19.1607 17.751 19.713V44.8654C17.751 45.4177 18.1987 45.8654 18.751 45.8654C19.3033 45.8654 19.751 45.4177 19.751 44.8654V19.713ZM28.3745 19.713C28.3745 19.1607 27.9268 18.713 27.3745 18.713C26.8222 18.713 26.3745 19.1607 26.3745 19.713V44.8654C26.3745 45.4177 26.8222 45.8654 27.3745 45.8654C27.9268 45.8654 28.3745 45.4177 28.3745 44.8654V19.713ZM35.9983 18.713C36.5506 18.713 36.9983 19.1607 36.9983 19.713V44.8654C36.9983 45.4177 36.5506 45.8654 35.9983 45.8654C35.446 45.8654 34.9983 45.4177 34.9983 44.8654V19.713C34.9983 19.1607 35.446 18.713 35.9983 18.713ZM45.622 19.713C45.622 19.1607 45.1743 18.713 44.622 18.713C44.0697 18.713 43.622 19.1607 43.622 19.713V44.8654C43.622 45.4177 44.0697 45.8654 44.622 45.8654C45.1743 45.8654 45.622 45.4177 45.622 44.8654V19.713ZM53.2456 18.713C53.7979 18.713 54.2456 19.1607 54.2456 19.713V44.8654C54.2456 45.4177 53.7979 45.8654 53.2456 45.8654C52.6933 45.8654 52.2456 45.4177 52.2456 44.8654V19.713C52.2456 19.1607 52.6933 18.713 53.2456 18.713ZM62.8694 19.713C62.8694 19.1607 62.4216 18.713 61.8694 18.713C61.3171 18.713 60.8694 19.1607 60.8694 19.713V44.8654C60.8694 45.4177 61.3171 45.8654 61.8694 45.8654C62.4216 45.8654 62.8694 45.4177 62.8694 44.8654V19.713Z" fill="url(#paint1_linear)"/>
<defs>
<linearGradient id="paint0_linear" x1="48.5" y1="14" x2="48.5" y2="57" gradientUnits="userSpaceOnUse">
<stop stop-color="#FCDAA0"/>
<stop offset="1" stop-color="#B5A78F"/>
</linearGradient>
<linearGradient id="paint1_linear" x1="39.9263" y1="10" x2="39.9263" y2="69.6126" gradientUnits="userSpaceOnUse">
<stop stop-color="#D3AE7B"/>
<stop offset="1" stop-color="#493304"/>
</linearGradient>
</defs>
</svg>
