<svg width="80" height="80" viewBox="0 0 80 80" fill="none" xmlns="http://www.w3.org/2000/svg">
<rect opacity="0.3" x="10" width="55" height="32" fill="url(#paint0_linear)"/>
<path fill-rule="evenodd" clip-rule="evenodd" d="M18.5 7C18.5 6.44772 18.9477 6 19.5 6H24H71H75C75.5523 6 76 6.44772 76 7C76 7.55228 75.5523 8 75 8H73.8293C73.9398 8.31278 74 8.64936 74 9V39C74 39.3506 73.9398 39.6872 73.8293 40H75C75.5523 40 76 40.4477 76 41C76 41.5523 75.5523 42 75 42H71H57.476C57.6261 41.3436 57.6646 40.6669 57.5916 40H71C71.5523 40 72 39.5523 72 39V9C72 8.44772 71.5523 8 71 8H24C23.4477 8 23 8.44772 23 9V27.188C22.3069 27.3202 21.6383 27.5198 21 27.7799V9C21 8.64936 21.0602 8.31278 21.1707 8H19.5C18.9477 8 18.5 7.55228 18.5 7ZM43.799 40L41.799 42H35.4809C35.6777 41.3554 35.8214 40.6868 35.9071 40H43.799ZM33.4015 14.4992L36.866 20.5L40.3306 26.5008C43.0258 24.3844 43.8254 20.554 42.0622 17.5C40.2989 14.446 36.5819 13.2233 33.4015 14.4992ZM38.5985 27.5008L35.634 22.366L30.4992 25.3306C32.4118 27.7663 35.7243 28.6539 38.5985 27.5008ZM29.4992 23.5985L34.634 20.634L31.6694 15.4992C29.2337 17.4118 28.3461 20.7243 29.4992 23.5985ZM31.5 13.2058C35.8046 10.7205 41.3089 12.1954 43.7942 16.5C46.2795 20.8046 44.8046 26.3089 40.5 28.7942C36.1954 31.2795 30.691 29.8046 28.2058 25.5C25.7205 21.1954 27.1954 15.691 31.5 13.2058ZM52 15C52 14.4477 51.5523 14 51 14C50.4477 14 50 14.4477 50 15V26H49C48.4477 26 48 26.4477 48 27C48 27.5523 48.4477 28 49 28H51H56H61H66H68C68.5523 28 69 27.5523 69 27C69 26.4477 68.5523 26 68 26H67V20C67 19.4477 66.5523 19 66 19C65.4477 19 65 19.4477 65 20V26H62V19C62 18.4477 61.5523 18 61 18C60.4477 18 60 18.4477 60 19V26H57V17C57 16.4477 56.5523 16 56 16C55.4477 16 55 16.4477 55 17V26H52V15ZM17 38.5C17 33.7539 20.632 30 25 30C29.368 30 33 33.7539 33 38.5C33 43.2461 29.368 47 25 47C20.632 47 17 43.2461 17 38.5ZM25 28C19.4269 28 15 32.7526 15 38.5C15 44.2474 19.4269 49 25 49C30.5731 49 35 44.2474 35 38.5C35 32.7526 30.5731 28 25 28ZM34 48H32.8026C33.4597 47.4122 34.0541 46.7521 34.5752 46.0327C35.7787 46.1706 36.8523 46.7357 37.6406 47.5727L48.0919 37.1213C50.0446 35.1687 53.2104 35.1687 55.163 37.1213C57.1156 39.0739 57.1156 42.2398 55.163 44.1924L39 60.3554V69C39 71.7614 36.7614 74 34 74H16H10C7.23858 74 5 71.7614 5 69V61C5 54.1567 9.58268 48.3837 15.8466 46.5825C16.3384 47.188 16.885 47.7448 17.4791 48.2443C11.5059 49.418 7 54.6828 7 61V69C7 70.6569 8.34315 72 10 72H15V58.5C15 57.9477 15.4477 57.5 16 57.5C16.5523 57.5 17 57.9477 17 58.5V72H34C35.6569 72 37 70.6569 37 69V51C37 49.3431 35.6569 48 34 48ZM39 51C39 50.4136 38.8991 49.8509 38.7136 49.3281L49.5062 38.5355C50.6777 37.364 52.5772 37.364 53.7488 38.5355C54.9204 39.7071 54.9204 41.6066 53.7488 42.7782L39 57.527V51Z" fill="url(#paint1_linear)"/>
<defs>
<linearGradient id="paint0_linear" x1="37.5" y1="0" x2="37.5" y2="32" gradientUnits="userSpaceOnUse">
<stop stop-color="#FCDAA0"/>
<stop offset="1" stop-color="#B5A78F"/>
</linearGradient>
<linearGradient id="paint1_linear" x1="40.5" y1="6" x2="40.5" y2="74" gradientUnits="userSpaceOnUse">
<stop stop-color="#D3AE7B"/>
<stop offset="1" stop-color="#493304"/>
</linearGradient>
</defs>
</svg>
