<svg width="25" height="24" viewBox="0 0 25 24" fill="none" xmlns="http://www.w3.org/2000/svg">
<g clip-path="url(#clip0)">
<path d="M20.1063 19.0767C19.2582 19.0767 18.5681 19.7668 18.5681 20.6149V23.9995L23.4909 19.0767H20.1063Z" fill="white"/>
<path d="M5.95288 3.07703V20.9229C5.95288 22.6154 7.33743 24 9.02993 24H17.0298V20.6155C17.0298 18.923 18.4143 17.5384 20.1068 17.5384H23.4913L23.4918 3.07703H5.95288ZM15.1831 15.538H9.64486V13.9997H15.1831V15.538ZM19.7989 11.846H9.64486V10.3077H19.7984V11.846H19.7989ZM19.7989 8.15356H9.64486V6.61527H19.7984V8.15356H19.7989Z" fill="white"/>
<path d="M1.64551 0V17.8459C1.64551 19.4342 2.86538 20.7516 4.41461 20.9072V1.53828H19.1844V0H1.64551Z" fill="white"/>
</g>
<defs>
<clipPath id="clip0">
<rect width="24" height="24" fill="white" transform="translate(0.56842)"/>
</clipPath>
</defs>
</svg>
