<svg width="80" height="80" viewBox="0 0 80 80" fill="none" xmlns="http://www.w3.org/2000/svg">
<rect opacity="0.3" x="73" y="26" width="24" height="62" transform="rotate(90 73 26)" fill="url(#paint0_linear)"/>
<path fill-rule="evenodd" clip-rule="evenodd" d="M13 3C11.3431 3 10 4.34315 10 6V11C8.34315 11 7 12.3431 7 14V15H3C1.34315 15 0 16.3431 0 18V30C0 31.6569 1.34315 33 3 33H7V34C7 35.6569 8.34315 37 10 37V63C6.13401 63 3 66.134 3 70V71C3 72.6569 4.34315 74 6 74H34C35.6569 74 37 72.6569 37 71V70C37 66.134 33.866 63 30 63V37C31.6569 37 33 35.6569 33 34V33H61V43.0839C60.0397 43.2462 59.1281 43.6409 58.3474 44.2399C57.2996 45.0439 56.5463 46.1713 56.2044 47.4471C55.8626 48.7229 55.9513 50.0758 56.4567 51.2961C56.9622 52.5164 57.8562 53.5358 59 54.1962C60.1439 54.8566 61.4737 55.1211 62.7832 54.9487C64.0927 54.7763 65.3087 54.1766 66.2426 53.2426C67.1766 52.3087 67.7763 51.0927 67.9487 49.7832C68.1211 48.4737 67.8566 47.1439 67.1962 46C66.92 45.5217 66.3084 45.3578 65.8301 45.634C65.3518 45.9101 65.188 46.5217 65.4641 47C65.9044 47.7626 66.0807 48.6491 65.9658 49.5221C65.8508 50.3951 65.4511 51.2058 64.8284 51.8284C64.2058 52.4511 63.3951 52.8508 62.5221 52.9658C61.6491 53.0807 60.7626 52.9044 60 52.4641C59.2374 52.0238 58.6415 51.3442 58.3045 50.5307C57.9675 49.7172 57.9084 48.8153 58.1363 47.9647C58.3642 47.1142 58.8664 46.3626 59.565 45.8266C60.2635 45.2906 61.1195 45 62 45C62.5523 45 63 44.5523 63 44V33H67C68.6569 33 70 31.6569 70 30V24.9613C70 24.0499 69.5857 23.188 68.8741 22.6186L60.1725 15.6574C59.6406 15.2318 58.9797 15 58.2984 15H33V14C33 12.3431 31.6569 11 30 11V6C30 4.34315 28.6569 3 27 3H13ZM28 63H26.8671L20.5272 59.0669L12.8969 54.3333L28 44.9638V63ZM23.0732 63H12V56.1305L19.4728 60.7664L23.0732 63ZM28 11H12V6C12 5.44772 12.4477 5 13 5H27C27.5523 5 28 5.44772 28 6V11ZM3 17H7V31H3C2.44772 31 2 30.5523 2 30V18C2 17.4477 2.44772 17 3 17ZM12 52.5362V37H17.1628L27.1031 43.1667L12 52.5362ZM28 41.3695L20.9566 37H28V41.3695ZM47.099 31H33V25.0379L38 17.7651L47.099 31ZM36.099 17L33 21.5076V17H36.099ZM67 31H50.901L55.324 24.5665L59.8601 17.9687L67.6247 24.1804C67.8619 24.3702 68 24.6575 68 24.9613V30C68 30.5523 67.5523 31 67 31ZM49 30.2349L39.901 17H58.099L53.676 23.4335L49 30.2349ZM10 13C9.44771 13 9 13.4477 9 14V34C9 34.5523 9.44771 35 10 35H30C30.5523 35 31 34.5523 31 34V14C31 13.4477 30.5523 13 30 13H10ZM5 70C5 67.2386 7.23858 65 10 65H30C32.7614 65 35 67.2386 35 70V71C35 71.5523 34.5523 72 34 72H6C5.44772 72 5 71.5523 5 71V70Z" fill="url(#paint1_linear)"/>
<defs>
<linearGradient id="paint0_linear" x1="85" y1="26" x2="85" y2="88" gradientUnits="userSpaceOnUse">
<stop stop-color="#FCDAA0"/>
<stop offset="1" stop-color="#B5A78F"/>
</linearGradient>
<linearGradient id="paint1_linear" x1="35" y1="3" x2="35" y2="74" gradientUnits="userSpaceOnUse">
<stop stop-color="#D3AE7B"/>
<stop offset="1" stop-color="#493304"/>
</linearGradient>
</defs>
</svg>
