<svg width="40" height="18" viewBox="0 0 40 18" fill="none" xmlns="http://www.w3.org/2000/svg">
<path d="M31 0.041626C28.6 0.041626 26.3334 0.974987 24.7084 2.59999L20 6.76663L19.9916 6.75827L17.4666 8.98327L17.4833 8.99991L12.9916 12.9833C11.925 14.0416 10.5084 14.625 9 14.625C5.88336 14.625 3.35 12.1 3.35 8.99999C3.35 5.89999 5.88336 3.37499 9 3.37499C10.5084 3.37499 11.925 3.95835 13.0666 5.09163L14.9583 6.76663L17.4749 4.54163L15.3666 2.67499C13.6666 0.983346 11.4082 0.0499861 8.99992 0.0499861C4.03336 0.0416267 0 4.05835 0 8.99999C0 13.9416 4.03336 17.9584 9 17.9584C11.4 17.9584 13.6584 17.025 15.2916 15.4084L20 11.2334L20.0084 11.2417L22.525 9.00835L22.5166 8.99999L27.0083 5.02499C28.075 3.95835 29.4916 3.37499 31 3.37499C34.1166 3.37499 36.65 5.89999 36.65 8.99999C36.65 12.1 34.1166 14.625 31 14.625C29.4916 14.625 28.075 14.0416 26.9334 12.9166L25.0417 11.2416L22.525 13.475L24.6334 15.3416C26.3334 17.0333 28.5917 17.9583 30.9917 17.9583C35.9666 17.9584 40 13.9416 40 8.99999C40 4.05835 35.9666 0.041626 31 0.041626Z" fill="white"/>
</svg>
