<svg width="80" height="80" viewBox="0 0 80 80" fill="none" xmlns="http://www.w3.org/2000/svg">
<rect opacity="0.3" x="20" y="4" width="50" height="50" rx="4" fill="url(#paint0_linear)"/>
<path fill-rule="evenodd" clip-rule="evenodd" d="M19 10C16.2386 10 14 12.2386 14 15V57C14 59.7614 16.2386 62 19 62H25.9744L21.8341 77.4515C21.6912 77.985 22.0078 78.5333 22.5412 78.6763C23.0747 78.8192 23.623 78.5026 23.766 77.9692L25.4994 71.5H54.5002L56.2336 77.9692C56.3765 78.5026 56.9249 78.8192 57.4583 78.6763C57.9918 78.5333 58.3084 77.985 58.1654 77.4515L54.0252 62H61C63.7614 62 66 59.7614 66 57V15C66 12.2386 63.7614 10 61 10H19ZM51.9547 62H28.0449L26.0353 69.5H53.9643L51.9547 62ZM16 15C16 13.3431 17.3431 12 19 12H61C62.6569 12 64 13.3431 64 15V57C64 58.6569 62.6569 60 61 60H19C17.3431 60 16 58.6569 16 57V15ZM19 25C19 22.2386 21.2386 20 24 20H56C58.7614 20 61 22.2386 61 25V37C61 39.7614 58.7614 42 56 42H24C21.2386 42 19 39.7614 19 37V25ZM24 22C22.3431 22 21 23.3431 21 25V37C21 38.6569 22.3431 40 24 40H56C57.6569 40 59 38.6569 59 37V25C59 23.3431 57.6569 22 56 22H24ZM30 15.5C29.4477 15.5 29 15.9477 29 16.5C29 17.0523 29.4477 17.5 30 17.5H50C50.5523 17.5 51 17.0523 51 16.5C51 15.9477 50.5523 15.5 50 15.5H30ZM23 51C21.8954 51 21 51.8954 21 53C21 54.1046 21.8954 55 23 55C24.1046 55 25 54.1046 25 53C25 51.8954 24.1046 51 23 51ZM19 53C19 50.7909 20.7909 49 23 49C25.2091 49 27 50.7909 27 53C27 55.2091 25.2091 57 23 57C20.7909 57 19 55.2091 19 53ZM55 53C55 51.8954 55.8954 51 57 51C58.1046 51 59 51.8954 59 53C59 54.1046 58.1046 55 57 55C55.8954 55 55 54.1046 55 53ZM57 49C54.7909 49 53 50.7909 53 53C53 55.2091 54.7909 57 57 57C59.2091 57 61 55.2091 61 53C61 50.7909 59.2091 49 57 49Z" fill="url(#paint1_linear)"/>
<defs>
<linearGradient id="paint0_linear" x1="45" y1="4" x2="45" y2="54" gradientUnits="userSpaceOnUse">
<stop stop-color="#FCDAA0"/>
<stop offset="1" stop-color="#B5A78F"/>
</linearGradient>
<linearGradient id="paint1_linear" x1="40" y1="10" x2="40" y2="78.7106" gradientUnits="userSpaceOnUse">
<stop stop-color="#D3AE7B"/>
<stop offset="1" stop-color="#493304"/>
</linearGradient>
</defs>
</svg>
