<svg width="80" height="80" viewBox="0 0 80 80" fill="none" xmlns="http://www.w3.org/2000/svg">
<rect opacity="0.3" x="76" y="62" width="73" height="40" rx="20" transform="rotate(180 76 62)" fill="url(#paint0_linear)"/>
<path fill-rule="evenodd" clip-rule="evenodd" d="M10.4841 14.7809C10.9153 14.4359 10.9853 13.8066 10.6402 13.3753C10.2952 12.9441 9.66594 12.8742 9.23468 13.2192L3.3753 17.9067C3.13809 18.0964 3 18.3838 3 18.6875C3 18.9913 3.13809 19.2786 3.3753 19.4684L9.23468 24.1559C9.66594 24.5009 10.2952 24.431 10.6402 23.9997C10.9853 23.5685 10.9153 22.9392 10.4841 22.5942L6.85078 19.6875H25.4548C31.6982 19.6875 36.7595 24.7488 36.7595 30.9922C36.7595 34.361 38.0115 37.4373 40.0756 39.7813C38.0115 42.1253 36.7595 45.2016 36.7595 48.5704C36.7595 54.8138 31.6982 59.875 25.4548 59.875H6.85078L10.4841 56.9684C10.9153 56.6234 10.9853 55.9941 10.6402 55.5628C10.2952 55.1316 9.66594 55.0617 9.23468 55.4067L3.3753 60.0942C3.13809 60.2839 3 60.5713 3 60.875C3 61.1788 3.13809 61.4661 3.3753 61.6559L9.23468 66.3434C9.66594 66.6884 10.2952 66.6185 10.6402 66.1872C10.9853 65.756 10.9153 65.1267 10.4841 64.7817L6.85078 61.875H25.4548C32.8028 61.875 38.7595 55.9183 38.7595 48.5704C38.7595 45.7456 39.7955 43.1629 41.5083 41.1814C43.8213 43.1257 46.806 44.2969 50.0642 44.2969H73.1406C75.6345 44.2969 77.6562 42.2752 77.6562 39.7813C77.6562 37.2874 75.6345 35.2657 73.1406 35.2657H50.0642C46.806 35.2657 43.8213 36.4368 41.5083 38.3812C39.7955 36.3997 38.7595 33.8169 38.7595 30.9922C38.7595 23.6442 32.8028 17.6875 25.4548 17.6875H6.85078L10.4841 14.7809ZM42.9538 39.7813C44.896 41.3545 47.37 42.2969 50.0642 42.2969H73.1406C74.53 42.2969 75.6562 41.1706 75.6562 39.7813C75.6562 38.3919 74.53 37.2657 73.1406 37.2657H50.0642C47.37 37.2657 44.896 38.2081 42.9538 39.7813Z" fill="url(#paint1_linear)"/>
<defs>
<linearGradient id="paint0_linear" x1="112.5" y1="62" x2="112.5" y2="102" gradientUnits="userSpaceOnUse">
<stop stop-color="#FCDAA0"/>
<stop offset="1" stop-color="#B5A78F"/>
</linearGradient>
<linearGradient id="paint1_linear" x1="40.3281" y1="13" x2="40.3281" y2="66.5626" gradientUnits="userSpaceOnUse">
<stop stop-color="#D3AE7B"/>
<stop offset="1" stop-color="#493304"/>
</linearGradient>
</defs>
</svg>
