<svg width="80" height="80" viewBox="0 0 80 80" fill="none" xmlns="http://www.w3.org/2000/svg">
<path opacity="0.3" d="M24 40H14C12.3431 40 11 41.3431 11 43V77H27V43C27 41.3431 25.6569 40 24 40Z" fill="url(#paint0_linear)"/>
<path opacity="0.3" d="M49 23H39C37.3431 23 36 24.3431 36 26V77H52V26C52 24.3431 50.6569 23 49 23Z" fill="url(#paint1_linear)"/>
<path opacity="0.3" d="M74 11H64C62.3431 11 61 12.3431 61 14V77H77V14C77 12.3431 75.6569 11 74 11Z" fill="url(#paint2_linear)"/>
<path fill-rule="evenodd" clip-rule="evenodd" d="M60 6C57.7909 6 56 7.79086 56 10V73C56 73.5523 56.4477 74 57 74C57.5523 74 58 73.5523 58 73V10C58 8.89543 58.8954 8 60 8H70C71.1046 8 72 8.89543 72 10V73C72 73.5523 72.4477 74 73 74C73.5523 74 74 73.5523 74 73V10C74 7.79086 72.2091 6 70 6H60ZM31 22C31 19.7909 32.7909 18 35 18H45C47.2091 18 49 19.7909 49 22V73C49 73.5523 48.5523 74 48 74C47.4477 74 47 73.5523 47 73V22C47 20.8954 46.1046 20 45 20H35C33.8954 20 33 20.8954 33 22V73C33 73.5523 32.5523 74 32 74C31.4477 74 31 73.5523 31 73V22ZM6 39C6 36.7909 7.79086 35 10 35H20C22.2091 35 24 36.7909 24 39V73C24 73.5523 23.5523 74 23 74C22.4477 74 22 73.5523 22 73V39C22 37.8954 21.1046 37 20 37H10C8.89543 37 8 37.8954 8 39V73C8 73.5523 7.55228 74 7 74C6.44772 74 6 73.5523 6 73V39Z" fill="url(#paint3_linear)"/>
<defs>
<linearGradient id="paint0_linear" x1="19" y1="40" x2="19" y2="77" gradientUnits="userSpaceOnUse">
<stop stop-color="#FCDAA0"/>
<stop offset="1" stop-color="#B5A78F"/>
</linearGradient>
<linearGradient id="paint1_linear" x1="44" y1="23" x2="44" y2="77" gradientUnits="userSpaceOnUse">
<stop stop-color="#FCDAA0"/>
<stop offset="1" stop-color="#B5A78F"/>
</linearGradient>
<linearGradient id="paint2_linear" x1="69" y1="11" x2="69" y2="77" gradientUnits="userSpaceOnUse">
<stop stop-color="#FCDAA0"/>
<stop offset="1" stop-color="#B5A78F"/>
</linearGradient>
<linearGradient id="paint3_linear" x1="40" y1="6" x2="40" y2="74" gradientUnits="userSpaceOnUse">
<stop stop-color="#D3AE7B"/>
<stop offset="1" stop-color="#493304"/>
</linearGradient>
</defs>
</svg>
