<svg width="80" height="80" viewBox="0 0 80 80" fill="none" xmlns="http://www.w3.org/2000/svg">
<path opacity="0.3" d="M19.1135 46.2614L34.722 65.8685C35.2912 66.5834 36.1552 67 37.0691 67H54.7724C55.9386 67 56.9991 66.3242 57.4917 65.2671L66.5484 45.8317C66.8405 45.2049 66.9071 44.4965 66.7369 43.8263L65.1732 37.6679L63.3465 30.4733L59.971 17.1791C59.7918 16.4732 59.3619 15.8566 58.7616 15.4444L50.8552 10.0149C49.9449 9.38987 48.7649 9.31534 47.7833 9.82092L39.0614 14.313L29.7081 19.1303C29.0861 19.4506 28.5956 19.9783 28.3215 20.622L23.3728 32.2443L18.7004 43.2176C18.2689 44.2311 18.4275 45.3996 19.1135 46.2614Z" fill="url(#paint0_linear)"/>
<path d="M30.9825 71L13 48.4809L18.4825 35.645M30.9825 71H52.4737L63 48.4809M30.9825 71L34.4912 41.2748M45.0175 12L55.5439 19.2061M45.0175 12L34.4912 17.4046M45.0175 12L45.8947 25.0611M55.5439 19.2061L45.8947 25.0611M55.5439 19.2061L59.2719 33.8435L61.136 41.1622M63 48.4809L55.5439 46.5962M63 48.4809L61.136 41.1622M34.4912 41.2748L45.8947 25.0611M34.4912 41.2748V17.4046M34.4912 41.2748L18.4825 35.645M34.4912 41.2748L55.5439 46.5962M34.4912 17.4046L23.9649 22.8092L18.4825 35.645M55.5439 46.5962L61.136 41.1622" stroke="url(#paint1_linear)" stroke-width="2"/>
<defs>
<linearGradient id="paint0_linear" x1="42.5" y1="9" x2="42.5" y2="67" gradientUnits="userSpaceOnUse">
<stop stop-color="#FCDAA0"/>
<stop offset="1" stop-color="#B5A78F"/>
</linearGradient>
<linearGradient id="paint1_linear" x1="38" y1="12" x2="38" y2="71" gradientUnits="userSpaceOnUse">
<stop stop-color="#D3AE7B"/>
<stop offset="1" stop-color="#493304"/>
</linearGradient>
</defs>
</svg>
