<svg width="80" height="80" viewBox="0 0 80 80" fill="none" xmlns="http://www.w3.org/2000/svg">
<path opacity="0.3" d="M25.2871 27.4039C24.5192 25.853 24.8357 23.9842 26.0714 22.7727L32.8331 16.1437C33.5808 15.4106 34.5862 15 35.6333 15L52.366 15C53.4131 15 54.4185 15.4106 55.1662 16.1437L61.9279 22.7727C63.1636 23.9842 63.4801 25.853 62.7122 27.4039L55.1014 42.7749C54.4266 44.1377 53.0374 45 51.5167 45H36.4826C34.9619 45 33.5727 44.1377 32.8979 42.7749L25.2871 27.4039Z" fill="url(#paint0_linear)"/>
<path fill-rule="evenodd" clip-rule="evenodd" d="M48.366 12L31.6334 12C30.848 12 30.094 12.308 29.5332 12.8578L22.7715 19.4868C21.8447 20.3954 21.6073 21.797 22.1832 22.9602L29.7941 38.3312C30.3002 39.3533 31.3421 40 32.4826 40H47.5168C48.6573 40 49.6992 39.3533 50.2053 38.3312L57.8161 22.9602C58.392 21.797 58.1547 20.3954 57.2278 19.4868L50.4662 12.8578C49.9054 12.308 49.1513 12 48.366 12ZM31.6334 10H48.366C49.6749 10 50.9317 10.5133 51.8663 11.4296L58.628 18.0586C60.1727 19.573 60.5683 21.9091 59.6084 23.8477L51.9976 39.2186C51.1541 40.9221 49.4176 42 47.5168 42H40.9998V56.0718C42.0293 56.2204 43.0171 56.5972 43.8888 57.1797C45.04 57.9489 45.9372 59.0421 46.467 60.3212C46.9968 61.6003 47.1354 63.0078 46.8653 64.3656C46.5952 65.7235 45.9286 66.9708 44.9496 67.9497C43.9706 68.9287 42.7233 69.5954 41.3655 69.8655C40.0076 70.1356 38.6001 69.997 37.3211 69.4672C36.042 68.9373 34.9487 68.0401 34.1796 66.889C33.4104 65.7378 32.9998 64.3845 32.9998 63C32.9998 62.4477 33.4476 62 33.9998 62C34.5521 62 34.9998 62.4477 34.9998 63C34.9998 63.9889 35.2931 64.9556 35.8425 65.7779C36.3919 66.6001 37.1728 67.241 38.0864 67.6194C39.0001 67.9978 40.0054 68.0969 40.9753 67.9039C41.9452 67.711 42.8361 67.2348 43.5354 66.5355C44.2346 65.8363 44.7108 64.9454 44.9038 63.9755C45.0967 63.0055 44.9977 62.0002 44.6192 61.0866C44.2408 60.173 43.5999 59.3921 42.7777 58.8427C41.9555 58.2932 40.9888 58 39.9998 58C39.4476 58 38.9998 57.5523 38.9998 57V42H32.4826C30.5817 42 28.8453 40.9221 28.0018 39.2186L20.3909 23.8476C19.431 21.9091 19.8267 19.573 21.3714 18.0586L28.133 11.4296C29.0677 10.5133 30.3244 10 31.6334 10Z" fill="url(#paint1_linear)"/>
<defs>
<linearGradient id="paint0_linear" x1="43.9996" y1="15" x2="43.9996" y2="45" gradientUnits="userSpaceOnUse">
<stop stop-color="#FCDAA0"/>
<stop offset="1" stop-color="#B5A78F"/>
</linearGradient>
<linearGradient id="paint1_linear" x1="39.9997" y1="10" x2="39.9997" y2="70" gradientUnits="userSpaceOnUse">
<stop stop-color="#D3AE7B"/>
<stop offset="1" stop-color="#493304"/>
</linearGradient>
</defs>
</svg>
