<svg width="20" height="24" viewBox="0 0 20 24" fill="none" xmlns="http://www.w3.org/2000/svg">
<path d="M18.4987 2.7168H17.7969V19.9574C17.7969 21.1028 16.8646 22.0351 15.7193 22.0351H8.60897H2.95483V22.6742C2.95483 23.406 3.54882 24 4.28065 24H11.3884H18.4962C19.228 24 19.822 23.406 19.822 22.6742V4.04261C19.822 3.31078 19.2305 2.7168 18.4987 2.7168Z" fill="#949300"/>
<path d="M8.60906 21.2832H15.7168C16.4487 21.2832 17.0426 20.6892 17.0426 19.9574V2.71679V1.32581C17.0426 0.593985 16.4487 0 15.7168 0H8.60906H6.24565V0.438596C6.25064 0.483709 6.25317 0.531328 6.25317 0.578947V3.46867V4.21053C6.25317 5.2406 5.41607 6.07769 4.386 6.07769H3.64414H0.75442C0.716826 6.07769 0.676725 6.07519 0.639131 6.07268H0.177979V19.9574C0.177979 20.6892 0.771963 21.2832 1.50379 21.2832H2.95743H8.60906ZM8.87723 16.7769H4.24314C3.89728 16.7769 3.61658 16.4962 3.61658 16.1504C3.61658 15.8045 3.89728 15.5238 4.24314 15.5238H8.87973C9.2256 15.5238 9.5063 15.8045 9.5063 16.1504C9.5063 16.4962 9.22309 16.7769 8.87723 16.7769ZM13.5138 13.579H4.24314C3.89728 13.579 3.61658 13.2982 3.61658 12.9524C3.61658 12.6065 3.89728 12.3258 4.24314 12.3258H13.5138C13.8597 12.3258 14.1404 12.6065 14.1404 12.9524C14.1404 13.2982 13.8597 13.579 13.5138 13.579ZM4.24314 8.92982H13.5138C13.8597 8.92982 14.1404 9.21053 14.1404 9.55639C14.1404 9.90226 13.8597 10.183 13.5138 10.183H4.24314C3.89728 10.183 3.61658 9.90226 3.61658 9.55639C3.61658 9.21053 3.89728 8.92982 4.24314 8.92982Z" fill="#949300"/>
<path d="M0.754341 5.32578H4.38591C4.38842 5.32578 4.39343 5.32578 4.39593 5.32578C5.00245 5.32077 5.49368 4.82954 5.49869 4.22303C5.49869 4.22052 5.49869 4.21551 5.49869 4.213V0.578917C5.49869 0.243077 5.223 0.0200195 4.93731 0.0200195C4.79947 0.0200195 4.66162 0.0701448 4.54634 0.185433L0.358352 4.3734C0.00747631 4.72428 0.255596 5.32578 0.754341 5.32578Z" fill="#949300"/>
</svg>
