<svg width="40" height="40" viewBox="0 0 40 40" fill="none" xmlns="http://www.w3.org/2000/svg">
<g clip-path="url(#clip0)">
<path d="M30.3894 36.6666C31.2181 35.7439 31.6734 34.5455 31.6665 33.3052C31.6595 32.065 31.1909 30.8717 30.3519 29.9583C30.6079 29.9036 30.8474 29.7892 31.0509 29.6245C31.2545 29.4598 31.4162 29.2494 31.5231 29.0104L38.1898 14.0104C38.3026 13.7566 38.3502 13.4787 38.3283 13.2018C38.3064 12.925 38.2157 12.658 38.0643 12.4251C37.913 12.1922 37.7059 12.0009 37.4618 11.8684C37.2177 11.736 36.9444 11.6666 36.6667 11.6666H3.33333C3.05564 11.6666 2.78235 11.736 2.53828 11.8684C2.29421 12.0009 2.08711 12.1922 1.93578 12.4251C1.78446 12.6579 1.69371 12.9248 1.67178 13.2017C1.64985 13.4785 1.69743 13.7564 1.81021 14.0102L8.47687 29.0102C8.58376 29.2492 8.74554 29.4596 8.94906 29.6243C9.15257 29.789 9.39209 29.9034 9.64812 29.9581C8.80913 30.8715 8.34046 32.0647 8.33353 33.305C8.32659 34.5453 8.78189 35.7436 9.61063 36.6664H0V39.9998H40V36.6666H30.3894ZM26.6667 31.6666C26.9963 31.6666 27.3185 31.7644 27.5926 31.9475C27.8667 32.1306 28.0803 32.3909 28.2065 32.6955C28.3326 33 28.3656 33.3351 28.3013 33.6584C28.237 33.9817 28.0783 34.2787 27.8452 34.5118C27.6121 34.7449 27.3151 34.9036 26.9918 34.9679C26.6685 35.0322 26.3334 34.9992 26.0289 34.8731C25.7243 34.7469 25.464 34.5333 25.2809 34.2592C25.0977 33.9852 25 33.6629 25 33.3333C25.0005 32.8914 25.1763 32.4678 25.4887 32.1553C25.8012 31.8429 26.2248 31.6671 26.6667 31.6666ZM15 33.3333C15 33.6629 14.9023 33.9852 14.7191 34.2592C14.536 34.5333 14.2757 34.7469 13.9711 34.8731C13.6666 34.9992 13.3315 35.0322 13.0082 34.9679C12.6849 34.9036 12.3879 34.7449 12.1548 34.5118C11.9217 34.2787 11.763 33.9817 11.6987 33.6584C11.6344 33.3351 11.6674 33 11.7935 32.6955C11.9197 32.3909 12.1333 32.1306 12.4074 31.9475C12.6815 31.7644 13.0037 31.6666 13.3333 31.6666C13.7752 31.6671 14.1988 31.8429 14.5113 32.1553C14.8237 32.4678 14.9995 32.8914 15 33.3333ZM17.056 30H22.944C22.1216 30.9155 21.6667 32.1027 21.6667 33.3333C21.6667 34.5639 22.1216 35.7511 22.944 36.6666H17.056C17.8784 35.7511 18.3333 34.5639 18.3333 33.3333C18.3333 32.1027 17.8784 30.9155 17.056 30Z" fill="#949300"/>
<path d="M28.6688 5.01107C27.8765 3.63492 26.768 2.46722 25.4348 1.60459C24.1017 0.741954 22.5823 0.209191 21.0024 0.0503834C19.4224 -0.108424 17.8274 0.111291 16.3493 0.691347C14.8711 1.2714 13.5523 2.19512 12.5021 3.38607C11.5636 3.26797 10.6108 3.35084 9.70678 3.62918C8.80279 3.90752 7.96835 4.37496 7.25884 5.00047C6.54934 5.62599 5.981 6.39526 5.59155 7.25723C5.2021 8.11921 5.00046 9.05416 5 10H33.3333C33.3318 8.73244 32.8495 7.51264 31.9838 6.58672C31.118 5.66081 29.9334 5.09772 28.6688 5.01107ZM15 8.33336C14.6704 8.33336 14.3481 8.23561 14.074 8.05247C13.8 7.86934 13.5863 7.60904 13.4602 7.3045C13.3341 6.99995 13.3011 6.66484 13.3654 6.34154C13.4297 6.01824 13.5884 5.72127 13.8215 5.48818C14.0546 5.25509 14.3515 5.09636 14.6749 5.03205C14.9982 4.96774 15.3333 5.00075 15.6378 5.12689C15.9424 5.25304 16.2026 5.46666 16.3858 5.74074C16.5689 6.01482 16.6667 6.33706 16.6667 6.66669C16.6667 7.10872 16.4911 7.53264 16.1785 7.8452C15.866 8.15776 15.442 8.33336 15 8.33336ZM21.6667 6.66669C21.337 6.66669 21.0148 6.56894 20.7407 6.38581C20.4666 6.20267 20.253 5.94237 20.1269 5.63783C20.0007 5.33329 19.9677 4.99818 20.032 4.67487C20.0963 4.35157 20.2551 4.0546 20.4882 3.82151C20.7212 3.58843 21.0182 3.42969 21.3415 3.36538C21.6648 3.30107 21.9999 3.33408 22.3045 3.46022C22.609 3.58637 22.8693 3.79999 23.0525 4.07407C23.2356 4.34816 23.3333 4.67039 23.3333 5.00002C23.3333 5.44205 23.1577 5.86597 22.8452 6.17854C22.5326 6.4911 22.1087 6.66669 21.6667 6.66669Z" fill="#949300"/>
</g>
<defs>
<clipPath id="clip0">
<rect width="40" height="40" fill="white"/>
</clipPath>
</defs>
</svg>
