<svg width="80" height="80" viewBox="0 0 80 80" fill="none" xmlns="http://www.w3.org/2000/svg">
<path opacity="0.3" d="M73.0232 18C74.115 18 75 18.9086 75 20.0295V59.9705C75 61.0914 74.115 62 73.0232 62L16.9768 62C15.885 62 15 61.0914 15 59.9705L15 20.0295C15 18.9086 15.885 18 16.9768 18L73.0232 18Z" fill="url(#paint0_linear)"/>
<path fill-rule="evenodd" clip-rule="evenodd" d="M39 6H24C23.4477 6 23 6.44772 23 7V12H40V7C40 6.44772 39.5523 6 39 6ZM21 7V12H6C4.89543 12 4 12.8954 4 14V28V29V30V50C4 51.1046 4.89543 52 6 52H42C42 51.3245 42.0352 50.6573 42.104 50H6L6 30H18V35C18 35.5523 18.4477 36 19 36C19.5523 36 20 35.5523 20 35V30H43V35C43 35.5523 43.4477 36 44 36C44.5523 36 45 35.5523 45 35V30H58V33.2355C58.6561 33.1314 59.3234 33.0609 60 33.0259V30V29V28V14C60 12.8954 59.1046 12 58 12H42V7C42 5.34315 40.6569 4 39 4H24C22.3431 4 21 5.34315 21 7ZM40 14H42H58V28H44H19H6V14H21H23H40ZM65.1514 64.3468L65.8503 64.0656C70.631 62.1417 74 57.4619 74 52C74 44.8203 68.1797 39 61 39C53.8203 39 48 44.8203 48 52C48 57.4619 51.369 62.1417 56.1497 64.0656L56.8486 64.3468L57.1882 65.0192L61 72.5645L64.8118 65.0192L65.1514 64.3468ZM62.1204 74.7823L61 77L59.8796 74.7823L55.4031 65.921C49.891 63.7028 46 58.3058 46 52C46 43.7157 52.7157 37 61 37C69.2843 37 76 43.7157 76 52C76 58.3058 72.109 63.7028 66.5969 65.921L62.1204 74.7823ZM70 52C70 56.9706 65.9706 61 61 61C56.0294 61 52 56.9706 52 52C52 47.0294 56.0294 43 61 43C65.9706 43 70 47.0294 70 52ZM68 52C68 55.866 64.866 59 61 59C57.134 59 54 55.866 54 52C54 48.134 57.134 45 61 45C64.866 45 68 48.134 68 52ZM63 52C63 53.1046 62.1046 54 61 54C59.8954 54 59 53.1046 59 52C59 50.8954 59.8954 50 61 50C62.1046 50 63 50.8954 63 52Z" fill="url(#paint1_linear)"/>
<defs>
<linearGradient id="paint0_linear" x1="45" y1="18" x2="45" y2="62" gradientUnits="userSpaceOnUse">
<stop stop-color="#FCDAA0"/>
<stop offset="1" stop-color="#B5A78F"/>
</linearGradient>
<linearGradient id="paint1_linear" x1="40" y1="4" x2="40" y2="77" gradientUnits="userSpaceOnUse">
<stop stop-color="#D3AE7B"/>
<stop offset="1" stop-color="#493304"/>
</linearGradient>
</defs>
</svg>
