<svg width="24" height="24" viewBox="0 0 24 24" fill="none" xmlns="http://www.w3.org/2000/svg">
<g clip-path="url(#clip0)">
<path d="M6.48578 12.2361L11.79 8.42869C11.9102 8.35239 12.0636 8.35239 12.1838 8.42869L17.5143 12.2361V7.69343C17.5434 7.07051 17.0621 6.54193 16.4392 6.51278C16.4299 6.51233 16.4207 6.51203 16.4114 6.51183H7.58863C6.96521 6.52565 6.471 7.04222 6.48482 7.66569C6.48502 7.67494 6.48533 7.68419 6.48578 7.69343V12.2361Z" fill="#949300"/>
<path d="M13.3129 2.57308H10.6871V5.72407H13.3129V2.57308Z" fill="#949300"/>
<path d="M23.6062 19.3258C22.8299 19.3181 22.0728 19.5674 21.453 20.0348C20.9623 20.43 20.35 20.6434 19.7199 20.6387C19.283 20.6427 18.8512 20.5438 18.4595 20.3499L20.0875 14.9669L17.8031 13.3652L17.6455 13.2864L12.2626 9.53152V20.6125H11.9737L11.4748 20.5862V9.53152L3.83372 14.9669L5.51426 20.3236C5.13234 20.5457 4.69533 20.6549 4.25385 20.6387C3.4136 20.6387 3.01971 20.3499 2.54707 20.061C1.93666 19.5731 1.17528 19.3131 0.393887 19.3258C0.176362 19.3258 0 19.5021 0 19.7197C0 19.9372 0.176362 20.1135 0.393887 20.1135C1.02465 20.1045 1.63842 20.3184 2.12695 20.7175C2.73871 21.1811 3.48623 21.4303 4.25385 21.4264C5.03524 21.4391 5.79657 21.1792 6.40703 20.6912C6.87967 20.4023 7.27356 20.1135 8.1138 20.1135C8.74457 20.1044 9.35834 20.3183 9.84687 20.7174C10.4586 21.1811 11.2061 21.4303 11.9738 21.4264C12.7552 21.4391 13.5165 21.1791 14.1269 20.6911C14.5996 20.4023 14.9935 20.1134 15.8337 20.1134C16.4638 20.1088 17.076 20.3222 17.5668 20.7174C18.8466 21.6628 20.5934 21.6628 21.8732 20.7174C22.3638 20.3222 22.9762 20.1088 23.6062 20.1134C23.8237 20.1134 24.0001 19.9371 24.0001 19.7196C24.0001 19.502 23.8237 19.3258 23.6062 19.3258Z" fill="#949300"/>
</g>
<defs>
<clipPath id="clip0">
<rect width="24" height="24" fill="white"/>
</clipPath>
</defs>
</svg>
