<svg width="24" height="24" viewBox="0 0 24 24" fill="none" xmlns="http://www.w3.org/2000/svg">
<path d="M11.052 14.4391H7.66152C7.46088 14.4391 7.2984 14.6016 7.2984 14.8022V20.0664C7.2984 20.267 7.46088 20.4295 7.66152 20.4295H11.052C11.2526 20.4295 11.4149 20.267 11.4149 20.0664V14.802C11.4149 14.6014 11.2524 14.4391 11.052 14.4391Z" fill="#949300"/>
<path d="M16.3385 3.57072H12.948C12.7474 3.57072 12.5849 3.7332 12.5849 3.93384V20.0662C12.5849 20.2668 12.7474 20.4293 12.948 20.4293H16.3385C16.5391 20.4293 16.7016 20.2668 16.7016 20.0662V3.93384C16.7016 3.7332 16.5391 3.57072 16.3385 3.57072Z" fill="#949300"/>
<path d="M21.6521 8.47176H18.2616C18.061 8.47176 17.8985 8.63424 17.8985 8.83488V20.0662C17.8985 20.2668 18.061 20.4293 18.2616 20.4293H21.6518C21.8525 20.4293 22.015 20.2668 22.015 20.0662V8.83488C22.015 8.63448 21.8525 8.47176 21.6521 8.47176Z" fill="#949300"/>
<path d="M5.7384 8.47176H2.34792C2.14728 8.47176 1.9848 8.63424 1.9848 8.83488V20.0662C1.9848 20.2668 2.14728 20.4293 2.34792 20.4293H5.7384C5.93904 20.4293 6.10152 20.2668 6.10152 20.0662V8.83488C6.10152 8.63448 5.93904 8.47176 5.7384 8.47176Z" fill="#949300"/>
</svg>
