<svg width="24" height="24" viewBox="0 0 24 24" fill="none" xmlns="http://www.w3.org/2000/svg">
<g clip-path="url(#clip0)">
<path d="M3.75001 19C2.66601 19 1.75001 18.035 1.75001 16.893C1.75001 16.21 2.06501 15.567 2.59501 15.173C2.84901 14.983 3.00001 14.657 3.00001 14.3V8.75C3.00001 8.336 3.33601 8 3.75001 8C4.16401 8 4.50001 8.336 4.50001 8.75V14.3C4.50001 15.127 4.12301 15.903 3.49201 16.375C3.34001 16.488 3.25001 16.681 3.25001 16.893C3.25001 17.241 3.51401 17.5 3.75001 17.5C4.02501 17.5 4.25001 17.228 4.25001 16.893C4.25001 16.479 4.58601 16.143 5.00001 16.143C5.41401 16.143 5.75001 16.479 5.75001 16.893C5.75001 18.055 4.85301 19 3.75001 19Z" fill="#949300"/>
<path d="M17.25 24C16.836 24 16.5 23.664 16.5 23.25V8.25C16.5 7.836 16.836 7.5 17.25 7.5C17.664 7.5 18 7.836 18 8.25V23.25C18 23.664 17.664 24 17.25 24Z" fill="#949300"/>
<path d="M13.75 24C13.336 24 13 23.664 13 23.25V8.25C13 7.836 13.336 7.5 13.75 7.5C14.164 7.5 14.5 7.836 14.5 8.25V23.25C14.5 23.664 14.164 24 13.75 24Z" fill="#949300"/>
<path d="M17.25 22.25C17.042 22.25 16.834 22.164 16.686 21.994L13.186 17.994C12.914 17.682 12.945 17.209 13.256 16.936C13.568 16.664 14.041 16.693 14.315 17.007L17.815 21.007C18.087 21.319 18.056 21.792 17.745 22.065C17.602 22.189 17.426 22.25 17.25 22.25Z" fill="#949300"/>
<path d="M17.25 17.75C17.042 17.75 16.834 17.664 16.686 17.494L13.186 13.494C12.914 13.182 12.945 12.709 13.256 12.436C13.568 12.164 14.041 12.193 14.315 12.507L17.815 16.507C18.087 16.819 18.056 17.292 17.745 17.565C17.602 17.689 17.426 17.75 17.25 17.75Z" fill="#949300"/>
<path d="M17.25 13.25C17.042 13.25 16.834 13.164 16.686 12.994L13.186 8.99403C12.914 8.68203 12.945 8.20903 13.256 7.93603C13.568 7.66403 14.041 7.69403 14.315 8.00703L17.815 12.007C18.087 12.319 18.056 12.792 17.745 13.065C17.602 13.189 17.426 13.25 17.25 13.25Z" fill="#949300"/>
<path d="M23.46 5.77997L17.46 4.02997C17.432 4.02197 17.404 4.02997 17.376 4.02597C17.334 4.01797 17.295 3.99997 17.25 3.99997H13.75C13.731 3.99997 13.716 4.00897 13.698 4.01097C13.682 4.01197 13.667 4.00497 13.651 4.00697L0.650996 5.75697C0.276996 5.80697 -3.8147e-06 6.12497 -3.8147e-06 6.49997V8.24997C-3.8147e-06 8.66397 0.335996 8.99997 0.749996 8.99997H13.75H17.25H23.25C23.664 8.99997 24 8.66397 24 8.24997V6.49997C24 6.16697 23.78 5.87397 23.46 5.77997Z" fill="#949300"/>
<path d="M15.5 5.25C15.086 5.25 14.75 4.914 14.75 4.5V0.75C14.75 0.336 15.086 0 15.5 0C15.914 0 16.25 0.336 16.25 0.75V4.5C16.25 4.914 15.914 5.25 15.5 5.25Z" fill="#949300"/>
<path d="M23.25 12H20.5C20.086 12 19.75 11.664 19.75 11.25V8.25C19.75 7.836 20.086 7.5 20.5 7.5H23.25C23.664 7.5 24 7.836 24 8.25V11.25C24 11.664 23.664 12 23.25 12Z" fill="#949300"/>
<path d="M2 7.01898C1.705 7.01898 1.425 6.84298 1.306 6.55298C1.15 6.16998 1.333 5.73198 1.716 5.57498L15.216 0.055977C15.469 -0.048023 15.759 -0.00502302 15.972 0.166977L22.472 5.41698C22.794 5.67698 22.844 6.14898 22.583 6.47198C22.323 6.79498 21.853 6.84398 21.528 6.58398L15.374 1.61198L2.284 6.96298C2.19 7.00098 2.095 7.01898 2 7.01898Z" fill="#949300"/>
</g>
<defs>
<clipPath id="clip0">
<rect width="24" height="24" fill="white"/>
</clipPath>
</defs>
</svg>
