<svg width="24" height="24" viewBox="0 0 24 24" fill="none" xmlns="http://www.w3.org/2000/svg">
<path d="M6.97301 12.7589C7.64747 12.7589 8.2994 12.7139 8.91631 12.6303V5.65442C8.29946 5.57082 7.64747 5.52588 6.97301 5.52588C3.12196 5.52588 5.91278e-05 6.9866 5.91278e-05 8.78856V9.49614C5.91278e-05 11.298 3.12196 12.7589 6.97301 12.7589Z" fill="#949300"/>
<path d="M6.97301 16.4014C7.64747 16.4014 8.2994 16.3564 8.91631 16.2729V14.2282C8.29928 14.3118 7.64765 14.3573 6.97301 14.3573C3.61146 14.3573 0.805754 13.2443 0.146712 11.7629C0.0507363 11.9787 5.91278e-05 12.2021 5.91278e-05 12.4311V13.1387C5.91278e-05 14.9407 3.12196 16.4014 6.97301 16.4014Z" fill="#949300"/>
<path d="M8.91625 18.0299V17.8709C8.29922 17.9545 7.64759 18.0001 6.97295 18.0001C3.61141 18.0001 0.805695 16.887 0.146653 15.4056C0.0506772 15.6214 0 15.8448 0 16.0738V16.7814C0 18.5834 3.1219 20.0441 6.97295 20.0441C7.74309 20.0441 8.48382 19.9856 9.17651 19.8777C9.00482 19.5154 8.91625 19.1332 8.91625 18.7374V18.0299Z" fill="#949300"/>
<path d="M17.0271 0C13.176 0 10.0541 1.46072 10.0541 3.26269V3.97026C10.0541 5.77223 13.176 7.23295 17.0271 7.23295C20.878 7.23295 24 5.77223 24 3.97026V3.26269C24 1.46072 20.878 0 17.0271 0Z" fill="#949300"/>
<path d="M17.0271 8.8315C13.6655 8.8315 10.8598 7.7185 10.2008 6.23706C10.1048 6.45278 10.0541 6.67621 10.0541 6.90531V7.61289C10.0541 9.41485 13.176 10.8756 17.0271 10.8756C20.878 10.8756 24 9.41485 24 7.61289V6.90531C24 6.67621 23.9493 6.45278 23.8533 6.23706C23.1943 7.7185 20.3886 8.8315 17.0271 8.8315Z" fill="#949300"/>
<path d="M17.0271 12.4741C13.6655 12.4741 10.8598 11.361 10.2008 9.87964C10.1048 10.0954 10.0541 10.3188 10.0541 10.5479V11.2555C10.0541 13.0575 13.176 14.5182 17.0271 14.5182C20.878 14.5182 24 13.0575 24 11.2555V10.5479C24 10.3188 23.9493 10.0954 23.8533 9.87964C23.1943 11.3611 20.3886 12.4741 17.0271 12.4741Z" fill="#949300"/>
<path d="M17.0271 16.3134C13.6655 16.3134 10.8598 15.2004 10.2008 13.719C10.1048 13.9348 10.0541 14.1581 10.0541 14.3872V15.0948C10.0541 16.8968 13.176 18.3575 17.0271 18.3575C20.878 18.3575 24 16.8968 24 15.0948V14.3872C24 14.1581 23.9493 13.9347 23.8533 13.719C23.1943 15.2003 20.3886 16.3134 17.0271 16.3134Z" fill="#949300"/>
<path d="M17.0271 19.956C13.6655 19.956 10.8598 18.8429 10.2008 17.3616C10.1048 17.5774 10.0541 17.8008 10.0541 18.0298V18.7373C10.0541 20.5393 13.176 22 17.0271 22C20.878 22 24 20.5393 24 18.7373V18.0297C24 17.8007 23.9493 17.5772 23.8533 17.3615C23.1943 18.8429 20.3886 19.956 17.0271 19.956Z" fill="#949300"/>
</svg>
