<svg xmlns="http://www.w3.org/2000/svg" x="0px" y="0px"
width="50" height="50"
viewBox="0 0 172 172"
style=" fill:#000000;"><g fill="none" fill-rule="nonzero" stroke="none" stroke-width="1" stroke-linecap="butt" stroke-linejoin="miter" stroke-miterlimit="10" stroke-dasharray="" stroke-dashoffset="0" font-family="none" font-weight="none" font-size="none" text-anchor="none" style="mix-blend-mode: normal"><path d="M0,172v-172h172v172z" fill="none"></path><g fill="#e74c3c"><path d="M86,17.2c-37.9948,0 -68.8,30.8052 -68.8,68.8c0,37.9948 30.8052,68.8 68.8,68.8c37.9948,0 68.8,-30.8052 68.8,-68.8c0,-37.9948 -30.8052,-68.8 -68.8,-68.8zM92.9488,45.86667l-1.14667,51.6h-11.60427l-1.14667,-51.6zM86.0172,127.21693c-4.7472,0 -7.5852,-2.5284 -7.5852,-6.7768c0,-4.32867 2.83227,-6.85707 7.5852,-6.85707c4.7128,0 7.54507,2.5284 7.54507,6.85707c0,4.2484 -2.83227,6.7768 -7.54507,6.7768z"></path></g></g></svg>