<svg width="40" height="40" viewBox="0 0 40 40" fill="none" xmlns="http://www.w3.org/2000/svg">
<path d="M36.4062 7.10938V4.76562H31.7188V0H27.0312V4.76562H12.9688V0H8.28125V4.76562H3.59375V7.10938H8.28125V11.7969H3.59375V14.1406H8.28125V18.8281H3.59375V21.1719H8.28125V25.8594H3.59375V28.2031H8.28125V32.8906H3.59375V35.2344H8.28125V40H12.9688V35.2344H27.0312V40H31.7188V35.2344H36.4062V32.8906H31.7188V28.2031H36.4062V25.8594H31.7188V21.1719H36.4062V18.8281H31.7188V14.1406H36.4062V11.7969H31.7188V7.10938H36.4062ZM27.0312 7.10938V11.7969H12.9688V7.10938H27.0312ZM12.9688 18.8281V14.1406H27.0312V18.8281H12.9688ZM27.0312 21.1719V25.8594H12.9688V21.1719H27.0312ZM12.9688 32.8906V28.2031H27.0312V32.8906H12.9688Z" fill="#949300"/>
</svg>
