<svg width="12" height="12" viewBox="0 0 12 12" fill="none" xmlns="http://www.w3.org/2000/svg">
<path fill-rule="evenodd" clip-rule="evenodd" d="M3.75269 6C3.75269 5.44772 3.30497 5 2.75269 5C2.2004 5 1.75269 5.44772 1.75269 6C1.75269 6.55228 2.2004 7 2.75269 7C3.30497 7 3.75269 6.55228 3.75269 6ZM4.26078 4.68631C3.89413 4.26576 3.35444 4 2.75269 4C1.64812 4 0.752685 4.89543 0.752685 6C0.752685 7.10457 1.64812 8 2.75269 8C3.32712 8 3.84498 7.75783 4.20977 7.37001L7.7959 9.58453C7.76758 9.71856 7.75269 9.85754 7.75269 10C7.75269 11.1046 8.64812 12 9.75269 12C10.8573 12 11.7527 11.1046 11.7527 10C11.7527 8.89543 10.8573 8 9.75269 8C9.15093 8 8.61124 8.26576 8.24459 8.68631L4.69165 6.49228C4.73151 6.3348 4.75269 6.16987 4.75269 6C4.75269 5.85754 4.73779 5.71856 4.70947 5.58453L8.29561 3.37001C8.66039 3.75783 9.17825 4 9.75269 4C10.8573 4 11.7527 3.10457 11.7527 2C11.7527 0.89543 10.8573 -4.41685e-07 9.75269 -3.93402e-07C8.64812 -3.4512e-07 7.75269 0.89543 7.75269 2C7.75269 2.16987 7.77386 2.3348 7.81372 2.49228L4.26078 4.68631ZM10.7527 2C10.7527 1.44772 10.305 1 9.75269 1C9.2004 1 8.75269 1.44772 8.75269 2C8.75269 2.55228 9.2004 3 9.75269 3C10.305 3 10.7527 2.55228 10.7527 2ZM9.75269 9C10.305 9 10.7527 9.44771 10.7527 10C10.7527 10.5523 10.305 11 9.75269 11C9.2004 11 8.75269 10.5523 8.75269 10C8.75269 9.44771 9.2004 9 9.75269 9Z" fill="white"/>
</svg>
