<svg width="20" height="13" viewBox="0 0 20 13" fill="none" xmlns="http://www.w3.org/2000/svg">
<path d="M10.3057 11.1168L10.3049 11.1168C7.4791 11.2912 5.12392 9.00292 5.30341 6.19911C5.4509 3.88538 7.35642 2.02658 9.69509 1.8831L10.3057 11.1168ZM10.3057 11.1168C12.6397 10.9689 14.5445 9.11069 14.6965 6.8017L14.6966 6.8008M10.3057 11.1168L14.6966 6.8008M14.6966 6.8008C14.8761 3.99706 12.521 1.70883 9.69529 1.88308L14.6966 6.8008ZM10.117 8.21631L10.1165 8.21634C9.038 8.28286 8.17158 7.41562 8.24052 6.38897L8.24066 6.38681C8.29382 5.54005 9.00083 4.83654 9.88825 4.77952C10.9665 4.7134 11.8325 5.5805 11.7636 6.60693L11.7635 6.60738C11.707 7.46135 10.9975 8.16291 10.117 8.21631ZM0.15649 6.0344L0.553113 6.33885C3.03991 3.09916 6.37032 1.15234 10 1.15234C13.6295 1.15234 16.9598 3.09897 19.4465 6.34234C19.5179 6.43598 19.5178 6.56827 19.4463 6.66184L19.8435 6.96552L19.4469 6.66107C16.9601 9.90076 13.6297 11.8476 10 11.8476C6.3705 11.8476 3.04025 9.90095 0.553517 6.65758C0.4821 6.56394 0.482161 6.43165 0.553702 6.33808L0.15649 6.0344Z" stroke="#B8B9BA"/>
</svg>
