<svg width="14" height="8" viewBox="0 0 14 8" fill="none" xmlns="http://www.w3.org/2000/svg">
<path d="M7.52261 7.15015L7.52179 7.1502C5.59952 7.26882 3.99047 5.71111 4.11304 3.79511L7.52261 7.15015ZM7.52261 7.15015C9.11192 7.04946 10.412 5.78449 10.5159 4.20599L10.516 4.20509M7.52261 7.15015L10.516 4.20509M10.516 4.20509C10.6386 2.28909 9.02968 0.73134 7.10744 0.849844L10.516 4.20509ZM7.37908 4.92728L7.37856 4.92731C6.78677 4.96381 6.32255 4.48969 6.35943 3.9405L6.35956 3.93834C6.38795 3.48616 6.76851 3.10144 7.2537 3.07012C7.84521 3.03397 8.30911 3.50797 8.27225 4.05697L8.27222 4.05742C8.24188 4.5154 7.85884 4.89818 7.37908 4.92728ZM1.37833 3.99874C2.95383 1.94919 5.0481 0.735229 7.31452 0.735229C9.58095 0.735229 11.6752 1.94921 13.2507 4.00132C11.6752 6.05087 9.58094 7.26482 7.31452 7.26482C5.04808 7.26482 2.95382 6.05085 1.37833 3.99874ZM7.10724 0.849856C5.51467 0.947597 4.2139 2.21315 4.11305 3.79496L7.10724 0.849856Z" stroke="white"/>
</svg>
