<svg width="38" height="25" viewBox="0 0 38 25" fill="none" xmlns="http://www.w3.org/2000/svg">
<path d="M14.8642 0L19 2.44734L23.1358 0L30.0509 4.09202H7.94908L14.8642 0Z" fill="white"/>
<path d="M1.88362 17.5081V6.02606H36.1164V17.5081H1.88362Z" fill="white"/>
<path d="M0 19.0554H38V21.0098L36.1164 21.0098V22.9642C36.1164 24.0885 35.1997 25 34.069 25C32.9382 25 32.0216 24.0885 32.0216 22.9642H28.7457C28.7457 24.0885 27.829 25 26.6983 25C25.5675 25 24.6509 24.0885 24.6509 22.9642V21.0098H13.3491V22.9642C13.3491 24.0885 12.4325 25 11.3017 25C10.171 25 9.25431 24.0885 9.25431 22.9642H5.97845C5.97845 24.0885 5.06179 25 3.93103 25C2.80028 25 1.88362 24.0885 1.88362 22.9642V21.0098L0 21.0098V19.0554Z" fill="white"/>
</svg>
