<svg width="32" height="31" viewBox="0 0 32 31" fill="none" xmlns="http://www.w3.org/2000/svg">
<path fill-rule="evenodd" clip-rule="evenodd" d="M20.12 0H11.8797V2.33495H6.3858V10.7442L3.50221 11.5364L7.62239 18.06V23.5287C7.41092 23.3408 7.13595 23.1251 6.77634 22.9519C6.29323 22.7192 5.72376 22.5924 5.01288 22.5924C2.78043 22.5924 0.968176 23.8756 0.301693 24.5421C-0.100564 24.9444 -0.100564 25.5966 0.301693 25.9988C0.70395 26.4011 1.35614 26.4011 1.75839 25.9988C2.19062 25.5666 3.5097 24.6524 5.01288 24.6524C5.46938 24.6524 5.72394 24.7316 5.88246 24.8079C6.05073 24.889 6.18324 24.9993 6.39276 25.1965L6.44789 25.2487C6.6393 25.4306 6.92752 25.7044 7.30312 25.9132C7.75027 26.1618 8.27349 26.3005 8.92704 26.3005C9.54478 26.3005 10.0445 26.1979 10.4789 26.0191C10.8923 25.849 11.2059 25.6241 11.4293 25.4639L11.4414 25.4552C11.6802 25.284 11.817 25.189 11.9845 25.118C12.1346 25.0544 12.3483 24.9958 12.7039 24.9958C13.0587 24.9958 13.2314 25.054 13.334 25.1021C13.4466 25.155 13.523 25.2125 13.6917 25.3397L13.6918 25.3397C13.7322 25.3702 13.778 25.4047 13.8309 25.4441C14.0879 25.6355 14.4284 25.8686 14.9275 26.0405C15.4167 26.209 16.0032 26.3005 16.7554 26.3005C17.5008 26.3005 18.0757 26.2109 18.5466 26.0239C19.0415 25.8273 19.3397 25.5539 19.5429 25.3559L19.545 25.3538L19.545 25.3537C19.7462 25.1578 19.7763 25.1284 19.8475 25.0933C19.9082 25.0633 20.081 24.9958 20.5322 24.9958C20.9783 24.9958 21.1929 25.0617 21.3044 25.1112C21.4249 25.1646 21.5044 25.2288 21.7131 25.4051C21.9183 25.5783 22.2224 25.8335 22.6847 26.0211C23.142 26.2066 23.6849 26.3005 24.3777 26.3005C25.1178 26.3005 25.7057 26.1558 26.1971 25.8755C26.6507 25.6167 26.9533 25.2757 27.1506 25.0534L27.1733 25.0278C27.3889 24.7852 27.4926 24.6795 27.6305 24.6008C27.7486 24.5335 27.9676 24.4464 28.4292 24.4464C29.1527 24.4464 29.4843 24.6701 29.6385 24.829C29.8191 25.0151 29.869 25.2288 29.872 25.3086C29.893 25.8771 30.3709 26.3209 30.9394 26.2998C31.5079 26.2787 31.9517 25.8008 31.9306 25.2323C31.9107 24.6941 31.6859 23.9807 31.1169 23.3944C30.5215 22.7807 29.6284 22.3863 28.4292 22.3863C27.6891 22.3863 27.1012 22.5311 26.6098 22.8114C26.1561 23.0702 25.8535 23.4112 25.6563 23.6335L25.6336 23.6591C25.418 23.9016 25.3143 24.0073 25.1763 24.0861C25.0583 24.1534 24.8393 24.2404 24.3778 24.2404V18.06L28.4979 11.5364L25.6133 10.7439V2.33495H20.12V0ZM22.3171 5.63109H9.68194V9.83871L16.0001 8.10296L22.3171 9.83842V5.63109ZM26.2658 30.4762C25.7744 30.7565 25.1865 30.9013 24.4464 30.9013C23.7536 30.9013 23.2108 30.8074 22.7534 30.6218C22.2911 30.4343 21.987 30.1791 21.7819 30.0058C21.5731 29.8295 21.4936 29.7654 21.3732 29.7119C21.2616 29.6624 21.047 29.5965 20.6009 29.5965C20.1498 29.5965 19.9769 29.6641 19.9162 29.694C19.845 29.7292 19.8149 29.7585 19.6138 29.9545L19.6137 29.9545L19.6116 29.9566C19.4084 30.1546 19.1102 30.428 18.6153 30.6246C18.1445 30.8117 17.5696 30.9013 16.8241 30.9013C16.0719 30.9013 15.4855 30.8098 14.9962 30.6412C14.4971 30.4694 14.1566 30.2363 13.8997 30.0448C13.8468 30.0054 13.801 29.9709 13.7605 29.9404L13.7605 29.9404L13.7604 29.9404L13.7604 29.9403C13.5917 29.8132 13.5154 29.7557 13.4027 29.7029C13.3001 29.6547 13.1274 29.5965 12.7726 29.5965C12.417 29.5965 12.2033 29.6552 12.0533 29.7187C11.8857 29.7898 11.7489 29.8848 11.5101 30.056L11.498 30.0647C11.2747 30.2248 10.9611 30.4497 10.5477 30.6199C10.1133 30.7987 9.61352 30.9013 8.99578 30.9013C8.34222 30.9013 7.819 30.7626 7.37186 30.514C6.99626 30.3051 6.70803 30.0313 6.51663 29.8495L6.4615 29.7973C6.25198 29.6001 6.11946 29.4897 5.9512 29.4087C5.79267 29.3323 5.53811 29.2532 5.08161 29.2532C3.57843 29.2532 2.25936 30.1673 1.82713 30.5996C1.42487 31.0018 0.772686 31.0018 0.370429 30.5996C-0.0318276 30.1973 -0.0318276 29.5451 0.370429 29.1429C1.03691 28.4764 2.84917 27.1931 5.08161 27.1931C5.79249 27.1931 6.36197 27.32 6.84508 27.5526C7.31844 27.7806 7.64515 28.0823 7.87341 28.2971L7.88638 28.3093C8.12591 28.5348 8.23323 28.6358 8.37291 28.7134C8.48156 28.7738 8.65362 28.8412 8.99578 28.8412C9.37374 28.8412 9.6036 28.7807 9.76363 28.7148C9.93712 28.6434 10.0789 28.5473 10.3097 28.3817L10.3399 28.3601C10.5547 28.2058 10.8584 27.9877 11.2494 27.822C11.6766 27.6409 12.1668 27.5364 12.7726 27.5364C13.3792 27.5364 13.8588 27.6413 14.2777 27.8378C14.6044 27.9911 14.8762 28.1989 15.0508 28.3324L15.051 28.3326L15.0515 28.3329C15.0806 28.3552 15.107 28.3754 15.1305 28.3929C15.3113 28.5276 15.4558 28.6207 15.667 28.6934C15.888 28.7696 16.2372 28.8412 16.8241 28.8412C17.4177 28.8412 17.7097 28.7677 17.8548 28.7101C17.9758 28.662 18.0424 28.6093 18.1739 28.4811L18.2001 28.4553L18.2178 28.4377C18.3622 28.2942 18.6228 28.0351 19.0045 27.8467C19.4396 27.632 19.9534 27.5364 20.6009 27.5364C21.2535 27.5364 21.7686 27.6336 22.2085 27.8288C22.6112 28.0074 22.8942 28.2478 23.0744 28.4008L23.111 28.4319C23.2921 28.5848 23.3871 28.6558 23.5279 28.7129C23.6735 28.7719 23.9375 28.8412 24.4464 28.8412C24.908 28.8412 25.127 28.7541 25.2451 28.6868C25.383 28.6081 25.4868 28.5024 25.7023 28.2598L25.725 28.2342C25.9223 28.0119 26.2249 27.6709 26.6785 27.4121C27.17 27.1318 27.7578 26.9871 28.4979 26.9871C29.6972 26.9871 30.5902 27.3815 31.1856 27.9951C31.7547 28.5815 31.9794 29.2949 31.9994 29.8331C32.0204 30.4016 31.5766 30.8795 31.0082 30.9005C30.4397 30.9216 29.9617 30.4778 29.9407 29.9093C29.9377 29.8295 29.8878 29.6159 29.7072 29.4297C29.553 29.2708 29.2215 29.0472 28.4979 29.0472C28.0363 29.0472 27.8173 29.1342 27.6993 29.2015C27.5613 29.2802 27.4576 29.386 27.242 29.6285L27.2193 29.6541C27.0221 29.8764 26.7195 30.2174 26.2658 30.4762Z" fill="white"/>
</svg>
