<svg width="81" height="18" viewBox="0 0 81 18" fill="none" xmlns="http://www.w3.org/2000/svg"><g opacity=".7" fill="#fff"><path d="M11.39.204v6.372a2.348 2.348 0 00-2.338 2.353H4.333l5.848-7.223L8.97.204.986 8.89l7.904 8.725.08-.081L1.873 8.89h2.46l7.098 8.725v-6.412C10.342 11 9.536 10.026 9.536 8.89c0-1.218.927-2.232 2.097-2.354 1.17.122 2.097 1.136 2.097 2.354h4.759L11.39.204z"/><path d="M13.931.163l-.08.122 7.098 8.603h-2.46l-5.848 7.224 1.21 1.501 7.945-8.725L13.93.163zm14.277 9.253h2.783V8.117h-2.783V7.021h4.76V5.723h-6.413v6.371h6.493v-1.38h-4.84V9.416zM79.91 6.818s-2.217 2.8-2.419 3.044c-.161-.243-2.42-3.044-2.42-3.044h-1.129v5.276h1.452V9.091a404.94 404.94 0 011.895 2.394h.364s1.532-1.948 1.895-2.394v3.003H81V6.818h-1.09zm-12.703 3.531v-3.53h-1.452v5.275h1.13s3.75-3.165 4.113-3.49v3.49h1.452V6.818h-1.13s-3.75 3.206-4.113 3.531zm-3.105-4.626h-1.976s-1.613 1.826-1.775 2.029c-.161-.163-1.895-2.03-1.895-2.03h-2.219l3.066 3.085a675.05 675.05 0 00-2.985 3.246h2.017s1.815-2.11 1.976-2.313c.161.163 2.178 2.313 2.178 2.313h2.258L61.36 8.646c.162-.163 2.743-2.922 2.743-2.922zM39.783 9.376a.724.724 0 00.282-.203.91.91 0 00.283-.69v-.609c0-.243-.04-.568-.283-.812-.282-.243-.685-.284-1.008-.284H34.46v5.317h4.356c.484 0 .847-.082 1.13-.244.322-.203.443-.487.443-.852v-.65a1.086 1.086 0 00-.605-.973zm-3.872-1.461h2.581c.283 0 .363.04.363.04.081.04.081.163.081.203v.487c0 .081 0 .122-.04.162-.04.041-.162.082-.363.082h-2.581v-.974h-.04zm3.025 2.719c0 .08 0 .202-.08.243-.04.04-.122.081-.323.081H35.91V9.944h2.581c.242 0 .323.04.363.08.081.042.081.163.081.244v.366zm7.34-3.816h-4.598v5.276h1.452v-1.948h3.146c.443 0 .766-.081.968-.243.282-.244.322-.61.322-.853V7.914c0-.487-.161-1.096-1.29-1.096zm-.08 1.908c0 .121 0 .162-.081.203-.04.04-.162.08-.283.08H43.13V7.956h2.621c.122 0 .283 0 .364.08.04.041.08.082.08.204v.487zm8.952-1.583c-.322-.284-.887-.284-1.129-.284h-3.871c-.525 0-.847.082-1.049.284-.323.285-.323.812-.323 1.056v2.637c0 .203 0 .73.283 1.015.201.203.564.284 1.129.284h3.831c.404 0 .847-.04 1.13-.325.282-.284.282-.77.282-.933V8.199c0-.284 0-.812-.282-1.056zm-1.17 3.734h-3.79v-2.84h3.79v2.84z"/></g></svg>