<svg width="40" height="40" viewBox="0 0 40 40" fill="none" xmlns="http://www.w3.org/2000/svg">
<circle cx="20" cy="20" r="19.5" fill="white" stroke="#B8B9BA"/>
<path d="M22.2303 12.0272C22.1238 12.0741 21.9433 12.2737 21.8574 12.438C21.6829 12.7755 21.6533 13.2127 21.7835 13.5472L21.8574 13.7409L19.6501 15.6189L17.4427 17.4998L17.3391 17.4176C16.9338 17.1036 16.3538 16.9687 15.8567 17.0743C15.401 17.1682 14.8448 17.5321 14.7945 17.7668C14.7441 18.0016 14.7294 17.9839 16.1053 19.3484C16.8154 20.0527 17.3954 20.6395 17.3954 20.6572C17.3954 20.6718 16.7178 21.3585 15.8922 22.183C13.9778 24.0904 13.6671 24.4278 12.2409 26.1796C12.1314 26.3117 12.0308 26.4672 12.013 26.5259C11.9332 26.8193 12.235 27.0893 12.5161 26.9719C12.6137 26.9338 13.386 26.3234 14.1287 25.6984C14.8803 25.0675 15.5046 24.4865 16.9308 23.0809L18.4044 21.6284L19.6412 22.855L20.881 24.0845L21.0319 24.0992C21.2154 24.1168 21.3012 24.0669 21.4876 23.8409C21.7657 23.5064 21.9018 23.1279 21.9018 22.6965C21.9018 22.274 21.7983 21.9512 21.5497 21.602L21.4491 21.4641L23.3192 19.3015C24.3489 18.1131 25.2011 17.1271 25.2129 17.1124C25.2247 17.0948 25.2928 17.1095 25.3904 17.1506C25.5828 17.2357 26.0207 17.265 26.2367 17.2093C26.574 17.1183 26.9232 16.866 26.9764 16.6723C27.0445 16.4287 27.1184 16.5109 24.8282 14.2368C23.6624 13.0777 22.6712 12.1035 22.6297 12.0741C22.5262 11.9978 22.3427 11.9773 22.2303 12.0272Z" fill="#333333"/>
</svg>
