<svg width="31" height="31" viewBox="0 0 31 31" fill="none" xmlns="http://www.w3.org/2000/svg">
<g opacity="1" clip-path="url(#clip0)">
<path d="M17.5667 13.7944V30.0988H26.6971C27.7777 30.0988 28.6536 29.2229 28.6536 28.1423V13.7944H17.5667Z" fill="white"/>
<path d="M2.56665 13.7944V28.1423C2.56665 29.2229 3.44257 30.0988 4.52315 30.0988H13.6536V13.7944H2.56665Z" fill="white"/>
<path d="M28.6536 5.96844H26.4699C26.7579 5.51258 26.948 5.00088 27.0022 4.45971C27.1753 2.7302 26.2645 1.17981 24.7138 0.492445C23.2885 -0.139372 21.6867 0.11891 20.5333 1.16504L17.7759 3.66407C17.2388 3.07672 16.4669 2.70758 15.6101 2.70758C14.7518 2.70758 13.9786 3.07789 13.4415 3.66705L10.6806 1.16475C9.52526 0.118617 7.92413 -0.138668 6.49942 0.492796C4.94915 1.18022 4.03813 2.73114 4.21181 4.46059C4.26612 5.00135 4.45608 5.51282 4.74407 5.96844H2.56661C1.48603 5.96844 0.610107 6.84442 0.610107 7.92495V10.8597C0.610107 11.4 1.0481 11.838 1.58839 11.838H29.6319C30.1721 11.838 30.6102 11.4 30.6102 10.8597V7.92495C30.6101 6.84442 29.7342 5.96844 28.6536 5.96844ZM12.6753 5.64237V5.96844H8.07319C6.85726 5.96844 5.9003 4.83489 6.20399 3.56891C6.33776 3.01139 6.74019 2.53614 7.26067 2.29555C7.9754 1.9652 8.76712 2.07125 9.36741 2.61459L12.6761 5.61354C12.676 5.62321 12.6753 5.6327 12.6753 5.64237ZM25.0609 4.19996C24.988 5.21674 24.0696 5.96856 23.0502 5.96856H18.5449V5.64248C18.5449 5.63094 18.5442 5.61951 18.5441 5.60797C19.2936 4.92852 20.9196 3.45477 21.8015 2.65537C22.3027 2.2011 23.0041 1.98905 23.6523 2.18241C24.5826 2.45991 25.129 3.25104 25.0609 4.19996Z" fill="white"/>
</g>
<defs>
<clipPath id="clip0">
<rect width="30" height="30" fill="white" transform="translate(0.610107 0.125)"/>
</clipPath>
</defs>
</svg>
