<svg width="31" height="31" viewBox="0 0 31 31" fill="none" xmlns="http://www.w3.org/2000/svg">
<g opacity="1">
<path d="M15.6027 0.125C7.31512 0.125 0.610107 6.83753 0.610107 15.125C0.610107 23.4125 7.31512 30.125 15.6027 30.125C23.8902 30.125 30.6102 23.4125 30.6102 15.125C30.6102 6.83753 23.8901 0.125 15.6027 0.125ZM15.6101 3.17748C16.8626 4.97748 17.8376 6.97999 18.4751 9.12501H12.7452C13.3826 6.97999 14.3576 4.97748 15.6101 3.17748ZM4.00009 18.125C3.75259 17.1651 3.61007 16.16 3.61007 15.125C3.61007 14.09 3.75259 13.085 4.00009 12.125H9.0626C8.94257 13.1075 8.8601 14.105 8.8601 15.125C8.8601 16.145 8.94257 17.1425 9.07012 18.125H4.00009ZM5.22261 21.1251H9.6476C10.1351 23.0001 10.8176 24.8001 11.7176 26.4725C8.95762 25.5275 6.66262 23.6075 5.22261 21.1251ZM9.6476 9.12501H5.22261C6.66262 6.64249 8.95762 4.72253 11.7176 3.77753C10.8176 5.44999 10.1351 7.24999 9.6476 9.12501ZM15.6101 27.0725C14.3651 25.2725 13.3901 23.27 12.7451 21.125H18.4751C17.8302 23.27 16.8551 25.2725 15.6101 27.0725ZM19.1201 18.125H12.1001C11.9576 17.1426 11.8601 16.145 11.8601 15.125C11.8601 14.105 11.9576 13.1075 12.1001 12.125H19.1201C19.2626 13.1075 19.3601 14.105 19.3601 15.125C19.3601 16.145 19.2626 17.1426 19.1201 18.125ZM25.9901 9.12501H21.5652C21.0777 7.24999 20.3952 5.44999 19.4952 3.78498C22.2551 4.72998 24.5501 6.64249 25.9901 9.12501ZM19.5026 26.465C20.4026 24.7925 21.0851 23 21.5726 21.125H25.9976C24.5501 23.6075 22.2551 25.52 19.5026 26.465ZM22.1502 18.125C22.2702 17.1426 22.3602 16.145 22.3602 15.125C22.3602 14.105 22.2777 13.1075 22.1502 12.125H27.2127C27.4602 13.085 27.6101 14.09 27.6101 15.125C27.6101 16.16 27.4676 17.165 27.2127 18.125H22.1502Z" fill="white"/>
</g>
</svg>
