<svg width="31" height="30" viewBox="0 0 31 30" fill="none" xmlns="http://www.w3.org/2000/svg">
<path fill-rule="evenodd" clip-rule="evenodd" d="M24.6109 3.00002H26.1109C27.7683 3.00002 29.1108 4.3425 29.1109 5.99997V27C29.1109 28.6575 27.7683 30 26.1109 30H5.11086C3.45332 30 2.11084 28.6575 2.11084 27L2.12589 6.00004C2.12589 4.3425 3.45339 3.00002 5.11086 3.00002H6.61084V0H9.61086V3.00002H21.6109V0H24.6109V3.00002ZM5.11086 27H26.1109V10.5H5.11086V27ZM20.8154 13.5L22.4054 15.09L13.4954 24L8.72542 19.23L10.3155 17.64L13.4954 20.8201L20.8154 13.5Z" fill="white"/>
</svg>
