<svg width="21" height="41" viewBox="0 0 21 41" fill="none" xmlns="http://www.w3.org/2000/svg">
<g opacity="1">
<path d="M19.7058 23.0027C19.9781 22.8074 20.1138 22.5095 20.085 22.1752C20.0565 21.8409 19.8274 21.5966 19.525 21.4423L12.9145 18.069L20.5518 6.61758C20.811 6.22947 20.7692 5.66908 20.4247 5.34409C20.3535 5.27705 20.2748 5.22218 20.1912 5.17953C19.8702 5.01569 19.4749 5.04068 19.1747 5.25979L1.21177 18.3795C0.942313 18.5763 0.776881 18.937 0.806725 19.2699C0.836733 19.6027 1.01157 19.9506 1.31274 20.1043L7.83611 23.4332L0.518438 34.47C0.261844 34.8574 0.344129 35.3353 0.686437 35.6594C0.756701 35.726 0.837117 35.7754 0.919829 35.8176C1.24024 35.9811 1.63307 35.9609 1.93411 35.7449L19.7058 23.0027Z" fill="white"/>
</g>
</svg>
