<svg width="31" height="31" viewBox="0 0 31 31" fill="none" xmlns="http://www.w3.org/2000/svg">
<g opacity="1" clip-path="url(#clip0)">
<path fill-rule="evenodd" clip-rule="evenodd" d="M15.245 0.277491L6.61232 8.9322C1.94296 13.6523 1.94296 21.3297 6.61076 26.0481L7.13384 26.5765C9.39714 28.865 12.4076 30.125 15.6097 30.125C18.8125 30.125 21.8224 28.865 24.0862 26.5771L24.6093 26.0476C29.2771 21.3297 29.2771 13.6523 24.6093 8.93378L15.9786 0.278019C15.7765 0.073818 15.4477 0.0743454 15.245 0.277491ZM8.97615 24.7166L8.45307 24.1877C8.24988 23.9818 8.24988 23.6487 8.45371 23.4435C8.65742 23.2382 8.98723 23.2377 9.19094 23.444L9.71349 23.9729C11.288 25.5645 13.3825 26.4408 15.6098 26.4408C17.8377 26.4408 19.9316 25.5645 21.5066 23.9724L22.0297 23.444C22.2329 23.2382 22.5627 23.2387 22.7664 23.4435C22.9696 23.6492 22.9696 23.9824 22.7664 24.1882L22.2433 24.7166C20.4713 26.5076 18.1159 27.4934 15.6097 27.4934C13.1042 27.4934 10.7481 26.5076 8.97615 24.7166ZM16.0865 13.3736C16.6528 13.6074 17.2201 13.8416 17.7574 14.1385C19.6898 15.2068 20.2095 17.6334 18.8447 19.2916C18.3537 19.8911 17.7159 20.2929 16.9665 20.497C16.6413 20.5862 16.4946 20.7584 16.5106 21.0964C16.5188 21.3098 16.5151 21.5244 16.5114 21.7386C16.5094 21.8575 16.5074 21.9762 16.5074 22.0945C16.5074 22.3911 16.3575 22.5505 16.0641 22.5569C15.707 22.5665 15.3467 22.5665 14.9895 22.5601C14.6738 22.5537 14.5271 22.3751 14.5239 22.069C14.5224 21.9479 14.5216 21.8259 14.5208 21.704C14.52 21.582 14.5192 21.46 14.5176 21.3388C14.5112 20.8031 14.4952 20.7808 13.9787 20.6978C13.3186 20.5926 12.6713 20.4427 12.0654 20.1494C11.5903 19.9166 11.5393 19.7986 11.6764 19.3012L11.6764 19.3011C11.7784 18.9312 11.8805 18.5613 11.9952 18.1947C12.1292 17.7705 12.244 17.7163 12.6362 17.9204C13.3058 18.268 14.0169 18.4625 14.7599 18.555C15.2414 18.6156 15.7102 18.5677 16.1534 18.3732C16.9825 18.0097 17.11 17.0499 16.4117 16.4727C16.1757 16.275 15.9047 16.1315 15.6209 16.0072C15.3897 15.9048 15.1553 15.8104 14.9211 15.7161C14.4186 15.5139 13.9169 15.3119 13.4493 15.0314C12.3364 14.3649 11.6285 13.4498 11.7114 12.0945C11.8039 10.5639 12.6713 9.60728 14.0743 9.09708C14.0844 9.09341 14.0944 9.08981 14.1041 9.08628C14.6548 8.88677 14.6579 8.88563 14.6611 8.29032C14.6624 8.20142 14.662 8.1131 14.6616 8.02511C14.6611 7.90798 14.6606 7.79143 14.6643 7.67489C14.677 7.21889 14.7535 7.13917 15.2063 7.12642C15.2999 7.12429 15.3934 7.125 15.487 7.12571C15.5337 7.12606 15.5805 7.12642 15.6273 7.12642C16.1125 7.12642 16.3548 7.12642 16.4763 7.24759C16.5975 7.3685 16.5982 7.61005 16.5998 8.09262V8.09266C16.603 8.7782 16.603 8.78139 17.2854 8.88662C17.8084 8.96953 18.3058 9.12259 18.7905 9.33624C19.0552 9.45422 19.1572 9.63917 19.0743 9.91978C19.0294 10.0708 18.9861 10.2222 18.9428 10.3736C18.8664 10.641 18.79 10.9083 18.7044 11.173C18.5769 11.5652 18.4525 11.6226 18.0762 11.4408C17.3205 11.0773 16.5265 10.9242 15.691 10.9689C15.4742 10.9816 15.2606 11.0103 15.0565 11.0996C14.3358 11.4153 14.2178 12.2125 14.8333 12.7036C15.1458 12.9523 15.4997 13.1309 15.8696 13.2839C15.9418 13.3139 16.0141 13.3438 16.0865 13.3736Z" fill="white"/>
</g>
<defs>
<clipPath id="clip0">
<rect width="30" height="30" fill="white" transform="translate(0.610107 0.125)"/>
</clipPath>
</defs>
</svg>
