<svg width="31" height="31" viewBox="0 0 31 31" fill="none" xmlns="http://www.w3.org/2000/svg">
<g opacity="1" clip-path="url(#clip0)">
<path d="M29.1101 13.6656H23.2001C23.0956 13.6518 22.9896 13.6518 22.8851 13.6656H22.6301C22.5517 13.7091 22.4765 13.7578 22.4051 13.8115C22.3216 13.8651 22.2414 13.9235 22.1651 13.9865C22.115 14.0461 22.0699 14.1095 22.0301 14.1761C21.9614 14.268 21.9011 14.3656 21.8501 14.4678L19.4501 20.8995L13.1951 4.41911C13.09 4.13756 12.8983 3.89429 12.646 3.72238C12.3938 3.55047 12.0932 3.45825 11.7851 3.45825C11.477 3.45825 11.1765 3.55047 10.9242 3.72238C10.6719 3.89429 10.4802 4.13756 10.3751 4.41911L6.91011 13.6656H2.11011C1.71228 13.6656 1.33075 13.8193 1.04945 14.0928C0.768143 14.3663 0.610107 14.7373 0.610107 15.1241C0.610107 15.5109 0.768143 15.8818 1.04945 16.1553C1.33075 16.4288 1.71228 16.5825 2.11011 16.5825H8.56011C8.64537 16.5426 8.72585 16.4937 8.80011 16.4367C8.88363 16.383 8.96377 16.3246 9.04011 16.2616L9.17511 16.072C9.2466 15.982 9.30701 15.8841 9.35511 15.7804L11.7851 9.17362L18.0251 25.829C18.1299 26.1109 18.3215 26.3545 18.5738 26.5267C18.8261 26.699 19.1268 26.7915 19.4351 26.7916C19.7434 26.7915 20.0441 26.699 20.2964 26.5267C20.5487 26.3545 20.7403 26.1109 20.8451 25.829L24.2951 16.5825H29.1101C29.5079 16.5825 29.8895 16.4288 30.1708 16.1553C30.4521 15.8818 30.6101 15.5109 30.6101 15.1241C30.6101 14.7373 30.4521 14.3663 30.1708 14.0928C29.8895 13.8193 29.5079 13.6656 29.1101 13.6656Z" fill="white"/>
</g>
<defs>
<clipPath id="clip0">
<rect width="30" height="30" fill="white" transform="translate(0.610107 0.125)"/>
</clipPath>
</defs>
</svg>
