<svg width="31" height="31" viewBox="0 0 31 31" fill="none" xmlns="http://www.w3.org/2000/svg">
<g opacity="1" clip-path="url(#clip0)">
<path fill-rule="evenodd" clip-rule="evenodd" d="M13.9247 4.18901C13.8406 4.11214 13.7547 4.0352 13.6658 3.95827C11.9356 2.46026 8.92685 0.674561 4.4187 0.674561C3.93331 0.674561 3.53979 1.06808 3.53979 1.55347V2.18194C7.93989 2.42259 11.5806 3.38903 13.9247 4.18901ZM19.9052 3.33015C22.3771 2.69159 24.9842 2.30534 27.6791 2.17544V1.55347C27.6791 1.06808 27.2856 0.674561 26.8002 0.674561C22.292 0.674561 19.2833 2.46026 17.5532 3.95827C17.5069 3.99829 17.4617 4.03831 17.4167 4.07833C18.1312 3.83106 18.9623 3.57372 19.9052 3.33015ZM15.6101 6.70594C17.059 6.00568 22.0819 3.88324 29.7312 3.88324C30.2166 3.88324 30.6101 4.2767 30.6101 4.76215V25.7669C30.6101 26.2523 30.2166 26.6459 29.7312 26.6459C21.2164 26.6459 16.0873 29.437 16.0365 29.4652C16.0349 29.4661 16.0333 29.4669 16.0316 29.4677C16.0303 29.4683 16.029 29.469 16.0276 29.4697C16.0239 29.4717 16.0202 29.4736 16.0165 29.4756C16.0124 29.4776 16.0084 29.4796 16.0043 29.4817C15.9944 29.4867 15.9845 29.4916 15.9744 29.4961C15.9664 29.4998 15.9584 29.5032 15.9504 29.5066C15.9402 29.5109 15.9299 29.515 15.9195 29.5189C15.9116 29.5219 15.9035 29.5248 15.8955 29.5276C15.8849 29.5312 15.8743 29.5346 15.8636 29.5378C15.8556 29.5402 15.8476 29.5426 15.8396 29.5448C15.8286 29.5478 15.8175 29.5504 15.8064 29.5529C15.7986 29.5547 15.7908 29.5566 15.783 29.5581C15.7781 29.5591 15.7732 29.56 15.7683 29.5609C15.7614 29.5621 15.7546 29.5632 15.7477 29.5643C15.7456 29.5646 15.7435 29.565 15.7414 29.5653C15.7362 29.5662 15.7309 29.567 15.7257 29.5677C15.7127 29.5694 15.6996 29.5707 15.6866 29.5718C15.684 29.572 15.6814 29.5723 15.6788 29.5726C15.6752 29.5729 15.6716 29.5733 15.6679 29.5736C15.6487 29.5748 15.6294 29.5755 15.6101 29.5755H15.61C15.4769 29.5755 15.3435 29.5453 15.2203 29.4844C15.1364 29.4432 9.35218 26.6459 1.48901 26.6459C1.00362 26.6459 0.610107 26.2523 0.610107 25.7669V4.76215C0.610107 4.27676 1.00362 3.88324 1.48901 3.88324C8.7046 3.88324 14.1381 6.06592 15.6101 6.72299V6.70594ZM4.38278 7.78646C4.20044 7.95299 4.09661 8.18853 4.09661 8.43545V11.951C4.09661 12.4056 4.44331 12.7852 4.89606 12.8263C7.32542 13.0468 9.64954 13.4981 11.8039 14.1677C11.8894 14.1943 11.9773 14.2073 12.0647 14.2073C12.25 14.2073 12.4331 14.1487 12.5859 14.0361C12.8108 13.8704 12.9436 13.6077 12.9436 13.3284V9.81275C12.9436 9.42785 12.6931 9.08771 12.3256 8.97345C10.0534 8.26728 7.6072 7.79179 5.05497 7.56011C4.8087 7.53785 4.56507 7.61994 4.38278 7.78646ZM12.065 24.7544C12.4398 24.7544 12.787 24.5128 12.9041 24.1361C13.0482 23.6726 12.7892 23.18 12.3255 23.0359C10.0534 22.3297 7.60714 21.8542 5.05491 21.6226C4.57187 21.5785 4.14407 21.935 4.10019 22.4184C4.0563 22.9018 4.41267 23.3293 4.89606 23.3732C7.32542 23.5937 9.64954 24.045 11.8039 24.7145C11.8908 24.7416 11.9786 24.7544 12.065 24.7544ZM12.065 21.2388C12.4398 21.2388 12.787 20.9972 12.9041 20.6205C13.0482 20.1569 12.7892 19.6644 12.3255 19.5203C10.0534 18.8141 7.60714 18.3386 5.05491 18.1069C4.57187 18.063 4.14407 18.4194 4.10019 18.9028C4.0563 19.3862 4.41267 19.8137 4.89606 19.8575C7.32542 20.0781 9.64954 20.5294 11.8039 21.1989C11.8908 21.2259 11.9786 21.2388 12.065 21.2388ZM12.065 17.7231C12.4398 17.7231 12.787 17.4816 12.9041 17.1049C13.0482 16.6413 12.7892 16.1488 12.3255 16.0046C10.0534 15.2985 7.60714 14.823 5.05491 14.5913C4.57187 14.547 4.14407 14.9037 4.10019 15.3872C4.0563 15.8706 4.41267 16.298 4.89606 16.3419C7.32542 16.5625 9.64954 17.0137 11.8039 17.6833C11.8908 17.7103 11.9786 17.7231 12.065 17.7231ZM19.387 24.7147C21.5414 24.0451 23.8656 23.5938 26.2949 23.3733C26.7783 23.3294 27.1346 22.9019 27.0907 22.4186C27.0468 21.9352 26.619 21.5788 26.1359 21.6227C23.5838 21.8544 21.1376 22.3299 18.8653 23.0361C18.4017 23.1802 18.1428 23.6727 18.2868 24.1362C18.4039 24.5129 18.7511 24.7545 19.1259 24.7545C19.2123 24.7545 19.3002 24.7416 19.387 24.7147ZM19.387 21.199C21.5414 20.5295 23.8656 20.0782 26.2949 19.8577C26.7783 19.8138 27.1346 19.3863 27.0907 18.903C27.0468 18.4195 26.619 18.063 26.1359 18.1071C23.5838 18.3388 21.1376 18.8143 18.8653 19.5204C18.4017 19.6645 18.1428 20.1571 18.2868 20.6206C18.4039 20.9973 18.7511 21.2389 19.1259 21.2389C19.2123 21.2389 19.3002 21.226 19.387 21.199ZM19.387 17.6834C21.5414 17.0139 23.8656 16.5626 26.2949 16.342C26.7783 16.2981 27.1346 15.8706 27.0907 15.3874C27.0468 14.9039 26.619 14.5476 26.1359 14.5915C23.5838 14.8232 21.1376 15.2986 18.8653 16.0048C18.4017 16.1489 18.1428 16.6414 18.2868 17.105C18.4039 17.4817 18.7511 17.7233 19.1259 17.7233C19.2123 17.7233 19.3002 17.7104 19.387 17.6834ZM19.387 14.1677C21.5414 13.4982 23.8656 13.0469 26.2949 12.8263C26.7783 12.7825 27.1346 12.355 27.0907 11.8717C27.0468 11.3882 26.619 11.0316 26.1359 11.0758C23.5838 11.3075 21.1376 11.783 18.8653 12.4891C18.4017 12.6332 18.1428 13.1258 18.2868 13.5893C18.4039 13.966 18.7511 14.2076 19.1259 14.2076C19.2123 14.2076 19.3002 14.1947 19.387 14.1677ZM19.387 10.6521C21.5414 9.98256 23.8656 9.53127 26.2949 9.31072C26.7783 9.26683 27.1346 8.83939 27.0907 8.35605C27.0468 7.87259 26.619 7.51623 26.1359 7.56017C23.5838 7.79185 21.1376 8.26734 18.8653 8.97351C18.4017 9.11759 18.1428 9.61013 18.2868 10.0737C18.4039 10.4504 18.7511 10.6919 19.1259 10.6919C19.2123 10.6919 19.3002 10.6791 19.387 10.6521Z" fill="white"/>
<defs>
<clipPath id="clip0">
<rect width="30" height="30" fill="white" transform="translate(0.610107 0.125)"/>
</clipPath>
</defs>
</g>
</svg>
