<svg width="28" height="31" viewBox="0 0 28 31" fill="none" xmlns="http://www.w3.org/2000/svg">
<g opacity="1">
<path d="M16.541 18.1847V18.7673H17.1236C18.0889 18.7673 18.871 17.9849 18.871 17.0196V16.4373H18.2885C17.3234 16.4373 16.541 17.2194 16.541 18.1847Z" fill="white"/>
<path d="M15.9431 12.9419C15.9486 12.948 15.9538 12.9535 15.9584 12.9599C15.9632 12.9535 15.9682 12.948 15.9736 12.9419H15.9431Z" fill="white"/>
<path d="M16.541 14.6896V15.2721H17.1236C18.0889 15.2721 18.871 14.4896 18.871 13.5245V12.9419H18.2885C17.3234 12.9419 16.541 13.724 16.541 14.6896Z" fill="white"/>
<path d="M16.541 11.7768H17.1236C18.0889 11.7768 18.871 10.9942 18.871 10.0291V9.44653H18.2885C17.3234 9.44653 16.541 10.2289 16.541 11.1942V11.7768Z" fill="white"/>
<path d="M4.11787 20.4657L0.641113 23.6549H9.85077L6.37402 20.4657C5.7283 19.8994 4.76327 19.8994 4.11787 20.4657ZM4.44002 22.4455H3.63425V21.6392H4.44002V22.4455ZM6.45444 22.8487H5.64867V22.0424H6.45444V22.8487Z" fill="white"/>
<path d="M15.9431 16.4373C15.9486 16.4434 15.9538 16.4489 15.9584 16.455C15.9632 16.4489 15.9682 16.4434 15.9736 16.4373H15.9431Z" fill="white"/>
<path d="M1.41233e-06 24.8748C-0.00125968 26.5277 0.842099 28.0663 2.23561 28.9538C2.35132 29.0279 2.42115 29.1558 2.42115 29.2934V30.125H8.07087V29.2942C8.07102 29.1566 8.14102 29.0287 8.2564 28.9545C9.65023 28.0671 10.4937 26.5278 10.492 24.8748V24.4709H1.41233e-06V24.8748Z" fill="white"/>
<path d="M14.7933 11.7768H15.3759V11.1942C15.3759 10.2289 14.5935 9.44653 13.6282 9.44653H13.0457V10.0291C13.0457 10.9942 13.8282 11.7768 14.7933 11.7768Z" fill="white"/>
<path d="M16.6231 7.69895C16.6231 6.82328 16.3255 6.11328 15.9584 6.11328C15.5914 6.11328 15.2939 6.82328 15.2939 7.69895C15.2939 8.57484 15.5914 9.28461 15.9584 9.28461C16.3255 9.28461 16.6231 8.57484 16.6231 7.69895Z" fill="white"/>
<path d="M14.7933 18.7673H15.3759V18.1847C15.3759 17.2194 14.5935 16.4373 13.6282 16.4373H13.0457V17.0196C13.0457 17.9849 13.8282 18.7673 14.7933 18.7673Z" fill="white"/>
<path d="M14.7933 15.2721H15.3759V14.6896C15.3759 13.724 14.5935 12.9419 13.6282 12.9419H13.0457V13.5245C13.0457 14.4896 13.8282 15.2721 14.7933 15.2721Z" fill="white"/>
<path d="M26.2398 24.1064C25.9936 23.7776 25.8607 23.3778 25.8616 22.967V21.0637C25.8616 21.0341 25.8641 21.0045 25.8687 20.9754C26.2496 18.505 26.4649 16.0118 26.5129 13.5129C26.4638 11.0213 26.2485 8.53607 25.8687 6.0736C25.8641 6.04425 25.8616 6.01466 25.8616 5.98485V3.64254C25.8616 3.51647 25.9026 3.39381 25.9781 3.29323L27.4634 1.30204C27.6202 1.09155 27.6535 0.81392 27.5511 0.572703C27.412 0.287338 27.1173 0.112113 26.8008 0.125767H5.11599C4.799 0.111886 4.50407 0.287338 4.36503 0.572703C4.26286 0.814375 4.29631 1.09269 4.45333 1.30318L5.67671 2.94232C5.92316 3.27115 6.0556 3.67121 6.05492 4.08196V5.98485C6.05492 6.01466 6.05265 6.04425 6.0481 6.0736C5.66715 8.54381 5.45188 11.037 5.40363 13.5361C5.43618 15.2255 5.55041 16.958 5.74088 18.6624L11.1091 23.5835C11.1125 23.5862 11.1143 23.5908 11.118 23.5942C11.1294 23.6067 11.1403 23.6201 11.1498 23.634C11.1997 23.6882 11.2372 23.7526 11.2593 23.8227C11.2768 23.8711 11.2871 23.9221 11.2905 23.9735C11.2905 23.9877 11.2978 23.9986 11.2978 24.0127V25.1778C11.295 25.7656 11.2284 26.3516 11.0993 26.9253H26.8008C27.1175 26.9394 27.4127 26.7637 27.5517 26.4786C27.6539 26.2364 27.6202 25.9586 27.463 25.7481L26.2398 24.1064ZM11.8803 13.5245V12.3594C11.8803 12.0376 12.1411 11.7768 12.4629 11.7768H12.4784C12.0926 11.2757 11.8826 10.6615 11.8803 10.0291V6.53396H13.0455V8.28143H13.628C13.8189 8.28211 14.0092 8.30168 14.196 8.33991C13.922 7.00184 14.4925 5.63236 15.6351 4.88458C15.8308 4.75396 16.0859 4.75396 16.2816 4.88458C17.424 5.63236 17.9943 7.00184 17.7205 8.33991C17.9076 8.30168 18.0978 8.28211 18.2883 8.28143H18.8709V6.53396H20.036V10.0291C20.0339 10.6615 19.8239 11.2757 19.4384 11.7768H19.4534C19.7752 11.7768 20.036 12.0376 20.036 12.3594V13.5245C20.0339 14.1567 19.8239 14.7709 19.4384 15.2722H19.4534C19.7752 15.2722 20.036 15.533 20.036 15.8548V17.0196C20.0344 18.6274 18.7314 19.9304 17.1234 19.9325H16.5408V22.2627H15.3757V19.9325H14.7931C13.1854 19.9304 11.8824 18.6274 11.8803 17.0196V15.8548C11.8803 15.533 12.1411 15.2722 12.4629 15.2722H12.4784C12.0926 14.7709 11.8826 14.1567 11.8803 13.5245ZM23.5314 24.593H12.4629V23.4278H23.5314V24.593ZM24.1139 3.62115H7.80238V2.45602H24.1139V3.62115Z" fill="white"/>
</g>
</svg>
