<svg width="35" height="31" viewBox="0 0 35 31" fill="none" xmlns="http://www.w3.org/2000/svg">
<g opacity="1">
<path d="M5.64261 21.625H0V24.125H3.44427L5.64261 21.625Z" fill="white"/>
<path d="M33.5577 11.125L26.3943 3.16175C24.8513 1.232 22.678 0.125 20.4318 0.125C18.1855 0.125 16.0123 1.232 14.4693 3.16175L7.30587 11.125H0V13.625H14.553L15.6314 12.125L17.0335 10.175C18.2001 8.55425 19.9012 7.625 21.7012 7.625C23.5013 7.625 25.2023 8.55425 26.3683 10.175L27.771 12.125L28.85 13.625H35V11.125H33.5577ZM16.3157 5.222L12.7841 9.64025L11.8619 8.6105L15.3934 4.19225C16.0288 3.3965 16.7834 2.76875 17.6371 2.324L18.1493 3.6965C17.4518 4.0595 16.8348 4.57325 16.3157 5.222ZM20.4318 3.125C20.0509 3.125 19.6676 3.17225 19.2912 3.2645L19.0335 1.79525C19.4937 1.682 19.9646 1.625 20.4318 1.625V3.125Z" fill="white"/>
<path d="M25.4009 11.1462C24.4767 9.8615 23.128 9.125 21.7011 9.125C20.2743 9.125 18.9255 9.8615 18.0014 11.1462L15.1223 15.1498C17.5717 15.275 19.9157 16.5192 21.604 18.632L24.7954 22.625L25.9943 24.125H34.9999V21.625H33.6579L25.4009 11.1462ZM28.5319 17.8153L29.4846 19.1398L28.518 20.111L27.5653 18.7865L28.5319 17.8153ZM23.4663 13.0895C23.0251 12.4767 22.3815 12.125 21.7011 12.125V10.625C22.7548 10.625 23.7506 11.1695 24.4336 12.1183L27.3266 16.139L26.3599 17.1102L23.4663 13.0895Z" fill="white"/>
<path d="M20.6819 19.6617C19.1389 17.732 16.9656 16.625 14.7193 16.625C12.4731 16.625 10.2998 17.732 8.75683 19.6617L1.59344 27.625H0V30.125H35V27.625H27.8453L20.6819 19.6617ZM9.68034 20.693C9.9393 20.3682 10.2243 20.066 10.5277 19.7945L11.2951 20.99C11.0469 21.212 10.8146 21.458 10.6039 21.7228L10.4426 21.9245L9.51912 20.8962L9.68034 20.693ZM8.64703 21.9845L9.57054 23.0143L8.69907 24.1047L7.77556 23.075L8.64703 21.9845ZM6.9041 24.1655L7.82761 25.1952L6.95614 26.2858L6.03263 25.256L6.9041 24.1655Z" fill="white"/>
</g>
</svg>
