<svg width="30" height="31" viewBox="0 0 30 31" fill="none" xmlns="http://www.w3.org/2000/svg">
<g opacity="1">
<path d="M17.6491 1.86109C17.6491 0.903808 16.9684 0.125 16.1318 0.125H13.8678C13.0312 0.125 12.3506 0.903808 12.3506 1.86109V4.45665H17.6491V1.86109Z" fill="white"/>
<path d="M15.2221 10.9865L24.0167 13.6159V7.12655C24.0167 6.76342 23.7586 6.46802 23.4412 6.46802H6.55866C6.24132 6.46802 5.98315 6.76342 5.98315 7.12655V13.6159L14.7778 10.9865C14.9234 10.9429 15.0764 10.9429 15.2221 10.9865Z" fill="white"/>
<path d="M29.121 28.1135C28.151 28.1135 27.7134 27.8642 27.1594 27.5485C26.8993 27.4003 26.625 27.244 26.2977 27.1109C25.8433 26.9261 25.2864 26.7859 24.5234 26.7736L27.7413 17.5043C27.8126 17.2841 27.7556 17.1009 27.715 17.0109C27.6741 16.9201 27.5755 16.7588 27.3744 16.6987L14.9999 12.999L2.62559 16.6987C2.42438 16.7588 2.32576 16.9201 2.28492 17.0109C2.24432 17.101 2.1873 17.2844 2.25873 17.5046L5.46949 26.7737C4.70672 26.7869 4.15043 26.9279 3.69633 27.1135C3.37178 27.246 3.09926 27.4012 2.8408 27.5485C2.28668 27.8642 1.84904 28.1136 0.878906 28.1136C0.393516 28.1136 0 28.5639 0 29.1193C0 29.6747 0.393516 30.125 0.878906 30.125C2.26242 30.125 2.98594 29.7128 3.62426 29.3491C3.87299 29.2074 4.09852 29.0794 4.35896 28.981C4.67883 28.8601 5.05143 28.7841 5.58615 28.7841C5.7082 28.7841 5.82176 28.7881 5.92828 28.7956C6.6682 28.8479 7.06365 29.0732 7.54805 29.3492C8.18637 29.7128 8.90988 30.125 10.2934 30.125C11.6769 30.125 12.4003 29.7128 13.0387 29.3492C13.5928 29.0335 14.0304 28.7841 15.0004 28.7841C15.9704 28.7841 16.408 29.0335 16.9621 29.3492C17.6004 29.7128 18.3238 30.125 19.7073 30.125C21.0908 30.125 21.8142 29.7128 22.4525 29.3492C22.9385 29.0723 23.335 28.8466 24.0793 28.7952C24.1837 28.788 24.2949 28.7841 24.4143 28.7841C24.9431 28.7841 25.3133 28.8586 25.6308 28.9772C25.8956 29.0761 26.124 29.2056 26.3759 29.3492C27.0142 29.7128 27.7377 30.125 29.1212 30.125C29.6065 30.125 30.0001 29.6748 30.0001 29.1193C30.0001 28.5639 29.6064 28.1135 29.121 28.1135ZM6.87434 18.1458L14.7778 15.7828C14.9234 15.7393 15.0765 15.7393 15.2221 15.7828L23.1255 18.1458C23.5952 18.2862 23.8764 18.8357 23.7537 19.373C23.6505 19.8252 23.2941 20.1248 22.904 20.1248C22.8305 20.1248 22.7557 20.1141 22.6812 20.0918L14.9999 17.7953L7.31871 20.0918C6.84908 20.2322 6.36885 19.9104 6.24615 19.373C6.12346 18.8357 6.40471 18.2862 6.87434 18.1458Z" fill="white"/>
</g>
</svg>
