<svg width="30" height="31" viewBox="0 0 30 31" fill="none" xmlns="http://www.w3.org/2000/svg">
<g opacity="1" clip-path="url(#clip0)">
<path fill-rule="evenodd" clip-rule="evenodd" d="M19.0764 1.32827C20.0762 1.97525 20.9077 2.85104 21.5018 3.88316C22.4503 3.94815 23.3388 4.37048 23.9881 5.06492C24.6374 5.75936 24.9991 6.67423 25.0003 7.62492H3.75005C3.7504 6.91552 3.90163 6.21429 4.19372 5.56781C4.48581 4.92132 4.91207 4.34436 5.44421 3.87522C5.97634 3.40608 6.60218 3.05549 7.28018 2.84674C7.95818 2.63798 8.67283 2.57582 9.37668 2.6644C10.1644 1.77118 11.1535 1.07838 12.2621 0.643333C13.3707 0.208286 14.567 0.043498 15.752 0.162605C16.9369 0.281712 18.0765 0.681289 19.0764 1.32827ZM10.5557 6.16424C10.7612 6.3016 11.0029 6.37491 11.2501 6.37491C11.5817 6.37491 11.8996 6.24321 12.134 6.00879C12.3685 5.77437 12.5002 5.45642 12.5002 5.12489C12.5002 4.87767 12.4268 4.63599 12.2895 4.43042C12.1521 4.22486 11.9569 4.06464 11.7285 3.97003C11.5001 3.87542 11.2488 3.85067 11.0063 3.8989C10.7638 3.94713 10.5411 4.06618 10.3663 4.241C10.1914 4.41582 10.0724 4.63855 10.0241 4.88103C9.97592 5.12351 10.0007 5.37484 10.0953 5.60325C10.1899 5.83167 10.3501 6.02689 10.5557 6.16424ZM15.5557 4.91423C15.7613 5.05158 16.003 5.12489 16.2502 5.12489C16.5817 5.12489 16.8997 4.9932 17.1341 4.75877C17.3685 4.52435 17.5002 4.2064 17.5002 3.87488C17.5002 3.62765 17.4269 3.38597 17.2896 3.18041C17.1522 2.97485 16.957 2.81463 16.7286 2.72002C16.5002 2.62541 16.2488 2.60065 16.0063 2.64888C15.7639 2.69712 15.5411 2.81617 15.3663 2.99099C15.1915 3.1658 15.0724 3.38854 15.0242 3.63101C14.976 3.87349 15.0007 4.12483 15.0953 4.35324C15.19 4.58165 15.3502 4.77688 15.5557 4.91423ZM23.7501 25.1041C23.7553 26.0343 23.4139 26.9331 22.7923 27.6252H30.0004V30.125H0V27.625H7.20806C6.5865 26.9329 6.24502 26.0341 6.25022 25.1039C6.25542 24.1737 6.60693 23.2788 7.23618 22.5937C7.04415 22.5527 6.86451 22.4669 6.71187 22.3434C6.55923 22.2198 6.4379 22.062 6.35773 21.8828L1.35767 10.6326C1.27309 10.4423 1.2374 10.2339 1.25385 10.0262C1.2703 9.81862 1.33836 9.6184 1.45185 9.44377C1.56535 9.26914 1.72068 9.12564 1.90373 9.0263C2.08679 8.92696 2.29176 8.87493 2.50003 8.87494H27.5003C27.7086 8.87492 27.9136 8.92694 28.0967 9.02629C28.2798 9.12564 28.4351 9.26916 28.5486 9.44381C28.6621 9.61846 28.7302 9.81871 28.7466 10.0263C28.763 10.234 28.7273 10.4424 28.6427 10.6328L23.6426 21.8829C23.5625 22.0622 23.4411 22.22 23.2885 22.3435C23.1358 22.4671 22.9562 22.5528 22.7642 22.5939C23.3934 23.279 23.7449 24.1739 23.7501 25.1041ZM20.6947 24.0858C20.4891 23.9484 20.2475 23.8751 20.0002 23.8751C19.6688 23.8755 19.3511 24.0073 19.1168 24.2417C18.8824 24.476 18.7506 24.7937 18.7502 25.1251C18.7502 25.3724 18.8235 25.614 18.9609 25.8196C19.0982 26.0252 19.2935 26.1854 19.5219 26.28C19.7503 26.3746 20.0016 26.3994 20.2441 26.3511C20.4866 26.3029 20.7093 26.1839 20.8841 26.009C21.059 25.8342 21.178 25.6115 21.2262 25.369C21.2745 25.1265 21.2497 24.8752 21.1551 24.6468C21.0605 24.4184 20.9003 24.2231 20.6947 24.0858ZM11.0395 25.8196C11.1768 25.614 11.2501 25.3724 11.2501 25.1251C11.2498 24.7937 11.1179 24.476 10.8836 24.2417C10.6493 24.0073 10.3315 23.8755 10.0001 23.8751C9.75289 23.8751 9.51121 23.9484 9.30565 24.0858C9.10009 24.2231 8.93987 24.4184 8.84526 24.6468C8.75065 24.8752 8.72589 25.1265 8.77412 25.369C8.82236 25.6115 8.94141 25.8342 9.11623 26.009C9.29104 26.1839 9.51377 26.3029 9.75625 26.3511C9.99873 26.3994 10.2501 26.3746 10.4785 26.28C10.7069 26.1854 10.9021 26.0252 11.0395 25.8196ZM17.2082 22.6251H12.7922C13.409 23.3117 13.7502 24.2022 13.7502 25.1251C13.7502 26.0481 13.409 26.9385 12.7922 27.6252H17.2082C16.5914 26.9385 16.2502 26.0481 16.2502 25.1251C16.2502 24.2022 16.5914 23.3117 17.2082 22.6251Z" fill="white"/>
</g>
<defs>
<clipPath id="clip0">
<rect width="30" height="30" fill="white" transform="translate(0 0.125)"/>
</clipPath>
</defs>
</svg>
