<svg width="33" height="28" viewBox="0 0 33 28" fill="none" xmlns="http://www.w3.org/2000/svg">
<g opacity="1">
<path d="M2.77954 21.8238V27.0109C2.77954 27.3265 3.03594 27.5894 3.35808 27.5894H7.36842C7.68399 27.5894 7.94696 27.333 7.94696 27.0109V17.8857L5.03453 20.7982C4.41655 21.4096 3.62763 21.7646 2.77954 21.8238Z" fill="white"/>
<path d="M9.9458 17.8203V27.0112C9.9458 27.3268 10.2022 27.5898 10.5243 27.5898H14.5347C14.8502 27.5898 15.1132 27.3334 15.1132 27.0112V21.6005C14.1994 21.5808 13.3447 21.2192 12.7004 20.575L9.9458 17.8203Z" fill="white"/>
<path d="M17.1116 21.0283V27.0109C17.1116 27.3265 17.368 27.5895 17.6901 27.5895H21.7004C22.016 27.5895 22.279 27.3331 22.279 27.0109V15.9727L17.6835 20.5681C17.506 20.7456 17.3154 20.8968 17.1116 21.0283Z" fill="white"/>
<path d="M29.0571 9.1875L24.2776 13.967V27.0105C24.2776 27.3261 24.534 27.589 24.8561 27.589H28.8665C29.182 27.589 29.445 27.3326 29.445 27.0105V9.54909C29.3135 9.43732 29.2149 9.33871 29.1426 9.27297L29.0571 9.1875Z" fill="white"/>
<path d="M32.3378 0.720126C32.1471 0.516322 31.8579 0.411133 31.4897 0.411133C31.4568 0.411133 31.4174 0.411133 31.3845 0.411133C29.5174 0.496599 27.6569 0.58864 25.7898 0.674106C25.5399 0.687254 25.1981 0.700403 24.9285 0.96995C24.8431 1.05542 24.7773 1.15403 24.7247 1.27237C24.4486 1.87063 24.8365 2.25852 25.0206 2.4426L25.4874 2.91595C25.8095 3.24467 26.1382 3.57338 26.4669 3.89552L15.1854 15.1836L10.1166 10.1148C9.81416 9.81242 9.40655 9.64148 8.97265 9.64148C8.53874 9.64148 8.13771 9.81242 7.83529 10.1148L1.08346 16.8601C0.452324 17.4912 0.452324 18.5103 1.08346 19.1414L1.38588 19.4438C1.6883 19.7462 2.0959 19.9172 2.52981 19.9172C2.96372 19.9172 3.36475 19.7462 3.66717 19.4438L8.97265 14.1383L14.0415 19.2071C14.3439 19.5095 14.7515 19.6805 15.1854 19.6805C15.6193 19.6805 16.0203 19.5095 16.3293 19.2071L29.0572 6.47923L30.497 7.91244C30.6679 8.08337 30.9046 8.32004 31.2662 8.32004C31.4174 8.32004 31.5686 8.2806 31.7264 8.19513C31.8316 8.13596 31.9236 8.07022 32.0025 7.99133C32.2852 7.70863 32.3378 7.34704 32.3509 7.06435C32.4035 5.85467 32.4627 4.645 32.5219 3.42875L32.6073 1.60766C32.6271 1.22635 32.5416 0.930504 32.3378 0.720126Z" fill="white"/>
</g>
</svg>
