<svg width="31" height="31" viewBox="0 0 31 31" fill="none" xmlns="http://www.w3.org/2000/svg">
<g opacity="1">
<path d="M14.1936 1.09274C14.1936 0.806814 14.067 0.535541 13.8479 0.351775C13.6288 0.168009 13.3392 0.0897608 13.0577 0.139823C10.6819 0.562302 8.49852 1.53994 6.64581 2.93376C6.42195 3.10216 6.28214 3.35949 6.2626 3.63901C6.24307 3.91852 6.34604 4.19254 6.54416 4.39066L11.5342 9.38072C11.8393 9.68578 12.3101 9.75212 12.6872 9.54251C12.9661 9.38744 13.258 9.25302 13.5609 9.1415C13.9412 9.00149 14.1936 8.63925 14.1936 8.23407V1.09274Z" fill="white"/>
<path d="M17.2461 8.23407C17.2461 8.63935 17.4989 9.00149 17.8794 9.1414C19.5978 9.77339 20.9619 11.1376 21.5939 12.856C21.7338 13.2364 22.0962 13.489 22.5014 13.489H29.6435C29.9297 13.489 30.2011 13.3622 30.3847 13.1427C30.5684 12.9233 30.6452 12.6338 30.5951 12.352C29.4907 6.14203 24.5931 1.24436 18.3831 0.13993C18.1015 0.0898676 17.8123 0.167098 17.5931 0.35066C17.3738 0.534223 17.2461 0.805598 17.2461 1.09163V8.23407Z" fill="white"/>
<path d="M22.5013 16.5417C22.096 16.5417 21.7338 16.7946 21.594 17.1751C20.7145 19.5668 18.4168 21.273 15.72 21.273C12.264 21.273 9.46245 18.4714 9.46245 15.0155C9.46245 14.2439 9.60257 13.5052 9.85817 12.8229C9.99116 12.468 9.90426 12.0677 9.63625 11.7997L4.51227 6.67568C4.30571 6.46912 4.01684 6.36716 3.72633 6.39799C3.43583 6.42882 3.17412 6.58908 3.01569 6.83451C1.49397 9.19233 0.610352 12.0005 0.610352 15.0155C0.610352 23.3602 7.37519 30.1251 15.72 30.1251C23.156 30.1251 29.3371 24.7534 30.5953 17.6788C30.6454 17.3973 30.5682 17.1081 30.3846 16.8888C30.201 16.6695 29.9297 16.5418 29.6436 16.5418H22.5013V16.5417Z" fill="white"/>
</g>
</svg>
