<svg width="30" height="31" viewBox="0 0 30 31" fill="none" xmlns="http://www.w3.org/2000/svg">
<path opacity="1" d="M28.75 3.875H23.3333V1.53125C23.3333 0.751953 22.776 0.125 22.0833 0.125H7.91667C7.22396 0.125 6.66667 0.751953 6.66667 1.53125V3.875H1.25C0.557292 3.875 0 4.50195 0 5.28125V8.5625C0 10.6543 1.17188 12.8047 3.22396 14.4629C4.86458 15.793 6.85937 16.6367 8.95312 16.9062C10.5885 19.959 12.5 21.2188 12.5 21.2188V25.4375H10C8.16146 25.4375 6.66667 26.6504 6.66667 28.7188V29.4219C6.66667 29.8086 6.94792 30.125 7.29167 30.125H22.7083C23.0521 30.125 23.3333 29.8086 23.3333 29.4219V28.7188C23.3333 26.6504 21.8385 25.4375 20 25.4375H17.5V21.2188C17.5 21.2188 19.4115 19.959 21.0469 16.9062C23.1458 16.6367 25.1406 15.793 26.776 14.4629C28.8229 12.8047 30 10.6543 30 8.5625V5.28125C30 4.50195 29.4427 3.875 28.75 3.875ZM5.17188 11.4219C3.90104 10.3906 3.33333 9.24219 3.33333 8.5625V7.625H6.67708C6.72917 9.53516 6.97917 11.2109 7.34375 12.6758C6.55729 12.3711 5.82292 11.9492 5.17188 11.4219ZM26.6667 8.5625C26.6667 9.50586 25.7448 10.6777 24.8281 11.4219C24.1771 11.9492 23.4375 12.3711 22.651 12.6758C23.0156 11.2109 23.2656 9.53516 23.3177 7.625H26.6667V8.5625Z" fill="white"/>
</svg>
