<svg width="31" height="30" viewBox="0 0 31 30" fill="none" xmlns="http://www.w3.org/2000/svg">
<g opacity="1">
<path fill-rule="evenodd" clip-rule="evenodd" d="M13.7727 15.2057C18.0835 15.2055 19.6345 10.9758 20.0406 7.5014C20.5407 3.22131 18.4753 0 13.7727 0C9.07073 0 7.00426 3.22107 7.50483 7.5014C7.91126 10.9758 9.46185 15.206 13.7727 15.2057ZM23.1988 16.9665C23.3375 16.9665 23.4753 16.9705 23.6122 16.978C23.407 16.6912 23.1696 16.4383 22.8917 16.235C22.3104 15.8098 21.6087 15.5851 20.9141 15.3627C20.619 15.2682 20.3251 15.1741 20.0422 15.0652C19.5806 14.8875 19.1672 14.7109 18.7791 14.51C17.4693 15.9176 15.7613 16.6539 13.7723 16.6541C11.784 16.6541 10.0761 15.9178 8.7665 14.51C8.37843 14.711 7.96494 14.8875 7.50339 15.0652C7.22048 15.1741 6.9265 15.2683 6.63124 15.3628C5.93675 15.5852 5.23517 15.8099 4.65392 16.235C3.27981 17.24 2.88313 19.4497 2.59634 21.0473L2.56029 21.2477C2.32023 22.5749 2.15896 23.9294 2.11189 25.2775C2.07671 26.2848 2.56502 26.4567 3.39978 26.7506L3.49305 26.7835C4.6093 27.178 5.76186 27.4709 6.92218 27.711C9.16303 28.1747 11.4729 28.531 13.7727 28.5469C14.8871 28.5391 16.0038 28.451 17.1138 28.31C16.2919 27.143 15.8098 25.7294 15.8098 24.2073C15.8099 20.2147 19.1245 16.9665 23.1988 16.9665ZM17.2877 24.2072C17.2877 21.0081 19.9343 18.4145 23.1989 18.4145C26.4634 18.4145 29.11 21.008 29.1101 24.2072C29.1101 27.4063 26.4635 29.9999 23.1989 29.9999C19.9343 29.9999 17.2877 27.4063 17.2877 24.2072ZM24.2131 25.201H25.785C26.3452 25.201 26.7992 24.7561 26.7993 24.2071C26.7993 23.6582 26.3452 23.2132 25.785 23.2132H24.2131V21.6728C24.2131 21.1239 23.7591 20.6789 23.1989 20.6789C22.6388 20.6789 22.1847 21.1239 22.1847 21.6728V23.2132H20.6128C20.0526 23.2132 19.5985 23.6582 19.5985 24.2071C19.5985 24.7561 20.0526 25.201 20.6128 25.201H22.1847V26.7414C22.1847 27.2903 22.6388 27.7353 23.1989 27.7353C23.759 27.7353 24.2131 27.2903 24.2131 26.7414V25.201Z" fill="white"/>
</g>
</svg>
