<svg width="17" height="20" viewBox="0 0 17 20" fill="none" xmlns="http://www.w3.org/2000/svg">
<path fill-rule="evenodd" clip-rule="evenodd" d="M2.72727 18.1818H13.6364C14.1384 18.1818 14.5455 17.7748 14.5455 17.2727V10.9091C14.5455 9.90494 13.7314 9.09091 12.7273 9.09091H10.8373C9.08005 9.09091 7.6555 7.66636 7.6555 5.90909V3.63636C7.6555 2.63221 6.84147 1.81818 5.83732 1.81818H2.72727C2.2252 1.81818 1.81818 2.2252 1.81818 2.72727V17.2727C1.81818 17.7748 2.2252 18.1818 2.72727 18.1818ZM2.72727 0C1.22104 0 0 1.22104 0 2.72727V17.2727C0 18.779 1.22104 20 2.72727 20H13.6364C15.1426 20 16.3636 18.779 16.3636 17.2727V10.9091C16.3636 8.90078 14.7356 7.27273 12.7273 7.27273H10.8373C10.0842 7.27273 9.47368 6.66221 9.47368 5.90909V3.63636C9.47368 1.62806 7.84563 0 5.83732 0H2.72727Z" fill="#F6C358"/>
<path fill-rule="evenodd" clip-rule="evenodd" d="M2.72727 18.1818H13.6364C14.1384 18.1818 14.5455 17.7748 14.5455 17.2727V11.1679C14.5455 9.66796 14.0156 8.21621 13.0494 7.06887L10.5348 4.08277C9.3257 2.64694 7.54433 1.81818 5.66721 1.81818H2.72727C2.2252 1.81818 1.81818 2.2252 1.81818 2.72727V17.2727C1.81818 17.7748 2.2252 18.1818 2.72727 18.1818ZM2.72727 0C1.22104 0 0 1.22104 0 2.72727V17.2727C0 18.779 1.22104 20 2.72727 20H13.6364C15.1426 20 16.3636 18.779 16.3636 17.2727V11.1679C16.3636 9.2394 15.6824 7.37287 14.4402 5.89772L11.9256 2.91162C10.371 1.06554 8.08066 0 5.66721 0H2.72727Z" fill="#F6C358"/>
<path fill-rule="evenodd" clip-rule="evenodd" d="M4.79297 11.6972C4.79297 11.1951 5.23842 10.7881 5.78792 10.7881H10.7627C11.3122 10.7881 11.7576 11.1951 11.7576 11.6972C11.7576 12.1993 11.3122 12.6063 10.7627 12.6063H5.78792C5.23842 12.6063 4.79297 12.1993 4.79297 11.6972Z" fill="#F6C358"/>
<path fill-rule="evenodd" clip-rule="evenodd" d="M4.79297 15.3334C4.79297 14.8313 5.23842 14.4243 5.78792 14.4243H10.7627C11.3122 14.4243 11.7576 14.8313 11.7576 15.3334C11.7576 15.8355 11.3122 16.2425 10.7627 16.2425H5.78792C5.23842 16.2425 4.79297 15.8355 4.79297 15.3334Z" fill="#F6C358"/>
</svg>
