<svg width="25" height="20" viewBox="0 0 25 20" fill="none" xmlns="http://www.w3.org/2000/svg">
<path fill-rule="evenodd" clip-rule="evenodd" d="M4.16667 2.18749C3.01607 2.18749 2.08333 3.12023 2.08333 4.27082V15.7292C2.08333 16.8797 3.01607 17.8125 4.16667 17.8125H20.8333C21.9839 17.8125 22.9167 16.8797 22.9167 15.7292V7.39582C22.9167 6.24523 21.9839 5.31249 20.8333 5.31249H14.6977C13.703 5.31249 12.7412 4.95669 11.986 4.30939L10.0956 2.68904C9.71805 2.36539 9.23714 2.18749 8.73982 2.18749H4.16667ZM0 4.27082C0 1.96964 1.86548 0.104156 4.16667 0.104156H8.73982C9.73445 0.104156 10.6963 0.459957 11.4515 1.10725L13.3419 2.72761C13.7195 3.05126 14.2004 3.22916 14.6977 3.22916H20.8333C23.1345 3.22916 25 5.09464 25 7.39582V15.7292C25 18.0303 23.1345 19.8958 20.8333 19.8958H4.16667C1.86548 19.8958 0 18.0303 0 15.7292V4.27082Z" fill="#F6C358"/>
<path d="M2.08333 4.27082C2.08333 3.12023 3.01607 2.18749 4.16667 2.18749H8.73982C9.23714 2.18749 9.71805 2.36539 10.0956 2.68904L11.986 4.30939C12.7412 4.95669 13.703 5.31249 14.6977 5.31249H20.8333C21.9839 5.31249 22.9167 6.24523 22.9167 7.39582V15.7292C22.9167 16.8797 21.9839 17.8125 20.8333 17.8125H4.16667C3.01607 17.8125 2.08333 16.8797 2.08333 15.7292V4.27082Z" fill="#F6C358"/>
</svg>
