<svg width="25" height="20" viewBox="0 0 25 20" fill="none" xmlns="http://www.w3.org/2000/svg">
<path d="M24.2014 6.41458C24.2014 5.45741 23.8212 4.53944 23.1444 3.86262C22.4675 3.18579 21.5496 2.80556 20.5924 2.80556H14.6375V2.59503C14.571 1.99943 14.2873 1.44924 13.8407 1.04967C13.394 0.650106 12.8157 0.429199 12.2165 0.429199C11.6172 0.429199 11.0389 0.650106 10.5922 1.04967C10.1456 1.44924 9.86189 1.99943 9.7954 2.59503V2.80556H3.81044C2.85327 2.80556 1.9353 3.18579 1.25847 3.86262C0.581651 4.53944 0.201416 5.45741 0.201416 6.41458V16.189C0.201416 17.1462 0.581651 18.0642 1.25847 18.741C1.9353 19.4178 2.85327 19.798 3.81044 19.798H20.5924C21.5496 19.798 22.4675 19.4178 23.1444 18.741C23.8212 18.0642 24.2014 17.1462 24.2014 16.189V6.41458ZM10.9683 2.62511C11.0141 2.33493 11.1619 2.07061 11.3852 1.87975C11.6085 1.68888 11.8926 1.58401 12.1864 1.58401C12.4801 1.58401 12.7642 1.68888 12.9876 1.87975C13.2109 2.07061 13.3587 2.33493 13.4044 2.62511V4.82059H10.9683V2.62511ZM22.9984 16.189C22.9984 16.8271 22.7449 17.4391 22.2937 17.8903C21.8425 18.3415 21.2305 18.595 20.5924 18.595H3.81044C3.17232 18.595 2.56034 18.3415 2.10913 17.8903C1.65791 17.4391 1.40442 16.8271 1.40442 16.189V6.41458C1.40442 5.77646 1.65791 5.16449 2.10913 4.71327C2.56034 4.26205 3.17232 4.00856 3.81044 4.00856H9.76533V5.4221C9.76533 5.58163 9.8287 5.73462 9.9415 5.84743C10.0543 5.96023 10.2073 6.0236 10.3668 6.0236H14.036C14.1955 6.0236 14.3485 5.96023 14.4613 5.84743C14.5741 5.73462 14.6375 5.58163 14.6375 5.4221V4.00856H20.5924C21.2305 4.00856 21.8425 4.26205 22.2937 4.71327C22.7449 5.16449 22.9984 5.77646 22.9984 6.41458V16.189Z" fill="#63B9E9" stroke="#63B9E9" stroke-width="0.2"/>
<path d="M19.5697 13.6626H14.0058C13.8463 13.6626 13.6933 13.726 13.5805 13.8388C13.4677 13.9516 13.4043 14.1046 13.4043 14.2641C13.4043 14.4236 13.4677 14.5766 13.5805 14.6894C13.6933 14.8022 13.8463 14.8656 14.0058 14.8656H19.5697C19.7292 14.8656 19.8822 14.8022 19.995 14.6894C20.1078 14.5766 20.1712 14.4236 20.1712 14.2641C20.1712 14.1046 20.1078 13.9516 19.995 13.8388C19.8822 13.726 19.7292 13.6626 19.5697 13.6626Z" fill="#63B9E9" stroke="#63B9E9" stroke-width="0.2"/>
<path d="M14.0058 11.3168H16.5923C16.7518 11.3168 16.9048 11.2534 17.0176 11.1406C17.1304 11.0278 17.1938 10.8748 17.1938 10.7153C17.1938 10.5557 17.1304 10.4027 17.0176 10.2899C16.9048 10.1771 16.7518 10.1138 16.5923 10.1138H14.0058C13.8463 10.1138 13.6933 10.1771 13.5805 10.2899C13.4677 10.4027 13.4043 10.5557 13.4043 10.7153C13.4043 10.8748 13.4677 11.0278 13.5805 11.1406C13.6933 11.2534 13.8463 11.3168 14.0058 11.3168Z" fill="#63B9E9" stroke="#63B9E9" stroke-width="0.2"/>
<path d="M7.17886 11.1666C7.57739 11.1666 7.96698 11.0484 8.29835 10.827C8.62972 10.6055 8.88799 10.2908 9.04051 9.92264C9.19302 9.55444 9.23293 9.14928 9.15517 8.7584C9.07742 8.36752 8.88551 8.00847 8.6037 7.72667C8.32189 7.44486 7.96285 7.25294 7.57197 7.17519C7.18109 7.09744 6.77593 7.13735 6.40773 7.28986C6.03953 7.44237 5.72483 7.70065 5.50341 8.03202C5.282 8.36339 5.16382 8.75298 5.16382 9.15151C5.16382 9.68593 5.37612 10.1985 5.75401 10.5764C6.1319 10.9543 6.64443 11.1666 7.17886 11.1666ZM7.17886 8.36956C7.33946 8.36956 7.49646 8.41718 7.63 8.50641C7.76353 8.59564 7.86761 8.72246 7.92907 8.87084C7.99053 9.01922 8.00662 9.18249 7.97528 9.34001C7.94395 9.49753 7.86661 9.64222 7.75305 9.75578C7.63948 9.86934 7.49479 9.94668 7.33728 9.97802C7.17976 10.0093 7.01648 9.99327 6.86811 9.93181C6.71973 9.87035 6.5929 9.76627 6.50368 9.63273C6.41445 9.49919 6.36683 9.34219 6.36683 9.18159C6.36683 8.96622 6.45238 8.75968 6.60466 8.6074C6.75695 8.45511 6.96349 8.36956 7.17886 8.36956Z" fill="#63B9E9" stroke="#63B9E9" stroke-width="0.2"/>
<path d="M7.17881 11.4673C6.73787 11.4673 6.3013 11.5546 5.8943 11.7242C5.4873 11.8939 5.11794 12.1425 4.80755 12.4557C4.49716 12.7689 4.25189 13.1404 4.0859 13.5489C3.91991 13.9574 3.8365 14.3948 3.84047 14.8357V15.5274C3.84047 15.687 3.90384 15.84 4.01664 15.9528C4.12945 16.0656 4.28244 16.1289 4.44197 16.1289H9.91566C10.0752 16.1289 10.2282 16.0656 10.341 15.9528C10.4538 15.84 10.5172 15.687 10.5172 15.5274V14.8357C10.5211 14.3948 10.4377 13.9574 10.2717 13.5489C10.1057 13.1404 9.86047 12.7689 9.55008 12.4557C9.23969 12.1425 8.87033 11.8939 8.46333 11.7242C8.05633 11.5546 7.61975 11.4673 7.17881 11.4673ZM9.31415 14.9259H5.04348V14.8357C5.04348 14.2694 5.26845 13.7262 5.6689 13.3258C6.06935 12.9253 6.61249 12.7004 7.17881 12.7004C7.74514 12.7004 8.28827 12.9253 8.68872 13.3258C9.08918 13.7262 9.31415 14.2694 9.31415 14.8357V14.9259Z" fill="#63B9E9" stroke="#63B9E9" stroke-width="0.2"/>
</svg>
