<svg width="25" height="21" viewBox="0 0 25 21" fill="none" xmlns="http://www.w3.org/2000/svg">
<path d="M2.54165 0.781141C2.23268 0.832134 2.04371 0.898127 1.72574 1.06011C0.936836 1.46506 0.405898 2.18498 0.252916 3.06687C0.183924 3.45383 0.183924 14.7265 0.252916 15.1135C0.450893 16.2443 1.30879 17.1352 2.42766 17.3692C2.79362 17.4472 2.75762 17.5102 2.75762 16.7603V16.1033L2.57164 16.0464C2.0857 15.8994 1.69275 15.4794 1.57276 14.9785C1.50677 14.6935 1.50677 3.48682 1.57276 3.20186C1.68675 2.71891 2.04071 2.32596 2.53565 2.13998L2.71263 2.07099L10.4667 2.06199C18.1548 2.05599 18.2208 2.05599 18.4578 2.11598C18.5898 2.14898 18.7727 2.22097 18.8597 2.27497C19.0517 2.38895 19.3067 2.65892 19.4027 2.8479L19.4687 2.98588H20.1376C20.5035 2.98588 20.8125 2.97688 20.8215 2.96789C20.8515 2.93789 20.7525 2.61693 20.6355 2.36495C20.4885 2.04699 20.3716 1.87901 20.1136 1.60904C19.6546 1.1321 19.1117 0.856133 18.4668 0.769142C18.0948 0.718149 2.84461 0.730146 2.54165 0.781141Z" fill="#63B9E9"/>
<path d="M5.7572 3.7958C4.68632 4.02378 3.89442 4.77369 3.60045 5.83257L3.52246 6.12053V12.0748V18.0291L3.59145 18.2961C3.72644 18.824 3.98441 19.271 4.38036 19.6519C4.71032 19.9669 5.00429 20.1469 5.41224 20.2879C5.84719 20.4349 5.45423 20.4289 13.8862 20.4289C22.7022 20.4289 21.9493 20.4469 22.4682 20.2219C23.3261 19.8529 23.8841 19.202 24.136 18.2811C24.184 18.1011 24.19 17.6872 24.199 12.2398C24.205 7.98931 24.199 6.32451 24.175 6.15053C24.0881 5.5566 23.8241 5.01066 23.4101 4.58771C23.0412 4.20976 22.6392 3.97578 22.0603 3.8048C21.8893 3.75381 21.4484 3.75081 13.9462 3.74481C6.36613 3.73881 6.00017 3.74181 5.7572 3.7958ZM21.7603 5.10065C22.2913 5.23864 22.7142 5.67058 22.8402 6.19852C22.8792 6.3665 22.8852 7.11042 22.8822 12.1048C22.8822 17.4082 22.8792 17.8342 22.8312 18.0171C22.6932 18.5361 22.2253 18.98 21.6913 19.091C21.4664 19.139 6.24614 19.139 6.02117 19.091C5.60422 19.004 5.16627 18.6681 4.99529 18.3051C4.81831 17.9271 4.82431 18.2331 4.83331 11.9758L4.84231 6.24052L4.9113 6.06354C5.09128 5.5836 5.51723 5.19964 5.98517 5.08865C6.05416 5.07366 9.30278 5.06166 13.8413 5.05866C20.7014 5.05566 21.6013 5.06166 21.7603 5.10065Z" fill="#63B9E9"/>
<path d="M20.1515 13.887H16.2768C16.1657 13.887 16.0592 13.9503 15.9806 14.0631C15.902 14.1759 15.8579 14.3289 15.8579 14.4885C15.8579 14.648 15.902 14.801 15.9806 14.9138C16.0592 15.0266 16.1657 15.09 16.2768 15.09H20.1515C20.2626 15.09 20.3692 15.0266 20.4477 14.9138C20.5263 14.801 20.5704 14.648 20.5704 14.4885C20.5704 14.3289 20.5263 14.1759 20.4477 14.0631C20.3692 13.9503 20.2626 13.887 20.1515 13.887Z" fill="#63B9E9" stroke="#63B9E9" stroke-width="0.2"/>
<path d="M16.3088 11.5411H18.2476C18.3671 11.5411 18.4818 11.4778 18.5664 11.365C18.6509 11.2522 18.6984 11.0992 18.6984 10.9396C18.6984 10.7801 18.6509 10.6271 18.5664 10.5143C18.4818 10.4015 18.3671 10.3381 18.2476 10.3381H16.3088C16.1892 10.3381 16.0745 10.4015 15.99 10.5143C15.9054 10.6271 15.8579 10.7801 15.8579 10.9396C15.8579 11.0992 15.9054 11.2522 15.99 11.365C16.0745 11.4778 16.1892 11.5411 16.3088 11.5411Z" fill="#63B9E9" stroke="#63B9E9" stroke-width="0.2"/>
<path d="M10.4279 11.6197C10.8264 11.6197 11.216 11.5015 11.5474 11.2801C11.8787 11.0587 12.137 10.744 12.2895 10.3758C12.442 10.0076 12.4819 9.6024 12.4042 9.21152C12.3264 8.82064 12.1345 8.4616 11.8527 8.17979C11.5709 7.89798 11.2119 7.70607 10.821 7.62832C10.4301 7.55057 10.025 7.59047 9.65676 7.74299C9.28856 7.8955 8.97385 8.15377 8.75244 8.48514C8.53102 8.81651 8.41284 9.2061 8.41284 9.60464C8.41284 10.1391 8.62514 10.6516 9.00303 11.0295C9.38093 11.4074 9.89346 11.6197 10.4279 11.6197ZM10.4279 8.82268C10.5885 8.82268 10.7455 8.87031 10.879 8.95953C11.0126 9.04876 11.1166 9.17558 11.1781 9.32396C11.2396 9.47234 11.2556 9.63561 11.2243 9.79313C11.193 9.95065 11.1156 10.0953 11.0021 10.2089C10.8885 10.3225 10.7438 10.3998 10.5863 10.4311C10.4288 10.4625 10.2655 10.4464 10.1171 10.3849C9.96875 10.3235 9.84193 10.2194 9.7527 10.0859C9.66347 9.95232 9.61585 9.79532 9.61585 9.63471C9.61585 9.41935 9.7014 9.21281 9.85369 9.06052C10.006 8.90824 10.2125 8.82268 10.4279 8.82268Z" fill="#63B9E9" stroke="#63B9E9" stroke-width="0.2"/>
<path d="M10.4278 11.9204C9.9869 11.9204 9.55032 12.0077 9.14332 12.1774C8.73632 12.347 8.36696 12.5956 8.05657 12.9088C7.74618 13.222 7.50091 13.5936 7.33492 14.0021C7.16893 14.4106 7.08552 14.8479 7.08949 15.2888V15.9806C7.08949 16.1401 7.15286 16.2931 7.26567 16.4059C7.37847 16.5187 7.53147 16.5821 7.69099 16.5821H13.1647C13.3242 16.5821 13.4772 16.5187 13.59 16.4059C13.7028 16.2931 13.7662 16.1401 13.7662 15.9806V15.2888C13.7702 14.8479 13.6867 14.4106 13.5208 14.0021C13.3548 13.5936 13.1095 13.222 12.7991 12.9088C12.4887 12.5956 12.1194 12.347 11.7124 12.1774C11.3054 12.0077 10.8688 11.9204 10.4278 11.9204ZM12.5632 15.3791H8.2925V15.2888C8.2925 14.7225 8.51747 14.1794 8.91792 13.7789C9.31838 13.3785 9.86151 13.1535 10.4278 13.1535C10.9942 13.1535 11.5373 13.3785 11.9377 13.7789C12.3382 14.1794 12.5632 14.7225 12.5632 15.2888V15.3791Z" fill="#63B9E9" stroke="#63B9E9" stroke-width="0.2"/>
</svg>
