<svg width="24" height="20" viewBox="0 0 24 20" fill="none" xmlns="http://www.w3.org/2000/svg">
<path fill-rule="evenodd" clip-rule="evenodd" d="M2.44482 6.80475L4.11545 2.28183C4.72666 1.10017 5.66384 0.366723 6.76401 0H17.236C18.3362 0.366723 19.2326 1.10017 19.8846 2.28183L21.5552 6.80475H23.7148C23.8778 6.80475 24 6.927 24 7.08998V7.98642C24 8.14941 23.8778 8.31239 23.7148 8.31239H22.4516C22.8183 8.76061 23.1851 9.29032 23.5518 9.98302C23.5518 12.7131 23.5925 15.4431 23.5925 18.2139C23.5925 18.9066 23.0221 19.5178 22.2886 19.5178H21.3922C20.6587 19.5178 20.0883 18.9066 20.0883 18.2139V16.5433H3.91171V18.2139C3.91171 18.9066 3.34126 19.5178 2.60781 19.5178H1.71138C0.977929 19.5178 0.40747 18.9066 0.40747 18.2139C0.40747 15.4431 0.448217 12.7131 0.448217 9.98302C0.814941 9.29032 1.18166 8.76061 1.54839 8.31239H0.285229C0.122241 8.31239 0 8.14941 0 7.98642V7.08998C0 6.927 0.122241 6.80475 0.285229 6.80475H2.44482ZM6.96774 1.79287C6.27504 1.91511 5.82683 2.36333 5.58234 2.93379C5.09338 4.27844 4.56367 5.82683 4.11545 7.17148H19.8846C19.4363 5.82683 18.8659 4.27844 18.4177 2.93379C18.1324 2.36333 17.725 1.91511 17.0323 1.79287H6.96774ZM19.4363 10.1053C18.6214 10.1053 17.9694 10.7572 17.9694 11.5722C17.9694 12.3871 18.6214 13.0391 19.4363 13.0391C20.2105 13.0391 20.8625 12.3871 20.8625 11.5722C20.8625 10.7572 20.2105 10.1053 19.4363 10.1053ZM4.56367 10.1053C5.37861 10.1053 6.03056 10.7572 6.03056 11.5722C6.03056 12.3871 5.37861 13.0391 4.56367 13.0391C3.78947 13.0391 3.13752 12.3871 3.13752 11.5722C3.13752 10.7572 3.78947 10.1053 4.56367 10.1053Z" fill="#63B9E9"/>
</svg>
