<svg width="26" height="26" viewBox="0 0 26 26" fill="none" xmlns="http://www.w3.org/2000/svg">
<path d="M20.2465 8.36468C20.1304 8.36468 20.053 8.32597 19.9756 8.24855C19.8207 8.09372 19.8207 7.86146 19.9756 7.70662L24.4272 3.25501C24.2723 2.55823 23.0723 1.35823 22.3756 1.20339L17.8465 5.77113C17.6917 5.92597 17.4594 5.92597 17.3046 5.77113C17.1498 5.6163 17.1498 5.38404 17.3046 5.2292L21.9498 0.545328C22.0272 0.467909 22.1433 0.429199 22.2207 0.429199C23.382 0.429199 25.2014 2.24855 25.2014 3.40984C25.2014 3.52597 25.1627 3.60339 25.0852 3.68081L20.5175 8.24855C20.4401 8.32597 20.3627 8.36468 20.2465 8.36468Z" fill="#63B9E9" stroke="#63B9E9" stroke-width="0.6"/>
<path d="M7.9369 20.6742C7.82077 20.6742 7.74335 20.6355 7.66593 20.5581C7.5111 20.4033 7.5111 20.171 7.66593 20.0162L17.9627 9.7194C18.1175 9.56456 18.3498 9.56456 18.5046 9.7194C18.6595 9.87424 18.6595 10.1065 18.5046 10.2613L8.20787 20.5581C8.13045 20.6355 8.05303 20.6742 7.9369 20.6742Z" fill="#63B9E9" stroke="#63B9E9" stroke-width="0.6"/>
<path d="M5.38197 18.0809C5.26584 18.0809 5.18842 18.0422 5.111 17.9648C4.95616 17.81 4.95616 17.5777 5.111 17.4229L15.2529 7.28092C15.4078 7.12609 15.64 7.12609 15.7949 7.28092C15.9497 7.43576 15.9497 7.66802 15.7949 7.82286L5.65294 17.9648C5.57552 18.0422 5.45939 18.0809 5.38197 18.0809Z" fill="#63B9E9" stroke="#63B9E9" stroke-width="0.6"/>
<path d="M7.93694 20.6744C7.70469 20.6744 7.54985 20.5195 7.54985 20.2873C7.54985 19.5905 6.04017 18.0808 5.3434 18.0808C5.11114 18.0808 4.9563 17.926 4.9563 17.6937C4.9563 17.4615 5.11114 17.3066 5.3434 17.3066C6.46598 17.3066 8.32404 19.126 8.32404 20.2873C8.32404 20.4808 8.1692 20.6744 7.93694 20.6744Z" fill="#63B9E9" stroke="#63B9E9" stroke-width="0.6"/>
<path d="M2.82714 23.1904C2.71101 23.1904 2.63359 23.1517 2.55617 23.0743C2.44004 22.9581 2.40134 22.7646 2.47875 22.6097L4.99488 17.5001C5.0723 17.3065 5.30456 17.2291 5.49811 17.3065C5.69166 17.3839 5.76908 17.6162 5.69166 17.8097L3.67875 21.9517L7.78198 19.9388C7.97553 19.8614 8.20779 19.9388 8.28521 20.1323C8.36263 20.3259 8.28521 20.5581 8.09166 20.6356L2.98198 23.1517C2.94327 23.1904 2.86585 23.1904 2.82714 23.1904Z" fill="#63B9E9" stroke="#63B9E9" stroke-width="0.6"/>
<path d="M21.9499 6.66144C21.7176 6.66144 21.5628 6.5066 21.5628 6.27435C21.5628 5.57757 20.0531 4.06789 19.3563 4.06789C19.1241 4.06789 18.9692 3.91306 18.9692 3.6808C18.9692 3.44854 19.1241 3.2937 19.3563 3.2937C20.4789 3.2937 22.337 5.11306 22.337 6.27435C22.337 6.4679 22.1821 6.66144 21.9499 6.66144Z" fill="#63B9E9" stroke="#63B9E9" stroke-width="0.6"/>
<path d="M18.3111 25.2035C18.195 25.2035 18.1175 25.1648 18.0401 25.0873L10.6079 17.6164C10.453 17.4615 10.453 17.2293 10.6079 17.0744C10.7627 16.9196 10.995 16.9196 11.1498 17.0744L18.3498 24.2744L19.1627 23.4615C23.2659 19.3196 23.6143 12.7777 19.9756 8.20992C19.7046 7.90024 19.4337 7.55186 19.124 7.28089C18.5821 6.73895 17.9627 6.23573 17.3434 5.80992C12.8143 2.82927 6.77561 3.44863 2.94335 7.28089L2.13045 8.09379L8.55625 14.4809C8.71109 14.6357 8.71109 14.868 8.55625 15.0228C8.40142 15.1777 8.16916 15.1777 8.01432 15.0228L1.31755 8.36476C1.16271 8.20992 1.16271 7.97766 1.31755 7.82282L2.40142 6.73895C6.46593 2.63573 12.9304 1.97766 17.7692 5.15186C18.4659 5.61637 19.0853 6.1196 19.6659 6.70024C19.9756 7.00992 20.2853 7.35831 20.5563 7.70669C24.4659 12.5841 24.0788 19.5906 19.6659 24.0035L18.5821 25.0873C18.5046 25.1648 18.4272 25.2035 18.3111 25.2035Z" fill="#63B9E9" stroke="#63B9E9" stroke-width="0.6"/>
<path d="M17.4595 20.9453C17.3433 20.9453 17.2659 20.9066 17.1885 20.8292L12.3111 15.9518C12.1562 15.7969 12.1562 15.5647 12.3111 15.4099C12.4659 15.255 12.6982 15.255 12.853 15.4099L17.4595 20.0163L17.6917 19.784C20.2853 17.1905 19.8595 12.8937 17.9627 10.184C17.7304 9.83566 17.4595 9.52598 17.1498 9.25501C16.6079 8.71308 15.9885 8.28727 15.2917 7.90017C12.2724 6.27437 8.71109 6.62275 6.62076 8.71308L6.3885 8.94533L10.2595 12.8163C10.4143 12.9711 10.4143 13.2034 10.2595 13.3582C10.1046 13.5131 9.87238 13.5131 9.71754 13.3582L5.5756 9.2163C5.49818 9.13888 5.45947 9.06146 5.45947 8.94533C5.45947 8.82921 5.49818 8.75179 5.5756 8.67437L6.07883 8.17114C8.40141 5.84856 12.3498 5.46146 15.6788 7.2034C16.453 7.5905 17.1111 8.09372 17.6917 8.67437C18.0014 8.98404 18.3111 9.33243 18.5821 9.71953C20.6724 12.6615 21.1369 17.4228 18.2337 20.2873L17.7304 20.7905C17.653 20.9066 17.5756 20.9453 17.4595 20.9453Z" fill="#63B9E9" stroke="#63B9E9" stroke-width="0.6"/>
</svg>
