<svg width="16" height="16" viewBox="0 0 16 16" fill="none" xmlns="http://www.w3.org/2000/svg">
<path fill-rule="evenodd" clip-rule="evenodd" d="M11.669 0H4.33106C1.94287 0 0 1.94287 0 4.33106V11.6691C0 14.0572 1.94287 16 4.33106 16H11.6691C14.0572 16 16 14.0572 16 11.6691V4.33106C16 1.94287 14.0572 0 11.669 0ZM8.00001 12.3749C5.58766 12.3749 3.62513 10.4124 3.62513 8.00001C3.62513 5.58766 5.58766 3.62513 8.00001 3.62513C10.4124 3.62513 12.3749 5.58766 12.3749 8.00001C12.3749 10.4124 10.4124 12.3749 8.00001 12.3749ZM12.4795 4.65687C11.7666 4.65687 11.1868 4.07703 11.1868 3.36414C11.1868 2.65125 11.7666 2.07129 12.4795 2.07129C13.1924 2.07129 13.7724 2.65125 13.7724 3.36414C13.7724 4.07703 13.1924 4.65687 12.4795 4.65687ZM7.99938 4.56289C6.10436 4.56289 4.56249 6.10464 4.56249 7.99978C4.56249 9.89481 6.10436 11.4367 7.99938 11.4367C9.89453 11.4367 11.4363 9.89481 11.4363 7.99978C11.4363 6.10464 9.89453 4.56289 7.99938 4.56289ZM12.125 3.36431C12.125 3.16875 12.2842 3.00957 12.4798 3.00957C12.6754 3.00957 12.8346 3.16863 12.8346 3.36431C12.8346 3.55999 12.6754 3.71904 12.4798 3.71904C12.2842 3.71904 12.125 3.55986 12.125 3.36431Z" fill="#333333"/>
</svg>
