<svg width="16" height="12" viewBox="0 0 16 12" fill="none" xmlns="http://www.w3.org/2000/svg">
<path d="M15.6777 2.1499C15.58 1.7999 15.4042 1.49851 15.1502 1.24574C14.8962 0.992958 14.5934 0.817958 14.2418 0.720736C13.7338 0.584625 12.5421 0.487402 10.6667 0.429069L8 0.399902L5.33333 0.429069C3.45788 0.487402 2.26618 0.584625 1.75824 0.720736C1.40659 0.817958 1.10379 0.992958 0.849817 1.24574C0.595849 1.49851 0.420024 1.7999 0.322344 2.1499C0.185592 2.6749 0.0879121 3.47212 0.029304 4.54157C0.00976801 5.08601 0 5.57212 0 5.9999L0.029304 7.45824C0.0879121 8.54712 0.185592 9.35407 0.322344 9.87907C0.420024 10.2096 0.595849 10.5013 0.849817 10.7541C1.10379 11.0068 1.40659 11.1818 1.75824 11.2791C2.26618 11.4152 3.45788 11.5124 5.33333 11.5707L8 11.5999L10.6667 11.5707C12.5421 11.5124 13.7338 11.4152 14.2418 11.2791C14.5934 11.1818 14.8962 11.0068 15.1502 10.7541C15.4042 10.5013 15.58 10.2096 15.6777 9.87907C15.8144 9.35407 15.9121 8.54712 15.9707 7.45824L16 5.9999L15.9707 4.54157C15.9121 3.47212 15.8144 2.6749 15.6777 2.1499ZM6.35897 8.39157V3.6374L10.5495 5.9999L6.35897 8.39157Z" fill="#333333"/>
</svg>
