<svg width="24" height="32" viewBox="0 0 24 32" fill="none" xmlns="http://www.w3.org/2000/svg">
<path fill-rule="evenodd" clip-rule="evenodd" d="M15 0H3C2.20435 0 1.44129 0.337142 0.878679 0.937258C0.31607 1.53737 0 2.35131 0 3.2V28.8C0 29.6487 0.31607 30.4626 0.878679 31.0627C1.44129 31.6629 2.20435 32 3 32H21C21.7957 32 22.5587 31.6629 23.1213 31.0627C23.6839 30.4626 24 29.6487 24 28.8V9.6L15 0ZM15 11.2H13.5V3.2L21 11.2H15ZM9.80079 22.4C9.80079 24.2643 10.8727 25.6 12.3385 25.6C13.8115 25.6 14.8834 24.2643 14.8834 22.4C14.8834 20.5357 13.8115 19.2 12.3385 19.2C10.8727 19.2 9.80079 20.5357 9.80079 22.4ZM13.8188 22.4C13.8188 23.5501 13.2354 24.4313 12.3385 24.4313C11.4415 24.4313 10.8654 23.5501 10.8654 22.4C10.8654 21.2406 11.4415 20.3687 12.3385 20.3687C13.2354 20.3687 13.8188 21.2406 13.8188 22.4ZM4.8 25.4887H6.71785C8.24191 25.4887 9.29928 24.2643 9.29928 22.4C9.29928 20.5357 8.24191 19.302 6.71785 19.302H4.8V25.4887ZM5.83549 24.3293V20.4615H6.71785C7.71688 20.4615 8.24191 21.3055 8.24191 22.4C8.24191 23.4481 7.68042 24.3293 6.71785 24.3293H5.83549ZM20 24.0788C19.65 24.8487 19.0374 25.6 17.929 25.6C16.507 25.6 15.3768 24.3015 15.3768 22.4C15.3768 20.4986 16.507 19.2 17.929 19.2C19.0374 19.2 19.6573 19.942 20 20.7119L19.1104 21.2684C18.9062 20.7675 18.4686 20.3687 17.929 20.3687C17.0831 20.3687 16.4414 21.2313 16.4414 22.4C16.4414 23.5687 17.0831 24.4313 17.929 24.4313C18.4686 24.4313 18.9062 24.0417 19.1104 23.5316L20 24.0788Z" fill="#1571C6"/>
</svg>
