<svg width="24" height="32" viewBox="0 0 24 32" fill="none" xmlns="http://www.w3.org/2000/svg">
<path fill-rule="evenodd" clip-rule="evenodd" d="M3 0H15L24 9.6V28.8C24 29.6487 23.6839 30.4626 23.1213 31.0627C22.5587 31.6629 21.7956 32 21 32H3C2.20435 32 1.44129 31.6629 0.87868 31.0627C0.31607 30.4626 0 29.6487 0 28.8V3.2C0 2.35131 0.31607 1.53737 0.87868 0.937258C1.44129 0.337142 2.20435 0 3 0ZM6.303 23.376C7.0995 23.376 7.7835 23.168 8.247 22.704C8.601 22.344 8.796 21.8144 8.7975 21.1872C8.7975 20.5632 8.5395 20.0336 8.1585 19.7104C7.758 19.3696 7.164 19.2 6.3285 19.2C5.71668 19.191 5.10518 19.2349 4.5 19.3312V25.6288H5.841V23.3472C5.99419 23.3682 6.14856 23.3778 6.303 23.376ZM11.1975 25.696C12.369 25.696 13.3275 25.4304 13.9575 24.872C14.5335 24.352 14.952 23.5088 14.952 22.288C14.952 21.16 14.562 20.3744 13.9395 19.8816C13.3635 19.4176 12.6255 19.2 11.49 19.2C10.8782 19.1941 10.2669 19.2385 9.6615 19.3328V25.6C9.999 25.648 10.4955 25.696 11.1975 25.696ZM17.202 20.432H19.5V19.248H15.843V25.6304H17.202V23.064H19.35V21.8896H17.202V20.432ZM13.5 11.2H15H21L13.5 3.2V11.2ZM5.84265 20.3457C5.93865 20.3169 6.12465 20.2881 6.40065 20.2881C7.07565 20.2881 7.45665 20.6401 7.45665 21.2257C7.45665 21.8801 7.01415 22.2673 6.29565 22.2673C6.09915 22.2673 5.95665 22.2593 5.84265 22.2305V20.3457ZM11.0207 20.3649C11.1362 20.3361 11.3312 20.3073 11.6312 20.3073C12.7952 20.3073 13.5227 21.0081 13.5137 22.3361C13.5137 23.8593 12.7157 24.5793 11.4902 24.5697C11.3222 24.5697 11.1362 24.5697 11.0207 24.5409V20.3649Z" fill="#FF4A4A"/>
</svg>
