<svg width="17" height="20" viewBox="0 0 17 20" fill="none" xmlns="http://www.w3.org/2000/svg">
<path fill-rule="evenodd" clip-rule="evenodd" d="M10.3747 0H2.87446C2.37716 0 1.90023 0.210714 1.54858 0.585786C1.19694 0.960859 0.99939 1.46957 0.99939 2V18C0.99939 18.5304 1.19694 19.0391 1.54858 19.4142C1.90023 19.7893 2.37716 20 2.87446 20H14.1248C14.6221 20 15.0991 19.7893 15.4507 19.4142C15.8024 19.0391 15.9999 18.5304 15.9999 18V6L10.3747 0ZM10.3747 7H9.43718V2L14.1248 7H10.3747ZM3.36656 16H2.66677V12H4.20435C4.91893 12 5.30825 12.5877 5.30825 13.2894C5.30825 13.985 4.914 14.5667 4.20435 14.5667H3.36656V16ZM4.11071 13.8351C4.38669 13.8351 4.59367 13.6192 4.59367 13.2834C4.59367 12.9535 4.38669 12.7316 4.11071 12.7316H3.36656V13.8351H4.11071ZM6.44184 16H5.74204V12H7.27963C7.99421 12 8.38353 12.5877 8.38353 13.2894C8.38353 13.985 7.98928 14.5667 7.27963 14.5667H6.44184V16ZM7.18599 13.8351C7.46197 13.8351 7.66895 13.6192 7.66895 13.2834C7.66895 12.9535 7.46197 12.7316 7.18599 12.7316H6.44184V13.8351H7.18599ZM9.57626 16H10.281V12.7496H11.237V12H8.61527V12.7496H9.57626V16ZM14.6672 16H13.8294L13.0064 14.5367L12.1785 16H11.3456L12.5382 13.949L11.4195 12H12.2524L13.0064 13.3673L13.7506 12H14.5933L13.4746 13.943L14.6672 16Z" fill="#E68530"/>
</svg>
