<svg width="82" height="96" viewBox="0 0 82 96" fill="none" xmlns="http://www.w3.org/2000/svg">
<path fill-rule="evenodd" clip-rule="evenodd" d="M13.8 0H49.8L76.8 28.8V86.4C76.8 88.9461 75.8518 91.3879 74.164 93.1882C72.4762 94.9886 70.187 96 67.8001 96H13.8C11.4131 96 9.12391 94.9886 7.43609 93.1882C5.74826 91.3879 4.80005 88.9461 4.80005 86.4V9.6C4.80005 7.05392 5.74826 4.61212 7.43609 2.81177C9.12391 1.01143 11.4131 0 13.8 0ZM45.3 33.6H49.8H67.8001L45.3 9.6V33.6ZM56.8551 76.8C53.4458 76.8 50.9789 75.6017 49.3435 73.8462L51.1452 71.3382C52.4202 72.7036 54.4159 73.9019 56.9937 73.9019C59.6546 73.9019 60.7079 72.5922 60.7079 71.366C60.7079 69.7053 58.7662 69.1992 56.5399 68.619L56.4948 68.6073C53.4735 67.8549 49.9256 66.9631 49.9256 63.034C49.9256 59.9687 52.6143 57.6 56.6611 57.6C59.5437 57.6 61.872 58.5196 63.5905 60.1916L61.7334 62.616C60.2921 61.1669 58.3241 60.4981 56.3839 60.4981C54.4714 60.4981 53.2518 61.4177 53.2518 62.811C53.2518 64.2541 55.1211 64.7299 57.2993 65.2843L57.3263 65.2912C60.3753 66.0714 64.0063 67.0189 64.0063 71.0595C64.0063 74.1527 61.8443 76.8 56.8551 76.8ZM30.2533 76.4656H34.1338L27.232 66.9074L33.718 57.8787H29.8098L25.07 64.706L20.3026 57.8787H16.4221L22.9358 66.9353L16.0063 76.4656H19.8868L25.07 69.1925L30.2533 76.4656ZM36.2163 76.4656H47.6084V73.5954H39.4593V57.8787H36.2163V76.4656Z" fill="#219653"/>
</svg>
