<svg width="71" height="95" viewBox="0 0 71 95" fill="none" xmlns="http://www.w3.org/2000/svg">
<path fill-rule="evenodd" clip-rule="evenodd" d="M8.97643 0.647095H44.3411L70.8647 28.9389V85.5224C70.8647 88.0235 69.9332 90.4222 68.2751 92.1908C66.6171 93.9594 64.3683 94.953 62.0235 94.953H8.97643C6.6316 94.953 4.38282 93.9594 2.72477 92.1908C1.06673 90.4222 0.135254 88.0235 0.135254 85.5224V10.0777C0.135254 7.57654 1.06673 5.17783 2.72477 3.40925C4.38282 1.64067 6.6316 0.647095 8.97643 0.647095ZM39.9206 33.6542H44.3411H62.0235L39.9206 10.0777V33.6542ZM15.2235 77.9711H29.5516V74.8826H19.5792L29.351 60.8197V57.9711H15.2235V61.0595H24.9952L15.2235 75.1225V77.9711ZM34.0181 77.9711H37.3709V57.9711H34.0181V77.9711ZM45.933 77.9711H42.5802V57.9711H50.9765C54.9883 57.9711 57.2235 60.8497 57.2235 64.238C57.2235 67.6263 54.9597 70.5048 50.9765 70.5048H45.933V77.9711ZM50.518 67.4164C52.4093 67.4164 53.7848 66.157 53.7848 64.238C53.7848 62.3189 52.4093 61.0595 50.518 61.0595H45.933V67.4164H50.518ZM9.22349 9.64709H13.2235V10.6471H9.22349V9.64709ZM13.2235 11.6471H9.22349V12.6471H13.2235V11.6471ZM9.22349 13.6471H13.2235V14.6471H9.22349V13.6471ZM13.2235 15.6471H9.22349V16.6471H13.2235V15.6471ZM9.22349 17.6471H13.2235V18.6471H9.22349V17.6471ZM13.2235 23.6471H9.22349V24.6471H13.2235V23.6471ZM9.22349 19.6471H13.2235V20.6471H9.22349V19.6471ZM13.2235 25.6471H9.22349V26.6471H13.2235V25.6471ZM9.22349 21.6471H13.2235V22.6471H9.22349V21.6471ZM13.2235 27.6471H9.22349V28.6471H13.2235V27.6471ZM15.2235 9.64709H19.2235V10.6471H15.2235V9.64709ZM19.2235 11.6471H15.2235V12.6471H19.2235V11.6471ZM15.2235 13.6471H19.2235V14.6471H15.2235V13.6471ZM19.2235 15.6471H15.2235V16.6471H19.2235V15.6471ZM15.2235 17.6471H19.2235V18.6471H15.2235V17.6471ZM19.2235 23.6471H15.2235V24.6471H19.2235V23.6471ZM15.2235 19.6471H19.2235V20.6471H15.2235V19.6471ZM19.2235 25.6471H15.2235V26.6471H19.2235V25.6471ZM15.2235 21.6471H19.2235V22.6471H15.2235V21.6471ZM19.2235 27.6471H15.2235V28.6471H19.2235V27.6471Z" fill="#B8B9BA"/>
</svg>
