<svg width="31" height="30" viewBox="0 0 31 30" fill="none" xmlns="http://www.w3.org/2000/svg">
<path d="M30.3421 13.3347C30.2948 12.9131 29.8029 12.5958 29.3776 12.5958C28.0032 12.5958 26.7834 11.7891 26.2718 10.5405C25.7496 9.26193 26.0865 7.7711 27.1106 6.83166C27.4331 6.53676 27.4724 6.04297 27.202 5.7002C26.4983 4.80682 25.6989 3.99971 24.8257 3.30028C24.4841 3.02628 23.9822 3.06442 23.6857 3.39253C22.7917 4.3827 21.1856 4.75064 19.9445 4.23285C18.6535 3.68963 17.8386 2.38095 17.9187 0.976265C17.945 0.534763 17.6222 0.151124 17.1823 0.0998765C16.0617 -0.0298628 14.9313 -0.0336252 13.8075 0.0910542C13.3731 0.139058 13.0506 0.513615 13.065 0.949539C13.1136 2.34047 12.2895 3.62606 11.011 4.14982C9.7848 4.65074 8.18991 4.28552 7.29769 3.30405C7.0028 2.98074 6.50966 2.94104 6.16572 3.20921C5.26689 3.9146 4.4494 4.72223 3.73921 5.60835C3.46247 5.9528 3.50334 6.45204 3.8286 6.74798C4.87287 7.69365 5.20954 9.19732 4.66736 10.4908C4.1497 11.724 2.8693 12.5184 1.40364 12.5184C0.928015 12.5031 0.589525 12.8226 0.536981 13.2552C0.405166 14.3817 0.403738 15.5302 0.530623 16.6659C0.577978 17.0894 1.08435 17.4039 1.51431 17.4039C2.82078 17.3706 4.07432 18.1789 4.60093 19.4591C5.12495 20.7376 4.78763 22.2278 3.76191 23.1686C3.44106 23.4635 3.40007 23.9561 3.67096 24.2985C4.36753 25.1863 5.16776 25.9939 6.0435 26.6993C6.38731 26.9761 6.88733 26.9374 7.18534 26.6089C8.08288 25.6163 9.68866 25.2491 10.9247 25.7679C12.2195 26.3097 13.034 27.6182 12.9545 29.0233C12.9284 29.4648 13.2519 29.8496 13.6903 29.8997C14.2638 29.9668 14.8402 30 15.4185 30C15.9673 30 16.5162 29.97 17.0651 29.9089C17.5 29.8609 17.822 29.486 17.8074 29.0499C17.7571 27.6596 18.5831 26.3739 19.8601 25.8512C21.0944 25.347 22.6822 25.716 23.5749 26.696C23.8714 27.0187 24.3615 27.0579 24.7069 26.7907C25.6042 26.0872 26.4201 25.2799 27.1334 24.3915C27.4104 24.0477 27.3711 23.5478 27.044 23.2513C26 22.3063 25.6615 20.802 26.2037 19.5098C26.7133 18.2932 27.9461 17.4764 29.272 17.4764L29.4576 17.4813C29.888 17.5162 30.2836 17.1847 30.3356 16.7456C30.4681 15.618 30.4695 14.4708 30.3421 13.3347ZM15.4365 23.6477C10.6604 23.6477 6.78886 19.7761 6.78886 15.0002C6.78886 10.2242 10.6605 6.35266 15.4365 6.35266C20.2125 6.35266 24.0841 10.2242 24.0841 15.0002C24.0841 16.6213 23.6372 18.1375 22.861 19.4341L19.0744 15.6474C19.3485 15.0011 19.4933 14.3004 19.4932 13.5772C19.4932 12.1611 18.9417 10.8298 17.9402 9.82863C16.939 8.82744 15.6078 8.27605 14.1919 8.27605C13.7194 8.27605 13.2491 8.33884 12.7941 8.46274C12.5948 8.5171 12.4319 8.68135 12.3788 8.88102C12.3246 9.08523 12.3857 9.2945 12.5453 9.45421C12.5453 9.45421 14.4147 11.338 15.0401 11.9634C15.1057 12.0289 15.1055 12.1852 15.0963 12.2415L15.0905 12.2827C15.0274 12.9703 14.9059 13.7957 14.8056 14.1129C14.7921 14.1262 14.7794 14.1375 14.7656 14.1513C14.7512 14.1657 14.738 14.1796 14.7241 14.1938C14.4027 14.297 13.5646 14.42 12.8661 14.4825L12.8662 14.4788L12.8348 14.4867C12.8293 14.4873 12.8189 14.4881 12.8051 14.4881C12.7296 14.4881 12.6186 14.4669 12.5176 14.3661C11.8666 13.7151 10.0705 11.9318 10.0705 11.9318C9.90935 11.7712 9.74406 11.7375 9.63391 11.7375C9.37716 11.7375 9.14726 11.923 9.07486 12.1891C8.58043 14.0188 9.10457 15.987 10.4431 17.3256C11.4446 18.3269 12.7759 18.8783 14.192 18.8783C14.9152 18.8783 15.6159 18.7337 16.2622 18.4595L20.0899 22.2872C18.746 23.1471 17.1502 23.6477 15.4365 23.6477Z" opacity=".8" fill="#7C7C81"/>
</svg>
