<svg width="40" height="39" viewBox="0 0 40 39" fill="none" xmlns="http://www.w3.org/2000/svg">
<path d="M15.4098 2.42584V4.03239L11.9508 4.06518L8.47537 4.11436L8.45898 9.03237L8.44259 13.9504L6.57374 14.5569C5.55735 14.8848 4.6885 15.1963 4.63932 15.2291C4.60654 15.2782 4.9344 16.0323 5.37702 16.9176C7.03276 20.2127 8.59013 25.1143 9.03275 28.3766C9.13111 29.147 9.18029 29.8192 9.1475 29.852C9.11472 29.8848 8.68849 29.7208 8.19669 29.4749C7.39341 29.0815 7.11472 29.0323 5.57375 29.0323C4.1967 29.0323 3.62293 29.1143 2.7049 29.4257C1.32786 29.9011 -0.0491833 30.5569 0.0327836 30.7372C0.0655703 30.8028 0.409831 31.4257 0.819666 32.1142C1.32786 32.9831 1.63933 33.3601 1.80327 33.311C1.93442 33.2782 2.52458 33.0323 3.11474 32.7864C3.75408 32.5077 4.59014 32.311 5.21309 32.2618C6.1803 32.1962 6.37702 32.2454 7.75406 32.9011C9.11471 33.5569 9.37701 33.6224 10.5082 33.6224C11.6393 33.6224 11.8688 33.5569 13.1311 32.9175C14.9672 32.0159 15.5737 31.9995 17.377 32.8683C19.5737 33.9339 21.1147 33.9011 23.4261 32.7208C23.9671 32.4585 24.6392 32.229 24.9015 32.229C25.1638 32.229 25.9015 32.4913 26.5245 32.8028C28.754 33.9503 30.6884 33.9339 32.9671 32.8028C33.59 32.4749 34.3441 32.229 34.6556 32.229C35.2949 32.229 37.1802 32.7864 38.0654 33.229L38.6884 33.5405L39.3441 32.229C39.7048 31.5077 39.9998 30.8192 39.9998 30.688C39.9998 30.4093 37.9179 29.5569 36.2621 29.1798C34.4425 28.7536 33.2458 28.9503 31.1146 30.0651C31.0491 30.0979 31.0327 29.8028 31.0818 29.4093C31.4753 25.6061 32.7868 21.2618 34.8195 16.9176C35.5244 15.393 35.6064 15.016 35.213 15.016C35.131 15.016 34.3277 14.7864 33.4261 14.5078L31.8032 13.9996V9.01598V4.03239H28.2786H24.754V2.47502C24.754 1.09798 24.7212 0.917648 24.4753 0.917648C24.3114 0.917648 22.213 0.901257 19.7868 0.884865L15.4098 0.835682V2.42584ZM28.131 9.93401C28.1474 11.3274 28.131 12.5406 28.0819 12.6553C28.0327 12.7865 26.9343 12.5078 24.7048 11.8029C22.8852 11.2291 21.0819 10.6717 20.7048 10.5733C20.0655 10.4094 19.754 10.475 16.1967 11.5733C14.0983 12.2291 12.3278 12.8028 12.2622 12.8356C12.1803 12.8684 12.1311 11.6389 12.1311 10.0979V7.31107L20.1311 7.34385L28.1146 7.39303L28.131 9.93401Z" fill="#96969A"/>
<path d="M4.50818 34.3764C3.98359 34.4583 3.27868 34.6059 2.95081 34.7042C1.99999 35.0157 0 35.8518 0 35.9665C0 36.0649 0.622948 37.1633 1.26229 38.1796L1.63934 38.7862L2.16393 38.5239C3.19671 37.9829 4.52457 37.6223 5.47539 37.6223C6.26227 37.6059 6.63932 37.7206 7.6721 38.2452C8.85243 38.8354 8.98357 38.8682 10.4918 38.8682C12 38.8682 12.1147 38.8354 13.2622 38.2452C14.918 37.3764 15.7213 37.3764 17.3606 38.2288C18.5245 38.8354 18.6229 38.8682 20.1475 38.8682C21.5901 38.8682 21.8196 38.819 22.8688 38.3108C24.8032 37.3928 24.7868 37.3928 26.3933 38.1305C28.8523 39.2616 30.5737 39.2616 32.9507 38.1305L34.3769 37.4583L35.4917 37.7206C36.0982 37.8518 37.049 38.1469 37.59 38.3764C38.131 38.5895 38.6228 38.737 38.6884 38.7042C38.9015 38.5731 40.0326 36.1469 39.9507 35.9501C39.8359 35.6551 37.1474 34.6879 35.8031 34.442C34.2786 34.1797 33.3441 34.3272 31.7212 35.1141C30.0491 35.9174 29.3442 35.9174 27.7704 35.1305C25.6392 34.0649 24.1802 34.0485 21.9999 35.1141C20.4425 35.8846 19.918 35.8846 18.4098 35.1141C16.2458 34.0321 14.3114 34.0321 12.1475 35.1305C11.4426 35.4747 10.7213 35.737 10.4262 35.7206C10.1311 35.7042 9.37701 35.4419 8.75407 35.1305C7.70489 34.6059 7.1803 34.442 5.90162 34.278C5.67211 34.2616 5.04916 34.2944 4.50818 34.3764Z" fill="#96969A"/>
</svg>
