<svg width="40" height="21" viewBox="0 0 40 21" fill="none" xmlns="http://www.w3.org/2000/svg">
<path d="M10 20C12.7614 20 15 17.7614 15 15C15 12.2386 12.7614 10 10 10C7.23858 10 5 12.2386 5 15C5 17.7614 7.23858 20 10 20Z" stroke="#96969A" stroke-width="2"/>
<path d="M10 17C11.1046 17 12 16.1046 12 15C12 13.8954 11.1046 13 10 13C8.89543 13 8 13.8954 8 15C8 16.1046 8.89543 17 10 17Z" fill="#96969A"/>
<path d="M31 20C33.7614 20 36 17.7614 36 15C36 12.2386 33.7614 10 31 10C28.2386 10 26 12.2386 26 15C26 17.7614 28.2386 20 31 20Z" stroke="#96969A" stroke-width="2"/>
<path d="M31 17C32.1046 17 33 16.1046 33 15C33 13.8954 32.1046 13 31 13C29.8954 13 29 13.8954 29 15C29 16.1046 29.8954 17 31 17Z" fill="#96969A"/>
<path fill-rule="evenodd" clip-rule="evenodd" d="M31.5 0L30.5 0.5L29 1H0L0.825757 4.71591L24.4144 10.2199L31 1H40V0H31.5ZM18 15V9.75004L18.6347 9.89813L18.6717 9.93515L18.6947 9.91214L23.7857 11.1L21 15H18ZM4.44816 4.552L7.00016 2H9.12148L6.16815 4.95333L4.44816 4.552ZM9.17367 5.65461L12.8283 2H14.9496L10.8937 6.05594L9.17367 5.65461ZM13.8996 6.75731L18.6569 2H20.7782L15.6196 7.15864L13.8996 6.75731ZM18.6255 7.86001L24.4855 2H26.6068L20.3455 8.26134L18.6255 7.86001Z" fill="#96969A"/>
<path fill-rule="evenodd" clip-rule="evenodd" d="M31.4996 2H36.9996L38.9996 7V15H37.9996C37.9996 11.134 34.8655 8 30.9996 8H27.3457L31.4996 2ZM35.9995 3H31.9995V6H36.9995L35.9995 3Z" fill="#96969A"/>
</svg>
