<svg width="35" height="35" viewBox="0 0 35 35" fill="none" xmlns="http://www.w3.org/2000/svg">
<path d="M16.6256 0.0452971C14.315 0.371111 12.4488 1.70152 11.485 3.71749C11.0543 4.62706 11.1773 4.72888 12.6471 4.72888C13.8297 4.72888 13.8092 4.73566 14.1373 4.25373C15.6891 1.97982 19.3121 1.97982 20.8639 4.25373C21.192 4.73566 21.1715 4.72888 22.3541 4.72888C23.5435 4.72888 23.7213 4.67457 23.7213 4.3284C23.7213 4.09761 23.2838 3.20841 22.942 2.72648C22.3062 1.84406 21.1783 0.941286 20.1734 0.520443C19.2027 0.106387 17.651 -0.0972466 16.6256 0.0452971Z" fill="#96969A"/>
<path d="M2.60407 6.09322C1.72223 6.26292 0.792545 6.97563 0.382389 7.79017C0.0132483 8.53004 -0.00725954 8.76083 0.0132483 13.1729L0.0337561 17.1709L6.93805 18.9289C12.0308 20.2186 13.8902 20.6666 14.0132 20.6327C14.3072 20.5377 14.355 20.334 14.355 19.0986C14.355 18.4131 14.3824 17.904 14.4302 17.8157C14.5943 17.5103 14.8062 17.4899 17.4996 17.4899C20.1929 17.4899 20.4049 17.5103 20.5689 17.8157C20.6168 17.904 20.6441 18.4131 20.6441 19.0986C20.6441 20.334 20.692 20.5377 20.9859 20.6327C21.109 20.6666 22.9683 20.2186 28.0611 18.9289L34.9654 17.1709L34.9859 13.1729C34.9996 10.4374 34.9791 9.03234 34.9244 8.71331C34.7193 7.47114 33.7554 6.44619 32.4908 6.12037C32.149 6.03213 30.2349 6.01856 17.4996 6.02534C9.47419 6.03213 2.76813 6.05928 2.60407 6.09322Z" fill="#96969A"/>
<path d="M0 25.0379C0 32.1583 0 32.138 0.389648 32.8371C0.792969 33.5838 1.53125 34.1947 2.31055 34.439C2.67969 34.5544 3.44531 34.5612 17.5 34.5612C31.5547 34.5612 32.3203 34.5544 32.6895 34.439C33.4688 34.1947 34.207 33.5838 34.6104 32.8371C35 32.138 35 32.1583 35 25.0379C35 20.8227 34.9795 18.5081 34.9316 18.5081C34.8223 18.5081 21.1709 21.9699 20.9658 22.0513C20.8564 22.092 20.7402 22.2006 20.7061 22.2889C20.6719 22.3771 20.6445 22.9134 20.6445 23.47V24.4949L20.4463 24.6918L20.248 24.8886H17.5H14.752L14.5537 24.6918L14.3555 24.4949V23.47C14.3555 22.9134 14.3281 22.3771 14.2939 22.2889C14.2598 22.2006 14.1436 22.092 14.0342 22.0513C13.8291 21.9699 0.177734 18.5081 0.0683594 18.5081C0.0205078 18.5081 0 20.8227 0 25.0379Z" fill="#96969A"/>
<path d="M15.751 18.9221C15.6279 19.0579 15.6211 19.1936 15.6211 21.2367C15.6211 23.307 15.6279 23.4088 15.751 23.5039C15.9492 23.6464 19.0527 23.6464 19.251 23.5039C19.374 23.4088 19.3809 23.307 19.3809 21.2367C19.3809 19.1936 19.374 19.0579 19.251 18.9221C19.1279 18.7863 19.0596 18.7796 17.501 18.7796C15.9424 18.7796 15.874 18.7863 15.751 18.9221Z" fill="#96969A"/>
</svg>
