<svg width="40" height="40" viewBox="0 0 40 40" fill="none" xmlns="http://www.w3.org/2000/svg">
<path d="M16.9084 9L20.5 11.1537L24.0916 9L30.0968 12.601H10.9032L16.9084 9Z" fill="#F6C358"/>
<path d="M5.63578 24.4072V14.3029H35.3642V24.4072H5.63578Z" fill="#F6C358"/>
<path d="M4 25.7687H37V27.4886H35.3642V29.2085C35.3642 30.1979 34.5682 31 33.5862 31C32.6042 31 31.8082 30.1979 31.8082 29.2085H28.9634C28.9634 30.1979 28.1673 31 27.1853 31C26.2034 31 25.4073 30.1979 25.4073 29.2085V27.4886H15.5927V29.2085C15.5927 30.1979 14.7966 31 13.8147 31C12.8327 31 12.0366 30.1979 12.0366 29.2085H9.19181C9.19181 30.1979 8.39576 31 7.41379 31C6.43182 31 5.63578 30.1979 5.63578 29.2085V27.4886H4V25.7687Z" fill="#F6C358"/>
</svg>
