<svg width="40" height="28" viewBox="0 0 40 28" fill="none" xmlns="http://www.w3.org/2000/svg">
<path d="M0 2.24141V4.48281H5.03453C9.20698 4.48281 10.0346 4.55178 9.89664 4.96557C9.79319 5.24144 8.37938 7.48284 6.7242 10.0001C5.10349 12.5174 3.79314 14.6208 3.8621 14.6553C3.93107 14.7243 4.58625 14.6553 5.34488 14.4829C8.03455 13.8967 11.0691 15.2415 12.5518 17.6898L13.3449 19.0002L15.0001 10.7242C15.8967 6.17248 16.5519 2.10348 16.4484 1.62072C16.0691 0.206911 14.9657 1.33514e-05 7.24144 1.33514e-05H0V2.24141Z" fill="#96969A"/>
<path d="M18.6222 0.689737C18.2429 1.06905 17.8636 1.72423 17.7601 2.13803C16.9325 5.6553 14.898 16.0347 15.036 16.1726C15.1049 16.2416 15.4498 16.0347 15.8291 15.7244C16.8291 14.8278 19.5877 14.1037 21.0015 14.345C22.5188 14.6209 23.3809 15.0347 24.4499 16.0002L25.2774 16.7244L25.0705 15.8623C24.0361 11.2071 22.3809 2.20699 22.5188 1.75871C22.6223 1.44836 22.7947 0.931119 22.9326 0.586288C23.1395 0.0690422 22.9671 7.62939e-05 21.2429 7.62939e-05C19.7946 7.62939e-05 19.1395 0.172491 18.6222 0.689737Z" fill="#96969A"/>
<path d="M24.2059 0.68955C23.7921 1.10335 23.4473 1.75853 23.4473 2.17232C23.4473 2.58612 24.1714 6.55167 25.0335 10.9655L26.6542 18.9656L27.4128 17.7242C28.8956 15.2414 32.3094 13.7586 34.8267 14.4828C35.4819 14.6552 36.0681 14.7586 36.137 14.6897C36.206 14.5862 34.9301 12.4828 33.2749 9.99998C31.6542 7.48271 30.2059 5.24131 30.1025 4.96545C29.9646 4.55165 30.7922 4.48269 34.9646 4.48269H39.9991V2.24129V-0.000110626H32.4818C25.3783 -0.000110626 24.93 0.0343723 24.2059 0.68955Z" fill="#96969A"/>
<path d="M4.65567 15.5175C3.03496 16.0347 1.17288 18.0692 0.724599 19.8279C-0.309893 24.0003 3.55221 28.2762 7.62121 27.4141C10.4143 26.8279 12.7592 24.1038 12.7592 21.3796C12.7592 19.621 11.4833 17.3106 9.96606 16.3106C8.51777 15.3451 6.27637 15.0002 4.65567 15.5175ZM9.17295 18.7589C10.1385 19.7244 10.3454 20.2072 10.3454 21.3451C10.3454 23.2762 8.96605 24.7934 7.06948 25.0348C3.10393 25.5176 1.24185 20.3106 4.62119 18.2416C6.31086 17.2072 7.79363 17.3796 9.17295 18.7589Z" fill="#96969A"/>
<path d="M18.033 15.5518C16.4468 16.0345 14.5847 18.0001 14.1365 19.7242C13.3089 22.7242 14.5503 25.3449 17.4468 26.7588C19.6193 27.8277 21.4814 27.7243 23.3779 26.4484C25.0331 25.3449 26.3435 22.4484 26.0676 20.6208C25.4469 16.7587 21.7227 14.4138 18.033 15.5518ZM21.7227 18.1035C22.8262 18.6897 23.7917 20.207 23.7917 21.3794C23.7917 23.2415 21.8262 25.1725 19.9296 25.1725C18.7227 25.1725 17.0675 24.0001 16.5848 22.7932C15.2054 19.5173 18.5503 16.4828 21.7227 18.1035Z" fill="#96969A"/>
<path d="M31.2758 15.6554C29.5517 16.2761 28.6551 17.1036 27.8965 18.7933C25.7585 23.4485 29.931 28.552 34.7931 27.2417C37.5518 26.5175 39.3794 24.1727 39.3794 21.3795C39.3794 18.7588 37.5518 16.2071 35.1379 15.5174C33.6207 15.0691 32.8621 15.1036 31.2758 15.6554ZM35.4138 18.2761C37.7931 19.7244 37.5862 23.483 35.069 24.6899C32.4827 25.9313 29.6551 24.1382 29.6551 21.3106C29.6551 20.2071 29.8965 19.6899 30.8276 18.7588C32.2069 17.3795 33.6897 17.2071 35.4138 18.2761Z" fill="#96969A"/>
</svg>
