<svg width="10" height="10" viewBox="0 0 10 10" fill="none" xmlns="http://www.w3.org/2000/svg">
<path fill-rule="evenodd" clip-rule="evenodd" d="M6.36785 0.266968H3.96785V0.946967H2.3678V3.39619L1.52778 3.62697L2.72778 5.52697V7.11963C2.6662 7.06492 2.58613 7.00211 2.48142 6.95168C2.34072 6.88392 2.17486 6.84697 1.96781 6.84697C1.31761 6.84697 0.789793 7.22072 0.59568 7.41484C0.478523 7.53199 0.478523 7.72194 0.59568 7.8391C0.712838 7.95626 0.902787 7.95626 1.01994 7.8391C1.14583 7.71321 1.53001 7.44697 1.96781 7.44697C2.10077 7.44697 2.17491 7.47002 2.22108 7.49226C2.27009 7.51586 2.30868 7.548 2.3697 7.60543L2.38576 7.62064C2.44151 7.6736 2.52545 7.75335 2.63485 7.81417C2.76508 7.88657 2.91746 7.92697 3.10781 7.92697C3.28773 7.92697 3.43328 7.89709 3.5598 7.84502C3.6802 7.79547 3.77153 7.72996 3.83658 7.68331L3.84012 7.68078C3.90966 7.63092 3.9495 7.60325 3.99831 7.58256C4.04201 7.56404 4.10425 7.54697 4.20781 7.54697C4.31115 7.54697 4.36145 7.56392 4.39133 7.57794C4.42414 7.59333 4.44638 7.61009 4.49553 7.64712L4.49554 7.64713L4.53607 7.67753C4.6109 7.73329 4.71008 7.80118 4.85543 7.85124C4.99794 7.90032 5.16874 7.92697 5.38781 7.92697C5.60493 7.92697 5.77237 7.90087 5.90949 7.8464C6.05364 7.78915 6.14048 7.70951 6.19967 7.65184L6.20029 7.65123L6.2003 7.65122L6.2003 7.65122L6.20031 7.65121L6.20032 7.65121C6.25888 7.59415 6.26765 7.5856 6.28839 7.57537C6.30606 7.56665 6.3564 7.54697 6.48781 7.54697C6.61774 7.54697 6.68023 7.56616 6.71273 7.58058C6.74781 7.59614 6.77095 7.61483 6.83176 7.66618C6.8915 7.71663 6.98008 7.79097 7.11472 7.84559C7.24792 7.89963 7.40603 7.92697 7.60781 7.92697C7.82337 7.92697 7.99458 7.88482 8.1377 7.80318C8.26983 7.72781 8.35796 7.62848 8.41541 7.56374L8.42203 7.55628C8.48481 7.48565 8.51502 7.45485 8.5552 7.43193C8.58958 7.41232 8.65337 7.38697 8.78781 7.38697C8.99854 7.38697 9.0951 7.4521 9.14001 7.49839C9.19262 7.5526 9.20715 7.61483 9.20801 7.63807C9.21415 7.80364 9.35334 7.9329 9.51891 7.92676C9.68448 7.92063 9.81374 7.78144 9.8076 7.61587C9.8018 7.45911 9.73633 7.25133 9.57061 7.08055C9.39719 6.90184 9.13708 6.78697 8.78781 6.78697C8.57225 6.78697 8.40104 6.82912 8.25792 6.91076C8.12578 6.98613 8.03765 7.08546 7.98021 7.1502L7.97359 7.15766C7.91081 7.22829 7.8806 7.25909 7.84042 7.28201C7.80604 7.30162 7.74225 7.32697 7.60781 7.32697H7.60778V5.52697L8.80778 3.62697L7.96779 3.3962V0.946967H6.36785V0.266968ZM7.0078 1.90697H3.3278V3.13246L5.16778 2.62697L7.0078 3.13247V1.90697ZM8.1577 9.14318C8.01457 9.22482 7.84336 9.26697 7.6278 9.26697C7.42602 9.26697 7.26792 9.23963 7.13471 9.18559C7.00007 9.13097 6.9115 9.05663 6.85175 9.00618C6.79095 8.95483 6.76781 8.93614 6.73272 8.92058C6.70023 8.90616 6.63774 8.88697 6.50781 8.88697C6.3764 8.88697 6.32606 8.90665 6.30838 8.91537C6.28764 8.9256 6.27887 8.93415 6.22029 8.99123L6.21966 8.99184C6.16048 9.04951 6.07364 9.12915 5.92949 9.18641C5.79236 9.24087 5.62492 9.26697 5.40781 9.26697C5.18873 9.26697 5.01793 9.24032 4.87543 9.19124C4.73007 9.14118 4.6309 9.0733 4.55606 9.01754L4.51553 8.98713L4.51553 8.98712C4.46637 8.95009 4.44414 8.93334 4.41133 8.91794C4.38145 8.90393 4.33115 8.88697 4.22781 8.88697C4.12425 8.88697 4.06201 8.90404 4.0183 8.92257C3.9695 8.94325 3.92965 8.97092 3.86011 9.02078L3.85658 9.02332C3.79153 9.06997 3.70019 9.13547 3.57979 9.18502C3.45328 9.23709 3.30772 9.26697 3.12781 9.26697C2.93746 9.26697 2.78507 9.22658 2.65484 9.15417C2.54545 9.09335 2.4615 9.0136 2.40575 8.96064L2.3897 8.94543C2.32868 8.888 2.29008 8.85586 2.24107 8.83226C2.1949 8.81002 2.12076 8.78697 1.98781 8.78697C1.55001 8.78697 1.16583 9.05322 1.03994 9.1791C0.922782 9.29626 0.732833 9.29626 0.615676 9.1791C0.498518 9.06195 0.498518 8.872 0.615676 8.75484C0.809789 8.56073 1.33761 8.18697 1.98781 8.18697C2.19485 8.18697 2.36071 8.22392 2.50142 8.29168C2.63928 8.35808 2.73444 8.44594 2.80092 8.50851L2.80469 8.51207C2.87446 8.57773 2.90571 8.60715 2.9464 8.62977C2.97804 8.64737 3.02815 8.66697 3.12781 8.66697C3.23789 8.66697 3.30483 8.64935 3.35144 8.63017C3.40197 8.60938 3.44326 8.58137 3.5105 8.53316L3.51928 8.52686C3.58184 8.48193 3.6703 8.41839 3.78418 8.37013C3.90861 8.3174 4.05137 8.28697 4.22781 8.28697C4.40446 8.28697 4.54417 8.31752 4.66616 8.37475C4.76133 8.4194 4.84048 8.47991 4.89133 8.51879L4.91455 8.53641C4.96722 8.57565 5.00929 8.60276 5.07081 8.62395C5.13518 8.64612 5.23688 8.66697 5.40781 8.66697C5.58069 8.66697 5.66575 8.64557 5.708 8.62879C5.74323 8.61479 5.76263 8.59943 5.80095 8.5621L5.81373 8.54947C5.85577 8.50767 5.93167 8.43219 6.04285 8.37732C6.16956 8.31479 6.31921 8.28697 6.50781 8.28697C6.69787 8.28697 6.84788 8.31528 6.97601 8.37212C7.09328 8.42413 7.17571 8.49414 7.2282 8.53872L7.23886 8.54776C7.29161 8.59231 7.31929 8.61297 7.36027 8.6296C7.40269 8.64681 7.47959 8.66697 7.6278 8.66697C7.76225 8.66697 7.82604 8.64162 7.86041 8.62201C7.90059 8.59909 7.9308 8.56829 7.99358 8.49766L8.0002 8.4902C8.05765 8.42546 8.14578 8.32613 8.27791 8.25076C8.42104 8.16912 8.59225 8.12697 8.8078 8.12697C9.15708 8.12697 9.41718 8.24184 9.5906 8.42055C9.75632 8.59134 9.82179 8.79911 9.8276 8.95587C9.83373 9.12144 9.70448 9.26063 9.53891 9.26677C9.37334 9.2729 9.23414 9.14365 9.22801 8.97807C9.22715 8.95483 9.21262 8.89261 9.16001 8.83839C9.11509 8.7921 9.01853 8.72697 8.8078 8.72697C8.67336 8.72697 8.60957 8.75232 8.5752 8.77193C8.53501 8.79485 8.50481 8.82565 8.44203 8.89628L8.43541 8.90374C8.37796 8.96848 8.28983 9.06781 8.1577 9.14318Z" opacity=".8" fill="#7C7C81"/>
</svg>
