<svg width="30" height="30" viewBox="0 0 30 30" fill="none" xmlns="http://www.w3.org/2000/svg">
<path fill-rule="evenodd" clip-rule="evenodd" d="M14.9987 6.81802C16.8814 6.81802 18.4077 5.29176 18.4077 3.40901C18.4077 1.52627 16.8814 0 14.9987 0C13.1159 0 11.5897 1.52627 11.5897 3.40901C11.5897 5.29176 13.1159 6.81802 14.9987 6.81802ZM10.3231 13.6363H19.674C20.4797 13.6363 21.1348 12.9291 21.1348 12.0596V11.6228C21.1348 10.4836 20.5709 9.4429 19.662 8.90687C18.5734 8.26499 16.8809 7.5 14.9986 7.5C13.1163 7.5 11.4237 8.26505 10.3351 8.90687C9.42627 9.44283 8.8623 10.4836 8.8623 11.6228V12.0596C8.8623 12.9292 9.51748 13.6363 10.3231 13.6363ZM9.54264 19.7725C9.54264 21.6552 8.01637 23.1815 6.13363 23.1815C4.25088 23.1815 2.72461 21.6552 2.72461 19.7725C2.72461 17.8897 4.25088 16.3634 6.13363 16.3634C8.01637 16.3634 9.54264 17.8897 9.54264 19.7725ZM10.7997 25.2702C9.71108 24.6283 8.01856 23.8633 6.13626 23.8633C4.25396 23.8633 2.56144 24.6284 1.47283 25.2702C0.563961 25.8062 0 26.8468 0 27.9861V28.4228C0 29.2924 0.655174 29.9995 1.46081 29.9995H10.8117C11.6173 29.9995 12.2725 29.2924 12.2725 28.4228V27.9861C12.2725 26.8468 11.7086 25.8062 10.7997 25.2702ZM27.2726 19.7725C27.2726 21.6553 25.7463 23.1815 23.8636 23.1815C21.9809 23.1815 20.4546 21.6553 20.4546 19.7725C20.4546 17.8898 21.9809 16.3635 23.8636 16.3635C25.7463 16.3635 27.2726 17.8898 27.2726 19.7725ZM28.5271 25.2702C27.4385 24.6283 25.7459 23.8633 23.8636 23.8633C21.9813 23.8633 20.2888 24.6284 19.2002 25.2702C18.2913 25.8062 17.7273 26.8469 17.7273 27.9862V28.4229C17.7273 29.2925 18.3825 29.9996 19.1882 29.9996H28.5391C29.3447 29.9996 29.9999 29.2925 29.9999 28.4229V27.9862C29.9998 26.8468 29.4359 25.8062 28.5271 25.2702ZM18.943 22.9258C18.8078 23.0936 18.61 23.1814 18.4096 23.1814C18.2604 23.1814 18.11 23.1328 17.9841 23.0323L15.0012 20.646L12.0183 23.0323C11.8925 23.1328 11.742 23.1814 11.5929 23.1814C11.3924 23.1814 11.1947 23.0935 11.0595 22.9257C10.8245 22.6314 10.8724 22.2026 11.1661 21.9669L14.3194 19.4448V15.6815C14.3194 15.3047 14.6244 14.9998 15.0012 14.9998C15.3781 14.9998 15.6831 15.3047 15.6831 15.6816V19.4443L18.8364 21.967C19.1301 22.2026 19.178 22.6315 18.943 22.9258Z" fill="#007BC4"/>
</svg>
