<svg width="47" height="30" viewBox="0 0 47 30" fill="none" xmlns="http://www.w3.org/2000/svg">
<path d="M13.7363 2.39006L9.20331 4.69775H23.0769H36.9506L32.2802 2.33512L27.6374 -4.81606e-05L25.3572 1.12633L23.0769 2.2527L20.8791 1.1538C19.6703 0.549403 18.5989 0.0548968 18.489 0.0823698C18.3517 0.0823698 16.2363 1.12633 13.7363 2.39006Z" opacity=".8" fill="#7C7C81"/>
<path d="M2.19781 13.9286V20.9341H22.9396H43.6813V13.9286V6.92309H22.9396H2.19781V13.9286Z" opacity=".8" fill="#7C7C81"/>
<path d="M0 24.0934V25.3297H1.07143H2.11538L2.28022 27.033C2.47253 29.0934 3.24176 30 4.83516 30C5.85165 30 7.14286 29.011 7.14286 28.2143C7.14286 27.8846 7.55494 27.8022 9.34066 27.8022C11.1264 27.8022 11.5385 27.8846 11.5385 28.2143C11.5385 28.4615 11.8407 28.956 12.2253 29.3132C13.0494 30.1648 14.478 30.2198 15.4945 29.4231C16.1264 28.9286 16.2088 28.6813 16.2088 27.0879V25.3297H22.9121H29.5879L29.7527 27.033C29.9451 29.0934 30.7143 30 32.3077 30C33.3242 30 34.6154 29.011 34.6154 28.2143C34.6154 27.8846 35.0275 27.8022 36.8132 27.8022C38.5989 27.8022 39.011 27.8846 39.011 28.2143C39.011 28.4615 39.3132 28.956 39.6978 29.3132C40.522 30.1648 41.9505 30.2198 42.967 29.4231C43.5989 28.9286 43.6813 28.6813 43.6813 27.0879V25.3297H44.9176H46.1538V24.0934V22.8571H23.0769H0V24.0934Z" opacity=".8" fill="#7C7C81"/>
</svg>
