<svg width="40" height="33" viewBox="0 0 40 33" fill="none" xmlns="http://www.w3.org/2000/svg">
<path d="M34.2969 8.08594V16.1719H33.8281H33.3672L33.3438 16.9688L33.3203 17.7734L32.8984 17.7969C32.1016 17.8438 32.1094 17.8438 32.1094 16.9531V16.1719H31.6406H31.1719V11.0547V5.9375H30.2734H29.375V11.0547V16.1719H28.8672H28.3594V16.9922V17.8203L27.1328 17.7969L25.8984 17.7734L25.875 13.1094L25.8594 8.45312L24.625 9.00781C23.9531 9.3125 21.2891 10.5156 18.7109 11.6875L14.0234 13.8125L13.9844 11.1406L13.9453 8.46094L8.125 11.1016C4.92188 12.5547 2 13.8828 1.625 14.0547L0.9375 14.3594V22.9219V31.4844H0.46875H0V32.1484V32.8125H20H40V32.1484V31.4844H39.4141H38.8281V24.6484V17.8125H37.9688H37.1094V16.9922V16.1797L36.625 16.1562L36.1328 16.1328L36.1094 8.0625L36.0938 0H35.1953H34.2969V8.08594ZM7.42188 22.1484V22.9688H6.5625H5.70312V22.1484V21.3281H6.5625H7.42188V22.1484ZM10.625 22.1484V22.9688H9.80469H8.98438V22.1484V21.3281H9.80469H10.625V22.1484ZM13.9062 22.1484V22.9688H13.0469H12.1875V22.1484V21.3281H13.0469H13.9062V22.1484ZM29.6094 22.1484V22.9688H28.7891H27.9688V22.1484V21.3281H28.7891H29.6094V22.1484ZM32.8906 22.1484V22.9766L32.0547 22.9531L31.2109 22.9297L31.1875 22.6953C31.1719 22.5625 31.1797 22.2031 31.2109 21.8906L31.2656 21.3281H32.0781H32.8906V22.1484ZM36.1328 22.1484V22.9297L35.2969 22.9531L34.4531 22.9766V22.1484V21.3203L35.2969 21.3438L36.1328 21.3672V22.1484ZM7.40625 25.4062L7.42969 26.25H6.5625H5.70312V25.4453C5.70312 25 5.72656 24.6094 5.75781 24.5781C5.78906 24.5469 6.16406 24.5391 6.59375 24.5469L7.38281 24.5703L7.40625 25.4062ZM10.625 25.3906V26.25H9.80469H8.98438V25.3906V24.5312H9.80469H10.625V25.3906ZM13.8906 25.4141L13.9141 26.2578L13.0703 26.2344L12.2266 26.2109L12.2031 25.4766C12.1953 25.0703 12.1953 24.6953 12.2188 24.6406C12.2422 24.5703 12.4844 24.5469 13.0625 24.5547L13.8672 24.5703L13.8906 25.4141ZM29.6094 25.3906V26.25H28.7891H27.9688V25.3906V24.5312H28.7891H29.6094V25.3906ZM32.875 25.4062L32.8984 26.25H32.0781C31.25 26.25 31.25 26.25 31.2031 26.0469C31.1484 25.8281 31.2188 24.7266 31.2969 24.6016C31.3203 24.5625 31.6797 24.5391 32.0938 24.5469L32.8516 24.5703L32.875 25.4062ZM36.125 24.6484C36.1875 24.8125 36.1875 25.9609 36.125 26.125C36.0859 26.2266 35.9297 26.25 35.2656 26.25H34.4531V25.4453C34.4531 25 34.4688 24.6172 34.4922 24.5938C34.5156 24.5703 34.8828 24.5469 35.3047 24.5391C35.9531 24.5234 36.0781 24.5469 36.125 24.6484ZM33.0312 30.2109L33.0078 31.7578H32.0391H31.0625L31.0469 30.2734C31.0391 29.4609 31.0469 28.7656 31.0625 28.7344C31.0859 28.7031 31.5391 28.6719 32.0781 28.6719H33.0469L33.0312 30.2109Z" fill="#96969A"/>
</svg>
