<svg width="28" height="30" viewBox="0 0 28 30" fill="none" xmlns="http://www.w3.org/2000/svg">
<path d="M16.5409 18.0597V18.6423H17.1235C18.0888 18.6423 18.8709 17.8599 18.8709 16.8946V16.3123H18.2884C17.3233 16.3123 16.5409 17.0944 16.5409 18.0597Z" opacity=".8" fill="#7C7C81"/>
<path d="M15.9431 12.8169C15.9486 12.823 15.9538 12.8285 15.9584 12.8349C15.9631 12.8285 15.9681 12.823 15.9736 12.8169H15.9431Z" opacity=".8" fill="#7C7C81"/>
<path d="M16.5409 14.5646V15.1471H17.1235C18.0888 15.1471 18.8709 14.3646 18.8709 13.3995V12.8169H18.2884C17.3233 12.8169 16.5409 13.599 16.5409 14.5646Z" opacity=".8" fill="#7C7C81"/>
<path d="M16.5409 11.6518H17.1235C18.0888 11.6518 18.8709 10.8692 18.8709 9.9041V9.32153H18.2884C17.3233 9.32153 16.5409 10.1039 16.5409 11.0692V11.6518Z" opacity=".8" fill="#7C7C81"/>
<path d="M4.11793 20.3407L0.641174 23.5299H9.85083L6.37408 20.3407C5.72836 19.7744 4.76333 19.7744 4.11793 20.3407ZM4.44008 22.3205H3.63431V21.5142H4.44008V22.3205ZM6.4545 22.7237H5.64873V21.9174H6.4545V22.7237Z" opacity=".8" fill="#7C7C81"/>
<path d="M15.9431 16.3123C15.9486 16.3184 15.9538 16.3239 15.9584 16.33C15.9631 16.3239 15.9681 16.3184 15.9736 16.3123H15.9431Z" opacity=".8" fill="#7C7C81"/>
<path d="M1.41233e-06 24.7498C-0.00125968 26.4027 0.842099 27.9413 2.23561 28.8288C2.35132 28.9029 2.42115 29.0308 2.42115 29.1684V30H8.07087V29.1692C8.07102 29.0316 8.14102 28.9037 8.2564 28.8295C9.65023 27.9421 10.4937 26.4028 10.492 24.7498V24.3459H1.41233e-06V24.7498Z" opacity=".8" fill="#7C7C81"/>
<path d="M14.7932 11.6518H15.3758V11.0692C15.3758 10.1039 14.5934 9.32153 13.6281 9.32153H13.0455V9.9041C13.0455 10.8692 13.8281 11.6518 14.7932 11.6518Z" opacity=".8" fill="#7C7C81"/>
<path d="M16.6231 7.57382C16.6231 6.69816 16.3254 5.98816 15.9584 5.98816C15.5913 5.98816 15.2939 6.69816 15.2939 7.57382C15.2939 8.44972 15.5913 9.15949 15.9584 9.15949C16.3254 9.15949 16.6231 8.44972 16.6231 7.57382Z" opacity=".8" fill="#7C7C81"/>
<path d="M14.7932 18.6423H15.3758V18.0597C15.3758 17.0944 14.5934 16.3123 13.6281 16.3123H13.0455V16.8946C13.0455 17.8599 13.8281 18.6423 14.7932 18.6423Z" opacity=".8" fill="#7C7C81"/>
<path d="M14.7932 15.1471H15.3758V14.5646C15.3758 13.599 14.5934 12.8169 13.6281 12.8169H13.0455V13.3995C13.0455 14.3646 13.8281 15.1471 14.7932 15.1471Z" opacity=".8" fill="#7C7C81"/>
<path d="M26.2399 23.9814C25.9937 23.6526 25.8608 23.2528 25.8617 22.842V20.9387C25.8617 20.9091 25.8642 20.8795 25.8688 20.8504C26.2497 18.38 26.465 15.8868 26.513 13.3879C26.4638 10.8963 26.2486 8.41107 25.8688 5.9486C25.8642 5.91925 25.8617 5.88966 25.8617 5.85985V3.51754C25.8617 3.39147 25.9027 3.26881 25.9782 3.16823L27.4635 1.17704C27.6203 0.966548 27.6536 0.68892 27.5511 0.447703C27.4121 0.162338 27.1174 -0.0128866 26.8009 0.000767272H5.11609C4.79909 -0.0131142 4.50417 0.162338 4.36512 0.447703C4.26295 0.689375 4.2964 0.967686 4.45342 1.17818L5.6768 2.81732C5.92325 3.14615 6.0557 3.54621 6.05501 3.95696V5.85985C6.05501 5.88966 6.05274 5.91925 6.04819 5.9486C5.66724 8.41881 5.45197 10.912 5.40373 13.4111C5.43627 15.1005 5.5505 16.833 5.74098 18.5374L11.1092 23.4585C11.1126 23.4612 11.1144 23.4658 11.1181 23.4692C11.1295 23.4817 11.1404 23.4951 11.1499 23.509C11.1998 23.5632 11.2373 23.6276 11.2594 23.6977C11.2769 23.7461 11.2872 23.7971 11.2906 23.8485C11.2906 23.8627 11.2979 23.8736 11.2979 23.8877V25.0528C11.2951 25.6406 11.2284 26.2266 11.0994 26.8003H26.8009C27.1176 26.8144 27.4128 26.6387 27.5518 26.3536C27.654 26.1114 27.6203 25.8336 27.4631 25.6231L26.2399 23.9814ZM11.8804 13.3995V12.2344C11.8804 11.9126 12.1412 11.6518 12.463 11.6518H12.4785C12.0927 11.1507 11.8827 10.5365 11.8804 9.90412V6.40896H13.0455V8.15643H13.6281C13.819 8.15711 14.0093 8.17668 14.1961 8.21491C13.9221 6.87684 14.4926 5.50736 15.6352 4.75958C15.8309 4.62896 16.086 4.62896 16.2817 4.75958C17.4241 5.50736 17.9944 6.87684 17.7206 8.21491C17.9077 8.17668 18.0979 8.15711 18.2884 8.15643H18.871V6.40896H20.0361V9.90412C20.034 10.5365 19.824 11.1507 19.4385 11.6518H19.4535C19.7753 11.6518 20.0361 11.9126 20.0361 12.2344V13.3995C20.034 14.0317 19.824 14.6459 19.4385 15.1472H19.4535C19.7753 15.1472 20.0361 15.408 20.0361 15.7298V16.8946C20.0345 18.5024 18.7315 19.8054 17.1235 19.8075H16.5409V22.1377H15.3758V19.8075H14.7932C13.1855 19.8054 11.8825 18.5024 11.8804 16.8946V15.7298C11.8804 15.408 12.1412 15.1472 12.463 15.1472H12.4785C12.0927 14.6459 11.8827 14.0317 11.8804 13.3995ZM23.5315 24.468H12.463V23.3028H23.5315V24.468ZM24.114 3.49615H7.80248V2.33102H24.114V3.49615Z" opacity=".8" fill="#7C7C81"/>
</svg>
