<svg width="40" height="34" viewBox="0 0 40 34" fill="none" xmlns="http://www.w3.org/2000/svg">
<path d="M7.5 0.843445C7.04167 1.30178 6.66667 1.96844 6.66667 2.34344C6.66667 2.71844 6.125 3.55178 5.41667 4.17678C4.29167 5.26011 4.16667 5.59344 4.16667 8.09344V10.8434H6.66667C8.875 10.8434 9.16667 10.9268 9.16667 11.6768C9.16667 12.4268 8.875 12.5101 6.66667 12.5101H4.16667V15.0101C4.16667 17.3434 4.08333 17.5934 2.625 18.9268C1.16667 20.2184 1.04167 20.5518 1.04167 22.5101C1.04167 24.4684 1.16667 24.8018 2.625 26.0934C4 27.3851 4.16667 27.7184 4.16667 29.5934V31.6768H2.08333C0.291667 31.6768 0 31.8018 0 32.5101C0 33.3434 0.291667 33.3434 20 33.3434C39.7083 33.3434 40 33.3434 40 32.5101C40 31.8434 39.7083 31.6768 38.75 31.6768H37.5V23.7601C37.5 19.3434 37.3333 15.8434 37.125 15.8434C36.75 15.8434 36.4583 13.6768 36 7.17678L35.75 3.34344H34.1667H32.5833L32.3333 6.55178C32.1667 8.34344 31.9583 10.8018 31.875 11.9684L31.6667 14.1768H32.9167C33.875 14.1768 34.1667 14.3434 34.1667 15.0101C34.1667 15.8018 33.875 15.8434 30 15.8434H25.8333V8.76011C25.8333 -0.656555 26.5833 0.0101089 16.25 0.0101089C8.875 0.0101089 8.29167 0.0517769 7.5 0.843445ZM15 2.34344C15 2.71844 14.4583 3.55178 13.75 4.17678C12.625 5.26011 12.5 5.59344 12.5 8.09344V10.8434H15C17.2083 10.8434 17.5 10.9268 17.5 11.6768C17.5 12.4268 17.2083 12.5101 15 12.5101H12.5V15.1351C12.5 17.2601 12.375 17.8018 11.6667 18.2601C10.8333 18.7601 10.8333 18.6768 10.8333 12.0518V5.34344L9.54167 4.13511C7.54167 2.26011 8.08333 1.67678 11.875 1.67678C14.4583 1.67678 15 1.80178 15 2.34344ZM24.0833 8.84344L24.1667 15.8434H22.5H20.8333V23.7601C20.8333 31.3851 20.7917 31.6768 20 31.6768C19.1667 31.6768 19.1667 31.3851 19.1667 18.5101V5.34344L17.9167 4.17678C15.6667 2.09344 16.125 1.63511 20.3333 1.76011L23.9583 1.88511L24.0833 8.84344ZM8.125 20.2184C9.5 21.5518 9.5 23.4684 8.125 24.8018C6.08333 26.8851 2.5 25.4268 2.5 22.5101C2.5 20.8018 4.125 19.1768 5.83333 19.1768C6.625 19.1768 7.5 19.5518 8.125 20.2184ZM16.4583 20.2184C18.5417 22.2601 17.0833 25.8434 14.1667 25.8434C12.4583 25.8434 10.8333 24.2184 10.8333 22.5101C10.8333 21.7184 11.2083 20.8434 11.875 20.2184C12.5 19.5518 13.375 19.1768 14.1667 19.1768C14.9583 19.1768 15.8333 19.5518 16.4583 20.2184ZM25.8333 20.8434C25.8333 21.5518 25.5417 21.6768 24.1667 21.6768C22.7917 21.6768 22.5 21.5518 22.5 20.8434C22.5 20.1351 22.7917 20.0101 24.1667 20.0101C25.5417 20.0101 25.8333 20.1351 25.8333 20.8434ZM30.8333 20.8434C30.8333 21.5518 30.5417 21.6768 29.1667 21.6768C27.7917 21.6768 27.5 21.5518 27.5 20.8434C27.5 20.1351 27.7917 20.0101 29.1667 20.0101C30.5417 20.0101 30.8333 20.1351 30.8333 20.8434ZM35.8333 20.8434C35.8333 21.5518 35.5417 21.6768 34.1667 21.6768C32.7917 21.6768 32.5 21.5518 32.5 20.8434C32.5 20.1351 32.7917 20.0101 34.1667 20.0101C35.5417 20.0101 35.8333 20.1351 35.8333 20.8434ZM12.5 29.4684C12.5 31.3851 12.375 31.6768 11.6667 31.6768C10.9167 31.6768 10.8333 31.3851 10.8333 28.9684C10.8333 26.3434 10.875 26.2601 11.6667 26.7601C12.3333 27.1768 12.5 27.7601 12.5 29.4684Z" fill="#96969A"/>
</svg>
