<svg width="40" height="40" viewBox="0 0 40 40" fill="none" xmlns="http://www.w3.org/2000/svg">
<path fill-rule="evenodd" clip-rule="evenodd" d="M36.3876 18.9038V18.8104C37.1149 17.2391 38.4884 17.1864 40 18.64C40 16.2403 39.488 14.3403 38.3298 13.2643C37.6033 12.6163 36.8589 12.4471 36.1327 12.2821L36.1324 12.2821C35.2345 12.0781 34.3647 11.8804 33.592 10.7917C33.4295 9.07027 34.612 8.35571 36.6476 8.82669C35.4285 6.76813 34.0309 5.38364 32.5031 5.02642C32.192 4.95195 31.8705 4.92998 31.5524 4.96138C31.0198 5.01187 30.4958 5.12784 29.9918 5.30651C29.7464 5.3874 29.4969 5.45511 29.2444 5.50958C29.0687 5.54476 28.8907 5.56518 28.7118 5.5704C28.1751 5.59715 27.6405 5.48529 27.1598 5.24558C26.1804 3.84898 26.8184 2.67156 28.7118 2.05444C28.7245 2.052 28.7369 2.04878 28.7491 2.04467C28.7745 2.03624 28.7991 2.02447 28.8216 2.00973C28.7875 1.98964 28.7504 1.97455 28.7118 1.96511C27.7855 1.41591 26.7833 1.00553 25.7375 0.747071C24.9378 0.540771 24.0991 0.540771 23.2995 0.747071C22.38 1.05939 21.8544 1.62383 21.3433 2.17271L21.3429 2.17307C20.9373 2.60898 20.5407 3.035 19.9635 3.31709C19.63 3.47724 19.2711 3.57755 18.9029 3.61351H18.8095C17.237 2.87864 17.1842 1.51034 18.6387 0C16.798 0 15.2377 0.312611 14.1162 0.966353C13.8026 1.17054 13.5159 1.41335 13.2628 1.68901C12.6289 2.41482 12.4596 3.15404 12.2947 3.87378L12.2945 3.87496L12.2944 3.87516C12.1193 4.64058 11.9493 5.38393 11.2311 6.06578C11.1643 6.12915 11.0953 6.19029 11.0243 6.249C10.9493 6.31115 10.8718 6.37051 10.7923 6.42711H10.6989C10.4435 6.44398 10.1869 6.429 9.93496 6.38251C8.82978 6.11451 8.42751 5.02642 8.82978 3.37391L8.36249 3.65413C6.55429 4.79093 5.32304 6.09009 4.99389 7.4828C4.80136 8.43722 5.02705 9.16727 5.24665 9.87767L5.24669 9.87782C5.52313 10.7719 5.7898 11.6347 5.20109 12.8745C3.77896 13.8855 2.56404 13.2319 1.97076 11.2261C0.78014 13.313 0.276324 15.2254 0.731424 16.7235C1.04648 17.6387 1.60678 18.1529 2.15287 18.6538C2.81827 19.2644 3.46247 19.8555 3.61638 21.1287V21.2262C2.89716 22.7975 1.51156 22.8502 0 21.4129C0 23.7962 0.528231 25.7125 1.68224 26.7844C2.40555 27.4222 3.14736 27.5896 3.87111 27.7529L3.87151 27.7531C4.77405 27.9567 5.64853 28.154 6.42424 29.2489C6.5868 30.9622 5.40027 31.6849 3.36447 31.21C4.58353 33.2805 5.98533 34.6813 7.5132 35.0264C7.79553 35.0822 8.08284 35.108 8.37058 35.1035C8.90736 35.0585 9.43604 34.9438 9.94318 34.7625C10.1951 34.6813 10.443 34.6042 10.7071 34.5433C10.7477 34.5365 10.7888 34.5293 10.8299 34.522C10.961 34.4987 11.0931 34.4755 11.2231 34.4662C11.7847 34.4347 12.3446 34.5495 12.8485 34.7991C13.8237 36.2078 13.1816 37.4016 11.2231 38.0065C11.2163 38.0082 11.2094 38.0087 11.2023 38.0084C11.2116 38.0111 11.2231 38.018 11.2231 38.0349C12.13 38.5684 13.1044 38.978 14.1202 39.2529C14.9625 39.4809 15.8503 39.4809 16.6923 39.2529C17.6048 38.9453 18.1228 38.3844 18.6273 37.838V37.8378C19.0216 37.4109 19.4078 36.9927 19.9676 36.7113C20.3207 36.5415 20.6996 36.4316 21.0891 36.3865H21.1825C22.7591 37.1175 22.8078 38.4896 21.3573 40C23.1165 40 24.6078 39.7198 25.7213 39.1149C26.1018 38.9073 26.4484 38.6431 26.7495 38.3313C27.3891 37.5995 27.5556 36.8567 27.7176 36.1342L27.7178 36.1338C27.8829 35.3971 28.0433 34.6815 28.6956 34.0195C28.8685 33.8551 29.0564 33.7069 29.2565 33.5769C29.5062 33.5647 29.7564 33.5756 30.004 33.6095C31.1704 33.8287 31.6293 34.9329 31.2231 36.6342C31.3493 36.5695 31.4702 36.4947 31.5847 36.4109C33.454 35.2578 34.7176 33.9342 35.0469 32.5051C35.2396 31.5427 35.0115 30.8116 34.7898 30.1009C34.512 29.2107 34.2444 28.3529 34.8273 27.1133V27.158C36.2453 26.1633 37.4602 26.8169 38.0535 28.8104C39.2727 26.7396 39.7564 24.8235 39.3011 23.3293C38.9716 22.4149 38.4053 21.8976 37.8569 21.3967C37.1804 20.7791 36.5313 20.1864 36.3876 18.9038ZM29.2565 33.5769C29.2458 33.5807 29.2345 33.5807 29.2238 33.5769L29.2565 33.5485C29.2682 33.5382 29.2713 33.5355 29.272 33.536C29.2724 33.5362 29.2722 33.5369 29.272 33.5378C29.2716 33.5415 29.2707 33.5485 29.2849 33.5485C29.2818 33.5522 29.2787 33.5558 29.2753 33.5593C29.2696 33.5656 29.2631 33.5716 29.2565 33.5769ZM20 27.2727C24.0165 27.2727 27.2727 24.0165 27.2727 20C27.2727 15.9834 24.0165 12.7273 20 12.7273C15.9834 12.7273 12.7273 15.9834 12.7273 20C12.7273 24.0165 15.9834 27.2727 20 27.2727Z" fill="#F6C358"/>
</svg>
