<svg xmlns="http://www.w3.org/2000/svg">
    <symbol id="gr_icon1" viewBox="0 0 40 21">
        <path d="M10 20C12.7614 20 15 17.7614 15 15C15 12.2386 12.7614 10 10 10C7.23858 10 5 12.2386 5 15C5 17.7614 7.23858 20 10 20Z" stroke-width="2"/>
        <path d="M10 17C11.1046 17 12 16.1046 12 15C12 13.8954 11.1046 13 10 13C8.89543 13 8 13.8954 8 15C8 16.1046 8.89543 17 10 17Z" />
        <path d="M31 20C33.7614 20 36 17.7614 36 15C36 12.2386 33.7614 10 31 10C28.2386 10 26 12.2386 26 15C26 17.7614 28.2386 20 31 20Z" stroke-width="2"/>
        <path d="M31 17C32.1046 17 33 16.1046 33 15C33 13.8954 32.1046 13 31 13C29.8954 13 29 13.8954 29 15C29 16.1046 29.8954 17 31 17Z"/>
        <path fill-rule="evenodd" clip-rule="evenodd" d="M31.5 0L30.5 0.5L29 1H0L0.825757 4.71591L24.4144 10.2199L31 1H40V0H31.5ZM18 15V9.75004L18.6347 9.89813L18.6717 9.93515L18.6947 9.91214L23.7857 11.1L21 15H18ZM4.44816 4.552L7.00016 2H9.12148L6.16815 4.95333L4.44816 4.552ZM9.17367 5.65461L12.8283 2H14.9496L10.8937 6.05594L9.17367 5.65461ZM13.8996 6.75731L18.6569 2H20.7782L15.6196 7.15864L13.8996 6.75731ZM18.6255 7.86001L24.4855 2H26.6068L20.3455 8.26134L18.6255 7.86001Z"/>
        <path fill-rule="evenodd" clip-rule="evenodd" d="M31.4996 2H36.9996L38.9996 7V15H37.9996C37.9996 11.134 34.8655 8 30.9996 8H27.3457L31.4996 2ZM35.9995 3H31.9995V6H36.9995L35.9995 3Z"/>

    </symbol>
    <symbol id="gr_icon2" viewBox="0 0 40 40">
        <path fill-rule="evenodd" clip-rule="evenodd" d="M36.3876 18.9038V18.8104C37.1149 17.2391 38.4884 17.1864 40 18.64C40 16.2403 39.488 14.3403 38.3298 13.2643C37.6033 12.6163 36.8589 12.4471 36.1327 12.2821L36.1324 12.2821C35.2345 12.0781 34.3647 11.8804 33.592 10.7917C33.4295 9.07027 34.612 8.35571 36.6476 8.82669C35.4285 6.76813 34.0309 5.38364 32.5031 5.02642C32.192 4.95195 31.8705 4.92998 31.5524 4.96138C31.0198 5.01187 30.4958 5.12784 29.9918 5.30651C29.7464 5.3874 29.4969 5.45511 29.2444 5.50958C29.0687 5.54476 28.8907 5.56518 28.7118 5.5704C28.1751 5.59715 27.6405 5.48529 27.1598 5.24558C26.1804 3.84898 26.8184 2.67156 28.7118 2.05444C28.7245 2.052 28.7369 2.04878 28.7491 2.04467C28.7745 2.03624 28.7991 2.02447 28.8216 2.00973C28.7875 1.98964 28.7504 1.97455 28.7118 1.96511C27.7855 1.41591 26.7833 1.00553 25.7375 0.747071C24.9378 0.540771 24.0991 0.540771 23.2995 0.747071C22.38 1.05939 21.8544 1.62383 21.3433 2.17271L21.3429 2.17307C20.9373 2.60898 20.5407 3.035 19.9635 3.31709C19.63 3.47724 19.2711 3.57755 18.9029 3.61351H18.8095C17.237 2.87864 17.1842 1.51034 18.6387 0C16.798 0 15.2377 0.312611 14.1162 0.966353C13.8026 1.17054 13.5159 1.41335 13.2628 1.68901C12.6289 2.41482 12.4596 3.15404 12.2947 3.87378L12.2945 3.87496L12.2944 3.87516C12.1193 4.64058 11.9493 5.38393 11.2311 6.06578C11.1643 6.12915 11.0953 6.19029 11.0243 6.249C10.9493 6.31115 10.8718 6.37051 10.7923 6.42711H10.6989C10.4435 6.44398 10.1869 6.429 9.93496 6.38251C8.82978 6.11451 8.42751 5.02642 8.82978 3.37391L8.36249 3.65413C6.55429 4.79093 5.32304 6.09009 4.99389 7.4828C4.80136 8.43722 5.02705 9.16727 5.24665 9.87767L5.24669 9.87782C5.52313 10.7719 5.7898 11.6347 5.20109 12.8745C3.77896 13.8855 2.56404 13.2319 1.97076 11.2261C0.78014 13.313 0.276324 15.2254 0.731424 16.7235C1.04648 17.6387 1.60678 18.1529 2.15287 18.6538C2.81827 19.2644 3.46247 19.8555 3.61638 21.1287V21.2262C2.89716 22.7975 1.51156 22.8502 0 21.4129C0 23.7962 0.528231 25.7125 1.68224 26.7844C2.40555 27.4222 3.14736 27.5896 3.87111 27.7529L3.87151 27.7531C4.77405 27.9567 5.64853 28.154 6.42424 29.2489C6.5868 30.9622 5.40027 31.6849 3.36447 31.21C4.58353 33.2805 5.98533 34.6813 7.5132 35.0264C7.79553 35.0822 8.08284 35.108 8.37058 35.1035C8.90736 35.0585 9.43604 34.9438 9.94318 34.7625C10.1951 34.6813 10.443 34.6042 10.7071 34.5433C10.7477 34.5365 10.7888 34.5293 10.8299 34.522C10.961 34.4987 11.0931 34.4755 11.2231 34.4662C11.7847 34.4347 12.3446 34.5495 12.8485 34.7991C13.8237 36.2078 13.1816 37.4016 11.2231 38.0065C11.2163 38.0082 11.2094 38.0087 11.2023 38.0084C11.2116 38.0111 11.2231 38.018 11.2231 38.0349C12.13 38.5684 13.1044 38.978 14.1202 39.2529C14.9625 39.4809 15.8503 39.4809 16.6923 39.2529C17.6048 38.9453 18.1228 38.3844 18.6273 37.838V37.8378C19.0216 37.4109 19.4078 36.9927 19.9676 36.7113C20.3207 36.5415 20.6996 36.4316 21.0891 36.3865H21.1825C22.7591 37.1175 22.8078 38.4896 21.3573 40C23.1165 40 24.6078 39.7198 25.7213 39.1149C26.1018 38.9073 26.4484 38.6431 26.7495 38.3313C27.3891 37.5995 27.5556 36.8567 27.7176 36.1342L27.7178 36.1338C27.8829 35.3971 28.0433 34.6815 28.6956 34.0195C28.8685 33.8551 29.0564 33.7069 29.2565 33.5769C29.5062 33.5647 29.7564 33.5756 30.004 33.6095C31.1704 33.8287 31.6293 34.9329 31.2231 36.6342C31.3493 36.5695 31.4702 36.4947 31.5847 36.4109C33.454 35.2578 34.7176 33.9342 35.0469 32.5051C35.2396 31.5427 35.0115 30.8116 34.7898 30.1009C34.512 29.2107 34.2444 28.3529 34.8273 27.1133V27.158C36.2453 26.1633 37.4602 26.8169 38.0535 28.8104C39.2727 26.7396 39.7564 24.8235 39.3011 23.3293C38.9716 22.4149 38.4053 21.8976 37.8569 21.3967C37.1804 20.7791 36.5313 20.1864 36.3876 18.9038ZM29.2565 33.5769C29.2458 33.5807 29.2345 33.5807 29.2238 33.5769L29.2565 33.5485C29.2682 33.5382 29.2713 33.5355 29.272 33.536C29.2724 33.5362 29.2722 33.5369 29.272 33.5378C29.2716 33.5415 29.2707 33.5485 29.2849 33.5485C29.2818 33.5522 29.2787 33.5558 29.2753 33.5593C29.2696 33.5656 29.2631 33.5716 29.2565 33.5769ZM20 27.2727C24.0165 27.2727 27.2727 24.0165 27.2727 20C27.2727 15.9834 24.0165 12.7273 20 12.7273C15.9834 12.7273 12.7273 15.9834 12.7273 20C12.7273 24.0165 15.9834 27.2727 20 27.2727Z"/>
    </symbol>
    <symbol id="gr_icon3" viewBox="0 0 31 30">
        <path d="M30.3421 13.3347C30.2948 12.9131 29.8029 12.5958 29.3776 12.5958C28.0032 12.5958 26.7834 11.7891 26.2718 10.5405C25.7496 9.26193 26.0865 7.7711 27.1106 6.83166C27.4331 6.53676 27.4724 6.04297 27.202 5.7002C26.4983 4.80682 25.6989 3.99971 24.8257 3.30028C24.4841 3.02628 23.9822 3.06442 23.6857 3.39253C22.7917 4.3827 21.1856 4.75064 19.9445 4.23285C18.6535 3.68963 17.8386 2.38095 17.9187 0.976265C17.945 0.534763 17.6222 0.151124 17.1823 0.0998765C16.0617 -0.0298628 14.9313 -0.0336252 13.8075 0.0910542C13.3731 0.139058 13.0506 0.513615 13.065 0.949539C13.1136 2.34047 12.2895 3.62606 11.011 4.14982C9.7848 4.65074 8.18991 4.28552 7.29769 3.30405C7.0028 2.98074 6.50966 2.94104 6.16572 3.20921C5.26689 3.9146 4.4494 4.72223 3.73921 5.60835C3.46247 5.9528 3.50334 6.45204 3.8286 6.74798C4.87287 7.69365 5.20954 9.19732 4.66736 10.4908C4.1497 11.724 2.8693 12.5184 1.40364 12.5184C0.928015 12.5031 0.589525 12.8226 0.536981 13.2552C0.405166 14.3817 0.403738 15.5302 0.530623 16.6659C0.577978 17.0894 1.08435 17.4039 1.51431 17.4039C2.82078 17.3706 4.07432 18.1789 4.60093 19.4591C5.12495 20.7376 4.78763 22.2278 3.76191 23.1686C3.44106 23.4635 3.40007 23.9561 3.67096 24.2985C4.36753 25.1863 5.16776 25.9939 6.0435 26.6993C6.38731 26.9761 6.88733 26.9374 7.18534 26.6089C8.08288 25.6163 9.68866 25.2491 10.9247 25.7679C12.2195 26.3097 13.034 27.6182 12.9545 29.0233C12.9284 29.4648 13.2519 29.8496 13.6903 29.8997C14.2638 29.9668 14.8402 30 15.4185 30C15.9673 30 16.5162 29.97 17.0651 29.9089C17.5 29.8609 17.822 29.486 17.8074 29.0499C17.7571 27.6596 18.5831 26.3739 19.8601 25.8512C21.0944 25.347 22.6822 25.716 23.5749 26.696C23.8714 27.0187 24.3615 27.0579 24.7069 26.7907C25.6042 26.0872 26.4201 25.2799 27.1334 24.3915C27.4104 24.0477 27.3711 23.5478 27.044 23.2513C26 22.3063 25.6615 20.802 26.2037 19.5098C26.7133 18.2932 27.9461 17.4764 29.272 17.4764L29.4576 17.4813C29.888 17.5162 30.2836 17.1847 30.3356 16.7456C30.4681 15.618 30.4695 14.4708 30.3421 13.3347ZM15.4365 23.6477C10.6604 23.6477 6.78886 19.7761 6.78886 15.0002C6.78886 10.2242 10.6605 6.35266 15.4365 6.35266C20.2125 6.35266 24.0841 10.2242 24.0841 15.0002C24.0841 16.6213 23.6372 18.1375 22.861 19.4341L19.0744 15.6474C19.3485 15.0011 19.4933 14.3004 19.4932 13.5772C19.4932 12.1611 18.9417 10.8298 17.9402 9.82863C16.939 8.82744 15.6078 8.27605 14.1919 8.27605C13.7194 8.27605 13.2491 8.33884 12.7941 8.46274C12.5948 8.5171 12.4319 8.68135 12.3788 8.88102C12.3246 9.08523 12.3857 9.2945 12.5453 9.45421C12.5453 9.45421 14.4147 11.338 15.0401 11.9634C15.1057 12.0289 15.1055 12.1852 15.0963 12.2415L15.0905 12.2827C15.0274 12.9703 14.9059 13.7957 14.8056 14.1129C14.7921 14.1262 14.7794 14.1375 14.7656 14.1513C14.7512 14.1657 14.738 14.1796 14.7241 14.1938C14.4027 14.297 13.5646 14.42 12.8661 14.4825L12.8662 14.4788L12.8348 14.4867C12.8293 14.4873 12.8189 14.4881 12.8051 14.4881C12.7296 14.4881 12.6186 14.4669 12.5176 14.3661C11.8666 13.7151 10.0705 11.9318 10.0705 11.9318C9.90935 11.7712 9.74406 11.7375 9.63391 11.7375C9.37716 11.7375 9.14726 11.923 9.07486 12.1891C8.58043 14.0188 9.10457 15.987 10.4431 17.3256C11.4446 18.3269 12.7759 18.8783 14.192 18.8783C14.9152 18.8783 15.6159 18.7337 16.2622 18.4595L20.0899 22.2872C18.746 23.1471 17.1502 23.6477 15.4365 23.6477Z"/>
    </symbol>
    <symbol id="gr_icon4" viewBox="0 0 71 59">
        <g><path d="M0 56H34V59H0z"/><rect x="5" y="26" width="24" height="2" rx="1"/><path d="M1 55H33L29 38L28 29H6L5 38L1 55Z"/><path d="M34 48H47V59H34z"/><path d="M48 43H59V59H48z"/><path d="M59 51H71V59H59z"/><path d="M63 16H67L69 59H61L63 16Z"/><circle cx="64.5" cy="12.5" r="2.5"/><circle cx="64" cy="9" r="3"/><circle cx="67" cy="9" r="3"/><circle cx="62.5" cy="4.5" r="4.5"/></g>
    </symbol>
    <symbol id="gr_icon5" viewBox="0 0 40 40">
        <path d="M16.9084 9L20.5 11.1537L24.0916 9L30.0968 12.601H10.9032L16.9084 9Z"/>
        <path d="M5.63578 24.4072V14.3029H35.3642V24.4072H5.63578Z"/>
        <path d="M4 25.7687H37V27.4886H35.3642V29.2085C35.3642 30.1979 34.5682 31 33.5862 31C32.6042 31 31.8082 30.1979 31.8082 29.2085H28.9634C28.9634 30.1979 28.1673 31 27.1853 31C26.2034 31 25.4073 30.1979 25.4073 29.2085V27.4886H15.5927V29.2085C15.5927 30.1979 14.7966 31 13.8147 31C12.8327 31 12.0366 30.1979 12.0366 29.2085H9.19181C9.19181 30.1979 8.39576 31 7.41379 31C6.43182 31 5.63578 30.1979 5.63578 29.2085V27.4886H4V25.7687Z"/>
    </symbol>
    <symbol id="gr_icon6" viewBox="0 0 28 30">
        <path d="M16.5409 18.0597V18.6423H17.1235C18.0888 18.6423 18.8709 17.8599 18.8709 16.8946V16.3123H18.2884C17.3233 16.3123 16.5409 17.0944 16.5409 18.0597Z"/>
        <path d="M15.9431 12.8169C15.9486 12.823 15.9538 12.8285 15.9584 12.8349C15.9631 12.8285 15.9681 12.823 15.9736 12.8169H15.9431Z"/>
        <path d="M16.5409 14.5646V15.1471H17.1235C18.0888 15.1471 18.8709 14.3646 18.8709 13.3995V12.8169H18.2884C17.3233 12.8169 16.5409 13.599 16.5409 14.5646Z"/>
        <path d="M16.5409 11.6518H17.1235C18.0888 11.6518 18.8709 10.8692 18.8709 9.9041V9.32153H18.2884C17.3233 9.32153 16.5409 10.1039 16.5409 11.0692V11.6518Z"/>
        <path d="M4.11793 20.3407L0.641174 23.5299H9.85083L6.37408 20.3407C5.72836 19.7744 4.76333 19.7744 4.11793 20.3407ZM4.44008 22.3205H3.63431V21.5142H4.44008V22.3205ZM6.4545 22.7237H5.64873V21.9174H6.4545V22.7237Z"/>
        <path d="M15.9431 16.3123C15.9486 16.3184 15.9538 16.3239 15.9584 16.33C15.9631 16.3239 15.9681 16.3184 15.9736 16.3123H15.9431Z"/>
        <path d="M1.41233e-06 24.7498C-0.00125968 26.4027 0.842099 27.9413 2.23561 28.8288C2.35132 28.9029 2.42115 29.0308 2.42115 29.1684V30H8.07087V29.1692C8.07102 29.0316 8.14102 28.9037 8.2564 28.8295C9.65023 27.9421 10.4937 26.4028 10.492 24.7498V24.3459H1.41233e-06V24.7498Z"/>
        <path d="M14.7932 11.6518H15.3758V11.0692C15.3758 10.1039 14.5934 9.32153 13.6281 9.32153H13.0455V9.9041C13.0455 10.8692 13.8281 11.6518 14.7932 11.6518Z"/>
        <path d="M16.6231 7.57382C16.6231 6.69816 16.3254 5.98816 15.9584 5.98816C15.5913 5.98816 15.2939 6.69816 15.2939 7.57382C15.2939 8.44972 15.5913 9.15949 15.9584 9.15949C16.3254 9.15949 16.6231 8.44972 16.6231 7.57382Z"/>
        <path d="M14.7932 18.6423H15.3758V18.0597C15.3758 17.0944 14.5934 16.3123 13.6281 16.3123H13.0455V16.8946C13.0455 17.8599 13.8281 18.6423 14.7932 18.6423Z"/>
        <path d="M14.7932 15.1471H15.3758V14.5646C15.3758 13.599 14.5934 12.8169 13.6281 12.8169H13.0455V13.3995C13.0455 14.3646 13.8281 15.1471 14.7932 15.1471Z"/>
        <path d="M26.2399 23.9814C25.9937 23.6526 25.8608 23.2528 25.8617 22.842V20.9387C25.8617 20.9091 25.8642 20.8795 25.8688 20.8504C26.2497 18.38 26.465 15.8868 26.513 13.3879C26.4638 10.8963 26.2486 8.41107 25.8688 5.9486C25.8642 5.91925 25.8617 5.88966 25.8617 5.85985V3.51754C25.8617 3.39147 25.9027 3.26881 25.9782 3.16823L27.4635 1.17704C27.6203 0.966548 27.6536 0.68892 27.5511 0.447703C27.4121 0.162338 27.1174 -0.0128866 26.8009 0.000767272H5.11609C4.79909 -0.0131142 4.50417 0.162338 4.36512 0.447703C4.26295 0.689375 4.2964 0.967686 4.45342 1.17818L5.6768 2.81732C5.92325 3.14615 6.0557 3.54621 6.05501 3.95696V5.85985C6.05501 5.88966 6.05274 5.91925 6.04819 5.9486C5.66724 8.41881 5.45197 10.912 5.40373 13.4111C5.43627 15.1005 5.5505 16.833 5.74098 18.5374L11.1092 23.4585C11.1126 23.4612 11.1144 23.4658 11.1181 23.4692C11.1295 23.4817 11.1404 23.4951 11.1499 23.509C11.1998 23.5632 11.2373 23.6276 11.2594 23.6977C11.2769 23.7461 11.2872 23.7971 11.2906 23.8485C11.2906 23.8627 11.2979 23.8736 11.2979 23.8877V25.0528C11.2951 25.6406 11.2284 26.2266 11.0994 26.8003H26.8009C27.1176 26.8144 27.4128 26.6387 27.5518 26.3536C27.654 26.1114 27.6203 25.8336 27.4631 25.6231L26.2399 23.9814ZM11.8804 13.3995V12.2344C11.8804 11.9126 12.1412 11.6518 12.463 11.6518H12.4785C12.0927 11.1507 11.8827 10.5365 11.8804 9.90412V6.40896H13.0455V8.15643H13.6281C13.819 8.15711 14.0093 8.17668 14.1961 8.21491C13.9221 6.87684 14.4926 5.50736 15.6352 4.75958C15.8309 4.62896 16.086 4.62896 16.2817 4.75958C17.4241 5.50736 17.9944 6.87684 17.7206 8.21491C17.9077 8.17668 18.0979 8.15711 18.2884 8.15643H18.871V6.40896H20.0361V9.90412C20.034 10.5365 19.824 11.1507 19.4385 11.6518H19.4535C19.7753 11.6518 20.0361 11.9126 20.0361 12.2344V13.3995C20.034 14.0317 19.824 14.6459 19.4385 15.1472H19.4535C19.7753 15.1472 20.0361 15.408 20.0361 15.7298V16.8946C20.0345 18.5024 18.7315 19.8054 17.1235 19.8075H16.5409V22.1377H15.3758V19.8075H14.7932C13.1855 19.8054 11.8825 18.5024 11.8804 16.8946V15.7298C11.8804 15.408 12.1412 15.1472 12.463 15.1472H12.4785C12.0927 14.6459 11.8827 14.0317 11.8804 13.3995ZM23.5315 24.468H12.463V23.3028H23.5315V24.468ZM24.114 3.49615H7.80248V2.33102H24.114V3.49615Z"/>
    </symbol>
    <symbol id="gr_icon9" viewBox="0 0 40 39">
        <path d="M15.4098 2.42584V4.03239L11.9508 4.06518L8.47537 4.11436L8.45898 9.03237L8.44259 13.9504L6.57374 14.5569C5.55735 14.8848 4.6885 15.1963 4.63932 15.2291C4.60654 15.2782 4.9344 16.0323 5.37702 16.9176C7.03276 20.2127 8.59013 25.1143 9.03275 28.3766C9.13111 29.147 9.18029 29.8192 9.1475 29.852C9.11472 29.8848 8.68849 29.7208 8.19669 29.4749C7.39341 29.0815 7.11472 29.0323 5.57375 29.0323C4.1967 29.0323 3.62293 29.1143 2.7049 29.4257C1.32786 29.9011 -0.0491833 30.5569 0.0327836 30.7372C0.0655703 30.8028 0.409831 31.4257 0.819666 32.1142C1.32786 32.9831 1.63933 33.3601 1.80327 33.311C1.93442 33.2782 2.52458 33.0323 3.11474 32.7864C3.75408 32.5077 4.59014 32.311 5.21309 32.2618C6.1803 32.1962 6.37702 32.2454 7.75406 32.9011C9.11471 33.5569 9.37701 33.6224 10.5082 33.6224C11.6393 33.6224 11.8688 33.5569 13.1311 32.9175C14.9672 32.0159 15.5737 31.9995 17.377 32.8683C19.5737 33.9339 21.1147 33.9011 23.4261 32.7208C23.9671 32.4585 24.6392 32.229 24.9015 32.229C25.1638 32.229 25.9015 32.4913 26.5245 32.8028C28.754 33.9503 30.6884 33.9339 32.9671 32.8028C33.59 32.4749 34.3441 32.229 34.6556 32.229C35.2949 32.229 37.1802 32.7864 38.0654 33.229L38.6884 33.5405L39.3441 32.229C39.7048 31.5077 39.9998 30.8192 39.9998 30.688C39.9998 30.4093 37.9179 29.5569 36.2621 29.1798C34.4425 28.7536 33.2458 28.9503 31.1146 30.0651C31.0491 30.0979 31.0327 29.8028 31.0818 29.4093C31.4753 25.6061 32.7868 21.2618 34.8195 16.9176C35.5244 15.393 35.6064 15.016 35.213 15.016C35.131 15.016 34.3277 14.7864 33.4261 14.5078L31.8032 13.9996V9.01598V4.03239H28.2786H24.754V2.47502C24.754 1.09798 24.7212 0.917648 24.4753 0.917648C24.3114 0.917648 22.213 0.901257 19.7868 0.884865L15.4098 0.835682V2.42584ZM28.131 9.93401C28.1474 11.3274 28.131 12.5406 28.0819 12.6553C28.0327 12.7865 26.9343 12.5078 24.7048 11.8029C22.8852 11.2291 21.0819 10.6717 20.7048 10.5733C20.0655 10.4094 19.754 10.475 16.1967 11.5733C14.0983 12.2291 12.3278 12.8028 12.2622 12.8356C12.1803 12.8684 12.1311 11.6389 12.1311 10.0979V7.31107L20.1311 7.34385L28.1146 7.39303L28.131 9.93401Z" />
        <path d="M4.50818 34.3764C3.98359 34.4583 3.27868 34.6059 2.95081 34.7042C1.99999 35.0157 0 35.8518 0 35.9665C0 36.0649 0.622948 37.1633 1.26229 38.1796L1.63934 38.7862L2.16393 38.5239C3.19671 37.9829 4.52457 37.6223 5.47539 37.6223C6.26227 37.6059 6.63932 37.7206 7.6721 38.2452C8.85243 38.8354 8.98357 38.8682 10.4918 38.8682C12 38.8682 12.1147 38.8354 13.2622 38.2452C14.918 37.3764 15.7213 37.3764 17.3606 38.2288C18.5245 38.8354 18.6229 38.8682 20.1475 38.8682C21.5901 38.8682 21.8196 38.819 22.8688 38.3108C24.8032 37.3928 24.7868 37.3928 26.3933 38.1305C28.8523 39.2616 30.5737 39.2616 32.9507 38.1305L34.3769 37.4583L35.4917 37.7206C36.0982 37.8518 37.049 38.1469 37.59 38.3764C38.131 38.5895 38.6228 38.737 38.6884 38.7042C38.9015 38.5731 40.0326 36.1469 39.9507 35.9501C39.8359 35.6551 37.1474 34.6879 35.8031 34.442C34.2786 34.1797 33.3441 34.3272 31.7212 35.1141C30.0491 35.9174 29.3442 35.9174 27.7704 35.1305C25.6392 34.0649 24.1802 34.0485 21.9999 35.1141C20.4425 35.8846 19.918 35.8846 18.4098 35.1141C16.2458 34.0321 14.3114 34.0321 12.1475 35.1305C11.4426 35.4747 10.7213 35.737 10.4262 35.7206C10.1311 35.7042 9.37701 35.4419 8.75407 35.1305C7.70489 34.6059 7.1803 34.442 5.90162 34.278C5.67211 34.2616 5.04916 34.2944 4.50818 34.3764Z" />
    </symbol>
    <symbol id="gr_icon10" viewBox="0 0 40 28">
        <path d="M0 2.24141V4.48281H5.03453C9.20698 4.48281 10.0346 4.55178 9.89664 4.96557C9.79319 5.24144 8.37938 7.48284 6.7242 10.0001C5.10349 12.5174 3.79314 14.6208 3.8621 14.6553C3.93107 14.7243 4.58625 14.6553 5.34488 14.4829C8.03455 13.8967 11.0691 15.2415 12.5518 17.6898L13.3449 19.0002L15.0001 10.7242C15.8967 6.17248 16.5519 2.10348 16.4484 1.62072C16.0691 0.206911 14.9657 1.33514e-05 7.24144 1.33514e-05H0V2.24141Z"/>
        <path d="M18.6222 0.689737C18.2429 1.06905 17.8636 1.72423 17.7601 2.13803C16.9325 5.6553 14.898 16.0347 15.036 16.1726C15.1049 16.2416 15.4498 16.0347 15.8291 15.7244C16.8291 14.8278 19.5877 14.1037 21.0015 14.345C22.5188 14.6209 23.3809 15.0347 24.4499 16.0002L25.2774 16.7244L25.0705 15.8623C24.0361 11.2071 22.3809 2.20699 22.5188 1.75871C22.6223 1.44836 22.7947 0.931119 22.9326 0.586288C23.1395 0.0690422 22.9671 7.62939e-05 21.2429 7.62939e-05C19.7946 7.62939e-05 19.1395 0.172491 18.6222 0.689737Z"/>
        <path d="M24.2059 0.68955C23.7921 1.10335 23.4473 1.75853 23.4473 2.17232C23.4473 2.58612 24.1714 6.55167 25.0335 10.9655L26.6542 18.9656L27.4128 17.7242C28.8956 15.2414 32.3094 13.7586 34.8267 14.4828C35.4819 14.6552 36.0681 14.7586 36.137 14.6897C36.206 14.5862 34.9301 12.4828 33.2749 9.99998C31.6542 7.48271 30.2059 5.24131 30.1025 4.96545C29.9646 4.55165 30.7922 4.48269 34.9646 4.48269H39.9991V2.24129V-0.000110626H32.4818C25.3783 -0.000110626 24.93 0.0343723 24.2059 0.68955Z"/>
        <path d="M4.65567 15.5175C3.03496 16.0347 1.17288 18.0692 0.724599 19.8279C-0.309893 24.0003 3.55221 28.2762 7.62121 27.4141C10.4143 26.8279 12.7592 24.1038 12.7592 21.3796C12.7592 19.621 11.4833 17.3106 9.96606 16.3106C8.51777 15.3451 6.27637 15.0002 4.65567 15.5175ZM9.17295 18.7589C10.1385 19.7244 10.3454 20.2072 10.3454 21.3451C10.3454 23.2762 8.96605 24.7934 7.06948 25.0348C3.10393 25.5176 1.24185 20.3106 4.62119 18.2416C6.31086 17.2072 7.79363 17.3796 9.17295 18.7589Z"/>
        <path d="M18.033 15.5518C16.4468 16.0345 14.5847 18.0001 14.1365 19.7242C13.3089 22.7242 14.5503 25.3449 17.4468 26.7588C19.6193 27.8277 21.4814 27.7243 23.3779 26.4484C25.0331 25.3449 26.3435 22.4484 26.0676 20.6208C25.4469 16.7587 21.7227 14.4138 18.033 15.5518ZM21.7227 18.1035C22.8262 18.6897 23.7917 20.207 23.7917 21.3794C23.7917 23.2415 21.8262 25.1725 19.9296 25.1725C18.7227 25.1725 17.0675 24.0001 16.5848 22.7932C15.2054 19.5173 18.5503 16.4828 21.7227 18.1035Z"/>
        <path d="M31.2758 15.6554C29.5517 16.2761 28.6551 17.1036 27.8965 18.7933C25.7585 23.4485 29.931 28.552 34.7931 27.2417C37.5518 26.5175 39.3794 24.1727 39.3794 21.3795C39.3794 18.7588 37.5518 16.2071 35.1379 15.5174C33.6207 15.0691 32.8621 15.1036 31.2758 15.6554ZM35.4138 18.2761C37.7931 19.7244 37.5862 23.483 35.069 24.6899C32.4827 25.9313 29.6551 24.1382 29.6551 21.3106C29.6551 20.2071 29.8965 19.6899 30.8276 18.7588C32.2069 17.3795 33.6897 17.2071 35.4138 18.2761Z"/>
    </symbol>
    <symbol id="gr_icon11" viewBox="0 0 40 34">
        <path d="M7.5 0.843445C7.04167 1.30178 6.66667 1.96844 6.66667 2.34344C6.66667 2.71844 6.125 3.55178 5.41667 4.17678C4.29167 5.26011 4.16667 5.59344 4.16667 8.09344V10.8434H6.66667C8.875 10.8434 9.16667 10.9268 9.16667 11.6768C9.16667 12.4268 8.875 12.5101 6.66667 12.5101H4.16667V15.0101C4.16667 17.3434 4.08333 17.5934 2.625 18.9268C1.16667 20.2184 1.04167 20.5518 1.04167 22.5101C1.04167 24.4684 1.16667 24.8018 2.625 26.0934C4 27.3851 4.16667 27.7184 4.16667 29.5934V31.6768H2.08333C0.291667 31.6768 0 31.8018 0 32.5101C0 33.3434 0.291667 33.3434 20 33.3434C39.7083 33.3434 40 33.3434 40 32.5101C40 31.8434 39.7083 31.6768 38.75 31.6768H37.5V23.7601C37.5 19.3434 37.3333 15.8434 37.125 15.8434C36.75 15.8434 36.4583 13.6768 36 7.17678L35.75 3.34344H34.1667H32.5833L32.3333 6.55178C32.1667 8.34344 31.9583 10.8018 31.875 11.9684L31.6667 14.1768H32.9167C33.875 14.1768 34.1667 14.3434 34.1667 15.0101C34.1667 15.8018 33.875 15.8434 30 15.8434H25.8333V8.76011C25.8333 -0.656555 26.5833 0.0101089 16.25 0.0101089C8.875 0.0101089 8.29167 0.0517769 7.5 0.843445ZM15 2.34344C15 2.71844 14.4583 3.55178 13.75 4.17678C12.625 5.26011 12.5 5.59344 12.5 8.09344V10.8434H15C17.2083 10.8434 17.5 10.9268 17.5 11.6768C17.5 12.4268 17.2083 12.5101 15 12.5101H12.5V15.1351C12.5 17.2601 12.375 17.8018 11.6667 18.2601C10.8333 18.7601 10.8333 18.6768 10.8333 12.0518V5.34344L9.54167 4.13511C7.54167 2.26011 8.08333 1.67678 11.875 1.67678C14.4583 1.67678 15 1.80178 15 2.34344ZM24.0833 8.84344L24.1667 15.8434H22.5H20.8333V23.7601C20.8333 31.3851 20.7917 31.6768 20 31.6768C19.1667 31.6768 19.1667 31.3851 19.1667 18.5101V5.34344L17.9167 4.17678C15.6667 2.09344 16.125 1.63511 20.3333 1.76011L23.9583 1.88511L24.0833 8.84344ZM8.125 20.2184C9.5 21.5518 9.5 23.4684 8.125 24.8018C6.08333 26.8851 2.5 25.4268 2.5 22.5101C2.5 20.8018 4.125 19.1768 5.83333 19.1768C6.625 19.1768 7.5 19.5518 8.125 20.2184ZM16.4583 20.2184C18.5417 22.2601 17.0833 25.8434 14.1667 25.8434C12.4583 25.8434 10.8333 24.2184 10.8333 22.5101C10.8333 21.7184 11.2083 20.8434 11.875 20.2184C12.5 19.5518 13.375 19.1768 14.1667 19.1768C14.9583 19.1768 15.8333 19.5518 16.4583 20.2184ZM25.8333 20.8434C25.8333 21.5518 25.5417 21.6768 24.1667 21.6768C22.7917 21.6768 22.5 21.5518 22.5 20.8434C22.5 20.1351 22.7917 20.0101 24.1667 20.0101C25.5417 20.0101 25.8333 20.1351 25.8333 20.8434ZM30.8333 20.8434C30.8333 21.5518 30.5417 21.6768 29.1667 21.6768C27.7917 21.6768 27.5 21.5518 27.5 20.8434C27.5 20.1351 27.7917 20.0101 29.1667 20.0101C30.5417 20.0101 30.8333 20.1351 30.8333 20.8434ZM35.8333 20.8434C35.8333 21.5518 35.5417 21.6768 34.1667 21.6768C32.7917 21.6768 32.5 21.5518 32.5 20.8434C32.5 20.1351 32.7917 20.0101 34.1667 20.0101C35.5417 20.0101 35.8333 20.1351 35.8333 20.8434ZM12.5 29.4684C12.5 31.3851 12.375 31.6768 11.6667 31.6768C10.9167 31.6768 10.8333 31.3851 10.8333 28.9684C10.8333 26.3434 10.875 26.2601 11.6667 26.7601C12.3333 27.1768 12.5 27.7601 12.5 29.4684Z"/>
    </symbol>
    <symbol id="gr_icon12" viewBox="0 0 40 33">
        <path d="M34.2969 8.08594V16.1719H33.8281H33.3672L33.3438 16.9688L33.3203 17.7734L32.8984 17.7969C32.1016 17.8438 32.1094 17.8438 32.1094 16.9531V16.1719H31.6406H31.1719V11.0547V5.9375H30.2734H29.375V11.0547V16.1719H28.8672H28.3594V16.9922V17.8203L27.1328 17.7969L25.8984 17.7734L25.875 13.1094L25.8594 8.45312L24.625 9.00781C23.9531 9.3125 21.2891 10.5156 18.7109 11.6875L14.0234 13.8125L13.9844 11.1406L13.9453 8.46094L8.125 11.1016C4.92188 12.5547 2 13.8828 1.625 14.0547L0.9375 14.3594V22.9219V31.4844H0.46875H0V32.1484V32.8125H20H40V32.1484V31.4844H39.4141H38.8281V24.6484V17.8125H37.9688H37.1094V16.9922V16.1797L36.625 16.1562L36.1328 16.1328L36.1094 8.0625L36.0938 0H35.1953H34.2969V8.08594ZM7.42188 22.1484V22.9688H6.5625H5.70312V22.1484V21.3281H6.5625H7.42188V22.1484ZM10.625 22.1484V22.9688H9.80469H8.98438V22.1484V21.3281H9.80469H10.625V22.1484ZM13.9062 22.1484V22.9688H13.0469H12.1875V22.1484V21.3281H13.0469H13.9062V22.1484ZM29.6094 22.1484V22.9688H28.7891H27.9688V22.1484V21.3281H28.7891H29.6094V22.1484ZM32.8906 22.1484V22.9766L32.0547 22.9531L31.2109 22.9297L31.1875 22.6953C31.1719 22.5625 31.1797 22.2031 31.2109 21.8906L31.2656 21.3281H32.0781H32.8906V22.1484ZM36.1328 22.1484V22.9297L35.2969 22.9531L34.4531 22.9766V22.1484V21.3203L35.2969 21.3438L36.1328 21.3672V22.1484ZM7.40625 25.4062L7.42969 26.25H6.5625H5.70312V25.4453C5.70312 25 5.72656 24.6094 5.75781 24.5781C5.78906 24.5469 6.16406 24.5391 6.59375 24.5469L7.38281 24.5703L7.40625 25.4062ZM10.625 25.3906V26.25H9.80469H8.98438V25.3906V24.5312H9.80469H10.625V25.3906ZM13.8906 25.4141L13.9141 26.2578L13.0703 26.2344L12.2266 26.2109L12.2031 25.4766C12.1953 25.0703 12.1953 24.6953 12.2188 24.6406C12.2422 24.5703 12.4844 24.5469 13.0625 24.5547L13.8672 24.5703L13.8906 25.4141ZM29.6094 25.3906V26.25H28.7891H27.9688V25.3906V24.5312H28.7891H29.6094V25.3906ZM32.875 25.4062L32.8984 26.25H32.0781C31.25 26.25 31.25 26.25 31.2031 26.0469C31.1484 25.8281 31.2188 24.7266 31.2969 24.6016C31.3203 24.5625 31.6797 24.5391 32.0938 24.5469L32.8516 24.5703L32.875 25.4062ZM36.125 24.6484C36.1875 24.8125 36.1875 25.9609 36.125 26.125C36.0859 26.2266 35.9297 26.25 35.2656 26.25H34.4531V25.4453C34.4531 25 34.4688 24.6172 34.4922 24.5938C34.5156 24.5703 34.8828 24.5469 35.3047 24.5391C35.9531 24.5234 36.0781 24.5469 36.125 24.6484ZM33.0312 30.2109L33.0078 31.7578H32.0391H31.0625L31.0469 30.2734C31.0391 29.4609 31.0469 28.7656 31.0625 28.7344C31.0859 28.7031 31.5391 28.6719 32.0781 28.6719H33.0469L33.0312 30.2109Z"/>
    </symbol>
    <symbol id="gr_icon13" viewBox="0 0 35 35">
        <path d="M16.6256 0.0452971C14.315 0.371111 12.4488 1.70152 11.485 3.71749C11.0543 4.62706 11.1773 4.72888 12.6471 4.72888C13.8297 4.72888 13.8092 4.73566 14.1373 4.25373C15.6891 1.97982 19.3121 1.97982 20.8639 4.25373C21.192 4.73566 21.1715 4.72888 22.3541 4.72888C23.5435 4.72888 23.7213 4.67457 23.7213 4.3284C23.7213 4.09761 23.2838 3.20841 22.942 2.72648C22.3062 1.84406 21.1783 0.941286 20.1734 0.520443C19.2027 0.106387 17.651 -0.0972466 16.6256 0.0452971Z"/>
        <path d="M2.60407 6.09322C1.72223 6.26292 0.792545 6.97563 0.382389 7.79017C0.0132483 8.53004 -0.00725954 8.76083 0.0132483 13.1729L0.0337561 17.1709L6.93805 18.9289C12.0308 20.2186 13.8902 20.6666 14.0132 20.6327C14.3072 20.5377 14.355 20.334 14.355 19.0986C14.355 18.4131 14.3824 17.904 14.4302 17.8157C14.5943 17.5103 14.8062 17.4899 17.4996 17.4899C20.1929 17.4899 20.4049 17.5103 20.5689 17.8157C20.6168 17.904 20.6441 18.4131 20.6441 19.0986C20.6441 20.334 20.692 20.5377 20.9859 20.6327C21.109 20.6666 22.9683 20.2186 28.0611 18.9289L34.9654 17.1709L34.9859 13.1729C34.9996 10.4374 34.9791 9.03234 34.9244 8.71331C34.7193 7.47114 33.7554 6.44619 32.4908 6.12037C32.149 6.03213 30.2349 6.01856 17.4996 6.02534C9.47419 6.03213 2.76813 6.05928 2.60407 6.09322Z"/>
        <path d="M0 25.0379C0 32.1583 0 32.138 0.389648 32.8371C0.792969 33.5838 1.53125 34.1947 2.31055 34.439C2.67969 34.5544 3.44531 34.5612 17.5 34.5612C31.5547 34.5612 32.3203 34.5544 32.6895 34.439C33.4688 34.1947 34.207 33.5838 34.6104 32.8371C35 32.138 35 32.1583 35 25.0379C35 20.8227 34.9795 18.5081 34.9316 18.5081C34.8223 18.5081 21.1709 21.9699 20.9658 22.0513C20.8564 22.092 20.7402 22.2006 20.7061 22.2889C20.6719 22.3771 20.6445 22.9134 20.6445 23.47V24.4949L20.4463 24.6918L20.248 24.8886H17.5H14.752L14.5537 24.6918L14.3555 24.4949V23.47C14.3555 22.9134 14.3281 22.3771 14.2939 22.2889C14.2598 22.2006 14.1436 22.092 14.0342 22.0513C13.8291 21.9699 0.177734 18.5081 0.0683594 18.5081C0.0205078 18.5081 0 20.8227 0 25.0379Z"/>
        <path d="M15.751 18.9221C15.6279 19.0579 15.6211 19.1936 15.6211 21.2367C15.6211 23.307 15.6279 23.4088 15.751 23.5039C15.9492 23.6464 19.0527 23.6464 19.251 23.5039C19.374 23.4088 19.3809 23.307 19.3809 21.2367C19.3809 19.1936 19.374 19.0579 19.251 18.9221C19.1279 18.7863 19.0596 18.7796 17.501 18.7796C15.9424 18.7796 15.874 18.7863 15.751 18.9221Z"/>
    </symbol>
    <symbol id="gr_icon14" viewBox="0 0 10 10">
        <path fill-rule="evenodd" clip-rule="evenodd" d="M6.36785 0.266968H3.96785V0.946967H2.3678V3.39619L1.52778 3.62697L2.72778 5.52697V7.11963C2.6662 7.06492 2.58613 7.00211 2.48142 6.95168C2.34072 6.88392 2.17486 6.84697 1.96781 6.84697C1.31761 6.84697 0.789793 7.22072 0.59568 7.41484C0.478523 7.53199 0.478523 7.72194 0.59568 7.8391C0.712838 7.95626 0.902787 7.95626 1.01994 7.8391C1.14583 7.71321 1.53001 7.44697 1.96781 7.44697C2.10077 7.44697 2.17491 7.47002 2.22108 7.49226C2.27009 7.51586 2.30868 7.548 2.3697 7.60543L2.38576 7.62064C2.44151 7.6736 2.52545 7.75335 2.63485 7.81417C2.76508 7.88657 2.91746 7.92697 3.10781 7.92697C3.28773 7.92697 3.43328 7.89709 3.5598 7.84502C3.6802 7.79547 3.77153 7.72996 3.83658 7.68331L3.84012 7.68078C3.90966 7.63092 3.9495 7.60325 3.99831 7.58256C4.04201 7.56404 4.10425 7.54697 4.20781 7.54697C4.31115 7.54697 4.36145 7.56392 4.39133 7.57794C4.42414 7.59333 4.44638 7.61009 4.49553 7.64712L4.49554 7.64713L4.53607 7.67753C4.6109 7.73329 4.71008 7.80118 4.85543 7.85124C4.99794 7.90032 5.16874 7.92697 5.38781 7.92697C5.60493 7.92697 5.77237 7.90087 5.90949 7.8464C6.05364 7.78915 6.14048 7.70951 6.19967 7.65184L6.20029 7.65123L6.2003 7.65122L6.2003 7.65122L6.20031 7.65121L6.20032 7.65121C6.25888 7.59415 6.26765 7.5856 6.28839 7.57537C6.30606 7.56665 6.3564 7.54697 6.48781 7.54697C6.61774 7.54697 6.68023 7.56616 6.71273 7.58058C6.74781 7.59614 6.77095 7.61483 6.83176 7.66618C6.8915 7.71663 6.98008 7.79097 7.11472 7.84559C7.24792 7.89963 7.40603 7.92697 7.60781 7.92697C7.82337 7.92697 7.99458 7.88482 8.1377 7.80318C8.26983 7.72781 8.35796 7.62848 8.41541 7.56374L8.42203 7.55628C8.48481 7.48565 8.51502 7.45485 8.5552 7.43193C8.58958 7.41232 8.65337 7.38697 8.78781 7.38697C8.99854 7.38697 9.0951 7.4521 9.14001 7.49839C9.19262 7.5526 9.20715 7.61483 9.20801 7.63807C9.21415 7.80364 9.35334 7.9329 9.51891 7.92676C9.68448 7.92063 9.81374 7.78144 9.8076 7.61587C9.8018 7.45911 9.73633 7.25133 9.57061 7.08055C9.39719 6.90184 9.13708 6.78697 8.78781 6.78697C8.57225 6.78697 8.40104 6.82912 8.25792 6.91076C8.12578 6.98613 8.03765 7.08546 7.98021 7.1502L7.97359 7.15766C7.91081 7.22829 7.8806 7.25909 7.84042 7.28201C7.80604 7.30162 7.74225 7.32697 7.60781 7.32697H7.60778V5.52697L8.80778 3.62697L7.96779 3.3962V0.946967H6.36785V0.266968ZM7.0078 1.90697H3.3278V3.13246L5.16778 2.62697L7.0078 3.13247V1.90697ZM8.1577 9.14318C8.01457 9.22482 7.84336 9.26697 7.6278 9.26697C7.42602 9.26697 7.26792 9.23963 7.13471 9.18559C7.00007 9.13097 6.9115 9.05663 6.85175 9.00618C6.79095 8.95483 6.76781 8.93614 6.73272 8.92058C6.70023 8.90616 6.63774 8.88697 6.50781 8.88697C6.3764 8.88697 6.32606 8.90665 6.30838 8.91537C6.28764 8.9256 6.27887 8.93415 6.22029 8.99123L6.21966 8.99184C6.16048 9.04951 6.07364 9.12915 5.92949 9.18641C5.79236 9.24087 5.62492 9.26697 5.40781 9.26697C5.18873 9.26697 5.01793 9.24032 4.87543 9.19124C4.73007 9.14118 4.6309 9.0733 4.55606 9.01754L4.51553 8.98713L4.51553 8.98712C4.46637 8.95009 4.44414 8.93334 4.41133 8.91794C4.38145 8.90393 4.33115 8.88697 4.22781 8.88697C4.12425 8.88697 4.06201 8.90404 4.0183 8.92257C3.9695 8.94325 3.92965 8.97092 3.86011 9.02078L3.85658 9.02332C3.79153 9.06997 3.70019 9.13547 3.57979 9.18502C3.45328 9.23709 3.30772 9.26697 3.12781 9.26697C2.93746 9.26697 2.78507 9.22658 2.65484 9.15417C2.54545 9.09335 2.4615 9.0136 2.40575 8.96064L2.3897 8.94543C2.32868 8.888 2.29008 8.85586 2.24107 8.83226C2.1949 8.81002 2.12076 8.78697 1.98781 8.78697C1.55001 8.78697 1.16583 9.05322 1.03994 9.1791C0.922782 9.29626 0.732833 9.29626 0.615676 9.1791C0.498518 9.06195 0.498518 8.872 0.615676 8.75484C0.809789 8.56073 1.33761 8.18697 1.98781 8.18697C2.19485 8.18697 2.36071 8.22392 2.50142 8.29168C2.63928 8.35808 2.73444 8.44594 2.80092 8.50851L2.80469 8.51207C2.87446 8.57773 2.90571 8.60715 2.9464 8.62977C2.97804 8.64737 3.02815 8.66697 3.12781 8.66697C3.23789 8.66697 3.30483 8.64935 3.35144 8.63017C3.40197 8.60938 3.44326 8.58137 3.5105 8.53316L3.51928 8.52686C3.58184 8.48193 3.6703 8.41839 3.78418 8.37013C3.90861 8.3174 4.05137 8.28697 4.22781 8.28697C4.40446 8.28697 4.54417 8.31752 4.66616 8.37475C4.76133 8.4194 4.84048 8.47991 4.89133 8.51879L4.91455 8.53641C4.96722 8.57565 5.00929 8.60276 5.07081 8.62395C5.13518 8.64612 5.23688 8.66697 5.40781 8.66697C5.58069 8.66697 5.66575 8.64557 5.708 8.62879C5.74323 8.61479 5.76263 8.59943 5.80095 8.5621L5.81373 8.54947C5.85577 8.50767 5.93167 8.43219 6.04285 8.37732C6.16956 8.31479 6.31921 8.28697 6.50781 8.28697C6.69787 8.28697 6.84788 8.31528 6.97601 8.37212C7.09328 8.42413 7.17571 8.49414 7.2282 8.53872L7.23886 8.54776C7.29161 8.59231 7.31929 8.61297 7.36027 8.6296C7.40269 8.64681 7.47959 8.66697 7.6278 8.66697C7.76225 8.66697 7.82604 8.64162 7.86041 8.62201C7.90059 8.59909 7.9308 8.56829 7.99358 8.49766L8.0002 8.4902C8.05765 8.42546 8.14578 8.32613 8.27791 8.25076C8.42104 8.16912 8.59225 8.12697 8.8078 8.12697C9.15708 8.12697 9.41718 8.24184 9.5906 8.42055C9.75632 8.59134 9.82179 8.79911 9.8276 8.95587C9.83373 9.12144 9.70448 9.26063 9.53891 9.26677C9.37334 9.2729 9.23414 9.14365 9.22801 8.97807C9.22715 8.95483 9.21262 8.89261 9.16001 8.83839C9.11509 8.7921 9.01853 8.72697 8.8078 8.72697C8.67336 8.72697 8.60957 8.75232 8.5752 8.77193C8.53501 8.79485 8.50481 8.82565 8.44203 8.89628L8.43541 8.90374C8.37796 8.96848 8.28983 9.06781 8.1577 9.14318Z"/>
    </symbol>
    <symbol id="train" viewBox="0 0 54 36">
        <path d="M21.1228 0L27 3.52417L32.8772 0L42.7039 5.89251H11.2961L21.1228 0Z"/>
        <path d="M2.67672 25.2117V8.67753H51.3233V25.2117H2.67672Z"/>
        <path d="M0 27.4397H54V30.2541L51.3233 30.2541V33.0684C51.3233 34.6875 50.0207 36 48.4138 36C46.8069 36 45.5043 34.6875 45.5043 33.0684H40.8491C40.8491 34.6875 39.5465 36 37.9397 36C36.3328 36 35.0302 34.6875 35.0302 33.0684V30.2541H18.9698V33.0684C18.9698 34.6875 17.6672 36 16.0603 36C14.4535 36 13.1509 34.6875 13.1509 33.0684H8.49569C8.49569 34.6875 7.19307 36 5.58621 36C3.97934 36 2.67672 34.6875 2.67672 33.0684V30.2541L0 30.2541V27.4397Z"/>
    </symbol>
</svg>